%FSLAX45Y45*%
G04 Gerber Fmt 4.5, Leading zero omitted, Abs format (unit mm)*
G04 Created by KiCad (PCBNEW (5.1.0-0)) date 2019-05-28 16:53:00*
%MOMM*%
%LPD*%
G04 APERTURE LIST*
%ADD10C,0.200000*%
%ADD11C,0.300000*%
G04 APERTURE END LIST*
D10*
X12617964Y-21753735D02*
X12090286Y-22039172D01*
X13095782Y-21388600D02*
X12617964Y-21753735D01*
X13524708Y-20947509D02*
X13095782Y-21388600D01*
X13925508Y-20388541D02*
X13524708Y-20947509D01*
X14217343Y-19784993D02*
X13925508Y-20388541D01*
X14397006Y-19138453D02*
X14217343Y-19784993D01*
X14461291Y-18450505D02*
X14397006Y-19138453D01*
X14469058Y-17170990D02*
X14461291Y-18450505D01*
X6709145Y-11976439D02*
X7123719Y-10585186D01*
X6562811Y-13478856D02*
X6709145Y-11976439D01*
X6559148Y-14704307D02*
X6562811Y-13478856D01*
X6562760Y-15929813D02*
X6559148Y-14704307D01*
X6569460Y-17155341D02*
X6562760Y-15929813D01*
X6575061Y-18380862D02*
X6569460Y-17155341D01*
X6586155Y-18682876D02*
X6575061Y-18380862D01*
X6618236Y-18982020D02*
X6586155Y-18682876D01*
X6672211Y-19277006D02*
X6618236Y-18982020D01*
X6748990Y-19566547D02*
X6672211Y-19277006D01*
X6991788Y-20175510D02*
X6748990Y-19566547D01*
X10803457Y-4472840D02*
X10803457Y-4472840D01*
X8232332Y-21629265D02*
X8232332Y-21629265D01*
X8364798Y-21712115D02*
X8232332Y-21629265D01*
X8497263Y-21794965D02*
X8364798Y-21712115D01*
X8629729Y-21877816D02*
X8497263Y-21794965D01*
X8762194Y-21960666D02*
X8629729Y-21877816D01*
X8893529Y-22015230D02*
X8762194Y-21960666D01*
X9166618Y-22110733D02*
X8893529Y-22015230D01*
X9441925Y-22202764D02*
X9166618Y-22110733D01*
X8812681Y-8059332D02*
X8834778Y-8006090D01*
X8743703Y-8135910D02*
X8812681Y-8059332D01*
X7803062Y-9305031D02*
X8743703Y-8135910D01*
X7123719Y-10585186D02*
X7803062Y-9305031D01*
X7730843Y-4046041D02*
X7886534Y-3944652D01*
X7631946Y-4204639D02*
X7730843Y-4046041D01*
X7597037Y-4412865D02*
X7631946Y-4204639D01*
X7596270Y-4765342D02*
X7597037Y-4412865D01*
X7595831Y-5117820D02*
X7596270Y-4765342D01*
X7322109Y-20721636D02*
X6991788Y-20175510D01*
X7736706Y-21205896D02*
X7322109Y-20721636D01*
X8232332Y-21629265D02*
X7736706Y-21205896D01*
X7702871Y-6497695D02*
X7625430Y-6168044D01*
X7827701Y-6812331D02*
X7702871Y-6497695D01*
X7997666Y-7112563D02*
X7827701Y-6812331D01*
X8160052Y-7325964D02*
X7997666Y-7112563D01*
X8343466Y-7518230D02*
X8160052Y-7325964D01*
X8538143Y-7699184D02*
X8343466Y-7518230D01*
X8734320Y-7878646D02*
X8538143Y-7699184D01*
X8808992Y-7953442D02*
X8734320Y-7878646D01*
X8834778Y-8006090D02*
X8808992Y-7953442D01*
X10170007Y-4414007D02*
X10241891Y-4497729D01*
X10102836Y-4338388D02*
X10170007Y-4414007D01*
X9884619Y-4147538D02*
X10102836Y-4338388D01*
X9643452Y-4012452D02*
X9884619Y-4147538D01*
X9379454Y-3932501D02*
X9643452Y-4012452D01*
X9092747Y-3907057D02*
X9379454Y-3932501D01*
X8842517Y-3907624D02*
X9092747Y-3907057D01*
X8592282Y-3907308D02*
X8842517Y-3907624D01*
X8342048Y-3907116D02*
X8592282Y-3907308D01*
X8091823Y-3908055D02*
X8342048Y-3907116D01*
X7886534Y-3944652D02*
X8091823Y-3908055D01*
X11117059Y-22322405D02*
X10720000Y-22360000D01*
X11511781Y-22241174D02*
X11117059Y-22322405D01*
X12090286Y-22039172D02*
X11511781Y-22241174D01*
X12703547Y-8602128D02*
X12870160Y-8806568D01*
X12531022Y-8400816D02*
X12703547Y-8602128D01*
X12354630Y-8199268D02*
X12531022Y-8400816D01*
X12176419Y-7994121D02*
X12354630Y-8199268D01*
X12300561Y-7879097D02*
X12176419Y-7994121D01*
X12424856Y-7763983D02*
X12300561Y-7879097D01*
X12549160Y-7648705D02*
X12424856Y-7763983D01*
X12673327Y-7533188D02*
X12549160Y-7648705D01*
X12968238Y-7210951D02*
X12673327Y-7533188D01*
X13195264Y-6852909D02*
X12968238Y-7210951D01*
X13347587Y-6458579D02*
X13195264Y-6852909D01*
X13418390Y-6027476D02*
X13347587Y-6458579D01*
X13436263Y-5610871D02*
X13418390Y-6027476D01*
X13441789Y-5193451D02*
X13436263Y-5610871D01*
X13439912Y-4775693D02*
X13441789Y-5193451D01*
X13435576Y-4358076D02*
X13439912Y-4775693D01*
X13398667Y-4182130D02*
X13435576Y-4358076D01*
X13300954Y-4041501D02*
X13398667Y-4182130D01*
X13156618Y-3947453D02*
X13300954Y-4041501D01*
X12979841Y-3911251D02*
X13156618Y-3947453D01*
X12712244Y-3907348D02*
X12979841Y-3911251D01*
X12444602Y-3905661D02*
X12712244Y-3907348D01*
X12176956Y-3906189D02*
X12444602Y-3905661D01*
X11909350Y-3908932D02*
X12176956Y-3906189D01*
X11822727Y-3913348D02*
X11909350Y-3908932D01*
X11736042Y-3923435D02*
X11822727Y-3913348D01*
X11649838Y-3938179D02*
X11736042Y-3923435D01*
X11564659Y-3956569D02*
X11649838Y-3938179D01*
X11352930Y-4030336D02*
X11564659Y-3956569D01*
X11163795Y-4140648D02*
X11352930Y-4030336D01*
X14471941Y-15891430D02*
X14469058Y-17170990D01*
X14469268Y-14611882D02*
X14471941Y-15891430D01*
X14460369Y-13332406D02*
X14469268Y-14611882D01*
X14447931Y-12984614D02*
X14460369Y-13332406D01*
X14418256Y-12636520D02*
X14447931Y-12984614D01*
X14372850Y-12289988D02*
X14418256Y-12636520D01*
X14313218Y-11946881D02*
X14372850Y-12289988D01*
X14094884Y-11095556D02*
X14313218Y-11946881D01*
X13780436Y-10287956D02*
X14094884Y-11095556D01*
X13371615Y-9524741D02*
X13780436Y-10287956D01*
X12870160Y-8806568D02*
X13371615Y-9524741D01*
X10617243Y-3956450D02*
X10641992Y-4002115D01*
X10575943Y-3927506D02*
X10617243Y-3956450D01*
X10518066Y-3916980D02*
X10575943Y-3927506D01*
X10459914Y-3926661D02*
X10518066Y-3916980D01*
X10417463Y-3955419D02*
X10459914Y-3926661D01*
X10390456Y-4000576D02*
X10417463Y-3955419D01*
X10378635Y-4059455D02*
X10390456Y-4000576D01*
X7596144Y-5470295D02*
X7595831Y-5117820D01*
X7597633Y-5822763D02*
X7596144Y-5470295D01*
X7625430Y-6168044D02*
X7597633Y-5822763D01*
X10992528Y-4279543D02*
X11163795Y-4140648D01*
X10834404Y-4439056D02*
X10992528Y-4279543D01*
X10800306Y-4484554D02*
X10834404Y-4439056D01*
X10753518Y-4548238D02*
X10800306Y-4484554D01*
X10707671Y-4596903D02*
X10753518Y-4548238D01*
X10676394Y-4597346D02*
X10707671Y-4596903D01*
X10661352Y-4518564D02*
X10676394Y-4597346D01*
X10653551Y-4377453D02*
X10661352Y-4518564D01*
X10650627Y-4212654D02*
X10653551Y-4377453D01*
X10650216Y-4062808D02*
X10650627Y-4212654D01*
X10641992Y-4002115D02*
X10650216Y-4062808D01*
X10376649Y-4106722D02*
X10378635Y-4059455D01*
X10376359Y-4154106D02*
X10376649Y-4106722D01*
X10376842Y-4201542D02*
X10376359Y-4154106D01*
X10377175Y-4248962D02*
X10376842Y-4201542D01*
X10375607Y-4349557D02*
X10377175Y-4248962D01*
X10370153Y-4462699D02*
X10375607Y-4349557D01*
X10359437Y-4555074D02*
X10370153Y-4462699D01*
X10342079Y-4593367D02*
X10359437Y-4555074D01*
X10304059Y-4565526D02*
X10342079Y-4593367D01*
X10241891Y-4497729D02*
X10304059Y-4565526D01*
X9579912Y-22246913D02*
X9441925Y-22202764D01*
X9664449Y-22265442D02*
X9579912Y-22246913D01*
X9749522Y-22281667D02*
X9664449Y-22265442D01*
X9834917Y-22296367D02*
X9749522Y-22281667D01*
X9920420Y-22310320D02*
X9834917Y-22296367D01*
X10320992Y-22355469D02*
X9920420Y-22310320D01*
X10720000Y-22360000D02*
X10320992Y-22355469D01*
X-39178790Y12593623D02*
X-39178790Y12593623D01*
X-18509049Y16213604D02*
X-18509049Y16213604D01*
D10*
X10615850Y-7373850D02*
X10690850Y-7448850D01*
X10690850Y-7373850D02*
X10615850Y-7448850D01*
X10617972Y-20947972D02*
X10692972Y-21022972D01*
X10692972Y-20947972D02*
X10617972Y-21022972D01*
X7112000Y-11950000D02*
G75*
G03X7112000Y-11950000I-45000J0D01*
G01*
X7112000Y-12250000D02*
G75*
G03X7112000Y-12250000I-45000J0D01*
G01*
X10384650Y-7090150D02*
X10384650Y-7195150D01*
X10332150Y-7142650D02*
X10437150Y-7142650D01*
X10386772Y-20664272D02*
X10386772Y-20769272D01*
X10334272Y-20716772D02*
X10439272Y-20716772D01*
X7870138Y-19585138D02*
X7870138Y-19358862D01*
X7643862Y-19358862D01*
X7643862Y-19585138D01*
X7870138Y-19585138D01*
X7870138Y-12943138D02*
X7870138Y-12716862D01*
X7643862Y-12716862D01*
X7643862Y-12943138D01*
X7870138Y-12943138D01*
X13434138Y-12943138D02*
X13434138Y-12716862D01*
X13207862Y-12716862D01*
X13207862Y-12943138D01*
X13434138Y-12943138D01*
X13434138Y-19585138D02*
X13434138Y-19358862D01*
X13207862Y-19358862D01*
X13207862Y-19585138D01*
X13434138Y-19585138D01*
X9773138Y-4653138D02*
X9773138Y-4426862D01*
X9546862Y-4426862D01*
X9546862Y-4653138D01*
X9773138Y-4653138D01*
X11493138Y-4653138D02*
X11493138Y-4426862D01*
X11266862Y-4426862D01*
X11266862Y-4653138D01*
X11493138Y-4653138D01*
D11*
X-38902361Y-22835714D02*
X-38902361Y-22535714D01*
X-38830933Y-22535714D01*
X-38788076Y-22550000D01*
X-38759504Y-22578571D01*
X-38745218Y-22607143D01*
X-38730933Y-22664286D01*
X-38730933Y-22707143D01*
X-38745218Y-22764286D01*
X-38759504Y-22792857D01*
X-38788076Y-22821429D01*
X-38830933Y-22835714D01*
X-38902361Y-22835714D01*
X-38602361Y-22835714D02*
X-38602361Y-22635714D01*
X-38602361Y-22692857D02*
X-38588076Y-22664286D01*
X-38573790Y-22650000D01*
X-38545218Y-22635714D01*
X-38516647Y-22635714D01*
X-38416647Y-22835714D02*
X-38416647Y-22635714D01*
X-38416647Y-22535714D02*
X-38430933Y-22550000D01*
X-38416647Y-22564286D01*
X-38402361Y-22550000D01*
X-38416647Y-22535714D01*
X-38416647Y-22564286D01*
X-38230933Y-22835714D02*
X-38259504Y-22821429D01*
X-38273790Y-22792857D01*
X-38273790Y-22535714D01*
X-38073790Y-22835714D02*
X-38102361Y-22821429D01*
X-38116647Y-22792857D01*
X-38116647Y-22535714D01*
X-37730933Y-22835714D02*
X-37730933Y-22535714D01*
X-37630933Y-22750000D01*
X-37530933Y-22535714D01*
X-37530933Y-22835714D01*
X-37259504Y-22835714D02*
X-37259504Y-22678571D01*
X-37273790Y-22650000D01*
X-37302361Y-22635714D01*
X-37359504Y-22635714D01*
X-37388076Y-22650000D01*
X-37259504Y-22821429D02*
X-37288076Y-22835714D01*
X-37359504Y-22835714D01*
X-37388076Y-22821429D01*
X-37402361Y-22792857D01*
X-37402361Y-22764286D01*
X-37388076Y-22735714D01*
X-37359504Y-22721429D01*
X-37288076Y-22721429D01*
X-37259504Y-22707143D01*
X-37116647Y-22635714D02*
X-37116647Y-22935714D01*
X-37116647Y-22650000D02*
X-37088076Y-22635714D01*
X-37030933Y-22635714D01*
X-37002361Y-22650000D01*
X-36988076Y-22664286D01*
X-36973790Y-22692857D01*
X-36973790Y-22778571D01*
X-36988076Y-22807143D01*
X-37002361Y-22821429D01*
X-37030933Y-22835714D01*
X-37088076Y-22835714D01*
X-37116647Y-22821429D01*
X-36845218Y-22807143D02*
X-36830933Y-22821429D01*
X-36845218Y-22835714D01*
X-36859504Y-22821429D01*
X-36845218Y-22807143D01*
X-36845218Y-22835714D01*
X-36845218Y-22650000D02*
X-36830933Y-22664286D01*
X-36845218Y-22678571D01*
X-36859504Y-22664286D01*
X-36845218Y-22650000D01*
X-36845218Y-22678571D01*
X-39263790Y-23292500D02*
X-39188790Y-23367500D01*
X-39188790Y-23292500D02*
X-39263790Y-23367500D01*
X-38845218Y-23165714D02*
X-38816647Y-23165714D01*
X-38788076Y-23180000D01*
X-38773790Y-23194286D01*
X-38759504Y-23222857D01*
X-38745218Y-23280000D01*
X-38745218Y-23351429D01*
X-38759504Y-23408571D01*
X-38773790Y-23437143D01*
X-38788076Y-23451429D01*
X-38816647Y-23465714D01*
X-38845218Y-23465714D01*
X-38873790Y-23451429D01*
X-38888076Y-23437143D01*
X-38902361Y-23408571D01*
X-38916647Y-23351429D01*
X-38916647Y-23280000D01*
X-38902361Y-23222857D01*
X-38888076Y-23194286D01*
X-38873790Y-23180000D01*
X-38845218Y-23165714D01*
X-38616647Y-23437143D02*
X-38602361Y-23451429D01*
X-38616647Y-23465714D01*
X-38630933Y-23451429D01*
X-38616647Y-23437143D01*
X-38616647Y-23465714D01*
X-38502361Y-23165714D02*
X-38302361Y-23165714D01*
X-38430933Y-23465714D01*
X-38045218Y-23165714D02*
X-38188076Y-23165714D01*
X-38202361Y-23308571D01*
X-38188076Y-23294286D01*
X-38159504Y-23280000D01*
X-38088076Y-23280000D01*
X-38059504Y-23294286D01*
X-38045218Y-23308571D01*
X-38030933Y-23337143D01*
X-38030933Y-23408571D01*
X-38045218Y-23437143D01*
X-38059504Y-23451429D01*
X-38088076Y-23465714D01*
X-38159504Y-23465714D01*
X-38188076Y-23451429D01*
X-38202361Y-23437143D01*
X-37902361Y-23465714D02*
X-37902361Y-23265714D01*
X-37902361Y-23294286D02*
X-37888076Y-23280000D01*
X-37859504Y-23265714D01*
X-37816647Y-23265714D01*
X-37788076Y-23280000D01*
X-37773790Y-23308571D01*
X-37773790Y-23465714D01*
X-37773790Y-23308571D02*
X-37759504Y-23280000D01*
X-37730933Y-23265714D01*
X-37688076Y-23265714D01*
X-37659504Y-23280000D01*
X-37645218Y-23308571D01*
X-37645218Y-23465714D01*
X-37502361Y-23465714D02*
X-37502361Y-23265714D01*
X-37502361Y-23294286D02*
X-37488076Y-23280000D01*
X-37459504Y-23265714D01*
X-37416647Y-23265714D01*
X-37388076Y-23280000D01*
X-37373790Y-23308571D01*
X-37373790Y-23465714D01*
X-37373790Y-23308571D02*
X-37359504Y-23280000D01*
X-37330933Y-23265714D01*
X-37288076Y-23265714D01*
X-37259504Y-23280000D01*
X-37245218Y-23308571D01*
X-37245218Y-23465714D01*
X-36659504Y-23151429D02*
X-36916647Y-23537143D01*
X-36273790Y-23165714D02*
X-36245218Y-23165714D01*
X-36216647Y-23180000D01*
X-36202361Y-23194286D01*
X-36188076Y-23222857D01*
X-36173790Y-23280000D01*
X-36173790Y-23351429D01*
X-36188076Y-23408571D01*
X-36202361Y-23437143D01*
X-36216647Y-23451429D01*
X-36245218Y-23465714D01*
X-36273790Y-23465714D01*
X-36302361Y-23451429D01*
X-36316647Y-23437143D01*
X-36330933Y-23408571D01*
X-36345218Y-23351429D01*
X-36345218Y-23280000D01*
X-36330933Y-23222857D01*
X-36316647Y-23194286D01*
X-36302361Y-23180000D01*
X-36273790Y-23165714D01*
X-36045218Y-23437143D02*
X-36030933Y-23451429D01*
X-36045218Y-23465714D01*
X-36059504Y-23451429D01*
X-36045218Y-23437143D01*
X-36045218Y-23465714D01*
X-35845218Y-23165714D02*
X-35816647Y-23165714D01*
X-35788076Y-23180000D01*
X-35773790Y-23194286D01*
X-35759504Y-23222857D01*
X-35745218Y-23280000D01*
X-35745218Y-23351429D01*
X-35759504Y-23408571D01*
X-35773790Y-23437143D01*
X-35788076Y-23451429D01*
X-35816647Y-23465714D01*
X-35845218Y-23465714D01*
X-35873790Y-23451429D01*
X-35888076Y-23437143D01*
X-35902361Y-23408571D01*
X-35916647Y-23351429D01*
X-35916647Y-23280000D01*
X-35902361Y-23222857D01*
X-35888076Y-23194286D01*
X-35873790Y-23180000D01*
X-35845218Y-23165714D01*
X-35645218Y-23165714D02*
X-35459504Y-23165714D01*
X-35559504Y-23280000D01*
X-35516647Y-23280000D01*
X-35488076Y-23294286D01*
X-35473790Y-23308571D01*
X-35459504Y-23337143D01*
X-35459504Y-23408571D01*
X-35473790Y-23437143D01*
X-35488076Y-23451429D01*
X-35516647Y-23465714D01*
X-35602361Y-23465714D01*
X-35630933Y-23451429D01*
X-35645218Y-23437143D01*
X-35273790Y-23165714D02*
X-35245218Y-23165714D01*
X-35216647Y-23180000D01*
X-35202361Y-23194286D01*
X-35188076Y-23222857D01*
X-35173790Y-23280000D01*
X-35173790Y-23351429D01*
X-35188076Y-23408571D01*
X-35202361Y-23437143D01*
X-35216647Y-23451429D01*
X-35245218Y-23465714D01*
X-35273790Y-23465714D01*
X-35302361Y-23451429D01*
X-35316647Y-23437143D01*
X-35330933Y-23408571D01*
X-35345218Y-23351429D01*
X-35345218Y-23280000D01*
X-35330933Y-23222857D01*
X-35316647Y-23194286D01*
X-35302361Y-23180000D01*
X-35273790Y-23165714D01*
X-35059504Y-23165714D02*
X-35059504Y-23222857D01*
X-34945218Y-23165714D02*
X-34945218Y-23222857D01*
X-34502361Y-23580000D02*
X-34516647Y-23565714D01*
X-34545218Y-23522857D01*
X-34559504Y-23494286D01*
X-34573790Y-23451429D01*
X-34588076Y-23380000D01*
X-34588076Y-23322857D01*
X-34573790Y-23251429D01*
X-34559504Y-23208571D01*
X-34545218Y-23180000D01*
X-34516647Y-23137143D01*
X-34502361Y-23122857D01*
X-34402361Y-23194286D02*
X-34388076Y-23180000D01*
X-34359504Y-23165714D01*
X-34288076Y-23165714D01*
X-34259504Y-23180000D01*
X-34245218Y-23194286D01*
X-34230933Y-23222857D01*
X-34230933Y-23251429D01*
X-34245218Y-23294286D01*
X-34416647Y-23465714D01*
X-34230933Y-23465714D01*
X-33873790Y-23465714D02*
X-33873790Y-23165714D01*
X-33745218Y-23465714D02*
X-33745218Y-23308571D01*
X-33759504Y-23280000D01*
X-33788076Y-23265714D01*
X-33830933Y-23265714D01*
X-33859504Y-23280000D01*
X-33873790Y-23294286D01*
X-33559504Y-23465714D02*
X-33588076Y-23451429D01*
X-33602361Y-23437143D01*
X-33616647Y-23408571D01*
X-33616647Y-23322857D01*
X-33602361Y-23294286D01*
X-33588076Y-23280000D01*
X-33559504Y-23265714D01*
X-33516647Y-23265714D01*
X-33488076Y-23280000D01*
X-33473790Y-23294286D01*
X-33459504Y-23322857D01*
X-33459504Y-23408571D01*
X-33473790Y-23437143D01*
X-33488076Y-23451429D01*
X-33516647Y-23465714D01*
X-33559504Y-23465714D01*
X-33288076Y-23465714D02*
X-33316647Y-23451429D01*
X-33330933Y-23422857D01*
X-33330933Y-23165714D01*
X-33059504Y-23451429D02*
X-33088076Y-23465714D01*
X-33145218Y-23465714D01*
X-33173790Y-23451429D01*
X-33188076Y-23422857D01*
X-33188076Y-23308571D01*
X-33173790Y-23280000D01*
X-33145218Y-23265714D01*
X-33088076Y-23265714D01*
X-33059504Y-23280000D01*
X-33045218Y-23308571D01*
X-33045218Y-23337143D01*
X-33188076Y-23365714D01*
X-32930933Y-23451429D02*
X-32902361Y-23465714D01*
X-32845218Y-23465714D01*
X-32816647Y-23451429D01*
X-32802361Y-23422857D01*
X-32802361Y-23408571D01*
X-32816647Y-23380000D01*
X-32845218Y-23365714D01*
X-32888076Y-23365714D01*
X-32916647Y-23351429D01*
X-32930933Y-23322857D01*
X-32930933Y-23308571D01*
X-32916647Y-23280000D01*
X-32888076Y-23265714D01*
X-32845218Y-23265714D01*
X-32816647Y-23280000D01*
X-32702361Y-23580000D02*
X-32688076Y-23565714D01*
X-32659504Y-23522857D01*
X-32645218Y-23494286D01*
X-32630933Y-23451429D01*
X-32616647Y-23380000D01*
X-32616647Y-23322857D01*
X-32630933Y-23251429D01*
X-32645218Y-23208571D01*
X-32659504Y-23180000D01*
X-32688076Y-23137143D01*
X-32702361Y-23122857D01*
X-32159504Y-23580000D02*
X-32173790Y-23565714D01*
X-32202361Y-23522857D01*
X-32216647Y-23494286D01*
X-32230933Y-23451429D01*
X-32245218Y-23380000D01*
X-32245218Y-23322857D01*
X-32230933Y-23251429D01*
X-32216647Y-23208571D01*
X-32202361Y-23180000D01*
X-32173790Y-23137143D01*
X-32159504Y-23122857D01*
X-32045218Y-23265714D02*
X-32045218Y-23465714D01*
X-32045218Y-23294286D02*
X-32030933Y-23280000D01*
X-32002361Y-23265714D01*
X-31959504Y-23265714D01*
X-31930933Y-23280000D01*
X-31916647Y-23308571D01*
X-31916647Y-23465714D01*
X-31730933Y-23465714D02*
X-31759504Y-23451429D01*
X-31773790Y-23437143D01*
X-31788076Y-23408571D01*
X-31788076Y-23322857D01*
X-31773790Y-23294286D01*
X-31759504Y-23280000D01*
X-31730933Y-23265714D01*
X-31688076Y-23265714D01*
X-31659504Y-23280000D01*
X-31645218Y-23294286D01*
X-31630933Y-23322857D01*
X-31630933Y-23408571D01*
X-31645218Y-23437143D01*
X-31659504Y-23451429D01*
X-31688076Y-23465714D01*
X-31730933Y-23465714D01*
X-31545218Y-23265714D02*
X-31430933Y-23265714D01*
X-31502361Y-23165714D02*
X-31502361Y-23422857D01*
X-31488076Y-23451429D01*
X-31459504Y-23465714D01*
X-31430933Y-23465714D01*
X-31102361Y-23265714D02*
X-31102361Y-23565714D01*
X-31102361Y-23280000D02*
X-31073790Y-23265714D01*
X-31016647Y-23265714D01*
X-30988076Y-23280000D01*
X-30973790Y-23294286D01*
X-30959504Y-23322857D01*
X-30959504Y-23408571D01*
X-30973790Y-23437143D01*
X-30988076Y-23451429D01*
X-31016647Y-23465714D01*
X-31073790Y-23465714D01*
X-31102361Y-23451429D01*
X-30788076Y-23465714D02*
X-30816647Y-23451429D01*
X-30830933Y-23422857D01*
X-30830933Y-23165714D01*
X-30545218Y-23465714D02*
X-30545218Y-23308571D01*
X-30559504Y-23280000D01*
X-30588076Y-23265714D01*
X-30645218Y-23265714D01*
X-30673790Y-23280000D01*
X-30545218Y-23451429D02*
X-30573790Y-23465714D01*
X-30645218Y-23465714D01*
X-30673790Y-23451429D01*
X-30688076Y-23422857D01*
X-30688076Y-23394286D01*
X-30673790Y-23365714D01*
X-30645218Y-23351429D01*
X-30573790Y-23351429D01*
X-30545218Y-23337143D01*
X-30445218Y-23265714D02*
X-30330933Y-23265714D01*
X-30402361Y-23165714D02*
X-30402361Y-23422857D01*
X-30388076Y-23451429D01*
X-30359504Y-23465714D01*
X-30330933Y-23465714D01*
X-30116647Y-23451429D02*
X-30145218Y-23465714D01*
X-30202361Y-23465714D01*
X-30230933Y-23451429D01*
X-30245218Y-23422857D01*
X-30245218Y-23308571D01*
X-30230933Y-23280000D01*
X-30202361Y-23265714D01*
X-30145218Y-23265714D01*
X-30116647Y-23280000D01*
X-30102361Y-23308571D01*
X-30102361Y-23337143D01*
X-30245218Y-23365714D01*
X-29845218Y-23465714D02*
X-29845218Y-23165714D01*
X-29845218Y-23451429D02*
X-29873790Y-23465714D01*
X-29930933Y-23465714D01*
X-29959504Y-23451429D01*
X-29973790Y-23437143D01*
X-29988076Y-23408571D01*
X-29988076Y-23322857D01*
X-29973790Y-23294286D01*
X-29959504Y-23280000D01*
X-29930933Y-23265714D01*
X-29873790Y-23265714D01*
X-29845218Y-23280000D01*
X-29730933Y-23580000D02*
X-29716647Y-23565714D01*
X-29688076Y-23522857D01*
X-29673790Y-23494286D01*
X-29659504Y-23451429D01*
X-29645218Y-23380000D01*
X-29645218Y-23322857D01*
X-29659504Y-23251429D01*
X-29673790Y-23208571D01*
X-29688076Y-23180000D01*
X-29716647Y-23137143D01*
X-29730933Y-23122857D01*
X-39188790Y-23726000D02*
G75*
G03X-39188790Y-23726000I-45000J0D01*
G01*
X-38845218Y-23561714D02*
X-38816647Y-23561714D01*
X-38788076Y-23576000D01*
X-38773790Y-23590286D01*
X-38759504Y-23618857D01*
X-38745218Y-23676000D01*
X-38745218Y-23747429D01*
X-38759504Y-23804571D01*
X-38773790Y-23833143D01*
X-38788076Y-23847429D01*
X-38816647Y-23861714D01*
X-38845218Y-23861714D01*
X-38873790Y-23847429D01*
X-38888076Y-23833143D01*
X-38902361Y-23804571D01*
X-38916647Y-23747429D01*
X-38916647Y-23676000D01*
X-38902361Y-23618857D01*
X-38888076Y-23590286D01*
X-38873790Y-23576000D01*
X-38845218Y-23561714D01*
X-38616647Y-23833143D02*
X-38602361Y-23847429D01*
X-38616647Y-23861714D01*
X-38630933Y-23847429D01*
X-38616647Y-23833143D01*
X-38616647Y-23861714D01*
X-38459504Y-23861714D02*
X-38402361Y-23861714D01*
X-38373790Y-23847429D01*
X-38359504Y-23833143D01*
X-38330933Y-23790286D01*
X-38316647Y-23733143D01*
X-38316647Y-23618857D01*
X-38330933Y-23590286D01*
X-38345218Y-23576000D01*
X-38373790Y-23561714D01*
X-38430933Y-23561714D01*
X-38459504Y-23576000D01*
X-38473790Y-23590286D01*
X-38488076Y-23618857D01*
X-38488076Y-23690286D01*
X-38473790Y-23718857D01*
X-38459504Y-23733143D01*
X-38430933Y-23747429D01*
X-38373790Y-23747429D01*
X-38345218Y-23733143D01*
X-38330933Y-23718857D01*
X-38316647Y-23690286D01*
X-38130933Y-23561714D02*
X-38102361Y-23561714D01*
X-38073790Y-23576000D01*
X-38059504Y-23590286D01*
X-38045218Y-23618857D01*
X-38030933Y-23676000D01*
X-38030933Y-23747429D01*
X-38045218Y-23804571D01*
X-38059504Y-23833143D01*
X-38073790Y-23847429D01*
X-38102361Y-23861714D01*
X-38130933Y-23861714D01*
X-38159504Y-23847429D01*
X-38173790Y-23833143D01*
X-38188076Y-23804571D01*
X-38202361Y-23747429D01*
X-38202361Y-23676000D01*
X-38188076Y-23618857D01*
X-38173790Y-23590286D01*
X-38159504Y-23576000D01*
X-38130933Y-23561714D01*
X-37902361Y-23861714D02*
X-37902361Y-23661714D01*
X-37902361Y-23690286D02*
X-37888076Y-23676000D01*
X-37859504Y-23661714D01*
X-37816647Y-23661714D01*
X-37788076Y-23676000D01*
X-37773790Y-23704571D01*
X-37773790Y-23861714D01*
X-37773790Y-23704571D02*
X-37759504Y-23676000D01*
X-37730933Y-23661714D01*
X-37688076Y-23661714D01*
X-37659504Y-23676000D01*
X-37645218Y-23704571D01*
X-37645218Y-23861714D01*
X-37502361Y-23861714D02*
X-37502361Y-23661714D01*
X-37502361Y-23690286D02*
X-37488076Y-23676000D01*
X-37459504Y-23661714D01*
X-37416647Y-23661714D01*
X-37388076Y-23676000D01*
X-37373790Y-23704571D01*
X-37373790Y-23861714D01*
X-37373790Y-23704571D02*
X-37359504Y-23676000D01*
X-37330933Y-23661714D01*
X-37288076Y-23661714D01*
X-37259504Y-23676000D01*
X-37245218Y-23704571D01*
X-37245218Y-23861714D01*
X-36659504Y-23547429D02*
X-36916647Y-23933143D01*
X-36273790Y-23561714D02*
X-36245218Y-23561714D01*
X-36216647Y-23576000D01*
X-36202361Y-23590286D01*
X-36188076Y-23618857D01*
X-36173790Y-23676000D01*
X-36173790Y-23747429D01*
X-36188076Y-23804571D01*
X-36202361Y-23833143D01*
X-36216647Y-23847429D01*
X-36245218Y-23861714D01*
X-36273790Y-23861714D01*
X-36302361Y-23847429D01*
X-36316647Y-23833143D01*
X-36330933Y-23804571D01*
X-36345218Y-23747429D01*
X-36345218Y-23676000D01*
X-36330933Y-23618857D01*
X-36316647Y-23590286D01*
X-36302361Y-23576000D01*
X-36273790Y-23561714D01*
X-36045218Y-23833143D02*
X-36030933Y-23847429D01*
X-36045218Y-23861714D01*
X-36059504Y-23847429D01*
X-36045218Y-23833143D01*
X-36045218Y-23861714D01*
X-35845218Y-23561714D02*
X-35816647Y-23561714D01*
X-35788076Y-23576000D01*
X-35773790Y-23590286D01*
X-35759504Y-23618857D01*
X-35745218Y-23676000D01*
X-35745218Y-23747429D01*
X-35759504Y-23804571D01*
X-35773790Y-23833143D01*
X-35788076Y-23847429D01*
X-35816647Y-23861714D01*
X-35845218Y-23861714D01*
X-35873790Y-23847429D01*
X-35888076Y-23833143D01*
X-35902361Y-23804571D01*
X-35916647Y-23747429D01*
X-35916647Y-23676000D01*
X-35902361Y-23618857D01*
X-35888076Y-23590286D01*
X-35873790Y-23576000D01*
X-35845218Y-23561714D01*
X-35645218Y-23561714D02*
X-35459504Y-23561714D01*
X-35559504Y-23676000D01*
X-35516647Y-23676000D01*
X-35488076Y-23690286D01*
X-35473790Y-23704571D01*
X-35459504Y-23733143D01*
X-35459504Y-23804571D01*
X-35473790Y-23833143D01*
X-35488076Y-23847429D01*
X-35516647Y-23861714D01*
X-35602361Y-23861714D01*
X-35630933Y-23847429D01*
X-35645218Y-23833143D01*
X-35188076Y-23561714D02*
X-35330933Y-23561714D01*
X-35345218Y-23704571D01*
X-35330933Y-23690286D01*
X-35302361Y-23676000D01*
X-35230933Y-23676000D01*
X-35202361Y-23690286D01*
X-35188076Y-23704571D01*
X-35173790Y-23733143D01*
X-35173790Y-23804571D01*
X-35188076Y-23833143D01*
X-35202361Y-23847429D01*
X-35230933Y-23861714D01*
X-35302361Y-23861714D01*
X-35330933Y-23847429D01*
X-35345218Y-23833143D01*
X-35059504Y-23561714D02*
X-35059504Y-23618857D01*
X-34945218Y-23561714D02*
X-34945218Y-23618857D01*
X-34502361Y-23976000D02*
X-34516647Y-23961714D01*
X-34545218Y-23918857D01*
X-34559504Y-23890286D01*
X-34573790Y-23847429D01*
X-34588076Y-23776000D01*
X-34588076Y-23718857D01*
X-34573790Y-23647429D01*
X-34559504Y-23604571D01*
X-34545218Y-23576000D01*
X-34516647Y-23533143D01*
X-34502361Y-23518857D01*
X-34402361Y-23590286D02*
X-34388076Y-23576000D01*
X-34359504Y-23561714D01*
X-34288076Y-23561714D01*
X-34259504Y-23576000D01*
X-34245218Y-23590286D01*
X-34230933Y-23618857D01*
X-34230933Y-23647429D01*
X-34245218Y-23690286D01*
X-34416647Y-23861714D01*
X-34230933Y-23861714D01*
X-33873790Y-23861714D02*
X-33873790Y-23561714D01*
X-33745218Y-23861714D02*
X-33745218Y-23704571D01*
X-33759504Y-23676000D01*
X-33788076Y-23661714D01*
X-33830933Y-23661714D01*
X-33859504Y-23676000D01*
X-33873790Y-23690286D01*
X-33559504Y-23861714D02*
X-33588076Y-23847429D01*
X-33602361Y-23833143D01*
X-33616647Y-23804571D01*
X-33616647Y-23718857D01*
X-33602361Y-23690286D01*
X-33588076Y-23676000D01*
X-33559504Y-23661714D01*
X-33516647Y-23661714D01*
X-33488076Y-23676000D01*
X-33473790Y-23690286D01*
X-33459504Y-23718857D01*
X-33459504Y-23804571D01*
X-33473790Y-23833143D01*
X-33488076Y-23847429D01*
X-33516647Y-23861714D01*
X-33559504Y-23861714D01*
X-33288076Y-23861714D02*
X-33316647Y-23847429D01*
X-33330933Y-23818857D01*
X-33330933Y-23561714D01*
X-33059504Y-23847429D02*
X-33088076Y-23861714D01*
X-33145218Y-23861714D01*
X-33173790Y-23847429D01*
X-33188076Y-23818857D01*
X-33188076Y-23704571D01*
X-33173790Y-23676000D01*
X-33145218Y-23661714D01*
X-33088076Y-23661714D01*
X-33059504Y-23676000D01*
X-33045218Y-23704571D01*
X-33045218Y-23733143D01*
X-33188076Y-23761714D01*
X-32930933Y-23847429D02*
X-32902361Y-23861714D01*
X-32845218Y-23861714D01*
X-32816647Y-23847429D01*
X-32802361Y-23818857D01*
X-32802361Y-23804571D01*
X-32816647Y-23776000D01*
X-32845218Y-23761714D01*
X-32888076Y-23761714D01*
X-32916647Y-23747429D01*
X-32930933Y-23718857D01*
X-32930933Y-23704571D01*
X-32916647Y-23676000D01*
X-32888076Y-23661714D01*
X-32845218Y-23661714D01*
X-32816647Y-23676000D01*
X-32702361Y-23976000D02*
X-32688076Y-23961714D01*
X-32659504Y-23918857D01*
X-32645218Y-23890286D01*
X-32630933Y-23847429D01*
X-32616647Y-23776000D01*
X-32616647Y-23718857D01*
X-32630933Y-23647429D01*
X-32645218Y-23604571D01*
X-32659504Y-23576000D01*
X-32688076Y-23533143D01*
X-32702361Y-23518857D01*
X-32159504Y-23976000D02*
X-32173790Y-23961714D01*
X-32202361Y-23918857D01*
X-32216647Y-23890286D01*
X-32230933Y-23847429D01*
X-32245218Y-23776000D01*
X-32245218Y-23718857D01*
X-32230933Y-23647429D01*
X-32216647Y-23604571D01*
X-32202361Y-23576000D01*
X-32173790Y-23533143D01*
X-32159504Y-23518857D01*
X-32045218Y-23661714D02*
X-32045218Y-23861714D01*
X-32045218Y-23690286D02*
X-32030933Y-23676000D01*
X-32002361Y-23661714D01*
X-31959504Y-23661714D01*
X-31930933Y-23676000D01*
X-31916647Y-23704571D01*
X-31916647Y-23861714D01*
X-31730933Y-23861714D02*
X-31759504Y-23847429D01*
X-31773790Y-23833143D01*
X-31788076Y-23804571D01*
X-31788076Y-23718857D01*
X-31773790Y-23690286D01*
X-31759504Y-23676000D01*
X-31730933Y-23661714D01*
X-31688076Y-23661714D01*
X-31659504Y-23676000D01*
X-31645218Y-23690286D01*
X-31630933Y-23718857D01*
X-31630933Y-23804571D01*
X-31645218Y-23833143D01*
X-31659504Y-23847429D01*
X-31688076Y-23861714D01*
X-31730933Y-23861714D01*
X-31545218Y-23661714D02*
X-31430933Y-23661714D01*
X-31502361Y-23561714D02*
X-31502361Y-23818857D01*
X-31488076Y-23847429D01*
X-31459504Y-23861714D01*
X-31430933Y-23861714D01*
X-31102361Y-23661714D02*
X-31102361Y-23961714D01*
X-31102361Y-23676000D02*
X-31073790Y-23661714D01*
X-31016647Y-23661714D01*
X-30988076Y-23676000D01*
X-30973790Y-23690286D01*
X-30959504Y-23718857D01*
X-30959504Y-23804571D01*
X-30973790Y-23833143D01*
X-30988076Y-23847429D01*
X-31016647Y-23861714D01*
X-31073790Y-23861714D01*
X-31102361Y-23847429D01*
X-30788076Y-23861714D02*
X-30816647Y-23847429D01*
X-30830933Y-23818857D01*
X-30830933Y-23561714D01*
X-30545218Y-23861714D02*
X-30545218Y-23704571D01*
X-30559504Y-23676000D01*
X-30588076Y-23661714D01*
X-30645218Y-23661714D01*
X-30673790Y-23676000D01*
X-30545218Y-23847429D02*
X-30573790Y-23861714D01*
X-30645218Y-23861714D01*
X-30673790Y-23847429D01*
X-30688076Y-23818857D01*
X-30688076Y-23790286D01*
X-30673790Y-23761714D01*
X-30645218Y-23747429D01*
X-30573790Y-23747429D01*
X-30545218Y-23733143D01*
X-30445218Y-23661714D02*
X-30330933Y-23661714D01*
X-30402361Y-23561714D02*
X-30402361Y-23818857D01*
X-30388076Y-23847429D01*
X-30359504Y-23861714D01*
X-30330933Y-23861714D01*
X-30116647Y-23847429D02*
X-30145218Y-23861714D01*
X-30202361Y-23861714D01*
X-30230933Y-23847429D01*
X-30245218Y-23818857D01*
X-30245218Y-23704571D01*
X-30230933Y-23676000D01*
X-30202361Y-23661714D01*
X-30145218Y-23661714D01*
X-30116647Y-23676000D01*
X-30102361Y-23704571D01*
X-30102361Y-23733143D01*
X-30245218Y-23761714D01*
X-29845218Y-23861714D02*
X-29845218Y-23561714D01*
X-29845218Y-23847429D02*
X-29873790Y-23861714D01*
X-29930933Y-23861714D01*
X-29959504Y-23847429D01*
X-29973790Y-23833143D01*
X-29988076Y-23804571D01*
X-29988076Y-23718857D01*
X-29973790Y-23690286D01*
X-29959504Y-23676000D01*
X-29930933Y-23661714D01*
X-29873790Y-23661714D01*
X-29845218Y-23676000D01*
X-29730933Y-23976000D02*
X-29716647Y-23961714D01*
X-29688076Y-23918857D01*
X-29673790Y-23890286D01*
X-29659504Y-23847429D01*
X-29645218Y-23776000D01*
X-29645218Y-23718857D01*
X-29659504Y-23647429D01*
X-29673790Y-23604571D01*
X-29688076Y-23576000D01*
X-29716647Y-23533143D01*
X-29730933Y-23518857D01*
X-39241290Y-24069500D02*
X-39241290Y-24174500D01*
X-39293790Y-24122000D02*
X-39188790Y-24122000D01*
X-38745218Y-24257714D02*
X-38916647Y-24257714D01*
X-38830933Y-24257714D02*
X-38830933Y-23957714D01*
X-38859504Y-24000571D01*
X-38888076Y-24029143D01*
X-38916647Y-24043429D01*
X-38616647Y-24229143D02*
X-38602361Y-24243429D01*
X-38616647Y-24257714D01*
X-38630933Y-24243429D01*
X-38616647Y-24229143D01*
X-38616647Y-24257714D01*
X-38416647Y-23957714D02*
X-38388076Y-23957714D01*
X-38359504Y-23972000D01*
X-38345218Y-23986286D01*
X-38330933Y-24014857D01*
X-38316647Y-24072000D01*
X-38316647Y-24143429D01*
X-38330933Y-24200571D01*
X-38345218Y-24229143D01*
X-38359504Y-24243429D01*
X-38388076Y-24257714D01*
X-38416647Y-24257714D01*
X-38445218Y-24243429D01*
X-38459504Y-24229143D01*
X-38473790Y-24200571D01*
X-38488076Y-24143429D01*
X-38488076Y-24072000D01*
X-38473790Y-24014857D01*
X-38459504Y-23986286D01*
X-38445218Y-23972000D01*
X-38416647Y-23957714D01*
X-38045218Y-23957714D02*
X-38188076Y-23957714D01*
X-38202361Y-24100571D01*
X-38188076Y-24086286D01*
X-38159504Y-24072000D01*
X-38088076Y-24072000D01*
X-38059504Y-24086286D01*
X-38045218Y-24100571D01*
X-38030933Y-24129143D01*
X-38030933Y-24200571D01*
X-38045218Y-24229143D01*
X-38059504Y-24243429D01*
X-38088076Y-24257714D01*
X-38159504Y-24257714D01*
X-38188076Y-24243429D01*
X-38202361Y-24229143D01*
X-37902361Y-24257714D02*
X-37902361Y-24057714D01*
X-37902361Y-24086286D02*
X-37888076Y-24072000D01*
X-37859504Y-24057714D01*
X-37816647Y-24057714D01*
X-37788076Y-24072000D01*
X-37773790Y-24100571D01*
X-37773790Y-24257714D01*
X-37773790Y-24100571D02*
X-37759504Y-24072000D01*
X-37730933Y-24057714D01*
X-37688076Y-24057714D01*
X-37659504Y-24072000D01*
X-37645218Y-24100571D01*
X-37645218Y-24257714D01*
X-37502361Y-24257714D02*
X-37502361Y-24057714D01*
X-37502361Y-24086286D02*
X-37488076Y-24072000D01*
X-37459504Y-24057714D01*
X-37416647Y-24057714D01*
X-37388076Y-24072000D01*
X-37373790Y-24100571D01*
X-37373790Y-24257714D01*
X-37373790Y-24100571D02*
X-37359504Y-24072000D01*
X-37330933Y-24057714D01*
X-37288076Y-24057714D01*
X-37259504Y-24072000D01*
X-37245218Y-24100571D01*
X-37245218Y-24257714D01*
X-36659504Y-23943429D02*
X-36916647Y-24329143D01*
X-36273790Y-23957714D02*
X-36245218Y-23957714D01*
X-36216647Y-23972000D01*
X-36202361Y-23986286D01*
X-36188076Y-24014857D01*
X-36173790Y-24072000D01*
X-36173790Y-24143429D01*
X-36188076Y-24200571D01*
X-36202361Y-24229143D01*
X-36216647Y-24243429D01*
X-36245218Y-24257714D01*
X-36273790Y-24257714D01*
X-36302361Y-24243429D01*
X-36316647Y-24229143D01*
X-36330933Y-24200571D01*
X-36345218Y-24143429D01*
X-36345218Y-24072000D01*
X-36330933Y-24014857D01*
X-36316647Y-23986286D01*
X-36302361Y-23972000D01*
X-36273790Y-23957714D01*
X-36045218Y-24229143D02*
X-36030933Y-24243429D01*
X-36045218Y-24257714D01*
X-36059504Y-24243429D01*
X-36045218Y-24229143D01*
X-36045218Y-24257714D01*
X-35845218Y-23957714D02*
X-35816647Y-23957714D01*
X-35788076Y-23972000D01*
X-35773790Y-23986286D01*
X-35759504Y-24014857D01*
X-35745218Y-24072000D01*
X-35745218Y-24143429D01*
X-35759504Y-24200571D01*
X-35773790Y-24229143D01*
X-35788076Y-24243429D01*
X-35816647Y-24257714D01*
X-35845218Y-24257714D01*
X-35873790Y-24243429D01*
X-35888076Y-24229143D01*
X-35902361Y-24200571D01*
X-35916647Y-24143429D01*
X-35916647Y-24072000D01*
X-35902361Y-24014857D01*
X-35888076Y-23986286D01*
X-35873790Y-23972000D01*
X-35845218Y-23957714D01*
X-35488076Y-24057714D02*
X-35488076Y-24257714D01*
X-35559504Y-23943429D02*
X-35630933Y-24157714D01*
X-35445218Y-24157714D01*
X-35173790Y-24257714D02*
X-35345218Y-24257714D01*
X-35259504Y-24257714D02*
X-35259504Y-23957714D01*
X-35288076Y-24000571D01*
X-35316647Y-24029143D01*
X-35345218Y-24043429D01*
X-35059504Y-23957714D02*
X-35059504Y-24014857D01*
X-34945218Y-23957714D02*
X-34945218Y-24014857D01*
X-34502361Y-24372000D02*
X-34516647Y-24357714D01*
X-34545218Y-24314857D01*
X-34559504Y-24286286D01*
X-34573790Y-24243429D01*
X-34588076Y-24172000D01*
X-34588076Y-24114857D01*
X-34573790Y-24043429D01*
X-34559504Y-24000571D01*
X-34545218Y-23972000D01*
X-34516647Y-23929143D01*
X-34502361Y-23914857D01*
X-34402361Y-23986286D02*
X-34388076Y-23972000D01*
X-34359504Y-23957714D01*
X-34288076Y-23957714D01*
X-34259504Y-23972000D01*
X-34245218Y-23986286D01*
X-34230933Y-24014857D01*
X-34230933Y-24043429D01*
X-34245218Y-24086286D01*
X-34416647Y-24257714D01*
X-34230933Y-24257714D01*
X-33873790Y-24257714D02*
X-33873790Y-23957714D01*
X-33745218Y-24257714D02*
X-33745218Y-24100571D01*
X-33759504Y-24072000D01*
X-33788076Y-24057714D01*
X-33830933Y-24057714D01*
X-33859504Y-24072000D01*
X-33873790Y-24086286D01*
X-33559504Y-24257714D02*
X-33588076Y-24243429D01*
X-33602361Y-24229143D01*
X-33616647Y-24200571D01*
X-33616647Y-24114857D01*
X-33602361Y-24086286D01*
X-33588076Y-24072000D01*
X-33559504Y-24057714D01*
X-33516647Y-24057714D01*
X-33488076Y-24072000D01*
X-33473790Y-24086286D01*
X-33459504Y-24114857D01*
X-33459504Y-24200571D01*
X-33473790Y-24229143D01*
X-33488076Y-24243429D01*
X-33516647Y-24257714D01*
X-33559504Y-24257714D01*
X-33288076Y-24257714D02*
X-33316647Y-24243429D01*
X-33330933Y-24214857D01*
X-33330933Y-23957714D01*
X-33059504Y-24243429D02*
X-33088076Y-24257714D01*
X-33145218Y-24257714D01*
X-33173790Y-24243429D01*
X-33188076Y-24214857D01*
X-33188076Y-24100571D01*
X-33173790Y-24072000D01*
X-33145218Y-24057714D01*
X-33088076Y-24057714D01*
X-33059504Y-24072000D01*
X-33045218Y-24100571D01*
X-33045218Y-24129143D01*
X-33188076Y-24157714D01*
X-32930933Y-24243429D02*
X-32902361Y-24257714D01*
X-32845218Y-24257714D01*
X-32816647Y-24243429D01*
X-32802361Y-24214857D01*
X-32802361Y-24200571D01*
X-32816647Y-24172000D01*
X-32845218Y-24157714D01*
X-32888076Y-24157714D01*
X-32916647Y-24143429D01*
X-32930933Y-24114857D01*
X-32930933Y-24100571D01*
X-32916647Y-24072000D01*
X-32888076Y-24057714D01*
X-32845218Y-24057714D01*
X-32816647Y-24072000D01*
X-32702361Y-24372000D02*
X-32688076Y-24357714D01*
X-32659504Y-24314857D01*
X-32645218Y-24286286D01*
X-32630933Y-24243429D01*
X-32616647Y-24172000D01*
X-32616647Y-24114857D01*
X-32630933Y-24043429D01*
X-32645218Y-24000571D01*
X-32659504Y-23972000D01*
X-32688076Y-23929143D01*
X-32702361Y-23914857D01*
X-32159504Y-24372000D02*
X-32173790Y-24357714D01*
X-32202361Y-24314857D01*
X-32216647Y-24286286D01*
X-32230933Y-24243429D01*
X-32245218Y-24172000D01*
X-32245218Y-24114857D01*
X-32230933Y-24043429D01*
X-32216647Y-24000571D01*
X-32202361Y-23972000D01*
X-32173790Y-23929143D01*
X-32159504Y-23914857D01*
X-32045218Y-24057714D02*
X-32045218Y-24257714D01*
X-32045218Y-24086286D02*
X-32030933Y-24072000D01*
X-32002361Y-24057714D01*
X-31959504Y-24057714D01*
X-31930933Y-24072000D01*
X-31916647Y-24100571D01*
X-31916647Y-24257714D01*
X-31730933Y-24257714D02*
X-31759504Y-24243429D01*
X-31773790Y-24229143D01*
X-31788076Y-24200571D01*
X-31788076Y-24114857D01*
X-31773790Y-24086286D01*
X-31759504Y-24072000D01*
X-31730933Y-24057714D01*
X-31688076Y-24057714D01*
X-31659504Y-24072000D01*
X-31645218Y-24086286D01*
X-31630933Y-24114857D01*
X-31630933Y-24200571D01*
X-31645218Y-24229143D01*
X-31659504Y-24243429D01*
X-31688076Y-24257714D01*
X-31730933Y-24257714D01*
X-31545218Y-24057714D02*
X-31430933Y-24057714D01*
X-31502361Y-23957714D02*
X-31502361Y-24214857D01*
X-31488076Y-24243429D01*
X-31459504Y-24257714D01*
X-31430933Y-24257714D01*
X-31102361Y-24057714D02*
X-31102361Y-24357714D01*
X-31102361Y-24072000D02*
X-31073790Y-24057714D01*
X-31016647Y-24057714D01*
X-30988076Y-24072000D01*
X-30973790Y-24086286D01*
X-30959504Y-24114857D01*
X-30959504Y-24200571D01*
X-30973790Y-24229143D01*
X-30988076Y-24243429D01*
X-31016647Y-24257714D01*
X-31073790Y-24257714D01*
X-31102361Y-24243429D01*
X-30788076Y-24257714D02*
X-30816647Y-24243429D01*
X-30830933Y-24214857D01*
X-30830933Y-23957714D01*
X-30545218Y-24257714D02*
X-30545218Y-24100571D01*
X-30559504Y-24072000D01*
X-30588076Y-24057714D01*
X-30645218Y-24057714D01*
X-30673790Y-24072000D01*
X-30545218Y-24243429D02*
X-30573790Y-24257714D01*
X-30645218Y-24257714D01*
X-30673790Y-24243429D01*
X-30688076Y-24214857D01*
X-30688076Y-24186286D01*
X-30673790Y-24157714D01*
X-30645218Y-24143429D01*
X-30573790Y-24143429D01*
X-30545218Y-24129143D01*
X-30445218Y-24057714D02*
X-30330933Y-24057714D01*
X-30402361Y-23957714D02*
X-30402361Y-24214857D01*
X-30388076Y-24243429D01*
X-30359504Y-24257714D01*
X-30330933Y-24257714D01*
X-30116647Y-24243429D02*
X-30145218Y-24257714D01*
X-30202361Y-24257714D01*
X-30230933Y-24243429D01*
X-30245218Y-24214857D01*
X-30245218Y-24100571D01*
X-30230933Y-24072000D01*
X-30202361Y-24057714D01*
X-30145218Y-24057714D01*
X-30116647Y-24072000D01*
X-30102361Y-24100571D01*
X-30102361Y-24129143D01*
X-30245218Y-24157714D01*
X-29845218Y-24257714D02*
X-29845218Y-23957714D01*
X-29845218Y-24243429D02*
X-29873790Y-24257714D01*
X-29930933Y-24257714D01*
X-29959504Y-24243429D01*
X-29973790Y-24229143D01*
X-29988076Y-24200571D01*
X-29988076Y-24114857D01*
X-29973790Y-24086286D01*
X-29959504Y-24072000D01*
X-29930933Y-24057714D01*
X-29873790Y-24057714D01*
X-29845218Y-24072000D01*
X-29730933Y-24372000D02*
X-29716647Y-24357714D01*
X-29688076Y-24314857D01*
X-29673790Y-24286286D01*
X-29659504Y-24243429D01*
X-29645218Y-24172000D01*
X-29645218Y-24114857D01*
X-29659504Y-24043429D01*
X-29673790Y-24000571D01*
X-29688076Y-23972000D01*
X-29716647Y-23929143D01*
X-29730933Y-23914857D01*
X-39235652Y-24631138D02*
X-39235652Y-24404862D01*
X-39461928Y-24404862D01*
X-39461928Y-24631138D01*
X-39235652Y-24631138D01*
X-38930933Y-24353714D02*
X-38745218Y-24353714D01*
X-38845218Y-24468000D01*
X-38802361Y-24468000D01*
X-38773790Y-24482286D01*
X-38759504Y-24496571D01*
X-38745218Y-24525143D01*
X-38745218Y-24596571D01*
X-38759504Y-24625143D01*
X-38773790Y-24639429D01*
X-38802361Y-24653714D01*
X-38888076Y-24653714D01*
X-38916647Y-24639429D01*
X-38930933Y-24625143D01*
X-38616647Y-24625143D02*
X-38602361Y-24639429D01*
X-38616647Y-24653714D01*
X-38630933Y-24639429D01*
X-38616647Y-24625143D01*
X-38616647Y-24653714D01*
X-38488076Y-24382286D02*
X-38473790Y-24368000D01*
X-38445218Y-24353714D01*
X-38373790Y-24353714D01*
X-38345218Y-24368000D01*
X-38330933Y-24382286D01*
X-38316647Y-24410857D01*
X-38316647Y-24439429D01*
X-38330933Y-24482286D01*
X-38502361Y-24653714D01*
X-38316647Y-24653714D01*
X-38130933Y-24353714D02*
X-38102361Y-24353714D01*
X-38073790Y-24368000D01*
X-38059504Y-24382286D01*
X-38045218Y-24410857D01*
X-38030933Y-24468000D01*
X-38030933Y-24539429D01*
X-38045218Y-24596571D01*
X-38059504Y-24625143D01*
X-38073790Y-24639429D01*
X-38102361Y-24653714D01*
X-38130933Y-24653714D01*
X-38159504Y-24639429D01*
X-38173790Y-24625143D01*
X-38188076Y-24596571D01*
X-38202361Y-24539429D01*
X-38202361Y-24468000D01*
X-38188076Y-24410857D01*
X-38173790Y-24382286D01*
X-38159504Y-24368000D01*
X-38130933Y-24353714D01*
X-37902361Y-24653714D02*
X-37902361Y-24453714D01*
X-37902361Y-24482286D02*
X-37888076Y-24468000D01*
X-37859504Y-24453714D01*
X-37816647Y-24453714D01*
X-37788076Y-24468000D01*
X-37773790Y-24496571D01*
X-37773790Y-24653714D01*
X-37773790Y-24496571D02*
X-37759504Y-24468000D01*
X-37730933Y-24453714D01*
X-37688076Y-24453714D01*
X-37659504Y-24468000D01*
X-37645218Y-24496571D01*
X-37645218Y-24653714D01*
X-37502361Y-24653714D02*
X-37502361Y-24453714D01*
X-37502361Y-24482286D02*
X-37488076Y-24468000D01*
X-37459504Y-24453714D01*
X-37416647Y-24453714D01*
X-37388076Y-24468000D01*
X-37373790Y-24496571D01*
X-37373790Y-24653714D01*
X-37373790Y-24496571D02*
X-37359504Y-24468000D01*
X-37330933Y-24453714D01*
X-37288076Y-24453714D01*
X-37259504Y-24468000D01*
X-37245218Y-24496571D01*
X-37245218Y-24653714D01*
X-36659504Y-24339429D02*
X-36916647Y-24725143D01*
X-36273790Y-24353714D02*
X-36245218Y-24353714D01*
X-36216647Y-24368000D01*
X-36202361Y-24382286D01*
X-36188076Y-24410857D01*
X-36173790Y-24468000D01*
X-36173790Y-24539429D01*
X-36188076Y-24596571D01*
X-36202361Y-24625143D01*
X-36216647Y-24639429D01*
X-36245218Y-24653714D01*
X-36273790Y-24653714D01*
X-36302361Y-24639429D01*
X-36316647Y-24625143D01*
X-36330933Y-24596571D01*
X-36345218Y-24539429D01*
X-36345218Y-24468000D01*
X-36330933Y-24410857D01*
X-36316647Y-24382286D01*
X-36302361Y-24368000D01*
X-36273790Y-24353714D01*
X-36045218Y-24625143D02*
X-36030933Y-24639429D01*
X-36045218Y-24653714D01*
X-36059504Y-24639429D01*
X-36045218Y-24625143D01*
X-36045218Y-24653714D01*
X-35745218Y-24653714D02*
X-35916647Y-24653714D01*
X-35830933Y-24653714D02*
X-35830933Y-24353714D01*
X-35859504Y-24396571D01*
X-35888076Y-24425143D01*
X-35916647Y-24439429D01*
X-35630933Y-24382286D02*
X-35616647Y-24368000D01*
X-35588076Y-24353714D01*
X-35516647Y-24353714D01*
X-35488076Y-24368000D01*
X-35473790Y-24382286D01*
X-35459504Y-24410857D01*
X-35459504Y-24439429D01*
X-35473790Y-24482286D01*
X-35645218Y-24653714D01*
X-35459504Y-24653714D01*
X-35202361Y-24353714D02*
X-35259504Y-24353714D01*
X-35288076Y-24368000D01*
X-35302361Y-24382286D01*
X-35330933Y-24425143D01*
X-35345218Y-24482286D01*
X-35345218Y-24596571D01*
X-35330933Y-24625143D01*
X-35316647Y-24639429D01*
X-35288076Y-24653714D01*
X-35230933Y-24653714D01*
X-35202361Y-24639429D01*
X-35188076Y-24625143D01*
X-35173790Y-24596571D01*
X-35173790Y-24525143D01*
X-35188076Y-24496571D01*
X-35202361Y-24482286D01*
X-35230933Y-24468000D01*
X-35288076Y-24468000D01*
X-35316647Y-24482286D01*
X-35330933Y-24496571D01*
X-35345218Y-24525143D01*
X-35059504Y-24353714D02*
X-35059504Y-24410857D01*
X-34945218Y-24353714D02*
X-34945218Y-24410857D01*
X-34502361Y-24768000D02*
X-34516647Y-24753714D01*
X-34545218Y-24710857D01*
X-34559504Y-24682286D01*
X-34573790Y-24639429D01*
X-34588076Y-24568000D01*
X-34588076Y-24510857D01*
X-34573790Y-24439429D01*
X-34559504Y-24396571D01*
X-34545218Y-24368000D01*
X-34516647Y-24325143D01*
X-34502361Y-24310857D01*
X-34259504Y-24353714D02*
X-34316647Y-24353714D01*
X-34345218Y-24368000D01*
X-34359504Y-24382286D01*
X-34388076Y-24425143D01*
X-34402361Y-24482286D01*
X-34402361Y-24596571D01*
X-34388076Y-24625143D01*
X-34373790Y-24639429D01*
X-34345218Y-24653714D01*
X-34288076Y-24653714D01*
X-34259504Y-24639429D01*
X-34245218Y-24625143D01*
X-34230933Y-24596571D01*
X-34230933Y-24525143D01*
X-34245218Y-24496571D01*
X-34259504Y-24482286D01*
X-34288076Y-24468000D01*
X-34345218Y-24468000D01*
X-34373790Y-24482286D01*
X-34388076Y-24496571D01*
X-34402361Y-24525143D01*
X-33873790Y-24653714D02*
X-33873790Y-24353714D01*
X-33745218Y-24653714D02*
X-33745218Y-24496571D01*
X-33759504Y-24468000D01*
X-33788076Y-24453714D01*
X-33830933Y-24453714D01*
X-33859504Y-24468000D01*
X-33873790Y-24482286D01*
X-33559504Y-24653714D02*
X-33588076Y-24639429D01*
X-33602361Y-24625143D01*
X-33616647Y-24596571D01*
X-33616647Y-24510857D01*
X-33602361Y-24482286D01*
X-33588076Y-24468000D01*
X-33559504Y-24453714D01*
X-33516647Y-24453714D01*
X-33488076Y-24468000D01*
X-33473790Y-24482286D01*
X-33459504Y-24510857D01*
X-33459504Y-24596571D01*
X-33473790Y-24625143D01*
X-33488076Y-24639429D01*
X-33516647Y-24653714D01*
X-33559504Y-24653714D01*
X-33288076Y-24653714D02*
X-33316647Y-24639429D01*
X-33330933Y-24610857D01*
X-33330933Y-24353714D01*
X-33059504Y-24639429D02*
X-33088076Y-24653714D01*
X-33145218Y-24653714D01*
X-33173790Y-24639429D01*
X-33188076Y-24610857D01*
X-33188076Y-24496571D01*
X-33173790Y-24468000D01*
X-33145218Y-24453714D01*
X-33088076Y-24453714D01*
X-33059504Y-24468000D01*
X-33045218Y-24496571D01*
X-33045218Y-24525143D01*
X-33188076Y-24553714D01*
X-32930933Y-24639429D02*
X-32902361Y-24653714D01*
X-32845218Y-24653714D01*
X-32816647Y-24639429D01*
X-32802361Y-24610857D01*
X-32802361Y-24596571D01*
X-32816647Y-24568000D01*
X-32845218Y-24553714D01*
X-32888076Y-24553714D01*
X-32916647Y-24539429D01*
X-32930933Y-24510857D01*
X-32930933Y-24496571D01*
X-32916647Y-24468000D01*
X-32888076Y-24453714D01*
X-32845218Y-24453714D01*
X-32816647Y-24468000D01*
X-32702361Y-24768000D02*
X-32688076Y-24753714D01*
X-32659504Y-24710857D01*
X-32645218Y-24682286D01*
X-32630933Y-24639429D01*
X-32616647Y-24568000D01*
X-32616647Y-24510857D01*
X-32630933Y-24439429D01*
X-32645218Y-24396571D01*
X-32659504Y-24368000D01*
X-32688076Y-24325143D01*
X-32702361Y-24310857D01*
X-32159504Y-24768000D02*
X-32173790Y-24753714D01*
X-32202361Y-24710857D01*
X-32216647Y-24682286D01*
X-32230933Y-24639429D01*
X-32245218Y-24568000D01*
X-32245218Y-24510857D01*
X-32230933Y-24439429D01*
X-32216647Y-24396571D01*
X-32202361Y-24368000D01*
X-32173790Y-24325143D01*
X-32159504Y-24310857D01*
X-32045218Y-24453714D02*
X-32045218Y-24653714D01*
X-32045218Y-24482286D02*
X-32030933Y-24468000D01*
X-32002361Y-24453714D01*
X-31959504Y-24453714D01*
X-31930933Y-24468000D01*
X-31916647Y-24496571D01*
X-31916647Y-24653714D01*
X-31730933Y-24653714D02*
X-31759504Y-24639429D01*
X-31773790Y-24625143D01*
X-31788076Y-24596571D01*
X-31788076Y-24510857D01*
X-31773790Y-24482286D01*
X-31759504Y-24468000D01*
X-31730933Y-24453714D01*
X-31688076Y-24453714D01*
X-31659504Y-24468000D01*
X-31645218Y-24482286D01*
X-31630933Y-24510857D01*
X-31630933Y-24596571D01*
X-31645218Y-24625143D01*
X-31659504Y-24639429D01*
X-31688076Y-24653714D01*
X-31730933Y-24653714D01*
X-31545218Y-24453714D02*
X-31430933Y-24453714D01*
X-31502361Y-24353714D02*
X-31502361Y-24610857D01*
X-31488076Y-24639429D01*
X-31459504Y-24653714D01*
X-31430933Y-24653714D01*
X-31102361Y-24453714D02*
X-31102361Y-24753714D01*
X-31102361Y-24468000D02*
X-31073790Y-24453714D01*
X-31016647Y-24453714D01*
X-30988076Y-24468000D01*
X-30973790Y-24482286D01*
X-30959504Y-24510857D01*
X-30959504Y-24596571D01*
X-30973790Y-24625143D01*
X-30988076Y-24639429D01*
X-31016647Y-24653714D01*
X-31073790Y-24653714D01*
X-31102361Y-24639429D01*
X-30788076Y-24653714D02*
X-30816647Y-24639429D01*
X-30830933Y-24610857D01*
X-30830933Y-24353714D01*
X-30545218Y-24653714D02*
X-30545218Y-24496571D01*
X-30559504Y-24468000D01*
X-30588076Y-24453714D01*
X-30645218Y-24453714D01*
X-30673790Y-24468000D01*
X-30545218Y-24639429D02*
X-30573790Y-24653714D01*
X-30645218Y-24653714D01*
X-30673790Y-24639429D01*
X-30688076Y-24610857D01*
X-30688076Y-24582286D01*
X-30673790Y-24553714D01*
X-30645218Y-24539429D01*
X-30573790Y-24539429D01*
X-30545218Y-24525143D01*
X-30445218Y-24453714D02*
X-30330933Y-24453714D01*
X-30402361Y-24353714D02*
X-30402361Y-24610857D01*
X-30388076Y-24639429D01*
X-30359504Y-24653714D01*
X-30330933Y-24653714D01*
X-30116647Y-24639429D02*
X-30145218Y-24653714D01*
X-30202361Y-24653714D01*
X-30230933Y-24639429D01*
X-30245218Y-24610857D01*
X-30245218Y-24496571D01*
X-30230933Y-24468000D01*
X-30202361Y-24453714D01*
X-30145218Y-24453714D01*
X-30116647Y-24468000D01*
X-30102361Y-24496571D01*
X-30102361Y-24525143D01*
X-30245218Y-24553714D01*
X-29845218Y-24653714D02*
X-29845218Y-24353714D01*
X-29845218Y-24639429D02*
X-29873790Y-24653714D01*
X-29930933Y-24653714D01*
X-29959504Y-24639429D01*
X-29973790Y-24625143D01*
X-29988076Y-24596571D01*
X-29988076Y-24510857D01*
X-29973790Y-24482286D01*
X-29959504Y-24468000D01*
X-29930933Y-24453714D01*
X-29873790Y-24453714D01*
X-29845218Y-24468000D01*
X-29730933Y-24768000D02*
X-29716647Y-24753714D01*
X-29688076Y-24710857D01*
X-29673790Y-24682286D01*
X-29659504Y-24639429D01*
X-29645218Y-24568000D01*
X-29645218Y-24510857D01*
X-29659504Y-24439429D01*
X-29673790Y-24396571D01*
X-29688076Y-24368000D01*
X-29716647Y-24325143D01*
X-29730933Y-24310857D01*
M02*
