G04 #@! TF.GenerationSoftware,KiCad,Pcbnew,(5.1.0-0)*
G04 #@! TF.CreationDate,2019-05-28T12:35:33-07:00*
G04 #@! TF.ProjectId,DC27-badge,44433237-2d62-4616-9467-652e6b696361,rev?*
G04 #@! TF.SameCoordinates,Original*
G04 #@! TF.FileFunction,Soldermask,Bot*
G04 #@! TF.FilePolarity,Negative*
%FSLAX46Y46*%
G04 Gerber Fmt 4.6, Leading zero omitted, Abs format (unit mm)*
G04 Created by KiCad (PCBNEW (5.1.0-0)) date 2019-05-28 12:35:33*
%MOMM*%
%LPD*%
G04 APERTURE LIST*
%ADD10C,0.150000*%
G04 APERTURE END LIST*
D10*
G36*
X106722442Y-209301818D02*
G01*
X106827085Y-209345162D01*
X106827086Y-209345163D01*
X106921262Y-209408089D01*
X107001353Y-209488180D01*
X107043399Y-209551107D01*
X107064280Y-209582357D01*
X107107624Y-209687000D01*
X107129721Y-209798089D01*
X107129721Y-209911353D01*
X107107624Y-210022442D01*
X107064280Y-210127085D01*
X107064279Y-210127086D01*
X107001353Y-210221262D01*
X106921262Y-210301353D01*
X106858335Y-210343399D01*
X106827085Y-210364280D01*
X106722442Y-210407624D01*
X106611354Y-210429721D01*
X106498088Y-210429721D01*
X106387000Y-210407624D01*
X106282357Y-210364280D01*
X106251107Y-210343399D01*
X106188180Y-210301353D01*
X106108089Y-210221262D01*
X106045163Y-210127086D01*
X106045162Y-210127085D01*
X106001818Y-210022442D01*
X105979721Y-209911353D01*
X105979721Y-209798089D01*
X106001818Y-209687000D01*
X106045162Y-209582357D01*
X106066043Y-209551107D01*
X106108089Y-209488180D01*
X106188180Y-209408089D01*
X106282356Y-209345163D01*
X106282357Y-209345162D01*
X106387000Y-209301818D01*
X106498088Y-209279721D01*
X106611354Y-209279721D01*
X106722442Y-209301818D01*
X106722442Y-209301818D01*
G37*
G36*
X104079190Y-206470576D02*
G01*
X104211131Y-206525227D01*
X104329875Y-206604570D01*
X104430860Y-206705555D01*
X104510203Y-206824299D01*
X104564854Y-206956240D01*
X104592715Y-207096307D01*
X104592715Y-207239123D01*
X104564854Y-207379190D01*
X104510203Y-207511131D01*
X104430860Y-207629875D01*
X104329875Y-207730860D01*
X104211131Y-207810203D01*
X104079190Y-207864854D01*
X103939123Y-207892715D01*
X103796307Y-207892715D01*
X103656240Y-207864854D01*
X103524299Y-207810203D01*
X103405555Y-207730860D01*
X103304570Y-207629875D01*
X103225227Y-207511131D01*
X103170576Y-207379190D01*
X103142715Y-207239123D01*
X103142715Y-207096307D01*
X103170576Y-206956240D01*
X103225227Y-206824299D01*
X103304570Y-206705555D01*
X103405555Y-206604570D01*
X103524299Y-206525227D01*
X103656240Y-206470576D01*
X103796307Y-206442715D01*
X103939123Y-206442715D01*
X104079190Y-206470576D01*
X104079190Y-206470576D01*
G37*
G36*
X133561163Y-192954587D02*
G01*
X133735041Y-192989173D01*
X134062620Y-193124861D01*
X134357433Y-193321849D01*
X134608151Y-193572567D01*
X134805139Y-193867380D01*
X134940827Y-194194959D01*
X135010000Y-194542716D01*
X135010000Y-194897284D01*
X134940827Y-195245041D01*
X134805139Y-195572620D01*
X134608151Y-195867433D01*
X134357433Y-196118151D01*
X134062620Y-196315139D01*
X133735041Y-196450827D01*
X133561163Y-196485413D01*
X133387286Y-196520000D01*
X133032714Y-196520000D01*
X132858837Y-196485413D01*
X132684959Y-196450827D01*
X132357380Y-196315139D01*
X132062567Y-196118151D01*
X131811849Y-195867433D01*
X131614861Y-195572620D01*
X131479173Y-195245041D01*
X131410000Y-194897284D01*
X131410000Y-194542716D01*
X131479173Y-194194959D01*
X131614861Y-193867380D01*
X131811849Y-193572567D01*
X132062567Y-193321849D01*
X132357380Y-193124861D01*
X132684959Y-192989173D01*
X132858838Y-192954586D01*
X133032714Y-192920000D01*
X133387286Y-192920000D01*
X133561163Y-192954587D01*
X133561163Y-192954587D01*
G37*
G36*
X77921163Y-192954587D02*
G01*
X78095041Y-192989173D01*
X78422620Y-193124861D01*
X78717433Y-193321849D01*
X78968151Y-193572567D01*
X79165139Y-193867380D01*
X79300827Y-194194959D01*
X79370000Y-194542716D01*
X79370000Y-194897284D01*
X79300827Y-195245041D01*
X79165139Y-195572620D01*
X78968151Y-195867433D01*
X78717433Y-196118151D01*
X78422620Y-196315139D01*
X78095041Y-196450827D01*
X77921163Y-196485413D01*
X77747286Y-196520000D01*
X77392714Y-196520000D01*
X77218837Y-196485413D01*
X77044959Y-196450827D01*
X76717380Y-196315139D01*
X76422567Y-196118151D01*
X76171849Y-195867433D01*
X75974861Y-195572620D01*
X75839173Y-195245041D01*
X75770000Y-194897284D01*
X75770000Y-194542716D01*
X75839173Y-194194959D01*
X75974861Y-193867380D01*
X76171849Y-193572567D01*
X76422567Y-193321849D01*
X76717380Y-193124861D01*
X77044959Y-192989173D01*
X77218837Y-192954587D01*
X77392714Y-192920000D01*
X77747286Y-192920000D01*
X77921163Y-192954587D01*
X77921163Y-192954587D01*
G37*
G36*
X139298707Y-185207597D02*
G01*
X139375836Y-185215193D01*
X139573762Y-185275233D01*
X139573765Y-185275234D01*
X139756170Y-185372732D01*
X139916055Y-185503945D01*
X140047268Y-185663830D01*
X140144766Y-185846235D01*
X140144767Y-185846238D01*
X140204807Y-186044164D01*
X140225080Y-186250000D01*
X140204807Y-186455836D01*
X140152350Y-186628765D01*
X140144766Y-186653765D01*
X140047268Y-186836170D01*
X139916055Y-186996055D01*
X139756170Y-187127268D01*
X139573765Y-187224766D01*
X139573762Y-187224767D01*
X139375836Y-187284807D01*
X139298707Y-187292404D01*
X139221580Y-187300000D01*
X139118420Y-187300000D01*
X139041293Y-187292404D01*
X138964164Y-187284807D01*
X138766238Y-187224767D01*
X138766235Y-187224766D01*
X138583830Y-187127268D01*
X138423945Y-186996055D01*
X138292732Y-186836170D01*
X138195234Y-186653765D01*
X138187650Y-186628765D01*
X138135193Y-186455836D01*
X138114920Y-186250000D01*
X138135193Y-186044164D01*
X138195233Y-185846238D01*
X138195234Y-185846235D01*
X138292732Y-185663830D01*
X138423945Y-185503945D01*
X138583830Y-185372732D01*
X138766235Y-185275234D01*
X138766238Y-185275233D01*
X138964164Y-185215193D01*
X139041293Y-185207597D01*
X139118420Y-185200000D01*
X139221580Y-185200000D01*
X139298707Y-185207597D01*
X139298707Y-185207597D01*
G37*
G36*
X141838707Y-185207597D02*
G01*
X141915836Y-185215193D01*
X142113762Y-185275233D01*
X142113765Y-185275234D01*
X142296170Y-185372732D01*
X142456055Y-185503945D01*
X142587268Y-185663830D01*
X142684766Y-185846235D01*
X142684767Y-185846238D01*
X142744807Y-186044164D01*
X142765080Y-186250000D01*
X142744807Y-186455836D01*
X142692350Y-186628765D01*
X142684766Y-186653765D01*
X142587268Y-186836170D01*
X142456055Y-186996055D01*
X142296170Y-187127268D01*
X142113765Y-187224766D01*
X142113762Y-187224767D01*
X141915836Y-187284807D01*
X141838707Y-187292404D01*
X141761580Y-187300000D01*
X141658420Y-187300000D01*
X141581293Y-187292404D01*
X141504164Y-187284807D01*
X141306238Y-187224767D01*
X141306235Y-187224766D01*
X141123830Y-187127268D01*
X140963945Y-186996055D01*
X140832732Y-186836170D01*
X140735234Y-186653765D01*
X140727650Y-186628765D01*
X140675193Y-186455836D01*
X140654920Y-186250000D01*
X140675193Y-186044164D01*
X140735233Y-185846238D01*
X140735234Y-185846235D01*
X140832732Y-185663830D01*
X140963945Y-185503945D01*
X141123830Y-185372732D01*
X141306235Y-185275234D01*
X141306238Y-185275233D01*
X141504164Y-185215193D01*
X141581293Y-185207597D01*
X141658420Y-185200000D01*
X141761580Y-185200000D01*
X141838707Y-185207597D01*
X141838707Y-185207597D01*
G37*
G36*
X71693707Y-185182597D02*
G01*
X71770836Y-185190193D01*
X71968762Y-185250233D01*
X71968765Y-185250234D01*
X72151170Y-185347732D01*
X72311055Y-185478945D01*
X72442268Y-185638830D01*
X72539766Y-185821235D01*
X72539767Y-185821238D01*
X72599807Y-186019164D01*
X72620080Y-186225000D01*
X72599807Y-186430836D01*
X72592223Y-186455836D01*
X72539766Y-186628765D01*
X72442268Y-186811170D01*
X72311055Y-186971055D01*
X72151170Y-187102268D01*
X71968765Y-187199766D01*
X71968762Y-187199767D01*
X71770836Y-187259807D01*
X71693707Y-187267403D01*
X71616580Y-187275000D01*
X71513420Y-187275000D01*
X71436293Y-187267403D01*
X71359164Y-187259807D01*
X71161238Y-187199767D01*
X71161235Y-187199766D01*
X70978830Y-187102268D01*
X70818945Y-186971055D01*
X70687732Y-186811170D01*
X70590234Y-186628765D01*
X70537777Y-186455836D01*
X70530193Y-186430836D01*
X70509920Y-186225000D01*
X70530193Y-186019164D01*
X70590233Y-185821238D01*
X70590234Y-185821235D01*
X70687732Y-185638830D01*
X70818945Y-185478945D01*
X70978830Y-185347732D01*
X71161235Y-185250234D01*
X71161238Y-185250233D01*
X71359164Y-185190193D01*
X71436293Y-185182597D01*
X71513420Y-185175000D01*
X71616580Y-185175000D01*
X71693707Y-185182597D01*
X71693707Y-185182597D01*
G37*
G36*
X70075000Y-187275000D02*
G01*
X67975000Y-187275000D01*
X67975000Y-185175000D01*
X70075000Y-185175000D01*
X70075000Y-187275000D01*
X70075000Y-187275000D01*
G37*
G36*
X139298707Y-182667596D02*
G01*
X139375836Y-182675193D01*
X139573762Y-182735233D01*
X139573765Y-182735234D01*
X139756170Y-182832732D01*
X139916055Y-182963945D01*
X140047268Y-183123830D01*
X140144766Y-183306235D01*
X140144767Y-183306238D01*
X140204807Y-183504164D01*
X140225080Y-183710000D01*
X140204807Y-183915836D01*
X140152350Y-184088765D01*
X140144766Y-184113765D01*
X140047268Y-184296170D01*
X139916055Y-184456055D01*
X139756170Y-184587268D01*
X139573765Y-184684766D01*
X139573762Y-184684767D01*
X139375836Y-184744807D01*
X139298707Y-184752404D01*
X139221580Y-184760000D01*
X139118420Y-184760000D01*
X139041293Y-184752404D01*
X138964164Y-184744807D01*
X138766238Y-184684767D01*
X138766235Y-184684766D01*
X138583830Y-184587268D01*
X138423945Y-184456055D01*
X138292732Y-184296170D01*
X138195234Y-184113765D01*
X138187650Y-184088765D01*
X138135193Y-183915836D01*
X138114920Y-183710000D01*
X138135193Y-183504164D01*
X138195233Y-183306238D01*
X138195234Y-183306235D01*
X138292732Y-183123830D01*
X138423945Y-182963945D01*
X138583830Y-182832732D01*
X138766235Y-182735234D01*
X138766238Y-182735233D01*
X138964164Y-182675193D01*
X139041293Y-182667596D01*
X139118420Y-182660000D01*
X139221580Y-182660000D01*
X139298707Y-182667596D01*
X139298707Y-182667596D01*
G37*
G36*
X141838707Y-182667596D02*
G01*
X141915836Y-182675193D01*
X142113762Y-182735233D01*
X142113765Y-182735234D01*
X142296170Y-182832732D01*
X142456055Y-182963945D01*
X142587268Y-183123830D01*
X142684766Y-183306235D01*
X142684767Y-183306238D01*
X142744807Y-183504164D01*
X142765080Y-183710000D01*
X142744807Y-183915836D01*
X142692350Y-184088765D01*
X142684766Y-184113765D01*
X142587268Y-184296170D01*
X142456055Y-184456055D01*
X142296170Y-184587268D01*
X142113765Y-184684766D01*
X142113762Y-184684767D01*
X141915836Y-184744807D01*
X141838707Y-184752404D01*
X141761580Y-184760000D01*
X141658420Y-184760000D01*
X141581293Y-184752404D01*
X141504164Y-184744807D01*
X141306238Y-184684767D01*
X141306235Y-184684766D01*
X141123830Y-184587268D01*
X140963945Y-184456055D01*
X140832732Y-184296170D01*
X140735234Y-184113765D01*
X140727650Y-184088765D01*
X140675193Y-183915836D01*
X140654920Y-183710000D01*
X140675193Y-183504164D01*
X140735233Y-183306238D01*
X140735234Y-183306235D01*
X140832732Y-183123830D01*
X140963945Y-182963945D01*
X141123830Y-182832732D01*
X141306235Y-182735234D01*
X141306238Y-182735233D01*
X141504164Y-182675193D01*
X141581293Y-182667596D01*
X141658420Y-182660000D01*
X141761580Y-182660000D01*
X141838707Y-182667596D01*
X141838707Y-182667596D01*
G37*
G36*
X71693707Y-182642596D02*
G01*
X71770836Y-182650193D01*
X71968762Y-182710233D01*
X71968765Y-182710234D01*
X72151170Y-182807732D01*
X72311055Y-182938945D01*
X72442268Y-183098830D01*
X72539766Y-183281235D01*
X72539767Y-183281238D01*
X72599807Y-183479164D01*
X72620080Y-183685000D01*
X72599807Y-183890836D01*
X72592223Y-183915836D01*
X72539766Y-184088765D01*
X72442268Y-184271170D01*
X72311055Y-184431055D01*
X72151170Y-184562268D01*
X71968765Y-184659766D01*
X71968762Y-184659767D01*
X71770836Y-184719807D01*
X71693707Y-184727403D01*
X71616580Y-184735000D01*
X71513420Y-184735000D01*
X71436293Y-184727403D01*
X71359164Y-184719807D01*
X71161238Y-184659767D01*
X71161235Y-184659766D01*
X70978830Y-184562268D01*
X70818945Y-184431055D01*
X70687732Y-184271170D01*
X70590234Y-184088765D01*
X70537777Y-183915836D01*
X70530193Y-183890836D01*
X70509920Y-183685000D01*
X70530193Y-183479164D01*
X70590233Y-183281238D01*
X70590234Y-183281235D01*
X70687732Y-183098830D01*
X70818945Y-182938945D01*
X70978830Y-182807732D01*
X71161235Y-182710234D01*
X71161238Y-182710233D01*
X71359164Y-182650193D01*
X71436293Y-182642596D01*
X71513420Y-182635000D01*
X71616580Y-182635000D01*
X71693707Y-182642596D01*
X71693707Y-182642596D01*
G37*
G36*
X69153707Y-182642596D02*
G01*
X69230836Y-182650193D01*
X69428762Y-182710233D01*
X69428765Y-182710234D01*
X69611170Y-182807732D01*
X69771055Y-182938945D01*
X69902268Y-183098830D01*
X69999766Y-183281235D01*
X69999767Y-183281238D01*
X70059807Y-183479164D01*
X70080080Y-183685000D01*
X70059807Y-183890836D01*
X70052223Y-183915836D01*
X69999766Y-184088765D01*
X69902268Y-184271170D01*
X69771055Y-184431055D01*
X69611170Y-184562268D01*
X69428765Y-184659766D01*
X69428762Y-184659767D01*
X69230836Y-184719807D01*
X69153707Y-184727403D01*
X69076580Y-184735000D01*
X68973420Y-184735000D01*
X68896293Y-184727403D01*
X68819164Y-184719807D01*
X68621238Y-184659767D01*
X68621235Y-184659766D01*
X68438830Y-184562268D01*
X68278945Y-184431055D01*
X68147732Y-184271170D01*
X68050234Y-184088765D01*
X67997777Y-183915836D01*
X67990193Y-183890836D01*
X67969920Y-183685000D01*
X67990193Y-183479164D01*
X68050233Y-183281238D01*
X68050234Y-183281235D01*
X68147732Y-183098830D01*
X68278945Y-182938945D01*
X68438830Y-182807732D01*
X68621235Y-182710234D01*
X68621238Y-182710233D01*
X68819164Y-182650193D01*
X68896293Y-182642596D01*
X68973420Y-182635000D01*
X69076580Y-182635000D01*
X69153707Y-182642596D01*
X69153707Y-182642596D01*
G37*
G36*
X142760000Y-182220000D02*
G01*
X140660000Y-182220000D01*
X140660000Y-180120000D01*
X142760000Y-180120000D01*
X142760000Y-182220000D01*
X142760000Y-182220000D01*
G37*
G36*
X139298707Y-180127597D02*
G01*
X139375836Y-180135193D01*
X139573762Y-180195233D01*
X139573765Y-180195234D01*
X139756170Y-180292732D01*
X139916055Y-180423945D01*
X140047268Y-180583830D01*
X140144766Y-180766235D01*
X140144767Y-180766238D01*
X140204807Y-180964164D01*
X140225080Y-181170000D01*
X140204807Y-181375836D01*
X140152350Y-181548765D01*
X140144766Y-181573765D01*
X140047268Y-181756170D01*
X139916055Y-181916055D01*
X139756170Y-182047268D01*
X139573765Y-182144766D01*
X139573762Y-182144767D01*
X139375836Y-182204807D01*
X139298707Y-182212404D01*
X139221580Y-182220000D01*
X139118420Y-182220000D01*
X139041293Y-182212404D01*
X138964164Y-182204807D01*
X138766238Y-182144767D01*
X138766235Y-182144766D01*
X138583830Y-182047268D01*
X138423945Y-181916055D01*
X138292732Y-181756170D01*
X138195234Y-181573765D01*
X138187650Y-181548765D01*
X138135193Y-181375836D01*
X138114920Y-181170000D01*
X138135193Y-180964164D01*
X138195233Y-180766238D01*
X138195234Y-180766235D01*
X138292732Y-180583830D01*
X138423945Y-180423945D01*
X138583830Y-180292732D01*
X138766235Y-180195234D01*
X138766238Y-180195233D01*
X138964164Y-180135193D01*
X139041293Y-180127597D01*
X139118420Y-180120000D01*
X139221580Y-180120000D01*
X139298707Y-180127597D01*
X139298707Y-180127597D01*
G37*
G36*
X71693707Y-180102596D02*
G01*
X71770836Y-180110193D01*
X71968762Y-180170233D01*
X71968765Y-180170234D01*
X72151170Y-180267732D01*
X72311055Y-180398945D01*
X72442268Y-180558830D01*
X72539766Y-180741235D01*
X72539767Y-180741238D01*
X72599807Y-180939164D01*
X72620080Y-181145000D01*
X72599807Y-181350836D01*
X72592223Y-181375836D01*
X72539766Y-181548765D01*
X72442268Y-181731170D01*
X72311055Y-181891055D01*
X72151170Y-182022268D01*
X71968765Y-182119766D01*
X71968762Y-182119767D01*
X71770836Y-182179807D01*
X71693707Y-182187403D01*
X71616580Y-182195000D01*
X71513420Y-182195000D01*
X71436293Y-182187403D01*
X71359164Y-182179807D01*
X71161238Y-182119767D01*
X71161235Y-182119766D01*
X70978830Y-182022268D01*
X70818945Y-181891055D01*
X70687732Y-181731170D01*
X70590234Y-181548765D01*
X70537777Y-181375836D01*
X70530193Y-181350836D01*
X70509920Y-181145000D01*
X70530193Y-180939164D01*
X70590233Y-180741238D01*
X70590234Y-180741235D01*
X70687732Y-180558830D01*
X70818945Y-180398945D01*
X70978830Y-180267732D01*
X71161235Y-180170234D01*
X71161238Y-180170233D01*
X71359164Y-180110193D01*
X71436293Y-180102596D01*
X71513420Y-180095000D01*
X71616580Y-180095000D01*
X71693707Y-180102596D01*
X71693707Y-180102596D01*
G37*
G36*
X69153707Y-180102596D02*
G01*
X69230836Y-180110193D01*
X69428762Y-180170233D01*
X69428765Y-180170234D01*
X69611170Y-180267732D01*
X69771055Y-180398945D01*
X69902268Y-180558830D01*
X69999766Y-180741235D01*
X69999767Y-180741238D01*
X70059807Y-180939164D01*
X70080080Y-181145000D01*
X70059807Y-181350836D01*
X70052223Y-181375836D01*
X69999766Y-181548765D01*
X69902268Y-181731170D01*
X69771055Y-181891055D01*
X69611170Y-182022268D01*
X69428765Y-182119766D01*
X69428762Y-182119767D01*
X69230836Y-182179807D01*
X69153707Y-182187403D01*
X69076580Y-182195000D01*
X68973420Y-182195000D01*
X68896293Y-182187403D01*
X68819164Y-182179807D01*
X68621238Y-182119767D01*
X68621235Y-182119766D01*
X68438830Y-182022268D01*
X68278945Y-181891055D01*
X68147732Y-181731170D01*
X68050234Y-181548765D01*
X67997777Y-181375836D01*
X67990193Y-181350836D01*
X67969920Y-181145000D01*
X67990193Y-180939164D01*
X68050233Y-180741238D01*
X68050234Y-180741235D01*
X68147732Y-180558830D01*
X68278945Y-180398945D01*
X68438830Y-180267732D01*
X68621235Y-180170234D01*
X68621238Y-180170233D01*
X68819164Y-180110193D01*
X68896293Y-180102596D01*
X68973420Y-180095000D01*
X69076580Y-180095000D01*
X69153707Y-180102596D01*
X69153707Y-180102596D01*
G37*
G36*
X85562067Y-167905076D02*
G01*
X85605728Y-167918320D01*
X85645964Y-167939827D01*
X85681231Y-167968769D01*
X85710173Y-168004036D01*
X85731680Y-168044272D01*
X85744924Y-168087933D01*
X85750000Y-168139474D01*
X85750000Y-171460526D01*
X85744924Y-171512067D01*
X85731680Y-171555728D01*
X85710173Y-171595964D01*
X85681231Y-171631231D01*
X85645964Y-171660173D01*
X85605728Y-171681680D01*
X85562067Y-171694924D01*
X85510526Y-171700000D01*
X84089474Y-171700000D01*
X84037933Y-171694924D01*
X83994272Y-171681680D01*
X83954036Y-171660173D01*
X83918769Y-171631231D01*
X83889827Y-171595964D01*
X83868320Y-171555728D01*
X83855076Y-171512067D01*
X83850000Y-171460526D01*
X83850000Y-168139474D01*
X83855076Y-168087933D01*
X83868320Y-168044272D01*
X83889827Y-168004036D01*
X83918769Y-167968769D01*
X83954036Y-167939827D01*
X83994272Y-167918320D01*
X84037933Y-167905076D01*
X84089474Y-167900000D01*
X85510526Y-167900000D01*
X85562067Y-167905076D01*
X85562067Y-167905076D01*
G37*
G36*
X92262067Y-167905076D02*
G01*
X92305728Y-167918320D01*
X92345964Y-167939827D01*
X92381231Y-167968769D01*
X92410173Y-168004036D01*
X92431680Y-168044272D01*
X92444924Y-168087933D01*
X92450000Y-168139474D01*
X92450000Y-171460526D01*
X92444924Y-171512067D01*
X92431680Y-171555728D01*
X92410173Y-171595964D01*
X92381231Y-171631231D01*
X92345964Y-171660173D01*
X92305728Y-171681680D01*
X92262067Y-171694924D01*
X92210526Y-171700000D01*
X90789474Y-171700000D01*
X90737933Y-171694924D01*
X90694272Y-171681680D01*
X90654036Y-171660173D01*
X90618769Y-171631231D01*
X90589827Y-171595964D01*
X90568320Y-171555728D01*
X90555076Y-171512067D01*
X90550000Y-171460526D01*
X90550000Y-168139474D01*
X90555076Y-168087933D01*
X90568320Y-168044272D01*
X90589827Y-168004036D01*
X90618769Y-167968769D01*
X90654036Y-167939827D01*
X90694272Y-167918320D01*
X90737933Y-167905076D01*
X90789474Y-167900000D01*
X92210526Y-167900000D01*
X92262067Y-167905076D01*
X92262067Y-167905076D01*
G37*
G36*
X96220000Y-171300000D02*
G01*
X94120000Y-171300000D01*
X94120000Y-169200000D01*
X96220000Y-169200000D01*
X96220000Y-171300000D01*
X96220000Y-171300000D01*
G37*
G36*
X96180000Y-167070000D02*
G01*
X94080000Y-167070000D01*
X94080000Y-164970000D01*
X96180000Y-164970000D01*
X96180000Y-167070000D01*
X96180000Y-167070000D01*
G37*
G36*
X82690000Y-166990000D02*
G01*
X80590000Y-166990000D01*
X80590000Y-164890000D01*
X82690000Y-164890000D01*
X82690000Y-166990000D01*
X82690000Y-166990000D01*
G37*
G36*
X89618472Y-162106117D02*
G01*
X89672288Y-162122442D01*
X89721891Y-162148956D01*
X89765366Y-162184634D01*
X89801044Y-162228109D01*
X89827558Y-162277712D01*
X89843883Y-162331528D01*
X89850000Y-162393640D01*
X89850000Y-165706360D01*
X89843883Y-165768472D01*
X89827558Y-165822288D01*
X89801044Y-165871891D01*
X89765366Y-165915366D01*
X89721891Y-165951044D01*
X89672288Y-165977558D01*
X89618472Y-165993883D01*
X89556360Y-166000000D01*
X88743640Y-166000000D01*
X88681528Y-165993883D01*
X88627712Y-165977558D01*
X88578109Y-165951044D01*
X88534634Y-165915366D01*
X88498956Y-165871891D01*
X88472442Y-165822288D01*
X88456117Y-165768472D01*
X88450000Y-165706360D01*
X88450000Y-162393640D01*
X88456117Y-162331528D01*
X88472442Y-162277712D01*
X88498956Y-162228109D01*
X88534634Y-162184634D01*
X88578109Y-162148956D01*
X88627712Y-162122442D01*
X88681528Y-162106117D01*
X88743640Y-162100000D01*
X89556360Y-162100000D01*
X89618472Y-162106117D01*
X89618472Y-162106117D01*
G37*
G36*
X87618472Y-162106117D02*
G01*
X87672288Y-162122442D01*
X87721891Y-162148956D01*
X87765366Y-162184634D01*
X87801044Y-162228109D01*
X87827558Y-162277712D01*
X87843883Y-162331528D01*
X87850000Y-162393640D01*
X87850000Y-165706360D01*
X87843883Y-165768472D01*
X87827558Y-165822288D01*
X87801044Y-165871891D01*
X87765366Y-165915366D01*
X87721891Y-165951044D01*
X87672288Y-165977558D01*
X87618472Y-165993883D01*
X87556360Y-166000000D01*
X86743640Y-166000000D01*
X86681528Y-165993883D01*
X86627712Y-165977558D01*
X86578109Y-165951044D01*
X86534634Y-165915366D01*
X86498956Y-165871891D01*
X86472442Y-165822288D01*
X86456117Y-165768472D01*
X86450000Y-165706360D01*
X86450000Y-162393640D01*
X86456117Y-162331528D01*
X86472442Y-162277712D01*
X86498956Y-162228109D01*
X86534634Y-162184634D01*
X86578109Y-162148956D01*
X86627712Y-162122442D01*
X86681528Y-162106117D01*
X86743640Y-162100000D01*
X87556360Y-162100000D01*
X87618472Y-162106117D01*
X87618472Y-162106117D01*
G37*
G36*
X74859628Y-138840493D02*
G01*
X74907354Y-138854971D01*
X74951332Y-138878477D01*
X74989884Y-138910116D01*
X75021523Y-138948668D01*
X75045029Y-138992646D01*
X75059507Y-139040372D01*
X75065000Y-139096141D01*
X75065000Y-140723859D01*
X75059507Y-140779628D01*
X75045029Y-140827354D01*
X75021523Y-140871332D01*
X74989884Y-140909884D01*
X74951332Y-140941523D01*
X74907354Y-140965029D01*
X74859628Y-140979507D01*
X74803859Y-140985000D01*
X73676141Y-140985000D01*
X73620372Y-140979507D01*
X73572646Y-140965029D01*
X73528668Y-140941523D01*
X73490116Y-140909884D01*
X73458477Y-140871332D01*
X73434971Y-140827354D01*
X73420493Y-140779628D01*
X73415000Y-140723859D01*
X73415000Y-139096141D01*
X73420493Y-139040372D01*
X73434971Y-138992646D01*
X73458477Y-138948668D01*
X73490116Y-138910116D01*
X73528668Y-138878477D01*
X73572646Y-138854971D01*
X73620372Y-138840493D01*
X73676141Y-138835000D01*
X74803859Y-138835000D01*
X74859628Y-138840493D01*
X74859628Y-138840493D01*
G37*
G36*
X77659628Y-138840493D02*
G01*
X77707354Y-138854971D01*
X77751332Y-138878477D01*
X77789884Y-138910116D01*
X77821523Y-138948668D01*
X77845029Y-138992646D01*
X77859507Y-139040372D01*
X77865000Y-139096141D01*
X77865000Y-140723859D01*
X77859507Y-140779628D01*
X77845029Y-140827354D01*
X77821523Y-140871332D01*
X77789884Y-140909884D01*
X77751332Y-140941523D01*
X77707354Y-140965029D01*
X77659628Y-140979507D01*
X77603859Y-140985000D01*
X76476141Y-140985000D01*
X76420372Y-140979507D01*
X76372646Y-140965029D01*
X76328668Y-140941523D01*
X76290116Y-140909884D01*
X76258477Y-140871332D01*
X76234971Y-140827354D01*
X76220493Y-140779628D01*
X76215000Y-140723859D01*
X76215000Y-139096141D01*
X76220493Y-139040372D01*
X76234971Y-138992646D01*
X76258477Y-138948668D01*
X76290116Y-138910116D01*
X76328668Y-138878477D01*
X76372646Y-138854971D01*
X76420372Y-138840493D01*
X76476141Y-138835000D01*
X77603859Y-138835000D01*
X77659628Y-138840493D01*
X77659628Y-138840493D01*
G37*
G36*
X75283622Y-134960517D02*
G01*
X75331585Y-134975066D01*
X75375778Y-134998688D01*
X75414519Y-135030481D01*
X75446312Y-135069222D01*
X75469934Y-135113415D01*
X75484483Y-135161378D01*
X75490000Y-135217391D01*
X75490000Y-136042609D01*
X75484483Y-136098622D01*
X75469934Y-136146585D01*
X75446312Y-136190778D01*
X75414519Y-136229519D01*
X75375778Y-136261312D01*
X75331585Y-136284934D01*
X75283622Y-136299483D01*
X75227609Y-136305000D01*
X74477391Y-136305000D01*
X74421378Y-136299483D01*
X74373415Y-136284934D01*
X74329222Y-136261312D01*
X74290481Y-136229519D01*
X74258688Y-136190778D01*
X74235066Y-136146585D01*
X74220517Y-136098622D01*
X74215000Y-136042609D01*
X74215000Y-135217391D01*
X74220517Y-135161378D01*
X74235066Y-135113415D01*
X74258688Y-135069222D01*
X74290481Y-135030481D01*
X74329222Y-134998688D01*
X74373415Y-134975066D01*
X74421378Y-134960517D01*
X74477391Y-134955000D01*
X75227609Y-134955000D01*
X75283622Y-134960517D01*
X75283622Y-134960517D01*
G37*
G36*
X76858622Y-134960517D02*
G01*
X76906585Y-134975066D01*
X76950778Y-134998688D01*
X76989519Y-135030481D01*
X77021312Y-135069222D01*
X77044934Y-135113415D01*
X77059483Y-135161378D01*
X77065000Y-135217391D01*
X77065000Y-136042609D01*
X77059483Y-136098622D01*
X77044934Y-136146585D01*
X77021312Y-136190778D01*
X76989519Y-136229519D01*
X76950778Y-136261312D01*
X76906585Y-136284934D01*
X76858622Y-136299483D01*
X76802609Y-136305000D01*
X76052391Y-136305000D01*
X75996378Y-136299483D01*
X75948415Y-136284934D01*
X75904222Y-136261312D01*
X75865481Y-136229519D01*
X75833688Y-136190778D01*
X75810066Y-136146585D01*
X75795517Y-136098622D01*
X75790000Y-136042609D01*
X75790000Y-135217391D01*
X75795517Y-135161378D01*
X75810066Y-135113415D01*
X75833688Y-135069222D01*
X75865481Y-135030481D01*
X75904222Y-134998688D01*
X75948415Y-134975066D01*
X75996378Y-134960517D01*
X76052391Y-134955000D01*
X76802609Y-134955000D01*
X76858622Y-134960517D01*
X76858622Y-134960517D01*
G37*
G36*
X72499770Y-135996690D02*
G01*
X70700230Y-135996690D01*
X70700230Y-133999030D01*
X72499770Y-133999030D01*
X72499770Y-135996690D01*
X72499770Y-135996690D01*
G37*
G36*
X69393417Y-134457936D02*
G01*
X69407051Y-134459279D01*
X69468273Y-134477851D01*
X69529496Y-134496423D01*
X69642343Y-134556741D01*
X69741255Y-134637915D01*
X69822429Y-134736827D01*
X69882747Y-134849674D01*
X69919891Y-134972120D01*
X69932433Y-135099460D01*
X69921015Y-135215383D01*
X69919891Y-135226801D01*
X69905649Y-135273750D01*
X69882747Y-135349246D01*
X69822429Y-135462093D01*
X69741255Y-135561005D01*
X69642343Y-135642179D01*
X69529496Y-135702497D01*
X69468273Y-135721069D01*
X69407051Y-135739641D01*
X69393417Y-135740984D01*
X69311621Y-135749040D01*
X68549299Y-135749040D01*
X68467503Y-135740984D01*
X68453869Y-135739641D01*
X68392647Y-135721069D01*
X68331424Y-135702497D01*
X68218577Y-135642179D01*
X68119665Y-135561005D01*
X68038491Y-135462093D01*
X67978173Y-135349246D01*
X67955271Y-135273750D01*
X67941029Y-135226801D01*
X67939905Y-135215383D01*
X67928487Y-135099460D01*
X67941029Y-134972120D01*
X67978173Y-134849674D01*
X68038491Y-134736827D01*
X68119665Y-134637915D01*
X68218577Y-134556741D01*
X68331424Y-134496423D01*
X68392647Y-134477851D01*
X68453869Y-134459279D01*
X68467503Y-134457936D01*
X68549299Y-134449880D01*
X69311621Y-134449880D01*
X69393417Y-134457936D01*
X69393417Y-134457936D01*
G37*
G36*
X79025000Y-134930000D02*
G01*
X78175000Y-134930000D01*
X78175000Y-133230000D01*
X79025000Y-133230000D01*
X79025000Y-134930000D01*
X79025000Y-134930000D01*
G37*
G36*
X80425000Y-134930000D02*
G01*
X79575000Y-134930000D01*
X79575000Y-134230000D01*
X80425000Y-134230000D01*
X80425000Y-134930000D01*
X80425000Y-134930000D01*
G37*
G36*
X70075339Y-131723921D02*
G01*
X70075341Y-131723941D01*
X70075341Y-134148840D01*
X67775421Y-134148840D01*
X67775421Y-131876079D01*
X67775419Y-131876059D01*
X67775419Y-129451160D01*
X70075339Y-129451160D01*
X70075339Y-131723921D01*
X70075339Y-131723921D01*
G37*
G36*
X80425000Y-133930000D02*
G01*
X79575000Y-133930000D01*
X79575000Y-133230000D01*
X80425000Y-133230000D01*
X80425000Y-133930000D01*
X80425000Y-133930000D01*
G37*
G36*
X72401370Y-133424329D02*
G01*
X70798630Y-133424329D01*
X70798630Y-130175670D01*
X72401370Y-130175670D01*
X72401370Y-133424329D01*
X72401370Y-133424329D01*
G37*
G36*
X102406000Y-132236000D02*
G01*
X100306000Y-132236000D01*
X100306000Y-130136000D01*
X102406000Y-130136000D01*
X102406000Y-132236000D01*
X102406000Y-132236000D01*
G37*
G36*
X123996000Y-132236000D02*
G01*
X121896000Y-132236000D01*
X121896000Y-130136000D01*
X123996000Y-130136000D01*
X123996000Y-132236000D01*
X123996000Y-132236000D01*
G37*
G36*
X119678000Y-132236000D02*
G01*
X117578000Y-132236000D01*
X117578000Y-130136000D01*
X119678000Y-130136000D01*
X119678000Y-132236000D01*
X119678000Y-132236000D01*
G37*
G36*
X115360000Y-132236000D02*
G01*
X113260000Y-132236000D01*
X113260000Y-130136000D01*
X115360000Y-130136000D01*
X115360000Y-132236000D01*
X115360000Y-132236000D01*
G37*
G36*
X111042000Y-132236000D02*
G01*
X108942000Y-132236000D01*
X108942000Y-130136000D01*
X111042000Y-130136000D01*
X111042000Y-132236000D01*
X111042000Y-132236000D01*
G37*
G36*
X106978000Y-132236000D02*
G01*
X104878000Y-132236000D01*
X104878000Y-130136000D01*
X106978000Y-130136000D01*
X106978000Y-132236000D01*
X106978000Y-132236000D01*
G37*
G36*
X133561163Y-126534587D02*
G01*
X133735041Y-126569173D01*
X134062620Y-126704861D01*
X134357433Y-126901849D01*
X134608151Y-127152567D01*
X134805139Y-127447380D01*
X134940827Y-127774959D01*
X134957814Y-127860359D01*
X135010000Y-128122714D01*
X135010000Y-128477286D01*
X134977720Y-128639566D01*
X134940827Y-128825041D01*
X134805139Y-129152620D01*
X134608151Y-129447433D01*
X134357433Y-129698151D01*
X134062620Y-129895139D01*
X133735041Y-130030827D01*
X133561163Y-130065413D01*
X133387286Y-130100000D01*
X133032714Y-130100000D01*
X132858837Y-130065413D01*
X132684959Y-130030827D01*
X132357380Y-129895139D01*
X132062567Y-129698151D01*
X131811849Y-129447433D01*
X131614861Y-129152620D01*
X131479173Y-128825041D01*
X131442280Y-128639566D01*
X131410000Y-128477286D01*
X131410000Y-128122714D01*
X131462186Y-127860359D01*
X131479173Y-127774959D01*
X131614861Y-127447380D01*
X131811849Y-127152567D01*
X132062567Y-126901849D01*
X132357380Y-126704861D01*
X132684959Y-126569173D01*
X132858837Y-126534587D01*
X133032714Y-126500000D01*
X133387286Y-126500000D01*
X133561163Y-126534587D01*
X133561163Y-126534587D01*
G37*
G36*
X77921163Y-126534587D02*
G01*
X78095041Y-126569173D01*
X78422620Y-126704861D01*
X78717433Y-126901849D01*
X78968151Y-127152567D01*
X79165139Y-127447380D01*
X79300827Y-127774959D01*
X79317814Y-127860359D01*
X79370000Y-128122714D01*
X79370000Y-128477286D01*
X79337720Y-128639566D01*
X79300827Y-128825041D01*
X79165139Y-129152620D01*
X78968151Y-129447433D01*
X78717433Y-129698151D01*
X78422620Y-129895139D01*
X78095041Y-130030827D01*
X77921163Y-130065413D01*
X77747286Y-130100000D01*
X77392714Y-130100000D01*
X77218837Y-130065413D01*
X77044959Y-130030827D01*
X76717380Y-129895139D01*
X76422567Y-129698151D01*
X76171849Y-129447433D01*
X75974861Y-129152620D01*
X75839173Y-128825041D01*
X75802280Y-128639566D01*
X75770000Y-128477286D01*
X75770000Y-128122714D01*
X75822186Y-127860359D01*
X75839173Y-127774959D01*
X75974861Y-127447380D01*
X76171849Y-127152567D01*
X76422567Y-126901849D01*
X76717380Y-126704861D01*
X77044959Y-126569173D01*
X77218837Y-126534587D01*
X77392714Y-126500000D01*
X77747286Y-126500000D01*
X77921163Y-126534587D01*
X77921163Y-126534587D01*
G37*
G36*
X72499770Y-129600970D02*
G01*
X70700230Y-129600970D01*
X70700230Y-127603310D01*
X72499770Y-127603310D01*
X72499770Y-129600970D01*
X72499770Y-129600970D01*
G37*
G36*
X69393417Y-127859016D02*
G01*
X69407051Y-127860359D01*
X69468273Y-127878931D01*
X69529496Y-127897503D01*
X69642343Y-127957821D01*
X69741255Y-128038995D01*
X69822429Y-128137907D01*
X69882747Y-128250754D01*
X69901319Y-128311977D01*
X69916019Y-128360434D01*
X69919891Y-128373200D01*
X69932433Y-128500540D01*
X69919891Y-128627880D01*
X69882747Y-128750326D01*
X69822429Y-128863173D01*
X69741255Y-128962085D01*
X69642343Y-129043259D01*
X69529496Y-129103577D01*
X69468273Y-129122149D01*
X69407051Y-129140721D01*
X69393417Y-129142064D01*
X69311621Y-129150120D01*
X68549299Y-129150120D01*
X68467503Y-129142064D01*
X68453869Y-129140721D01*
X68392647Y-129122149D01*
X68331424Y-129103577D01*
X68218577Y-129043259D01*
X68119665Y-128962085D01*
X68038491Y-128863173D01*
X67978173Y-128750326D01*
X67941029Y-128627880D01*
X67928487Y-128500540D01*
X67941029Y-128373200D01*
X67944902Y-128360434D01*
X67959601Y-128311977D01*
X67978173Y-128250754D01*
X68038491Y-128137907D01*
X68119665Y-128038995D01*
X68218577Y-127957821D01*
X68331424Y-127897503D01*
X68392647Y-127878931D01*
X68453869Y-127860359D01*
X68467503Y-127859016D01*
X68549299Y-127850960D01*
X69311621Y-127850960D01*
X69393417Y-127859016D01*
X69393417Y-127859016D01*
G37*
G36*
X70170000Y-125350000D02*
G01*
X68970000Y-125350000D01*
X68970000Y-123950000D01*
X70170000Y-123950000D01*
X70170000Y-125350000D01*
X70170000Y-125350000D01*
G37*
G36*
X70817738Y-121866653D02*
G01*
X70859598Y-121874979D01*
X70908596Y-121895275D01*
X70977889Y-121923977D01*
X70977890Y-121923978D01*
X71084351Y-121995112D01*
X71174888Y-122085649D01*
X71222418Y-122156784D01*
X71246023Y-122192111D01*
X71295021Y-122310403D01*
X71320000Y-122435979D01*
X71320000Y-122575001D01*
X71322402Y-122599387D01*
X71329515Y-122622836D01*
X71341066Y-122644447D01*
X71356611Y-122663389D01*
X71375553Y-122678934D01*
X71397164Y-122690485D01*
X71420613Y-122697598D01*
X71444999Y-122700000D01*
X73380000Y-122700000D01*
X73380000Y-123800000D01*
X72504999Y-123800000D01*
X72480613Y-123802402D01*
X72457164Y-123809515D01*
X72435553Y-123821066D01*
X72416611Y-123836611D01*
X72401066Y-123855553D01*
X72389515Y-123877164D01*
X72382402Y-123900613D01*
X72380000Y-123924999D01*
X72380000Y-125350000D01*
X71180000Y-125350000D01*
X71180000Y-123950000D01*
X71355001Y-123950000D01*
X71379387Y-123947598D01*
X71402836Y-123940485D01*
X71424447Y-123928934D01*
X71443389Y-123913389D01*
X71458934Y-123894447D01*
X71470485Y-123872836D01*
X71477598Y-123849387D01*
X71480000Y-123825001D01*
X71480000Y-122869785D01*
X71477598Y-122845399D01*
X71470485Y-122821950D01*
X71458934Y-122800339D01*
X71443389Y-122781397D01*
X71424447Y-122765852D01*
X71402836Y-122754301D01*
X71379387Y-122747188D01*
X71355001Y-122744786D01*
X71330615Y-122747188D01*
X71307166Y-122754301D01*
X71285555Y-122765852D01*
X71266613Y-122781397D01*
X71251068Y-122800339D01*
X71236628Y-122821950D01*
X71174888Y-122914351D01*
X71084351Y-123004888D01*
X71013216Y-123052418D01*
X70977889Y-123076023D01*
X70908596Y-123104725D01*
X70859598Y-123125021D01*
X70817738Y-123133347D01*
X70734021Y-123150000D01*
X70605979Y-123150000D01*
X70522262Y-123133347D01*
X70480402Y-123125021D01*
X70431404Y-123104725D01*
X70362111Y-123076023D01*
X70326784Y-123052418D01*
X70255649Y-123004888D01*
X70165112Y-122914351D01*
X70093978Y-122807890D01*
X70093977Y-122807889D01*
X70048293Y-122697598D01*
X70044979Y-122689598D01*
X70020000Y-122564019D01*
X70020000Y-122435981D01*
X70044979Y-122310402D01*
X70065275Y-122261404D01*
X70093977Y-122192111D01*
X70117582Y-122156784D01*
X70165112Y-122085649D01*
X70255649Y-121995112D01*
X70362110Y-121923978D01*
X70362111Y-121923977D01*
X70431404Y-121895275D01*
X70480402Y-121874979D01*
X70522262Y-121866653D01*
X70605979Y-121850000D01*
X70734021Y-121850000D01*
X70817738Y-121866653D01*
X70817738Y-121866653D01*
G37*
G36*
X72380000Y-118075001D02*
G01*
X72382402Y-118099387D01*
X72389515Y-118122836D01*
X72401066Y-118144447D01*
X72416611Y-118163389D01*
X72435553Y-118178934D01*
X72457164Y-118190485D01*
X72480613Y-118197598D01*
X72504999Y-118200000D01*
X73380000Y-118200000D01*
X73380000Y-119300000D01*
X71444999Y-119300000D01*
X71420613Y-119302402D01*
X71397164Y-119309515D01*
X71375553Y-119321066D01*
X71356611Y-119336611D01*
X71341066Y-119355553D01*
X71329515Y-119377164D01*
X71322402Y-119400613D01*
X71320000Y-119424999D01*
X71320000Y-119575001D01*
X71322402Y-119599387D01*
X71329515Y-119622836D01*
X71341066Y-119644447D01*
X71356611Y-119663389D01*
X71375553Y-119678934D01*
X71397164Y-119690485D01*
X71420613Y-119697598D01*
X71444999Y-119700000D01*
X73380000Y-119700000D01*
X73380000Y-120800000D01*
X71480000Y-120800000D01*
X71480000Y-119869785D01*
X71477598Y-119845399D01*
X71470485Y-119821950D01*
X71458934Y-119800339D01*
X71443389Y-119781397D01*
X71424447Y-119765852D01*
X71402836Y-119754301D01*
X71379387Y-119747188D01*
X71355001Y-119744786D01*
X71330615Y-119747188D01*
X71307166Y-119754301D01*
X71285555Y-119765852D01*
X71266613Y-119781397D01*
X71251068Y-119800339D01*
X71236628Y-119821950D01*
X71174888Y-119914351D01*
X71084351Y-120004888D01*
X71013216Y-120052418D01*
X70977889Y-120076023D01*
X70908596Y-120104725D01*
X70859598Y-120125021D01*
X70817738Y-120133347D01*
X70734021Y-120150000D01*
X70605979Y-120150000D01*
X70522262Y-120133347D01*
X70480402Y-120125021D01*
X70431404Y-120104725D01*
X70362111Y-120076023D01*
X70326784Y-120052418D01*
X70255649Y-120004888D01*
X70165112Y-119914351D01*
X70093978Y-119807890D01*
X70093977Y-119807889D01*
X70048293Y-119697598D01*
X70044979Y-119689598D01*
X70020000Y-119564019D01*
X70020000Y-119435981D01*
X70044979Y-119310402D01*
X70090850Y-119199661D01*
X70093977Y-119192111D01*
X70119040Y-119154601D01*
X70165112Y-119085649D01*
X70255649Y-118995112D01*
X70362110Y-118923978D01*
X70362111Y-118923977D01*
X70431404Y-118895275D01*
X70480402Y-118874979D01*
X70522262Y-118866653D01*
X70605979Y-118850000D01*
X70734021Y-118850000D01*
X70817738Y-118866653D01*
X70859598Y-118874979D01*
X70908596Y-118895275D01*
X70977889Y-118923977D01*
X70977890Y-118923978D01*
X71084351Y-118995112D01*
X71174888Y-119085649D01*
X71213456Y-119143370D01*
X71251068Y-119199661D01*
X71266613Y-119218603D01*
X71285555Y-119234148D01*
X71307166Y-119245699D01*
X71330615Y-119252812D01*
X71355001Y-119255214D01*
X71379387Y-119252812D01*
X71402836Y-119245699D01*
X71424447Y-119234148D01*
X71443389Y-119218603D01*
X71458934Y-119199661D01*
X71470485Y-119178050D01*
X71477598Y-119154601D01*
X71480000Y-119130215D01*
X71480000Y-118174999D01*
X71477598Y-118150613D01*
X71470485Y-118127164D01*
X71458934Y-118105553D01*
X71443389Y-118086611D01*
X71424447Y-118071066D01*
X71402836Y-118059515D01*
X71379387Y-118052402D01*
X71355001Y-118050000D01*
X71180000Y-118050000D01*
X71180000Y-116650000D01*
X72380000Y-116650000D01*
X72380000Y-118075001D01*
X72380000Y-118075001D01*
G37*
G36*
X70170000Y-118050000D02*
G01*
X68970000Y-118050000D01*
X68970000Y-116650000D01*
X70170000Y-116650000D01*
X70170000Y-118050000D01*
X70170000Y-118050000D01*
G37*
G36*
X106701224Y-73560600D02*
G01*
X106805867Y-73603944D01*
X106805868Y-73603945D01*
X106900044Y-73666871D01*
X106980135Y-73746962D01*
X107022181Y-73809889D01*
X107043062Y-73841139D01*
X107086406Y-73945782D01*
X107108503Y-74056871D01*
X107108503Y-74170135D01*
X107086406Y-74281224D01*
X107043062Y-74385867D01*
X107043061Y-74385868D01*
X106980135Y-74480044D01*
X106900044Y-74560135D01*
X106837117Y-74602181D01*
X106805867Y-74623062D01*
X106701224Y-74666406D01*
X106590136Y-74688503D01*
X106476870Y-74688503D01*
X106365782Y-74666406D01*
X106261139Y-74623062D01*
X106229889Y-74602181D01*
X106166962Y-74560135D01*
X106086871Y-74480044D01*
X106023945Y-74385868D01*
X106023944Y-74385867D01*
X105980600Y-74281224D01*
X105958503Y-74170135D01*
X105958503Y-74056871D01*
X105980600Y-73945782D01*
X106023944Y-73841139D01*
X106044825Y-73809889D01*
X106086871Y-73746962D01*
X106166962Y-73666871D01*
X106261138Y-73603945D01*
X106261139Y-73603944D01*
X106365782Y-73560600D01*
X106476870Y-73538503D01*
X106590136Y-73538503D01*
X106701224Y-73560600D01*
X106701224Y-73560600D01*
G37*
G36*
X104057972Y-70729358D02*
G01*
X104189913Y-70784009D01*
X104308657Y-70863352D01*
X104409642Y-70964337D01*
X104488985Y-71083081D01*
X104543636Y-71215022D01*
X104571497Y-71355089D01*
X104571497Y-71497905D01*
X104543636Y-71637972D01*
X104488985Y-71769913D01*
X104409642Y-71888657D01*
X104308657Y-71989642D01*
X104189913Y-72068985D01*
X104057972Y-72123636D01*
X103917905Y-72151497D01*
X103775089Y-72151497D01*
X103635022Y-72123636D01*
X103503081Y-72068985D01*
X103384337Y-71989642D01*
X103283352Y-71888657D01*
X103204009Y-71769913D01*
X103149358Y-71637972D01*
X103121497Y-71497905D01*
X103121497Y-71355089D01*
X103149358Y-71215022D01*
X103204009Y-71083081D01*
X103283352Y-70964337D01*
X103384337Y-70863352D01*
X103503081Y-70784009D01*
X103635022Y-70729358D01*
X103775089Y-70701497D01*
X103917905Y-70701497D01*
X104057972Y-70729358D01*
X104057972Y-70729358D01*
G37*
G36*
X115267517Y-62504946D02*
G01*
X115309908Y-62517805D01*
X115348973Y-62538686D01*
X115383214Y-62566786D01*
X115411314Y-62601027D01*
X115432195Y-62640092D01*
X115445054Y-62682483D01*
X115450000Y-62732703D01*
X115450000Y-64267297D01*
X115445054Y-64317517D01*
X115432195Y-64359908D01*
X115411314Y-64398973D01*
X115383214Y-64433214D01*
X115348973Y-64461314D01*
X115309908Y-64482195D01*
X115267517Y-64495054D01*
X115217297Y-64500000D01*
X112282703Y-64500000D01*
X112232483Y-64495054D01*
X112190092Y-64482195D01*
X112151027Y-64461314D01*
X112116786Y-64433214D01*
X112088686Y-64398973D01*
X112067805Y-64359908D01*
X112054946Y-64317517D01*
X112050000Y-64267297D01*
X112050000Y-62732703D01*
X112054946Y-62682483D01*
X112067805Y-62640092D01*
X112088686Y-62601027D01*
X112116786Y-62566786D01*
X112151027Y-62538686D01*
X112190092Y-62517805D01*
X112232483Y-62504946D01*
X112282703Y-62500000D01*
X115217297Y-62500000D01*
X115267517Y-62504946D01*
X115267517Y-62504946D01*
G37*
G36*
X110867517Y-62504946D02*
G01*
X110909908Y-62517805D01*
X110948973Y-62538686D01*
X110983214Y-62566786D01*
X111011314Y-62601027D01*
X111032195Y-62640092D01*
X111045054Y-62682483D01*
X111050000Y-62732703D01*
X111050000Y-64267297D01*
X111045054Y-64317517D01*
X111032195Y-64359908D01*
X111011314Y-64398973D01*
X110983214Y-64433214D01*
X110948973Y-64461314D01*
X110909908Y-64482195D01*
X110867517Y-64495054D01*
X110817297Y-64500000D01*
X107882703Y-64500000D01*
X107832483Y-64495054D01*
X107790092Y-64482195D01*
X107751027Y-64461314D01*
X107716786Y-64433214D01*
X107688686Y-64398973D01*
X107667805Y-64359908D01*
X107654946Y-64317517D01*
X107650000Y-64267297D01*
X107650000Y-62732703D01*
X107654946Y-62682483D01*
X107667805Y-62640092D01*
X107688686Y-62601027D01*
X107716786Y-62566786D01*
X107751027Y-62538686D01*
X107790092Y-62517805D01*
X107832483Y-62504946D01*
X107882703Y-62500000D01*
X110817297Y-62500000D01*
X110867517Y-62504946D01*
X110867517Y-62504946D01*
G37*
G36*
X94723499Y-60905997D02*
G01*
X94776147Y-60921968D01*
X94824668Y-60947902D01*
X94867195Y-60982805D01*
X94902098Y-61025332D01*
X94928032Y-61073853D01*
X94944003Y-61126501D01*
X94950000Y-61187390D01*
X94950000Y-62412610D01*
X94944003Y-62473499D01*
X94928032Y-62526147D01*
X94902098Y-62574668D01*
X94867195Y-62617195D01*
X94824668Y-62652098D01*
X94776147Y-62678032D01*
X94723499Y-62694003D01*
X94662610Y-62700000D01*
X93862390Y-62700000D01*
X93801501Y-62694003D01*
X93748853Y-62678032D01*
X93700332Y-62652098D01*
X93657805Y-62617195D01*
X93622902Y-62574668D01*
X93596968Y-62526147D01*
X93580997Y-62473499D01*
X93575000Y-62412610D01*
X93575000Y-61187390D01*
X93580997Y-61126501D01*
X93596968Y-61073853D01*
X93622902Y-61025332D01*
X93657805Y-60982805D01*
X93700332Y-60947902D01*
X93748853Y-60921968D01*
X93801501Y-60905997D01*
X93862390Y-60900000D01*
X94662610Y-60900000D01*
X94723499Y-60905997D01*
X94723499Y-60905997D01*
G37*
G36*
X96598499Y-60905997D02*
G01*
X96651147Y-60921968D01*
X96699668Y-60947902D01*
X96742195Y-60982805D01*
X96777098Y-61025332D01*
X96803032Y-61073853D01*
X96819003Y-61126501D01*
X96825000Y-61187390D01*
X96825000Y-62412610D01*
X96819003Y-62473499D01*
X96803032Y-62526147D01*
X96777098Y-62574668D01*
X96742195Y-62617195D01*
X96699668Y-62652098D01*
X96651147Y-62678032D01*
X96598499Y-62694003D01*
X96537610Y-62700000D01*
X95737390Y-62700000D01*
X95676501Y-62694003D01*
X95623853Y-62678032D01*
X95575332Y-62652098D01*
X95532805Y-62617195D01*
X95497902Y-62574668D01*
X95471968Y-62526147D01*
X95455997Y-62473499D01*
X95450000Y-62412610D01*
X95450000Y-61187390D01*
X95455997Y-61126501D01*
X95471968Y-61073853D01*
X95497902Y-61025332D01*
X95532805Y-60982805D01*
X95575332Y-60947902D01*
X95623853Y-60921968D01*
X95676501Y-60905997D01*
X95737390Y-60900000D01*
X96537610Y-60900000D01*
X96598499Y-60905997D01*
X96598499Y-60905997D01*
G37*
G36*
X101298499Y-60855997D02*
G01*
X101351147Y-60871968D01*
X101399668Y-60897902D01*
X101442195Y-60932805D01*
X101477098Y-60975332D01*
X101503032Y-61023853D01*
X101519003Y-61076501D01*
X101525000Y-61137390D01*
X101525000Y-62362610D01*
X101519003Y-62423499D01*
X101503032Y-62476147D01*
X101477098Y-62524668D01*
X101442195Y-62567195D01*
X101399668Y-62602098D01*
X101351147Y-62628032D01*
X101298499Y-62644003D01*
X101237610Y-62650000D01*
X100437390Y-62650000D01*
X100376501Y-62644003D01*
X100323853Y-62628032D01*
X100275332Y-62602098D01*
X100232805Y-62567195D01*
X100197902Y-62524668D01*
X100171968Y-62476147D01*
X100155997Y-62423499D01*
X100150000Y-62362610D01*
X100150000Y-61137390D01*
X100155997Y-61076501D01*
X100171968Y-61023853D01*
X100197902Y-60975332D01*
X100232805Y-60932805D01*
X100275332Y-60897902D01*
X100323853Y-60871968D01*
X100376501Y-60855997D01*
X100437390Y-60850000D01*
X101237610Y-60850000D01*
X101298499Y-60855997D01*
X101298499Y-60855997D01*
G37*
G36*
X99423499Y-60855997D02*
G01*
X99476147Y-60871968D01*
X99524668Y-60897902D01*
X99567195Y-60932805D01*
X99602098Y-60975332D01*
X99628032Y-61023853D01*
X99644003Y-61076501D01*
X99650000Y-61137390D01*
X99650000Y-62362610D01*
X99644003Y-62423499D01*
X99628032Y-62476147D01*
X99602098Y-62524668D01*
X99567195Y-62567195D01*
X99524668Y-62602098D01*
X99476147Y-62628032D01*
X99423499Y-62644003D01*
X99362610Y-62650000D01*
X98562390Y-62650000D01*
X98501501Y-62644003D01*
X98448853Y-62628032D01*
X98400332Y-62602098D01*
X98357805Y-62567195D01*
X98322902Y-62524668D01*
X98296968Y-62476147D01*
X98280997Y-62423499D01*
X98275000Y-62362610D01*
X98275000Y-61137390D01*
X98280997Y-61076501D01*
X98296968Y-61023853D01*
X98322902Y-60975332D01*
X98357805Y-60932805D01*
X98400332Y-60897902D01*
X98448853Y-60871968D01*
X98501501Y-60855997D01*
X98562390Y-60850000D01*
X99362610Y-60850000D01*
X99423499Y-60855997D01*
X99423499Y-60855997D01*
G37*
G36*
X106918622Y-60378017D02*
G01*
X106966585Y-60392566D01*
X107010778Y-60416188D01*
X107049519Y-60447981D01*
X107081312Y-60486722D01*
X107104934Y-60530915D01*
X107119483Y-60578878D01*
X107125000Y-60634891D01*
X107125000Y-61385109D01*
X107119483Y-61441122D01*
X107104934Y-61489085D01*
X107081312Y-61533278D01*
X107049519Y-61572019D01*
X107010778Y-61603812D01*
X106966585Y-61627434D01*
X106918622Y-61641983D01*
X106862609Y-61647500D01*
X106037391Y-61647500D01*
X105981378Y-61641983D01*
X105933415Y-61627434D01*
X105889222Y-61603812D01*
X105850481Y-61572019D01*
X105818688Y-61533278D01*
X105795066Y-61489085D01*
X105780517Y-61441122D01*
X105775000Y-61385109D01*
X105775000Y-60634891D01*
X105780517Y-60578878D01*
X105795066Y-60530915D01*
X105818688Y-60486722D01*
X105850481Y-60447981D01*
X105889222Y-60416188D01*
X105933415Y-60392566D01*
X105981378Y-60378017D01*
X106037391Y-60372500D01*
X106862609Y-60372500D01*
X106918622Y-60378017D01*
X106918622Y-60378017D01*
G37*
G36*
X104668622Y-60368017D02*
G01*
X104716585Y-60382566D01*
X104760778Y-60406188D01*
X104799519Y-60437981D01*
X104831312Y-60476722D01*
X104854934Y-60520915D01*
X104869483Y-60568878D01*
X104875000Y-60624891D01*
X104875000Y-61375109D01*
X104869483Y-61431122D01*
X104854934Y-61479085D01*
X104831312Y-61523278D01*
X104799519Y-61562019D01*
X104760778Y-61593812D01*
X104716585Y-61617434D01*
X104668622Y-61631983D01*
X104612609Y-61637500D01*
X103787391Y-61637500D01*
X103731378Y-61631983D01*
X103683415Y-61617434D01*
X103639222Y-61593812D01*
X103600481Y-61562019D01*
X103568688Y-61523278D01*
X103545066Y-61479085D01*
X103530517Y-61431122D01*
X103525000Y-61375109D01*
X103525000Y-60624891D01*
X103530517Y-60568878D01*
X103545066Y-60520915D01*
X103568688Y-60476722D01*
X103600481Y-60437981D01*
X103639222Y-60406188D01*
X103683415Y-60382566D01*
X103731378Y-60368017D01*
X103787391Y-60362500D01*
X104612609Y-60362500D01*
X104668622Y-60368017D01*
X104668622Y-60368017D01*
G37*
G36*
X106918622Y-58803017D02*
G01*
X106966585Y-58817566D01*
X107010778Y-58841188D01*
X107049519Y-58872981D01*
X107081312Y-58911722D01*
X107104934Y-58955915D01*
X107119483Y-59003878D01*
X107125000Y-59059891D01*
X107125000Y-59810109D01*
X107119483Y-59866122D01*
X107104934Y-59914085D01*
X107081312Y-59958278D01*
X107049519Y-59997019D01*
X107010778Y-60028812D01*
X106966585Y-60052434D01*
X106918622Y-60066983D01*
X106862609Y-60072500D01*
X106037391Y-60072500D01*
X105981378Y-60066983D01*
X105933415Y-60052434D01*
X105889222Y-60028812D01*
X105850481Y-59997019D01*
X105818688Y-59958278D01*
X105795066Y-59914085D01*
X105780517Y-59866122D01*
X105775000Y-59810109D01*
X105775000Y-59059891D01*
X105780517Y-59003878D01*
X105795066Y-58955915D01*
X105818688Y-58911722D01*
X105850481Y-58872981D01*
X105889222Y-58841188D01*
X105933415Y-58817566D01*
X105981378Y-58803017D01*
X106037391Y-58797500D01*
X106862609Y-58797500D01*
X106918622Y-58803017D01*
X106918622Y-58803017D01*
G37*
G36*
X104668622Y-58793017D02*
G01*
X104716585Y-58807566D01*
X104760778Y-58831188D01*
X104799519Y-58862981D01*
X104831312Y-58901722D01*
X104854934Y-58945915D01*
X104869483Y-58993878D01*
X104875000Y-59049891D01*
X104875000Y-59800109D01*
X104869483Y-59856122D01*
X104854934Y-59904085D01*
X104831312Y-59948278D01*
X104799519Y-59987019D01*
X104760778Y-60018812D01*
X104716585Y-60042434D01*
X104668622Y-60056983D01*
X104612609Y-60062500D01*
X103787391Y-60062500D01*
X103731378Y-60056983D01*
X103683415Y-60042434D01*
X103639222Y-60018812D01*
X103600481Y-59987019D01*
X103568688Y-59948278D01*
X103545066Y-59904085D01*
X103530517Y-59856122D01*
X103525000Y-59800109D01*
X103525000Y-59049891D01*
X103530517Y-58993878D01*
X103545066Y-58945915D01*
X103568688Y-58901722D01*
X103600481Y-58862981D01*
X103639222Y-58831188D01*
X103683415Y-58807566D01*
X103731378Y-58793017D01*
X103787391Y-58787500D01*
X104612609Y-58787500D01*
X104668622Y-58793017D01*
X104668622Y-58793017D01*
G37*
G36*
X86825026Y-57671115D02*
G01*
X87043411Y-57761573D01*
X87043413Y-57761574D01*
X87239955Y-57892899D01*
X87407101Y-58060045D01*
X87521722Y-58231587D01*
X87538427Y-58256589D01*
X87628885Y-58474974D01*
X87675000Y-58706809D01*
X87675000Y-58943191D01*
X87628885Y-59175026D01*
X87538427Y-59393411D01*
X87538426Y-59393413D01*
X87407101Y-59589955D01*
X87239955Y-59757101D01*
X87043413Y-59888426D01*
X87043412Y-59888427D01*
X87043411Y-59888427D01*
X86825026Y-59978885D01*
X86593191Y-60025000D01*
X86356809Y-60025000D01*
X86124974Y-59978885D01*
X85906589Y-59888427D01*
X85906588Y-59888427D01*
X85906587Y-59888426D01*
X85710045Y-59757101D01*
X85542899Y-59589955D01*
X85411574Y-59393413D01*
X85411573Y-59393411D01*
X85321115Y-59175026D01*
X85275000Y-58943191D01*
X85275000Y-58706809D01*
X85321115Y-58474974D01*
X85411573Y-58256589D01*
X85428279Y-58231587D01*
X85542899Y-58060045D01*
X85710045Y-57892899D01*
X85906587Y-57761574D01*
X85906589Y-57761573D01*
X86124974Y-57671115D01*
X86356809Y-57625000D01*
X86593191Y-57625000D01*
X86825026Y-57671115D01*
X86825026Y-57671115D01*
G37*
G36*
X83675026Y-57646115D02*
G01*
X83893411Y-57736573D01*
X83893413Y-57736574D01*
X84089955Y-57867899D01*
X84257101Y-58035045D01*
X84371722Y-58206587D01*
X84388427Y-58231589D01*
X84478885Y-58449974D01*
X84525000Y-58681809D01*
X84525000Y-58918191D01*
X84478885Y-59150026D01*
X84388427Y-59368411D01*
X84388426Y-59368413D01*
X84257101Y-59564955D01*
X84089955Y-59732101D01*
X83893413Y-59863426D01*
X83893412Y-59863427D01*
X83893411Y-59863427D01*
X83675026Y-59953885D01*
X83443191Y-60000000D01*
X83206809Y-60000000D01*
X82974974Y-59953885D01*
X82756589Y-59863427D01*
X82756588Y-59863427D01*
X82756587Y-59863426D01*
X82560045Y-59732101D01*
X82392899Y-59564955D01*
X82261574Y-59368413D01*
X82261573Y-59368411D01*
X82171115Y-59150026D01*
X82125000Y-58918191D01*
X82125000Y-58681809D01*
X82171115Y-58449974D01*
X82261573Y-58231589D01*
X82278279Y-58206587D01*
X82392899Y-58035045D01*
X82560045Y-57867899D01*
X82756587Y-57736574D01*
X82756589Y-57736573D01*
X82974974Y-57646115D01*
X83206809Y-57600000D01*
X83443191Y-57600000D01*
X83675026Y-57646115D01*
X83675026Y-57646115D01*
G37*
G36*
X89925026Y-57621115D02*
G01*
X90143411Y-57711573D01*
X90143413Y-57711574D01*
X90180828Y-57736574D01*
X90339955Y-57842899D01*
X90507101Y-58010045D01*
X90638427Y-58206589D01*
X90728885Y-58424974D01*
X90775000Y-58656809D01*
X90775000Y-58893191D01*
X90728885Y-59125026D01*
X90707841Y-59175830D01*
X90638426Y-59343413D01*
X90507101Y-59539955D01*
X90339955Y-59707101D01*
X90143413Y-59838426D01*
X90143412Y-59838427D01*
X90143411Y-59838427D01*
X89925026Y-59928885D01*
X89693191Y-59975000D01*
X89456809Y-59975000D01*
X89224974Y-59928885D01*
X89006589Y-59838427D01*
X89006588Y-59838427D01*
X89006587Y-59838426D01*
X88810045Y-59707101D01*
X88642899Y-59539955D01*
X88511574Y-59343413D01*
X88442159Y-59175830D01*
X88421115Y-59125026D01*
X88375000Y-58893191D01*
X88375000Y-58656809D01*
X88421115Y-58424974D01*
X88511573Y-58206589D01*
X88642899Y-58010045D01*
X88810045Y-57842899D01*
X88969172Y-57736574D01*
X89006587Y-57711574D01*
X89006589Y-57711573D01*
X89224974Y-57621115D01*
X89456809Y-57575000D01*
X89693191Y-57575000D01*
X89925026Y-57621115D01*
X89925026Y-57621115D01*
G37*
G36*
X117529160Y-59175830D02*
G01*
X114775800Y-59175830D01*
X114775800Y-57324170D01*
X117529160Y-57324170D01*
X117529160Y-59175830D01*
X117529160Y-59175830D01*
G37*
G36*
X121024200Y-59175830D02*
G01*
X118270840Y-59175830D01*
X118270840Y-57324170D01*
X121024200Y-57324170D01*
X121024200Y-59175830D01*
X121024200Y-59175830D01*
G37*
G36*
X104275000Y-57805000D02*
G01*
X102325000Y-57805000D01*
X102325000Y-56805000D01*
X104275000Y-56805000D01*
X104275000Y-57805000D01*
X104275000Y-57805000D01*
G37*
G36*
X98875000Y-57805000D02*
G01*
X96925000Y-57805000D01*
X96925000Y-56805000D01*
X98875000Y-56805000D01*
X98875000Y-57805000D01*
X98875000Y-57805000D01*
G37*
G36*
X113100000Y-56725000D02*
G01*
X111600000Y-56725000D01*
X111600000Y-54075000D01*
X113100000Y-54075000D01*
X113100000Y-56725000D01*
X113100000Y-56725000D01*
G37*
G36*
X108800000Y-56725000D02*
G01*
X107300000Y-56725000D01*
X107300000Y-54075000D01*
X108800000Y-54075000D01*
X108800000Y-56725000D01*
X108800000Y-56725000D01*
G37*
G36*
X98875000Y-56535000D02*
G01*
X96925000Y-56535000D01*
X96925000Y-55535000D01*
X98875000Y-55535000D01*
X98875000Y-56535000D01*
X98875000Y-56535000D01*
G37*
G36*
X104275000Y-56535000D02*
G01*
X102325000Y-56535000D01*
X102325000Y-55535000D01*
X104275000Y-55535000D01*
X104275000Y-56535000D01*
X104275000Y-56535000D01*
G37*
G36*
X98875000Y-55265000D02*
G01*
X96925000Y-55265000D01*
X96925000Y-54265000D01*
X98875000Y-54265000D01*
X98875000Y-55265000D01*
X98875000Y-55265000D01*
G37*
G36*
X104275000Y-55265000D02*
G01*
X102325000Y-55265000D01*
X102325000Y-54265000D01*
X104275000Y-54265000D01*
X104275000Y-55265000D01*
X104275000Y-55265000D01*
G37*
G36*
X94868622Y-53768017D02*
G01*
X94916585Y-53782566D01*
X94960778Y-53806188D01*
X94999519Y-53837981D01*
X95031312Y-53876722D01*
X95054934Y-53920915D01*
X95069483Y-53968878D01*
X95075000Y-54024891D01*
X95075000Y-54775109D01*
X95069483Y-54831122D01*
X95054934Y-54879085D01*
X95031312Y-54923278D01*
X94999519Y-54962019D01*
X94960778Y-54993812D01*
X94916585Y-55017434D01*
X94868622Y-55031983D01*
X94812609Y-55037500D01*
X93987391Y-55037500D01*
X93931378Y-55031983D01*
X93883415Y-55017434D01*
X93839222Y-54993812D01*
X93800481Y-54962019D01*
X93768688Y-54923278D01*
X93745066Y-54879085D01*
X93730517Y-54831122D01*
X93725000Y-54775109D01*
X93725000Y-54024891D01*
X93730517Y-53968878D01*
X93745066Y-53920915D01*
X93768688Y-53876722D01*
X93800481Y-53837981D01*
X93839222Y-53806188D01*
X93883415Y-53782566D01*
X93931378Y-53768017D01*
X93987391Y-53762500D01*
X94812609Y-53762500D01*
X94868622Y-53768017D01*
X94868622Y-53768017D01*
G37*
G36*
X89117517Y-52204946D02*
G01*
X89159908Y-52217805D01*
X89198973Y-52238686D01*
X89233214Y-52266786D01*
X89261314Y-52301027D01*
X89282195Y-52340092D01*
X89295054Y-52382483D01*
X89300000Y-52432703D01*
X89300000Y-53967297D01*
X89295054Y-54017517D01*
X89282195Y-54059908D01*
X89261314Y-54098973D01*
X89233214Y-54133214D01*
X89198973Y-54161314D01*
X89159908Y-54182195D01*
X89117517Y-54195054D01*
X89067297Y-54200000D01*
X86132703Y-54200000D01*
X86082483Y-54195054D01*
X86040092Y-54182195D01*
X86001027Y-54161314D01*
X85966786Y-54133214D01*
X85938686Y-54098973D01*
X85917805Y-54059908D01*
X85904946Y-54017517D01*
X85900000Y-53967297D01*
X85900000Y-52432703D01*
X85904946Y-52382483D01*
X85917805Y-52340092D01*
X85938686Y-52301027D01*
X85966786Y-52266786D01*
X86001027Y-52238686D01*
X86040092Y-52217805D01*
X86082483Y-52204946D01*
X86132703Y-52200000D01*
X89067297Y-52200000D01*
X89117517Y-52204946D01*
X89117517Y-52204946D01*
G37*
G36*
X84717517Y-52204946D02*
G01*
X84759908Y-52217805D01*
X84798973Y-52238686D01*
X84833214Y-52266786D01*
X84861314Y-52301027D01*
X84882195Y-52340092D01*
X84895054Y-52382483D01*
X84900000Y-52432703D01*
X84900000Y-53967297D01*
X84895054Y-54017517D01*
X84882195Y-54059908D01*
X84861314Y-54098973D01*
X84833214Y-54133214D01*
X84798973Y-54161314D01*
X84759908Y-54182195D01*
X84717517Y-54195054D01*
X84667297Y-54200000D01*
X81732703Y-54200000D01*
X81682483Y-54195054D01*
X81640092Y-54182195D01*
X81601027Y-54161314D01*
X81566786Y-54133214D01*
X81538686Y-54098973D01*
X81517805Y-54059908D01*
X81504946Y-54017517D01*
X81500000Y-53967297D01*
X81500000Y-52432703D01*
X81504946Y-52382483D01*
X81517805Y-52340092D01*
X81538686Y-52301027D01*
X81566786Y-52266786D01*
X81601027Y-52238686D01*
X81640092Y-52217805D01*
X81682483Y-52204946D01*
X81732703Y-52200000D01*
X84667297Y-52200000D01*
X84717517Y-52204946D01*
X84717517Y-52204946D01*
G37*
G36*
X124317517Y-52204946D02*
G01*
X124359908Y-52217805D01*
X124398973Y-52238686D01*
X124433214Y-52266786D01*
X124461314Y-52301027D01*
X124482195Y-52340092D01*
X124495054Y-52382483D01*
X124500000Y-52432703D01*
X124500000Y-53967297D01*
X124495054Y-54017517D01*
X124482195Y-54059908D01*
X124461314Y-54098973D01*
X124433214Y-54133214D01*
X124398973Y-54161314D01*
X124359908Y-54182195D01*
X124317517Y-54195054D01*
X124267297Y-54200000D01*
X121332703Y-54200000D01*
X121282483Y-54195054D01*
X121240092Y-54182195D01*
X121201027Y-54161314D01*
X121166786Y-54133214D01*
X121138686Y-54098973D01*
X121117805Y-54059908D01*
X121104946Y-54017517D01*
X121100000Y-53967297D01*
X121100000Y-52432703D01*
X121104946Y-52382483D01*
X121117805Y-52340092D01*
X121138686Y-52301027D01*
X121166786Y-52266786D01*
X121201027Y-52238686D01*
X121240092Y-52217805D01*
X121282483Y-52204946D01*
X121332703Y-52200000D01*
X124267297Y-52200000D01*
X124317517Y-52204946D01*
X124317517Y-52204946D01*
G37*
G36*
X128717517Y-52204946D02*
G01*
X128759908Y-52217805D01*
X128798973Y-52238686D01*
X128833214Y-52266786D01*
X128861314Y-52301027D01*
X128882195Y-52340092D01*
X128895054Y-52382483D01*
X128900000Y-52432703D01*
X128900000Y-53967297D01*
X128895054Y-54017517D01*
X128882195Y-54059908D01*
X128861314Y-54098973D01*
X128833214Y-54133214D01*
X128798973Y-54161314D01*
X128759908Y-54182195D01*
X128717517Y-54195054D01*
X128667297Y-54200000D01*
X125732703Y-54200000D01*
X125682483Y-54195054D01*
X125640092Y-54182195D01*
X125601027Y-54161314D01*
X125566786Y-54133214D01*
X125538686Y-54098973D01*
X125517805Y-54059908D01*
X125504946Y-54017517D01*
X125500000Y-53967297D01*
X125500000Y-52432703D01*
X125504946Y-52382483D01*
X125517805Y-52340092D01*
X125538686Y-52301027D01*
X125566786Y-52266786D01*
X125601027Y-52238686D01*
X125640092Y-52217805D01*
X125682483Y-52204946D01*
X125732703Y-52200000D01*
X128667297Y-52200000D01*
X128717517Y-52204946D01*
X128717517Y-52204946D01*
G37*
G36*
X98875000Y-53995000D02*
G01*
X96925000Y-53995000D01*
X96925000Y-52995000D01*
X98875000Y-52995000D01*
X98875000Y-53995000D01*
X98875000Y-53995000D01*
G37*
G36*
X104275000Y-53995000D02*
G01*
X102325000Y-53995000D01*
X102325000Y-52995000D01*
X104275000Y-52995000D01*
X104275000Y-53995000D01*
X104275000Y-53995000D01*
G37*
G36*
X94868622Y-52193017D02*
G01*
X94916585Y-52207566D01*
X94960778Y-52231188D01*
X94999519Y-52262981D01*
X95031312Y-52301722D01*
X95054934Y-52345915D01*
X95069483Y-52393878D01*
X95075000Y-52449891D01*
X95075000Y-53200109D01*
X95069483Y-53256122D01*
X95054934Y-53304085D01*
X95031312Y-53348278D01*
X94999519Y-53387019D01*
X94960778Y-53418812D01*
X94916585Y-53442434D01*
X94868622Y-53456983D01*
X94812609Y-53462500D01*
X93987391Y-53462500D01*
X93931378Y-53456983D01*
X93883415Y-53442434D01*
X93839222Y-53418812D01*
X93800481Y-53387019D01*
X93768688Y-53348278D01*
X93745066Y-53304085D01*
X93730517Y-53256122D01*
X93725000Y-53200109D01*
X93725000Y-52449891D01*
X93730517Y-52393878D01*
X93745066Y-52345915D01*
X93768688Y-52301722D01*
X93800481Y-52262981D01*
X93839222Y-52231188D01*
X93883415Y-52207566D01*
X93931378Y-52193017D01*
X93987391Y-52187500D01*
X94812609Y-52187500D01*
X94868622Y-52193017D01*
X94868622Y-52193017D01*
G37*
G36*
X106956122Y-51230517D02*
G01*
X107004085Y-51245066D01*
X107048278Y-51268688D01*
X107087019Y-51300481D01*
X107118812Y-51339222D01*
X107142434Y-51383415D01*
X107156983Y-51431378D01*
X107162500Y-51487391D01*
X107162500Y-52312609D01*
X107156983Y-52368622D01*
X107142434Y-52416585D01*
X107118812Y-52460778D01*
X107087019Y-52499519D01*
X107048278Y-52531312D01*
X107004085Y-52554934D01*
X106956122Y-52569483D01*
X106900109Y-52575000D01*
X106149891Y-52575000D01*
X106093878Y-52569483D01*
X106045915Y-52554934D01*
X106001722Y-52531312D01*
X105962981Y-52499519D01*
X105931188Y-52460778D01*
X105907566Y-52416585D01*
X105893017Y-52368622D01*
X105887500Y-52312609D01*
X105887500Y-51487391D01*
X105893017Y-51431378D01*
X105907566Y-51383415D01*
X105931188Y-51339222D01*
X105962981Y-51300481D01*
X106001722Y-51268688D01*
X106045915Y-51245066D01*
X106093878Y-51230517D01*
X106149891Y-51225000D01*
X106900109Y-51225000D01*
X106956122Y-51230517D01*
X106956122Y-51230517D01*
G37*
G36*
X105381122Y-51230517D02*
G01*
X105429085Y-51245066D01*
X105473278Y-51268688D01*
X105512019Y-51300481D01*
X105543812Y-51339222D01*
X105567434Y-51383415D01*
X105581983Y-51431378D01*
X105587500Y-51487391D01*
X105587500Y-52312609D01*
X105581983Y-52368622D01*
X105567434Y-52416585D01*
X105543812Y-52460778D01*
X105512019Y-52499519D01*
X105473278Y-52531312D01*
X105429085Y-52554934D01*
X105381122Y-52569483D01*
X105325109Y-52575000D01*
X104574891Y-52575000D01*
X104518878Y-52569483D01*
X104470915Y-52554934D01*
X104426722Y-52531312D01*
X104387981Y-52499519D01*
X104356188Y-52460778D01*
X104332566Y-52416585D01*
X104318017Y-52368622D01*
X104312500Y-52312609D01*
X104312500Y-51487391D01*
X104318017Y-51431378D01*
X104332566Y-51383415D01*
X104356188Y-51339222D01*
X104387981Y-51300481D01*
X104426722Y-51268688D01*
X104470915Y-51245066D01*
X104518878Y-51230517D01*
X104574891Y-51225000D01*
X105325109Y-51225000D01*
X105381122Y-51230517D01*
X105381122Y-51230517D01*
G37*
G36*
X111428622Y-50768017D02*
G01*
X111476585Y-50782566D01*
X111520778Y-50806188D01*
X111559519Y-50837981D01*
X111591312Y-50876722D01*
X111614934Y-50920915D01*
X111629483Y-50968878D01*
X111635000Y-51024891D01*
X111635000Y-51775109D01*
X111629483Y-51831122D01*
X111614934Y-51879085D01*
X111591312Y-51923278D01*
X111559519Y-51962019D01*
X111520778Y-51993812D01*
X111476585Y-52017434D01*
X111428622Y-52031983D01*
X111372609Y-52037500D01*
X110547391Y-52037500D01*
X110491378Y-52031983D01*
X110443415Y-52017434D01*
X110399222Y-51993812D01*
X110360481Y-51962019D01*
X110328688Y-51923278D01*
X110305066Y-51879085D01*
X110290517Y-51831122D01*
X110285000Y-51775109D01*
X110285000Y-51024891D01*
X110290517Y-50968878D01*
X110305066Y-50920915D01*
X110328688Y-50876722D01*
X110360481Y-50837981D01*
X110399222Y-50806188D01*
X110443415Y-50782566D01*
X110491378Y-50768017D01*
X110547391Y-50762500D01*
X111372609Y-50762500D01*
X111428622Y-50768017D01*
X111428622Y-50768017D01*
G37*
G36*
X102613499Y-50538497D02*
G01*
X102666147Y-50554468D01*
X102714668Y-50580402D01*
X102757195Y-50615305D01*
X102792098Y-50657832D01*
X102818032Y-50706353D01*
X102834003Y-50759001D01*
X102840000Y-50819890D01*
X102840000Y-51620110D01*
X102834003Y-51680999D01*
X102818032Y-51733647D01*
X102792098Y-51782168D01*
X102757195Y-51824695D01*
X102714668Y-51859598D01*
X102666147Y-51885532D01*
X102613499Y-51901503D01*
X102552610Y-51907500D01*
X101327390Y-51907500D01*
X101266501Y-51901503D01*
X101213853Y-51885532D01*
X101165332Y-51859598D01*
X101122805Y-51824695D01*
X101087902Y-51782168D01*
X101061968Y-51733647D01*
X101045997Y-51680999D01*
X101040000Y-51620110D01*
X101040000Y-50819890D01*
X101045997Y-50759001D01*
X101061968Y-50706353D01*
X101087902Y-50657832D01*
X101122805Y-50615305D01*
X101165332Y-50580402D01*
X101213853Y-50554468D01*
X101266501Y-50538497D01*
X101327390Y-50532500D01*
X102552610Y-50532500D01*
X102613499Y-50538497D01*
X102613499Y-50538497D01*
G37*
G36*
X97503499Y-50518497D02*
G01*
X97556147Y-50534468D01*
X97604668Y-50560402D01*
X97647195Y-50595305D01*
X97682098Y-50637832D01*
X97708032Y-50686353D01*
X97724003Y-50739001D01*
X97730000Y-50799890D01*
X97730000Y-51600110D01*
X97724003Y-51660999D01*
X97708032Y-51713647D01*
X97682098Y-51762168D01*
X97647195Y-51804695D01*
X97604668Y-51839598D01*
X97556147Y-51865532D01*
X97503499Y-51881503D01*
X97442610Y-51887500D01*
X96217390Y-51887500D01*
X96156501Y-51881503D01*
X96103853Y-51865532D01*
X96055332Y-51839598D01*
X96012805Y-51804695D01*
X95977902Y-51762168D01*
X95951968Y-51713647D01*
X95935997Y-51660999D01*
X95930000Y-51600110D01*
X95930000Y-50799890D01*
X95935997Y-50739001D01*
X95951968Y-50686353D01*
X95977902Y-50637832D01*
X96012805Y-50595305D01*
X96055332Y-50560402D01*
X96103853Y-50534468D01*
X96156501Y-50518497D01*
X96217390Y-50512500D01*
X97442610Y-50512500D01*
X97503499Y-50518497D01*
X97503499Y-50518497D01*
G37*
G36*
X111428622Y-49193017D02*
G01*
X111476585Y-49207566D01*
X111520778Y-49231188D01*
X111559519Y-49262981D01*
X111591312Y-49301722D01*
X111614934Y-49345915D01*
X111629483Y-49393878D01*
X111635000Y-49449891D01*
X111635000Y-50200109D01*
X111629483Y-50256122D01*
X111614934Y-50304085D01*
X111591312Y-50348278D01*
X111559519Y-50387019D01*
X111520778Y-50418812D01*
X111476585Y-50442434D01*
X111428622Y-50456983D01*
X111372609Y-50462500D01*
X110547391Y-50462500D01*
X110491378Y-50456983D01*
X110443415Y-50442434D01*
X110399222Y-50418812D01*
X110360481Y-50387019D01*
X110328688Y-50348278D01*
X110305066Y-50304085D01*
X110290517Y-50256122D01*
X110285000Y-50200109D01*
X110285000Y-49449891D01*
X110290517Y-49393878D01*
X110305066Y-49345915D01*
X110328688Y-49301722D01*
X110360481Y-49262981D01*
X110399222Y-49231188D01*
X110443415Y-49207566D01*
X110491378Y-49193017D01*
X110547391Y-49187500D01*
X111372609Y-49187500D01*
X111428622Y-49193017D01*
X111428622Y-49193017D01*
G37*
G36*
X102613499Y-48663497D02*
G01*
X102666147Y-48679468D01*
X102714668Y-48705402D01*
X102757195Y-48740305D01*
X102792098Y-48782832D01*
X102818032Y-48831353D01*
X102834003Y-48884001D01*
X102840000Y-48944890D01*
X102840000Y-49745110D01*
X102834003Y-49805999D01*
X102818032Y-49858647D01*
X102792098Y-49907168D01*
X102757195Y-49949695D01*
X102714668Y-49984598D01*
X102666147Y-50010532D01*
X102613499Y-50026503D01*
X102552610Y-50032500D01*
X101327390Y-50032500D01*
X101266501Y-50026503D01*
X101213853Y-50010532D01*
X101165332Y-49984598D01*
X101122805Y-49949695D01*
X101087902Y-49907168D01*
X101061968Y-49858647D01*
X101045997Y-49805999D01*
X101040000Y-49745110D01*
X101040000Y-48944890D01*
X101045997Y-48884001D01*
X101061968Y-48831353D01*
X101087902Y-48782832D01*
X101122805Y-48740305D01*
X101165332Y-48705402D01*
X101213853Y-48679468D01*
X101266501Y-48663497D01*
X101327390Y-48657500D01*
X102552610Y-48657500D01*
X102613499Y-48663497D01*
X102613499Y-48663497D01*
G37*
G36*
X97503499Y-48643497D02*
G01*
X97556147Y-48659468D01*
X97604668Y-48685402D01*
X97647195Y-48720305D01*
X97682098Y-48762832D01*
X97708032Y-48811353D01*
X97724003Y-48864001D01*
X97730000Y-48924890D01*
X97730000Y-49725110D01*
X97724003Y-49785999D01*
X97708032Y-49838647D01*
X97682098Y-49887168D01*
X97647195Y-49929695D01*
X97604668Y-49964598D01*
X97556147Y-49990532D01*
X97503499Y-50006503D01*
X97442610Y-50012500D01*
X96217390Y-50012500D01*
X96156501Y-50006503D01*
X96103853Y-49990532D01*
X96055332Y-49964598D01*
X96012805Y-49929695D01*
X95977902Y-49887168D01*
X95951968Y-49838647D01*
X95935997Y-49785999D01*
X95930000Y-49725110D01*
X95930000Y-48924890D01*
X95935997Y-48864001D01*
X95951968Y-48811353D01*
X95977902Y-48762832D01*
X96012805Y-48720305D01*
X96055332Y-48685402D01*
X96103853Y-48659468D01*
X96156501Y-48643497D01*
X96217390Y-48637500D01*
X97442610Y-48637500D01*
X97503499Y-48643497D01*
X97503499Y-48643497D01*
G37*
G36*
X121480604Y-47824968D02*
G01*
X121568142Y-47861228D01*
X121655678Y-47897486D01*
X121655679Y-47897487D01*
X121813237Y-48002763D01*
X121947237Y-48136763D01*
X122035007Y-48268121D01*
X122052514Y-48294322D01*
X122088772Y-48381858D01*
X122125032Y-48469396D01*
X122162000Y-48655250D01*
X122162000Y-48844750D01*
X122125032Y-49030604D01*
X122052514Y-49205678D01*
X122052513Y-49205679D01*
X121947237Y-49363237D01*
X121813237Y-49497237D01*
X121681879Y-49585007D01*
X121655678Y-49602514D01*
X121480604Y-49675032D01*
X121294750Y-49712000D01*
X121105250Y-49712000D01*
X120919396Y-49675032D01*
X120744322Y-49602514D01*
X120718121Y-49585007D01*
X120586763Y-49497237D01*
X120452763Y-49363237D01*
X120347487Y-49205679D01*
X120347486Y-49205678D01*
X120274968Y-49030604D01*
X120238000Y-48844750D01*
X120238000Y-48655250D01*
X120274968Y-48469396D01*
X120347486Y-48294322D01*
X120364993Y-48268121D01*
X120452763Y-48136763D01*
X120586763Y-48002763D01*
X120744321Y-47897487D01*
X120744322Y-47897486D01*
X120831858Y-47861228D01*
X120919396Y-47824968D01*
X121105250Y-47788000D01*
X121294750Y-47788000D01*
X121480604Y-47824968D01*
X121480604Y-47824968D01*
G37*
G36*
X89480604Y-47824968D02*
G01*
X89568142Y-47861228D01*
X89655678Y-47897486D01*
X89655679Y-47897487D01*
X89813237Y-48002763D01*
X89947237Y-48136763D01*
X90035007Y-48268121D01*
X90052514Y-48294322D01*
X90088772Y-48381858D01*
X90125032Y-48469396D01*
X90162000Y-48655250D01*
X90162000Y-48844750D01*
X90125032Y-49030604D01*
X90052514Y-49205678D01*
X90052513Y-49205679D01*
X89947237Y-49363237D01*
X89813237Y-49497237D01*
X89681879Y-49585007D01*
X89655678Y-49602514D01*
X89480604Y-49675032D01*
X89294750Y-49712000D01*
X89105250Y-49712000D01*
X88919396Y-49675032D01*
X88744322Y-49602514D01*
X88718121Y-49585007D01*
X88586763Y-49497237D01*
X88452763Y-49363237D01*
X88347487Y-49205679D01*
X88347486Y-49205678D01*
X88274968Y-49030604D01*
X88238000Y-48844750D01*
X88238000Y-48655250D01*
X88274968Y-48469396D01*
X88311228Y-48381858D01*
X88347486Y-48294322D01*
X88364993Y-48268121D01*
X88452763Y-48136763D01*
X88586763Y-48002763D01*
X88744321Y-47897487D01*
X88744322Y-47897486D01*
X88831858Y-47861228D01*
X88919396Y-47824968D01*
X89105250Y-47788000D01*
X89294750Y-47788000D01*
X89480604Y-47824968D01*
X89480604Y-47824968D01*
G37*
G36*
X129080604Y-47824968D02*
G01*
X129168142Y-47861228D01*
X129255678Y-47897486D01*
X129255679Y-47897487D01*
X129413237Y-48002763D01*
X129547237Y-48136763D01*
X129635007Y-48268121D01*
X129652514Y-48294322D01*
X129688772Y-48381858D01*
X129725032Y-48469396D01*
X129762000Y-48655250D01*
X129762000Y-48844750D01*
X129725032Y-49030604D01*
X129652514Y-49205678D01*
X129652513Y-49205679D01*
X129547237Y-49363237D01*
X129413237Y-49497237D01*
X129281879Y-49585007D01*
X129255678Y-49602514D01*
X129080604Y-49675032D01*
X128894750Y-49712000D01*
X128705250Y-49712000D01*
X128519396Y-49675032D01*
X128344322Y-49602514D01*
X128318121Y-49585007D01*
X128186763Y-49497237D01*
X128052763Y-49363237D01*
X127947487Y-49205679D01*
X127947486Y-49205678D01*
X127874968Y-49030604D01*
X127838000Y-48844750D01*
X127838000Y-48655250D01*
X127874968Y-48469396D01*
X127947486Y-48294322D01*
X127964993Y-48268121D01*
X128052763Y-48136763D01*
X128186763Y-48002763D01*
X128344321Y-47897487D01*
X128344322Y-47897486D01*
X128431858Y-47861228D01*
X128519396Y-47824968D01*
X128705250Y-47788000D01*
X128894750Y-47788000D01*
X129080604Y-47824968D01*
X129080604Y-47824968D01*
G37*
G36*
X81880604Y-47824968D02*
G01*
X81968142Y-47861228D01*
X82055678Y-47897486D01*
X82055679Y-47897487D01*
X82213237Y-48002763D01*
X82347237Y-48136763D01*
X82435007Y-48268121D01*
X82452514Y-48294322D01*
X82525032Y-48469396D01*
X82562000Y-48655250D01*
X82562000Y-48844750D01*
X82525032Y-49030604D01*
X82452514Y-49205678D01*
X82452513Y-49205679D01*
X82347237Y-49363237D01*
X82213237Y-49497237D01*
X82081879Y-49585007D01*
X82055678Y-49602514D01*
X81880604Y-49675032D01*
X81694750Y-49712000D01*
X81505250Y-49712000D01*
X81319396Y-49675032D01*
X81144322Y-49602514D01*
X81118121Y-49585007D01*
X80986763Y-49497237D01*
X80852763Y-49363237D01*
X80747487Y-49205679D01*
X80747486Y-49205678D01*
X80674968Y-49030604D01*
X80638000Y-48844750D01*
X80638000Y-48655250D01*
X80674968Y-48469396D01*
X80711228Y-48381858D01*
X80747486Y-48294322D01*
X80764993Y-48268121D01*
X80852763Y-48136763D01*
X80986763Y-48002763D01*
X81144321Y-47897487D01*
X81144322Y-47897486D01*
X81231858Y-47861228D01*
X81319396Y-47824968D01*
X81505250Y-47788000D01*
X81694750Y-47788000D01*
X81880604Y-47824968D01*
X81880604Y-47824968D01*
G37*
G36*
X126198830Y-48796410D02*
G01*
X124201170Y-48796410D01*
X124201170Y-45198550D01*
X126198830Y-45198550D01*
X126198830Y-48796410D01*
X126198830Y-48796410D01*
G37*
G36*
X86198830Y-48796410D02*
G01*
X84201170Y-48796410D01*
X84201170Y-45198550D01*
X86198830Y-45198550D01*
X86198830Y-48796410D01*
X86198830Y-48796410D01*
G37*
G36*
X114151162Y-43634586D02*
G01*
X114325041Y-43669173D01*
X114652620Y-43804861D01*
X114947433Y-44001849D01*
X115198151Y-44252567D01*
X115395139Y-44547380D01*
X115530827Y-44874959D01*
X115600000Y-45222716D01*
X115600000Y-45577284D01*
X115530827Y-45925041D01*
X115395139Y-46252620D01*
X115198151Y-46547433D01*
X114947433Y-46798151D01*
X114652620Y-46995139D01*
X114325041Y-47130827D01*
X114151162Y-47165414D01*
X113977286Y-47200000D01*
X113622714Y-47200000D01*
X113448838Y-47165414D01*
X113274959Y-47130827D01*
X112947380Y-46995139D01*
X112652567Y-46798151D01*
X112401849Y-46547433D01*
X112204861Y-46252620D01*
X112069173Y-45925041D01*
X112000000Y-45577284D01*
X112000000Y-45222716D01*
X112069173Y-44874959D01*
X112204861Y-44547380D01*
X112401849Y-44252567D01*
X112652567Y-44001849D01*
X112947380Y-43804861D01*
X113274959Y-43669173D01*
X113448837Y-43634587D01*
X113622714Y-43600000D01*
X113977286Y-43600000D01*
X114151162Y-43634586D01*
X114151162Y-43634586D01*
G37*
G36*
X96951162Y-43634586D02*
G01*
X97125041Y-43669173D01*
X97452620Y-43804861D01*
X97747433Y-44001849D01*
X97998151Y-44252567D01*
X98195139Y-44547380D01*
X98330827Y-44874959D01*
X98400000Y-45222716D01*
X98400000Y-45577284D01*
X98330827Y-45925041D01*
X98195139Y-46252620D01*
X97998151Y-46547433D01*
X97747433Y-46798151D01*
X97452620Y-46995139D01*
X97125041Y-47130827D01*
X96951162Y-47165414D01*
X96777286Y-47200000D01*
X96422714Y-47200000D01*
X96248838Y-47165414D01*
X96074959Y-47130827D01*
X95747380Y-46995139D01*
X95452567Y-46798151D01*
X95201849Y-46547433D01*
X95004861Y-46252620D01*
X94869173Y-45925041D01*
X94800000Y-45577284D01*
X94800000Y-45222716D01*
X94869173Y-44874959D01*
X95004861Y-44547380D01*
X95201849Y-44252567D01*
X95452567Y-44001849D01*
X95747380Y-43804861D01*
X96074959Y-43669173D01*
X96248837Y-43634587D01*
X96422714Y-43600000D01*
X96777286Y-43600000D01*
X96951162Y-43634586D01*
X96951162Y-43634586D01*
G37*
G36*
X86198830Y-43401450D02*
G01*
X84201170Y-43401450D01*
X84201170Y-39803590D01*
X86198830Y-39803590D01*
X86198830Y-43401450D01*
X86198830Y-43401450D01*
G37*
G36*
X126198830Y-43401450D02*
G01*
X124201170Y-43401450D01*
X124201170Y-39803590D01*
X126198830Y-39803590D01*
X126198830Y-43401450D01*
X126198830Y-43401450D01*
G37*
M02*
