M48
; DRILL file {KiCad (5.1.0-0)} date Tuesday, May 28, 2019 at 04:52:59 PM
; FORMAT={2:4/ absolute / inch / suppress leading zeros}
; #@! TF.CreationDate,2019-05-28T16:52:59-07:00
; #@! TF.GenerationSoftware,Kicad,Pcbnew,(5.1.0-0)
; #@! TF.FileFunction,Plated,1,4,PTH
FMAT,2
INCH,TZ
T1C0.0079
T2C0.0130
T3C0.0157
T4C0.0197
T5C0.0394
%
G90
G05
T1
X39843Y-39921
X39843Y-40315
X39843Y-40709
X40236Y-39921
X40236Y-40315
X40236Y-40709
X40630Y-39921
X40630Y-40315
X40630Y-40709
T2
X34232Y-37012
X36416Y-46661
X40079Y-47434
X40669Y-23041
X41315Y-21059
X42220Y-41882
X42528Y-31354
X43386Y-32661
X44921Y-21240
X45055Y-21615
X47185Y-27154
X47579Y-34303
X47579Y-39720
X49272Y-42980
X49277Y-40915
X49594Y-41580
X49646Y-42001
X49651Y-42433
X49922Y-42697
X49947Y-41355
X50295Y-42697
X50689Y-41356
X50732Y-42689
X50958Y-41343
X51161Y-42661
X51378Y-42346
X51529Y-44794
X51602Y-42689
T3
X27010Y-61328
X27010Y-57410
X27020Y-63283
X27083Y-58510
X27769Y-64517
X27871Y-66841
X27996Y-75774
X28008Y-68756
X28022Y-78967
X28083Y-60350
X28223Y-76117
X28290Y-63070
X28809Y-77470
X28890Y-51768
X28927Y-78425
X29055Y-52126
X29059Y-66102
X29183Y-74606
X29248Y-68346
X29248Y-68732
X29272Y-69478
X29435Y-62382
X29804Y-67843
X30079Y-70522
X30760Y-66102
X30890Y-54508
X31124Y-47488
X31291Y-82040
X31319Y-80739
X31543Y-70839
X31651Y-53556
X31890Y-74488
X31964Y-47187
X31968Y-46743
X31972Y-41381
X32766Y-81742
X33346Y-20157
X33740Y-83169
X33819Y-51929
X33829Y-55325
X33829Y-55945
X33839Y-54754
X33898Y-38827
X34468Y-80355
X34675Y-54744
X34675Y-55335
X34675Y-55945
X35002Y-73317
X35156Y-42718
X35394Y-69784
X35463Y-82913
X35480Y-73606
X35492Y-53602
X35704Y-41548
X35704Y-43248
X35704Y-44148
X35915Y-20827
X35915Y-21299
X35915Y-21929
X35915Y-22431
X36237Y-42882
X36447Y-21939
X36457Y-22431
X36689Y-44157
X36954Y-38898
X37093Y-40039
X37165Y-57224
X37315Y-41472
X37441Y-42193
X37500Y-56319
X38898Y-37433
X39059Y-85955
X39134Y-87461
X39264Y-85013
X39291Y-38549
X39395Y-85379
X39452Y-83189
X39879Y-84734
X39921Y-83622
X40161Y-38886
X40327Y-78165
X40454Y-85936
X40646Y-38677
X40748Y-72866
X40807Y-76339
X41220Y-77559
X41427Y-26870
X41641Y-74572
X41693Y-81831
X41732Y-41181
X41732Y-76496
X42028Y-72835
X42180Y-21211
X42205Y-40079
X42205Y-77317
X42244Y-78169
X42346Y-86900
X42520Y-40709
X42524Y-23992
X42677Y-49075
X42697Y-47106
X42972Y-69528
X43043Y-72760
X43051Y-80699
X43218Y-69754
X43287Y-29146
X43455Y-31467
X43540Y-77641
X43543Y-78372
X43543Y-87008
X43765Y-41471
X43765Y-85741
X43767Y-76943
X43819Y-68681
X43920Y-72799
X43937Y-69803
X43969Y-45113
X44195Y-42835
X44257Y-76305
X44264Y-74067
X44449Y-45827
X44542Y-76517
X44567Y-42205
X44728Y-80012
X44854Y-76290
X44865Y-41837
X44882Y-68454
X44882Y-79638
X44989Y-74724
X45020Y-75828
X45039Y-41575
X45181Y-22130
X45272Y-44291
X45335Y-74933
X45433Y-47697
X45541Y-75116
X45608Y-86124
X45748Y-42835
X45761Y-76063
X45795Y-42432
X45953Y-75799
X45984Y-44291
X46024Y-49075
X46142Y-76319
X46299Y-41575
X46472Y-79287
X46500Y-47527
X46555Y-79020
X46693Y-42835
X46831Y-40484
X46885Y-79468
X46906Y-24354
X47026Y-78163
X47044Y-78477
X47082Y-75871
X47104Y-42448
X47110Y-77859
X47175Y-79646
X47215Y-40965
X47359Y-80787
X47370Y-77682
X47418Y-79932
X47433Y-31224
X47457Y-83049
X47528Y-40706
X47618Y-43307
X47638Y-75669
X47645Y-81733
X47722Y-77503
X47937Y-47323
X47981Y-77323
X47989Y-76239
X47992Y-75304
X48319Y-80831
X48335Y-79992
X48484Y-75866
X48589Y-79864
X48718Y-79560
X48841Y-56732
X48917Y-61240
X49021Y-84497
X49068Y-59082
X49114Y-62461
X49295Y-82803
X49516Y-41298
X49669Y-76173
X49709Y-80599
X49843Y-41732
X49921Y-42205
X50059Y-80264
X50315Y-44567
X50408Y-41466
X50591Y-82746
X50748Y-44567
X50890Y-79299
X50976Y-49173
X51150Y-80425
X51368Y-81417
X51605Y-47328
X52047Y-41732
X52047Y-42283
X52062Y-80424
X52595Y-70782
X53004Y-68248
X53024Y-71205
X53728Y-53669
X53937Y-51417
X54465Y-68228
X54748Y-69205
X54748Y-67914
X55354Y-69291
X55443Y-64248
X55701Y-60430
X56055Y-65303
X56192Y-57445
X56192Y-62319
X56202Y-60337
X56380Y-58591
X56435Y-59696
X56626Y-55260
T5
X46704Y-51648
X45004Y-51648
X43304Y-51648
X39904Y-51648
X41704Y-51648
X47717Y-19193
X50709Y-19193
X48404Y-51648
X32126Y-19193
X35118Y-19193
X37453Y-65362
X27175Y-71317
X27175Y-72317
X27175Y-73317
X28175Y-71317
X28175Y-72317
X28175Y-73317
X32142Y-65331
X54791Y-71327
X54791Y-72327
X54791Y-73327
X55791Y-71327
X55791Y-72327
X55791Y-73327
X37469Y-67028
T4
G00X27000Y-50591
M15
G01X27276Y-50591
M16
G05
G00X27000Y-53189
M15
G01X27276Y-53189
M16
G05
T0
M30
