G04 #@! TF.GenerationSoftware,KiCad,Pcbnew,(5.1.0-0)*
G04 #@! TF.CreationDate,2019-05-28T12:35:33-07:00*
G04 #@! TF.ProjectId,DC27-badge,44433237-2d62-4616-9467-652e6b696361,rev?*
G04 #@! TF.SameCoordinates,Original*
G04 #@! TF.FileFunction,Paste,Bot*
G04 #@! TF.FilePolarity,Positive*
%FSLAX46Y46*%
G04 Gerber Fmt 4.6, Leading zero omitted, Abs format (unit mm)*
G04 Created by KiCad (PCBNEW (5.1.0-0)) date 2019-05-28 12:35:33*
%MOMM*%
%LPD*%
G04 APERTURE LIST*
%ADD10C,0.150000*%
%ADD11C,0.875000*%
%ADD12C,1.600000*%
%ADD13C,0.975000*%
%ADD14R,1.550000X0.600000*%
%ADD15R,0.450000X0.300000*%
%ADD16C,1.500000*%
%ADD17C,1.000000*%
%ADD18R,0.800000X1.000000*%
%ADD19R,1.500000X0.700000*%
%ADD20C,1.250000*%
%ADD21R,2.499360X1.597660*%
%ADD22R,1.597660X3.197860*%
%ADD23R,1.348740X0.398780*%
%ADD24O,1.597660X0.899160*%
%ADD25R,1.399540X1.597660*%
%ADD26R,1.899920X1.899920*%
%ADD27R,1.100000X0.250000*%
G04 APERTURE END LIST*
D10*
G36*
X104477691Y-60563553D02*
G01*
X104498926Y-60566703D01*
X104519750Y-60571919D01*
X104539962Y-60579151D01*
X104559368Y-60588330D01*
X104577781Y-60599366D01*
X104595024Y-60612154D01*
X104610930Y-60626570D01*
X104625346Y-60642476D01*
X104638134Y-60659719D01*
X104649170Y-60678132D01*
X104658349Y-60697538D01*
X104665581Y-60717750D01*
X104670797Y-60738574D01*
X104673947Y-60759809D01*
X104675000Y-60781250D01*
X104675000Y-61218750D01*
X104673947Y-61240191D01*
X104670797Y-61261426D01*
X104665581Y-61282250D01*
X104658349Y-61302462D01*
X104649170Y-61321868D01*
X104638134Y-61340281D01*
X104625346Y-61357524D01*
X104610930Y-61373430D01*
X104595024Y-61387846D01*
X104577781Y-61400634D01*
X104559368Y-61411670D01*
X104539962Y-61420849D01*
X104519750Y-61428081D01*
X104498926Y-61433297D01*
X104477691Y-61436447D01*
X104456250Y-61437500D01*
X103943750Y-61437500D01*
X103922309Y-61436447D01*
X103901074Y-61433297D01*
X103880250Y-61428081D01*
X103860038Y-61420849D01*
X103840632Y-61411670D01*
X103822219Y-61400634D01*
X103804976Y-61387846D01*
X103789070Y-61373430D01*
X103774654Y-61357524D01*
X103761866Y-61340281D01*
X103750830Y-61321868D01*
X103741651Y-61302462D01*
X103734419Y-61282250D01*
X103729203Y-61261426D01*
X103726053Y-61240191D01*
X103725000Y-61218750D01*
X103725000Y-60781250D01*
X103726053Y-60759809D01*
X103729203Y-60738574D01*
X103734419Y-60717750D01*
X103741651Y-60697538D01*
X103750830Y-60678132D01*
X103761866Y-60659719D01*
X103774654Y-60642476D01*
X103789070Y-60626570D01*
X103804976Y-60612154D01*
X103822219Y-60599366D01*
X103840632Y-60588330D01*
X103860038Y-60579151D01*
X103880250Y-60571919D01*
X103901074Y-60566703D01*
X103922309Y-60563553D01*
X103943750Y-60562500D01*
X104456250Y-60562500D01*
X104477691Y-60563553D01*
X104477691Y-60563553D01*
G37*
D11*
X104200000Y-61000000D03*
D10*
G36*
X104477691Y-58988553D02*
G01*
X104498926Y-58991703D01*
X104519750Y-58996919D01*
X104539962Y-59004151D01*
X104559368Y-59013330D01*
X104577781Y-59024366D01*
X104595024Y-59037154D01*
X104610930Y-59051570D01*
X104625346Y-59067476D01*
X104638134Y-59084719D01*
X104649170Y-59103132D01*
X104658349Y-59122538D01*
X104665581Y-59142750D01*
X104670797Y-59163574D01*
X104673947Y-59184809D01*
X104675000Y-59206250D01*
X104675000Y-59643750D01*
X104673947Y-59665191D01*
X104670797Y-59686426D01*
X104665581Y-59707250D01*
X104658349Y-59727462D01*
X104649170Y-59746868D01*
X104638134Y-59765281D01*
X104625346Y-59782524D01*
X104610930Y-59798430D01*
X104595024Y-59812846D01*
X104577781Y-59825634D01*
X104559368Y-59836670D01*
X104539962Y-59845849D01*
X104519750Y-59853081D01*
X104498926Y-59858297D01*
X104477691Y-59861447D01*
X104456250Y-59862500D01*
X103943750Y-59862500D01*
X103922309Y-59861447D01*
X103901074Y-59858297D01*
X103880250Y-59853081D01*
X103860038Y-59845849D01*
X103840632Y-59836670D01*
X103822219Y-59825634D01*
X103804976Y-59812846D01*
X103789070Y-59798430D01*
X103774654Y-59782524D01*
X103761866Y-59765281D01*
X103750830Y-59746868D01*
X103741651Y-59727462D01*
X103734419Y-59707250D01*
X103729203Y-59686426D01*
X103726053Y-59665191D01*
X103725000Y-59643750D01*
X103725000Y-59206250D01*
X103726053Y-59184809D01*
X103729203Y-59163574D01*
X103734419Y-59142750D01*
X103741651Y-59122538D01*
X103750830Y-59103132D01*
X103761866Y-59084719D01*
X103774654Y-59067476D01*
X103789070Y-59051570D01*
X103804976Y-59037154D01*
X103822219Y-59024366D01*
X103840632Y-59013330D01*
X103860038Y-59004151D01*
X103880250Y-58996919D01*
X103901074Y-58991703D01*
X103922309Y-58988553D01*
X103943750Y-58987500D01*
X104456250Y-58987500D01*
X104477691Y-58988553D01*
X104477691Y-58988553D01*
G37*
D11*
X104200000Y-59425000D03*
D10*
G36*
X115024504Y-62701204D02*
G01*
X115048773Y-62704804D01*
X115072571Y-62710765D01*
X115095671Y-62719030D01*
X115117849Y-62729520D01*
X115138893Y-62742133D01*
X115158598Y-62756747D01*
X115176777Y-62773223D01*
X115193253Y-62791402D01*
X115207867Y-62811107D01*
X115220480Y-62832151D01*
X115230970Y-62854329D01*
X115239235Y-62877429D01*
X115245196Y-62901227D01*
X115248796Y-62925496D01*
X115250000Y-62950000D01*
X115250000Y-64050000D01*
X115248796Y-64074504D01*
X115245196Y-64098773D01*
X115239235Y-64122571D01*
X115230970Y-64145671D01*
X115220480Y-64167849D01*
X115207867Y-64188893D01*
X115193253Y-64208598D01*
X115176777Y-64226777D01*
X115158598Y-64243253D01*
X115138893Y-64257867D01*
X115117849Y-64270480D01*
X115095671Y-64280970D01*
X115072571Y-64289235D01*
X115048773Y-64295196D01*
X115024504Y-64298796D01*
X115000000Y-64300000D01*
X112500000Y-64300000D01*
X112475496Y-64298796D01*
X112451227Y-64295196D01*
X112427429Y-64289235D01*
X112404329Y-64280970D01*
X112382151Y-64270480D01*
X112361107Y-64257867D01*
X112341402Y-64243253D01*
X112323223Y-64226777D01*
X112306747Y-64208598D01*
X112292133Y-64188893D01*
X112279520Y-64167849D01*
X112269030Y-64145671D01*
X112260765Y-64122571D01*
X112254804Y-64098773D01*
X112251204Y-64074504D01*
X112250000Y-64050000D01*
X112250000Y-62950000D01*
X112251204Y-62925496D01*
X112254804Y-62901227D01*
X112260765Y-62877429D01*
X112269030Y-62854329D01*
X112279520Y-62832151D01*
X112292133Y-62811107D01*
X112306747Y-62791402D01*
X112323223Y-62773223D01*
X112341402Y-62756747D01*
X112361107Y-62742133D01*
X112382151Y-62729520D01*
X112404329Y-62719030D01*
X112427429Y-62710765D01*
X112451227Y-62704804D01*
X112475496Y-62701204D01*
X112500000Y-62700000D01*
X115000000Y-62700000D01*
X115024504Y-62701204D01*
X115024504Y-62701204D01*
G37*
D12*
X113750000Y-63500000D03*
D10*
G36*
X110624504Y-62701204D02*
G01*
X110648773Y-62704804D01*
X110672571Y-62710765D01*
X110695671Y-62719030D01*
X110717849Y-62729520D01*
X110738893Y-62742133D01*
X110758598Y-62756747D01*
X110776777Y-62773223D01*
X110793253Y-62791402D01*
X110807867Y-62811107D01*
X110820480Y-62832151D01*
X110830970Y-62854329D01*
X110839235Y-62877429D01*
X110845196Y-62901227D01*
X110848796Y-62925496D01*
X110850000Y-62950000D01*
X110850000Y-64050000D01*
X110848796Y-64074504D01*
X110845196Y-64098773D01*
X110839235Y-64122571D01*
X110830970Y-64145671D01*
X110820480Y-64167849D01*
X110807867Y-64188893D01*
X110793253Y-64208598D01*
X110776777Y-64226777D01*
X110758598Y-64243253D01*
X110738893Y-64257867D01*
X110717849Y-64270480D01*
X110695671Y-64280970D01*
X110672571Y-64289235D01*
X110648773Y-64295196D01*
X110624504Y-64298796D01*
X110600000Y-64300000D01*
X108100000Y-64300000D01*
X108075496Y-64298796D01*
X108051227Y-64295196D01*
X108027429Y-64289235D01*
X108004329Y-64280970D01*
X107982151Y-64270480D01*
X107961107Y-64257867D01*
X107941402Y-64243253D01*
X107923223Y-64226777D01*
X107906747Y-64208598D01*
X107892133Y-64188893D01*
X107879520Y-64167849D01*
X107869030Y-64145671D01*
X107860765Y-64122571D01*
X107854804Y-64098773D01*
X107851204Y-64074504D01*
X107850000Y-64050000D01*
X107850000Y-62950000D01*
X107851204Y-62925496D01*
X107854804Y-62901227D01*
X107860765Y-62877429D01*
X107869030Y-62854329D01*
X107879520Y-62832151D01*
X107892133Y-62811107D01*
X107906747Y-62791402D01*
X107923223Y-62773223D01*
X107941402Y-62756747D01*
X107961107Y-62742133D01*
X107982151Y-62729520D01*
X108004329Y-62719030D01*
X108027429Y-62710765D01*
X108051227Y-62704804D01*
X108075496Y-62701204D01*
X108100000Y-62700000D01*
X110600000Y-62700000D01*
X110624504Y-62701204D01*
X110624504Y-62701204D01*
G37*
D12*
X109350000Y-63500000D03*
D10*
G36*
X128474504Y-52401204D02*
G01*
X128498773Y-52404804D01*
X128522571Y-52410765D01*
X128545671Y-52419030D01*
X128567849Y-52429520D01*
X128588893Y-52442133D01*
X128608598Y-52456747D01*
X128626777Y-52473223D01*
X128643253Y-52491402D01*
X128657867Y-52511107D01*
X128670480Y-52532151D01*
X128680970Y-52554329D01*
X128689235Y-52577429D01*
X128695196Y-52601227D01*
X128698796Y-52625496D01*
X128700000Y-52650000D01*
X128700000Y-53750000D01*
X128698796Y-53774504D01*
X128695196Y-53798773D01*
X128689235Y-53822571D01*
X128680970Y-53845671D01*
X128670480Y-53867849D01*
X128657867Y-53888893D01*
X128643253Y-53908598D01*
X128626777Y-53926777D01*
X128608598Y-53943253D01*
X128588893Y-53957867D01*
X128567849Y-53970480D01*
X128545671Y-53980970D01*
X128522571Y-53989235D01*
X128498773Y-53995196D01*
X128474504Y-53998796D01*
X128450000Y-54000000D01*
X125950000Y-54000000D01*
X125925496Y-53998796D01*
X125901227Y-53995196D01*
X125877429Y-53989235D01*
X125854329Y-53980970D01*
X125832151Y-53970480D01*
X125811107Y-53957867D01*
X125791402Y-53943253D01*
X125773223Y-53926777D01*
X125756747Y-53908598D01*
X125742133Y-53888893D01*
X125729520Y-53867849D01*
X125719030Y-53845671D01*
X125710765Y-53822571D01*
X125704804Y-53798773D01*
X125701204Y-53774504D01*
X125700000Y-53750000D01*
X125700000Y-52650000D01*
X125701204Y-52625496D01*
X125704804Y-52601227D01*
X125710765Y-52577429D01*
X125719030Y-52554329D01*
X125729520Y-52532151D01*
X125742133Y-52511107D01*
X125756747Y-52491402D01*
X125773223Y-52473223D01*
X125791402Y-52456747D01*
X125811107Y-52442133D01*
X125832151Y-52429520D01*
X125854329Y-52419030D01*
X125877429Y-52410765D01*
X125901227Y-52404804D01*
X125925496Y-52401204D01*
X125950000Y-52400000D01*
X128450000Y-52400000D01*
X128474504Y-52401204D01*
X128474504Y-52401204D01*
G37*
D12*
X127200000Y-53200000D03*
D10*
G36*
X124074504Y-52401204D02*
G01*
X124098773Y-52404804D01*
X124122571Y-52410765D01*
X124145671Y-52419030D01*
X124167849Y-52429520D01*
X124188893Y-52442133D01*
X124208598Y-52456747D01*
X124226777Y-52473223D01*
X124243253Y-52491402D01*
X124257867Y-52511107D01*
X124270480Y-52532151D01*
X124280970Y-52554329D01*
X124289235Y-52577429D01*
X124295196Y-52601227D01*
X124298796Y-52625496D01*
X124300000Y-52650000D01*
X124300000Y-53750000D01*
X124298796Y-53774504D01*
X124295196Y-53798773D01*
X124289235Y-53822571D01*
X124280970Y-53845671D01*
X124270480Y-53867849D01*
X124257867Y-53888893D01*
X124243253Y-53908598D01*
X124226777Y-53926777D01*
X124208598Y-53943253D01*
X124188893Y-53957867D01*
X124167849Y-53970480D01*
X124145671Y-53980970D01*
X124122571Y-53989235D01*
X124098773Y-53995196D01*
X124074504Y-53998796D01*
X124050000Y-54000000D01*
X121550000Y-54000000D01*
X121525496Y-53998796D01*
X121501227Y-53995196D01*
X121477429Y-53989235D01*
X121454329Y-53980970D01*
X121432151Y-53970480D01*
X121411107Y-53957867D01*
X121391402Y-53943253D01*
X121373223Y-53926777D01*
X121356747Y-53908598D01*
X121342133Y-53888893D01*
X121329520Y-53867849D01*
X121319030Y-53845671D01*
X121310765Y-53822571D01*
X121304804Y-53798773D01*
X121301204Y-53774504D01*
X121300000Y-53750000D01*
X121300000Y-52650000D01*
X121301204Y-52625496D01*
X121304804Y-52601227D01*
X121310765Y-52577429D01*
X121319030Y-52554329D01*
X121329520Y-52532151D01*
X121342133Y-52511107D01*
X121356747Y-52491402D01*
X121373223Y-52473223D01*
X121391402Y-52456747D01*
X121411107Y-52442133D01*
X121432151Y-52429520D01*
X121454329Y-52419030D01*
X121477429Y-52410765D01*
X121501227Y-52404804D01*
X121525496Y-52401204D01*
X121550000Y-52400000D01*
X124050000Y-52400000D01*
X124074504Y-52401204D01*
X124074504Y-52401204D01*
G37*
D12*
X122800000Y-53200000D03*
D10*
G36*
X102420142Y-50733674D02*
G01*
X102443803Y-50737184D01*
X102467007Y-50742996D01*
X102489529Y-50751054D01*
X102511153Y-50761282D01*
X102531670Y-50773579D01*
X102550883Y-50787829D01*
X102568607Y-50803893D01*
X102584671Y-50821617D01*
X102598921Y-50840830D01*
X102611218Y-50861347D01*
X102621446Y-50882971D01*
X102629504Y-50905493D01*
X102635316Y-50928697D01*
X102638826Y-50952358D01*
X102640000Y-50976250D01*
X102640000Y-51463750D01*
X102638826Y-51487642D01*
X102635316Y-51511303D01*
X102629504Y-51534507D01*
X102621446Y-51557029D01*
X102611218Y-51578653D01*
X102598921Y-51599170D01*
X102584671Y-51618383D01*
X102568607Y-51636107D01*
X102550883Y-51652171D01*
X102531670Y-51666421D01*
X102511153Y-51678718D01*
X102489529Y-51688946D01*
X102467007Y-51697004D01*
X102443803Y-51702816D01*
X102420142Y-51706326D01*
X102396250Y-51707500D01*
X101483750Y-51707500D01*
X101459858Y-51706326D01*
X101436197Y-51702816D01*
X101412993Y-51697004D01*
X101390471Y-51688946D01*
X101368847Y-51678718D01*
X101348330Y-51666421D01*
X101329117Y-51652171D01*
X101311393Y-51636107D01*
X101295329Y-51618383D01*
X101281079Y-51599170D01*
X101268782Y-51578653D01*
X101258554Y-51557029D01*
X101250496Y-51534507D01*
X101244684Y-51511303D01*
X101241174Y-51487642D01*
X101240000Y-51463750D01*
X101240000Y-50976250D01*
X101241174Y-50952358D01*
X101244684Y-50928697D01*
X101250496Y-50905493D01*
X101258554Y-50882971D01*
X101268782Y-50861347D01*
X101281079Y-50840830D01*
X101295329Y-50821617D01*
X101311393Y-50803893D01*
X101329117Y-50787829D01*
X101348330Y-50773579D01*
X101368847Y-50761282D01*
X101390471Y-50751054D01*
X101412993Y-50742996D01*
X101436197Y-50737184D01*
X101459858Y-50733674D01*
X101483750Y-50732500D01*
X102396250Y-50732500D01*
X102420142Y-50733674D01*
X102420142Y-50733674D01*
G37*
D13*
X101940000Y-51220000D03*
D10*
G36*
X102420142Y-48858674D02*
G01*
X102443803Y-48862184D01*
X102467007Y-48867996D01*
X102489529Y-48876054D01*
X102511153Y-48886282D01*
X102531670Y-48898579D01*
X102550883Y-48912829D01*
X102568607Y-48928893D01*
X102584671Y-48946617D01*
X102598921Y-48965830D01*
X102611218Y-48986347D01*
X102621446Y-49007971D01*
X102629504Y-49030493D01*
X102635316Y-49053697D01*
X102638826Y-49077358D01*
X102640000Y-49101250D01*
X102640000Y-49588750D01*
X102638826Y-49612642D01*
X102635316Y-49636303D01*
X102629504Y-49659507D01*
X102621446Y-49682029D01*
X102611218Y-49703653D01*
X102598921Y-49724170D01*
X102584671Y-49743383D01*
X102568607Y-49761107D01*
X102550883Y-49777171D01*
X102531670Y-49791421D01*
X102511153Y-49803718D01*
X102489529Y-49813946D01*
X102467007Y-49822004D01*
X102443803Y-49827816D01*
X102420142Y-49831326D01*
X102396250Y-49832500D01*
X101483750Y-49832500D01*
X101459858Y-49831326D01*
X101436197Y-49827816D01*
X101412993Y-49822004D01*
X101390471Y-49813946D01*
X101368847Y-49803718D01*
X101348330Y-49791421D01*
X101329117Y-49777171D01*
X101311393Y-49761107D01*
X101295329Y-49743383D01*
X101281079Y-49724170D01*
X101268782Y-49703653D01*
X101258554Y-49682029D01*
X101250496Y-49659507D01*
X101244684Y-49636303D01*
X101241174Y-49612642D01*
X101240000Y-49588750D01*
X101240000Y-49101250D01*
X101241174Y-49077358D01*
X101244684Y-49053697D01*
X101250496Y-49030493D01*
X101258554Y-49007971D01*
X101268782Y-48986347D01*
X101281079Y-48965830D01*
X101295329Y-48946617D01*
X101311393Y-48928893D01*
X101329117Y-48912829D01*
X101348330Y-48898579D01*
X101368847Y-48886282D01*
X101390471Y-48876054D01*
X101412993Y-48867996D01*
X101436197Y-48862184D01*
X101459858Y-48858674D01*
X101483750Y-48857500D01*
X102396250Y-48857500D01*
X102420142Y-48858674D01*
X102420142Y-48858674D01*
G37*
D13*
X101940000Y-49345000D03*
D14*
X103300000Y-57305000D03*
X103300000Y-56035000D03*
X103300000Y-54765000D03*
X103300000Y-53495000D03*
X97900000Y-53495000D03*
X97900000Y-54765000D03*
X97900000Y-56035000D03*
X97900000Y-57305000D03*
D10*
G36*
X84474504Y-52401204D02*
G01*
X84498773Y-52404804D01*
X84522571Y-52410765D01*
X84545671Y-52419030D01*
X84567849Y-52429520D01*
X84588893Y-52442133D01*
X84608598Y-52456747D01*
X84626777Y-52473223D01*
X84643253Y-52491402D01*
X84657867Y-52511107D01*
X84670480Y-52532151D01*
X84680970Y-52554329D01*
X84689235Y-52577429D01*
X84695196Y-52601227D01*
X84698796Y-52625496D01*
X84700000Y-52650000D01*
X84700000Y-53750000D01*
X84698796Y-53774504D01*
X84695196Y-53798773D01*
X84689235Y-53822571D01*
X84680970Y-53845671D01*
X84670480Y-53867849D01*
X84657867Y-53888893D01*
X84643253Y-53908598D01*
X84626777Y-53926777D01*
X84608598Y-53943253D01*
X84588893Y-53957867D01*
X84567849Y-53970480D01*
X84545671Y-53980970D01*
X84522571Y-53989235D01*
X84498773Y-53995196D01*
X84474504Y-53998796D01*
X84450000Y-54000000D01*
X81950000Y-54000000D01*
X81925496Y-53998796D01*
X81901227Y-53995196D01*
X81877429Y-53989235D01*
X81854329Y-53980970D01*
X81832151Y-53970480D01*
X81811107Y-53957867D01*
X81791402Y-53943253D01*
X81773223Y-53926777D01*
X81756747Y-53908598D01*
X81742133Y-53888893D01*
X81729520Y-53867849D01*
X81719030Y-53845671D01*
X81710765Y-53822571D01*
X81704804Y-53798773D01*
X81701204Y-53774504D01*
X81700000Y-53750000D01*
X81700000Y-52650000D01*
X81701204Y-52625496D01*
X81704804Y-52601227D01*
X81710765Y-52577429D01*
X81719030Y-52554329D01*
X81729520Y-52532151D01*
X81742133Y-52511107D01*
X81756747Y-52491402D01*
X81773223Y-52473223D01*
X81791402Y-52456747D01*
X81811107Y-52442133D01*
X81832151Y-52429520D01*
X81854329Y-52419030D01*
X81877429Y-52410765D01*
X81901227Y-52404804D01*
X81925496Y-52401204D01*
X81950000Y-52400000D01*
X84450000Y-52400000D01*
X84474504Y-52401204D01*
X84474504Y-52401204D01*
G37*
D12*
X83200000Y-53200000D03*
D10*
G36*
X88874504Y-52401204D02*
G01*
X88898773Y-52404804D01*
X88922571Y-52410765D01*
X88945671Y-52419030D01*
X88967849Y-52429520D01*
X88988893Y-52442133D01*
X89008598Y-52456747D01*
X89026777Y-52473223D01*
X89043253Y-52491402D01*
X89057867Y-52511107D01*
X89070480Y-52532151D01*
X89080970Y-52554329D01*
X89089235Y-52577429D01*
X89095196Y-52601227D01*
X89098796Y-52625496D01*
X89100000Y-52650000D01*
X89100000Y-53750000D01*
X89098796Y-53774504D01*
X89095196Y-53798773D01*
X89089235Y-53822571D01*
X89080970Y-53845671D01*
X89070480Y-53867849D01*
X89057867Y-53888893D01*
X89043253Y-53908598D01*
X89026777Y-53926777D01*
X89008598Y-53943253D01*
X88988893Y-53957867D01*
X88967849Y-53970480D01*
X88945671Y-53980970D01*
X88922571Y-53989235D01*
X88898773Y-53995196D01*
X88874504Y-53998796D01*
X88850000Y-54000000D01*
X86350000Y-54000000D01*
X86325496Y-53998796D01*
X86301227Y-53995196D01*
X86277429Y-53989235D01*
X86254329Y-53980970D01*
X86232151Y-53970480D01*
X86211107Y-53957867D01*
X86191402Y-53943253D01*
X86173223Y-53926777D01*
X86156747Y-53908598D01*
X86142133Y-53888893D01*
X86129520Y-53867849D01*
X86119030Y-53845671D01*
X86110765Y-53822571D01*
X86104804Y-53798773D01*
X86101204Y-53774504D01*
X86100000Y-53750000D01*
X86100000Y-52650000D01*
X86101204Y-52625496D01*
X86104804Y-52601227D01*
X86110765Y-52577429D01*
X86119030Y-52554329D01*
X86129520Y-52532151D01*
X86142133Y-52511107D01*
X86156747Y-52491402D01*
X86173223Y-52473223D01*
X86191402Y-52456747D01*
X86211107Y-52442133D01*
X86232151Y-52429520D01*
X86254329Y-52419030D01*
X86277429Y-52410765D01*
X86301227Y-52404804D01*
X86325496Y-52401204D01*
X86350000Y-52400000D01*
X88850000Y-52400000D01*
X88874504Y-52401204D01*
X88874504Y-52401204D01*
G37*
D12*
X87600000Y-53200000D03*
D10*
G36*
X96405142Y-61101174D02*
G01*
X96428803Y-61104684D01*
X96452007Y-61110496D01*
X96474529Y-61118554D01*
X96496153Y-61128782D01*
X96516670Y-61141079D01*
X96535883Y-61155329D01*
X96553607Y-61171393D01*
X96569671Y-61189117D01*
X96583921Y-61208330D01*
X96596218Y-61228847D01*
X96606446Y-61250471D01*
X96614504Y-61272993D01*
X96620316Y-61296197D01*
X96623826Y-61319858D01*
X96625000Y-61343750D01*
X96625000Y-62256250D01*
X96623826Y-62280142D01*
X96620316Y-62303803D01*
X96614504Y-62327007D01*
X96606446Y-62349529D01*
X96596218Y-62371153D01*
X96583921Y-62391670D01*
X96569671Y-62410883D01*
X96553607Y-62428607D01*
X96535883Y-62444671D01*
X96516670Y-62458921D01*
X96496153Y-62471218D01*
X96474529Y-62481446D01*
X96452007Y-62489504D01*
X96428803Y-62495316D01*
X96405142Y-62498826D01*
X96381250Y-62500000D01*
X95893750Y-62500000D01*
X95869858Y-62498826D01*
X95846197Y-62495316D01*
X95822993Y-62489504D01*
X95800471Y-62481446D01*
X95778847Y-62471218D01*
X95758330Y-62458921D01*
X95739117Y-62444671D01*
X95721393Y-62428607D01*
X95705329Y-62410883D01*
X95691079Y-62391670D01*
X95678782Y-62371153D01*
X95668554Y-62349529D01*
X95660496Y-62327007D01*
X95654684Y-62303803D01*
X95651174Y-62280142D01*
X95650000Y-62256250D01*
X95650000Y-61343750D01*
X95651174Y-61319858D01*
X95654684Y-61296197D01*
X95660496Y-61272993D01*
X95668554Y-61250471D01*
X95678782Y-61228847D01*
X95691079Y-61208330D01*
X95705329Y-61189117D01*
X95721393Y-61171393D01*
X95739117Y-61155329D01*
X95758330Y-61141079D01*
X95778847Y-61128782D01*
X95800471Y-61118554D01*
X95822993Y-61110496D01*
X95846197Y-61104684D01*
X95869858Y-61101174D01*
X95893750Y-61100000D01*
X96381250Y-61100000D01*
X96405142Y-61101174D01*
X96405142Y-61101174D01*
G37*
D13*
X96137500Y-61800000D03*
D10*
G36*
X94530142Y-61101174D02*
G01*
X94553803Y-61104684D01*
X94577007Y-61110496D01*
X94599529Y-61118554D01*
X94621153Y-61128782D01*
X94641670Y-61141079D01*
X94660883Y-61155329D01*
X94678607Y-61171393D01*
X94694671Y-61189117D01*
X94708921Y-61208330D01*
X94721218Y-61228847D01*
X94731446Y-61250471D01*
X94739504Y-61272993D01*
X94745316Y-61296197D01*
X94748826Y-61319858D01*
X94750000Y-61343750D01*
X94750000Y-62256250D01*
X94748826Y-62280142D01*
X94745316Y-62303803D01*
X94739504Y-62327007D01*
X94731446Y-62349529D01*
X94721218Y-62371153D01*
X94708921Y-62391670D01*
X94694671Y-62410883D01*
X94678607Y-62428607D01*
X94660883Y-62444671D01*
X94641670Y-62458921D01*
X94621153Y-62471218D01*
X94599529Y-62481446D01*
X94577007Y-62489504D01*
X94553803Y-62495316D01*
X94530142Y-62498826D01*
X94506250Y-62500000D01*
X94018750Y-62500000D01*
X93994858Y-62498826D01*
X93971197Y-62495316D01*
X93947993Y-62489504D01*
X93925471Y-62481446D01*
X93903847Y-62471218D01*
X93883330Y-62458921D01*
X93864117Y-62444671D01*
X93846393Y-62428607D01*
X93830329Y-62410883D01*
X93816079Y-62391670D01*
X93803782Y-62371153D01*
X93793554Y-62349529D01*
X93785496Y-62327007D01*
X93779684Y-62303803D01*
X93776174Y-62280142D01*
X93775000Y-62256250D01*
X93775000Y-61343750D01*
X93776174Y-61319858D01*
X93779684Y-61296197D01*
X93785496Y-61272993D01*
X93793554Y-61250471D01*
X93803782Y-61228847D01*
X93816079Y-61208330D01*
X93830329Y-61189117D01*
X93846393Y-61171393D01*
X93864117Y-61155329D01*
X93883330Y-61141079D01*
X93903847Y-61128782D01*
X93925471Y-61118554D01*
X93947993Y-61110496D01*
X93971197Y-61104684D01*
X93994858Y-61101174D01*
X94018750Y-61100000D01*
X94506250Y-61100000D01*
X94530142Y-61101174D01*
X94530142Y-61101174D01*
G37*
D13*
X94262500Y-61800000D03*
D10*
G36*
X97310142Y-48838674D02*
G01*
X97333803Y-48842184D01*
X97357007Y-48847996D01*
X97379529Y-48856054D01*
X97401153Y-48866282D01*
X97421670Y-48878579D01*
X97440883Y-48892829D01*
X97458607Y-48908893D01*
X97474671Y-48926617D01*
X97488921Y-48945830D01*
X97501218Y-48966347D01*
X97511446Y-48987971D01*
X97519504Y-49010493D01*
X97525316Y-49033697D01*
X97528826Y-49057358D01*
X97530000Y-49081250D01*
X97530000Y-49568750D01*
X97528826Y-49592642D01*
X97525316Y-49616303D01*
X97519504Y-49639507D01*
X97511446Y-49662029D01*
X97501218Y-49683653D01*
X97488921Y-49704170D01*
X97474671Y-49723383D01*
X97458607Y-49741107D01*
X97440883Y-49757171D01*
X97421670Y-49771421D01*
X97401153Y-49783718D01*
X97379529Y-49793946D01*
X97357007Y-49802004D01*
X97333803Y-49807816D01*
X97310142Y-49811326D01*
X97286250Y-49812500D01*
X96373750Y-49812500D01*
X96349858Y-49811326D01*
X96326197Y-49807816D01*
X96302993Y-49802004D01*
X96280471Y-49793946D01*
X96258847Y-49783718D01*
X96238330Y-49771421D01*
X96219117Y-49757171D01*
X96201393Y-49741107D01*
X96185329Y-49723383D01*
X96171079Y-49704170D01*
X96158782Y-49683653D01*
X96148554Y-49662029D01*
X96140496Y-49639507D01*
X96134684Y-49616303D01*
X96131174Y-49592642D01*
X96130000Y-49568750D01*
X96130000Y-49081250D01*
X96131174Y-49057358D01*
X96134684Y-49033697D01*
X96140496Y-49010493D01*
X96148554Y-48987971D01*
X96158782Y-48966347D01*
X96171079Y-48945830D01*
X96185329Y-48926617D01*
X96201393Y-48908893D01*
X96219117Y-48892829D01*
X96238330Y-48878579D01*
X96258847Y-48866282D01*
X96280471Y-48856054D01*
X96302993Y-48847996D01*
X96326197Y-48842184D01*
X96349858Y-48838674D01*
X96373750Y-48837500D01*
X97286250Y-48837500D01*
X97310142Y-48838674D01*
X97310142Y-48838674D01*
G37*
D13*
X96830000Y-49325000D03*
D10*
G36*
X97310142Y-50713674D02*
G01*
X97333803Y-50717184D01*
X97357007Y-50722996D01*
X97379529Y-50731054D01*
X97401153Y-50741282D01*
X97421670Y-50753579D01*
X97440883Y-50767829D01*
X97458607Y-50783893D01*
X97474671Y-50801617D01*
X97488921Y-50820830D01*
X97501218Y-50841347D01*
X97511446Y-50862971D01*
X97519504Y-50885493D01*
X97525316Y-50908697D01*
X97528826Y-50932358D01*
X97530000Y-50956250D01*
X97530000Y-51443750D01*
X97528826Y-51467642D01*
X97525316Y-51491303D01*
X97519504Y-51514507D01*
X97511446Y-51537029D01*
X97501218Y-51558653D01*
X97488921Y-51579170D01*
X97474671Y-51598383D01*
X97458607Y-51616107D01*
X97440883Y-51632171D01*
X97421670Y-51646421D01*
X97401153Y-51658718D01*
X97379529Y-51668946D01*
X97357007Y-51677004D01*
X97333803Y-51682816D01*
X97310142Y-51686326D01*
X97286250Y-51687500D01*
X96373750Y-51687500D01*
X96349858Y-51686326D01*
X96326197Y-51682816D01*
X96302993Y-51677004D01*
X96280471Y-51668946D01*
X96258847Y-51658718D01*
X96238330Y-51646421D01*
X96219117Y-51632171D01*
X96201393Y-51616107D01*
X96185329Y-51598383D01*
X96171079Y-51579170D01*
X96158782Y-51558653D01*
X96148554Y-51537029D01*
X96140496Y-51514507D01*
X96134684Y-51491303D01*
X96131174Y-51467642D01*
X96130000Y-51443750D01*
X96130000Y-50956250D01*
X96131174Y-50932358D01*
X96134684Y-50908697D01*
X96140496Y-50885493D01*
X96148554Y-50862971D01*
X96158782Y-50841347D01*
X96171079Y-50820830D01*
X96185329Y-50801617D01*
X96201393Y-50783893D01*
X96219117Y-50767829D01*
X96238330Y-50753579D01*
X96258847Y-50741282D01*
X96280471Y-50731054D01*
X96302993Y-50722996D01*
X96326197Y-50717184D01*
X96349858Y-50713674D01*
X96373750Y-50712500D01*
X97286250Y-50712500D01*
X97310142Y-50713674D01*
X97310142Y-50713674D01*
G37*
D13*
X96830000Y-51200000D03*
D10*
G36*
X101105142Y-61051174D02*
G01*
X101128803Y-61054684D01*
X101152007Y-61060496D01*
X101174529Y-61068554D01*
X101196153Y-61078782D01*
X101216670Y-61091079D01*
X101235883Y-61105329D01*
X101253607Y-61121393D01*
X101269671Y-61139117D01*
X101283921Y-61158330D01*
X101296218Y-61178847D01*
X101306446Y-61200471D01*
X101314504Y-61222993D01*
X101320316Y-61246197D01*
X101323826Y-61269858D01*
X101325000Y-61293750D01*
X101325000Y-62206250D01*
X101323826Y-62230142D01*
X101320316Y-62253803D01*
X101314504Y-62277007D01*
X101306446Y-62299529D01*
X101296218Y-62321153D01*
X101283921Y-62341670D01*
X101269671Y-62360883D01*
X101253607Y-62378607D01*
X101235883Y-62394671D01*
X101216670Y-62408921D01*
X101196153Y-62421218D01*
X101174529Y-62431446D01*
X101152007Y-62439504D01*
X101128803Y-62445316D01*
X101105142Y-62448826D01*
X101081250Y-62450000D01*
X100593750Y-62450000D01*
X100569858Y-62448826D01*
X100546197Y-62445316D01*
X100522993Y-62439504D01*
X100500471Y-62431446D01*
X100478847Y-62421218D01*
X100458330Y-62408921D01*
X100439117Y-62394671D01*
X100421393Y-62378607D01*
X100405329Y-62360883D01*
X100391079Y-62341670D01*
X100378782Y-62321153D01*
X100368554Y-62299529D01*
X100360496Y-62277007D01*
X100354684Y-62253803D01*
X100351174Y-62230142D01*
X100350000Y-62206250D01*
X100350000Y-61293750D01*
X100351174Y-61269858D01*
X100354684Y-61246197D01*
X100360496Y-61222993D01*
X100368554Y-61200471D01*
X100378782Y-61178847D01*
X100391079Y-61158330D01*
X100405329Y-61139117D01*
X100421393Y-61121393D01*
X100439117Y-61105329D01*
X100458330Y-61091079D01*
X100478847Y-61078782D01*
X100500471Y-61068554D01*
X100522993Y-61060496D01*
X100546197Y-61054684D01*
X100569858Y-61051174D01*
X100593750Y-61050000D01*
X101081250Y-61050000D01*
X101105142Y-61051174D01*
X101105142Y-61051174D01*
G37*
D13*
X100837500Y-61750000D03*
D10*
G36*
X99230142Y-61051174D02*
G01*
X99253803Y-61054684D01*
X99277007Y-61060496D01*
X99299529Y-61068554D01*
X99321153Y-61078782D01*
X99341670Y-61091079D01*
X99360883Y-61105329D01*
X99378607Y-61121393D01*
X99394671Y-61139117D01*
X99408921Y-61158330D01*
X99421218Y-61178847D01*
X99431446Y-61200471D01*
X99439504Y-61222993D01*
X99445316Y-61246197D01*
X99448826Y-61269858D01*
X99450000Y-61293750D01*
X99450000Y-62206250D01*
X99448826Y-62230142D01*
X99445316Y-62253803D01*
X99439504Y-62277007D01*
X99431446Y-62299529D01*
X99421218Y-62321153D01*
X99408921Y-62341670D01*
X99394671Y-62360883D01*
X99378607Y-62378607D01*
X99360883Y-62394671D01*
X99341670Y-62408921D01*
X99321153Y-62421218D01*
X99299529Y-62431446D01*
X99277007Y-62439504D01*
X99253803Y-62445316D01*
X99230142Y-62448826D01*
X99206250Y-62450000D01*
X98718750Y-62450000D01*
X98694858Y-62448826D01*
X98671197Y-62445316D01*
X98647993Y-62439504D01*
X98625471Y-62431446D01*
X98603847Y-62421218D01*
X98583330Y-62408921D01*
X98564117Y-62394671D01*
X98546393Y-62378607D01*
X98530329Y-62360883D01*
X98516079Y-62341670D01*
X98503782Y-62321153D01*
X98493554Y-62299529D01*
X98485496Y-62277007D01*
X98479684Y-62253803D01*
X98476174Y-62230142D01*
X98475000Y-62206250D01*
X98475000Y-61293750D01*
X98476174Y-61269858D01*
X98479684Y-61246197D01*
X98485496Y-61222993D01*
X98493554Y-61200471D01*
X98503782Y-61178847D01*
X98516079Y-61158330D01*
X98530329Y-61139117D01*
X98546393Y-61121393D01*
X98564117Y-61105329D01*
X98583330Y-61091079D01*
X98603847Y-61078782D01*
X98625471Y-61068554D01*
X98647993Y-61060496D01*
X98671197Y-61054684D01*
X98694858Y-61051174D01*
X98718750Y-61050000D01*
X99206250Y-61050000D01*
X99230142Y-61051174D01*
X99230142Y-61051174D01*
G37*
D13*
X98962500Y-61750000D03*
D15*
X80000000Y-133580000D03*
X78600000Y-134080000D03*
X80000000Y-134580000D03*
X78600000Y-133580000D03*
X78600000Y-134580000D03*
D10*
G36*
X85324504Y-168101204D02*
G01*
X85348773Y-168104804D01*
X85372571Y-168110765D01*
X85395671Y-168119030D01*
X85417849Y-168129520D01*
X85438893Y-168142133D01*
X85458598Y-168156747D01*
X85476777Y-168173223D01*
X85493253Y-168191402D01*
X85507867Y-168211107D01*
X85520480Y-168232151D01*
X85530970Y-168254329D01*
X85539235Y-168277429D01*
X85545196Y-168301227D01*
X85548796Y-168325496D01*
X85550000Y-168350000D01*
X85550000Y-171250000D01*
X85548796Y-171274504D01*
X85545196Y-171298773D01*
X85539235Y-171322571D01*
X85530970Y-171345671D01*
X85520480Y-171367849D01*
X85507867Y-171388893D01*
X85493253Y-171408598D01*
X85476777Y-171426777D01*
X85458598Y-171443253D01*
X85438893Y-171457867D01*
X85417849Y-171470480D01*
X85395671Y-171480970D01*
X85372571Y-171489235D01*
X85348773Y-171495196D01*
X85324504Y-171498796D01*
X85300000Y-171500000D01*
X84300000Y-171500000D01*
X84275496Y-171498796D01*
X84251227Y-171495196D01*
X84227429Y-171489235D01*
X84204329Y-171480970D01*
X84182151Y-171470480D01*
X84161107Y-171457867D01*
X84141402Y-171443253D01*
X84123223Y-171426777D01*
X84106747Y-171408598D01*
X84092133Y-171388893D01*
X84079520Y-171367849D01*
X84069030Y-171345671D01*
X84060765Y-171322571D01*
X84054804Y-171298773D01*
X84051204Y-171274504D01*
X84050000Y-171250000D01*
X84050000Y-168350000D01*
X84051204Y-168325496D01*
X84054804Y-168301227D01*
X84060765Y-168277429D01*
X84069030Y-168254329D01*
X84079520Y-168232151D01*
X84092133Y-168211107D01*
X84106747Y-168191402D01*
X84123223Y-168173223D01*
X84141402Y-168156747D01*
X84161107Y-168142133D01*
X84182151Y-168129520D01*
X84204329Y-168119030D01*
X84227429Y-168110765D01*
X84251227Y-168104804D01*
X84275496Y-168101204D01*
X84300000Y-168100000D01*
X85300000Y-168100000D01*
X85324504Y-168101204D01*
X85324504Y-168101204D01*
G37*
D16*
X84800000Y-169800000D03*
D10*
G36*
X92024504Y-168101204D02*
G01*
X92048773Y-168104804D01*
X92072571Y-168110765D01*
X92095671Y-168119030D01*
X92117849Y-168129520D01*
X92138893Y-168142133D01*
X92158598Y-168156747D01*
X92176777Y-168173223D01*
X92193253Y-168191402D01*
X92207867Y-168211107D01*
X92220480Y-168232151D01*
X92230970Y-168254329D01*
X92239235Y-168277429D01*
X92245196Y-168301227D01*
X92248796Y-168325496D01*
X92250000Y-168350000D01*
X92250000Y-171250000D01*
X92248796Y-171274504D01*
X92245196Y-171298773D01*
X92239235Y-171322571D01*
X92230970Y-171345671D01*
X92220480Y-171367849D01*
X92207867Y-171388893D01*
X92193253Y-171408598D01*
X92176777Y-171426777D01*
X92158598Y-171443253D01*
X92138893Y-171457867D01*
X92117849Y-171470480D01*
X92095671Y-171480970D01*
X92072571Y-171489235D01*
X92048773Y-171495196D01*
X92024504Y-171498796D01*
X92000000Y-171500000D01*
X91000000Y-171500000D01*
X90975496Y-171498796D01*
X90951227Y-171495196D01*
X90927429Y-171489235D01*
X90904329Y-171480970D01*
X90882151Y-171470480D01*
X90861107Y-171457867D01*
X90841402Y-171443253D01*
X90823223Y-171426777D01*
X90806747Y-171408598D01*
X90792133Y-171388893D01*
X90779520Y-171367849D01*
X90769030Y-171345671D01*
X90760765Y-171322571D01*
X90754804Y-171298773D01*
X90751204Y-171274504D01*
X90750000Y-171250000D01*
X90750000Y-168350000D01*
X90751204Y-168325496D01*
X90754804Y-168301227D01*
X90760765Y-168277429D01*
X90769030Y-168254329D01*
X90779520Y-168232151D01*
X90792133Y-168211107D01*
X90806747Y-168191402D01*
X90823223Y-168173223D01*
X90841402Y-168156747D01*
X90861107Y-168142133D01*
X90882151Y-168129520D01*
X90904329Y-168119030D01*
X90927429Y-168110765D01*
X90951227Y-168104804D01*
X90975496Y-168101204D01*
X91000000Y-168100000D01*
X92000000Y-168100000D01*
X92024504Y-168101204D01*
X92024504Y-168101204D01*
G37*
D16*
X91500000Y-169800000D03*
D10*
G36*
X87424504Y-162301204D02*
G01*
X87448773Y-162304804D01*
X87472571Y-162310765D01*
X87495671Y-162319030D01*
X87517849Y-162329520D01*
X87538893Y-162342133D01*
X87558598Y-162356747D01*
X87576777Y-162373223D01*
X87593253Y-162391402D01*
X87607867Y-162411107D01*
X87620480Y-162432151D01*
X87630970Y-162454329D01*
X87639235Y-162477429D01*
X87645196Y-162501227D01*
X87648796Y-162525496D01*
X87650000Y-162550000D01*
X87650000Y-165550000D01*
X87648796Y-165574504D01*
X87645196Y-165598773D01*
X87639235Y-165622571D01*
X87630970Y-165645671D01*
X87620480Y-165667849D01*
X87607867Y-165688893D01*
X87593253Y-165708598D01*
X87576777Y-165726777D01*
X87558598Y-165743253D01*
X87538893Y-165757867D01*
X87517849Y-165770480D01*
X87495671Y-165780970D01*
X87472571Y-165789235D01*
X87448773Y-165795196D01*
X87424504Y-165798796D01*
X87400000Y-165800000D01*
X86900000Y-165800000D01*
X86875496Y-165798796D01*
X86851227Y-165795196D01*
X86827429Y-165789235D01*
X86804329Y-165780970D01*
X86782151Y-165770480D01*
X86761107Y-165757867D01*
X86741402Y-165743253D01*
X86723223Y-165726777D01*
X86706747Y-165708598D01*
X86692133Y-165688893D01*
X86679520Y-165667849D01*
X86669030Y-165645671D01*
X86660765Y-165622571D01*
X86654804Y-165598773D01*
X86651204Y-165574504D01*
X86650000Y-165550000D01*
X86650000Y-162550000D01*
X86651204Y-162525496D01*
X86654804Y-162501227D01*
X86660765Y-162477429D01*
X86669030Y-162454329D01*
X86679520Y-162432151D01*
X86692133Y-162411107D01*
X86706747Y-162391402D01*
X86723223Y-162373223D01*
X86741402Y-162356747D01*
X86761107Y-162342133D01*
X86782151Y-162329520D01*
X86804329Y-162319030D01*
X86827429Y-162310765D01*
X86851227Y-162304804D01*
X86875496Y-162301204D01*
X86900000Y-162300000D01*
X87400000Y-162300000D01*
X87424504Y-162301204D01*
X87424504Y-162301204D01*
G37*
D17*
X87150000Y-164050000D03*
D10*
G36*
X89424504Y-162301204D02*
G01*
X89448773Y-162304804D01*
X89472571Y-162310765D01*
X89495671Y-162319030D01*
X89517849Y-162329520D01*
X89538893Y-162342133D01*
X89558598Y-162356747D01*
X89576777Y-162373223D01*
X89593253Y-162391402D01*
X89607867Y-162411107D01*
X89620480Y-162432151D01*
X89630970Y-162454329D01*
X89639235Y-162477429D01*
X89645196Y-162501227D01*
X89648796Y-162525496D01*
X89650000Y-162550000D01*
X89650000Y-165550000D01*
X89648796Y-165574504D01*
X89645196Y-165598773D01*
X89639235Y-165622571D01*
X89630970Y-165645671D01*
X89620480Y-165667849D01*
X89607867Y-165688893D01*
X89593253Y-165708598D01*
X89576777Y-165726777D01*
X89558598Y-165743253D01*
X89538893Y-165757867D01*
X89517849Y-165770480D01*
X89495671Y-165780970D01*
X89472571Y-165789235D01*
X89448773Y-165795196D01*
X89424504Y-165798796D01*
X89400000Y-165800000D01*
X88900000Y-165800000D01*
X88875496Y-165798796D01*
X88851227Y-165795196D01*
X88827429Y-165789235D01*
X88804329Y-165780970D01*
X88782151Y-165770480D01*
X88761107Y-165757867D01*
X88741402Y-165743253D01*
X88723223Y-165726777D01*
X88706747Y-165708598D01*
X88692133Y-165688893D01*
X88679520Y-165667849D01*
X88669030Y-165645671D01*
X88660765Y-165622571D01*
X88654804Y-165598773D01*
X88651204Y-165574504D01*
X88650000Y-165550000D01*
X88650000Y-162550000D01*
X88651204Y-162525496D01*
X88654804Y-162501227D01*
X88660765Y-162477429D01*
X88669030Y-162454329D01*
X88679520Y-162432151D01*
X88692133Y-162411107D01*
X88706747Y-162391402D01*
X88723223Y-162373223D01*
X88741402Y-162356747D01*
X88761107Y-162342133D01*
X88782151Y-162329520D01*
X88804329Y-162319030D01*
X88827429Y-162310765D01*
X88851227Y-162304804D01*
X88875496Y-162301204D01*
X88900000Y-162300000D01*
X89400000Y-162300000D01*
X89424504Y-162301204D01*
X89424504Y-162301204D01*
G37*
D17*
X89150000Y-164050000D03*
D18*
X71780000Y-124650000D03*
X71780000Y-117350000D03*
X69570000Y-117350000D03*
X69570000Y-124650000D03*
D19*
X72430000Y-118750000D03*
X72430000Y-120250000D03*
X72430000Y-123250000D03*
D10*
G36*
X76667691Y-135156053D02*
G01*
X76688926Y-135159203D01*
X76709750Y-135164419D01*
X76729962Y-135171651D01*
X76749368Y-135180830D01*
X76767781Y-135191866D01*
X76785024Y-135204654D01*
X76800930Y-135219070D01*
X76815346Y-135234976D01*
X76828134Y-135252219D01*
X76839170Y-135270632D01*
X76848349Y-135290038D01*
X76855581Y-135310250D01*
X76860797Y-135331074D01*
X76863947Y-135352309D01*
X76865000Y-135373750D01*
X76865000Y-135886250D01*
X76863947Y-135907691D01*
X76860797Y-135928926D01*
X76855581Y-135949750D01*
X76848349Y-135969962D01*
X76839170Y-135989368D01*
X76828134Y-136007781D01*
X76815346Y-136025024D01*
X76800930Y-136040930D01*
X76785024Y-136055346D01*
X76767781Y-136068134D01*
X76749368Y-136079170D01*
X76729962Y-136088349D01*
X76709750Y-136095581D01*
X76688926Y-136100797D01*
X76667691Y-136103947D01*
X76646250Y-136105000D01*
X76208750Y-136105000D01*
X76187309Y-136103947D01*
X76166074Y-136100797D01*
X76145250Y-136095581D01*
X76125038Y-136088349D01*
X76105632Y-136079170D01*
X76087219Y-136068134D01*
X76069976Y-136055346D01*
X76054070Y-136040930D01*
X76039654Y-136025024D01*
X76026866Y-136007781D01*
X76015830Y-135989368D01*
X76006651Y-135969962D01*
X75999419Y-135949750D01*
X75994203Y-135928926D01*
X75991053Y-135907691D01*
X75990000Y-135886250D01*
X75990000Y-135373750D01*
X75991053Y-135352309D01*
X75994203Y-135331074D01*
X75999419Y-135310250D01*
X76006651Y-135290038D01*
X76015830Y-135270632D01*
X76026866Y-135252219D01*
X76039654Y-135234976D01*
X76054070Y-135219070D01*
X76069976Y-135204654D01*
X76087219Y-135191866D01*
X76105632Y-135180830D01*
X76125038Y-135171651D01*
X76145250Y-135164419D01*
X76166074Y-135159203D01*
X76187309Y-135156053D01*
X76208750Y-135155000D01*
X76646250Y-135155000D01*
X76667691Y-135156053D01*
X76667691Y-135156053D01*
G37*
D11*
X76427500Y-135630000D03*
D10*
G36*
X75092691Y-135156053D02*
G01*
X75113926Y-135159203D01*
X75134750Y-135164419D01*
X75154962Y-135171651D01*
X75174368Y-135180830D01*
X75192781Y-135191866D01*
X75210024Y-135204654D01*
X75225930Y-135219070D01*
X75240346Y-135234976D01*
X75253134Y-135252219D01*
X75264170Y-135270632D01*
X75273349Y-135290038D01*
X75280581Y-135310250D01*
X75285797Y-135331074D01*
X75288947Y-135352309D01*
X75290000Y-135373750D01*
X75290000Y-135886250D01*
X75288947Y-135907691D01*
X75285797Y-135928926D01*
X75280581Y-135949750D01*
X75273349Y-135969962D01*
X75264170Y-135989368D01*
X75253134Y-136007781D01*
X75240346Y-136025024D01*
X75225930Y-136040930D01*
X75210024Y-136055346D01*
X75192781Y-136068134D01*
X75174368Y-136079170D01*
X75154962Y-136088349D01*
X75134750Y-136095581D01*
X75113926Y-136100797D01*
X75092691Y-136103947D01*
X75071250Y-136105000D01*
X74633750Y-136105000D01*
X74612309Y-136103947D01*
X74591074Y-136100797D01*
X74570250Y-136095581D01*
X74550038Y-136088349D01*
X74530632Y-136079170D01*
X74512219Y-136068134D01*
X74494976Y-136055346D01*
X74479070Y-136040930D01*
X74464654Y-136025024D01*
X74451866Y-136007781D01*
X74440830Y-135989368D01*
X74431651Y-135969962D01*
X74424419Y-135949750D01*
X74419203Y-135928926D01*
X74416053Y-135907691D01*
X74415000Y-135886250D01*
X74415000Y-135373750D01*
X74416053Y-135352309D01*
X74419203Y-135331074D01*
X74424419Y-135310250D01*
X74431651Y-135290038D01*
X74440830Y-135270632D01*
X74451866Y-135252219D01*
X74464654Y-135234976D01*
X74479070Y-135219070D01*
X74494976Y-135204654D01*
X74512219Y-135191866D01*
X74530632Y-135180830D01*
X74550038Y-135171651D01*
X74570250Y-135164419D01*
X74591074Y-135159203D01*
X74612309Y-135156053D01*
X74633750Y-135155000D01*
X75071250Y-135155000D01*
X75092691Y-135156053D01*
X75092691Y-135156053D01*
G37*
D11*
X74852500Y-135630000D03*
D10*
G36*
X94677691Y-52388553D02*
G01*
X94698926Y-52391703D01*
X94719750Y-52396919D01*
X94739962Y-52404151D01*
X94759368Y-52413330D01*
X94777781Y-52424366D01*
X94795024Y-52437154D01*
X94810930Y-52451570D01*
X94825346Y-52467476D01*
X94838134Y-52484719D01*
X94849170Y-52503132D01*
X94858349Y-52522538D01*
X94865581Y-52542750D01*
X94870797Y-52563574D01*
X94873947Y-52584809D01*
X94875000Y-52606250D01*
X94875000Y-53043750D01*
X94873947Y-53065191D01*
X94870797Y-53086426D01*
X94865581Y-53107250D01*
X94858349Y-53127462D01*
X94849170Y-53146868D01*
X94838134Y-53165281D01*
X94825346Y-53182524D01*
X94810930Y-53198430D01*
X94795024Y-53212846D01*
X94777781Y-53225634D01*
X94759368Y-53236670D01*
X94739962Y-53245849D01*
X94719750Y-53253081D01*
X94698926Y-53258297D01*
X94677691Y-53261447D01*
X94656250Y-53262500D01*
X94143750Y-53262500D01*
X94122309Y-53261447D01*
X94101074Y-53258297D01*
X94080250Y-53253081D01*
X94060038Y-53245849D01*
X94040632Y-53236670D01*
X94022219Y-53225634D01*
X94004976Y-53212846D01*
X93989070Y-53198430D01*
X93974654Y-53182524D01*
X93961866Y-53165281D01*
X93950830Y-53146868D01*
X93941651Y-53127462D01*
X93934419Y-53107250D01*
X93929203Y-53086426D01*
X93926053Y-53065191D01*
X93925000Y-53043750D01*
X93925000Y-52606250D01*
X93926053Y-52584809D01*
X93929203Y-52563574D01*
X93934419Y-52542750D01*
X93941651Y-52522538D01*
X93950830Y-52503132D01*
X93961866Y-52484719D01*
X93974654Y-52467476D01*
X93989070Y-52451570D01*
X94004976Y-52437154D01*
X94022219Y-52424366D01*
X94040632Y-52413330D01*
X94060038Y-52404151D01*
X94080250Y-52396919D01*
X94101074Y-52391703D01*
X94122309Y-52388553D01*
X94143750Y-52387500D01*
X94656250Y-52387500D01*
X94677691Y-52388553D01*
X94677691Y-52388553D01*
G37*
D11*
X94400000Y-52825000D03*
D10*
G36*
X94677691Y-53963553D02*
G01*
X94698926Y-53966703D01*
X94719750Y-53971919D01*
X94739962Y-53979151D01*
X94759368Y-53988330D01*
X94777781Y-53999366D01*
X94795024Y-54012154D01*
X94810930Y-54026570D01*
X94825346Y-54042476D01*
X94838134Y-54059719D01*
X94849170Y-54078132D01*
X94858349Y-54097538D01*
X94865581Y-54117750D01*
X94870797Y-54138574D01*
X94873947Y-54159809D01*
X94875000Y-54181250D01*
X94875000Y-54618750D01*
X94873947Y-54640191D01*
X94870797Y-54661426D01*
X94865581Y-54682250D01*
X94858349Y-54702462D01*
X94849170Y-54721868D01*
X94838134Y-54740281D01*
X94825346Y-54757524D01*
X94810930Y-54773430D01*
X94795024Y-54787846D01*
X94777781Y-54800634D01*
X94759368Y-54811670D01*
X94739962Y-54820849D01*
X94719750Y-54828081D01*
X94698926Y-54833297D01*
X94677691Y-54836447D01*
X94656250Y-54837500D01*
X94143750Y-54837500D01*
X94122309Y-54836447D01*
X94101074Y-54833297D01*
X94080250Y-54828081D01*
X94060038Y-54820849D01*
X94040632Y-54811670D01*
X94022219Y-54800634D01*
X94004976Y-54787846D01*
X93989070Y-54773430D01*
X93974654Y-54757524D01*
X93961866Y-54740281D01*
X93950830Y-54721868D01*
X93941651Y-54702462D01*
X93934419Y-54682250D01*
X93929203Y-54661426D01*
X93926053Y-54640191D01*
X93925000Y-54618750D01*
X93925000Y-54181250D01*
X93926053Y-54159809D01*
X93929203Y-54138574D01*
X93934419Y-54117750D01*
X93941651Y-54097538D01*
X93950830Y-54078132D01*
X93961866Y-54059719D01*
X93974654Y-54042476D01*
X93989070Y-54026570D01*
X94004976Y-54012154D01*
X94022219Y-53999366D01*
X94040632Y-53988330D01*
X94060038Y-53979151D01*
X94080250Y-53971919D01*
X94101074Y-53966703D01*
X94122309Y-53963553D01*
X94143750Y-53962500D01*
X94656250Y-53962500D01*
X94677691Y-53963553D01*
X94677691Y-53963553D01*
G37*
D11*
X94400000Y-54400000D03*
D10*
G36*
X111237691Y-49388553D02*
G01*
X111258926Y-49391703D01*
X111279750Y-49396919D01*
X111299962Y-49404151D01*
X111319368Y-49413330D01*
X111337781Y-49424366D01*
X111355024Y-49437154D01*
X111370930Y-49451570D01*
X111385346Y-49467476D01*
X111398134Y-49484719D01*
X111409170Y-49503132D01*
X111418349Y-49522538D01*
X111425581Y-49542750D01*
X111430797Y-49563574D01*
X111433947Y-49584809D01*
X111435000Y-49606250D01*
X111435000Y-50043750D01*
X111433947Y-50065191D01*
X111430797Y-50086426D01*
X111425581Y-50107250D01*
X111418349Y-50127462D01*
X111409170Y-50146868D01*
X111398134Y-50165281D01*
X111385346Y-50182524D01*
X111370930Y-50198430D01*
X111355024Y-50212846D01*
X111337781Y-50225634D01*
X111319368Y-50236670D01*
X111299962Y-50245849D01*
X111279750Y-50253081D01*
X111258926Y-50258297D01*
X111237691Y-50261447D01*
X111216250Y-50262500D01*
X110703750Y-50262500D01*
X110682309Y-50261447D01*
X110661074Y-50258297D01*
X110640250Y-50253081D01*
X110620038Y-50245849D01*
X110600632Y-50236670D01*
X110582219Y-50225634D01*
X110564976Y-50212846D01*
X110549070Y-50198430D01*
X110534654Y-50182524D01*
X110521866Y-50165281D01*
X110510830Y-50146868D01*
X110501651Y-50127462D01*
X110494419Y-50107250D01*
X110489203Y-50086426D01*
X110486053Y-50065191D01*
X110485000Y-50043750D01*
X110485000Y-49606250D01*
X110486053Y-49584809D01*
X110489203Y-49563574D01*
X110494419Y-49542750D01*
X110501651Y-49522538D01*
X110510830Y-49503132D01*
X110521866Y-49484719D01*
X110534654Y-49467476D01*
X110549070Y-49451570D01*
X110564976Y-49437154D01*
X110582219Y-49424366D01*
X110600632Y-49413330D01*
X110620038Y-49404151D01*
X110640250Y-49396919D01*
X110661074Y-49391703D01*
X110682309Y-49388553D01*
X110703750Y-49387500D01*
X111216250Y-49387500D01*
X111237691Y-49388553D01*
X111237691Y-49388553D01*
G37*
D11*
X110960000Y-49825000D03*
D10*
G36*
X111237691Y-50963553D02*
G01*
X111258926Y-50966703D01*
X111279750Y-50971919D01*
X111299962Y-50979151D01*
X111319368Y-50988330D01*
X111337781Y-50999366D01*
X111355024Y-51012154D01*
X111370930Y-51026570D01*
X111385346Y-51042476D01*
X111398134Y-51059719D01*
X111409170Y-51078132D01*
X111418349Y-51097538D01*
X111425581Y-51117750D01*
X111430797Y-51138574D01*
X111433947Y-51159809D01*
X111435000Y-51181250D01*
X111435000Y-51618750D01*
X111433947Y-51640191D01*
X111430797Y-51661426D01*
X111425581Y-51682250D01*
X111418349Y-51702462D01*
X111409170Y-51721868D01*
X111398134Y-51740281D01*
X111385346Y-51757524D01*
X111370930Y-51773430D01*
X111355024Y-51787846D01*
X111337781Y-51800634D01*
X111319368Y-51811670D01*
X111299962Y-51820849D01*
X111279750Y-51828081D01*
X111258926Y-51833297D01*
X111237691Y-51836447D01*
X111216250Y-51837500D01*
X110703750Y-51837500D01*
X110682309Y-51836447D01*
X110661074Y-51833297D01*
X110640250Y-51828081D01*
X110620038Y-51820849D01*
X110600632Y-51811670D01*
X110582219Y-51800634D01*
X110564976Y-51787846D01*
X110549070Y-51773430D01*
X110534654Y-51757524D01*
X110521866Y-51740281D01*
X110510830Y-51721868D01*
X110501651Y-51702462D01*
X110494419Y-51682250D01*
X110489203Y-51661426D01*
X110486053Y-51640191D01*
X110485000Y-51618750D01*
X110485000Y-51181250D01*
X110486053Y-51159809D01*
X110489203Y-51138574D01*
X110494419Y-51117750D01*
X110501651Y-51097538D01*
X110510830Y-51078132D01*
X110521866Y-51059719D01*
X110534654Y-51042476D01*
X110549070Y-51026570D01*
X110564976Y-51012154D01*
X110582219Y-50999366D01*
X110600632Y-50988330D01*
X110620038Y-50979151D01*
X110640250Y-50971919D01*
X110661074Y-50966703D01*
X110682309Y-50963553D01*
X110703750Y-50962500D01*
X111216250Y-50962500D01*
X111237691Y-50963553D01*
X111237691Y-50963553D01*
G37*
D11*
X110960000Y-51400000D03*
D10*
G36*
X106727691Y-60573553D02*
G01*
X106748926Y-60576703D01*
X106769750Y-60581919D01*
X106789962Y-60589151D01*
X106809368Y-60598330D01*
X106827781Y-60609366D01*
X106845024Y-60622154D01*
X106860930Y-60636570D01*
X106875346Y-60652476D01*
X106888134Y-60669719D01*
X106899170Y-60688132D01*
X106908349Y-60707538D01*
X106915581Y-60727750D01*
X106920797Y-60748574D01*
X106923947Y-60769809D01*
X106925000Y-60791250D01*
X106925000Y-61228750D01*
X106923947Y-61250191D01*
X106920797Y-61271426D01*
X106915581Y-61292250D01*
X106908349Y-61312462D01*
X106899170Y-61331868D01*
X106888134Y-61350281D01*
X106875346Y-61367524D01*
X106860930Y-61383430D01*
X106845024Y-61397846D01*
X106827781Y-61410634D01*
X106809368Y-61421670D01*
X106789962Y-61430849D01*
X106769750Y-61438081D01*
X106748926Y-61443297D01*
X106727691Y-61446447D01*
X106706250Y-61447500D01*
X106193750Y-61447500D01*
X106172309Y-61446447D01*
X106151074Y-61443297D01*
X106130250Y-61438081D01*
X106110038Y-61430849D01*
X106090632Y-61421670D01*
X106072219Y-61410634D01*
X106054976Y-61397846D01*
X106039070Y-61383430D01*
X106024654Y-61367524D01*
X106011866Y-61350281D01*
X106000830Y-61331868D01*
X105991651Y-61312462D01*
X105984419Y-61292250D01*
X105979203Y-61271426D01*
X105976053Y-61250191D01*
X105975000Y-61228750D01*
X105975000Y-60791250D01*
X105976053Y-60769809D01*
X105979203Y-60748574D01*
X105984419Y-60727750D01*
X105991651Y-60707538D01*
X106000830Y-60688132D01*
X106011866Y-60669719D01*
X106024654Y-60652476D01*
X106039070Y-60636570D01*
X106054976Y-60622154D01*
X106072219Y-60609366D01*
X106090632Y-60598330D01*
X106110038Y-60589151D01*
X106130250Y-60581919D01*
X106151074Y-60576703D01*
X106172309Y-60573553D01*
X106193750Y-60572500D01*
X106706250Y-60572500D01*
X106727691Y-60573553D01*
X106727691Y-60573553D01*
G37*
D11*
X106450000Y-61010000D03*
D10*
G36*
X106727691Y-58998553D02*
G01*
X106748926Y-59001703D01*
X106769750Y-59006919D01*
X106789962Y-59014151D01*
X106809368Y-59023330D01*
X106827781Y-59034366D01*
X106845024Y-59047154D01*
X106860930Y-59061570D01*
X106875346Y-59077476D01*
X106888134Y-59094719D01*
X106899170Y-59113132D01*
X106908349Y-59132538D01*
X106915581Y-59152750D01*
X106920797Y-59173574D01*
X106923947Y-59194809D01*
X106925000Y-59216250D01*
X106925000Y-59653750D01*
X106923947Y-59675191D01*
X106920797Y-59696426D01*
X106915581Y-59717250D01*
X106908349Y-59737462D01*
X106899170Y-59756868D01*
X106888134Y-59775281D01*
X106875346Y-59792524D01*
X106860930Y-59808430D01*
X106845024Y-59822846D01*
X106827781Y-59835634D01*
X106809368Y-59846670D01*
X106789962Y-59855849D01*
X106769750Y-59863081D01*
X106748926Y-59868297D01*
X106727691Y-59871447D01*
X106706250Y-59872500D01*
X106193750Y-59872500D01*
X106172309Y-59871447D01*
X106151074Y-59868297D01*
X106130250Y-59863081D01*
X106110038Y-59855849D01*
X106090632Y-59846670D01*
X106072219Y-59835634D01*
X106054976Y-59822846D01*
X106039070Y-59808430D01*
X106024654Y-59792524D01*
X106011866Y-59775281D01*
X106000830Y-59756868D01*
X105991651Y-59737462D01*
X105984419Y-59717250D01*
X105979203Y-59696426D01*
X105976053Y-59675191D01*
X105975000Y-59653750D01*
X105975000Y-59216250D01*
X105976053Y-59194809D01*
X105979203Y-59173574D01*
X105984419Y-59152750D01*
X105991651Y-59132538D01*
X106000830Y-59113132D01*
X106011866Y-59094719D01*
X106024654Y-59077476D01*
X106039070Y-59061570D01*
X106054976Y-59047154D01*
X106072219Y-59034366D01*
X106090632Y-59023330D01*
X106110038Y-59014151D01*
X106130250Y-59006919D01*
X106151074Y-59001703D01*
X106172309Y-58998553D01*
X106193750Y-58997500D01*
X106706250Y-58997500D01*
X106727691Y-58998553D01*
X106727691Y-58998553D01*
G37*
D11*
X106450000Y-59435000D03*
D10*
G36*
X106765191Y-51426053D02*
G01*
X106786426Y-51429203D01*
X106807250Y-51434419D01*
X106827462Y-51441651D01*
X106846868Y-51450830D01*
X106865281Y-51461866D01*
X106882524Y-51474654D01*
X106898430Y-51489070D01*
X106912846Y-51504976D01*
X106925634Y-51522219D01*
X106936670Y-51540632D01*
X106945849Y-51560038D01*
X106953081Y-51580250D01*
X106958297Y-51601074D01*
X106961447Y-51622309D01*
X106962500Y-51643750D01*
X106962500Y-52156250D01*
X106961447Y-52177691D01*
X106958297Y-52198926D01*
X106953081Y-52219750D01*
X106945849Y-52239962D01*
X106936670Y-52259368D01*
X106925634Y-52277781D01*
X106912846Y-52295024D01*
X106898430Y-52310930D01*
X106882524Y-52325346D01*
X106865281Y-52338134D01*
X106846868Y-52349170D01*
X106827462Y-52358349D01*
X106807250Y-52365581D01*
X106786426Y-52370797D01*
X106765191Y-52373947D01*
X106743750Y-52375000D01*
X106306250Y-52375000D01*
X106284809Y-52373947D01*
X106263574Y-52370797D01*
X106242750Y-52365581D01*
X106222538Y-52358349D01*
X106203132Y-52349170D01*
X106184719Y-52338134D01*
X106167476Y-52325346D01*
X106151570Y-52310930D01*
X106137154Y-52295024D01*
X106124366Y-52277781D01*
X106113330Y-52259368D01*
X106104151Y-52239962D01*
X106096919Y-52219750D01*
X106091703Y-52198926D01*
X106088553Y-52177691D01*
X106087500Y-52156250D01*
X106087500Y-51643750D01*
X106088553Y-51622309D01*
X106091703Y-51601074D01*
X106096919Y-51580250D01*
X106104151Y-51560038D01*
X106113330Y-51540632D01*
X106124366Y-51522219D01*
X106137154Y-51504976D01*
X106151570Y-51489070D01*
X106167476Y-51474654D01*
X106184719Y-51461866D01*
X106203132Y-51450830D01*
X106222538Y-51441651D01*
X106242750Y-51434419D01*
X106263574Y-51429203D01*
X106284809Y-51426053D01*
X106306250Y-51425000D01*
X106743750Y-51425000D01*
X106765191Y-51426053D01*
X106765191Y-51426053D01*
G37*
D11*
X106525000Y-51900000D03*
D10*
G36*
X105190191Y-51426053D02*
G01*
X105211426Y-51429203D01*
X105232250Y-51434419D01*
X105252462Y-51441651D01*
X105271868Y-51450830D01*
X105290281Y-51461866D01*
X105307524Y-51474654D01*
X105323430Y-51489070D01*
X105337846Y-51504976D01*
X105350634Y-51522219D01*
X105361670Y-51540632D01*
X105370849Y-51560038D01*
X105378081Y-51580250D01*
X105383297Y-51601074D01*
X105386447Y-51622309D01*
X105387500Y-51643750D01*
X105387500Y-52156250D01*
X105386447Y-52177691D01*
X105383297Y-52198926D01*
X105378081Y-52219750D01*
X105370849Y-52239962D01*
X105361670Y-52259368D01*
X105350634Y-52277781D01*
X105337846Y-52295024D01*
X105323430Y-52310930D01*
X105307524Y-52325346D01*
X105290281Y-52338134D01*
X105271868Y-52349170D01*
X105252462Y-52358349D01*
X105232250Y-52365581D01*
X105211426Y-52370797D01*
X105190191Y-52373947D01*
X105168750Y-52375000D01*
X104731250Y-52375000D01*
X104709809Y-52373947D01*
X104688574Y-52370797D01*
X104667750Y-52365581D01*
X104647538Y-52358349D01*
X104628132Y-52349170D01*
X104609719Y-52338134D01*
X104592476Y-52325346D01*
X104576570Y-52310930D01*
X104562154Y-52295024D01*
X104549366Y-52277781D01*
X104538330Y-52259368D01*
X104529151Y-52239962D01*
X104521919Y-52219750D01*
X104516703Y-52198926D01*
X104513553Y-52177691D01*
X104512500Y-52156250D01*
X104512500Y-51643750D01*
X104513553Y-51622309D01*
X104516703Y-51601074D01*
X104521919Y-51580250D01*
X104529151Y-51560038D01*
X104538330Y-51540632D01*
X104549366Y-51522219D01*
X104562154Y-51504976D01*
X104576570Y-51489070D01*
X104592476Y-51474654D01*
X104609719Y-51461866D01*
X104628132Y-51450830D01*
X104647538Y-51441651D01*
X104667750Y-51434419D01*
X104688574Y-51429203D01*
X104709809Y-51426053D01*
X104731250Y-51425000D01*
X105168750Y-51425000D01*
X105190191Y-51426053D01*
X105190191Y-51426053D01*
G37*
D11*
X104950000Y-51900000D03*
D10*
G36*
X77439504Y-139036204D02*
G01*
X77463773Y-139039804D01*
X77487571Y-139045765D01*
X77510671Y-139054030D01*
X77532849Y-139064520D01*
X77553893Y-139077133D01*
X77573598Y-139091747D01*
X77591777Y-139108223D01*
X77608253Y-139126402D01*
X77622867Y-139146107D01*
X77635480Y-139167151D01*
X77645970Y-139189329D01*
X77654235Y-139212429D01*
X77660196Y-139236227D01*
X77663796Y-139260496D01*
X77665000Y-139285000D01*
X77665000Y-140535000D01*
X77663796Y-140559504D01*
X77660196Y-140583773D01*
X77654235Y-140607571D01*
X77645970Y-140630671D01*
X77635480Y-140652849D01*
X77622867Y-140673893D01*
X77608253Y-140693598D01*
X77591777Y-140711777D01*
X77573598Y-140728253D01*
X77553893Y-140742867D01*
X77532849Y-140755480D01*
X77510671Y-140765970D01*
X77487571Y-140774235D01*
X77463773Y-140780196D01*
X77439504Y-140783796D01*
X77415000Y-140785000D01*
X76665000Y-140785000D01*
X76640496Y-140783796D01*
X76616227Y-140780196D01*
X76592429Y-140774235D01*
X76569329Y-140765970D01*
X76547151Y-140755480D01*
X76526107Y-140742867D01*
X76506402Y-140728253D01*
X76488223Y-140711777D01*
X76471747Y-140693598D01*
X76457133Y-140673893D01*
X76444520Y-140652849D01*
X76434030Y-140630671D01*
X76425765Y-140607571D01*
X76419804Y-140583773D01*
X76416204Y-140559504D01*
X76415000Y-140535000D01*
X76415000Y-139285000D01*
X76416204Y-139260496D01*
X76419804Y-139236227D01*
X76425765Y-139212429D01*
X76434030Y-139189329D01*
X76444520Y-139167151D01*
X76457133Y-139146107D01*
X76471747Y-139126402D01*
X76488223Y-139108223D01*
X76506402Y-139091747D01*
X76526107Y-139077133D01*
X76547151Y-139064520D01*
X76569329Y-139054030D01*
X76592429Y-139045765D01*
X76616227Y-139039804D01*
X76640496Y-139036204D01*
X76665000Y-139035000D01*
X77415000Y-139035000D01*
X77439504Y-139036204D01*
X77439504Y-139036204D01*
G37*
D20*
X77040000Y-139910000D03*
D10*
G36*
X74639504Y-139036204D02*
G01*
X74663773Y-139039804D01*
X74687571Y-139045765D01*
X74710671Y-139054030D01*
X74732849Y-139064520D01*
X74753893Y-139077133D01*
X74773598Y-139091747D01*
X74791777Y-139108223D01*
X74808253Y-139126402D01*
X74822867Y-139146107D01*
X74835480Y-139167151D01*
X74845970Y-139189329D01*
X74854235Y-139212429D01*
X74860196Y-139236227D01*
X74863796Y-139260496D01*
X74865000Y-139285000D01*
X74865000Y-140535000D01*
X74863796Y-140559504D01*
X74860196Y-140583773D01*
X74854235Y-140607571D01*
X74845970Y-140630671D01*
X74835480Y-140652849D01*
X74822867Y-140673893D01*
X74808253Y-140693598D01*
X74791777Y-140711777D01*
X74773598Y-140728253D01*
X74753893Y-140742867D01*
X74732849Y-140755480D01*
X74710671Y-140765970D01*
X74687571Y-140774235D01*
X74663773Y-140780196D01*
X74639504Y-140783796D01*
X74615000Y-140785000D01*
X73865000Y-140785000D01*
X73840496Y-140783796D01*
X73816227Y-140780196D01*
X73792429Y-140774235D01*
X73769329Y-140765970D01*
X73747151Y-140755480D01*
X73726107Y-140742867D01*
X73706402Y-140728253D01*
X73688223Y-140711777D01*
X73671747Y-140693598D01*
X73657133Y-140673893D01*
X73644520Y-140652849D01*
X73634030Y-140630671D01*
X73625765Y-140607571D01*
X73619804Y-140583773D01*
X73616204Y-140559504D01*
X73615000Y-140535000D01*
X73615000Y-139285000D01*
X73616204Y-139260496D01*
X73619804Y-139236227D01*
X73625765Y-139212429D01*
X73634030Y-139189329D01*
X73644520Y-139167151D01*
X73657133Y-139146107D01*
X73671747Y-139126402D01*
X73688223Y-139108223D01*
X73706402Y-139091747D01*
X73726107Y-139077133D01*
X73747151Y-139064520D01*
X73769329Y-139054030D01*
X73792429Y-139045765D01*
X73816227Y-139039804D01*
X73840496Y-139036204D01*
X73865000Y-139035000D01*
X74615000Y-139035000D01*
X74639504Y-139036204D01*
X74639504Y-139036204D01*
G37*
D20*
X74240000Y-139910000D03*
D21*
X119647520Y-58250000D03*
X116152480Y-58250000D03*
D22*
X125200000Y-41602520D03*
X125200000Y-46997480D03*
X85200000Y-41602520D03*
X85200000Y-46997480D03*
D23*
X71600000Y-133097939D03*
X71600000Y-132447700D03*
X71600000Y-131800000D03*
X71600000Y-131152300D03*
X71600000Y-130502060D03*
D24*
X68930460Y-135099460D03*
X68930460Y-128500540D03*
D25*
X71600000Y-134997860D03*
X71600000Y-128602140D03*
D26*
X68925381Y-132998880D03*
X68925379Y-130601120D03*
D27*
X112350000Y-54400000D03*
X112350000Y-54900000D03*
X112350000Y-55400000D03*
X112350000Y-55900000D03*
X112350000Y-56400000D03*
X108050000Y-56400000D03*
X108050000Y-55900000D03*
X108050000Y-55400000D03*
X108050000Y-54900000D03*
X108050000Y-54400000D03*
M02*
