G04 #@! TF.GenerationSoftware,KiCad,Pcbnew,(5.0.2-5)-5*
G04 #@! TF.CreationDate,2019-02-16T21:29:27-08:00*
G04 #@! TF.ProjectId,DC27-badge,44433237-2d62-4616-9467-652e6b696361,rev?*
G04 #@! TF.SameCoordinates,Original*
G04 #@! TF.FileFunction,Legend,Top*
G04 #@! TF.FilePolarity,Positive*
%FSLAX46Y46*%
G04 Gerber Fmt 4.6, Leading zero omitted, Abs format (unit mm)*
G04 Created by KiCad (PCBNEW (5.0.2-5)-5) date Saturday, February 16, 2019 at 09:29:27 PM*
%MOMM*%
%LPD*%
G01*
G04 APERTURE LIST*
%ADD10C,0.200000*%
%ADD11C,0.300000*%
%ADD12C,0.120000*%
%ADD13C,0.150000*%
%ADD14C,0.127000*%
%ADD15C,0.050000*%
%ADD16C,0.100000*%
%ADD17C,0.152400*%
G04 APERTURE END LIST*
D10*
X114176190Y-140604761D02*
X114319047Y-140652380D01*
X114557142Y-140652380D01*
X114652380Y-140604761D01*
X114700000Y-140557142D01*
X114747619Y-140461904D01*
X114747619Y-140366666D01*
X114700000Y-140271428D01*
X114652380Y-140223809D01*
X114557142Y-140176190D01*
X114366666Y-140128571D01*
X114271428Y-140080952D01*
X114223809Y-140033333D01*
X114176190Y-139938095D01*
X114176190Y-139842857D01*
X114223809Y-139747619D01*
X114271428Y-139700000D01*
X114366666Y-139652380D01*
X114604761Y-139652380D01*
X114747619Y-139700000D01*
X115176190Y-140652380D02*
X115176190Y-139652380D01*
X115414285Y-139652380D01*
X115557142Y-139700000D01*
X115652380Y-139795238D01*
X115700000Y-139890476D01*
X115747619Y-140080952D01*
X115747619Y-140223809D01*
X115700000Y-140414285D01*
X115652380Y-140509523D01*
X115557142Y-140604761D01*
X115414285Y-140652380D01*
X115176190Y-140652380D01*
X116033333Y-139652380D02*
X116604761Y-139652380D01*
X116319047Y-140652380D02*
X116319047Y-139652380D01*
X116700000Y-140747619D02*
X117461904Y-140747619D01*
X117652380Y-140604761D02*
X117795238Y-140652380D01*
X118033333Y-140652380D01*
X118128571Y-140604761D01*
X118176190Y-140557142D01*
X118223809Y-140461904D01*
X118223809Y-140366666D01*
X118176190Y-140271428D01*
X118128571Y-140223809D01*
X118033333Y-140176190D01*
X117842857Y-140128571D01*
X117747619Y-140080952D01*
X117700000Y-140033333D01*
X117652380Y-139938095D01*
X117652380Y-139842857D01*
X117700000Y-139747619D01*
X117747619Y-139700000D01*
X117842857Y-139652380D01*
X118080952Y-139652380D01*
X118223809Y-139700000D01*
X118652380Y-140652380D02*
X118652380Y-139652380D01*
X119033333Y-139652380D01*
X119128571Y-139700000D01*
X119176190Y-139747619D01*
X119223809Y-139842857D01*
X119223809Y-139985714D01*
X119176190Y-140080952D01*
X119128571Y-140128571D01*
X119033333Y-140176190D01*
X118652380Y-140176190D01*
X119652380Y-140652380D02*
X119652380Y-139652380D01*
X119890476Y-140747619D02*
X120652380Y-140747619D01*
X120842857Y-140604761D02*
X120985714Y-140652380D01*
X121223809Y-140652380D01*
X121319047Y-140604761D01*
X121366666Y-140557142D01*
X121414285Y-140461904D01*
X121414285Y-140366666D01*
X121366666Y-140271428D01*
X121319047Y-140223809D01*
X121223809Y-140176190D01*
X121033333Y-140128571D01*
X120938095Y-140080952D01*
X120890476Y-140033333D01*
X120842857Y-139938095D01*
X120842857Y-139842857D01*
X120890476Y-139747619D01*
X120938095Y-139700000D01*
X121033333Y-139652380D01*
X121271428Y-139652380D01*
X121414285Y-139700000D01*
X122414285Y-140557142D02*
X122366666Y-140604761D01*
X122223809Y-140652380D01*
X122128571Y-140652380D01*
X121985714Y-140604761D01*
X121890476Y-140509523D01*
X121842857Y-140414285D01*
X121795238Y-140223809D01*
X121795238Y-140080952D01*
X121842857Y-139890476D01*
X121890476Y-139795238D01*
X121985714Y-139700000D01*
X122128571Y-139652380D01*
X122223809Y-139652380D01*
X122366666Y-139700000D01*
X122414285Y-139747619D01*
X123319047Y-140652380D02*
X122842857Y-140652380D01*
X122842857Y-139652380D01*
X123652380Y-140652380D02*
X123652380Y-139652380D01*
X124223809Y-140652380D02*
X123795238Y-140080952D01*
X124223809Y-139652380D02*
X123652380Y-140223809D01*
X82795238Y-116057142D02*
X82747619Y-116104761D01*
X82604761Y-116152380D01*
X82509523Y-116152380D01*
X82366666Y-116104761D01*
X82271428Y-116009523D01*
X82223809Y-115914285D01*
X82176190Y-115723809D01*
X82176190Y-115580952D01*
X82223809Y-115390476D01*
X82271428Y-115295238D01*
X82366666Y-115200000D01*
X82509523Y-115152380D01*
X82604761Y-115152380D01*
X82747619Y-115200000D01*
X82795238Y-115247619D01*
X83223809Y-116152380D02*
X83223809Y-115152380D01*
X83223809Y-115628571D02*
X83795238Y-115628571D01*
X83795238Y-116152380D02*
X83795238Y-115152380D01*
X84223809Y-115866666D02*
X84700000Y-115866666D01*
X84128571Y-116152380D02*
X84461904Y-115152380D01*
X84795238Y-116152380D01*
X85700000Y-116152380D02*
X85366666Y-115676190D01*
X85128571Y-116152380D02*
X85128571Y-115152380D01*
X85509523Y-115152380D01*
X85604761Y-115200000D01*
X85652380Y-115247619D01*
X85700000Y-115342857D01*
X85700000Y-115485714D01*
X85652380Y-115580952D01*
X85604761Y-115628571D01*
X85509523Y-115676190D01*
X85128571Y-115676190D01*
X86652380Y-115200000D02*
X86557142Y-115152380D01*
X86414285Y-115152380D01*
X86271428Y-115200000D01*
X86176190Y-115295238D01*
X86128571Y-115390476D01*
X86080952Y-115580952D01*
X86080952Y-115723809D01*
X86128571Y-115914285D01*
X86176190Y-116009523D01*
X86271428Y-116104761D01*
X86414285Y-116152380D01*
X86509523Y-116152380D01*
X86652380Y-116104761D01*
X86700000Y-116057142D01*
X86700000Y-115723809D01*
X86509523Y-115723809D01*
X87128571Y-116152380D02*
X87128571Y-115152380D01*
X87604761Y-116152380D02*
X87604761Y-115152380D01*
X88176190Y-116152380D01*
X88176190Y-115152380D01*
X89176190Y-115200000D02*
X89080952Y-115152380D01*
X88938095Y-115152380D01*
X88795238Y-115200000D01*
X88700000Y-115295238D01*
X88652380Y-115390476D01*
X88604761Y-115580952D01*
X88604761Y-115723809D01*
X88652380Y-115914285D01*
X88700000Y-116009523D01*
X88795238Y-116104761D01*
X88938095Y-116152380D01*
X89033333Y-116152380D01*
X89176190Y-116104761D01*
X89223809Y-116057142D01*
X89223809Y-115723809D01*
X89033333Y-115723809D01*
X82804761Y-110457142D02*
X82757142Y-110504761D01*
X82614285Y-110552380D01*
X82519047Y-110552380D01*
X82376190Y-110504761D01*
X82280952Y-110409523D01*
X82233333Y-110314285D01*
X82185714Y-110123809D01*
X82185714Y-109980952D01*
X82233333Y-109790476D01*
X82280952Y-109695238D01*
X82376190Y-109600000D01*
X82519047Y-109552380D01*
X82614285Y-109552380D01*
X82757142Y-109600000D01*
X82804761Y-109647619D01*
X83233333Y-110552380D02*
X83233333Y-109552380D01*
X83233333Y-110028571D02*
X83804761Y-110028571D01*
X83804761Y-110552380D02*
X83804761Y-109552380D01*
X84804761Y-109600000D02*
X84709523Y-109552380D01*
X84566666Y-109552380D01*
X84423809Y-109600000D01*
X84328571Y-109695238D01*
X84280952Y-109790476D01*
X84233333Y-109980952D01*
X84233333Y-110123809D01*
X84280952Y-110314285D01*
X84328571Y-110409523D01*
X84423809Y-110504761D01*
X84566666Y-110552380D01*
X84661904Y-110552380D01*
X84804761Y-110504761D01*
X84852380Y-110457142D01*
X84852380Y-110123809D01*
X84661904Y-110123809D01*
X86042857Y-110552380D02*
X86042857Y-109552380D01*
X86280952Y-109552380D01*
X86423809Y-109600000D01*
X86519047Y-109695238D01*
X86566666Y-109790476D01*
X86614285Y-109980952D01*
X86614285Y-110123809D01*
X86566666Y-110314285D01*
X86519047Y-110409523D01*
X86423809Y-110504761D01*
X86280952Y-110552380D01*
X86042857Y-110552380D01*
X87233333Y-109552380D02*
X87423809Y-109552380D01*
X87519047Y-109600000D01*
X87614285Y-109695238D01*
X87661904Y-109885714D01*
X87661904Y-110219047D01*
X87614285Y-110409523D01*
X87519047Y-110504761D01*
X87423809Y-110552380D01*
X87233333Y-110552380D01*
X87138095Y-110504761D01*
X87042857Y-110409523D01*
X86995238Y-110219047D01*
X86995238Y-109885714D01*
X87042857Y-109695238D01*
X87138095Y-109600000D01*
X87233333Y-109552380D01*
X88090476Y-110552380D02*
X88090476Y-109552380D01*
X88661904Y-110552380D01*
X88661904Y-109552380D01*
X89138095Y-110028571D02*
X89471428Y-110028571D01*
X89614285Y-110552380D02*
X89138095Y-110552380D01*
X89138095Y-109552380D01*
X89614285Y-109552380D01*
X116561904Y-150652380D02*
X116561904Y-149652380D01*
X116800000Y-149652380D01*
X116942857Y-149700000D01*
X117038095Y-149795238D01*
X117085714Y-149890476D01*
X117133333Y-150080952D01*
X117133333Y-150223809D01*
X117085714Y-150414285D01*
X117038095Y-150509523D01*
X116942857Y-150604761D01*
X116800000Y-150652380D01*
X116561904Y-150652380D01*
X117561904Y-150652380D02*
X117561904Y-149652380D01*
X117990476Y-150604761D02*
X118133333Y-150652380D01*
X118371428Y-150652380D01*
X118466666Y-150604761D01*
X118514285Y-150557142D01*
X118561904Y-150461904D01*
X118561904Y-150366666D01*
X118514285Y-150271428D01*
X118466666Y-150223809D01*
X118371428Y-150176190D01*
X118180952Y-150128571D01*
X118085714Y-150080952D01*
X118038095Y-150033333D01*
X117990476Y-149938095D01*
X117990476Y-149842857D01*
X118038095Y-149747619D01*
X118085714Y-149700000D01*
X118180952Y-149652380D01*
X118419047Y-149652380D01*
X118561904Y-149700000D01*
X118990476Y-150652380D02*
X118990476Y-149652380D01*
X119371428Y-149652380D01*
X119466666Y-149700000D01*
X119514285Y-149747619D01*
X119561904Y-149842857D01*
X119561904Y-149985714D01*
X119514285Y-150080952D01*
X119466666Y-150128571D01*
X119371428Y-150176190D01*
X118990476Y-150176190D01*
X119752380Y-150747619D02*
X120514285Y-150747619D01*
X120704761Y-150604761D02*
X120847619Y-150652380D01*
X121085714Y-150652380D01*
X121180952Y-150604761D01*
X121228571Y-150557142D01*
X121276190Y-150461904D01*
X121276190Y-150366666D01*
X121228571Y-150271428D01*
X121180952Y-150223809D01*
X121085714Y-150176190D01*
X120895238Y-150128571D01*
X120800000Y-150080952D01*
X120752380Y-150033333D01*
X120704761Y-149938095D01*
X120704761Y-149842857D01*
X120752380Y-149747619D01*
X120800000Y-149700000D01*
X120895238Y-149652380D01*
X121133333Y-149652380D01*
X121276190Y-149700000D01*
X122276190Y-150557142D02*
X122228571Y-150604761D01*
X122085714Y-150652380D01*
X121990476Y-150652380D01*
X121847619Y-150604761D01*
X121752380Y-150509523D01*
X121704761Y-150414285D01*
X121657142Y-150223809D01*
X121657142Y-150080952D01*
X121704761Y-149890476D01*
X121752380Y-149795238D01*
X121847619Y-149700000D01*
X121990476Y-149652380D01*
X122085714Y-149652380D01*
X122228571Y-149700000D01*
X122276190Y-149747619D01*
X123180952Y-150652380D02*
X122704761Y-150652380D01*
X122704761Y-149652380D01*
X123514285Y-150652380D02*
X123514285Y-149652380D01*
X124085714Y-150652380D02*
X123657142Y-150080952D01*
X124085714Y-149652380D02*
X123514285Y-150223809D01*
X116633333Y-147452380D02*
X116633333Y-146452380D01*
X116871428Y-146452380D01*
X117014285Y-146500000D01*
X117109523Y-146595238D01*
X117157142Y-146690476D01*
X117204761Y-146880952D01*
X117204761Y-147023809D01*
X117157142Y-147214285D01*
X117109523Y-147309523D01*
X117014285Y-147404761D01*
X116871428Y-147452380D01*
X116633333Y-147452380D01*
X117633333Y-147452380D02*
X117633333Y-146452380D01*
X118061904Y-147404761D02*
X118204761Y-147452380D01*
X118442857Y-147452380D01*
X118538095Y-147404761D01*
X118585714Y-147357142D01*
X118633333Y-147261904D01*
X118633333Y-147166666D01*
X118585714Y-147071428D01*
X118538095Y-147023809D01*
X118442857Y-146976190D01*
X118252380Y-146928571D01*
X118157142Y-146880952D01*
X118109523Y-146833333D01*
X118061904Y-146738095D01*
X118061904Y-146642857D01*
X118109523Y-146547619D01*
X118157142Y-146500000D01*
X118252380Y-146452380D01*
X118490476Y-146452380D01*
X118633333Y-146500000D01*
X119061904Y-147452380D02*
X119061904Y-146452380D01*
X119442857Y-146452380D01*
X119538095Y-146500000D01*
X119585714Y-146547619D01*
X119633333Y-146642857D01*
X119633333Y-146785714D01*
X119585714Y-146880952D01*
X119538095Y-146928571D01*
X119442857Y-146976190D01*
X119061904Y-146976190D01*
X119823809Y-147547619D02*
X120585714Y-147547619D01*
X120823809Y-147452380D02*
X120823809Y-146452380D01*
X121157142Y-147166666D01*
X121490476Y-146452380D01*
X121490476Y-147452380D01*
X121966666Y-147452380D02*
X121966666Y-146452380D01*
X122395238Y-147404761D02*
X122538095Y-147452380D01*
X122776190Y-147452380D01*
X122871428Y-147404761D01*
X122919047Y-147357142D01*
X122966666Y-147261904D01*
X122966666Y-147166666D01*
X122919047Y-147071428D01*
X122871428Y-147023809D01*
X122776190Y-146976190D01*
X122585714Y-146928571D01*
X122490476Y-146880952D01*
X122442857Y-146833333D01*
X122395238Y-146738095D01*
X122395238Y-146642857D01*
X122442857Y-146547619D01*
X122490476Y-146500000D01*
X122585714Y-146452380D01*
X122823809Y-146452380D01*
X122966666Y-146500000D01*
X123585714Y-146452380D02*
X123776190Y-146452380D01*
X123871428Y-146500000D01*
X123966666Y-146595238D01*
X124014285Y-146785714D01*
X124014285Y-147119047D01*
X123966666Y-147309523D01*
X123871428Y-147404761D01*
X123776190Y-147452380D01*
X123585714Y-147452380D01*
X123490476Y-147404761D01*
X123395238Y-147309523D01*
X123347619Y-147119047D01*
X123347619Y-146785714D01*
X123395238Y-146595238D01*
X123490476Y-146500000D01*
X123585714Y-146452380D01*
X116433333Y-144252380D02*
X116433333Y-143252380D01*
X116671428Y-143252380D01*
X116814285Y-143300000D01*
X116909523Y-143395238D01*
X116957142Y-143490476D01*
X117004761Y-143680952D01*
X117004761Y-143823809D01*
X116957142Y-144014285D01*
X116909523Y-144109523D01*
X116814285Y-144204761D01*
X116671428Y-144252380D01*
X116433333Y-144252380D01*
X117433333Y-144252380D02*
X117433333Y-143252380D01*
X117861904Y-144204761D02*
X118004761Y-144252380D01*
X118242857Y-144252380D01*
X118338095Y-144204761D01*
X118385714Y-144157142D01*
X118433333Y-144061904D01*
X118433333Y-143966666D01*
X118385714Y-143871428D01*
X118338095Y-143823809D01*
X118242857Y-143776190D01*
X118052380Y-143728571D01*
X117957142Y-143680952D01*
X117909523Y-143633333D01*
X117861904Y-143538095D01*
X117861904Y-143442857D01*
X117909523Y-143347619D01*
X117957142Y-143300000D01*
X118052380Y-143252380D01*
X118290476Y-143252380D01*
X118433333Y-143300000D01*
X118861904Y-144252380D02*
X118861904Y-143252380D01*
X119242857Y-143252380D01*
X119338095Y-143300000D01*
X119385714Y-143347619D01*
X119433333Y-143442857D01*
X119433333Y-143585714D01*
X119385714Y-143680952D01*
X119338095Y-143728571D01*
X119242857Y-143776190D01*
X118861904Y-143776190D01*
X119623809Y-144347619D02*
X120385714Y-144347619D01*
X120623809Y-144252380D02*
X120623809Y-143252380D01*
X120957142Y-143966666D01*
X121290476Y-143252380D01*
X121290476Y-144252380D01*
X121957142Y-143252380D02*
X122147619Y-143252380D01*
X122242857Y-143300000D01*
X122338095Y-143395238D01*
X122385714Y-143585714D01*
X122385714Y-143919047D01*
X122338095Y-144109523D01*
X122242857Y-144204761D01*
X122147619Y-144252380D01*
X121957142Y-144252380D01*
X121861904Y-144204761D01*
X121766666Y-144109523D01*
X121719047Y-143919047D01*
X121719047Y-143585714D01*
X121766666Y-143395238D01*
X121861904Y-143300000D01*
X121957142Y-143252380D01*
X122766666Y-144204761D02*
X122909523Y-144252380D01*
X123147619Y-144252380D01*
X123242857Y-144204761D01*
X123290476Y-144157142D01*
X123338095Y-144061904D01*
X123338095Y-143966666D01*
X123290476Y-143871428D01*
X123242857Y-143823809D01*
X123147619Y-143776190D01*
X122957142Y-143728571D01*
X122861904Y-143680952D01*
X122814285Y-143633333D01*
X122766666Y-143538095D01*
X122766666Y-143442857D01*
X122814285Y-143347619D01*
X122861904Y-143300000D01*
X122957142Y-143252380D01*
X123195238Y-143252380D01*
X123338095Y-143300000D01*
X123766666Y-144252380D02*
X123766666Y-143252380D01*
X114347619Y-137304761D02*
X114490476Y-137352380D01*
X114728571Y-137352380D01*
X114823809Y-137304761D01*
X114871428Y-137257142D01*
X114919047Y-137161904D01*
X114919047Y-137066666D01*
X114871428Y-136971428D01*
X114823809Y-136923809D01*
X114728571Y-136876190D01*
X114538095Y-136828571D01*
X114442857Y-136780952D01*
X114395238Y-136733333D01*
X114347619Y-136638095D01*
X114347619Y-136542857D01*
X114395238Y-136447619D01*
X114442857Y-136400000D01*
X114538095Y-136352380D01*
X114776190Y-136352380D01*
X114919047Y-136400000D01*
X115347619Y-137352380D02*
X115347619Y-136352380D01*
X115585714Y-136352380D01*
X115728571Y-136400000D01*
X115823809Y-136495238D01*
X115871428Y-136590476D01*
X115919047Y-136780952D01*
X115919047Y-136923809D01*
X115871428Y-137114285D01*
X115823809Y-137209523D01*
X115728571Y-137304761D01*
X115585714Y-137352380D01*
X115347619Y-137352380D01*
X116204761Y-136352380D02*
X116776190Y-136352380D01*
X116490476Y-137352380D02*
X116490476Y-136352380D01*
X116871428Y-137447619D02*
X117633333Y-137447619D01*
X117823809Y-137304761D02*
X117966666Y-137352380D01*
X118204761Y-137352380D01*
X118300000Y-137304761D01*
X118347619Y-137257142D01*
X118395238Y-137161904D01*
X118395238Y-137066666D01*
X118347619Y-136971428D01*
X118300000Y-136923809D01*
X118204761Y-136876190D01*
X118014285Y-136828571D01*
X117919047Y-136780952D01*
X117871428Y-136733333D01*
X117823809Y-136638095D01*
X117823809Y-136542857D01*
X117871428Y-136447619D01*
X117919047Y-136400000D01*
X118014285Y-136352380D01*
X118252380Y-136352380D01*
X118395238Y-136400000D01*
X118823809Y-137352380D02*
X118823809Y-136352380D01*
X119204761Y-136352380D01*
X119300000Y-136400000D01*
X119347619Y-136447619D01*
X119395238Y-136542857D01*
X119395238Y-136685714D01*
X119347619Y-136780952D01*
X119300000Y-136828571D01*
X119204761Y-136876190D01*
X118823809Y-136876190D01*
X119823809Y-137352380D02*
X119823809Y-136352380D01*
X120061904Y-137447619D02*
X120823809Y-137447619D01*
X121061904Y-137352380D02*
X121061904Y-136352380D01*
X121395238Y-137066666D01*
X121728571Y-136352380D01*
X121728571Y-137352380D01*
X122204761Y-137352380D02*
X122204761Y-136352380D01*
X122633333Y-137304761D02*
X122776190Y-137352380D01*
X123014285Y-137352380D01*
X123109523Y-137304761D01*
X123157142Y-137257142D01*
X123204761Y-137161904D01*
X123204761Y-137066666D01*
X123157142Y-136971428D01*
X123109523Y-136923809D01*
X123014285Y-136876190D01*
X122823809Y-136828571D01*
X122728571Y-136780952D01*
X122680952Y-136733333D01*
X122633333Y-136638095D01*
X122633333Y-136542857D01*
X122680952Y-136447619D01*
X122728571Y-136400000D01*
X122823809Y-136352380D01*
X123061904Y-136352380D01*
X123204761Y-136400000D01*
X123823809Y-136352380D02*
X124014285Y-136352380D01*
X124109523Y-136400000D01*
X124204761Y-136495238D01*
X124252380Y-136685714D01*
X124252380Y-137019047D01*
X124204761Y-137209523D01*
X124109523Y-137304761D01*
X124014285Y-137352380D01*
X123823809Y-137352380D01*
X123728571Y-137304761D01*
X123633333Y-137209523D01*
X123585714Y-137019047D01*
X123585714Y-136685714D01*
X123633333Y-136495238D01*
X123728571Y-136400000D01*
X123823809Y-136352380D01*
X114247619Y-134104761D02*
X114390476Y-134152380D01*
X114628571Y-134152380D01*
X114723809Y-134104761D01*
X114771428Y-134057142D01*
X114819047Y-133961904D01*
X114819047Y-133866666D01*
X114771428Y-133771428D01*
X114723809Y-133723809D01*
X114628571Y-133676190D01*
X114438095Y-133628571D01*
X114342857Y-133580952D01*
X114295238Y-133533333D01*
X114247619Y-133438095D01*
X114247619Y-133342857D01*
X114295238Y-133247619D01*
X114342857Y-133200000D01*
X114438095Y-133152380D01*
X114676190Y-133152380D01*
X114819047Y-133200000D01*
X115247619Y-134152380D02*
X115247619Y-133152380D01*
X115485714Y-133152380D01*
X115628571Y-133200000D01*
X115723809Y-133295238D01*
X115771428Y-133390476D01*
X115819047Y-133580952D01*
X115819047Y-133723809D01*
X115771428Y-133914285D01*
X115723809Y-134009523D01*
X115628571Y-134104761D01*
X115485714Y-134152380D01*
X115247619Y-134152380D01*
X116104761Y-133152380D02*
X116676190Y-133152380D01*
X116390476Y-134152380D02*
X116390476Y-133152380D01*
X116771428Y-134247619D02*
X117533333Y-134247619D01*
X117723809Y-134104761D02*
X117866666Y-134152380D01*
X118104761Y-134152380D01*
X118200000Y-134104761D01*
X118247619Y-134057142D01*
X118295238Y-133961904D01*
X118295238Y-133866666D01*
X118247619Y-133771428D01*
X118200000Y-133723809D01*
X118104761Y-133676190D01*
X117914285Y-133628571D01*
X117819047Y-133580952D01*
X117771428Y-133533333D01*
X117723809Y-133438095D01*
X117723809Y-133342857D01*
X117771428Y-133247619D01*
X117819047Y-133200000D01*
X117914285Y-133152380D01*
X118152380Y-133152380D01*
X118295238Y-133200000D01*
X118723809Y-134152380D02*
X118723809Y-133152380D01*
X119104761Y-133152380D01*
X119200000Y-133200000D01*
X119247619Y-133247619D01*
X119295238Y-133342857D01*
X119295238Y-133485714D01*
X119247619Y-133580952D01*
X119200000Y-133628571D01*
X119104761Y-133676190D01*
X118723809Y-133676190D01*
X119723809Y-134152380D02*
X119723809Y-133152380D01*
X119961904Y-134247619D02*
X120723809Y-134247619D01*
X120961904Y-134152380D02*
X120961904Y-133152380D01*
X121295238Y-133866666D01*
X121628571Y-133152380D01*
X121628571Y-134152380D01*
X122295238Y-133152380D02*
X122485714Y-133152380D01*
X122580952Y-133200000D01*
X122676190Y-133295238D01*
X122723809Y-133485714D01*
X122723809Y-133819047D01*
X122676190Y-134009523D01*
X122580952Y-134104761D01*
X122485714Y-134152380D01*
X122295238Y-134152380D01*
X122200000Y-134104761D01*
X122104761Y-134009523D01*
X122057142Y-133819047D01*
X122057142Y-133485714D01*
X122104761Y-133295238D01*
X122200000Y-133200000D01*
X122295238Y-133152380D01*
X123104761Y-134104761D02*
X123247619Y-134152380D01*
X123485714Y-134152380D01*
X123580952Y-134104761D01*
X123628571Y-134057142D01*
X123676190Y-133961904D01*
X123676190Y-133866666D01*
X123628571Y-133771428D01*
X123580952Y-133723809D01*
X123485714Y-133676190D01*
X123295238Y-133628571D01*
X123200000Y-133580952D01*
X123152380Y-133533333D01*
X123104761Y-133438095D01*
X123104761Y-133342857D01*
X123152380Y-133247619D01*
X123200000Y-133200000D01*
X123295238Y-133152380D01*
X123533333Y-133152380D01*
X123676190Y-133200000D01*
X124104761Y-134152380D02*
X124104761Y-133152380D01*
X73871428Y-113352380D02*
X74490476Y-113352380D01*
X74157142Y-113733333D01*
X74300000Y-113733333D01*
X74395238Y-113780952D01*
X74442857Y-113828571D01*
X74490476Y-113923809D01*
X74490476Y-114161904D01*
X74442857Y-114257142D01*
X74395238Y-114304761D01*
X74300000Y-114352380D01*
X74014285Y-114352380D01*
X73919047Y-114304761D01*
X73871428Y-114257142D01*
X74919047Y-114257142D02*
X74966666Y-114304761D01*
X74919047Y-114352380D01*
X74871428Y-114304761D01*
X74919047Y-114257142D01*
X74919047Y-114352380D01*
X75300000Y-113352380D02*
X75919047Y-113352380D01*
X75585714Y-113733333D01*
X75728571Y-113733333D01*
X75823809Y-113780952D01*
X75871428Y-113828571D01*
X75919047Y-113923809D01*
X75919047Y-114161904D01*
X75871428Y-114257142D01*
X75823809Y-114304761D01*
X75728571Y-114352380D01*
X75442857Y-114352380D01*
X75347619Y-114304761D01*
X75300000Y-114257142D01*
X76252380Y-113685714D02*
X76490476Y-114352380D01*
X76728571Y-113685714D01*
X95500000Y-149171428D02*
X96261904Y-149171428D01*
X95880952Y-149552380D02*
X95880952Y-148790476D01*
X96595238Y-148552380D02*
X96928571Y-149552380D01*
X97261904Y-148552380D01*
X97928571Y-149028571D02*
X98071428Y-149076190D01*
X98119047Y-149123809D01*
X98166666Y-149219047D01*
X98166666Y-149361904D01*
X98119047Y-149457142D01*
X98071428Y-149504761D01*
X97976190Y-149552380D01*
X97595238Y-149552380D01*
X97595238Y-148552380D01*
X97928571Y-148552380D01*
X98023809Y-148600000D01*
X98071428Y-148647619D01*
X98119047Y-148742857D01*
X98119047Y-148838095D01*
X98071428Y-148933333D01*
X98023809Y-148980952D01*
X97928571Y-149028571D01*
X97595238Y-149028571D01*
X98547619Y-149266666D02*
X99023809Y-149266666D01*
X98452380Y-149552380D02*
X98785714Y-148552380D01*
X99119047Y-149552380D01*
X99309523Y-148552380D02*
X99880952Y-148552380D01*
X99595238Y-149552380D02*
X99595238Y-148552380D01*
X100071428Y-148552380D02*
X100642857Y-148552380D01*
X100357142Y-149552380D02*
X100357142Y-148552380D01*
X74638095Y-117400000D02*
X74542857Y-117352380D01*
X74400000Y-117352380D01*
X74257142Y-117400000D01*
X74161904Y-117495238D01*
X74114285Y-117590476D01*
X74066666Y-117780952D01*
X74066666Y-117923809D01*
X74114285Y-118114285D01*
X74161904Y-118209523D01*
X74257142Y-118304761D01*
X74400000Y-118352380D01*
X74495238Y-118352380D01*
X74638095Y-118304761D01*
X74685714Y-118257142D01*
X74685714Y-117923809D01*
X74495238Y-117923809D01*
X75114285Y-118352380D02*
X75114285Y-117352380D01*
X75685714Y-118352380D01*
X75685714Y-117352380D01*
X76161904Y-118352380D02*
X76161904Y-117352380D01*
X76400000Y-117352380D01*
X76542857Y-117400000D01*
X76638095Y-117495238D01*
X76685714Y-117590476D01*
X76733333Y-117780952D01*
X76733333Y-117923809D01*
X76685714Y-118114285D01*
X76638095Y-118209523D01*
X76542857Y-118304761D01*
X76400000Y-118352380D01*
X76161904Y-118352380D01*
D11*
X86872142Y-54297142D02*
X86943571Y-54082857D01*
X86943571Y-53725714D01*
X86872142Y-53582857D01*
X86800714Y-53511428D01*
X86657857Y-53440000D01*
X86515000Y-53440000D01*
X86372142Y-53511428D01*
X86300714Y-53582857D01*
X86229285Y-53725714D01*
X86157857Y-54011428D01*
X86086428Y-54154285D01*
X86015000Y-54225714D01*
X85872142Y-54297142D01*
X85729285Y-54297142D01*
X85586428Y-54225714D01*
X85515000Y-54154285D01*
X85443571Y-54011428D01*
X85443571Y-53654285D01*
X85515000Y-53440000D01*
X86943571Y-52797142D02*
X85443571Y-52797142D01*
X85443571Y-52225714D01*
X85515000Y-52082857D01*
X85586428Y-52011428D01*
X85729285Y-51940000D01*
X85943571Y-51940000D01*
X86086428Y-52011428D01*
X86157857Y-52082857D01*
X86229285Y-52225714D01*
X86229285Y-52797142D01*
X86943571Y-51297142D02*
X85443571Y-51297142D01*
X86943571Y-50440000D02*
X86086428Y-51082857D01*
X85443571Y-50440000D02*
X86300714Y-51297142D01*
X86943571Y-47940000D02*
X86943571Y-48654285D01*
X85443571Y-48654285D01*
X124652857Y-47960000D02*
X124581428Y-48174285D01*
X124581428Y-48531428D01*
X124652857Y-48674285D01*
X124724285Y-48745714D01*
X124867142Y-48817142D01*
X125010000Y-48817142D01*
X125152857Y-48745714D01*
X125224285Y-48674285D01*
X125295714Y-48531428D01*
X125367142Y-48245714D01*
X125438571Y-48102857D01*
X125510000Y-48031428D01*
X125652857Y-47960000D01*
X125795714Y-47960000D01*
X125938571Y-48031428D01*
X126010000Y-48102857D01*
X126081428Y-48245714D01*
X126081428Y-48602857D01*
X126010000Y-48817142D01*
X124581428Y-49460000D02*
X126081428Y-49460000D01*
X126081428Y-50031428D01*
X126010000Y-50174285D01*
X125938571Y-50245714D01*
X125795714Y-50317142D01*
X125581428Y-50317142D01*
X125438571Y-50245714D01*
X125367142Y-50174285D01*
X125295714Y-50031428D01*
X125295714Y-49460000D01*
X124581428Y-50960000D02*
X126081428Y-50960000D01*
X124581428Y-51817142D02*
X125438571Y-51174285D01*
X126081428Y-51817142D02*
X125224285Y-50960000D01*
X124581428Y-54460000D02*
X125295714Y-53960000D01*
X124581428Y-53602857D02*
X126081428Y-53602857D01*
X126081428Y-54174285D01*
X126010000Y-54317142D01*
X125938571Y-54388571D01*
X125795714Y-54460000D01*
X125581428Y-54460000D01*
X125438571Y-54388571D01*
X125367142Y-54317142D01*
X125295714Y-54174285D01*
X125295714Y-53602857D01*
D10*
X79202500Y-41216000D02*
X93202500Y-41216000D01*
X93202500Y-41216000D02*
X93202500Y-61216000D01*
X93202500Y-61216000D02*
X79202500Y-61216000D01*
X79202500Y-61216000D02*
X79202500Y-41216000D01*
X131597500Y-41184000D02*
X131597500Y-61184000D01*
X117597500Y-41184000D02*
X131597500Y-41184000D01*
X117597500Y-61184000D02*
X117597500Y-41184000D01*
X131597500Y-61184000D02*
X117597500Y-61184000D01*
D12*
G04 #@! TO.C,TP104*
X127200000Y-150200000D02*
G75*
G03X127200000Y-150200000I-1200000J0D01*
G01*
G04 #@! TO.C,C403*
X90402064Y-172010000D02*
X89197936Y-172010000D01*
X90402064Y-170190000D02*
X89197936Y-170190000D01*
D13*
G04 #@! TO.C,U403*
X91015000Y-168175000D02*
X91015000Y-167025000D01*
X87765000Y-168950000D02*
X87765000Y-167025000D01*
D14*
G04 #@! TO.C,U100*
X121800000Y-111800000D02*
X121800000Y-101600000D01*
X121800000Y-111800000D02*
X132100000Y-111800000D01*
X132100000Y-101600000D02*
X121800000Y-101600000D01*
D10*
X132250000Y-101200000D02*
G75*
G03X132250000Y-101200000I-100000J0D01*
G01*
G04 #@! TO.C,J104*
X79480000Y-122212990D02*
X79480000Y-130987010D01*
X79480000Y-130987010D02*
X131180000Y-130987010D01*
X131180000Y-130987010D02*
X131180000Y-122212990D01*
X131180000Y-122212990D02*
X79480000Y-122212990D01*
D12*
G04 #@! TO.C,U402*
X83490000Y-137590000D02*
X83490000Y-138850000D01*
X83490000Y-144410000D02*
X83490000Y-143150000D01*
X87250000Y-137590000D02*
X83490000Y-137590000D01*
X89500000Y-144410000D02*
X83490000Y-144410000D01*
D14*
G04 #@! TO.C,SW102*
X98615560Y-72005000D02*
X99613780Y-71606220D01*
X100413880Y-72005000D02*
X99814440Y-72005000D01*
X98016120Y-72005000D02*
X98615560Y-72005000D01*
X98016120Y-72005000D02*
X98016120Y-73203880D01*
X98016120Y-70806120D02*
X98016120Y-72005000D01*
X100413880Y-72005000D02*
X100413880Y-73203880D01*
X100413880Y-70806120D02*
X100413880Y-72005000D01*
X97617340Y-69205920D02*
X100812660Y-69205920D01*
X97617340Y-74804080D02*
X97617340Y-69205920D01*
X100812660Y-74804080D02*
X97617340Y-74804080D01*
X100812660Y-69205920D02*
X100812660Y-74804080D01*
D12*
G04 #@! TO.C,J102*
X142530000Y-186500000D02*
X142530000Y-187860000D01*
X138470000Y-181300000D02*
X137900000Y-181300000D01*
X141010000Y-181300000D02*
X139990000Y-181300000D01*
X143100000Y-181300000D02*
X142530000Y-181300000D01*
X137900000Y-181300000D02*
X137900000Y-186500000D01*
X138470000Y-186500000D02*
X137900000Y-186500000D01*
X141010000Y-186500000D02*
X139990000Y-186500000D01*
X143100000Y-186500000D02*
X142530000Y-186500000D01*
X143100000Y-181300000D02*
X143100000Y-186500000D01*
G04 #@! TO.C,J103*
X72700000Y-181300000D02*
X72700000Y-186500000D01*
X72700000Y-186500000D02*
X72130000Y-186500000D01*
X70610000Y-186500000D02*
X69590000Y-186500000D01*
X68070000Y-186500000D02*
X67500000Y-186500000D01*
X67500000Y-181300000D02*
X67500000Y-186500000D01*
X72700000Y-181300000D02*
X72130000Y-181300000D01*
X70610000Y-181300000D02*
X69590000Y-181300000D01*
X68070000Y-181300000D02*
X67500000Y-181300000D01*
X72130000Y-186500000D02*
X72130000Y-187860000D01*
G04 #@! TO.C,TP106*
X127200000Y-143800000D02*
G75*
G03X127200000Y-143800000I-1200000J0D01*
G01*
G04 #@! TO.C,TP105*
X127200000Y-147000000D02*
G75*
G03X127200000Y-147000000I-1200000J0D01*
G01*
G04 #@! TO.C,TP103*
X127200000Y-140100000D02*
G75*
G03X127200000Y-140100000I-1200000J0D01*
G01*
G04 #@! TO.C,TP102*
X127200000Y-136900000D02*
G75*
G03X127200000Y-136900000I-1200000J0D01*
G01*
G04 #@! TO.C,TP101*
X127200000Y-133600000D02*
G75*
G03X127200000Y-133600000I-1200000J0D01*
G01*
G04 #@! TO.C,Y101*
X117550000Y-97550000D02*
X115050000Y-97550000D01*
X117550000Y-95250000D02*
X115050000Y-95250000D01*
X119250000Y-97500000D02*
X119250000Y-95300000D01*
G04 #@! TO.C,R103*
X84024721Y-95710000D02*
X84350279Y-95710000D01*
X84024721Y-94690000D02*
X84350279Y-94690000D01*
G04 #@! TO.C,R102*
X87649721Y-94690000D02*
X87975279Y-94690000D01*
X87649721Y-95710000D02*
X87975279Y-95710000D01*
G04 #@! TO.C,J101*
X79685000Y-99515000D02*
X83215000Y-99515000D01*
X79685000Y-105985000D02*
X83215000Y-105985000D01*
X78360000Y-99580000D02*
X79685000Y-99580000D01*
X79685000Y-99515000D02*
X79685000Y-99580000D01*
X83215000Y-99515000D02*
X83215000Y-99580000D01*
X79685000Y-105920000D02*
X79685000Y-105985000D01*
X83215000Y-105920000D02*
X83215000Y-105985000D01*
G04 #@! TO.C,U601*
X104810000Y-104285000D02*
X104810000Y-105010000D01*
X104810000Y-105010000D02*
X104085000Y-105010000D01*
X99590000Y-100515000D02*
X99590000Y-99790000D01*
X99590000Y-99790000D02*
X100315000Y-99790000D01*
X99590000Y-104285000D02*
X99590000Y-105010000D01*
X99590000Y-105010000D02*
X100315000Y-105010000D01*
X104810000Y-100515000D02*
X104810000Y-99790000D01*
G04 #@! TO.C,C301*
X108362779Y-194710000D02*
X108037221Y-194710000D01*
X108362779Y-193690000D02*
X108037221Y-193690000D01*
G04 #@! TO.C,C302*
X108375279Y-191090000D02*
X108049721Y-191090000D01*
X108375279Y-192110000D02*
X108049721Y-192110000D01*
G04 #@! TO.C,C303*
X110490000Y-190962779D02*
X110490000Y-190637221D01*
X111510000Y-190962779D02*
X111510000Y-190637221D01*
G04 #@! TO.C,C304*
X110490000Y-187437221D02*
X110490000Y-187762779D01*
X111510000Y-187437221D02*
X111510000Y-187762779D01*
G04 #@! TO.C,C305*
X102407221Y-196500000D02*
X102732779Y-196500000D01*
X102407221Y-197520000D02*
X102732779Y-197520000D01*
G04 #@! TO.C,C306*
X102407221Y-200570000D02*
X102732779Y-200570000D01*
X102407221Y-199550000D02*
X102732779Y-199550000D01*
G04 #@! TO.C,C309*
X110110000Y-202437221D02*
X110110000Y-202762779D01*
X109090000Y-202437221D02*
X109090000Y-202762779D01*
G04 #@! TO.C,C602*
X92517221Y-80590000D02*
X92842779Y-80590000D01*
X92517221Y-79570000D02*
X92842779Y-79570000D01*
G04 #@! TO.C,C511*
X94910000Y-53449721D02*
X94910000Y-53775279D01*
X93890000Y-53449721D02*
X93890000Y-53775279D01*
G04 #@! TO.C,C510*
X123510000Y-63775279D02*
X123510000Y-63449721D01*
X122490000Y-63775279D02*
X122490000Y-63449721D01*
G04 #@! TO.C,C509*
X110310000Y-51237221D02*
X110310000Y-51562779D01*
X109290000Y-51237221D02*
X109290000Y-51562779D01*
G04 #@! TO.C,C508*
X114290000Y-57837221D02*
X114290000Y-58162779D01*
X115310000Y-57837221D02*
X115310000Y-58162779D01*
G04 #@! TO.C,C507*
X115762779Y-61510000D02*
X115437221Y-61510000D01*
X115762779Y-60490000D02*
X115437221Y-60490000D01*
G04 #@! TO.C,C407*
X92537221Y-169410000D02*
X92862779Y-169410000D01*
X92537221Y-168390000D02*
X92862779Y-168390000D01*
G04 #@! TO.C,C604*
X101449221Y-96890000D02*
X101774779Y-96890000D01*
X101449221Y-97910000D02*
X101774779Y-97910000D01*
G04 #@! TO.C,C501*
X107710000Y-59762779D02*
X107710000Y-59437221D01*
X106690000Y-59762779D02*
X106690000Y-59437221D01*
G04 #@! TO.C,C502*
X103690000Y-60375279D02*
X103690000Y-60049721D01*
X104710000Y-60375279D02*
X104710000Y-60049721D01*
G04 #@! TO.C,C503*
X105037221Y-50110000D02*
X105362779Y-50110000D01*
X105037221Y-49090000D02*
X105362779Y-49090000D01*
G04 #@! TO.C,C504*
X102110000Y-50037221D02*
X102110000Y-50362779D01*
X101090000Y-50037221D02*
X101090000Y-50362779D01*
G04 #@! TO.C,C505*
X84510000Y-64575279D02*
X84510000Y-64249721D01*
X83490000Y-64575279D02*
X83490000Y-64249721D01*
G04 #@! TO.C,C506*
X90037221Y-70290000D02*
X90362779Y-70290000D01*
X90037221Y-71310000D02*
X90362779Y-71310000D01*
G04 #@! TO.C,C101*
X117920578Y-98690000D02*
X117403422Y-98690000D01*
X117920578Y-100110000D02*
X117403422Y-100110000D01*
G04 #@! TO.C,C102*
X114910000Y-99541422D02*
X114910000Y-100058578D01*
X113490000Y-99541422D02*
X113490000Y-100058578D01*
G04 #@! TO.C,C406*
X92797936Y-146310000D02*
X94002064Y-146310000D01*
X92797936Y-144490000D02*
X94002064Y-144490000D01*
G04 #@! TO.C,C405*
X88710000Y-133797936D02*
X88710000Y-135002064D01*
X86890000Y-133797936D02*
X86890000Y-135002064D01*
G04 #@! TO.C,C404*
X92997936Y-141910000D02*
X94202064Y-141910000D01*
X92997936Y-140090000D02*
X94202064Y-140090000D01*
G04 #@! TO.C,C402*
X92797936Y-134910000D02*
X94002064Y-134910000D01*
X92797936Y-133090000D02*
X94002064Y-133090000D01*
G04 #@! TO.C,C401*
X92797936Y-138010000D02*
X94002064Y-138010000D01*
X92797936Y-136190000D02*
X94002064Y-136190000D01*
G04 #@! TO.C,C603*
X105597936Y-96490000D02*
X106802064Y-96490000D01*
X105597936Y-98310000D02*
X106802064Y-98310000D01*
G04 #@! TO.C,D401*
X80665000Y-110915000D02*
X80665000Y-113200000D01*
X82135000Y-110915000D02*
X80665000Y-110915000D01*
X82135000Y-113200000D02*
X82135000Y-110915000D01*
G04 #@! TO.C,D402*
X82135000Y-118700000D02*
X82135000Y-116415000D01*
X82135000Y-116415000D02*
X80665000Y-116415000D01*
X80665000Y-116415000D02*
X80665000Y-118700000D01*
G04 #@! TO.C,D601*
X103065000Y-107115000D02*
X103065000Y-109400000D01*
X104535000Y-107115000D02*
X103065000Y-107115000D01*
X104535000Y-109400000D02*
X104535000Y-107115000D01*
G04 #@! TO.C,D602*
X101735000Y-109412000D02*
X101735000Y-107127000D01*
X101735000Y-107127000D02*
X100265000Y-107127000D01*
X100265000Y-107127000D02*
X100265000Y-109412000D01*
D13*
G04 #@! TO.C,U501*
X111825000Y-57025000D02*
X111825000Y-56850000D01*
X108575000Y-57025000D02*
X108575000Y-56750000D01*
X108575000Y-53775000D02*
X108575000Y-54050000D01*
X111825000Y-53775000D02*
X111825000Y-54050000D01*
X111825000Y-57025000D02*
X108575000Y-57025000D01*
X111825000Y-53775000D02*
X108575000Y-53775000D01*
X111825000Y-56850000D02*
X112900000Y-56850000D01*
D12*
G04 #@! TO.C,D204*
X67510000Y-153960000D02*
X67510000Y-157860000D01*
X70510000Y-153960000D02*
X70510000Y-157860000D01*
X69710000Y-153960000D02*
X70510000Y-153960000D01*
G04 #@! TO.C,D205*
X69710000Y-158960000D02*
X70510000Y-158960000D01*
X70510000Y-158960000D02*
X70510000Y-162860000D01*
X67510000Y-158960000D02*
X67510000Y-162860000D01*
G04 #@! TO.C,D206*
X67510000Y-163960000D02*
X67510000Y-167860000D01*
X70510000Y-163960000D02*
X70510000Y-167860000D01*
X69710000Y-163960000D02*
X70510000Y-163960000D01*
G04 #@! TO.C,D207*
X69710000Y-168960000D02*
X70510000Y-168960000D01*
X70510000Y-168960000D02*
X70510000Y-172860000D01*
X67510000Y-168960000D02*
X67510000Y-172860000D01*
G04 #@! TO.C,D230*
X143240000Y-152860000D02*
X143240000Y-148960000D01*
X140240000Y-152860000D02*
X140240000Y-148960000D01*
X141040000Y-152860000D02*
X140240000Y-152860000D01*
G04 #@! TO.C,D203*
X69710000Y-148960000D02*
X70510000Y-148960000D01*
X70510000Y-148960000D02*
X70510000Y-152860000D01*
X67510000Y-148960000D02*
X67510000Y-152860000D01*
G04 #@! TO.C,D202*
X67510000Y-143960000D02*
X67510000Y-147860000D01*
X70510000Y-143960000D02*
X70510000Y-147860000D01*
X69710000Y-143960000D02*
X70510000Y-143960000D01*
G04 #@! TO.C,D201*
X69710000Y-138960000D02*
X70510000Y-138960000D01*
X70510000Y-138960000D02*
X70510000Y-142860000D01*
X67510000Y-138960000D02*
X67510000Y-142860000D01*
G04 #@! TO.C,D208*
X67510000Y-173960000D02*
X67510000Y-177860000D01*
X70510000Y-173960000D02*
X70510000Y-177860000D01*
X69710000Y-173960000D02*
X70510000Y-173960000D01*
G04 #@! TO.C,D232*
X141040000Y-142860000D02*
X140240000Y-142860000D01*
X140240000Y-142860000D02*
X140240000Y-138960000D01*
X143240000Y-142860000D02*
X143240000Y-138960000D01*
G04 #@! TO.C,D231*
X143240000Y-147860000D02*
X143240000Y-143960000D01*
X140240000Y-147860000D02*
X140240000Y-143960000D01*
X141040000Y-147860000D02*
X140240000Y-147860000D01*
G04 #@! TO.C,D209*
X70071751Y-192509271D02*
X70844492Y-192302216D01*
X70844492Y-192302216D02*
X71853886Y-196069327D01*
X67946714Y-193078673D02*
X68956108Y-196845784D01*
G04 #@! TO.C,D229*
X143240000Y-157860000D02*
X143240000Y-153960000D01*
X140240000Y-157860000D02*
X140240000Y-153960000D01*
X141040000Y-157860000D02*
X140240000Y-157860000D01*
G04 #@! TO.C,D228*
X141040000Y-162860000D02*
X140240000Y-162860000D01*
X140240000Y-162860000D02*
X140240000Y-158960000D01*
X143240000Y-162860000D02*
X143240000Y-158960000D01*
G04 #@! TO.C,D227*
X143240000Y-167860000D02*
X143240000Y-163960000D01*
X140240000Y-167860000D02*
X140240000Y-163960000D01*
X141040000Y-167860000D02*
X140240000Y-167860000D01*
G04 #@! TO.C,D226*
X141040000Y-172860000D02*
X140240000Y-172860000D01*
X140240000Y-172860000D02*
X140240000Y-168960000D01*
X143240000Y-172860000D02*
X143240000Y-168960000D01*
G04 #@! TO.C,D225*
X143240000Y-177860000D02*
X143240000Y-173960000D01*
X140240000Y-177860000D02*
X140240000Y-173960000D01*
X141040000Y-177860000D02*
X140240000Y-177860000D01*
G04 #@! TO.C,D224*
X139019155Y-196276382D02*
X138246414Y-196069327D01*
X138246414Y-196069327D02*
X139255808Y-192302216D01*
X141144192Y-196845784D02*
X142153586Y-193078673D01*
G04 #@! TO.C,D223*
X134200000Y-209450000D02*
X134200000Y-205550000D01*
X131200000Y-209450000D02*
X131200000Y-205550000D01*
X132000000Y-209450000D02*
X131200000Y-209450000D01*
G04 #@! TO.C,D222*
X128300000Y-213150000D02*
X127500000Y-213150000D01*
X127500000Y-213150000D02*
X127500000Y-209250000D01*
X130500000Y-213150000D02*
X130500000Y-209250000D01*
G04 #@! TO.C,D221*
X126700000Y-215350000D02*
X126700000Y-211450000D01*
X123700000Y-215350000D02*
X123700000Y-211450000D01*
X124500000Y-215350000D02*
X123700000Y-215350000D01*
G04 #@! TO.C,D220*
X120600000Y-218250000D02*
X119800000Y-218250000D01*
X119800000Y-218250000D02*
X119800000Y-214350000D01*
X122800000Y-218250000D02*
X122800000Y-214350000D01*
G04 #@! TO.C,D219*
X118900000Y-219950000D02*
X118900000Y-216050000D01*
X115900000Y-219950000D02*
X115900000Y-216050000D01*
X116700000Y-219950000D02*
X115900000Y-219950000D01*
G04 #@! TO.C,D218*
X112500000Y-221750000D02*
X111700000Y-221750000D01*
X111700000Y-221750000D02*
X111700000Y-217850000D01*
X114700000Y-221750000D02*
X114700000Y-217850000D01*
G04 #@! TO.C,D217*
X109500000Y-222850000D02*
X109500000Y-218950000D01*
X106500000Y-222850000D02*
X106500000Y-218950000D01*
X107300000Y-222850000D02*
X106500000Y-222850000D01*
G04 #@! TO.C,D216*
X103400000Y-218950000D02*
X104200000Y-218950000D01*
X104200000Y-218950000D02*
X104200000Y-222850000D01*
X101200000Y-218950000D02*
X101200000Y-222850000D01*
G04 #@! TO.C,D215*
X95200000Y-217850000D02*
X95200000Y-221750000D01*
X98200000Y-217850000D02*
X98200000Y-221750000D01*
X97400000Y-217850000D02*
X98200000Y-217850000D01*
G04 #@! TO.C,D214*
X93100000Y-216050000D02*
X93900000Y-216050000D01*
X93900000Y-216050000D02*
X93900000Y-219950000D01*
X90900000Y-216050000D02*
X90900000Y-219950000D01*
G04 #@! TO.C,D213*
X86600000Y-214350000D02*
X86600000Y-218250000D01*
X89600000Y-214350000D02*
X89600000Y-218250000D01*
X88800000Y-214350000D02*
X89600000Y-214350000D01*
G04 #@! TO.C,D212*
X85000000Y-211450000D02*
X85800000Y-211450000D01*
X85800000Y-211450000D02*
X85800000Y-215350000D01*
X82800000Y-211450000D02*
X82800000Y-215350000D01*
G04 #@! TO.C,D211*
X79100000Y-209250000D02*
X79100000Y-213150000D01*
X82100000Y-209250000D02*
X82100000Y-213150000D01*
X81300000Y-209250000D02*
X82100000Y-209250000D01*
G04 #@! TO.C,D210*
X77600000Y-205550000D02*
X78400000Y-205550000D01*
X78400000Y-205550000D02*
X78400000Y-209450000D01*
X75400000Y-205550000D02*
X75400000Y-209450000D01*
D14*
G04 #@! TO.C,SW106*
X111110000Y-209439440D02*
X110711220Y-208441220D01*
X111110000Y-207641120D02*
X111110000Y-208240560D01*
X111110000Y-210038880D02*
X111110000Y-209439440D01*
X111110000Y-210038880D02*
X112308880Y-210038880D01*
X109911120Y-210038880D02*
X111110000Y-210038880D01*
X111110000Y-207641120D02*
X112308880Y-207641120D01*
X109911120Y-207641120D02*
X111110000Y-207641120D01*
X108310920Y-210437660D02*
X108310920Y-207242340D01*
X113909080Y-210437660D02*
X108310920Y-210437660D01*
X113909080Y-207242340D02*
X113909080Y-210437660D01*
X108310920Y-207242340D02*
X113909080Y-207242340D01*
G04 #@! TO.C,SW108*
X137500920Y-133702340D02*
X143099080Y-133702340D01*
X143099080Y-133702340D02*
X143099080Y-136897660D01*
X143099080Y-136897660D02*
X137500920Y-136897660D01*
X137500920Y-136897660D02*
X137500920Y-133702340D01*
X139101120Y-134101120D02*
X140300000Y-134101120D01*
X140300000Y-134101120D02*
X141498880Y-134101120D01*
X139101120Y-136498880D02*
X140300000Y-136498880D01*
X140300000Y-136498880D02*
X141498880Y-136498880D01*
X140300000Y-136498880D02*
X140300000Y-135899440D01*
X140300000Y-134101120D02*
X140300000Y-134700560D01*
X140300000Y-135899440D02*
X139901220Y-134901220D01*
G04 #@! TO.C,SW107*
X105110000Y-215439440D02*
X104711220Y-214441220D01*
X105110000Y-213641120D02*
X105110000Y-214240560D01*
X105110000Y-216038880D02*
X105110000Y-215439440D01*
X105110000Y-216038880D02*
X106308880Y-216038880D01*
X103911120Y-216038880D02*
X105110000Y-216038880D01*
X105110000Y-213641120D02*
X106308880Y-213641120D01*
X103911120Y-213641120D02*
X105110000Y-213641120D01*
X102310920Y-216437660D02*
X102310920Y-213242340D01*
X107909080Y-216437660D02*
X102310920Y-216437660D01*
X107909080Y-213242340D02*
X107909080Y-216437660D01*
X102310920Y-213242340D02*
X107909080Y-213242340D01*
G04 #@! TO.C,SW105*
X96310920Y-207242340D02*
X101909080Y-207242340D01*
X101909080Y-207242340D02*
X101909080Y-210437660D01*
X101909080Y-210437660D02*
X96310920Y-210437660D01*
X96310920Y-210437660D02*
X96310920Y-207242340D01*
X97911120Y-207641120D02*
X99110000Y-207641120D01*
X99110000Y-207641120D02*
X100308880Y-207641120D01*
X97911120Y-210038880D02*
X99110000Y-210038880D01*
X99110000Y-210038880D02*
X100308880Y-210038880D01*
X99110000Y-210038880D02*
X99110000Y-209439440D01*
X99110000Y-207641120D02*
X99110000Y-208240560D01*
X99110000Y-209439440D02*
X98711220Y-208441220D01*
G04 #@! TO.C,SW104*
X104615560Y-78005000D02*
X105613780Y-77606220D01*
X106413880Y-78005000D02*
X105814440Y-78005000D01*
X104016120Y-78005000D02*
X104615560Y-78005000D01*
X104016120Y-78005000D02*
X104016120Y-79203880D01*
X104016120Y-76806120D02*
X104016120Y-78005000D01*
X106413880Y-78005000D02*
X106413880Y-79203880D01*
X106413880Y-76806120D02*
X106413880Y-78005000D01*
X103617340Y-75205920D02*
X106812660Y-75205920D01*
X103617340Y-80804080D02*
X103617340Y-75205920D01*
X106812660Y-80804080D02*
X103617340Y-80804080D01*
X106812660Y-75205920D02*
X106812660Y-80804080D01*
G04 #@! TO.C,SW103*
X106812660Y-63205920D02*
X106812660Y-68804080D01*
X106812660Y-68804080D02*
X103617340Y-68804080D01*
X103617340Y-68804080D02*
X103617340Y-63205920D01*
X103617340Y-63205920D02*
X106812660Y-63205920D01*
X106413880Y-64806120D02*
X106413880Y-66005000D01*
X106413880Y-66005000D02*
X106413880Y-67203880D01*
X104016120Y-64806120D02*
X104016120Y-66005000D01*
X104016120Y-66005000D02*
X104016120Y-67203880D01*
X104016120Y-66005000D02*
X104615560Y-66005000D01*
X106413880Y-66005000D02*
X105814440Y-66005000D01*
X104615560Y-66005000D02*
X105613780Y-65606220D01*
G04 #@! TO.C,SW101*
X112812660Y-69205920D02*
X112812660Y-74804080D01*
X112812660Y-74804080D02*
X109617340Y-74804080D01*
X109617340Y-74804080D02*
X109617340Y-69205920D01*
X109617340Y-69205920D02*
X112812660Y-69205920D01*
X112413880Y-70806120D02*
X112413880Y-72005000D01*
X112413880Y-72005000D02*
X112413880Y-73203880D01*
X110016120Y-70806120D02*
X110016120Y-72005000D01*
X110016120Y-72005000D02*
X110016120Y-73203880D01*
X110016120Y-72005000D02*
X110615560Y-72005000D01*
X112413880Y-72005000D02*
X111814440Y-72005000D01*
X110615560Y-72005000D02*
X111613780Y-71606220D01*
D13*
G04 #@! TO.C,U301*
X111945000Y-200805000D02*
X111945000Y-200255000D01*
X117295000Y-195455000D02*
X117295000Y-196005000D01*
X111945000Y-195455000D02*
X111945000Y-196005000D01*
X117295000Y-200805000D02*
X116745000Y-200805000D01*
X117295000Y-195455000D02*
X116745000Y-195455000D01*
X111945000Y-195455000D02*
X112495000Y-195455000D01*
X111945000Y-200805000D02*
X112495000Y-200805000D01*
G04 #@! TO.C,U502*
X98525000Y-52825000D02*
X98525000Y-52875000D01*
X102675000Y-52825000D02*
X102675000Y-52970000D01*
X102675000Y-57975000D02*
X102675000Y-57830000D01*
X98525000Y-57975000D02*
X98525000Y-57830000D01*
X98525000Y-52825000D02*
X102675000Y-52825000D01*
X98525000Y-57975000D02*
X102675000Y-57975000D01*
X98525000Y-52875000D02*
X97125000Y-52875000D01*
D12*
G04 #@! TO.C,U401*
X84600000Y-132540000D02*
X82800000Y-132540000D01*
X82800000Y-135760000D02*
X85250000Y-135760000D01*
G04 #@! TO.C,R604*
X91290000Y-85162779D02*
X91290000Y-84837221D01*
X92310000Y-85162779D02*
X92310000Y-84837221D01*
G04 #@! TO.C,R603*
X97690000Y-108449221D02*
X97690000Y-108774779D01*
X98710000Y-108449221D02*
X98710000Y-108774779D01*
G04 #@! TO.C,R602*
X107310000Y-108449221D02*
X107310000Y-108774779D01*
X106290000Y-108449221D02*
X106290000Y-108774779D01*
G04 #@! TO.C,R601*
X98162779Y-96890000D02*
X97837221Y-96890000D01*
X98162779Y-97910000D02*
X97837221Y-97910000D01*
G04 #@! TO.C,R504*
X95037221Y-61290000D02*
X95362779Y-61290000D01*
X95037221Y-62310000D02*
X95362779Y-62310000D01*
G04 #@! TO.C,R503*
X86037221Y-71310000D02*
X86362779Y-71310000D01*
X86037221Y-70290000D02*
X86362779Y-70290000D01*
G04 #@! TO.C,R101*
X81290000Y-94562779D02*
X81290000Y-94237221D01*
X82310000Y-94562779D02*
X82310000Y-94237221D01*
G04 #@! TO.C,R303*
X117999721Y-205520000D02*
X118325279Y-205520000D01*
X117999721Y-204500000D02*
X118325279Y-204500000D01*
G04 #@! TO.C,R401*
X85510000Y-112137221D02*
X85510000Y-112462779D01*
X84490000Y-112137221D02*
X84490000Y-112462779D01*
G04 #@! TO.C,R302*
X108349721Y-200510000D02*
X108675279Y-200510000D01*
X108349721Y-199490000D02*
X108675279Y-199490000D01*
G04 #@! TO.C,R402*
X85510000Y-117737221D02*
X85510000Y-118062779D01*
X84490000Y-117737221D02*
X84490000Y-118062779D01*
G04 #@! TO.C,R403*
X77962779Y-139090000D02*
X77637221Y-139090000D01*
X77962779Y-140110000D02*
X77637221Y-140110000D01*
G04 #@! TO.C,R301*
X113849721Y-204430000D02*
X114175279Y-204430000D01*
X113849721Y-205450000D02*
X114175279Y-205450000D01*
G04 #@! TO.C,R404*
X93037221Y-159410000D02*
X93362779Y-159410000D01*
X93037221Y-158390000D02*
X93362779Y-158390000D01*
G04 #@! TO.C,R501*
X90024721Y-64290000D02*
X90350279Y-64290000D01*
X90024721Y-65310000D02*
X90350279Y-65310000D01*
G04 #@! TO.C,R605*
X91290000Y-88837221D02*
X91290000Y-89162779D01*
X92310000Y-88837221D02*
X92310000Y-89162779D01*
G04 #@! TO.C,R502*
X97890000Y-50350279D02*
X97890000Y-50024721D01*
X98910000Y-50350279D02*
X98910000Y-50024721D01*
G04 #@! TO.C,TP401*
X94800000Y-149200000D02*
G75*
G03X94800000Y-149200000I-1200000J0D01*
G01*
G04 #@! TO.C,TP402*
X79600000Y-115200000D02*
G75*
G03X79600000Y-115200000I-1200000J0D01*
G01*
G04 #@! TO.C,TP403*
X79600000Y-118600000D02*
G75*
G03X79600000Y-118600000I-1200000J0D01*
G01*
G04 #@! TO.C,C403*
D13*
X88680952Y-173277142D02*
X88633333Y-173324761D01*
X88490476Y-173372380D01*
X88395238Y-173372380D01*
X88252380Y-173324761D01*
X88157142Y-173229523D01*
X88109523Y-173134285D01*
X88061904Y-172943809D01*
X88061904Y-172800952D01*
X88109523Y-172610476D01*
X88157142Y-172515238D01*
X88252380Y-172420000D01*
X88395238Y-172372380D01*
X88490476Y-172372380D01*
X88633333Y-172420000D01*
X88680952Y-172467619D01*
X89538095Y-172705714D02*
X89538095Y-173372380D01*
X89300000Y-172324761D02*
X89061904Y-173039047D01*
X89680952Y-173039047D01*
X90252380Y-172372380D02*
X90347619Y-172372380D01*
X90442857Y-172420000D01*
X90490476Y-172467619D01*
X90538095Y-172562857D01*
X90585714Y-172753333D01*
X90585714Y-172991428D01*
X90538095Y-173181904D01*
X90490476Y-173277142D01*
X90442857Y-173324761D01*
X90347619Y-173372380D01*
X90252380Y-173372380D01*
X90157142Y-173324761D01*
X90109523Y-173277142D01*
X90061904Y-173181904D01*
X90014285Y-172991428D01*
X90014285Y-172753333D01*
X90061904Y-172562857D01*
X90109523Y-172467619D01*
X90157142Y-172420000D01*
X90252380Y-172372380D01*
X90919047Y-172372380D02*
X91538095Y-172372380D01*
X91204761Y-172753333D01*
X91347619Y-172753333D01*
X91442857Y-172800952D01*
X91490476Y-172848571D01*
X91538095Y-172943809D01*
X91538095Y-173181904D01*
X91490476Y-173277142D01*
X91442857Y-173324761D01*
X91347619Y-173372380D01*
X91061904Y-173372380D01*
X90966666Y-173324761D01*
X90919047Y-173277142D01*
G04 #@! TO.C,U403*
X86292380Y-169314285D02*
X87101904Y-169314285D01*
X87197142Y-169266666D01*
X87244761Y-169219047D01*
X87292380Y-169123809D01*
X87292380Y-168933333D01*
X87244761Y-168838095D01*
X87197142Y-168790476D01*
X87101904Y-168742857D01*
X86292380Y-168742857D01*
X86625714Y-167838095D02*
X87292380Y-167838095D01*
X86244761Y-168076190D02*
X86959047Y-168314285D01*
X86959047Y-167695238D01*
X86292380Y-167123809D02*
X86292380Y-167028571D01*
X86340000Y-166933333D01*
X86387619Y-166885714D01*
X86482857Y-166838095D01*
X86673333Y-166790476D01*
X86911428Y-166790476D01*
X87101904Y-166838095D01*
X87197142Y-166885714D01*
X87244761Y-166933333D01*
X87292380Y-167028571D01*
X87292380Y-167123809D01*
X87244761Y-167219047D01*
X87197142Y-167266666D01*
X87101904Y-167314285D01*
X86911428Y-167361904D01*
X86673333Y-167361904D01*
X86482857Y-167314285D01*
X86387619Y-167266666D01*
X86340000Y-167219047D01*
X86292380Y-167123809D01*
X86292380Y-166457142D02*
X86292380Y-165838095D01*
X86673333Y-166171428D01*
X86673333Y-166028571D01*
X86720952Y-165933333D01*
X86768571Y-165885714D01*
X86863809Y-165838095D01*
X87101904Y-165838095D01*
X87197142Y-165885714D01*
X87244761Y-165933333D01*
X87292380Y-166028571D01*
X87292380Y-166314285D01*
X87244761Y-166409523D01*
X87197142Y-166457142D01*
G04 #@! TO.C,U100*
D15*
X134777057Y-112449615D02*
X134777057Y-113263227D01*
X134824916Y-113358946D01*
X134872776Y-113406805D01*
X134968495Y-113454665D01*
X135159933Y-113454665D01*
X135255652Y-113406805D01*
X135303511Y-113358946D01*
X135351371Y-113263227D01*
X135351371Y-112449615D01*
X136356421Y-113454665D02*
X135782107Y-113454665D01*
X136069264Y-113454665D02*
X136069264Y-112449615D01*
X135973545Y-112593194D01*
X135877826Y-112688913D01*
X135782107Y-112736772D01*
X136978595Y-112449615D02*
X137074314Y-112449615D01*
X137170033Y-112497475D01*
X137217892Y-112545334D01*
X137265752Y-112641053D01*
X137313611Y-112832491D01*
X137313611Y-113071789D01*
X137265752Y-113263227D01*
X137217892Y-113358946D01*
X137170033Y-113406805D01*
X137074314Y-113454665D01*
X136978595Y-113454665D01*
X136882876Y-113406805D01*
X136835016Y-113358946D01*
X136787157Y-113263227D01*
X136739297Y-113071789D01*
X136739297Y-112832491D01*
X136787157Y-112641053D01*
X136835016Y-112545334D01*
X136882876Y-112497475D01*
X136978595Y-112449615D01*
X137935785Y-112449615D02*
X138031504Y-112449615D01*
X138127223Y-112497475D01*
X138175083Y-112545334D01*
X138222942Y-112641053D01*
X138270802Y-112832491D01*
X138270802Y-113071789D01*
X138222942Y-113263227D01*
X138175083Y-113358946D01*
X138127223Y-113406805D01*
X138031504Y-113454665D01*
X137935785Y-113454665D01*
X137840066Y-113406805D01*
X137792207Y-113358946D01*
X137744347Y-113263227D01*
X137696488Y-113071789D01*
X137696488Y-112832491D01*
X137744347Y-112641053D01*
X137792207Y-112545334D01*
X137840066Y-112497475D01*
X137935785Y-112449615D01*
G04 #@! TO.C,J104*
D16*
X102868510Y-125877328D02*
X102868510Y-126950378D01*
X102796973Y-127164988D01*
X102653900Y-127308061D01*
X102439290Y-127379598D01*
X102296216Y-127379598D01*
X104370780Y-127379598D02*
X103512340Y-127379598D01*
X103941560Y-127379598D02*
X103941560Y-125877328D01*
X103798486Y-126091938D01*
X103655413Y-126235011D01*
X103512340Y-126306548D01*
X105300756Y-125877328D02*
X105443830Y-125877328D01*
X105586903Y-125948865D01*
X105658440Y-126020401D01*
X105729976Y-126163475D01*
X105801513Y-126449621D01*
X105801513Y-126807305D01*
X105729976Y-127093451D01*
X105658440Y-127236525D01*
X105586903Y-127308061D01*
X105443830Y-127379598D01*
X105300756Y-127379598D01*
X105157683Y-127308061D01*
X105086146Y-127236525D01*
X105014610Y-127093451D01*
X104943073Y-126807305D01*
X104943073Y-126449621D01*
X105014610Y-126163475D01*
X105086146Y-126020401D01*
X105157683Y-125948865D01*
X105300756Y-125877328D01*
X107089173Y-126378085D02*
X107089173Y-127379598D01*
X106731490Y-125805791D02*
X106373806Y-126878841D01*
X107303783Y-126878841D01*
D15*
X77791585Y-129612779D02*
X77839204Y-129565160D01*
X77934442Y-129517540D01*
X78172538Y-129517540D01*
X78267776Y-129565160D01*
X78315395Y-129612779D01*
X78363014Y-129708017D01*
X78363014Y-129803255D01*
X78315395Y-129946112D01*
X77743966Y-130517540D01*
X78363014Y-130517540D01*
X78347514Y-124857500D02*
X77776085Y-124857500D01*
X78061800Y-124857500D02*
X78061800Y-123857500D01*
X77966561Y-124000358D01*
X77871323Y-124095596D01*
X77776085Y-124143215D01*
X132184285Y-129175714D02*
X132184285Y-129842380D01*
X131946190Y-128794761D02*
X131708095Y-129509047D01*
X132327142Y-129509047D01*
X132898571Y-128842380D02*
X132993809Y-128842380D01*
X133089047Y-128890000D01*
X133136666Y-128937619D01*
X133184285Y-129032857D01*
X133231904Y-129223333D01*
X133231904Y-129461428D01*
X133184285Y-129651904D01*
X133136666Y-129747142D01*
X133089047Y-129794761D01*
X132993809Y-129842380D01*
X132898571Y-129842380D01*
X132803333Y-129794761D01*
X132755714Y-129747142D01*
X132708095Y-129651904D01*
X132660476Y-129461428D01*
X132660476Y-129223333D01*
X132708095Y-129032857D01*
X132755714Y-128937619D01*
X132803333Y-128890000D01*
X132898571Y-128842380D01*
X131760476Y-123142380D02*
X132379523Y-123142380D01*
X132046190Y-123523333D01*
X132189047Y-123523333D01*
X132284285Y-123570952D01*
X132331904Y-123618571D01*
X132379523Y-123713809D01*
X132379523Y-123951904D01*
X132331904Y-124047142D01*
X132284285Y-124094761D01*
X132189047Y-124142380D01*
X131903333Y-124142380D01*
X131808095Y-124094761D01*
X131760476Y-124047142D01*
X132855714Y-124142380D02*
X133046190Y-124142380D01*
X133141428Y-124094761D01*
X133189047Y-124047142D01*
X133284285Y-123904285D01*
X133331904Y-123713809D01*
X133331904Y-123332857D01*
X133284285Y-123237619D01*
X133236666Y-123190000D01*
X133141428Y-123142380D01*
X132950952Y-123142380D01*
X132855714Y-123190000D01*
X132808095Y-123237619D01*
X132760476Y-123332857D01*
X132760476Y-123570952D01*
X132808095Y-123666190D01*
X132855714Y-123713809D01*
X132950952Y-123761428D01*
X133141428Y-123761428D01*
X133236666Y-123713809D01*
X133284285Y-123666190D01*
X133331904Y-123570952D01*
G04 #@! TO.C,U402*
D13*
X83685714Y-144952380D02*
X83685714Y-145761904D01*
X83733333Y-145857142D01*
X83780952Y-145904761D01*
X83876190Y-145952380D01*
X84066666Y-145952380D01*
X84161904Y-145904761D01*
X84209523Y-145857142D01*
X84257142Y-145761904D01*
X84257142Y-144952380D01*
X85161904Y-145285714D02*
X85161904Y-145952380D01*
X84923809Y-144904761D02*
X84685714Y-145619047D01*
X85304761Y-145619047D01*
X85876190Y-144952380D02*
X85971428Y-144952380D01*
X86066666Y-145000000D01*
X86114285Y-145047619D01*
X86161904Y-145142857D01*
X86209523Y-145333333D01*
X86209523Y-145571428D01*
X86161904Y-145761904D01*
X86114285Y-145857142D01*
X86066666Y-145904761D01*
X85971428Y-145952380D01*
X85876190Y-145952380D01*
X85780952Y-145904761D01*
X85733333Y-145857142D01*
X85685714Y-145761904D01*
X85638095Y-145571428D01*
X85638095Y-145333333D01*
X85685714Y-145142857D01*
X85733333Y-145047619D01*
X85780952Y-145000000D01*
X85876190Y-144952380D01*
X86590476Y-145047619D02*
X86638095Y-145000000D01*
X86733333Y-144952380D01*
X86971428Y-144952380D01*
X87066666Y-145000000D01*
X87114285Y-145047619D01*
X87161904Y-145142857D01*
X87161904Y-145238095D01*
X87114285Y-145380952D01*
X86542857Y-145952380D01*
X87161904Y-145952380D01*
G04 #@! TO.C,J102*
X139044285Y-189132380D02*
X139044285Y-189846666D01*
X138996666Y-189989523D01*
X138901428Y-190084761D01*
X138758571Y-190132380D01*
X138663333Y-190132380D01*
X140044285Y-190132380D02*
X139472857Y-190132380D01*
X139758571Y-190132380D02*
X139758571Y-189132380D01*
X139663333Y-189275238D01*
X139568095Y-189370476D01*
X139472857Y-189418095D01*
X140663333Y-189132380D02*
X140758571Y-189132380D01*
X140853809Y-189180000D01*
X140901428Y-189227619D01*
X140949047Y-189322857D01*
X140996666Y-189513333D01*
X140996666Y-189751428D01*
X140949047Y-189941904D01*
X140901428Y-190037142D01*
X140853809Y-190084761D01*
X140758571Y-190132380D01*
X140663333Y-190132380D01*
X140568095Y-190084761D01*
X140520476Y-190037142D01*
X140472857Y-189941904D01*
X140425238Y-189751428D01*
X140425238Y-189513333D01*
X140472857Y-189322857D01*
X140520476Y-189227619D01*
X140568095Y-189180000D01*
X140663333Y-189132380D01*
X141377619Y-189227619D02*
X141425238Y-189180000D01*
X141520476Y-189132380D01*
X141758571Y-189132380D01*
X141853809Y-189180000D01*
X141901428Y-189227619D01*
X141949047Y-189322857D01*
X141949047Y-189418095D01*
X141901428Y-189560952D01*
X141330000Y-190132380D01*
X141949047Y-190132380D01*
G04 #@! TO.C,J103*
X68814285Y-189352380D02*
X68814285Y-190066666D01*
X68766666Y-190209523D01*
X68671428Y-190304761D01*
X68528571Y-190352380D01*
X68433333Y-190352380D01*
X69814285Y-190352380D02*
X69242857Y-190352380D01*
X69528571Y-190352380D02*
X69528571Y-189352380D01*
X69433333Y-189495238D01*
X69338095Y-189590476D01*
X69242857Y-189638095D01*
X70433333Y-189352380D02*
X70528571Y-189352380D01*
X70623809Y-189400000D01*
X70671428Y-189447619D01*
X70719047Y-189542857D01*
X70766666Y-189733333D01*
X70766666Y-189971428D01*
X70719047Y-190161904D01*
X70671428Y-190257142D01*
X70623809Y-190304761D01*
X70528571Y-190352380D01*
X70433333Y-190352380D01*
X70338095Y-190304761D01*
X70290476Y-190257142D01*
X70242857Y-190161904D01*
X70195238Y-189971428D01*
X70195238Y-189733333D01*
X70242857Y-189542857D01*
X70290476Y-189447619D01*
X70338095Y-189400000D01*
X70433333Y-189352380D01*
X71100000Y-189352380D02*
X71719047Y-189352380D01*
X71385714Y-189733333D01*
X71528571Y-189733333D01*
X71623809Y-189780952D01*
X71671428Y-189828571D01*
X71719047Y-189923809D01*
X71719047Y-190161904D01*
X71671428Y-190257142D01*
X71623809Y-190304761D01*
X71528571Y-190352380D01*
X71242857Y-190352380D01*
X71147619Y-190304761D01*
X71100000Y-190257142D01*
G04 #@! TO.C,Y101*
X114771428Y-93576190D02*
X114771428Y-94052380D01*
X114438095Y-93052380D02*
X114771428Y-93576190D01*
X115104761Y-93052380D01*
X115961904Y-94052380D02*
X115390476Y-94052380D01*
X115676190Y-94052380D02*
X115676190Y-93052380D01*
X115580952Y-93195238D01*
X115485714Y-93290476D01*
X115390476Y-93338095D01*
X116580952Y-93052380D02*
X116676190Y-93052380D01*
X116771428Y-93100000D01*
X116819047Y-93147619D01*
X116866666Y-93242857D01*
X116914285Y-93433333D01*
X116914285Y-93671428D01*
X116866666Y-93861904D01*
X116819047Y-93957142D01*
X116771428Y-94004761D01*
X116676190Y-94052380D01*
X116580952Y-94052380D01*
X116485714Y-94004761D01*
X116438095Y-93957142D01*
X116390476Y-93861904D01*
X116342857Y-93671428D01*
X116342857Y-93433333D01*
X116390476Y-93242857D01*
X116438095Y-93147619D01*
X116485714Y-93100000D01*
X116580952Y-93052380D01*
X117866666Y-94052380D02*
X117295238Y-94052380D01*
X117580952Y-94052380D02*
X117580952Y-93052380D01*
X117485714Y-93195238D01*
X117390476Y-93290476D01*
X117295238Y-93338095D01*
G04 #@! TO.C,J502*
X128314285Y-61752380D02*
X128314285Y-62466666D01*
X128266666Y-62609523D01*
X128171428Y-62704761D01*
X128028571Y-62752380D01*
X127933333Y-62752380D01*
X129266666Y-61752380D02*
X128790476Y-61752380D01*
X128742857Y-62228571D01*
X128790476Y-62180952D01*
X128885714Y-62133333D01*
X129123809Y-62133333D01*
X129219047Y-62180952D01*
X129266666Y-62228571D01*
X129314285Y-62323809D01*
X129314285Y-62561904D01*
X129266666Y-62657142D01*
X129219047Y-62704761D01*
X129123809Y-62752380D01*
X128885714Y-62752380D01*
X128790476Y-62704761D01*
X128742857Y-62657142D01*
X129933333Y-61752380D02*
X130028571Y-61752380D01*
X130123809Y-61800000D01*
X130171428Y-61847619D01*
X130219047Y-61942857D01*
X130266666Y-62133333D01*
X130266666Y-62371428D01*
X130219047Y-62561904D01*
X130171428Y-62657142D01*
X130123809Y-62704761D01*
X130028571Y-62752380D01*
X129933333Y-62752380D01*
X129838095Y-62704761D01*
X129790476Y-62657142D01*
X129742857Y-62561904D01*
X129695238Y-62371428D01*
X129695238Y-62133333D01*
X129742857Y-61942857D01*
X129790476Y-61847619D01*
X129838095Y-61800000D01*
X129933333Y-61752380D01*
X130647619Y-61847619D02*
X130695238Y-61800000D01*
X130790476Y-61752380D01*
X131028571Y-61752380D01*
X131123809Y-61800000D01*
X131171428Y-61847619D01*
X131219047Y-61942857D01*
X131219047Y-62038095D01*
X131171428Y-62180952D01*
X130600000Y-62752380D01*
X131219047Y-62752380D01*
G04 #@! TO.C,J501*
X79214285Y-61952380D02*
X79214285Y-62666666D01*
X79166666Y-62809523D01*
X79071428Y-62904761D01*
X78928571Y-62952380D01*
X78833333Y-62952380D01*
X80166666Y-61952380D02*
X79690476Y-61952380D01*
X79642857Y-62428571D01*
X79690476Y-62380952D01*
X79785714Y-62333333D01*
X80023809Y-62333333D01*
X80119047Y-62380952D01*
X80166666Y-62428571D01*
X80214285Y-62523809D01*
X80214285Y-62761904D01*
X80166666Y-62857142D01*
X80119047Y-62904761D01*
X80023809Y-62952380D01*
X79785714Y-62952380D01*
X79690476Y-62904761D01*
X79642857Y-62857142D01*
X80833333Y-61952380D02*
X80928571Y-61952380D01*
X81023809Y-62000000D01*
X81071428Y-62047619D01*
X81119047Y-62142857D01*
X81166666Y-62333333D01*
X81166666Y-62571428D01*
X81119047Y-62761904D01*
X81071428Y-62857142D01*
X81023809Y-62904761D01*
X80928571Y-62952380D01*
X80833333Y-62952380D01*
X80738095Y-62904761D01*
X80690476Y-62857142D01*
X80642857Y-62761904D01*
X80595238Y-62571428D01*
X80595238Y-62333333D01*
X80642857Y-62142857D01*
X80690476Y-62047619D01*
X80738095Y-62000000D01*
X80833333Y-61952380D01*
X82119047Y-62952380D02*
X81547619Y-62952380D01*
X81833333Y-62952380D02*
X81833333Y-61952380D01*
X81738095Y-62095238D01*
X81642857Y-62190476D01*
X81547619Y-62238095D01*
G04 #@! TO.C,R103*
X81680952Y-92252380D02*
X81347619Y-91776190D01*
X81109523Y-92252380D02*
X81109523Y-91252380D01*
X81490476Y-91252380D01*
X81585714Y-91300000D01*
X81633333Y-91347619D01*
X81680952Y-91442857D01*
X81680952Y-91585714D01*
X81633333Y-91680952D01*
X81585714Y-91728571D01*
X81490476Y-91776190D01*
X81109523Y-91776190D01*
X82633333Y-92252380D02*
X82061904Y-92252380D01*
X82347619Y-92252380D02*
X82347619Y-91252380D01*
X82252380Y-91395238D01*
X82157142Y-91490476D01*
X82061904Y-91538095D01*
X83252380Y-91252380D02*
X83347619Y-91252380D01*
X83442857Y-91300000D01*
X83490476Y-91347619D01*
X83538095Y-91442857D01*
X83585714Y-91633333D01*
X83585714Y-91871428D01*
X83538095Y-92061904D01*
X83490476Y-92157142D01*
X83442857Y-92204761D01*
X83347619Y-92252380D01*
X83252380Y-92252380D01*
X83157142Y-92204761D01*
X83109523Y-92157142D01*
X83061904Y-92061904D01*
X83014285Y-91871428D01*
X83014285Y-91633333D01*
X83061904Y-91442857D01*
X83109523Y-91347619D01*
X83157142Y-91300000D01*
X83252380Y-91252380D01*
X83919047Y-91252380D02*
X84538095Y-91252380D01*
X84204761Y-91633333D01*
X84347619Y-91633333D01*
X84442857Y-91680952D01*
X84490476Y-91728571D01*
X84538095Y-91823809D01*
X84538095Y-92061904D01*
X84490476Y-92157142D01*
X84442857Y-92204761D01*
X84347619Y-92252380D01*
X84061904Y-92252380D01*
X83966666Y-92204761D01*
X83919047Y-92157142D01*
G04 #@! TO.C,R102*
X88680952Y-94252380D02*
X88347619Y-93776190D01*
X88109523Y-94252380D02*
X88109523Y-93252380D01*
X88490476Y-93252380D01*
X88585714Y-93300000D01*
X88633333Y-93347619D01*
X88680952Y-93442857D01*
X88680952Y-93585714D01*
X88633333Y-93680952D01*
X88585714Y-93728571D01*
X88490476Y-93776190D01*
X88109523Y-93776190D01*
X89633333Y-94252380D02*
X89061904Y-94252380D01*
X89347619Y-94252380D02*
X89347619Y-93252380D01*
X89252380Y-93395238D01*
X89157142Y-93490476D01*
X89061904Y-93538095D01*
X90252380Y-93252380D02*
X90347619Y-93252380D01*
X90442857Y-93300000D01*
X90490476Y-93347619D01*
X90538095Y-93442857D01*
X90585714Y-93633333D01*
X90585714Y-93871428D01*
X90538095Y-94061904D01*
X90490476Y-94157142D01*
X90442857Y-94204761D01*
X90347619Y-94252380D01*
X90252380Y-94252380D01*
X90157142Y-94204761D01*
X90109523Y-94157142D01*
X90061904Y-94061904D01*
X90014285Y-93871428D01*
X90014285Y-93633333D01*
X90061904Y-93442857D01*
X90109523Y-93347619D01*
X90157142Y-93300000D01*
X90252380Y-93252380D01*
X90966666Y-93347619D02*
X91014285Y-93300000D01*
X91109523Y-93252380D01*
X91347619Y-93252380D01*
X91442857Y-93300000D01*
X91490476Y-93347619D01*
X91538095Y-93442857D01*
X91538095Y-93538095D01*
X91490476Y-93680952D01*
X90919047Y-94252380D01*
X91538095Y-94252380D01*
G04 #@! TO.C,J101*
X76964285Y-97802380D02*
X76964285Y-98516666D01*
X76916666Y-98659523D01*
X76821428Y-98754761D01*
X76678571Y-98802380D01*
X76583333Y-98802380D01*
X77964285Y-98802380D02*
X77392857Y-98802380D01*
X77678571Y-98802380D02*
X77678571Y-97802380D01*
X77583333Y-97945238D01*
X77488095Y-98040476D01*
X77392857Y-98088095D01*
X78583333Y-97802380D02*
X78678571Y-97802380D01*
X78773809Y-97850000D01*
X78821428Y-97897619D01*
X78869047Y-97992857D01*
X78916666Y-98183333D01*
X78916666Y-98421428D01*
X78869047Y-98611904D01*
X78821428Y-98707142D01*
X78773809Y-98754761D01*
X78678571Y-98802380D01*
X78583333Y-98802380D01*
X78488095Y-98754761D01*
X78440476Y-98707142D01*
X78392857Y-98611904D01*
X78345238Y-98421428D01*
X78345238Y-98183333D01*
X78392857Y-97992857D01*
X78440476Y-97897619D01*
X78488095Y-97850000D01*
X78583333Y-97802380D01*
X79869047Y-98802380D02*
X79297619Y-98802380D01*
X79583333Y-98802380D02*
X79583333Y-97802380D01*
X79488095Y-97945238D01*
X79392857Y-98040476D01*
X79297619Y-98088095D01*
G04 #@! TO.C,U601*
X104485714Y-99252380D02*
X104485714Y-100061904D01*
X104533333Y-100157142D01*
X104580952Y-100204761D01*
X104676190Y-100252380D01*
X104866666Y-100252380D01*
X104961904Y-100204761D01*
X105009523Y-100157142D01*
X105057142Y-100061904D01*
X105057142Y-99252380D01*
X105961904Y-99252380D02*
X105771428Y-99252380D01*
X105676190Y-99300000D01*
X105628571Y-99347619D01*
X105533333Y-99490476D01*
X105485714Y-99680952D01*
X105485714Y-100061904D01*
X105533333Y-100157142D01*
X105580952Y-100204761D01*
X105676190Y-100252380D01*
X105866666Y-100252380D01*
X105961904Y-100204761D01*
X106009523Y-100157142D01*
X106057142Y-100061904D01*
X106057142Y-99823809D01*
X106009523Y-99728571D01*
X105961904Y-99680952D01*
X105866666Y-99633333D01*
X105676190Y-99633333D01*
X105580952Y-99680952D01*
X105533333Y-99728571D01*
X105485714Y-99823809D01*
X106676190Y-99252380D02*
X106771428Y-99252380D01*
X106866666Y-99300000D01*
X106914285Y-99347619D01*
X106961904Y-99442857D01*
X107009523Y-99633333D01*
X107009523Y-99871428D01*
X106961904Y-100061904D01*
X106914285Y-100157142D01*
X106866666Y-100204761D01*
X106771428Y-100252380D01*
X106676190Y-100252380D01*
X106580952Y-100204761D01*
X106533333Y-100157142D01*
X106485714Y-100061904D01*
X106438095Y-99871428D01*
X106438095Y-99633333D01*
X106485714Y-99442857D01*
X106533333Y-99347619D01*
X106580952Y-99300000D01*
X106676190Y-99252380D01*
X107961904Y-100252380D02*
X107390476Y-100252380D01*
X107676190Y-100252380D02*
X107676190Y-99252380D01*
X107580952Y-99395238D01*
X107485714Y-99490476D01*
X107390476Y-99538095D01*
G04 #@! TO.C,C301*
X107080952Y-195987142D02*
X107033333Y-196034761D01*
X106890476Y-196082380D01*
X106795238Y-196082380D01*
X106652380Y-196034761D01*
X106557142Y-195939523D01*
X106509523Y-195844285D01*
X106461904Y-195653809D01*
X106461904Y-195510952D01*
X106509523Y-195320476D01*
X106557142Y-195225238D01*
X106652380Y-195130000D01*
X106795238Y-195082380D01*
X106890476Y-195082380D01*
X107033333Y-195130000D01*
X107080952Y-195177619D01*
X107414285Y-195082380D02*
X108033333Y-195082380D01*
X107700000Y-195463333D01*
X107842857Y-195463333D01*
X107938095Y-195510952D01*
X107985714Y-195558571D01*
X108033333Y-195653809D01*
X108033333Y-195891904D01*
X107985714Y-195987142D01*
X107938095Y-196034761D01*
X107842857Y-196082380D01*
X107557142Y-196082380D01*
X107461904Y-196034761D01*
X107414285Y-195987142D01*
X108652380Y-195082380D02*
X108747619Y-195082380D01*
X108842857Y-195130000D01*
X108890476Y-195177619D01*
X108938095Y-195272857D01*
X108985714Y-195463333D01*
X108985714Y-195701428D01*
X108938095Y-195891904D01*
X108890476Y-195987142D01*
X108842857Y-196034761D01*
X108747619Y-196082380D01*
X108652380Y-196082380D01*
X108557142Y-196034761D01*
X108509523Y-195987142D01*
X108461904Y-195891904D01*
X108414285Y-195701428D01*
X108414285Y-195463333D01*
X108461904Y-195272857D01*
X108509523Y-195177619D01*
X108557142Y-195130000D01*
X108652380Y-195082380D01*
X109938095Y-196082380D02*
X109366666Y-196082380D01*
X109652380Y-196082380D02*
X109652380Y-195082380D01*
X109557142Y-195225238D01*
X109461904Y-195320476D01*
X109366666Y-195368095D01*
G04 #@! TO.C,C302*
X107093452Y-193387142D02*
X107045833Y-193434761D01*
X106902976Y-193482380D01*
X106807738Y-193482380D01*
X106664880Y-193434761D01*
X106569642Y-193339523D01*
X106522023Y-193244285D01*
X106474404Y-193053809D01*
X106474404Y-192910952D01*
X106522023Y-192720476D01*
X106569642Y-192625238D01*
X106664880Y-192530000D01*
X106807738Y-192482380D01*
X106902976Y-192482380D01*
X107045833Y-192530000D01*
X107093452Y-192577619D01*
X107426785Y-192482380D02*
X108045833Y-192482380D01*
X107712500Y-192863333D01*
X107855357Y-192863333D01*
X107950595Y-192910952D01*
X107998214Y-192958571D01*
X108045833Y-193053809D01*
X108045833Y-193291904D01*
X107998214Y-193387142D01*
X107950595Y-193434761D01*
X107855357Y-193482380D01*
X107569642Y-193482380D01*
X107474404Y-193434761D01*
X107426785Y-193387142D01*
X108664880Y-192482380D02*
X108760119Y-192482380D01*
X108855357Y-192530000D01*
X108902976Y-192577619D01*
X108950595Y-192672857D01*
X108998214Y-192863333D01*
X108998214Y-193101428D01*
X108950595Y-193291904D01*
X108902976Y-193387142D01*
X108855357Y-193434761D01*
X108760119Y-193482380D01*
X108664880Y-193482380D01*
X108569642Y-193434761D01*
X108522023Y-193387142D01*
X108474404Y-193291904D01*
X108426785Y-193101428D01*
X108426785Y-192863333D01*
X108474404Y-192672857D01*
X108522023Y-192577619D01*
X108569642Y-192530000D01*
X108664880Y-192482380D01*
X109379166Y-192577619D02*
X109426785Y-192530000D01*
X109522023Y-192482380D01*
X109760119Y-192482380D01*
X109855357Y-192530000D01*
X109902976Y-192577619D01*
X109950595Y-192672857D01*
X109950595Y-192768095D01*
X109902976Y-192910952D01*
X109331547Y-193482380D01*
X109950595Y-193482380D01*
G04 #@! TO.C,C303*
X109927142Y-191919047D02*
X109974761Y-191966666D01*
X110022380Y-192109523D01*
X110022380Y-192204761D01*
X109974761Y-192347619D01*
X109879523Y-192442857D01*
X109784285Y-192490476D01*
X109593809Y-192538095D01*
X109450952Y-192538095D01*
X109260476Y-192490476D01*
X109165238Y-192442857D01*
X109070000Y-192347619D01*
X109022380Y-192204761D01*
X109022380Y-192109523D01*
X109070000Y-191966666D01*
X109117619Y-191919047D01*
X109022380Y-191585714D02*
X109022380Y-190966666D01*
X109403333Y-191300000D01*
X109403333Y-191157142D01*
X109450952Y-191061904D01*
X109498571Y-191014285D01*
X109593809Y-190966666D01*
X109831904Y-190966666D01*
X109927142Y-191014285D01*
X109974761Y-191061904D01*
X110022380Y-191157142D01*
X110022380Y-191442857D01*
X109974761Y-191538095D01*
X109927142Y-191585714D01*
X109022380Y-190347619D02*
X109022380Y-190252380D01*
X109070000Y-190157142D01*
X109117619Y-190109523D01*
X109212857Y-190061904D01*
X109403333Y-190014285D01*
X109641428Y-190014285D01*
X109831904Y-190061904D01*
X109927142Y-190109523D01*
X109974761Y-190157142D01*
X110022380Y-190252380D01*
X110022380Y-190347619D01*
X109974761Y-190442857D01*
X109927142Y-190490476D01*
X109831904Y-190538095D01*
X109641428Y-190585714D01*
X109403333Y-190585714D01*
X109212857Y-190538095D01*
X109117619Y-190490476D01*
X109070000Y-190442857D01*
X109022380Y-190347619D01*
X109022380Y-189680952D02*
X109022380Y-189061904D01*
X109403333Y-189395238D01*
X109403333Y-189252380D01*
X109450952Y-189157142D01*
X109498571Y-189109523D01*
X109593809Y-189061904D01*
X109831904Y-189061904D01*
X109927142Y-189109523D01*
X109974761Y-189157142D01*
X110022380Y-189252380D01*
X110022380Y-189538095D01*
X109974761Y-189633333D01*
X109927142Y-189680952D01*
G04 #@! TO.C,C304*
X112787142Y-188719047D02*
X112834761Y-188766666D01*
X112882380Y-188909523D01*
X112882380Y-189004761D01*
X112834761Y-189147619D01*
X112739523Y-189242857D01*
X112644285Y-189290476D01*
X112453809Y-189338095D01*
X112310952Y-189338095D01*
X112120476Y-189290476D01*
X112025238Y-189242857D01*
X111930000Y-189147619D01*
X111882380Y-189004761D01*
X111882380Y-188909523D01*
X111930000Y-188766666D01*
X111977619Y-188719047D01*
X111882380Y-188385714D02*
X111882380Y-187766666D01*
X112263333Y-188100000D01*
X112263333Y-187957142D01*
X112310952Y-187861904D01*
X112358571Y-187814285D01*
X112453809Y-187766666D01*
X112691904Y-187766666D01*
X112787142Y-187814285D01*
X112834761Y-187861904D01*
X112882380Y-187957142D01*
X112882380Y-188242857D01*
X112834761Y-188338095D01*
X112787142Y-188385714D01*
X111882380Y-187147619D02*
X111882380Y-187052380D01*
X111930000Y-186957142D01*
X111977619Y-186909523D01*
X112072857Y-186861904D01*
X112263333Y-186814285D01*
X112501428Y-186814285D01*
X112691904Y-186861904D01*
X112787142Y-186909523D01*
X112834761Y-186957142D01*
X112882380Y-187052380D01*
X112882380Y-187147619D01*
X112834761Y-187242857D01*
X112787142Y-187290476D01*
X112691904Y-187338095D01*
X112501428Y-187385714D01*
X112263333Y-187385714D01*
X112072857Y-187338095D01*
X111977619Y-187290476D01*
X111930000Y-187242857D01*
X111882380Y-187147619D01*
X112215714Y-185957142D02*
X112882380Y-185957142D01*
X111834761Y-186195238D02*
X112549047Y-186433333D01*
X112549047Y-185814285D01*
G04 #@! TO.C,C305*
X101450952Y-195937142D02*
X101403333Y-195984761D01*
X101260476Y-196032380D01*
X101165238Y-196032380D01*
X101022380Y-195984761D01*
X100927142Y-195889523D01*
X100879523Y-195794285D01*
X100831904Y-195603809D01*
X100831904Y-195460952D01*
X100879523Y-195270476D01*
X100927142Y-195175238D01*
X101022380Y-195080000D01*
X101165238Y-195032380D01*
X101260476Y-195032380D01*
X101403333Y-195080000D01*
X101450952Y-195127619D01*
X101784285Y-195032380D02*
X102403333Y-195032380D01*
X102070000Y-195413333D01*
X102212857Y-195413333D01*
X102308095Y-195460952D01*
X102355714Y-195508571D01*
X102403333Y-195603809D01*
X102403333Y-195841904D01*
X102355714Y-195937142D01*
X102308095Y-195984761D01*
X102212857Y-196032380D01*
X101927142Y-196032380D01*
X101831904Y-195984761D01*
X101784285Y-195937142D01*
X103022380Y-195032380D02*
X103117619Y-195032380D01*
X103212857Y-195080000D01*
X103260476Y-195127619D01*
X103308095Y-195222857D01*
X103355714Y-195413333D01*
X103355714Y-195651428D01*
X103308095Y-195841904D01*
X103260476Y-195937142D01*
X103212857Y-195984761D01*
X103117619Y-196032380D01*
X103022380Y-196032380D01*
X102927142Y-195984761D01*
X102879523Y-195937142D01*
X102831904Y-195841904D01*
X102784285Y-195651428D01*
X102784285Y-195413333D01*
X102831904Y-195222857D01*
X102879523Y-195127619D01*
X102927142Y-195080000D01*
X103022380Y-195032380D01*
X104260476Y-195032380D02*
X103784285Y-195032380D01*
X103736666Y-195508571D01*
X103784285Y-195460952D01*
X103879523Y-195413333D01*
X104117619Y-195413333D01*
X104212857Y-195460952D01*
X104260476Y-195508571D01*
X104308095Y-195603809D01*
X104308095Y-195841904D01*
X104260476Y-195937142D01*
X104212857Y-195984761D01*
X104117619Y-196032380D01*
X103879523Y-196032380D01*
X103784285Y-195984761D01*
X103736666Y-195937142D01*
G04 #@! TO.C,C306*
X101450952Y-198987142D02*
X101403333Y-199034761D01*
X101260476Y-199082380D01*
X101165238Y-199082380D01*
X101022380Y-199034761D01*
X100927142Y-198939523D01*
X100879523Y-198844285D01*
X100831904Y-198653809D01*
X100831904Y-198510952D01*
X100879523Y-198320476D01*
X100927142Y-198225238D01*
X101022380Y-198130000D01*
X101165238Y-198082380D01*
X101260476Y-198082380D01*
X101403333Y-198130000D01*
X101450952Y-198177619D01*
X101784285Y-198082380D02*
X102403333Y-198082380D01*
X102070000Y-198463333D01*
X102212857Y-198463333D01*
X102308095Y-198510952D01*
X102355714Y-198558571D01*
X102403333Y-198653809D01*
X102403333Y-198891904D01*
X102355714Y-198987142D01*
X102308095Y-199034761D01*
X102212857Y-199082380D01*
X101927142Y-199082380D01*
X101831904Y-199034761D01*
X101784285Y-198987142D01*
X103022380Y-198082380D02*
X103117619Y-198082380D01*
X103212857Y-198130000D01*
X103260476Y-198177619D01*
X103308095Y-198272857D01*
X103355714Y-198463333D01*
X103355714Y-198701428D01*
X103308095Y-198891904D01*
X103260476Y-198987142D01*
X103212857Y-199034761D01*
X103117619Y-199082380D01*
X103022380Y-199082380D01*
X102927142Y-199034761D01*
X102879523Y-198987142D01*
X102831904Y-198891904D01*
X102784285Y-198701428D01*
X102784285Y-198463333D01*
X102831904Y-198272857D01*
X102879523Y-198177619D01*
X102927142Y-198130000D01*
X103022380Y-198082380D01*
X104212857Y-198082380D02*
X104022380Y-198082380D01*
X103927142Y-198130000D01*
X103879523Y-198177619D01*
X103784285Y-198320476D01*
X103736666Y-198510952D01*
X103736666Y-198891904D01*
X103784285Y-198987142D01*
X103831904Y-199034761D01*
X103927142Y-199082380D01*
X104117619Y-199082380D01*
X104212857Y-199034761D01*
X104260476Y-198987142D01*
X104308095Y-198891904D01*
X104308095Y-198653809D01*
X104260476Y-198558571D01*
X104212857Y-198510952D01*
X104117619Y-198463333D01*
X103927142Y-198463333D01*
X103831904Y-198510952D01*
X103784285Y-198558571D01*
X103736666Y-198653809D01*
G04 #@! TO.C,C309*
X111387142Y-203719047D02*
X111434761Y-203766666D01*
X111482380Y-203909523D01*
X111482380Y-204004761D01*
X111434761Y-204147619D01*
X111339523Y-204242857D01*
X111244285Y-204290476D01*
X111053809Y-204338095D01*
X110910952Y-204338095D01*
X110720476Y-204290476D01*
X110625238Y-204242857D01*
X110530000Y-204147619D01*
X110482380Y-204004761D01*
X110482380Y-203909523D01*
X110530000Y-203766666D01*
X110577619Y-203719047D01*
X110482380Y-203385714D02*
X110482380Y-202766666D01*
X110863333Y-203100000D01*
X110863333Y-202957142D01*
X110910952Y-202861904D01*
X110958571Y-202814285D01*
X111053809Y-202766666D01*
X111291904Y-202766666D01*
X111387142Y-202814285D01*
X111434761Y-202861904D01*
X111482380Y-202957142D01*
X111482380Y-203242857D01*
X111434761Y-203338095D01*
X111387142Y-203385714D01*
X110482380Y-202147619D02*
X110482380Y-202052380D01*
X110530000Y-201957142D01*
X110577619Y-201909523D01*
X110672857Y-201861904D01*
X110863333Y-201814285D01*
X111101428Y-201814285D01*
X111291904Y-201861904D01*
X111387142Y-201909523D01*
X111434761Y-201957142D01*
X111482380Y-202052380D01*
X111482380Y-202147619D01*
X111434761Y-202242857D01*
X111387142Y-202290476D01*
X111291904Y-202338095D01*
X111101428Y-202385714D01*
X110863333Y-202385714D01*
X110672857Y-202338095D01*
X110577619Y-202290476D01*
X110530000Y-202242857D01*
X110482380Y-202147619D01*
X111482380Y-201338095D02*
X111482380Y-201147619D01*
X111434761Y-201052380D01*
X111387142Y-201004761D01*
X111244285Y-200909523D01*
X111053809Y-200861904D01*
X110672857Y-200861904D01*
X110577619Y-200909523D01*
X110530000Y-200957142D01*
X110482380Y-201052380D01*
X110482380Y-201242857D01*
X110530000Y-201338095D01*
X110577619Y-201385714D01*
X110672857Y-201433333D01*
X110910952Y-201433333D01*
X111006190Y-201385714D01*
X111053809Y-201338095D01*
X111101428Y-201242857D01*
X111101428Y-201052380D01*
X111053809Y-200957142D01*
X111006190Y-200909523D01*
X110910952Y-200861904D01*
G04 #@! TO.C,C602*
X91560952Y-79007142D02*
X91513333Y-79054761D01*
X91370476Y-79102380D01*
X91275238Y-79102380D01*
X91132380Y-79054761D01*
X91037142Y-78959523D01*
X90989523Y-78864285D01*
X90941904Y-78673809D01*
X90941904Y-78530952D01*
X90989523Y-78340476D01*
X91037142Y-78245238D01*
X91132380Y-78150000D01*
X91275238Y-78102380D01*
X91370476Y-78102380D01*
X91513333Y-78150000D01*
X91560952Y-78197619D01*
X92418095Y-78102380D02*
X92227619Y-78102380D01*
X92132380Y-78150000D01*
X92084761Y-78197619D01*
X91989523Y-78340476D01*
X91941904Y-78530952D01*
X91941904Y-78911904D01*
X91989523Y-79007142D01*
X92037142Y-79054761D01*
X92132380Y-79102380D01*
X92322857Y-79102380D01*
X92418095Y-79054761D01*
X92465714Y-79007142D01*
X92513333Y-78911904D01*
X92513333Y-78673809D01*
X92465714Y-78578571D01*
X92418095Y-78530952D01*
X92322857Y-78483333D01*
X92132380Y-78483333D01*
X92037142Y-78530952D01*
X91989523Y-78578571D01*
X91941904Y-78673809D01*
X93132380Y-78102380D02*
X93227619Y-78102380D01*
X93322857Y-78150000D01*
X93370476Y-78197619D01*
X93418095Y-78292857D01*
X93465714Y-78483333D01*
X93465714Y-78721428D01*
X93418095Y-78911904D01*
X93370476Y-79007142D01*
X93322857Y-79054761D01*
X93227619Y-79102380D01*
X93132380Y-79102380D01*
X93037142Y-79054761D01*
X92989523Y-79007142D01*
X92941904Y-78911904D01*
X92894285Y-78721428D01*
X92894285Y-78483333D01*
X92941904Y-78292857D01*
X92989523Y-78197619D01*
X93037142Y-78150000D01*
X93132380Y-78102380D01*
X93846666Y-78197619D02*
X93894285Y-78150000D01*
X93989523Y-78102380D01*
X94227619Y-78102380D01*
X94322857Y-78150000D01*
X94370476Y-78197619D01*
X94418095Y-78292857D01*
X94418095Y-78388095D01*
X94370476Y-78530952D01*
X93799047Y-79102380D01*
X94418095Y-79102380D01*
G04 #@! TO.C,C511*
X94757142Y-58319047D02*
X94804761Y-58366666D01*
X94852380Y-58509523D01*
X94852380Y-58604761D01*
X94804761Y-58747619D01*
X94709523Y-58842857D01*
X94614285Y-58890476D01*
X94423809Y-58938095D01*
X94280952Y-58938095D01*
X94090476Y-58890476D01*
X93995238Y-58842857D01*
X93900000Y-58747619D01*
X93852380Y-58604761D01*
X93852380Y-58509523D01*
X93900000Y-58366666D01*
X93947619Y-58319047D01*
X93852380Y-57414285D02*
X93852380Y-57890476D01*
X94328571Y-57938095D01*
X94280952Y-57890476D01*
X94233333Y-57795238D01*
X94233333Y-57557142D01*
X94280952Y-57461904D01*
X94328571Y-57414285D01*
X94423809Y-57366666D01*
X94661904Y-57366666D01*
X94757142Y-57414285D01*
X94804761Y-57461904D01*
X94852380Y-57557142D01*
X94852380Y-57795238D01*
X94804761Y-57890476D01*
X94757142Y-57938095D01*
X94852380Y-56414285D02*
X94852380Y-56985714D01*
X94852380Y-56700000D02*
X93852380Y-56700000D01*
X93995238Y-56795238D01*
X94090476Y-56890476D01*
X94138095Y-56985714D01*
X94852380Y-55461904D02*
X94852380Y-56033333D01*
X94852380Y-55747619D02*
X93852380Y-55747619D01*
X93995238Y-55842857D01*
X94090476Y-55938095D01*
X94138095Y-56033333D01*
G04 #@! TO.C,C510*
X121757142Y-66319047D02*
X121804761Y-66366666D01*
X121852380Y-66509523D01*
X121852380Y-66604761D01*
X121804761Y-66747619D01*
X121709523Y-66842857D01*
X121614285Y-66890476D01*
X121423809Y-66938095D01*
X121280952Y-66938095D01*
X121090476Y-66890476D01*
X120995238Y-66842857D01*
X120900000Y-66747619D01*
X120852380Y-66604761D01*
X120852380Y-66509523D01*
X120900000Y-66366666D01*
X120947619Y-66319047D01*
X120852380Y-65414285D02*
X120852380Y-65890476D01*
X121328571Y-65938095D01*
X121280952Y-65890476D01*
X121233333Y-65795238D01*
X121233333Y-65557142D01*
X121280952Y-65461904D01*
X121328571Y-65414285D01*
X121423809Y-65366666D01*
X121661904Y-65366666D01*
X121757142Y-65414285D01*
X121804761Y-65461904D01*
X121852380Y-65557142D01*
X121852380Y-65795238D01*
X121804761Y-65890476D01*
X121757142Y-65938095D01*
X121852380Y-64414285D02*
X121852380Y-64985714D01*
X121852380Y-64700000D02*
X120852380Y-64700000D01*
X120995238Y-64795238D01*
X121090476Y-64890476D01*
X121138095Y-64985714D01*
X120852380Y-63795238D02*
X120852380Y-63700000D01*
X120900000Y-63604761D01*
X120947619Y-63557142D01*
X121042857Y-63509523D01*
X121233333Y-63461904D01*
X121471428Y-63461904D01*
X121661904Y-63509523D01*
X121757142Y-63557142D01*
X121804761Y-63604761D01*
X121852380Y-63700000D01*
X121852380Y-63795238D01*
X121804761Y-63890476D01*
X121757142Y-63938095D01*
X121661904Y-63985714D01*
X121471428Y-64033333D01*
X121233333Y-64033333D01*
X121042857Y-63985714D01*
X120947619Y-63938095D01*
X120900000Y-63890476D01*
X120852380Y-63795238D01*
G04 #@! TO.C,C509*
X113257142Y-52419047D02*
X113304761Y-52466666D01*
X113352380Y-52609523D01*
X113352380Y-52704761D01*
X113304761Y-52847619D01*
X113209523Y-52942857D01*
X113114285Y-52990476D01*
X112923809Y-53038095D01*
X112780952Y-53038095D01*
X112590476Y-52990476D01*
X112495238Y-52942857D01*
X112400000Y-52847619D01*
X112352380Y-52704761D01*
X112352380Y-52609523D01*
X112400000Y-52466666D01*
X112447619Y-52419047D01*
X112352380Y-51514285D02*
X112352380Y-51990476D01*
X112828571Y-52038095D01*
X112780952Y-51990476D01*
X112733333Y-51895238D01*
X112733333Y-51657142D01*
X112780952Y-51561904D01*
X112828571Y-51514285D01*
X112923809Y-51466666D01*
X113161904Y-51466666D01*
X113257142Y-51514285D01*
X113304761Y-51561904D01*
X113352380Y-51657142D01*
X113352380Y-51895238D01*
X113304761Y-51990476D01*
X113257142Y-52038095D01*
X112352380Y-50847619D02*
X112352380Y-50752380D01*
X112400000Y-50657142D01*
X112447619Y-50609523D01*
X112542857Y-50561904D01*
X112733333Y-50514285D01*
X112971428Y-50514285D01*
X113161904Y-50561904D01*
X113257142Y-50609523D01*
X113304761Y-50657142D01*
X113352380Y-50752380D01*
X113352380Y-50847619D01*
X113304761Y-50942857D01*
X113257142Y-50990476D01*
X113161904Y-51038095D01*
X112971428Y-51085714D01*
X112733333Y-51085714D01*
X112542857Y-51038095D01*
X112447619Y-50990476D01*
X112400000Y-50942857D01*
X112352380Y-50847619D01*
X113352380Y-50038095D02*
X113352380Y-49847619D01*
X113304761Y-49752380D01*
X113257142Y-49704761D01*
X113114285Y-49609523D01*
X112923809Y-49561904D01*
X112542857Y-49561904D01*
X112447619Y-49609523D01*
X112400000Y-49657142D01*
X112352380Y-49752380D01*
X112352380Y-49942857D01*
X112400000Y-50038095D01*
X112447619Y-50085714D01*
X112542857Y-50133333D01*
X112780952Y-50133333D01*
X112876190Y-50085714D01*
X112923809Y-50038095D01*
X112971428Y-49942857D01*
X112971428Y-49752380D01*
X112923809Y-49657142D01*
X112876190Y-49609523D01*
X112780952Y-49561904D01*
G04 #@! TO.C,C508*
X116587142Y-59119047D02*
X116634761Y-59166666D01*
X116682380Y-59309523D01*
X116682380Y-59404761D01*
X116634761Y-59547619D01*
X116539523Y-59642857D01*
X116444285Y-59690476D01*
X116253809Y-59738095D01*
X116110952Y-59738095D01*
X115920476Y-59690476D01*
X115825238Y-59642857D01*
X115730000Y-59547619D01*
X115682380Y-59404761D01*
X115682380Y-59309523D01*
X115730000Y-59166666D01*
X115777619Y-59119047D01*
X115682380Y-58214285D02*
X115682380Y-58690476D01*
X116158571Y-58738095D01*
X116110952Y-58690476D01*
X116063333Y-58595238D01*
X116063333Y-58357142D01*
X116110952Y-58261904D01*
X116158571Y-58214285D01*
X116253809Y-58166666D01*
X116491904Y-58166666D01*
X116587142Y-58214285D01*
X116634761Y-58261904D01*
X116682380Y-58357142D01*
X116682380Y-58595238D01*
X116634761Y-58690476D01*
X116587142Y-58738095D01*
X115682380Y-57547619D02*
X115682380Y-57452380D01*
X115730000Y-57357142D01*
X115777619Y-57309523D01*
X115872857Y-57261904D01*
X116063333Y-57214285D01*
X116301428Y-57214285D01*
X116491904Y-57261904D01*
X116587142Y-57309523D01*
X116634761Y-57357142D01*
X116682380Y-57452380D01*
X116682380Y-57547619D01*
X116634761Y-57642857D01*
X116587142Y-57690476D01*
X116491904Y-57738095D01*
X116301428Y-57785714D01*
X116063333Y-57785714D01*
X115872857Y-57738095D01*
X115777619Y-57690476D01*
X115730000Y-57642857D01*
X115682380Y-57547619D01*
X116110952Y-56642857D02*
X116063333Y-56738095D01*
X116015714Y-56785714D01*
X115920476Y-56833333D01*
X115872857Y-56833333D01*
X115777619Y-56785714D01*
X115730000Y-56738095D01*
X115682380Y-56642857D01*
X115682380Y-56452380D01*
X115730000Y-56357142D01*
X115777619Y-56309523D01*
X115872857Y-56261904D01*
X115920476Y-56261904D01*
X116015714Y-56309523D01*
X116063333Y-56357142D01*
X116110952Y-56452380D01*
X116110952Y-56642857D01*
X116158571Y-56738095D01*
X116206190Y-56785714D01*
X116301428Y-56833333D01*
X116491904Y-56833333D01*
X116587142Y-56785714D01*
X116634761Y-56738095D01*
X116682380Y-56642857D01*
X116682380Y-56452380D01*
X116634761Y-56357142D01*
X116587142Y-56309523D01*
X116491904Y-56261904D01*
X116301428Y-56261904D01*
X116206190Y-56309523D01*
X116158571Y-56357142D01*
X116110952Y-56452380D01*
G04 #@! TO.C,C507*
X114480952Y-62787142D02*
X114433333Y-62834761D01*
X114290476Y-62882380D01*
X114195238Y-62882380D01*
X114052380Y-62834761D01*
X113957142Y-62739523D01*
X113909523Y-62644285D01*
X113861904Y-62453809D01*
X113861904Y-62310952D01*
X113909523Y-62120476D01*
X113957142Y-62025238D01*
X114052380Y-61930000D01*
X114195238Y-61882380D01*
X114290476Y-61882380D01*
X114433333Y-61930000D01*
X114480952Y-61977619D01*
X115385714Y-61882380D02*
X114909523Y-61882380D01*
X114861904Y-62358571D01*
X114909523Y-62310952D01*
X115004761Y-62263333D01*
X115242857Y-62263333D01*
X115338095Y-62310952D01*
X115385714Y-62358571D01*
X115433333Y-62453809D01*
X115433333Y-62691904D01*
X115385714Y-62787142D01*
X115338095Y-62834761D01*
X115242857Y-62882380D01*
X115004761Y-62882380D01*
X114909523Y-62834761D01*
X114861904Y-62787142D01*
X116052380Y-61882380D02*
X116147619Y-61882380D01*
X116242857Y-61930000D01*
X116290476Y-61977619D01*
X116338095Y-62072857D01*
X116385714Y-62263333D01*
X116385714Y-62501428D01*
X116338095Y-62691904D01*
X116290476Y-62787142D01*
X116242857Y-62834761D01*
X116147619Y-62882380D01*
X116052380Y-62882380D01*
X115957142Y-62834761D01*
X115909523Y-62787142D01*
X115861904Y-62691904D01*
X115814285Y-62501428D01*
X115814285Y-62263333D01*
X115861904Y-62072857D01*
X115909523Y-61977619D01*
X115957142Y-61930000D01*
X116052380Y-61882380D01*
X116719047Y-61882380D02*
X117385714Y-61882380D01*
X116957142Y-62882380D01*
G04 #@! TO.C,C407*
X91580952Y-167827142D02*
X91533333Y-167874761D01*
X91390476Y-167922380D01*
X91295238Y-167922380D01*
X91152380Y-167874761D01*
X91057142Y-167779523D01*
X91009523Y-167684285D01*
X90961904Y-167493809D01*
X90961904Y-167350952D01*
X91009523Y-167160476D01*
X91057142Y-167065238D01*
X91152380Y-166970000D01*
X91295238Y-166922380D01*
X91390476Y-166922380D01*
X91533333Y-166970000D01*
X91580952Y-167017619D01*
X92438095Y-167255714D02*
X92438095Y-167922380D01*
X92200000Y-166874761D02*
X91961904Y-167589047D01*
X92580952Y-167589047D01*
X93152380Y-166922380D02*
X93247619Y-166922380D01*
X93342857Y-166970000D01*
X93390476Y-167017619D01*
X93438095Y-167112857D01*
X93485714Y-167303333D01*
X93485714Y-167541428D01*
X93438095Y-167731904D01*
X93390476Y-167827142D01*
X93342857Y-167874761D01*
X93247619Y-167922380D01*
X93152380Y-167922380D01*
X93057142Y-167874761D01*
X93009523Y-167827142D01*
X92961904Y-167731904D01*
X92914285Y-167541428D01*
X92914285Y-167303333D01*
X92961904Y-167112857D01*
X93009523Y-167017619D01*
X93057142Y-166970000D01*
X93152380Y-166922380D01*
X93819047Y-166922380D02*
X94485714Y-166922380D01*
X94057142Y-167922380D01*
G04 #@! TO.C,C604*
X100492952Y-96327142D02*
X100445333Y-96374761D01*
X100302476Y-96422380D01*
X100207238Y-96422380D01*
X100064380Y-96374761D01*
X99969142Y-96279523D01*
X99921523Y-96184285D01*
X99873904Y-95993809D01*
X99873904Y-95850952D01*
X99921523Y-95660476D01*
X99969142Y-95565238D01*
X100064380Y-95470000D01*
X100207238Y-95422380D01*
X100302476Y-95422380D01*
X100445333Y-95470000D01*
X100492952Y-95517619D01*
X101350095Y-95422380D02*
X101159619Y-95422380D01*
X101064380Y-95470000D01*
X101016761Y-95517619D01*
X100921523Y-95660476D01*
X100873904Y-95850952D01*
X100873904Y-96231904D01*
X100921523Y-96327142D01*
X100969142Y-96374761D01*
X101064380Y-96422380D01*
X101254857Y-96422380D01*
X101350095Y-96374761D01*
X101397714Y-96327142D01*
X101445333Y-96231904D01*
X101445333Y-95993809D01*
X101397714Y-95898571D01*
X101350095Y-95850952D01*
X101254857Y-95803333D01*
X101064380Y-95803333D01*
X100969142Y-95850952D01*
X100921523Y-95898571D01*
X100873904Y-95993809D01*
X102064380Y-95422380D02*
X102159619Y-95422380D01*
X102254857Y-95470000D01*
X102302476Y-95517619D01*
X102350095Y-95612857D01*
X102397714Y-95803333D01*
X102397714Y-96041428D01*
X102350095Y-96231904D01*
X102302476Y-96327142D01*
X102254857Y-96374761D01*
X102159619Y-96422380D01*
X102064380Y-96422380D01*
X101969142Y-96374761D01*
X101921523Y-96327142D01*
X101873904Y-96231904D01*
X101826285Y-96041428D01*
X101826285Y-95803333D01*
X101873904Y-95612857D01*
X101921523Y-95517619D01*
X101969142Y-95470000D01*
X102064380Y-95422380D01*
X103254857Y-95755714D02*
X103254857Y-96422380D01*
X103016761Y-95374761D02*
X102778666Y-96089047D01*
X103397714Y-96089047D01*
G04 #@! TO.C,C501*
X106127142Y-60719047D02*
X106174761Y-60766666D01*
X106222380Y-60909523D01*
X106222380Y-61004761D01*
X106174761Y-61147619D01*
X106079523Y-61242857D01*
X105984285Y-61290476D01*
X105793809Y-61338095D01*
X105650952Y-61338095D01*
X105460476Y-61290476D01*
X105365238Y-61242857D01*
X105270000Y-61147619D01*
X105222380Y-61004761D01*
X105222380Y-60909523D01*
X105270000Y-60766666D01*
X105317619Y-60719047D01*
X105222380Y-59814285D02*
X105222380Y-60290476D01*
X105698571Y-60338095D01*
X105650952Y-60290476D01*
X105603333Y-60195238D01*
X105603333Y-59957142D01*
X105650952Y-59861904D01*
X105698571Y-59814285D01*
X105793809Y-59766666D01*
X106031904Y-59766666D01*
X106127142Y-59814285D01*
X106174761Y-59861904D01*
X106222380Y-59957142D01*
X106222380Y-60195238D01*
X106174761Y-60290476D01*
X106127142Y-60338095D01*
X105222380Y-59147619D02*
X105222380Y-59052380D01*
X105270000Y-58957142D01*
X105317619Y-58909523D01*
X105412857Y-58861904D01*
X105603333Y-58814285D01*
X105841428Y-58814285D01*
X106031904Y-58861904D01*
X106127142Y-58909523D01*
X106174761Y-58957142D01*
X106222380Y-59052380D01*
X106222380Y-59147619D01*
X106174761Y-59242857D01*
X106127142Y-59290476D01*
X106031904Y-59338095D01*
X105841428Y-59385714D01*
X105603333Y-59385714D01*
X105412857Y-59338095D01*
X105317619Y-59290476D01*
X105270000Y-59242857D01*
X105222380Y-59147619D01*
X106222380Y-57861904D02*
X106222380Y-58433333D01*
X106222380Y-58147619D02*
X105222380Y-58147619D01*
X105365238Y-58242857D01*
X105460476Y-58338095D01*
X105508095Y-58433333D01*
G04 #@! TO.C,C502*
X103127142Y-61331547D02*
X103174761Y-61379166D01*
X103222380Y-61522023D01*
X103222380Y-61617261D01*
X103174761Y-61760119D01*
X103079523Y-61855357D01*
X102984285Y-61902976D01*
X102793809Y-61950595D01*
X102650952Y-61950595D01*
X102460476Y-61902976D01*
X102365238Y-61855357D01*
X102270000Y-61760119D01*
X102222380Y-61617261D01*
X102222380Y-61522023D01*
X102270000Y-61379166D01*
X102317619Y-61331547D01*
X102222380Y-60426785D02*
X102222380Y-60902976D01*
X102698571Y-60950595D01*
X102650952Y-60902976D01*
X102603333Y-60807738D01*
X102603333Y-60569642D01*
X102650952Y-60474404D01*
X102698571Y-60426785D01*
X102793809Y-60379166D01*
X103031904Y-60379166D01*
X103127142Y-60426785D01*
X103174761Y-60474404D01*
X103222380Y-60569642D01*
X103222380Y-60807738D01*
X103174761Y-60902976D01*
X103127142Y-60950595D01*
X102222380Y-59760119D02*
X102222380Y-59664880D01*
X102270000Y-59569642D01*
X102317619Y-59522023D01*
X102412857Y-59474404D01*
X102603333Y-59426785D01*
X102841428Y-59426785D01*
X103031904Y-59474404D01*
X103127142Y-59522023D01*
X103174761Y-59569642D01*
X103222380Y-59664880D01*
X103222380Y-59760119D01*
X103174761Y-59855357D01*
X103127142Y-59902976D01*
X103031904Y-59950595D01*
X102841428Y-59998214D01*
X102603333Y-59998214D01*
X102412857Y-59950595D01*
X102317619Y-59902976D01*
X102270000Y-59855357D01*
X102222380Y-59760119D01*
X102317619Y-59045833D02*
X102270000Y-58998214D01*
X102222380Y-58902976D01*
X102222380Y-58664880D01*
X102270000Y-58569642D01*
X102317619Y-58522023D01*
X102412857Y-58474404D01*
X102508095Y-58474404D01*
X102650952Y-58522023D01*
X103222380Y-59093452D01*
X103222380Y-58474404D01*
G04 #@! TO.C,C503*
X103980952Y-47557142D02*
X103933333Y-47604761D01*
X103790476Y-47652380D01*
X103695238Y-47652380D01*
X103552380Y-47604761D01*
X103457142Y-47509523D01*
X103409523Y-47414285D01*
X103361904Y-47223809D01*
X103361904Y-47080952D01*
X103409523Y-46890476D01*
X103457142Y-46795238D01*
X103552380Y-46700000D01*
X103695238Y-46652380D01*
X103790476Y-46652380D01*
X103933333Y-46700000D01*
X103980952Y-46747619D01*
X104885714Y-46652380D02*
X104409523Y-46652380D01*
X104361904Y-47128571D01*
X104409523Y-47080952D01*
X104504761Y-47033333D01*
X104742857Y-47033333D01*
X104838095Y-47080952D01*
X104885714Y-47128571D01*
X104933333Y-47223809D01*
X104933333Y-47461904D01*
X104885714Y-47557142D01*
X104838095Y-47604761D01*
X104742857Y-47652380D01*
X104504761Y-47652380D01*
X104409523Y-47604761D01*
X104361904Y-47557142D01*
X105552380Y-46652380D02*
X105647619Y-46652380D01*
X105742857Y-46700000D01*
X105790476Y-46747619D01*
X105838095Y-46842857D01*
X105885714Y-47033333D01*
X105885714Y-47271428D01*
X105838095Y-47461904D01*
X105790476Y-47557142D01*
X105742857Y-47604761D01*
X105647619Y-47652380D01*
X105552380Y-47652380D01*
X105457142Y-47604761D01*
X105409523Y-47557142D01*
X105361904Y-47461904D01*
X105314285Y-47271428D01*
X105314285Y-47033333D01*
X105361904Y-46842857D01*
X105409523Y-46747619D01*
X105457142Y-46700000D01*
X105552380Y-46652380D01*
X106219047Y-46652380D02*
X106838095Y-46652380D01*
X106504761Y-47033333D01*
X106647619Y-47033333D01*
X106742857Y-47080952D01*
X106790476Y-47128571D01*
X106838095Y-47223809D01*
X106838095Y-47461904D01*
X106790476Y-47557142D01*
X106742857Y-47604761D01*
X106647619Y-47652380D01*
X106361904Y-47652380D01*
X106266666Y-47604761D01*
X106219047Y-47557142D01*
G04 #@! TO.C,C504*
X100557142Y-51319047D02*
X100604761Y-51366666D01*
X100652380Y-51509523D01*
X100652380Y-51604761D01*
X100604761Y-51747619D01*
X100509523Y-51842857D01*
X100414285Y-51890476D01*
X100223809Y-51938095D01*
X100080952Y-51938095D01*
X99890476Y-51890476D01*
X99795238Y-51842857D01*
X99700000Y-51747619D01*
X99652380Y-51604761D01*
X99652380Y-51509523D01*
X99700000Y-51366666D01*
X99747619Y-51319047D01*
X99652380Y-50414285D02*
X99652380Y-50890476D01*
X100128571Y-50938095D01*
X100080952Y-50890476D01*
X100033333Y-50795238D01*
X100033333Y-50557142D01*
X100080952Y-50461904D01*
X100128571Y-50414285D01*
X100223809Y-50366666D01*
X100461904Y-50366666D01*
X100557142Y-50414285D01*
X100604761Y-50461904D01*
X100652380Y-50557142D01*
X100652380Y-50795238D01*
X100604761Y-50890476D01*
X100557142Y-50938095D01*
X99652380Y-49747619D02*
X99652380Y-49652380D01*
X99700000Y-49557142D01*
X99747619Y-49509523D01*
X99842857Y-49461904D01*
X100033333Y-49414285D01*
X100271428Y-49414285D01*
X100461904Y-49461904D01*
X100557142Y-49509523D01*
X100604761Y-49557142D01*
X100652380Y-49652380D01*
X100652380Y-49747619D01*
X100604761Y-49842857D01*
X100557142Y-49890476D01*
X100461904Y-49938095D01*
X100271428Y-49985714D01*
X100033333Y-49985714D01*
X99842857Y-49938095D01*
X99747619Y-49890476D01*
X99700000Y-49842857D01*
X99652380Y-49747619D01*
X99985714Y-48557142D02*
X100652380Y-48557142D01*
X99604761Y-48795238D02*
X100319047Y-49033333D01*
X100319047Y-48414285D01*
G04 #@! TO.C,C505*
X82757142Y-66719047D02*
X82804761Y-66766666D01*
X82852380Y-66909523D01*
X82852380Y-67004761D01*
X82804761Y-67147619D01*
X82709523Y-67242857D01*
X82614285Y-67290476D01*
X82423809Y-67338095D01*
X82280952Y-67338095D01*
X82090476Y-67290476D01*
X81995238Y-67242857D01*
X81900000Y-67147619D01*
X81852380Y-67004761D01*
X81852380Y-66909523D01*
X81900000Y-66766666D01*
X81947619Y-66719047D01*
X81852380Y-65814285D02*
X81852380Y-66290476D01*
X82328571Y-66338095D01*
X82280952Y-66290476D01*
X82233333Y-66195238D01*
X82233333Y-65957142D01*
X82280952Y-65861904D01*
X82328571Y-65814285D01*
X82423809Y-65766666D01*
X82661904Y-65766666D01*
X82757142Y-65814285D01*
X82804761Y-65861904D01*
X82852380Y-65957142D01*
X82852380Y-66195238D01*
X82804761Y-66290476D01*
X82757142Y-66338095D01*
X81852380Y-65147619D02*
X81852380Y-65052380D01*
X81900000Y-64957142D01*
X81947619Y-64909523D01*
X82042857Y-64861904D01*
X82233333Y-64814285D01*
X82471428Y-64814285D01*
X82661904Y-64861904D01*
X82757142Y-64909523D01*
X82804761Y-64957142D01*
X82852380Y-65052380D01*
X82852380Y-65147619D01*
X82804761Y-65242857D01*
X82757142Y-65290476D01*
X82661904Y-65338095D01*
X82471428Y-65385714D01*
X82233333Y-65385714D01*
X82042857Y-65338095D01*
X81947619Y-65290476D01*
X81900000Y-65242857D01*
X81852380Y-65147619D01*
X81852380Y-63909523D02*
X81852380Y-64385714D01*
X82328571Y-64433333D01*
X82280952Y-64385714D01*
X82233333Y-64290476D01*
X82233333Y-64052380D01*
X82280952Y-63957142D01*
X82328571Y-63909523D01*
X82423809Y-63861904D01*
X82661904Y-63861904D01*
X82757142Y-63909523D01*
X82804761Y-63957142D01*
X82852380Y-64052380D01*
X82852380Y-64290476D01*
X82804761Y-64385714D01*
X82757142Y-64433333D01*
G04 #@! TO.C,C506*
X90980952Y-72857142D02*
X90933333Y-72904761D01*
X90790476Y-72952380D01*
X90695238Y-72952380D01*
X90552380Y-72904761D01*
X90457142Y-72809523D01*
X90409523Y-72714285D01*
X90361904Y-72523809D01*
X90361904Y-72380952D01*
X90409523Y-72190476D01*
X90457142Y-72095238D01*
X90552380Y-72000000D01*
X90695238Y-71952380D01*
X90790476Y-71952380D01*
X90933333Y-72000000D01*
X90980952Y-72047619D01*
X91885714Y-71952380D02*
X91409523Y-71952380D01*
X91361904Y-72428571D01*
X91409523Y-72380952D01*
X91504761Y-72333333D01*
X91742857Y-72333333D01*
X91838095Y-72380952D01*
X91885714Y-72428571D01*
X91933333Y-72523809D01*
X91933333Y-72761904D01*
X91885714Y-72857142D01*
X91838095Y-72904761D01*
X91742857Y-72952380D01*
X91504761Y-72952380D01*
X91409523Y-72904761D01*
X91361904Y-72857142D01*
X92552380Y-71952380D02*
X92647619Y-71952380D01*
X92742857Y-72000000D01*
X92790476Y-72047619D01*
X92838095Y-72142857D01*
X92885714Y-72333333D01*
X92885714Y-72571428D01*
X92838095Y-72761904D01*
X92790476Y-72857142D01*
X92742857Y-72904761D01*
X92647619Y-72952380D01*
X92552380Y-72952380D01*
X92457142Y-72904761D01*
X92409523Y-72857142D01*
X92361904Y-72761904D01*
X92314285Y-72571428D01*
X92314285Y-72333333D01*
X92361904Y-72142857D01*
X92409523Y-72047619D01*
X92457142Y-72000000D01*
X92552380Y-71952380D01*
X93742857Y-71952380D02*
X93552380Y-71952380D01*
X93457142Y-72000000D01*
X93409523Y-72047619D01*
X93314285Y-72190476D01*
X93266666Y-72380952D01*
X93266666Y-72761904D01*
X93314285Y-72857142D01*
X93361904Y-72904761D01*
X93457142Y-72952380D01*
X93647619Y-72952380D01*
X93742857Y-72904761D01*
X93790476Y-72857142D01*
X93838095Y-72761904D01*
X93838095Y-72523809D01*
X93790476Y-72428571D01*
X93742857Y-72380952D01*
X93647619Y-72333333D01*
X93457142Y-72333333D01*
X93361904Y-72380952D01*
X93314285Y-72428571D01*
X93266666Y-72523809D01*
G04 #@! TO.C,C101*
X120380952Y-100157142D02*
X120333333Y-100204761D01*
X120190476Y-100252380D01*
X120095238Y-100252380D01*
X119952380Y-100204761D01*
X119857142Y-100109523D01*
X119809523Y-100014285D01*
X119761904Y-99823809D01*
X119761904Y-99680952D01*
X119809523Y-99490476D01*
X119857142Y-99395238D01*
X119952380Y-99300000D01*
X120095238Y-99252380D01*
X120190476Y-99252380D01*
X120333333Y-99300000D01*
X120380952Y-99347619D01*
X121333333Y-100252380D02*
X120761904Y-100252380D01*
X121047619Y-100252380D02*
X121047619Y-99252380D01*
X120952380Y-99395238D01*
X120857142Y-99490476D01*
X120761904Y-99538095D01*
X121952380Y-99252380D02*
X122047619Y-99252380D01*
X122142857Y-99300000D01*
X122190476Y-99347619D01*
X122238095Y-99442857D01*
X122285714Y-99633333D01*
X122285714Y-99871428D01*
X122238095Y-100061904D01*
X122190476Y-100157142D01*
X122142857Y-100204761D01*
X122047619Y-100252380D01*
X121952380Y-100252380D01*
X121857142Y-100204761D01*
X121809523Y-100157142D01*
X121761904Y-100061904D01*
X121714285Y-99871428D01*
X121714285Y-99633333D01*
X121761904Y-99442857D01*
X121809523Y-99347619D01*
X121857142Y-99300000D01*
X121952380Y-99252380D01*
X123238095Y-100252380D02*
X122666666Y-100252380D01*
X122952380Y-100252380D02*
X122952380Y-99252380D01*
X122857142Y-99395238D01*
X122761904Y-99490476D01*
X122666666Y-99538095D01*
G04 #@! TO.C,C102*
X112680952Y-102657142D02*
X112633333Y-102704761D01*
X112490476Y-102752380D01*
X112395238Y-102752380D01*
X112252380Y-102704761D01*
X112157142Y-102609523D01*
X112109523Y-102514285D01*
X112061904Y-102323809D01*
X112061904Y-102180952D01*
X112109523Y-101990476D01*
X112157142Y-101895238D01*
X112252380Y-101800000D01*
X112395238Y-101752380D01*
X112490476Y-101752380D01*
X112633333Y-101800000D01*
X112680952Y-101847619D01*
X113633333Y-102752380D02*
X113061904Y-102752380D01*
X113347619Y-102752380D02*
X113347619Y-101752380D01*
X113252380Y-101895238D01*
X113157142Y-101990476D01*
X113061904Y-102038095D01*
X114252380Y-101752380D02*
X114347619Y-101752380D01*
X114442857Y-101800000D01*
X114490476Y-101847619D01*
X114538095Y-101942857D01*
X114585714Y-102133333D01*
X114585714Y-102371428D01*
X114538095Y-102561904D01*
X114490476Y-102657142D01*
X114442857Y-102704761D01*
X114347619Y-102752380D01*
X114252380Y-102752380D01*
X114157142Y-102704761D01*
X114109523Y-102657142D01*
X114061904Y-102561904D01*
X114014285Y-102371428D01*
X114014285Y-102133333D01*
X114061904Y-101942857D01*
X114109523Y-101847619D01*
X114157142Y-101800000D01*
X114252380Y-101752380D01*
X114966666Y-101847619D02*
X115014285Y-101800000D01*
X115109523Y-101752380D01*
X115347619Y-101752380D01*
X115442857Y-101800000D01*
X115490476Y-101847619D01*
X115538095Y-101942857D01*
X115538095Y-102038095D01*
X115490476Y-102180952D01*
X114919047Y-102752380D01*
X115538095Y-102752380D01*
G04 #@! TO.C,C406*
X96880952Y-145757142D02*
X96833333Y-145804761D01*
X96690476Y-145852380D01*
X96595238Y-145852380D01*
X96452380Y-145804761D01*
X96357142Y-145709523D01*
X96309523Y-145614285D01*
X96261904Y-145423809D01*
X96261904Y-145280952D01*
X96309523Y-145090476D01*
X96357142Y-144995238D01*
X96452380Y-144900000D01*
X96595238Y-144852380D01*
X96690476Y-144852380D01*
X96833333Y-144900000D01*
X96880952Y-144947619D01*
X97738095Y-145185714D02*
X97738095Y-145852380D01*
X97500000Y-144804761D02*
X97261904Y-145519047D01*
X97880952Y-145519047D01*
X98452380Y-144852380D02*
X98547619Y-144852380D01*
X98642857Y-144900000D01*
X98690476Y-144947619D01*
X98738095Y-145042857D01*
X98785714Y-145233333D01*
X98785714Y-145471428D01*
X98738095Y-145661904D01*
X98690476Y-145757142D01*
X98642857Y-145804761D01*
X98547619Y-145852380D01*
X98452380Y-145852380D01*
X98357142Y-145804761D01*
X98309523Y-145757142D01*
X98261904Y-145661904D01*
X98214285Y-145471428D01*
X98214285Y-145233333D01*
X98261904Y-145042857D01*
X98309523Y-144947619D01*
X98357142Y-144900000D01*
X98452380Y-144852380D01*
X99642857Y-144852380D02*
X99452380Y-144852380D01*
X99357142Y-144900000D01*
X99309523Y-144947619D01*
X99214285Y-145090476D01*
X99166666Y-145280952D01*
X99166666Y-145661904D01*
X99214285Y-145757142D01*
X99261904Y-145804761D01*
X99357142Y-145852380D01*
X99547619Y-145852380D01*
X99642857Y-145804761D01*
X99690476Y-145757142D01*
X99738095Y-145661904D01*
X99738095Y-145423809D01*
X99690476Y-145328571D01*
X99642857Y-145280952D01*
X99547619Y-145233333D01*
X99357142Y-145233333D01*
X99261904Y-145280952D01*
X99214285Y-145328571D01*
X99166666Y-145423809D01*
G04 #@! TO.C,C405*
X89977142Y-135519047D02*
X90024761Y-135566666D01*
X90072380Y-135709523D01*
X90072380Y-135804761D01*
X90024761Y-135947619D01*
X89929523Y-136042857D01*
X89834285Y-136090476D01*
X89643809Y-136138095D01*
X89500952Y-136138095D01*
X89310476Y-136090476D01*
X89215238Y-136042857D01*
X89120000Y-135947619D01*
X89072380Y-135804761D01*
X89072380Y-135709523D01*
X89120000Y-135566666D01*
X89167619Y-135519047D01*
X89405714Y-134661904D02*
X90072380Y-134661904D01*
X89024761Y-134900000D02*
X89739047Y-135138095D01*
X89739047Y-134519047D01*
X89072380Y-133947619D02*
X89072380Y-133852380D01*
X89120000Y-133757142D01*
X89167619Y-133709523D01*
X89262857Y-133661904D01*
X89453333Y-133614285D01*
X89691428Y-133614285D01*
X89881904Y-133661904D01*
X89977142Y-133709523D01*
X90024761Y-133757142D01*
X90072380Y-133852380D01*
X90072380Y-133947619D01*
X90024761Y-134042857D01*
X89977142Y-134090476D01*
X89881904Y-134138095D01*
X89691428Y-134185714D01*
X89453333Y-134185714D01*
X89262857Y-134138095D01*
X89167619Y-134090476D01*
X89120000Y-134042857D01*
X89072380Y-133947619D01*
X89072380Y-132709523D02*
X89072380Y-133185714D01*
X89548571Y-133233333D01*
X89500952Y-133185714D01*
X89453333Y-133090476D01*
X89453333Y-132852380D01*
X89500952Y-132757142D01*
X89548571Y-132709523D01*
X89643809Y-132661904D01*
X89881904Y-132661904D01*
X89977142Y-132709523D01*
X90024761Y-132757142D01*
X90072380Y-132852380D01*
X90072380Y-133090476D01*
X90024761Y-133185714D01*
X89977142Y-133233333D01*
G04 #@! TO.C,C404*
X96980952Y-141357142D02*
X96933333Y-141404761D01*
X96790476Y-141452380D01*
X96695238Y-141452380D01*
X96552380Y-141404761D01*
X96457142Y-141309523D01*
X96409523Y-141214285D01*
X96361904Y-141023809D01*
X96361904Y-140880952D01*
X96409523Y-140690476D01*
X96457142Y-140595238D01*
X96552380Y-140500000D01*
X96695238Y-140452380D01*
X96790476Y-140452380D01*
X96933333Y-140500000D01*
X96980952Y-140547619D01*
X97838095Y-140785714D02*
X97838095Y-141452380D01*
X97600000Y-140404761D02*
X97361904Y-141119047D01*
X97980952Y-141119047D01*
X98552380Y-140452380D02*
X98647619Y-140452380D01*
X98742857Y-140500000D01*
X98790476Y-140547619D01*
X98838095Y-140642857D01*
X98885714Y-140833333D01*
X98885714Y-141071428D01*
X98838095Y-141261904D01*
X98790476Y-141357142D01*
X98742857Y-141404761D01*
X98647619Y-141452380D01*
X98552380Y-141452380D01*
X98457142Y-141404761D01*
X98409523Y-141357142D01*
X98361904Y-141261904D01*
X98314285Y-141071428D01*
X98314285Y-140833333D01*
X98361904Y-140642857D01*
X98409523Y-140547619D01*
X98457142Y-140500000D01*
X98552380Y-140452380D01*
X99742857Y-140785714D02*
X99742857Y-141452380D01*
X99504761Y-140404761D02*
X99266666Y-141119047D01*
X99885714Y-141119047D01*
G04 #@! TO.C,C402*
X97080952Y-134357142D02*
X97033333Y-134404761D01*
X96890476Y-134452380D01*
X96795238Y-134452380D01*
X96652380Y-134404761D01*
X96557142Y-134309523D01*
X96509523Y-134214285D01*
X96461904Y-134023809D01*
X96461904Y-133880952D01*
X96509523Y-133690476D01*
X96557142Y-133595238D01*
X96652380Y-133500000D01*
X96795238Y-133452380D01*
X96890476Y-133452380D01*
X97033333Y-133500000D01*
X97080952Y-133547619D01*
X97938095Y-133785714D02*
X97938095Y-134452380D01*
X97700000Y-133404761D02*
X97461904Y-134119047D01*
X98080952Y-134119047D01*
X98652380Y-133452380D02*
X98747619Y-133452380D01*
X98842857Y-133500000D01*
X98890476Y-133547619D01*
X98938095Y-133642857D01*
X98985714Y-133833333D01*
X98985714Y-134071428D01*
X98938095Y-134261904D01*
X98890476Y-134357142D01*
X98842857Y-134404761D01*
X98747619Y-134452380D01*
X98652380Y-134452380D01*
X98557142Y-134404761D01*
X98509523Y-134357142D01*
X98461904Y-134261904D01*
X98414285Y-134071428D01*
X98414285Y-133833333D01*
X98461904Y-133642857D01*
X98509523Y-133547619D01*
X98557142Y-133500000D01*
X98652380Y-133452380D01*
X99366666Y-133547619D02*
X99414285Y-133500000D01*
X99509523Y-133452380D01*
X99747619Y-133452380D01*
X99842857Y-133500000D01*
X99890476Y-133547619D01*
X99938095Y-133642857D01*
X99938095Y-133738095D01*
X99890476Y-133880952D01*
X99319047Y-134452380D01*
X99938095Y-134452380D01*
G04 #@! TO.C,C401*
X97080952Y-137357142D02*
X97033333Y-137404761D01*
X96890476Y-137452380D01*
X96795238Y-137452380D01*
X96652380Y-137404761D01*
X96557142Y-137309523D01*
X96509523Y-137214285D01*
X96461904Y-137023809D01*
X96461904Y-136880952D01*
X96509523Y-136690476D01*
X96557142Y-136595238D01*
X96652380Y-136500000D01*
X96795238Y-136452380D01*
X96890476Y-136452380D01*
X97033333Y-136500000D01*
X97080952Y-136547619D01*
X97938095Y-136785714D02*
X97938095Y-137452380D01*
X97700000Y-136404761D02*
X97461904Y-137119047D01*
X98080952Y-137119047D01*
X98652380Y-136452380D02*
X98747619Y-136452380D01*
X98842857Y-136500000D01*
X98890476Y-136547619D01*
X98938095Y-136642857D01*
X98985714Y-136833333D01*
X98985714Y-137071428D01*
X98938095Y-137261904D01*
X98890476Y-137357142D01*
X98842857Y-137404761D01*
X98747619Y-137452380D01*
X98652380Y-137452380D01*
X98557142Y-137404761D01*
X98509523Y-137357142D01*
X98461904Y-137261904D01*
X98414285Y-137071428D01*
X98414285Y-136833333D01*
X98461904Y-136642857D01*
X98509523Y-136547619D01*
X98557142Y-136500000D01*
X98652380Y-136452380D01*
X99938095Y-137452380D02*
X99366666Y-137452380D01*
X99652380Y-137452380D02*
X99652380Y-136452380D01*
X99557142Y-136595238D01*
X99461904Y-136690476D01*
X99366666Y-136738095D01*
G04 #@! TO.C,C603*
X105080952Y-95937142D02*
X105033333Y-95984761D01*
X104890476Y-96032380D01*
X104795238Y-96032380D01*
X104652380Y-95984761D01*
X104557142Y-95889523D01*
X104509523Y-95794285D01*
X104461904Y-95603809D01*
X104461904Y-95460952D01*
X104509523Y-95270476D01*
X104557142Y-95175238D01*
X104652380Y-95080000D01*
X104795238Y-95032380D01*
X104890476Y-95032380D01*
X105033333Y-95080000D01*
X105080952Y-95127619D01*
X105938095Y-95032380D02*
X105747619Y-95032380D01*
X105652380Y-95080000D01*
X105604761Y-95127619D01*
X105509523Y-95270476D01*
X105461904Y-95460952D01*
X105461904Y-95841904D01*
X105509523Y-95937142D01*
X105557142Y-95984761D01*
X105652380Y-96032380D01*
X105842857Y-96032380D01*
X105938095Y-95984761D01*
X105985714Y-95937142D01*
X106033333Y-95841904D01*
X106033333Y-95603809D01*
X105985714Y-95508571D01*
X105938095Y-95460952D01*
X105842857Y-95413333D01*
X105652380Y-95413333D01*
X105557142Y-95460952D01*
X105509523Y-95508571D01*
X105461904Y-95603809D01*
X106652380Y-95032380D02*
X106747619Y-95032380D01*
X106842857Y-95080000D01*
X106890476Y-95127619D01*
X106938095Y-95222857D01*
X106985714Y-95413333D01*
X106985714Y-95651428D01*
X106938095Y-95841904D01*
X106890476Y-95937142D01*
X106842857Y-95984761D01*
X106747619Y-96032380D01*
X106652380Y-96032380D01*
X106557142Y-95984761D01*
X106509523Y-95937142D01*
X106461904Y-95841904D01*
X106414285Y-95651428D01*
X106414285Y-95413333D01*
X106461904Y-95222857D01*
X106509523Y-95127619D01*
X106557142Y-95080000D01*
X106652380Y-95032380D01*
X107319047Y-95032380D02*
X107938095Y-95032380D01*
X107604761Y-95413333D01*
X107747619Y-95413333D01*
X107842857Y-95460952D01*
X107890476Y-95508571D01*
X107938095Y-95603809D01*
X107938095Y-95841904D01*
X107890476Y-95937142D01*
X107842857Y-95984761D01*
X107747619Y-96032380D01*
X107461904Y-96032380D01*
X107366666Y-95984761D01*
X107319047Y-95937142D01*
G04 #@! TO.C,D601*
X105682380Y-110290476D02*
X104682380Y-110290476D01*
X104682380Y-110052380D01*
X104730000Y-109909523D01*
X104825238Y-109814285D01*
X104920476Y-109766666D01*
X105110952Y-109719047D01*
X105253809Y-109719047D01*
X105444285Y-109766666D01*
X105539523Y-109814285D01*
X105634761Y-109909523D01*
X105682380Y-110052380D01*
X105682380Y-110290476D01*
X104682380Y-108861904D02*
X104682380Y-109052380D01*
X104730000Y-109147619D01*
X104777619Y-109195238D01*
X104920476Y-109290476D01*
X105110952Y-109338095D01*
X105491904Y-109338095D01*
X105587142Y-109290476D01*
X105634761Y-109242857D01*
X105682380Y-109147619D01*
X105682380Y-108957142D01*
X105634761Y-108861904D01*
X105587142Y-108814285D01*
X105491904Y-108766666D01*
X105253809Y-108766666D01*
X105158571Y-108814285D01*
X105110952Y-108861904D01*
X105063333Y-108957142D01*
X105063333Y-109147619D01*
X105110952Y-109242857D01*
X105158571Y-109290476D01*
X105253809Y-109338095D01*
X104682380Y-108147619D02*
X104682380Y-108052380D01*
X104730000Y-107957142D01*
X104777619Y-107909523D01*
X104872857Y-107861904D01*
X105063333Y-107814285D01*
X105301428Y-107814285D01*
X105491904Y-107861904D01*
X105587142Y-107909523D01*
X105634761Y-107957142D01*
X105682380Y-108052380D01*
X105682380Y-108147619D01*
X105634761Y-108242857D01*
X105587142Y-108290476D01*
X105491904Y-108338095D01*
X105301428Y-108385714D01*
X105063333Y-108385714D01*
X104872857Y-108338095D01*
X104777619Y-108290476D01*
X104730000Y-108242857D01*
X104682380Y-108147619D01*
X105682380Y-106861904D02*
X105682380Y-107433333D01*
X105682380Y-107147619D02*
X104682380Y-107147619D01*
X104825238Y-107242857D01*
X104920476Y-107338095D01*
X104968095Y-107433333D01*
G04 #@! TO.C,D602*
X102882380Y-110302476D02*
X101882380Y-110302476D01*
X101882380Y-110064380D01*
X101930000Y-109921523D01*
X102025238Y-109826285D01*
X102120476Y-109778666D01*
X102310952Y-109731047D01*
X102453809Y-109731047D01*
X102644285Y-109778666D01*
X102739523Y-109826285D01*
X102834761Y-109921523D01*
X102882380Y-110064380D01*
X102882380Y-110302476D01*
X101882380Y-108873904D02*
X101882380Y-109064380D01*
X101930000Y-109159619D01*
X101977619Y-109207238D01*
X102120476Y-109302476D01*
X102310952Y-109350095D01*
X102691904Y-109350095D01*
X102787142Y-109302476D01*
X102834761Y-109254857D01*
X102882380Y-109159619D01*
X102882380Y-108969142D01*
X102834761Y-108873904D01*
X102787142Y-108826285D01*
X102691904Y-108778666D01*
X102453809Y-108778666D01*
X102358571Y-108826285D01*
X102310952Y-108873904D01*
X102263333Y-108969142D01*
X102263333Y-109159619D01*
X102310952Y-109254857D01*
X102358571Y-109302476D01*
X102453809Y-109350095D01*
X101882380Y-108159619D02*
X101882380Y-108064380D01*
X101930000Y-107969142D01*
X101977619Y-107921523D01*
X102072857Y-107873904D01*
X102263333Y-107826285D01*
X102501428Y-107826285D01*
X102691904Y-107873904D01*
X102787142Y-107921523D01*
X102834761Y-107969142D01*
X102882380Y-108064380D01*
X102882380Y-108159619D01*
X102834761Y-108254857D01*
X102787142Y-108302476D01*
X102691904Y-108350095D01*
X102501428Y-108397714D01*
X102263333Y-108397714D01*
X102072857Y-108350095D01*
X101977619Y-108302476D01*
X101930000Y-108254857D01*
X101882380Y-108159619D01*
X101977619Y-107445333D02*
X101930000Y-107397714D01*
X101882380Y-107302476D01*
X101882380Y-107064380D01*
X101930000Y-106969142D01*
X101977619Y-106921523D01*
X102072857Y-106873904D01*
X102168095Y-106873904D01*
X102310952Y-106921523D01*
X102882380Y-107492952D01*
X102882380Y-106873904D01*
G04 #@! TO.C,U501*
X108485714Y-57402380D02*
X108485714Y-58211904D01*
X108533333Y-58307142D01*
X108580952Y-58354761D01*
X108676190Y-58402380D01*
X108866666Y-58402380D01*
X108961904Y-58354761D01*
X109009523Y-58307142D01*
X109057142Y-58211904D01*
X109057142Y-57402380D01*
X110009523Y-57402380D02*
X109533333Y-57402380D01*
X109485714Y-57878571D01*
X109533333Y-57830952D01*
X109628571Y-57783333D01*
X109866666Y-57783333D01*
X109961904Y-57830952D01*
X110009523Y-57878571D01*
X110057142Y-57973809D01*
X110057142Y-58211904D01*
X110009523Y-58307142D01*
X109961904Y-58354761D01*
X109866666Y-58402380D01*
X109628571Y-58402380D01*
X109533333Y-58354761D01*
X109485714Y-58307142D01*
X110676190Y-57402380D02*
X110771428Y-57402380D01*
X110866666Y-57450000D01*
X110914285Y-57497619D01*
X110961904Y-57592857D01*
X111009523Y-57783333D01*
X111009523Y-58021428D01*
X110961904Y-58211904D01*
X110914285Y-58307142D01*
X110866666Y-58354761D01*
X110771428Y-58402380D01*
X110676190Y-58402380D01*
X110580952Y-58354761D01*
X110533333Y-58307142D01*
X110485714Y-58211904D01*
X110438095Y-58021428D01*
X110438095Y-57783333D01*
X110485714Y-57592857D01*
X110533333Y-57497619D01*
X110580952Y-57450000D01*
X110676190Y-57402380D01*
X111961904Y-58402380D02*
X111390476Y-58402380D01*
X111676190Y-58402380D02*
X111676190Y-57402380D01*
X111580952Y-57545238D01*
X111485714Y-57640476D01*
X111390476Y-57688095D01*
G04 #@! TO.C,D204*
X72112380Y-157600476D02*
X71112380Y-157600476D01*
X71112380Y-157362380D01*
X71160000Y-157219523D01*
X71255238Y-157124285D01*
X71350476Y-157076666D01*
X71540952Y-157029047D01*
X71683809Y-157029047D01*
X71874285Y-157076666D01*
X71969523Y-157124285D01*
X72064761Y-157219523D01*
X72112380Y-157362380D01*
X72112380Y-157600476D01*
X71207619Y-156648095D02*
X71160000Y-156600476D01*
X71112380Y-156505238D01*
X71112380Y-156267142D01*
X71160000Y-156171904D01*
X71207619Y-156124285D01*
X71302857Y-156076666D01*
X71398095Y-156076666D01*
X71540952Y-156124285D01*
X72112380Y-156695714D01*
X72112380Y-156076666D01*
X71112380Y-155457619D02*
X71112380Y-155362380D01*
X71160000Y-155267142D01*
X71207619Y-155219523D01*
X71302857Y-155171904D01*
X71493333Y-155124285D01*
X71731428Y-155124285D01*
X71921904Y-155171904D01*
X72017142Y-155219523D01*
X72064761Y-155267142D01*
X72112380Y-155362380D01*
X72112380Y-155457619D01*
X72064761Y-155552857D01*
X72017142Y-155600476D01*
X71921904Y-155648095D01*
X71731428Y-155695714D01*
X71493333Y-155695714D01*
X71302857Y-155648095D01*
X71207619Y-155600476D01*
X71160000Y-155552857D01*
X71112380Y-155457619D01*
X71445714Y-154267142D02*
X72112380Y-154267142D01*
X71064761Y-154505238D02*
X71779047Y-154743333D01*
X71779047Y-154124285D01*
G04 #@! TO.C,D205*
X72112380Y-162600476D02*
X71112380Y-162600476D01*
X71112380Y-162362380D01*
X71160000Y-162219523D01*
X71255238Y-162124285D01*
X71350476Y-162076666D01*
X71540952Y-162029047D01*
X71683809Y-162029047D01*
X71874285Y-162076666D01*
X71969523Y-162124285D01*
X72064761Y-162219523D01*
X72112380Y-162362380D01*
X72112380Y-162600476D01*
X71207619Y-161648095D02*
X71160000Y-161600476D01*
X71112380Y-161505238D01*
X71112380Y-161267142D01*
X71160000Y-161171904D01*
X71207619Y-161124285D01*
X71302857Y-161076666D01*
X71398095Y-161076666D01*
X71540952Y-161124285D01*
X72112380Y-161695714D01*
X72112380Y-161076666D01*
X71112380Y-160457619D02*
X71112380Y-160362380D01*
X71160000Y-160267142D01*
X71207619Y-160219523D01*
X71302857Y-160171904D01*
X71493333Y-160124285D01*
X71731428Y-160124285D01*
X71921904Y-160171904D01*
X72017142Y-160219523D01*
X72064761Y-160267142D01*
X72112380Y-160362380D01*
X72112380Y-160457619D01*
X72064761Y-160552857D01*
X72017142Y-160600476D01*
X71921904Y-160648095D01*
X71731428Y-160695714D01*
X71493333Y-160695714D01*
X71302857Y-160648095D01*
X71207619Y-160600476D01*
X71160000Y-160552857D01*
X71112380Y-160457619D01*
X71112380Y-159219523D02*
X71112380Y-159695714D01*
X71588571Y-159743333D01*
X71540952Y-159695714D01*
X71493333Y-159600476D01*
X71493333Y-159362380D01*
X71540952Y-159267142D01*
X71588571Y-159219523D01*
X71683809Y-159171904D01*
X71921904Y-159171904D01*
X72017142Y-159219523D01*
X72064761Y-159267142D01*
X72112380Y-159362380D01*
X72112380Y-159600476D01*
X72064761Y-159695714D01*
X72017142Y-159743333D01*
G04 #@! TO.C,D206*
X72112380Y-167600476D02*
X71112380Y-167600476D01*
X71112380Y-167362380D01*
X71160000Y-167219523D01*
X71255238Y-167124285D01*
X71350476Y-167076666D01*
X71540952Y-167029047D01*
X71683809Y-167029047D01*
X71874285Y-167076666D01*
X71969523Y-167124285D01*
X72064761Y-167219523D01*
X72112380Y-167362380D01*
X72112380Y-167600476D01*
X71207619Y-166648095D02*
X71160000Y-166600476D01*
X71112380Y-166505238D01*
X71112380Y-166267142D01*
X71160000Y-166171904D01*
X71207619Y-166124285D01*
X71302857Y-166076666D01*
X71398095Y-166076666D01*
X71540952Y-166124285D01*
X72112380Y-166695714D01*
X72112380Y-166076666D01*
X71112380Y-165457619D02*
X71112380Y-165362380D01*
X71160000Y-165267142D01*
X71207619Y-165219523D01*
X71302857Y-165171904D01*
X71493333Y-165124285D01*
X71731428Y-165124285D01*
X71921904Y-165171904D01*
X72017142Y-165219523D01*
X72064761Y-165267142D01*
X72112380Y-165362380D01*
X72112380Y-165457619D01*
X72064761Y-165552857D01*
X72017142Y-165600476D01*
X71921904Y-165648095D01*
X71731428Y-165695714D01*
X71493333Y-165695714D01*
X71302857Y-165648095D01*
X71207619Y-165600476D01*
X71160000Y-165552857D01*
X71112380Y-165457619D01*
X71112380Y-164267142D02*
X71112380Y-164457619D01*
X71160000Y-164552857D01*
X71207619Y-164600476D01*
X71350476Y-164695714D01*
X71540952Y-164743333D01*
X71921904Y-164743333D01*
X72017142Y-164695714D01*
X72064761Y-164648095D01*
X72112380Y-164552857D01*
X72112380Y-164362380D01*
X72064761Y-164267142D01*
X72017142Y-164219523D01*
X71921904Y-164171904D01*
X71683809Y-164171904D01*
X71588571Y-164219523D01*
X71540952Y-164267142D01*
X71493333Y-164362380D01*
X71493333Y-164552857D01*
X71540952Y-164648095D01*
X71588571Y-164695714D01*
X71683809Y-164743333D01*
G04 #@! TO.C,D207*
X72112380Y-172600476D02*
X71112380Y-172600476D01*
X71112380Y-172362380D01*
X71160000Y-172219523D01*
X71255238Y-172124285D01*
X71350476Y-172076666D01*
X71540952Y-172029047D01*
X71683809Y-172029047D01*
X71874285Y-172076666D01*
X71969523Y-172124285D01*
X72064761Y-172219523D01*
X72112380Y-172362380D01*
X72112380Y-172600476D01*
X71207619Y-171648095D02*
X71160000Y-171600476D01*
X71112380Y-171505238D01*
X71112380Y-171267142D01*
X71160000Y-171171904D01*
X71207619Y-171124285D01*
X71302857Y-171076666D01*
X71398095Y-171076666D01*
X71540952Y-171124285D01*
X72112380Y-171695714D01*
X72112380Y-171076666D01*
X71112380Y-170457619D02*
X71112380Y-170362380D01*
X71160000Y-170267142D01*
X71207619Y-170219523D01*
X71302857Y-170171904D01*
X71493333Y-170124285D01*
X71731428Y-170124285D01*
X71921904Y-170171904D01*
X72017142Y-170219523D01*
X72064761Y-170267142D01*
X72112380Y-170362380D01*
X72112380Y-170457619D01*
X72064761Y-170552857D01*
X72017142Y-170600476D01*
X71921904Y-170648095D01*
X71731428Y-170695714D01*
X71493333Y-170695714D01*
X71302857Y-170648095D01*
X71207619Y-170600476D01*
X71160000Y-170552857D01*
X71112380Y-170457619D01*
X71112380Y-169790952D02*
X71112380Y-169124285D01*
X72112380Y-169552857D01*
G04 #@! TO.C,D230*
X139542380Y-152600476D02*
X138542380Y-152600476D01*
X138542380Y-152362380D01*
X138590000Y-152219523D01*
X138685238Y-152124285D01*
X138780476Y-152076666D01*
X138970952Y-152029047D01*
X139113809Y-152029047D01*
X139304285Y-152076666D01*
X139399523Y-152124285D01*
X139494761Y-152219523D01*
X139542380Y-152362380D01*
X139542380Y-152600476D01*
X138637619Y-151648095D02*
X138590000Y-151600476D01*
X138542380Y-151505238D01*
X138542380Y-151267142D01*
X138590000Y-151171904D01*
X138637619Y-151124285D01*
X138732857Y-151076666D01*
X138828095Y-151076666D01*
X138970952Y-151124285D01*
X139542380Y-151695714D01*
X139542380Y-151076666D01*
X138542380Y-150743333D02*
X138542380Y-150124285D01*
X138923333Y-150457619D01*
X138923333Y-150314761D01*
X138970952Y-150219523D01*
X139018571Y-150171904D01*
X139113809Y-150124285D01*
X139351904Y-150124285D01*
X139447142Y-150171904D01*
X139494761Y-150219523D01*
X139542380Y-150314761D01*
X139542380Y-150600476D01*
X139494761Y-150695714D01*
X139447142Y-150743333D01*
X138542380Y-149505238D02*
X138542380Y-149410000D01*
X138590000Y-149314761D01*
X138637619Y-149267142D01*
X138732857Y-149219523D01*
X138923333Y-149171904D01*
X139161428Y-149171904D01*
X139351904Y-149219523D01*
X139447142Y-149267142D01*
X139494761Y-149314761D01*
X139542380Y-149410000D01*
X139542380Y-149505238D01*
X139494761Y-149600476D01*
X139447142Y-149648095D01*
X139351904Y-149695714D01*
X139161428Y-149743333D01*
X138923333Y-149743333D01*
X138732857Y-149695714D01*
X138637619Y-149648095D01*
X138590000Y-149600476D01*
X138542380Y-149505238D01*
G04 #@! TO.C,D203*
X72112380Y-152600476D02*
X71112380Y-152600476D01*
X71112380Y-152362380D01*
X71160000Y-152219523D01*
X71255238Y-152124285D01*
X71350476Y-152076666D01*
X71540952Y-152029047D01*
X71683809Y-152029047D01*
X71874285Y-152076666D01*
X71969523Y-152124285D01*
X72064761Y-152219523D01*
X72112380Y-152362380D01*
X72112380Y-152600476D01*
X71207619Y-151648095D02*
X71160000Y-151600476D01*
X71112380Y-151505238D01*
X71112380Y-151267142D01*
X71160000Y-151171904D01*
X71207619Y-151124285D01*
X71302857Y-151076666D01*
X71398095Y-151076666D01*
X71540952Y-151124285D01*
X72112380Y-151695714D01*
X72112380Y-151076666D01*
X71112380Y-150457619D02*
X71112380Y-150362380D01*
X71160000Y-150267142D01*
X71207619Y-150219523D01*
X71302857Y-150171904D01*
X71493333Y-150124285D01*
X71731428Y-150124285D01*
X71921904Y-150171904D01*
X72017142Y-150219523D01*
X72064761Y-150267142D01*
X72112380Y-150362380D01*
X72112380Y-150457619D01*
X72064761Y-150552857D01*
X72017142Y-150600476D01*
X71921904Y-150648095D01*
X71731428Y-150695714D01*
X71493333Y-150695714D01*
X71302857Y-150648095D01*
X71207619Y-150600476D01*
X71160000Y-150552857D01*
X71112380Y-150457619D01*
X71112380Y-149790952D02*
X71112380Y-149171904D01*
X71493333Y-149505238D01*
X71493333Y-149362380D01*
X71540952Y-149267142D01*
X71588571Y-149219523D01*
X71683809Y-149171904D01*
X71921904Y-149171904D01*
X72017142Y-149219523D01*
X72064761Y-149267142D01*
X72112380Y-149362380D01*
X72112380Y-149648095D01*
X72064761Y-149743333D01*
X72017142Y-149790952D01*
G04 #@! TO.C,D202*
X72112380Y-147600476D02*
X71112380Y-147600476D01*
X71112380Y-147362380D01*
X71160000Y-147219523D01*
X71255238Y-147124285D01*
X71350476Y-147076666D01*
X71540952Y-147029047D01*
X71683809Y-147029047D01*
X71874285Y-147076666D01*
X71969523Y-147124285D01*
X72064761Y-147219523D01*
X72112380Y-147362380D01*
X72112380Y-147600476D01*
X71207619Y-146648095D02*
X71160000Y-146600476D01*
X71112380Y-146505238D01*
X71112380Y-146267142D01*
X71160000Y-146171904D01*
X71207619Y-146124285D01*
X71302857Y-146076666D01*
X71398095Y-146076666D01*
X71540952Y-146124285D01*
X72112380Y-146695714D01*
X72112380Y-146076666D01*
X71112380Y-145457619D02*
X71112380Y-145362380D01*
X71160000Y-145267142D01*
X71207619Y-145219523D01*
X71302857Y-145171904D01*
X71493333Y-145124285D01*
X71731428Y-145124285D01*
X71921904Y-145171904D01*
X72017142Y-145219523D01*
X72064761Y-145267142D01*
X72112380Y-145362380D01*
X72112380Y-145457619D01*
X72064761Y-145552857D01*
X72017142Y-145600476D01*
X71921904Y-145648095D01*
X71731428Y-145695714D01*
X71493333Y-145695714D01*
X71302857Y-145648095D01*
X71207619Y-145600476D01*
X71160000Y-145552857D01*
X71112380Y-145457619D01*
X71207619Y-144743333D02*
X71160000Y-144695714D01*
X71112380Y-144600476D01*
X71112380Y-144362380D01*
X71160000Y-144267142D01*
X71207619Y-144219523D01*
X71302857Y-144171904D01*
X71398095Y-144171904D01*
X71540952Y-144219523D01*
X72112380Y-144790952D01*
X72112380Y-144171904D01*
G04 #@! TO.C,D201*
X72112380Y-142600476D02*
X71112380Y-142600476D01*
X71112380Y-142362380D01*
X71160000Y-142219523D01*
X71255238Y-142124285D01*
X71350476Y-142076666D01*
X71540952Y-142029047D01*
X71683809Y-142029047D01*
X71874285Y-142076666D01*
X71969523Y-142124285D01*
X72064761Y-142219523D01*
X72112380Y-142362380D01*
X72112380Y-142600476D01*
X71207619Y-141648095D02*
X71160000Y-141600476D01*
X71112380Y-141505238D01*
X71112380Y-141267142D01*
X71160000Y-141171904D01*
X71207619Y-141124285D01*
X71302857Y-141076666D01*
X71398095Y-141076666D01*
X71540952Y-141124285D01*
X72112380Y-141695714D01*
X72112380Y-141076666D01*
X71112380Y-140457619D02*
X71112380Y-140362380D01*
X71160000Y-140267142D01*
X71207619Y-140219523D01*
X71302857Y-140171904D01*
X71493333Y-140124285D01*
X71731428Y-140124285D01*
X71921904Y-140171904D01*
X72017142Y-140219523D01*
X72064761Y-140267142D01*
X72112380Y-140362380D01*
X72112380Y-140457619D01*
X72064761Y-140552857D01*
X72017142Y-140600476D01*
X71921904Y-140648095D01*
X71731428Y-140695714D01*
X71493333Y-140695714D01*
X71302857Y-140648095D01*
X71207619Y-140600476D01*
X71160000Y-140552857D01*
X71112380Y-140457619D01*
X72112380Y-139171904D02*
X72112380Y-139743333D01*
X72112380Y-139457619D02*
X71112380Y-139457619D01*
X71255238Y-139552857D01*
X71350476Y-139648095D01*
X71398095Y-139743333D01*
G04 #@! TO.C,D208*
X72112380Y-177600476D02*
X71112380Y-177600476D01*
X71112380Y-177362380D01*
X71160000Y-177219523D01*
X71255238Y-177124285D01*
X71350476Y-177076666D01*
X71540952Y-177029047D01*
X71683809Y-177029047D01*
X71874285Y-177076666D01*
X71969523Y-177124285D01*
X72064761Y-177219523D01*
X72112380Y-177362380D01*
X72112380Y-177600476D01*
X71207619Y-176648095D02*
X71160000Y-176600476D01*
X71112380Y-176505238D01*
X71112380Y-176267142D01*
X71160000Y-176171904D01*
X71207619Y-176124285D01*
X71302857Y-176076666D01*
X71398095Y-176076666D01*
X71540952Y-176124285D01*
X72112380Y-176695714D01*
X72112380Y-176076666D01*
X71112380Y-175457619D02*
X71112380Y-175362380D01*
X71160000Y-175267142D01*
X71207619Y-175219523D01*
X71302857Y-175171904D01*
X71493333Y-175124285D01*
X71731428Y-175124285D01*
X71921904Y-175171904D01*
X72017142Y-175219523D01*
X72064761Y-175267142D01*
X72112380Y-175362380D01*
X72112380Y-175457619D01*
X72064761Y-175552857D01*
X72017142Y-175600476D01*
X71921904Y-175648095D01*
X71731428Y-175695714D01*
X71493333Y-175695714D01*
X71302857Y-175648095D01*
X71207619Y-175600476D01*
X71160000Y-175552857D01*
X71112380Y-175457619D01*
X71540952Y-174552857D02*
X71493333Y-174648095D01*
X71445714Y-174695714D01*
X71350476Y-174743333D01*
X71302857Y-174743333D01*
X71207619Y-174695714D01*
X71160000Y-174648095D01*
X71112380Y-174552857D01*
X71112380Y-174362380D01*
X71160000Y-174267142D01*
X71207619Y-174219523D01*
X71302857Y-174171904D01*
X71350476Y-174171904D01*
X71445714Y-174219523D01*
X71493333Y-174267142D01*
X71540952Y-174362380D01*
X71540952Y-174552857D01*
X71588571Y-174648095D01*
X71636190Y-174695714D01*
X71731428Y-174743333D01*
X71921904Y-174743333D01*
X72017142Y-174695714D01*
X72064761Y-174648095D01*
X72112380Y-174552857D01*
X72112380Y-174362380D01*
X72064761Y-174267142D01*
X72017142Y-174219523D01*
X71921904Y-174171904D01*
X71731428Y-174171904D01*
X71636190Y-174219523D01*
X71588571Y-174267142D01*
X71540952Y-174362380D01*
G04 #@! TO.C,D232*
X139542380Y-142600476D02*
X138542380Y-142600476D01*
X138542380Y-142362380D01*
X138590000Y-142219523D01*
X138685238Y-142124285D01*
X138780476Y-142076666D01*
X138970952Y-142029047D01*
X139113809Y-142029047D01*
X139304285Y-142076666D01*
X139399523Y-142124285D01*
X139494761Y-142219523D01*
X139542380Y-142362380D01*
X139542380Y-142600476D01*
X138637619Y-141648095D02*
X138590000Y-141600476D01*
X138542380Y-141505238D01*
X138542380Y-141267142D01*
X138590000Y-141171904D01*
X138637619Y-141124285D01*
X138732857Y-141076666D01*
X138828095Y-141076666D01*
X138970952Y-141124285D01*
X139542380Y-141695714D01*
X139542380Y-141076666D01*
X138542380Y-140743333D02*
X138542380Y-140124285D01*
X138923333Y-140457619D01*
X138923333Y-140314761D01*
X138970952Y-140219523D01*
X139018571Y-140171904D01*
X139113809Y-140124285D01*
X139351904Y-140124285D01*
X139447142Y-140171904D01*
X139494761Y-140219523D01*
X139542380Y-140314761D01*
X139542380Y-140600476D01*
X139494761Y-140695714D01*
X139447142Y-140743333D01*
X138637619Y-139743333D02*
X138590000Y-139695714D01*
X138542380Y-139600476D01*
X138542380Y-139362380D01*
X138590000Y-139267142D01*
X138637619Y-139219523D01*
X138732857Y-139171904D01*
X138828095Y-139171904D01*
X138970952Y-139219523D01*
X139542380Y-139790952D01*
X139542380Y-139171904D01*
G04 #@! TO.C,D231*
X139542380Y-147600476D02*
X138542380Y-147600476D01*
X138542380Y-147362380D01*
X138590000Y-147219523D01*
X138685238Y-147124285D01*
X138780476Y-147076666D01*
X138970952Y-147029047D01*
X139113809Y-147029047D01*
X139304285Y-147076666D01*
X139399523Y-147124285D01*
X139494761Y-147219523D01*
X139542380Y-147362380D01*
X139542380Y-147600476D01*
X138637619Y-146648095D02*
X138590000Y-146600476D01*
X138542380Y-146505238D01*
X138542380Y-146267142D01*
X138590000Y-146171904D01*
X138637619Y-146124285D01*
X138732857Y-146076666D01*
X138828095Y-146076666D01*
X138970952Y-146124285D01*
X139542380Y-146695714D01*
X139542380Y-146076666D01*
X138542380Y-145743333D02*
X138542380Y-145124285D01*
X138923333Y-145457619D01*
X138923333Y-145314761D01*
X138970952Y-145219523D01*
X139018571Y-145171904D01*
X139113809Y-145124285D01*
X139351904Y-145124285D01*
X139447142Y-145171904D01*
X139494761Y-145219523D01*
X139542380Y-145314761D01*
X139542380Y-145600476D01*
X139494761Y-145695714D01*
X139447142Y-145743333D01*
X139542380Y-144171904D02*
X139542380Y-144743333D01*
X139542380Y-144457619D02*
X138542380Y-144457619D01*
X138685238Y-144552857D01*
X138780476Y-144648095D01*
X138828095Y-144743333D01*
G04 #@! TO.C,D209*
X71585509Y-192372340D02*
X72551434Y-192113521D01*
X72613058Y-192343503D01*
X72604036Y-192493817D01*
X72536692Y-192610459D01*
X72457024Y-192681105D01*
X72285363Y-192776401D01*
X72147373Y-192813375D01*
X71951063Y-192816677D01*
X71846745Y-192795330D01*
X71730103Y-192727987D01*
X71647132Y-192602322D01*
X71585509Y-192372340D01*
X72705936Y-193058099D02*
X72764257Y-193091771D01*
X72834903Y-193171439D01*
X72896527Y-193401422D01*
X72875179Y-193505739D01*
X72841508Y-193564061D01*
X72761840Y-193634706D01*
X72669847Y-193659356D01*
X72519532Y-193650334D01*
X71819678Y-193246273D01*
X71979900Y-193844227D01*
X73106047Y-194183362D02*
X73130696Y-194275355D01*
X73109349Y-194379672D01*
X73075677Y-194437993D01*
X72996009Y-194508639D01*
X72824348Y-194603935D01*
X72594366Y-194665558D01*
X72398055Y-194668861D01*
X72293737Y-194647514D01*
X72235416Y-194613842D01*
X72164770Y-194534174D01*
X72140121Y-194442181D01*
X72161468Y-194337863D01*
X72195140Y-194279542D01*
X72274808Y-194208896D01*
X72446469Y-194113601D01*
X72676451Y-194051977D01*
X72872762Y-194048675D01*
X72977080Y-194070022D01*
X73035401Y-194103693D01*
X73106047Y-194183362D01*
X72349641Y-195224121D02*
X72398940Y-195408107D01*
X72469586Y-195487775D01*
X72527907Y-195521447D01*
X72690546Y-195576465D01*
X72886856Y-195573163D01*
X73254828Y-195474565D01*
X73334496Y-195403919D01*
X73368168Y-195345598D01*
X73389515Y-195241280D01*
X73340216Y-195057295D01*
X73269570Y-194977626D01*
X73211249Y-194943955D01*
X73106932Y-194922608D01*
X72876949Y-194984231D01*
X72797281Y-195054877D01*
X72763609Y-195113198D01*
X72742262Y-195217516D01*
X72791561Y-195401502D01*
X72862207Y-195481170D01*
X72920528Y-195514842D01*
X73024846Y-195536189D01*
G04 #@! TO.C,D229*
X139542380Y-157600476D02*
X138542380Y-157600476D01*
X138542380Y-157362380D01*
X138590000Y-157219523D01*
X138685238Y-157124285D01*
X138780476Y-157076666D01*
X138970952Y-157029047D01*
X139113809Y-157029047D01*
X139304285Y-157076666D01*
X139399523Y-157124285D01*
X139494761Y-157219523D01*
X139542380Y-157362380D01*
X139542380Y-157600476D01*
X138637619Y-156648095D02*
X138590000Y-156600476D01*
X138542380Y-156505238D01*
X138542380Y-156267142D01*
X138590000Y-156171904D01*
X138637619Y-156124285D01*
X138732857Y-156076666D01*
X138828095Y-156076666D01*
X138970952Y-156124285D01*
X139542380Y-156695714D01*
X139542380Y-156076666D01*
X138637619Y-155695714D02*
X138590000Y-155648095D01*
X138542380Y-155552857D01*
X138542380Y-155314761D01*
X138590000Y-155219523D01*
X138637619Y-155171904D01*
X138732857Y-155124285D01*
X138828095Y-155124285D01*
X138970952Y-155171904D01*
X139542380Y-155743333D01*
X139542380Y-155124285D01*
X139542380Y-154648095D02*
X139542380Y-154457619D01*
X139494761Y-154362380D01*
X139447142Y-154314761D01*
X139304285Y-154219523D01*
X139113809Y-154171904D01*
X138732857Y-154171904D01*
X138637619Y-154219523D01*
X138590000Y-154267142D01*
X138542380Y-154362380D01*
X138542380Y-154552857D01*
X138590000Y-154648095D01*
X138637619Y-154695714D01*
X138732857Y-154743333D01*
X138970952Y-154743333D01*
X139066190Y-154695714D01*
X139113809Y-154648095D01*
X139161428Y-154552857D01*
X139161428Y-154362380D01*
X139113809Y-154267142D01*
X139066190Y-154219523D01*
X138970952Y-154171904D01*
G04 #@! TO.C,D228*
X139542380Y-162600476D02*
X138542380Y-162600476D01*
X138542380Y-162362380D01*
X138590000Y-162219523D01*
X138685238Y-162124285D01*
X138780476Y-162076666D01*
X138970952Y-162029047D01*
X139113809Y-162029047D01*
X139304285Y-162076666D01*
X139399523Y-162124285D01*
X139494761Y-162219523D01*
X139542380Y-162362380D01*
X139542380Y-162600476D01*
X138637619Y-161648095D02*
X138590000Y-161600476D01*
X138542380Y-161505238D01*
X138542380Y-161267142D01*
X138590000Y-161171904D01*
X138637619Y-161124285D01*
X138732857Y-161076666D01*
X138828095Y-161076666D01*
X138970952Y-161124285D01*
X139542380Y-161695714D01*
X139542380Y-161076666D01*
X138637619Y-160695714D02*
X138590000Y-160648095D01*
X138542380Y-160552857D01*
X138542380Y-160314761D01*
X138590000Y-160219523D01*
X138637619Y-160171904D01*
X138732857Y-160124285D01*
X138828095Y-160124285D01*
X138970952Y-160171904D01*
X139542380Y-160743333D01*
X139542380Y-160124285D01*
X138970952Y-159552857D02*
X138923333Y-159648095D01*
X138875714Y-159695714D01*
X138780476Y-159743333D01*
X138732857Y-159743333D01*
X138637619Y-159695714D01*
X138590000Y-159648095D01*
X138542380Y-159552857D01*
X138542380Y-159362380D01*
X138590000Y-159267142D01*
X138637619Y-159219523D01*
X138732857Y-159171904D01*
X138780476Y-159171904D01*
X138875714Y-159219523D01*
X138923333Y-159267142D01*
X138970952Y-159362380D01*
X138970952Y-159552857D01*
X139018571Y-159648095D01*
X139066190Y-159695714D01*
X139161428Y-159743333D01*
X139351904Y-159743333D01*
X139447142Y-159695714D01*
X139494761Y-159648095D01*
X139542380Y-159552857D01*
X139542380Y-159362380D01*
X139494761Y-159267142D01*
X139447142Y-159219523D01*
X139351904Y-159171904D01*
X139161428Y-159171904D01*
X139066190Y-159219523D01*
X139018571Y-159267142D01*
X138970952Y-159362380D01*
G04 #@! TO.C,D227*
X139542380Y-167600476D02*
X138542380Y-167600476D01*
X138542380Y-167362380D01*
X138590000Y-167219523D01*
X138685238Y-167124285D01*
X138780476Y-167076666D01*
X138970952Y-167029047D01*
X139113809Y-167029047D01*
X139304285Y-167076666D01*
X139399523Y-167124285D01*
X139494761Y-167219523D01*
X139542380Y-167362380D01*
X139542380Y-167600476D01*
X138637619Y-166648095D02*
X138590000Y-166600476D01*
X138542380Y-166505238D01*
X138542380Y-166267142D01*
X138590000Y-166171904D01*
X138637619Y-166124285D01*
X138732857Y-166076666D01*
X138828095Y-166076666D01*
X138970952Y-166124285D01*
X139542380Y-166695714D01*
X139542380Y-166076666D01*
X138637619Y-165695714D02*
X138590000Y-165648095D01*
X138542380Y-165552857D01*
X138542380Y-165314761D01*
X138590000Y-165219523D01*
X138637619Y-165171904D01*
X138732857Y-165124285D01*
X138828095Y-165124285D01*
X138970952Y-165171904D01*
X139542380Y-165743333D01*
X139542380Y-165124285D01*
X138542380Y-164790952D02*
X138542380Y-164124285D01*
X139542380Y-164552857D01*
G04 #@! TO.C,D226*
X139542380Y-172600476D02*
X138542380Y-172600476D01*
X138542380Y-172362380D01*
X138590000Y-172219523D01*
X138685238Y-172124285D01*
X138780476Y-172076666D01*
X138970952Y-172029047D01*
X139113809Y-172029047D01*
X139304285Y-172076666D01*
X139399523Y-172124285D01*
X139494761Y-172219523D01*
X139542380Y-172362380D01*
X139542380Y-172600476D01*
X138637619Y-171648095D02*
X138590000Y-171600476D01*
X138542380Y-171505238D01*
X138542380Y-171267142D01*
X138590000Y-171171904D01*
X138637619Y-171124285D01*
X138732857Y-171076666D01*
X138828095Y-171076666D01*
X138970952Y-171124285D01*
X139542380Y-171695714D01*
X139542380Y-171076666D01*
X138637619Y-170695714D02*
X138590000Y-170648095D01*
X138542380Y-170552857D01*
X138542380Y-170314761D01*
X138590000Y-170219523D01*
X138637619Y-170171904D01*
X138732857Y-170124285D01*
X138828095Y-170124285D01*
X138970952Y-170171904D01*
X139542380Y-170743333D01*
X139542380Y-170124285D01*
X138542380Y-169267142D02*
X138542380Y-169457619D01*
X138590000Y-169552857D01*
X138637619Y-169600476D01*
X138780476Y-169695714D01*
X138970952Y-169743333D01*
X139351904Y-169743333D01*
X139447142Y-169695714D01*
X139494761Y-169648095D01*
X139542380Y-169552857D01*
X139542380Y-169362380D01*
X139494761Y-169267142D01*
X139447142Y-169219523D01*
X139351904Y-169171904D01*
X139113809Y-169171904D01*
X139018571Y-169219523D01*
X138970952Y-169267142D01*
X138923333Y-169362380D01*
X138923333Y-169552857D01*
X138970952Y-169648095D01*
X139018571Y-169695714D01*
X139113809Y-169743333D01*
G04 #@! TO.C,D225*
X139542380Y-177600476D02*
X138542380Y-177600476D01*
X138542380Y-177362380D01*
X138590000Y-177219523D01*
X138685238Y-177124285D01*
X138780476Y-177076666D01*
X138970952Y-177029047D01*
X139113809Y-177029047D01*
X139304285Y-177076666D01*
X139399523Y-177124285D01*
X139494761Y-177219523D01*
X139542380Y-177362380D01*
X139542380Y-177600476D01*
X138637619Y-176648095D02*
X138590000Y-176600476D01*
X138542380Y-176505238D01*
X138542380Y-176267142D01*
X138590000Y-176171904D01*
X138637619Y-176124285D01*
X138732857Y-176076666D01*
X138828095Y-176076666D01*
X138970952Y-176124285D01*
X139542380Y-176695714D01*
X139542380Y-176076666D01*
X138637619Y-175695714D02*
X138590000Y-175648095D01*
X138542380Y-175552857D01*
X138542380Y-175314761D01*
X138590000Y-175219523D01*
X138637619Y-175171904D01*
X138732857Y-175124285D01*
X138828095Y-175124285D01*
X138970952Y-175171904D01*
X139542380Y-175743333D01*
X139542380Y-175124285D01*
X138542380Y-174219523D02*
X138542380Y-174695714D01*
X139018571Y-174743333D01*
X138970952Y-174695714D01*
X138923333Y-174600476D01*
X138923333Y-174362380D01*
X138970952Y-174267142D01*
X139018571Y-174219523D01*
X139113809Y-174171904D01*
X139351904Y-174171904D01*
X139447142Y-174219523D01*
X139494761Y-174267142D01*
X139542380Y-174362380D01*
X139542380Y-174600476D01*
X139494761Y-174695714D01*
X139447142Y-174743333D01*
G04 #@! TO.C,D224*
X137639736Y-195638089D02*
X136673810Y-195379270D01*
X136735433Y-195149288D01*
X136818404Y-195023623D01*
X136935046Y-194956279D01*
X137039364Y-194934932D01*
X137235674Y-194938235D01*
X137373664Y-194975209D01*
X137545325Y-195070504D01*
X137624993Y-195141150D01*
X137692337Y-195257792D01*
X137701359Y-195408107D01*
X137639736Y-195638089D01*
X137012297Y-194483990D02*
X136978625Y-194425669D01*
X136957278Y-194321351D01*
X137018902Y-194091369D01*
X137089548Y-194011701D01*
X137147869Y-193978029D01*
X137252186Y-193956682D01*
X137344179Y-193981331D01*
X137469844Y-194064302D01*
X137873905Y-194764156D01*
X138034126Y-194166202D01*
X137258791Y-193564061D02*
X137225120Y-193505739D01*
X137203772Y-193401422D01*
X137265396Y-193171439D01*
X137336042Y-193091771D01*
X137394363Y-193058099D01*
X137498681Y-193036752D01*
X137590674Y-193061402D01*
X137716338Y-193144372D01*
X138120399Y-193844227D01*
X138280621Y-193246273D01*
X137858515Y-192245790D02*
X138502466Y-192418336D01*
X137428920Y-192377175D02*
X138057243Y-192792028D01*
X138217465Y-192194074D01*
G04 #@! TO.C,D223*
X127209523Y-206452380D02*
X127209523Y-205452380D01*
X127447619Y-205452380D01*
X127590476Y-205500000D01*
X127685714Y-205595238D01*
X127733333Y-205690476D01*
X127780952Y-205880952D01*
X127780952Y-206023809D01*
X127733333Y-206214285D01*
X127685714Y-206309523D01*
X127590476Y-206404761D01*
X127447619Y-206452380D01*
X127209523Y-206452380D01*
X128161904Y-205547619D02*
X128209523Y-205500000D01*
X128304761Y-205452380D01*
X128542857Y-205452380D01*
X128638095Y-205500000D01*
X128685714Y-205547619D01*
X128733333Y-205642857D01*
X128733333Y-205738095D01*
X128685714Y-205880952D01*
X128114285Y-206452380D01*
X128733333Y-206452380D01*
X129114285Y-205547619D02*
X129161904Y-205500000D01*
X129257142Y-205452380D01*
X129495238Y-205452380D01*
X129590476Y-205500000D01*
X129638095Y-205547619D01*
X129685714Y-205642857D01*
X129685714Y-205738095D01*
X129638095Y-205880952D01*
X129066666Y-206452380D01*
X129685714Y-206452380D01*
X130019047Y-205452380D02*
X130638095Y-205452380D01*
X130304761Y-205833333D01*
X130447619Y-205833333D01*
X130542857Y-205880952D01*
X130590476Y-205928571D01*
X130638095Y-206023809D01*
X130638095Y-206261904D01*
X130590476Y-206357142D01*
X130542857Y-206404761D01*
X130447619Y-206452380D01*
X130161904Y-206452380D01*
X130066666Y-206404761D01*
X130019047Y-206357142D01*
G04 #@! TO.C,D222*
X123609523Y-210052380D02*
X123609523Y-209052380D01*
X123847619Y-209052380D01*
X123990476Y-209100000D01*
X124085714Y-209195238D01*
X124133333Y-209290476D01*
X124180952Y-209480952D01*
X124180952Y-209623809D01*
X124133333Y-209814285D01*
X124085714Y-209909523D01*
X123990476Y-210004761D01*
X123847619Y-210052380D01*
X123609523Y-210052380D01*
X124561904Y-209147619D02*
X124609523Y-209100000D01*
X124704761Y-209052380D01*
X124942857Y-209052380D01*
X125038095Y-209100000D01*
X125085714Y-209147619D01*
X125133333Y-209242857D01*
X125133333Y-209338095D01*
X125085714Y-209480952D01*
X124514285Y-210052380D01*
X125133333Y-210052380D01*
X125514285Y-209147619D02*
X125561904Y-209100000D01*
X125657142Y-209052380D01*
X125895238Y-209052380D01*
X125990476Y-209100000D01*
X126038095Y-209147619D01*
X126085714Y-209242857D01*
X126085714Y-209338095D01*
X126038095Y-209480952D01*
X125466666Y-210052380D01*
X126085714Y-210052380D01*
X126466666Y-209147619D02*
X126514285Y-209100000D01*
X126609523Y-209052380D01*
X126847619Y-209052380D01*
X126942857Y-209100000D01*
X126990476Y-209147619D01*
X127038095Y-209242857D01*
X127038095Y-209338095D01*
X126990476Y-209480952D01*
X126419047Y-210052380D01*
X127038095Y-210052380D01*
G04 #@! TO.C,D221*
X119909523Y-212152380D02*
X119909523Y-211152380D01*
X120147619Y-211152380D01*
X120290476Y-211200000D01*
X120385714Y-211295238D01*
X120433333Y-211390476D01*
X120480952Y-211580952D01*
X120480952Y-211723809D01*
X120433333Y-211914285D01*
X120385714Y-212009523D01*
X120290476Y-212104761D01*
X120147619Y-212152380D01*
X119909523Y-212152380D01*
X120861904Y-211247619D02*
X120909523Y-211200000D01*
X121004761Y-211152380D01*
X121242857Y-211152380D01*
X121338095Y-211200000D01*
X121385714Y-211247619D01*
X121433333Y-211342857D01*
X121433333Y-211438095D01*
X121385714Y-211580952D01*
X120814285Y-212152380D01*
X121433333Y-212152380D01*
X121814285Y-211247619D02*
X121861904Y-211200000D01*
X121957142Y-211152380D01*
X122195238Y-211152380D01*
X122290476Y-211200000D01*
X122338095Y-211247619D01*
X122385714Y-211342857D01*
X122385714Y-211438095D01*
X122338095Y-211580952D01*
X121766666Y-212152380D01*
X122385714Y-212152380D01*
X123338095Y-212152380D02*
X122766666Y-212152380D01*
X123052380Y-212152380D02*
X123052380Y-211152380D01*
X122957142Y-211295238D01*
X122861904Y-211390476D01*
X122766666Y-211438095D01*
G04 #@! TO.C,D220*
X115909523Y-214952380D02*
X115909523Y-213952380D01*
X116147619Y-213952380D01*
X116290476Y-214000000D01*
X116385714Y-214095238D01*
X116433333Y-214190476D01*
X116480952Y-214380952D01*
X116480952Y-214523809D01*
X116433333Y-214714285D01*
X116385714Y-214809523D01*
X116290476Y-214904761D01*
X116147619Y-214952380D01*
X115909523Y-214952380D01*
X116861904Y-214047619D02*
X116909523Y-214000000D01*
X117004761Y-213952380D01*
X117242857Y-213952380D01*
X117338095Y-214000000D01*
X117385714Y-214047619D01*
X117433333Y-214142857D01*
X117433333Y-214238095D01*
X117385714Y-214380952D01*
X116814285Y-214952380D01*
X117433333Y-214952380D01*
X117814285Y-214047619D02*
X117861904Y-214000000D01*
X117957142Y-213952380D01*
X118195238Y-213952380D01*
X118290476Y-214000000D01*
X118338095Y-214047619D01*
X118385714Y-214142857D01*
X118385714Y-214238095D01*
X118338095Y-214380952D01*
X117766666Y-214952380D01*
X118385714Y-214952380D01*
X119004761Y-213952380D02*
X119100000Y-213952380D01*
X119195238Y-214000000D01*
X119242857Y-214047619D01*
X119290476Y-214142857D01*
X119338095Y-214333333D01*
X119338095Y-214571428D01*
X119290476Y-214761904D01*
X119242857Y-214857142D01*
X119195238Y-214904761D01*
X119100000Y-214952380D01*
X119004761Y-214952380D01*
X118909523Y-214904761D01*
X118861904Y-214857142D01*
X118814285Y-214761904D01*
X118766666Y-214571428D01*
X118766666Y-214333333D01*
X118814285Y-214142857D01*
X118861904Y-214047619D01*
X118909523Y-214000000D01*
X119004761Y-213952380D01*
G04 #@! TO.C,D219*
X112009523Y-216652380D02*
X112009523Y-215652380D01*
X112247619Y-215652380D01*
X112390476Y-215700000D01*
X112485714Y-215795238D01*
X112533333Y-215890476D01*
X112580952Y-216080952D01*
X112580952Y-216223809D01*
X112533333Y-216414285D01*
X112485714Y-216509523D01*
X112390476Y-216604761D01*
X112247619Y-216652380D01*
X112009523Y-216652380D01*
X112961904Y-215747619D02*
X113009523Y-215700000D01*
X113104761Y-215652380D01*
X113342857Y-215652380D01*
X113438095Y-215700000D01*
X113485714Y-215747619D01*
X113533333Y-215842857D01*
X113533333Y-215938095D01*
X113485714Y-216080952D01*
X112914285Y-216652380D01*
X113533333Y-216652380D01*
X114485714Y-216652380D02*
X113914285Y-216652380D01*
X114200000Y-216652380D02*
X114200000Y-215652380D01*
X114104761Y-215795238D01*
X114009523Y-215890476D01*
X113914285Y-215938095D01*
X114961904Y-216652380D02*
X115152380Y-216652380D01*
X115247619Y-216604761D01*
X115295238Y-216557142D01*
X115390476Y-216414285D01*
X115438095Y-216223809D01*
X115438095Y-215842857D01*
X115390476Y-215747619D01*
X115342857Y-215700000D01*
X115247619Y-215652380D01*
X115057142Y-215652380D01*
X114961904Y-215700000D01*
X114914285Y-215747619D01*
X114866666Y-215842857D01*
X114866666Y-216080952D01*
X114914285Y-216176190D01*
X114961904Y-216223809D01*
X115057142Y-216271428D01*
X115247619Y-216271428D01*
X115342857Y-216223809D01*
X115390476Y-216176190D01*
X115438095Y-216080952D01*
G04 #@! TO.C,D218*
X111002380Y-221490476D02*
X110002380Y-221490476D01*
X110002380Y-221252380D01*
X110050000Y-221109523D01*
X110145238Y-221014285D01*
X110240476Y-220966666D01*
X110430952Y-220919047D01*
X110573809Y-220919047D01*
X110764285Y-220966666D01*
X110859523Y-221014285D01*
X110954761Y-221109523D01*
X111002380Y-221252380D01*
X111002380Y-221490476D01*
X110097619Y-220538095D02*
X110050000Y-220490476D01*
X110002380Y-220395238D01*
X110002380Y-220157142D01*
X110050000Y-220061904D01*
X110097619Y-220014285D01*
X110192857Y-219966666D01*
X110288095Y-219966666D01*
X110430952Y-220014285D01*
X111002380Y-220585714D01*
X111002380Y-219966666D01*
X111002380Y-219014285D02*
X111002380Y-219585714D01*
X111002380Y-219300000D02*
X110002380Y-219300000D01*
X110145238Y-219395238D01*
X110240476Y-219490476D01*
X110288095Y-219585714D01*
X110430952Y-218442857D02*
X110383333Y-218538095D01*
X110335714Y-218585714D01*
X110240476Y-218633333D01*
X110192857Y-218633333D01*
X110097619Y-218585714D01*
X110050000Y-218538095D01*
X110002380Y-218442857D01*
X110002380Y-218252380D01*
X110050000Y-218157142D01*
X110097619Y-218109523D01*
X110192857Y-218061904D01*
X110240476Y-218061904D01*
X110335714Y-218109523D01*
X110383333Y-218157142D01*
X110430952Y-218252380D01*
X110430952Y-218442857D01*
X110478571Y-218538095D01*
X110526190Y-218585714D01*
X110621428Y-218633333D01*
X110811904Y-218633333D01*
X110907142Y-218585714D01*
X110954761Y-218538095D01*
X111002380Y-218442857D01*
X111002380Y-218252380D01*
X110954761Y-218157142D01*
X110907142Y-218109523D01*
X110811904Y-218061904D01*
X110621428Y-218061904D01*
X110526190Y-218109523D01*
X110478571Y-218157142D01*
X110430952Y-218252380D01*
G04 #@! TO.C,D217*
X106309523Y-218452380D02*
X106309523Y-217452380D01*
X106547619Y-217452380D01*
X106690476Y-217500000D01*
X106785714Y-217595238D01*
X106833333Y-217690476D01*
X106880952Y-217880952D01*
X106880952Y-218023809D01*
X106833333Y-218214285D01*
X106785714Y-218309523D01*
X106690476Y-218404761D01*
X106547619Y-218452380D01*
X106309523Y-218452380D01*
X107261904Y-217547619D02*
X107309523Y-217500000D01*
X107404761Y-217452380D01*
X107642857Y-217452380D01*
X107738095Y-217500000D01*
X107785714Y-217547619D01*
X107833333Y-217642857D01*
X107833333Y-217738095D01*
X107785714Y-217880952D01*
X107214285Y-218452380D01*
X107833333Y-218452380D01*
X108785714Y-218452380D02*
X108214285Y-218452380D01*
X108500000Y-218452380D02*
X108500000Y-217452380D01*
X108404761Y-217595238D01*
X108309523Y-217690476D01*
X108214285Y-217738095D01*
X109119047Y-217452380D02*
X109785714Y-217452380D01*
X109357142Y-218452380D01*
G04 #@! TO.C,D216*
X101009523Y-218352380D02*
X101009523Y-217352380D01*
X101247619Y-217352380D01*
X101390476Y-217400000D01*
X101485714Y-217495238D01*
X101533333Y-217590476D01*
X101580952Y-217780952D01*
X101580952Y-217923809D01*
X101533333Y-218114285D01*
X101485714Y-218209523D01*
X101390476Y-218304761D01*
X101247619Y-218352380D01*
X101009523Y-218352380D01*
X101961904Y-217447619D02*
X102009523Y-217400000D01*
X102104761Y-217352380D01*
X102342857Y-217352380D01*
X102438095Y-217400000D01*
X102485714Y-217447619D01*
X102533333Y-217542857D01*
X102533333Y-217638095D01*
X102485714Y-217780952D01*
X101914285Y-218352380D01*
X102533333Y-218352380D01*
X103485714Y-218352380D02*
X102914285Y-218352380D01*
X103200000Y-218352380D02*
X103200000Y-217352380D01*
X103104761Y-217495238D01*
X103009523Y-217590476D01*
X102914285Y-217638095D01*
X104342857Y-217352380D02*
X104152380Y-217352380D01*
X104057142Y-217400000D01*
X104009523Y-217447619D01*
X103914285Y-217590476D01*
X103866666Y-217780952D01*
X103866666Y-218161904D01*
X103914285Y-218257142D01*
X103961904Y-218304761D01*
X104057142Y-218352380D01*
X104247619Y-218352380D01*
X104342857Y-218304761D01*
X104390476Y-218257142D01*
X104438095Y-218161904D01*
X104438095Y-217923809D01*
X104390476Y-217828571D01*
X104342857Y-217780952D01*
X104247619Y-217733333D01*
X104057142Y-217733333D01*
X103961904Y-217780952D01*
X103914285Y-217828571D01*
X103866666Y-217923809D01*
G04 #@! TO.C,D215*
X99652380Y-221490476D02*
X98652380Y-221490476D01*
X98652380Y-221252380D01*
X98700000Y-221109523D01*
X98795238Y-221014285D01*
X98890476Y-220966666D01*
X99080952Y-220919047D01*
X99223809Y-220919047D01*
X99414285Y-220966666D01*
X99509523Y-221014285D01*
X99604761Y-221109523D01*
X99652380Y-221252380D01*
X99652380Y-221490476D01*
X98747619Y-220538095D02*
X98700000Y-220490476D01*
X98652380Y-220395238D01*
X98652380Y-220157142D01*
X98700000Y-220061904D01*
X98747619Y-220014285D01*
X98842857Y-219966666D01*
X98938095Y-219966666D01*
X99080952Y-220014285D01*
X99652380Y-220585714D01*
X99652380Y-219966666D01*
X99652380Y-219014285D02*
X99652380Y-219585714D01*
X99652380Y-219300000D02*
X98652380Y-219300000D01*
X98795238Y-219395238D01*
X98890476Y-219490476D01*
X98938095Y-219585714D01*
X98652380Y-218109523D02*
X98652380Y-218585714D01*
X99128571Y-218633333D01*
X99080952Y-218585714D01*
X99033333Y-218490476D01*
X99033333Y-218252380D01*
X99080952Y-218157142D01*
X99128571Y-218109523D01*
X99223809Y-218061904D01*
X99461904Y-218061904D01*
X99557142Y-218109523D01*
X99604761Y-218157142D01*
X99652380Y-218252380D01*
X99652380Y-218490476D01*
X99604761Y-218585714D01*
X99557142Y-218633333D01*
G04 #@! TO.C,D214*
X94309523Y-216752380D02*
X94309523Y-215752380D01*
X94547619Y-215752380D01*
X94690476Y-215800000D01*
X94785714Y-215895238D01*
X94833333Y-215990476D01*
X94880952Y-216180952D01*
X94880952Y-216323809D01*
X94833333Y-216514285D01*
X94785714Y-216609523D01*
X94690476Y-216704761D01*
X94547619Y-216752380D01*
X94309523Y-216752380D01*
X95261904Y-215847619D02*
X95309523Y-215800000D01*
X95404761Y-215752380D01*
X95642857Y-215752380D01*
X95738095Y-215800000D01*
X95785714Y-215847619D01*
X95833333Y-215942857D01*
X95833333Y-216038095D01*
X95785714Y-216180952D01*
X95214285Y-216752380D01*
X95833333Y-216752380D01*
X96785714Y-216752380D02*
X96214285Y-216752380D01*
X96500000Y-216752380D02*
X96500000Y-215752380D01*
X96404761Y-215895238D01*
X96309523Y-215990476D01*
X96214285Y-216038095D01*
X97642857Y-216085714D02*
X97642857Y-216752380D01*
X97404761Y-215704761D02*
X97166666Y-216419047D01*
X97785714Y-216419047D01*
G04 #@! TO.C,D213*
X90009523Y-215052380D02*
X90009523Y-214052380D01*
X90247619Y-214052380D01*
X90390476Y-214100000D01*
X90485714Y-214195238D01*
X90533333Y-214290476D01*
X90580952Y-214480952D01*
X90580952Y-214623809D01*
X90533333Y-214814285D01*
X90485714Y-214909523D01*
X90390476Y-215004761D01*
X90247619Y-215052380D01*
X90009523Y-215052380D01*
X90961904Y-214147619D02*
X91009523Y-214100000D01*
X91104761Y-214052380D01*
X91342857Y-214052380D01*
X91438095Y-214100000D01*
X91485714Y-214147619D01*
X91533333Y-214242857D01*
X91533333Y-214338095D01*
X91485714Y-214480952D01*
X90914285Y-215052380D01*
X91533333Y-215052380D01*
X92485714Y-215052380D02*
X91914285Y-215052380D01*
X92200000Y-215052380D02*
X92200000Y-214052380D01*
X92104761Y-214195238D01*
X92009523Y-214290476D01*
X91914285Y-214338095D01*
X92819047Y-214052380D02*
X93438095Y-214052380D01*
X93104761Y-214433333D01*
X93247619Y-214433333D01*
X93342857Y-214480952D01*
X93390476Y-214528571D01*
X93438095Y-214623809D01*
X93438095Y-214861904D01*
X93390476Y-214957142D01*
X93342857Y-215004761D01*
X93247619Y-215052380D01*
X92961904Y-215052380D01*
X92866666Y-215004761D01*
X92819047Y-214957142D01*
G04 #@! TO.C,D212*
X86209523Y-212152380D02*
X86209523Y-211152380D01*
X86447619Y-211152380D01*
X86590476Y-211200000D01*
X86685714Y-211295238D01*
X86733333Y-211390476D01*
X86780952Y-211580952D01*
X86780952Y-211723809D01*
X86733333Y-211914285D01*
X86685714Y-212009523D01*
X86590476Y-212104761D01*
X86447619Y-212152380D01*
X86209523Y-212152380D01*
X87161904Y-211247619D02*
X87209523Y-211200000D01*
X87304761Y-211152380D01*
X87542857Y-211152380D01*
X87638095Y-211200000D01*
X87685714Y-211247619D01*
X87733333Y-211342857D01*
X87733333Y-211438095D01*
X87685714Y-211580952D01*
X87114285Y-212152380D01*
X87733333Y-212152380D01*
X88685714Y-212152380D02*
X88114285Y-212152380D01*
X88400000Y-212152380D02*
X88400000Y-211152380D01*
X88304761Y-211295238D01*
X88209523Y-211390476D01*
X88114285Y-211438095D01*
X89066666Y-211247619D02*
X89114285Y-211200000D01*
X89209523Y-211152380D01*
X89447619Y-211152380D01*
X89542857Y-211200000D01*
X89590476Y-211247619D01*
X89638095Y-211342857D01*
X89638095Y-211438095D01*
X89590476Y-211580952D01*
X89019047Y-212152380D01*
X89638095Y-212152380D01*
G04 #@! TO.C,D211*
X82609523Y-209952380D02*
X82609523Y-208952380D01*
X82847619Y-208952380D01*
X82990476Y-209000000D01*
X83085714Y-209095238D01*
X83133333Y-209190476D01*
X83180952Y-209380952D01*
X83180952Y-209523809D01*
X83133333Y-209714285D01*
X83085714Y-209809523D01*
X82990476Y-209904761D01*
X82847619Y-209952380D01*
X82609523Y-209952380D01*
X83561904Y-209047619D02*
X83609523Y-209000000D01*
X83704761Y-208952380D01*
X83942857Y-208952380D01*
X84038095Y-209000000D01*
X84085714Y-209047619D01*
X84133333Y-209142857D01*
X84133333Y-209238095D01*
X84085714Y-209380952D01*
X83514285Y-209952380D01*
X84133333Y-209952380D01*
X85085714Y-209952380D02*
X84514285Y-209952380D01*
X84800000Y-209952380D02*
X84800000Y-208952380D01*
X84704761Y-209095238D01*
X84609523Y-209190476D01*
X84514285Y-209238095D01*
X86038095Y-209952380D02*
X85466666Y-209952380D01*
X85752380Y-209952380D02*
X85752380Y-208952380D01*
X85657142Y-209095238D01*
X85561904Y-209190476D01*
X85466666Y-209238095D01*
G04 #@! TO.C,D210*
X78809523Y-206152380D02*
X78809523Y-205152380D01*
X79047619Y-205152380D01*
X79190476Y-205200000D01*
X79285714Y-205295238D01*
X79333333Y-205390476D01*
X79380952Y-205580952D01*
X79380952Y-205723809D01*
X79333333Y-205914285D01*
X79285714Y-206009523D01*
X79190476Y-206104761D01*
X79047619Y-206152380D01*
X78809523Y-206152380D01*
X79761904Y-205247619D02*
X79809523Y-205200000D01*
X79904761Y-205152380D01*
X80142857Y-205152380D01*
X80238095Y-205200000D01*
X80285714Y-205247619D01*
X80333333Y-205342857D01*
X80333333Y-205438095D01*
X80285714Y-205580952D01*
X79714285Y-206152380D01*
X80333333Y-206152380D01*
X81285714Y-206152380D02*
X80714285Y-206152380D01*
X81000000Y-206152380D02*
X81000000Y-205152380D01*
X80904761Y-205295238D01*
X80809523Y-205390476D01*
X80714285Y-205438095D01*
X81904761Y-205152380D02*
X82000000Y-205152380D01*
X82095238Y-205200000D01*
X82142857Y-205247619D01*
X82190476Y-205342857D01*
X82238095Y-205533333D01*
X82238095Y-205771428D01*
X82190476Y-205961904D01*
X82142857Y-206057142D01*
X82095238Y-206104761D01*
X82000000Y-206152380D01*
X81904761Y-206152380D01*
X81809523Y-206104761D01*
X81761904Y-206057142D01*
X81714285Y-205961904D01*
X81666666Y-205771428D01*
X81666666Y-205533333D01*
X81714285Y-205342857D01*
X81761904Y-205247619D01*
X81809523Y-205200000D01*
X81904761Y-205152380D01*
G04 #@! TO.C,SW106*
D17*
X108528634Y-206744258D02*
X108673777Y-206792639D01*
X108915681Y-206792639D01*
X109012443Y-206744258D01*
X109060824Y-206695877D01*
X109109205Y-206599115D01*
X109109205Y-206502353D01*
X109060824Y-206405591D01*
X109012443Y-206357210D01*
X108915681Y-206308829D01*
X108722158Y-206260448D01*
X108625396Y-206212067D01*
X108577015Y-206163686D01*
X108528634Y-206066924D01*
X108528634Y-205970162D01*
X108577015Y-205873400D01*
X108625396Y-205825020D01*
X108722158Y-205776639D01*
X108964062Y-205776639D01*
X109109205Y-205825020D01*
X109447872Y-205776639D02*
X109689777Y-206792639D01*
X109883300Y-206066924D01*
X110076824Y-206792639D01*
X110318729Y-205776639D01*
X111237967Y-206792639D02*
X110657396Y-206792639D01*
X110947681Y-206792639D02*
X110947681Y-205776639D01*
X110850920Y-205921781D01*
X110754158Y-206018543D01*
X110657396Y-206066924D01*
X111866920Y-205776639D02*
X111963681Y-205776639D01*
X112060443Y-205825020D01*
X112108824Y-205873400D01*
X112157205Y-205970162D01*
X112205586Y-206163686D01*
X112205586Y-206405591D01*
X112157205Y-206599115D01*
X112108824Y-206695877D01*
X112060443Y-206744258D01*
X111963681Y-206792639D01*
X111866920Y-206792639D01*
X111770158Y-206744258D01*
X111721777Y-206695877D01*
X111673396Y-206599115D01*
X111625015Y-206405591D01*
X111625015Y-206163686D01*
X111673396Y-205970162D01*
X111721777Y-205873400D01*
X111770158Y-205825020D01*
X111866920Y-205776639D01*
X113076443Y-205776639D02*
X112882920Y-205776639D01*
X112786158Y-205825020D01*
X112737777Y-205873400D01*
X112641015Y-206018543D01*
X112592634Y-206212067D01*
X112592634Y-206599115D01*
X112641015Y-206695877D01*
X112689396Y-206744258D01*
X112786158Y-206792639D01*
X112979681Y-206792639D01*
X113076443Y-206744258D01*
X113124824Y-206695877D01*
X113173205Y-206599115D01*
X113173205Y-206357210D01*
X113124824Y-206260448D01*
X113076443Y-206212067D01*
X112979681Y-206163686D01*
X112786158Y-206163686D01*
X112689396Y-206212067D01*
X112641015Y-206260448D01*
X112592634Y-206357210D01*
X110923491Y-204736448D02*
X111068634Y-204784829D01*
X111117015Y-204833210D01*
X111165396Y-204929972D01*
X111165396Y-205075115D01*
X111117015Y-205171877D01*
X111068634Y-205220258D01*
X110971872Y-205268639D01*
X110584824Y-205268639D01*
X110584824Y-204252639D01*
X110923491Y-204252639D01*
X111020253Y-204301020D01*
X111068634Y-204349400D01*
X111117015Y-204446162D01*
X111117015Y-204542924D01*
X111068634Y-204639686D01*
X111020253Y-204688067D01*
X110923491Y-204736448D01*
X110584824Y-204736448D01*
G04 #@! TO.C,SW108*
X138824380Y-133259619D02*
X138485714Y-132775809D01*
X138243809Y-133259619D02*
X138243809Y-132243619D01*
X138630857Y-132243619D01*
X138727619Y-132292000D01*
X138776000Y-132340380D01*
X138824380Y-132437142D01*
X138824380Y-132582285D01*
X138776000Y-132679047D01*
X138727619Y-132727428D01*
X138630857Y-132775809D01*
X138243809Y-132775809D01*
X139259809Y-132727428D02*
X139598476Y-132727428D01*
X139743619Y-133259619D02*
X139259809Y-133259619D01*
X139259809Y-132243619D01*
X139743619Y-132243619D01*
X140130666Y-133211238D02*
X140275809Y-133259619D01*
X140517714Y-133259619D01*
X140614476Y-133211238D01*
X140662857Y-133162857D01*
X140711238Y-133066095D01*
X140711238Y-132969333D01*
X140662857Y-132872571D01*
X140614476Y-132824190D01*
X140517714Y-132775809D01*
X140324190Y-132727428D01*
X140227428Y-132679047D01*
X140179047Y-132630666D01*
X140130666Y-132533904D01*
X140130666Y-132437142D01*
X140179047Y-132340380D01*
X140227428Y-132292000D01*
X140324190Y-132243619D01*
X140566095Y-132243619D01*
X140711238Y-132292000D01*
X141146666Y-132727428D02*
X141485333Y-132727428D01*
X141630476Y-133259619D02*
X141146666Y-133259619D01*
X141146666Y-132243619D01*
X141630476Y-132243619D01*
X141920761Y-132243619D02*
X142501333Y-132243619D01*
X142211047Y-133259619D02*
X142211047Y-132243619D01*
G04 #@! TO.C,SW107*
X102528634Y-212744258D02*
X102673777Y-212792639D01*
X102915681Y-212792639D01*
X103012443Y-212744258D01*
X103060824Y-212695877D01*
X103109205Y-212599115D01*
X103109205Y-212502353D01*
X103060824Y-212405591D01*
X103012443Y-212357210D01*
X102915681Y-212308829D01*
X102722158Y-212260448D01*
X102625396Y-212212067D01*
X102577015Y-212163686D01*
X102528634Y-212066924D01*
X102528634Y-211970162D01*
X102577015Y-211873400D01*
X102625396Y-211825020D01*
X102722158Y-211776639D01*
X102964062Y-211776639D01*
X103109205Y-211825020D01*
X103447872Y-211776639D02*
X103689777Y-212792639D01*
X103883300Y-212066924D01*
X104076824Y-212792639D01*
X104318729Y-211776639D01*
X105237967Y-212792639D02*
X104657396Y-212792639D01*
X104947681Y-212792639D02*
X104947681Y-211776639D01*
X104850920Y-211921781D01*
X104754158Y-212018543D01*
X104657396Y-212066924D01*
X105866920Y-211776639D02*
X105963681Y-211776639D01*
X106060443Y-211825020D01*
X106108824Y-211873400D01*
X106157205Y-211970162D01*
X106205586Y-212163686D01*
X106205586Y-212405591D01*
X106157205Y-212599115D01*
X106108824Y-212695877D01*
X106060443Y-212744258D01*
X105963681Y-212792639D01*
X105866920Y-212792639D01*
X105770158Y-212744258D01*
X105721777Y-212695877D01*
X105673396Y-212599115D01*
X105625015Y-212405591D01*
X105625015Y-212163686D01*
X105673396Y-211970162D01*
X105721777Y-211873400D01*
X105770158Y-211825020D01*
X105866920Y-211776639D01*
X106544253Y-211776639D02*
X107221586Y-211776639D01*
X106786158Y-212792639D01*
X102746348Y-210736448D02*
X103085015Y-210736448D01*
X103230158Y-211268639D02*
X102746348Y-211268639D01*
X102746348Y-210252639D01*
X103230158Y-210252639D01*
X103665586Y-211268639D02*
X103665586Y-210252639D01*
X104246158Y-211268639D01*
X104246158Y-210252639D01*
X104584824Y-210252639D02*
X105165396Y-210252639D01*
X104875110Y-211268639D02*
X104875110Y-210252639D01*
X105504062Y-210736448D02*
X105842729Y-210736448D01*
X105987872Y-211268639D02*
X105504062Y-211268639D01*
X105504062Y-210252639D01*
X105987872Y-210252639D01*
X107003872Y-211268639D02*
X106665205Y-210784829D01*
X106423300Y-211268639D02*
X106423300Y-210252639D01*
X106810348Y-210252639D01*
X106907110Y-210301020D01*
X106955491Y-210349400D01*
X107003872Y-210446162D01*
X107003872Y-210591305D01*
X106955491Y-210688067D01*
X106907110Y-210736448D01*
X106810348Y-210784829D01*
X106423300Y-210784829D01*
G04 #@! TO.C,SW105*
X96528634Y-206744258D02*
X96673777Y-206792639D01*
X96915681Y-206792639D01*
X97012443Y-206744258D01*
X97060824Y-206695877D01*
X97109205Y-206599115D01*
X97109205Y-206502353D01*
X97060824Y-206405591D01*
X97012443Y-206357210D01*
X96915681Y-206308829D01*
X96722158Y-206260448D01*
X96625396Y-206212067D01*
X96577015Y-206163686D01*
X96528634Y-206066924D01*
X96528634Y-205970162D01*
X96577015Y-205873400D01*
X96625396Y-205825020D01*
X96722158Y-205776639D01*
X96964062Y-205776639D01*
X97109205Y-205825020D01*
X97447872Y-205776639D02*
X97689777Y-206792639D01*
X97883300Y-206066924D01*
X98076824Y-206792639D01*
X98318729Y-205776639D01*
X99237967Y-206792639D02*
X98657396Y-206792639D01*
X98947681Y-206792639D02*
X98947681Y-205776639D01*
X98850920Y-205921781D01*
X98754158Y-206018543D01*
X98657396Y-206066924D01*
X99866920Y-205776639D02*
X99963681Y-205776639D01*
X100060443Y-205825020D01*
X100108824Y-205873400D01*
X100157205Y-205970162D01*
X100205586Y-206163686D01*
X100205586Y-206405591D01*
X100157205Y-206599115D01*
X100108824Y-206695877D01*
X100060443Y-206744258D01*
X99963681Y-206792639D01*
X99866920Y-206792639D01*
X99770158Y-206744258D01*
X99721777Y-206695877D01*
X99673396Y-206599115D01*
X99625015Y-206405591D01*
X99625015Y-206163686D01*
X99673396Y-205970162D01*
X99721777Y-205873400D01*
X99770158Y-205825020D01*
X99866920Y-205776639D01*
X101124824Y-205776639D02*
X100641015Y-205776639D01*
X100592634Y-206260448D01*
X100641015Y-206212067D01*
X100737777Y-206163686D01*
X100979681Y-206163686D01*
X101076443Y-206212067D01*
X101124824Y-206260448D01*
X101173205Y-206357210D01*
X101173205Y-206599115D01*
X101124824Y-206695877D01*
X101076443Y-206744258D01*
X100979681Y-206792639D01*
X100737777Y-206792639D01*
X100641015Y-206744258D01*
X100592634Y-206695877D01*
X98609015Y-204978353D02*
X99092824Y-204978353D01*
X98512253Y-205268639D02*
X98850920Y-204252639D01*
X99189586Y-205268639D01*
G04 #@! TO.C,U301*
D13*
X112905714Y-201457380D02*
X112905714Y-202266904D01*
X112953333Y-202362142D01*
X113000952Y-202409761D01*
X113096190Y-202457380D01*
X113286666Y-202457380D01*
X113381904Y-202409761D01*
X113429523Y-202362142D01*
X113477142Y-202266904D01*
X113477142Y-201457380D01*
X113858095Y-201457380D02*
X114477142Y-201457380D01*
X114143809Y-201838333D01*
X114286666Y-201838333D01*
X114381904Y-201885952D01*
X114429523Y-201933571D01*
X114477142Y-202028809D01*
X114477142Y-202266904D01*
X114429523Y-202362142D01*
X114381904Y-202409761D01*
X114286666Y-202457380D01*
X114000952Y-202457380D01*
X113905714Y-202409761D01*
X113858095Y-202362142D01*
X115096190Y-201457380D02*
X115191428Y-201457380D01*
X115286666Y-201505000D01*
X115334285Y-201552619D01*
X115381904Y-201647857D01*
X115429523Y-201838333D01*
X115429523Y-202076428D01*
X115381904Y-202266904D01*
X115334285Y-202362142D01*
X115286666Y-202409761D01*
X115191428Y-202457380D01*
X115096190Y-202457380D01*
X115000952Y-202409761D01*
X114953333Y-202362142D01*
X114905714Y-202266904D01*
X114858095Y-202076428D01*
X114858095Y-201838333D01*
X114905714Y-201647857D01*
X114953333Y-201552619D01*
X115000952Y-201505000D01*
X115096190Y-201457380D01*
X116381904Y-202457380D02*
X115810476Y-202457380D01*
X116096190Y-202457380D02*
X116096190Y-201457380D01*
X116000952Y-201600238D01*
X115905714Y-201695476D01*
X115810476Y-201743095D01*
G04 #@! TO.C,U502*
X97885714Y-58452380D02*
X97885714Y-59261904D01*
X97933333Y-59357142D01*
X97980952Y-59404761D01*
X98076190Y-59452380D01*
X98266666Y-59452380D01*
X98361904Y-59404761D01*
X98409523Y-59357142D01*
X98457142Y-59261904D01*
X98457142Y-58452380D01*
X99409523Y-58452380D02*
X98933333Y-58452380D01*
X98885714Y-58928571D01*
X98933333Y-58880952D01*
X99028571Y-58833333D01*
X99266666Y-58833333D01*
X99361904Y-58880952D01*
X99409523Y-58928571D01*
X99457142Y-59023809D01*
X99457142Y-59261904D01*
X99409523Y-59357142D01*
X99361904Y-59404761D01*
X99266666Y-59452380D01*
X99028571Y-59452380D01*
X98933333Y-59404761D01*
X98885714Y-59357142D01*
X100076190Y-58452380D02*
X100171428Y-58452380D01*
X100266666Y-58500000D01*
X100314285Y-58547619D01*
X100361904Y-58642857D01*
X100409523Y-58833333D01*
X100409523Y-59071428D01*
X100361904Y-59261904D01*
X100314285Y-59357142D01*
X100266666Y-59404761D01*
X100171428Y-59452380D01*
X100076190Y-59452380D01*
X99980952Y-59404761D01*
X99933333Y-59357142D01*
X99885714Y-59261904D01*
X99838095Y-59071428D01*
X99838095Y-58833333D01*
X99885714Y-58642857D01*
X99933333Y-58547619D01*
X99980952Y-58500000D01*
X100076190Y-58452380D01*
X100790476Y-58547619D02*
X100838095Y-58500000D01*
X100933333Y-58452380D01*
X101171428Y-58452380D01*
X101266666Y-58500000D01*
X101314285Y-58547619D01*
X101361904Y-58642857D01*
X101361904Y-58738095D01*
X101314285Y-58880952D01*
X100742857Y-59452380D01*
X101361904Y-59452380D01*
G04 #@! TO.C,U401*
X81985714Y-136502380D02*
X81985714Y-137311904D01*
X82033333Y-137407142D01*
X82080952Y-137454761D01*
X82176190Y-137502380D01*
X82366666Y-137502380D01*
X82461904Y-137454761D01*
X82509523Y-137407142D01*
X82557142Y-137311904D01*
X82557142Y-136502380D01*
X83461904Y-136835714D02*
X83461904Y-137502380D01*
X83223809Y-136454761D02*
X82985714Y-137169047D01*
X83604761Y-137169047D01*
X84176190Y-136502380D02*
X84271428Y-136502380D01*
X84366666Y-136550000D01*
X84414285Y-136597619D01*
X84461904Y-136692857D01*
X84509523Y-136883333D01*
X84509523Y-137121428D01*
X84461904Y-137311904D01*
X84414285Y-137407142D01*
X84366666Y-137454761D01*
X84271428Y-137502380D01*
X84176190Y-137502380D01*
X84080952Y-137454761D01*
X84033333Y-137407142D01*
X83985714Y-137311904D01*
X83938095Y-137121428D01*
X83938095Y-136883333D01*
X83985714Y-136692857D01*
X84033333Y-136597619D01*
X84080952Y-136550000D01*
X84176190Y-136502380D01*
X85461904Y-137502380D02*
X84890476Y-137502380D01*
X85176190Y-137502380D02*
X85176190Y-136502380D01*
X85080952Y-136645238D01*
X84985714Y-136740476D01*
X84890476Y-136788095D01*
G04 #@! TO.C,R604*
X90822380Y-86119047D02*
X90346190Y-86452380D01*
X90822380Y-86690476D02*
X89822380Y-86690476D01*
X89822380Y-86309523D01*
X89870000Y-86214285D01*
X89917619Y-86166666D01*
X90012857Y-86119047D01*
X90155714Y-86119047D01*
X90250952Y-86166666D01*
X90298571Y-86214285D01*
X90346190Y-86309523D01*
X90346190Y-86690476D01*
X89822380Y-85261904D02*
X89822380Y-85452380D01*
X89870000Y-85547619D01*
X89917619Y-85595238D01*
X90060476Y-85690476D01*
X90250952Y-85738095D01*
X90631904Y-85738095D01*
X90727142Y-85690476D01*
X90774761Y-85642857D01*
X90822380Y-85547619D01*
X90822380Y-85357142D01*
X90774761Y-85261904D01*
X90727142Y-85214285D01*
X90631904Y-85166666D01*
X90393809Y-85166666D01*
X90298571Y-85214285D01*
X90250952Y-85261904D01*
X90203333Y-85357142D01*
X90203333Y-85547619D01*
X90250952Y-85642857D01*
X90298571Y-85690476D01*
X90393809Y-85738095D01*
X89822380Y-84547619D02*
X89822380Y-84452380D01*
X89870000Y-84357142D01*
X89917619Y-84309523D01*
X90012857Y-84261904D01*
X90203333Y-84214285D01*
X90441428Y-84214285D01*
X90631904Y-84261904D01*
X90727142Y-84309523D01*
X90774761Y-84357142D01*
X90822380Y-84452380D01*
X90822380Y-84547619D01*
X90774761Y-84642857D01*
X90727142Y-84690476D01*
X90631904Y-84738095D01*
X90441428Y-84785714D01*
X90203333Y-84785714D01*
X90012857Y-84738095D01*
X89917619Y-84690476D01*
X89870000Y-84642857D01*
X89822380Y-84547619D01*
X90155714Y-83357142D02*
X90822380Y-83357142D01*
X89774761Y-83595238D02*
X90489047Y-83833333D01*
X90489047Y-83214285D01*
G04 #@! TO.C,R603*
X100082380Y-109731047D02*
X99606190Y-110064380D01*
X100082380Y-110302476D02*
X99082380Y-110302476D01*
X99082380Y-109921523D01*
X99130000Y-109826285D01*
X99177619Y-109778666D01*
X99272857Y-109731047D01*
X99415714Y-109731047D01*
X99510952Y-109778666D01*
X99558571Y-109826285D01*
X99606190Y-109921523D01*
X99606190Y-110302476D01*
X99082380Y-108873904D02*
X99082380Y-109064380D01*
X99130000Y-109159619D01*
X99177619Y-109207238D01*
X99320476Y-109302476D01*
X99510952Y-109350095D01*
X99891904Y-109350095D01*
X99987142Y-109302476D01*
X100034761Y-109254857D01*
X100082380Y-109159619D01*
X100082380Y-108969142D01*
X100034761Y-108873904D01*
X99987142Y-108826285D01*
X99891904Y-108778666D01*
X99653809Y-108778666D01*
X99558571Y-108826285D01*
X99510952Y-108873904D01*
X99463333Y-108969142D01*
X99463333Y-109159619D01*
X99510952Y-109254857D01*
X99558571Y-109302476D01*
X99653809Y-109350095D01*
X99082380Y-108159619D02*
X99082380Y-108064380D01*
X99130000Y-107969142D01*
X99177619Y-107921523D01*
X99272857Y-107873904D01*
X99463333Y-107826285D01*
X99701428Y-107826285D01*
X99891904Y-107873904D01*
X99987142Y-107921523D01*
X100034761Y-107969142D01*
X100082380Y-108064380D01*
X100082380Y-108159619D01*
X100034761Y-108254857D01*
X99987142Y-108302476D01*
X99891904Y-108350095D01*
X99701428Y-108397714D01*
X99463333Y-108397714D01*
X99272857Y-108350095D01*
X99177619Y-108302476D01*
X99130000Y-108254857D01*
X99082380Y-108159619D01*
X99082380Y-107492952D02*
X99082380Y-106873904D01*
X99463333Y-107207238D01*
X99463333Y-107064380D01*
X99510952Y-106969142D01*
X99558571Y-106921523D01*
X99653809Y-106873904D01*
X99891904Y-106873904D01*
X99987142Y-106921523D01*
X100034761Y-106969142D01*
X100082380Y-107064380D01*
X100082380Y-107350095D01*
X100034761Y-107445333D01*
X99987142Y-107492952D01*
G04 #@! TO.C,R602*
X108682380Y-109731047D02*
X108206190Y-110064380D01*
X108682380Y-110302476D02*
X107682380Y-110302476D01*
X107682380Y-109921523D01*
X107730000Y-109826285D01*
X107777619Y-109778666D01*
X107872857Y-109731047D01*
X108015714Y-109731047D01*
X108110952Y-109778666D01*
X108158571Y-109826285D01*
X108206190Y-109921523D01*
X108206190Y-110302476D01*
X107682380Y-108873904D02*
X107682380Y-109064380D01*
X107730000Y-109159619D01*
X107777619Y-109207238D01*
X107920476Y-109302476D01*
X108110952Y-109350095D01*
X108491904Y-109350095D01*
X108587142Y-109302476D01*
X108634761Y-109254857D01*
X108682380Y-109159619D01*
X108682380Y-108969142D01*
X108634761Y-108873904D01*
X108587142Y-108826285D01*
X108491904Y-108778666D01*
X108253809Y-108778666D01*
X108158571Y-108826285D01*
X108110952Y-108873904D01*
X108063333Y-108969142D01*
X108063333Y-109159619D01*
X108110952Y-109254857D01*
X108158571Y-109302476D01*
X108253809Y-109350095D01*
X107682380Y-108159619D02*
X107682380Y-108064380D01*
X107730000Y-107969142D01*
X107777619Y-107921523D01*
X107872857Y-107873904D01*
X108063333Y-107826285D01*
X108301428Y-107826285D01*
X108491904Y-107873904D01*
X108587142Y-107921523D01*
X108634761Y-107969142D01*
X108682380Y-108064380D01*
X108682380Y-108159619D01*
X108634761Y-108254857D01*
X108587142Y-108302476D01*
X108491904Y-108350095D01*
X108301428Y-108397714D01*
X108063333Y-108397714D01*
X107872857Y-108350095D01*
X107777619Y-108302476D01*
X107730000Y-108254857D01*
X107682380Y-108159619D01*
X107777619Y-107445333D02*
X107730000Y-107397714D01*
X107682380Y-107302476D01*
X107682380Y-107064380D01*
X107730000Y-106969142D01*
X107777619Y-106921523D01*
X107872857Y-106873904D01*
X107968095Y-106873904D01*
X108110952Y-106921523D01*
X108682380Y-107492952D01*
X108682380Y-106873904D01*
G04 #@! TO.C,R601*
X96880952Y-99282380D02*
X96547619Y-98806190D01*
X96309523Y-99282380D02*
X96309523Y-98282380D01*
X96690476Y-98282380D01*
X96785714Y-98330000D01*
X96833333Y-98377619D01*
X96880952Y-98472857D01*
X96880952Y-98615714D01*
X96833333Y-98710952D01*
X96785714Y-98758571D01*
X96690476Y-98806190D01*
X96309523Y-98806190D01*
X97738095Y-98282380D02*
X97547619Y-98282380D01*
X97452380Y-98330000D01*
X97404761Y-98377619D01*
X97309523Y-98520476D01*
X97261904Y-98710952D01*
X97261904Y-99091904D01*
X97309523Y-99187142D01*
X97357142Y-99234761D01*
X97452380Y-99282380D01*
X97642857Y-99282380D01*
X97738095Y-99234761D01*
X97785714Y-99187142D01*
X97833333Y-99091904D01*
X97833333Y-98853809D01*
X97785714Y-98758571D01*
X97738095Y-98710952D01*
X97642857Y-98663333D01*
X97452380Y-98663333D01*
X97357142Y-98710952D01*
X97309523Y-98758571D01*
X97261904Y-98853809D01*
X98452380Y-98282380D02*
X98547619Y-98282380D01*
X98642857Y-98330000D01*
X98690476Y-98377619D01*
X98738095Y-98472857D01*
X98785714Y-98663333D01*
X98785714Y-98901428D01*
X98738095Y-99091904D01*
X98690476Y-99187142D01*
X98642857Y-99234761D01*
X98547619Y-99282380D01*
X98452380Y-99282380D01*
X98357142Y-99234761D01*
X98309523Y-99187142D01*
X98261904Y-99091904D01*
X98214285Y-98901428D01*
X98214285Y-98663333D01*
X98261904Y-98472857D01*
X98309523Y-98377619D01*
X98357142Y-98330000D01*
X98452380Y-98282380D01*
X99738095Y-99282380D02*
X99166666Y-99282380D01*
X99452380Y-99282380D02*
X99452380Y-98282380D01*
X99357142Y-98425238D01*
X99261904Y-98520476D01*
X99166666Y-98568095D01*
G04 #@! TO.C,R504*
X94080952Y-60822380D02*
X93747619Y-60346190D01*
X93509523Y-60822380D02*
X93509523Y-59822380D01*
X93890476Y-59822380D01*
X93985714Y-59870000D01*
X94033333Y-59917619D01*
X94080952Y-60012857D01*
X94080952Y-60155714D01*
X94033333Y-60250952D01*
X93985714Y-60298571D01*
X93890476Y-60346190D01*
X93509523Y-60346190D01*
X94985714Y-59822380D02*
X94509523Y-59822380D01*
X94461904Y-60298571D01*
X94509523Y-60250952D01*
X94604761Y-60203333D01*
X94842857Y-60203333D01*
X94938095Y-60250952D01*
X94985714Y-60298571D01*
X95033333Y-60393809D01*
X95033333Y-60631904D01*
X94985714Y-60727142D01*
X94938095Y-60774761D01*
X94842857Y-60822380D01*
X94604761Y-60822380D01*
X94509523Y-60774761D01*
X94461904Y-60727142D01*
X95652380Y-59822380D02*
X95747619Y-59822380D01*
X95842857Y-59870000D01*
X95890476Y-59917619D01*
X95938095Y-60012857D01*
X95985714Y-60203333D01*
X95985714Y-60441428D01*
X95938095Y-60631904D01*
X95890476Y-60727142D01*
X95842857Y-60774761D01*
X95747619Y-60822380D01*
X95652380Y-60822380D01*
X95557142Y-60774761D01*
X95509523Y-60727142D01*
X95461904Y-60631904D01*
X95414285Y-60441428D01*
X95414285Y-60203333D01*
X95461904Y-60012857D01*
X95509523Y-59917619D01*
X95557142Y-59870000D01*
X95652380Y-59822380D01*
X96842857Y-60155714D02*
X96842857Y-60822380D01*
X96604761Y-59774761D02*
X96366666Y-60489047D01*
X96985714Y-60489047D01*
G04 #@! TO.C,R503*
X83980952Y-73052380D02*
X83647619Y-72576190D01*
X83409523Y-73052380D02*
X83409523Y-72052380D01*
X83790476Y-72052380D01*
X83885714Y-72100000D01*
X83933333Y-72147619D01*
X83980952Y-72242857D01*
X83980952Y-72385714D01*
X83933333Y-72480952D01*
X83885714Y-72528571D01*
X83790476Y-72576190D01*
X83409523Y-72576190D01*
X84885714Y-72052380D02*
X84409523Y-72052380D01*
X84361904Y-72528571D01*
X84409523Y-72480952D01*
X84504761Y-72433333D01*
X84742857Y-72433333D01*
X84838095Y-72480952D01*
X84885714Y-72528571D01*
X84933333Y-72623809D01*
X84933333Y-72861904D01*
X84885714Y-72957142D01*
X84838095Y-73004761D01*
X84742857Y-73052380D01*
X84504761Y-73052380D01*
X84409523Y-73004761D01*
X84361904Y-72957142D01*
X85552380Y-72052380D02*
X85647619Y-72052380D01*
X85742857Y-72100000D01*
X85790476Y-72147619D01*
X85838095Y-72242857D01*
X85885714Y-72433333D01*
X85885714Y-72671428D01*
X85838095Y-72861904D01*
X85790476Y-72957142D01*
X85742857Y-73004761D01*
X85647619Y-73052380D01*
X85552380Y-73052380D01*
X85457142Y-73004761D01*
X85409523Y-72957142D01*
X85361904Y-72861904D01*
X85314285Y-72671428D01*
X85314285Y-72433333D01*
X85361904Y-72242857D01*
X85409523Y-72147619D01*
X85457142Y-72100000D01*
X85552380Y-72052380D01*
X86219047Y-72052380D02*
X86838095Y-72052380D01*
X86504761Y-72433333D01*
X86647619Y-72433333D01*
X86742857Y-72480952D01*
X86790476Y-72528571D01*
X86838095Y-72623809D01*
X86838095Y-72861904D01*
X86790476Y-72957142D01*
X86742857Y-73004761D01*
X86647619Y-73052380D01*
X86361904Y-73052380D01*
X86266666Y-73004761D01*
X86219047Y-72957142D01*
G04 #@! TO.C,R101*
X84280952Y-93852380D02*
X83947619Y-93376190D01*
X83709523Y-93852380D02*
X83709523Y-92852380D01*
X84090476Y-92852380D01*
X84185714Y-92900000D01*
X84233333Y-92947619D01*
X84280952Y-93042857D01*
X84280952Y-93185714D01*
X84233333Y-93280952D01*
X84185714Y-93328571D01*
X84090476Y-93376190D01*
X83709523Y-93376190D01*
X85233333Y-93852380D02*
X84661904Y-93852380D01*
X84947619Y-93852380D02*
X84947619Y-92852380D01*
X84852380Y-92995238D01*
X84757142Y-93090476D01*
X84661904Y-93138095D01*
X85852380Y-92852380D02*
X85947619Y-92852380D01*
X86042857Y-92900000D01*
X86090476Y-92947619D01*
X86138095Y-93042857D01*
X86185714Y-93233333D01*
X86185714Y-93471428D01*
X86138095Y-93661904D01*
X86090476Y-93757142D01*
X86042857Y-93804761D01*
X85947619Y-93852380D01*
X85852380Y-93852380D01*
X85757142Y-93804761D01*
X85709523Y-93757142D01*
X85661904Y-93661904D01*
X85614285Y-93471428D01*
X85614285Y-93233333D01*
X85661904Y-93042857D01*
X85709523Y-92947619D01*
X85757142Y-92900000D01*
X85852380Y-92852380D01*
X87138095Y-93852380D02*
X86566666Y-93852380D01*
X86852380Y-93852380D02*
X86852380Y-92852380D01*
X86757142Y-92995238D01*
X86661904Y-93090476D01*
X86566666Y-93138095D01*
G04 #@! TO.C,R303*
X117043452Y-204032380D02*
X116710119Y-203556190D01*
X116472023Y-204032380D02*
X116472023Y-203032380D01*
X116852976Y-203032380D01*
X116948214Y-203080000D01*
X116995833Y-203127619D01*
X117043452Y-203222857D01*
X117043452Y-203365714D01*
X116995833Y-203460952D01*
X116948214Y-203508571D01*
X116852976Y-203556190D01*
X116472023Y-203556190D01*
X117376785Y-203032380D02*
X117995833Y-203032380D01*
X117662500Y-203413333D01*
X117805357Y-203413333D01*
X117900595Y-203460952D01*
X117948214Y-203508571D01*
X117995833Y-203603809D01*
X117995833Y-203841904D01*
X117948214Y-203937142D01*
X117900595Y-203984761D01*
X117805357Y-204032380D01*
X117519642Y-204032380D01*
X117424404Y-203984761D01*
X117376785Y-203937142D01*
X118614880Y-203032380D02*
X118710119Y-203032380D01*
X118805357Y-203080000D01*
X118852976Y-203127619D01*
X118900595Y-203222857D01*
X118948214Y-203413333D01*
X118948214Y-203651428D01*
X118900595Y-203841904D01*
X118852976Y-203937142D01*
X118805357Y-203984761D01*
X118710119Y-204032380D01*
X118614880Y-204032380D01*
X118519642Y-203984761D01*
X118472023Y-203937142D01*
X118424404Y-203841904D01*
X118376785Y-203651428D01*
X118376785Y-203413333D01*
X118424404Y-203222857D01*
X118472023Y-203127619D01*
X118519642Y-203080000D01*
X118614880Y-203032380D01*
X119281547Y-203032380D02*
X119900595Y-203032380D01*
X119567261Y-203413333D01*
X119710119Y-203413333D01*
X119805357Y-203460952D01*
X119852976Y-203508571D01*
X119900595Y-203603809D01*
X119900595Y-203841904D01*
X119852976Y-203937142D01*
X119805357Y-203984761D01*
X119710119Y-204032380D01*
X119424404Y-204032380D01*
X119329166Y-203984761D01*
X119281547Y-203937142D01*
G04 #@! TO.C,R302*
X107393452Y-199022380D02*
X107060119Y-198546190D01*
X106822023Y-199022380D02*
X106822023Y-198022380D01*
X107202976Y-198022380D01*
X107298214Y-198070000D01*
X107345833Y-198117619D01*
X107393452Y-198212857D01*
X107393452Y-198355714D01*
X107345833Y-198450952D01*
X107298214Y-198498571D01*
X107202976Y-198546190D01*
X106822023Y-198546190D01*
X107726785Y-198022380D02*
X108345833Y-198022380D01*
X108012500Y-198403333D01*
X108155357Y-198403333D01*
X108250595Y-198450952D01*
X108298214Y-198498571D01*
X108345833Y-198593809D01*
X108345833Y-198831904D01*
X108298214Y-198927142D01*
X108250595Y-198974761D01*
X108155357Y-199022380D01*
X107869642Y-199022380D01*
X107774404Y-198974761D01*
X107726785Y-198927142D01*
X108964880Y-198022380D02*
X109060119Y-198022380D01*
X109155357Y-198070000D01*
X109202976Y-198117619D01*
X109250595Y-198212857D01*
X109298214Y-198403333D01*
X109298214Y-198641428D01*
X109250595Y-198831904D01*
X109202976Y-198927142D01*
X109155357Y-198974761D01*
X109060119Y-199022380D01*
X108964880Y-199022380D01*
X108869642Y-198974761D01*
X108822023Y-198927142D01*
X108774404Y-198831904D01*
X108726785Y-198641428D01*
X108726785Y-198403333D01*
X108774404Y-198212857D01*
X108822023Y-198117619D01*
X108869642Y-198070000D01*
X108964880Y-198022380D01*
X109679166Y-198117619D02*
X109726785Y-198070000D01*
X109822023Y-198022380D01*
X110060119Y-198022380D01*
X110155357Y-198070000D01*
X110202976Y-198117619D01*
X110250595Y-198212857D01*
X110250595Y-198308095D01*
X110202976Y-198450952D01*
X109631547Y-199022380D01*
X110250595Y-199022380D01*
G04 #@! TO.C,R403*
X76680952Y-141482380D02*
X76347619Y-141006190D01*
X76109523Y-141482380D02*
X76109523Y-140482380D01*
X76490476Y-140482380D01*
X76585714Y-140530000D01*
X76633333Y-140577619D01*
X76680952Y-140672857D01*
X76680952Y-140815714D01*
X76633333Y-140910952D01*
X76585714Y-140958571D01*
X76490476Y-141006190D01*
X76109523Y-141006190D01*
X77538095Y-140815714D02*
X77538095Y-141482380D01*
X77300000Y-140434761D02*
X77061904Y-141149047D01*
X77680952Y-141149047D01*
X78252380Y-140482380D02*
X78347619Y-140482380D01*
X78442857Y-140530000D01*
X78490476Y-140577619D01*
X78538095Y-140672857D01*
X78585714Y-140863333D01*
X78585714Y-141101428D01*
X78538095Y-141291904D01*
X78490476Y-141387142D01*
X78442857Y-141434761D01*
X78347619Y-141482380D01*
X78252380Y-141482380D01*
X78157142Y-141434761D01*
X78109523Y-141387142D01*
X78061904Y-141291904D01*
X78014285Y-141101428D01*
X78014285Y-140863333D01*
X78061904Y-140672857D01*
X78109523Y-140577619D01*
X78157142Y-140530000D01*
X78252380Y-140482380D01*
X78919047Y-140482380D02*
X79538095Y-140482380D01*
X79204761Y-140863333D01*
X79347619Y-140863333D01*
X79442857Y-140910952D01*
X79490476Y-140958571D01*
X79538095Y-141053809D01*
X79538095Y-141291904D01*
X79490476Y-141387142D01*
X79442857Y-141434761D01*
X79347619Y-141482380D01*
X79061904Y-141482380D01*
X78966666Y-141434761D01*
X78919047Y-141387142D01*
G04 #@! TO.C,R301*
X112893452Y-203962380D02*
X112560119Y-203486190D01*
X112322023Y-203962380D02*
X112322023Y-202962380D01*
X112702976Y-202962380D01*
X112798214Y-203010000D01*
X112845833Y-203057619D01*
X112893452Y-203152857D01*
X112893452Y-203295714D01*
X112845833Y-203390952D01*
X112798214Y-203438571D01*
X112702976Y-203486190D01*
X112322023Y-203486190D01*
X113226785Y-202962380D02*
X113845833Y-202962380D01*
X113512500Y-203343333D01*
X113655357Y-203343333D01*
X113750595Y-203390952D01*
X113798214Y-203438571D01*
X113845833Y-203533809D01*
X113845833Y-203771904D01*
X113798214Y-203867142D01*
X113750595Y-203914761D01*
X113655357Y-203962380D01*
X113369642Y-203962380D01*
X113274404Y-203914761D01*
X113226785Y-203867142D01*
X114464880Y-202962380D02*
X114560119Y-202962380D01*
X114655357Y-203010000D01*
X114702976Y-203057619D01*
X114750595Y-203152857D01*
X114798214Y-203343333D01*
X114798214Y-203581428D01*
X114750595Y-203771904D01*
X114702976Y-203867142D01*
X114655357Y-203914761D01*
X114560119Y-203962380D01*
X114464880Y-203962380D01*
X114369642Y-203914761D01*
X114322023Y-203867142D01*
X114274404Y-203771904D01*
X114226785Y-203581428D01*
X114226785Y-203343333D01*
X114274404Y-203152857D01*
X114322023Y-203057619D01*
X114369642Y-203010000D01*
X114464880Y-202962380D01*
X115750595Y-203962380D02*
X115179166Y-203962380D01*
X115464880Y-203962380D02*
X115464880Y-202962380D01*
X115369642Y-203105238D01*
X115274404Y-203200476D01*
X115179166Y-203248095D01*
G04 #@! TO.C,R404*
X92080952Y-157922380D02*
X91747619Y-157446190D01*
X91509523Y-157922380D02*
X91509523Y-156922380D01*
X91890476Y-156922380D01*
X91985714Y-156970000D01*
X92033333Y-157017619D01*
X92080952Y-157112857D01*
X92080952Y-157255714D01*
X92033333Y-157350952D01*
X91985714Y-157398571D01*
X91890476Y-157446190D01*
X91509523Y-157446190D01*
X92938095Y-157255714D02*
X92938095Y-157922380D01*
X92700000Y-156874761D02*
X92461904Y-157589047D01*
X93080952Y-157589047D01*
X93652380Y-156922380D02*
X93747619Y-156922380D01*
X93842857Y-156970000D01*
X93890476Y-157017619D01*
X93938095Y-157112857D01*
X93985714Y-157303333D01*
X93985714Y-157541428D01*
X93938095Y-157731904D01*
X93890476Y-157827142D01*
X93842857Y-157874761D01*
X93747619Y-157922380D01*
X93652380Y-157922380D01*
X93557142Y-157874761D01*
X93509523Y-157827142D01*
X93461904Y-157731904D01*
X93414285Y-157541428D01*
X93414285Y-157303333D01*
X93461904Y-157112857D01*
X93509523Y-157017619D01*
X93557142Y-156970000D01*
X93652380Y-156922380D01*
X94842857Y-157255714D02*
X94842857Y-157922380D01*
X94604761Y-156874761D02*
X94366666Y-157589047D01*
X94985714Y-157589047D01*
G04 #@! TO.C,R501*
X89068452Y-63822380D02*
X88735119Y-63346190D01*
X88497023Y-63822380D02*
X88497023Y-62822380D01*
X88877976Y-62822380D01*
X88973214Y-62870000D01*
X89020833Y-62917619D01*
X89068452Y-63012857D01*
X89068452Y-63155714D01*
X89020833Y-63250952D01*
X88973214Y-63298571D01*
X88877976Y-63346190D01*
X88497023Y-63346190D01*
X89973214Y-62822380D02*
X89497023Y-62822380D01*
X89449404Y-63298571D01*
X89497023Y-63250952D01*
X89592261Y-63203333D01*
X89830357Y-63203333D01*
X89925595Y-63250952D01*
X89973214Y-63298571D01*
X90020833Y-63393809D01*
X90020833Y-63631904D01*
X89973214Y-63727142D01*
X89925595Y-63774761D01*
X89830357Y-63822380D01*
X89592261Y-63822380D01*
X89497023Y-63774761D01*
X89449404Y-63727142D01*
X90639880Y-62822380D02*
X90735119Y-62822380D01*
X90830357Y-62870000D01*
X90877976Y-62917619D01*
X90925595Y-63012857D01*
X90973214Y-63203333D01*
X90973214Y-63441428D01*
X90925595Y-63631904D01*
X90877976Y-63727142D01*
X90830357Y-63774761D01*
X90735119Y-63822380D01*
X90639880Y-63822380D01*
X90544642Y-63774761D01*
X90497023Y-63727142D01*
X90449404Y-63631904D01*
X90401785Y-63441428D01*
X90401785Y-63203333D01*
X90449404Y-63012857D01*
X90497023Y-62917619D01*
X90544642Y-62870000D01*
X90639880Y-62822380D01*
X91925595Y-63822380D02*
X91354166Y-63822380D01*
X91639880Y-63822380D02*
X91639880Y-62822380D01*
X91544642Y-62965238D01*
X91449404Y-63060476D01*
X91354166Y-63108095D01*
G04 #@! TO.C,R605*
X93682380Y-90119047D02*
X93206190Y-90452380D01*
X93682380Y-90690476D02*
X92682380Y-90690476D01*
X92682380Y-90309523D01*
X92730000Y-90214285D01*
X92777619Y-90166666D01*
X92872857Y-90119047D01*
X93015714Y-90119047D01*
X93110952Y-90166666D01*
X93158571Y-90214285D01*
X93206190Y-90309523D01*
X93206190Y-90690476D01*
X92682380Y-89261904D02*
X92682380Y-89452380D01*
X92730000Y-89547619D01*
X92777619Y-89595238D01*
X92920476Y-89690476D01*
X93110952Y-89738095D01*
X93491904Y-89738095D01*
X93587142Y-89690476D01*
X93634761Y-89642857D01*
X93682380Y-89547619D01*
X93682380Y-89357142D01*
X93634761Y-89261904D01*
X93587142Y-89214285D01*
X93491904Y-89166666D01*
X93253809Y-89166666D01*
X93158571Y-89214285D01*
X93110952Y-89261904D01*
X93063333Y-89357142D01*
X93063333Y-89547619D01*
X93110952Y-89642857D01*
X93158571Y-89690476D01*
X93253809Y-89738095D01*
X92682380Y-88547619D02*
X92682380Y-88452380D01*
X92730000Y-88357142D01*
X92777619Y-88309523D01*
X92872857Y-88261904D01*
X93063333Y-88214285D01*
X93301428Y-88214285D01*
X93491904Y-88261904D01*
X93587142Y-88309523D01*
X93634761Y-88357142D01*
X93682380Y-88452380D01*
X93682380Y-88547619D01*
X93634761Y-88642857D01*
X93587142Y-88690476D01*
X93491904Y-88738095D01*
X93301428Y-88785714D01*
X93063333Y-88785714D01*
X92872857Y-88738095D01*
X92777619Y-88690476D01*
X92730000Y-88642857D01*
X92682380Y-88547619D01*
X92682380Y-87309523D02*
X92682380Y-87785714D01*
X93158571Y-87833333D01*
X93110952Y-87785714D01*
X93063333Y-87690476D01*
X93063333Y-87452380D01*
X93110952Y-87357142D01*
X93158571Y-87309523D01*
X93253809Y-87261904D01*
X93491904Y-87261904D01*
X93587142Y-87309523D01*
X93634761Y-87357142D01*
X93682380Y-87452380D01*
X93682380Y-87690476D01*
X93634761Y-87785714D01*
X93587142Y-87833333D01*
G04 #@! TO.C,R502*
X97452380Y-51619047D02*
X96976190Y-51952380D01*
X97452380Y-52190476D02*
X96452380Y-52190476D01*
X96452380Y-51809523D01*
X96500000Y-51714285D01*
X96547619Y-51666666D01*
X96642857Y-51619047D01*
X96785714Y-51619047D01*
X96880952Y-51666666D01*
X96928571Y-51714285D01*
X96976190Y-51809523D01*
X96976190Y-52190476D01*
X96452380Y-50714285D02*
X96452380Y-51190476D01*
X96928571Y-51238095D01*
X96880952Y-51190476D01*
X96833333Y-51095238D01*
X96833333Y-50857142D01*
X96880952Y-50761904D01*
X96928571Y-50714285D01*
X97023809Y-50666666D01*
X97261904Y-50666666D01*
X97357142Y-50714285D01*
X97404761Y-50761904D01*
X97452380Y-50857142D01*
X97452380Y-51095238D01*
X97404761Y-51190476D01*
X97357142Y-51238095D01*
X96452380Y-50047619D02*
X96452380Y-49952380D01*
X96500000Y-49857142D01*
X96547619Y-49809523D01*
X96642857Y-49761904D01*
X96833333Y-49714285D01*
X97071428Y-49714285D01*
X97261904Y-49761904D01*
X97357142Y-49809523D01*
X97404761Y-49857142D01*
X97452380Y-49952380D01*
X97452380Y-50047619D01*
X97404761Y-50142857D01*
X97357142Y-50190476D01*
X97261904Y-50238095D01*
X97071428Y-50285714D01*
X96833333Y-50285714D01*
X96642857Y-50238095D01*
X96547619Y-50190476D01*
X96500000Y-50142857D01*
X96452380Y-50047619D01*
X96547619Y-49333333D02*
X96500000Y-49285714D01*
X96452380Y-49190476D01*
X96452380Y-48952380D01*
X96500000Y-48857142D01*
X96547619Y-48809523D01*
X96642857Y-48761904D01*
X96738095Y-48761904D01*
X96880952Y-48809523D01*
X97452380Y-49380952D01*
X97452380Y-48761904D01*
G04 #@! TD*
M02*
