G04 #@! TF.GenerationSoftware,KiCad,Pcbnew,(5.0.2-5)-5*
G04 #@! TF.CreationDate,2019-02-16T21:29:27-08:00*
G04 #@! TF.ProjectId,DC27-badge,44433237-2d62-4616-9467-652e6b696361,rev?*
G04 #@! TF.SameCoordinates,Original*
G04 #@! TF.FileFunction,Soldermask,Bot*
G04 #@! TF.FilePolarity,Negative*
%FSLAX46Y46*%
G04 Gerber Fmt 4.6, Leading zero omitted, Abs format (unit mm)*
G04 Created by KiCad (PCBNEW (5.0.2-5)-5) date Saturday, February 16, 2019 at 09:29:27 PM*
%MOMM*%
%LPD*%
G01*
G04 APERTURE LIST*
%ADD10C,0.150000*%
G04 APERTURE END LIST*
D10*
G36*
X77979122Y-200046115D02*
X78095041Y-200069173D01*
X78422620Y-200204861D01*
X78713511Y-200399228D01*
X78717436Y-200401851D01*
X78968149Y-200652564D01*
X78968151Y-200652567D01*
X79111685Y-200867380D01*
X79165140Y-200947382D01*
X79300827Y-201274960D01*
X79370000Y-201622714D01*
X79370000Y-201977286D01*
X79300827Y-202325040D01*
X79165140Y-202652618D01*
X78968149Y-202947436D01*
X78717436Y-203198149D01*
X78717433Y-203198151D01*
X78422620Y-203395139D01*
X78095041Y-203530827D01*
X77979122Y-203553885D01*
X77747286Y-203600000D01*
X77392714Y-203600000D01*
X77160878Y-203553885D01*
X77044959Y-203530827D01*
X76717380Y-203395139D01*
X76422567Y-203198151D01*
X76422564Y-203198149D01*
X76171851Y-202947436D01*
X75974860Y-202652618D01*
X75839173Y-202325040D01*
X75770000Y-201977286D01*
X75770000Y-201622714D01*
X75839173Y-201274960D01*
X75974860Y-200947382D01*
X76028316Y-200867380D01*
X76171849Y-200652567D01*
X76171851Y-200652564D01*
X76422564Y-200401851D01*
X76426489Y-200399228D01*
X76717380Y-200204861D01*
X77044959Y-200069173D01*
X77160878Y-200046115D01*
X77392714Y-200000000D01*
X77747286Y-200000000D01*
X77979122Y-200046115D01*
X77979122Y-200046115D01*
G37*
G36*
X133619122Y-199966115D02*
X133735041Y-199989173D01*
X134062620Y-200124861D01*
X134182347Y-200204860D01*
X134357436Y-200321851D01*
X134608149Y-200572564D01*
X134608151Y-200572567D01*
X134805139Y-200867380D01*
X134940827Y-201194959D01*
X135010000Y-201542716D01*
X135010000Y-201897284D01*
X134940827Y-202245041D01*
X134805139Y-202572620D01*
X134610772Y-202863511D01*
X134608149Y-202867436D01*
X134357436Y-203118149D01*
X134357433Y-203118151D01*
X134062620Y-203315139D01*
X133735041Y-203450827D01*
X133619122Y-203473885D01*
X133387286Y-203520000D01*
X133032714Y-203520000D01*
X132800878Y-203473885D01*
X132684959Y-203450827D01*
X132357380Y-203315139D01*
X132062567Y-203118151D01*
X132062564Y-203118149D01*
X131811851Y-202867436D01*
X131809228Y-202863511D01*
X131614861Y-202572620D01*
X131479173Y-202245041D01*
X131410000Y-201897284D01*
X131410000Y-201542716D01*
X131479173Y-201194959D01*
X131614861Y-200867380D01*
X131811849Y-200572567D01*
X131811851Y-200572564D01*
X132062564Y-200321851D01*
X132237653Y-200204860D01*
X132357380Y-200124861D01*
X132684959Y-199989173D01*
X132800878Y-199966115D01*
X133032714Y-199920000D01*
X133387286Y-199920000D01*
X133619122Y-199966115D01*
X133619122Y-199966115D01*
G37*
G36*
X90050000Y-157700000D02*
X88150000Y-157700000D01*
X88150000Y-153900000D01*
X90050000Y-153900000D01*
X90050000Y-157700000D01*
X90050000Y-157700000D01*
G37*
G36*
X83350000Y-157700000D02*
X81450000Y-157700000D01*
X81450000Y-153900000D01*
X83350000Y-153900000D01*
X83350000Y-157700000D01*
X83350000Y-157700000D01*
G37*
G36*
X87450000Y-152000000D02*
X86050000Y-152000000D01*
X86050000Y-148100000D01*
X87450000Y-148100000D01*
X87450000Y-152000000D01*
X87450000Y-152000000D01*
G37*
G36*
X85450000Y-152000000D02*
X84050000Y-152000000D01*
X84050000Y-148100000D01*
X85450000Y-148100000D01*
X85450000Y-152000000D01*
X85450000Y-152000000D01*
G37*
G36*
X77979122Y-133546115D02*
X78095041Y-133569173D01*
X78422620Y-133704861D01*
X78713511Y-133899228D01*
X78717436Y-133901851D01*
X78968149Y-134152564D01*
X78968151Y-134152567D01*
X79165139Y-134447380D01*
X79285032Y-134736826D01*
X79300827Y-134774960D01*
X79370000Y-135122714D01*
X79370000Y-135477286D01*
X79325202Y-135702497D01*
X79315945Y-135749040D01*
X79300827Y-135825040D01*
X79165140Y-136152618D01*
X78968149Y-136447436D01*
X78717436Y-136698149D01*
X78717433Y-136698151D01*
X78422620Y-136895139D01*
X78095041Y-137030827D01*
X77979122Y-137053885D01*
X77747286Y-137100000D01*
X77392714Y-137100000D01*
X77160878Y-137053885D01*
X77044959Y-137030827D01*
X76717380Y-136895139D01*
X76422567Y-136698151D01*
X76422564Y-136698149D01*
X76171851Y-136447436D01*
X75974860Y-136152618D01*
X75839173Y-135825040D01*
X75824056Y-135749040D01*
X75814798Y-135702497D01*
X75770000Y-135477286D01*
X75770000Y-135122714D01*
X75839173Y-134774960D01*
X75854969Y-134736826D01*
X75974861Y-134447380D01*
X76171849Y-134152567D01*
X76171851Y-134152564D01*
X76422564Y-133901851D01*
X76426489Y-133899228D01*
X76717380Y-133704861D01*
X77044959Y-133569173D01*
X77160878Y-133546115D01*
X77392714Y-133500000D01*
X77747286Y-133500000D01*
X77979122Y-133546115D01*
X77979122Y-133546115D01*
G37*
G36*
X133619122Y-133466115D02*
X133735041Y-133489173D01*
X134062620Y-133624861D01*
X134182347Y-133704860D01*
X134357436Y-133821851D01*
X134608149Y-134072564D01*
X134608151Y-134072567D01*
X134805139Y-134367380D01*
X134917199Y-134637915D01*
X134940827Y-134694960D01*
X134995958Y-134972119D01*
X135010000Y-135042716D01*
X135010000Y-135397284D01*
X134940827Y-135745041D01*
X134805139Y-136072620D01*
X134610772Y-136363511D01*
X134608149Y-136367436D01*
X134357436Y-136618149D01*
X134357433Y-136618151D01*
X134062620Y-136815139D01*
X133735041Y-136950827D01*
X133619122Y-136973885D01*
X133387286Y-137020000D01*
X133032714Y-137020000D01*
X132800878Y-136973885D01*
X132684959Y-136950827D01*
X132357380Y-136815139D01*
X132062567Y-136618151D01*
X132062564Y-136618149D01*
X131811851Y-136367436D01*
X131809228Y-136363511D01*
X131614861Y-136072620D01*
X131479173Y-135745041D01*
X131410000Y-135397284D01*
X131410000Y-135042716D01*
X131424043Y-134972119D01*
X131479173Y-134694960D01*
X131502802Y-134637915D01*
X131614861Y-134367380D01*
X131811849Y-134072567D01*
X131811851Y-134072564D01*
X132062564Y-133821851D01*
X132237653Y-133704860D01*
X132357380Y-133624861D01*
X132684959Y-133489173D01*
X132800878Y-133466115D01*
X133032714Y-133420000D01*
X133387286Y-133420000D01*
X133619122Y-133466115D01*
X133619122Y-133466115D01*
G37*
G36*
X72499770Y-135996690D02*
X70700230Y-135996690D01*
X70700230Y-133999030D01*
X72499770Y-133999030D01*
X72499770Y-135996690D01*
X72499770Y-135996690D01*
G37*
G36*
X69393417Y-134457936D02*
X69407051Y-134459279D01*
X69447865Y-134471660D01*
X69529496Y-134496423D01*
X69642343Y-134556741D01*
X69741255Y-134637915D01*
X69822429Y-134736827D01*
X69882747Y-134849674D01*
X69919891Y-134972120D01*
X69932433Y-135099460D01*
X69922911Y-135196135D01*
X69919891Y-135226801D01*
X69907510Y-135267615D01*
X69882747Y-135349246D01*
X69822429Y-135462093D01*
X69741255Y-135561005D01*
X69642343Y-135642179D01*
X69529496Y-135702497D01*
X69447865Y-135727260D01*
X69407051Y-135739641D01*
X69393417Y-135740984D01*
X69311621Y-135749040D01*
X68549299Y-135749040D01*
X68467503Y-135740984D01*
X68453869Y-135739641D01*
X68413055Y-135727260D01*
X68331424Y-135702497D01*
X68218577Y-135642179D01*
X68119665Y-135561005D01*
X68038491Y-135462093D01*
X67978173Y-135349246D01*
X67953410Y-135267615D01*
X67941029Y-135226801D01*
X67938009Y-135196135D01*
X67928487Y-135099460D01*
X67941029Y-134972120D01*
X67978173Y-134849674D01*
X68038491Y-134736827D01*
X68119665Y-134637915D01*
X68218577Y-134556741D01*
X68331424Y-134496423D01*
X68413055Y-134471660D01*
X68453869Y-134459279D01*
X68467503Y-134457936D01*
X68549299Y-134449880D01*
X69311621Y-134449880D01*
X69393417Y-134457936D01*
X69393417Y-134457936D01*
G37*
G36*
X70075339Y-131723920D02*
X70075341Y-131723940D01*
X70075341Y-134148840D01*
X67775421Y-134148840D01*
X67775421Y-131876080D01*
X67775419Y-131876060D01*
X67775419Y-129451160D01*
X70075339Y-129451160D01*
X70075339Y-131723920D01*
X70075339Y-131723920D01*
G37*
G36*
X72401370Y-133424329D02*
X70798630Y-133424329D01*
X70798630Y-130175670D01*
X72401370Y-130175670D01*
X72401370Y-133424329D01*
X72401370Y-133424329D01*
G37*
G36*
X77635000Y-130660000D02*
X76785000Y-130660000D01*
X76785000Y-129960000D01*
X77635000Y-129960000D01*
X77635000Y-130660000D01*
X77635000Y-130660000D01*
G37*
G36*
X76235000Y-130660000D02*
X75385000Y-130660000D01*
X75385000Y-128960000D01*
X76235000Y-128960000D01*
X76235000Y-130660000D01*
X76235000Y-130660000D01*
G37*
G36*
X77635000Y-129660000D02*
X76785000Y-129660000D01*
X76785000Y-128960000D01*
X77635000Y-128960000D01*
X77635000Y-129660000D01*
X77635000Y-129660000D01*
G37*
G36*
X72499770Y-129600970D02*
X70700230Y-129600970D01*
X70700230Y-127603310D01*
X72499770Y-127603310D01*
X72499770Y-129600970D01*
X72499770Y-129600970D01*
G37*
G36*
X69393417Y-127859016D02*
X69407051Y-127860359D01*
X69447865Y-127872740D01*
X69529496Y-127897503D01*
X69642343Y-127957821D01*
X69741255Y-128038995D01*
X69822429Y-128137907D01*
X69882747Y-128250754D01*
X69906600Y-128329385D01*
X69916019Y-128360434D01*
X69919891Y-128373200D01*
X69932433Y-128500540D01*
X69919891Y-128627880D01*
X69882747Y-128750326D01*
X69822429Y-128863173D01*
X69741255Y-128962085D01*
X69642343Y-129043259D01*
X69529496Y-129103577D01*
X69447865Y-129128340D01*
X69407051Y-129140721D01*
X69393417Y-129142064D01*
X69311621Y-129150120D01*
X68549299Y-129150120D01*
X68467503Y-129142064D01*
X68453869Y-129140721D01*
X68413055Y-129128340D01*
X68331424Y-129103577D01*
X68218577Y-129043259D01*
X68119665Y-128962085D01*
X68038491Y-128863173D01*
X67978173Y-128750326D01*
X67941029Y-128627880D01*
X67928487Y-128500540D01*
X67941029Y-128373200D01*
X67944902Y-128360434D01*
X67954320Y-128329385D01*
X67978173Y-128250754D01*
X68038491Y-128137907D01*
X68119665Y-128038995D01*
X68218577Y-127957821D01*
X68331424Y-127897503D01*
X68413055Y-127872740D01*
X68453869Y-127860359D01*
X68467503Y-127859016D01*
X68549299Y-127850960D01*
X69311621Y-127850960D01*
X69393417Y-127859016D01*
X69393417Y-127859016D01*
G37*
G36*
X77989628Y-126740493D02*
X78037354Y-126754970D01*
X78081336Y-126778479D01*
X78119885Y-126810115D01*
X78151521Y-126848664D01*
X78175030Y-126892646D01*
X78189507Y-126940372D01*
X78195000Y-126996141D01*
X78195000Y-128123859D01*
X78189507Y-128179628D01*
X78175030Y-128227354D01*
X78151521Y-128271336D01*
X78119885Y-128309885D01*
X78081336Y-128341521D01*
X78037354Y-128365030D01*
X77989628Y-128379507D01*
X77933859Y-128385000D01*
X76306141Y-128385000D01*
X76250372Y-128379507D01*
X76202646Y-128365030D01*
X76158664Y-128341521D01*
X76120115Y-128309885D01*
X76088479Y-128271336D01*
X76064970Y-128227354D01*
X76050493Y-128179628D01*
X76045000Y-128123859D01*
X76045000Y-126996141D01*
X76050493Y-126940372D01*
X76064970Y-126892646D01*
X76088479Y-126848664D01*
X76120115Y-126810115D01*
X76158664Y-126778479D01*
X76202646Y-126754970D01*
X76250372Y-126740493D01*
X76306141Y-126735000D01*
X77933859Y-126735000D01*
X77989628Y-126740493D01*
X77989628Y-126740493D01*
G37*
G36*
X77989628Y-123940493D02*
X78037354Y-123954970D01*
X78081336Y-123978479D01*
X78119885Y-124010115D01*
X78151521Y-124048664D01*
X78175030Y-124092646D01*
X78189507Y-124140372D01*
X78195000Y-124196141D01*
X78195000Y-125323859D01*
X78189507Y-125379628D01*
X78175030Y-125427354D01*
X78151521Y-125471336D01*
X78119885Y-125509885D01*
X78081336Y-125541521D01*
X78037354Y-125565030D01*
X77989628Y-125579507D01*
X77933859Y-125585000D01*
X76306141Y-125585000D01*
X76250372Y-125579507D01*
X76202646Y-125565030D01*
X76158664Y-125541521D01*
X76120115Y-125509885D01*
X76088479Y-125471336D01*
X76064970Y-125427354D01*
X76050493Y-125379628D01*
X76045000Y-125323859D01*
X76045000Y-124196141D01*
X76050493Y-124140372D01*
X76064970Y-124092646D01*
X76088479Y-124048664D01*
X76120115Y-124010115D01*
X76158664Y-123978479D01*
X76202646Y-123954970D01*
X76250372Y-123940493D01*
X76306141Y-123935000D01*
X77933859Y-123935000D01*
X77989628Y-123940493D01*
X77989628Y-123940493D01*
G37*
G36*
X70817738Y-121866653D02*
X70859598Y-121874979D01*
X70894245Y-121889330D01*
X70977890Y-121923977D01*
X71084354Y-121995114D01*
X71174886Y-122085646D01*
X71246023Y-122192110D01*
X71295021Y-122310403D01*
X71320000Y-122435979D01*
X71320000Y-122575000D01*
X71322402Y-122599386D01*
X71329515Y-122622835D01*
X71341066Y-122644446D01*
X71356612Y-122663388D01*
X71375554Y-122678934D01*
X71397165Y-122690485D01*
X71420614Y-122697598D01*
X71445000Y-122700000D01*
X73380000Y-122700000D01*
X73380000Y-123800000D01*
X72505000Y-123800000D01*
X72480614Y-123802402D01*
X72457165Y-123809515D01*
X72435554Y-123821066D01*
X72416612Y-123836612D01*
X72401066Y-123855554D01*
X72389515Y-123877165D01*
X72382402Y-123900614D01*
X72380000Y-123925000D01*
X72380000Y-125350000D01*
X71180000Y-125350000D01*
X71180000Y-123950000D01*
X71355000Y-123950000D01*
X71379386Y-123947598D01*
X71402835Y-123940485D01*
X71424446Y-123928934D01*
X71443388Y-123913388D01*
X71458934Y-123894446D01*
X71470485Y-123872835D01*
X71477598Y-123849386D01*
X71480000Y-123825000D01*
X71480000Y-122869788D01*
X71477598Y-122845402D01*
X71470485Y-122821953D01*
X71458934Y-122800342D01*
X71443388Y-122781400D01*
X71424446Y-122765854D01*
X71402835Y-122754303D01*
X71379386Y-122747190D01*
X71355000Y-122744788D01*
X71330614Y-122747190D01*
X71307165Y-122754303D01*
X71285554Y-122765854D01*
X71266612Y-122781400D01*
X71251066Y-122800342D01*
X71174886Y-122914354D01*
X71084354Y-123004886D01*
X70977890Y-123076023D01*
X70894245Y-123110670D01*
X70859598Y-123125021D01*
X70817738Y-123133347D01*
X70734021Y-123150000D01*
X70605979Y-123150000D01*
X70522262Y-123133347D01*
X70480402Y-123125021D01*
X70445755Y-123110670D01*
X70362110Y-123076023D01*
X70255646Y-123004886D01*
X70165114Y-122914354D01*
X70093977Y-122807890D01*
X70048293Y-122697598D01*
X70044979Y-122689598D01*
X70020000Y-122564019D01*
X70020000Y-122435981D01*
X70044979Y-122310402D01*
X70059330Y-122275755D01*
X70093977Y-122192110D01*
X70165114Y-122085646D01*
X70255646Y-121995114D01*
X70362110Y-121923977D01*
X70445755Y-121889330D01*
X70480402Y-121874979D01*
X70522262Y-121866653D01*
X70605979Y-121850000D01*
X70734021Y-121850000D01*
X70817738Y-121866653D01*
X70817738Y-121866653D01*
G37*
G36*
X70170000Y-125350000D02*
X68970000Y-125350000D01*
X68970000Y-123950000D01*
X70170000Y-123950000D01*
X70170000Y-125350000D01*
X70170000Y-125350000D01*
G37*
G36*
X72380000Y-118075000D02*
X72382402Y-118099386D01*
X72389515Y-118122835D01*
X72401066Y-118144446D01*
X72416612Y-118163388D01*
X72435554Y-118178934D01*
X72457165Y-118190485D01*
X72480614Y-118197598D01*
X72505000Y-118200000D01*
X73380000Y-118200000D01*
X73380000Y-119300000D01*
X71445000Y-119300000D01*
X71420614Y-119302402D01*
X71397165Y-119309515D01*
X71375554Y-119321066D01*
X71356612Y-119336612D01*
X71341066Y-119355554D01*
X71329515Y-119377165D01*
X71322402Y-119400614D01*
X71320000Y-119425000D01*
X71320000Y-119575000D01*
X71322402Y-119599386D01*
X71329515Y-119622835D01*
X71341066Y-119644446D01*
X71356612Y-119663388D01*
X71375554Y-119678934D01*
X71397165Y-119690485D01*
X71420614Y-119697598D01*
X71445000Y-119700000D01*
X73380000Y-119700000D01*
X73380000Y-120800000D01*
X71480000Y-120800000D01*
X71480000Y-119869788D01*
X71477598Y-119845402D01*
X71470485Y-119821953D01*
X71458934Y-119800342D01*
X71443388Y-119781400D01*
X71424446Y-119765854D01*
X71402835Y-119754303D01*
X71379386Y-119747190D01*
X71355000Y-119744788D01*
X71330614Y-119747190D01*
X71307165Y-119754303D01*
X71285554Y-119765854D01*
X71266612Y-119781400D01*
X71251066Y-119800342D01*
X71174886Y-119914354D01*
X71084354Y-120004886D01*
X70977890Y-120076023D01*
X70894245Y-120110670D01*
X70859598Y-120125021D01*
X70817738Y-120133347D01*
X70734021Y-120150000D01*
X70605979Y-120150000D01*
X70522262Y-120133347D01*
X70480402Y-120125021D01*
X70445755Y-120110670D01*
X70362110Y-120076023D01*
X70255646Y-120004886D01*
X70165114Y-119914354D01*
X70093977Y-119807890D01*
X70048293Y-119697598D01*
X70044979Y-119689598D01*
X70020000Y-119564019D01*
X70020000Y-119435981D01*
X70044979Y-119310402D01*
X70071781Y-119245697D01*
X70093977Y-119192110D01*
X70165114Y-119085646D01*
X70255646Y-118995114D01*
X70362110Y-118923977D01*
X70445755Y-118889330D01*
X70480402Y-118874979D01*
X70522262Y-118866653D01*
X70605979Y-118850000D01*
X70734021Y-118850000D01*
X70817738Y-118866653D01*
X70859598Y-118874979D01*
X70894245Y-118889330D01*
X70977890Y-118923977D01*
X71084354Y-118995114D01*
X71174886Y-119085646D01*
X71251066Y-119199658D01*
X71266611Y-119218600D01*
X71285553Y-119234145D01*
X71307164Y-119245697D01*
X71330613Y-119252810D01*
X71355000Y-119255212D01*
X71379386Y-119252810D01*
X71402835Y-119245697D01*
X71424446Y-119234146D01*
X71443388Y-119218601D01*
X71458933Y-119199659D01*
X71470485Y-119178048D01*
X71477598Y-119154599D01*
X71480000Y-119130212D01*
X71480000Y-118175000D01*
X71477598Y-118150614D01*
X71470485Y-118127165D01*
X71458934Y-118105554D01*
X71443388Y-118086612D01*
X71424446Y-118071066D01*
X71402835Y-118059515D01*
X71379386Y-118052402D01*
X71355000Y-118050000D01*
X71180000Y-118050000D01*
X71180000Y-116650000D01*
X72380000Y-116650000D01*
X72380000Y-118075000D01*
X72380000Y-118075000D01*
G37*
G36*
X70170000Y-118050000D02*
X68970000Y-118050000D01*
X68970000Y-116650000D01*
X70170000Y-116650000D01*
X70170000Y-118050000D01*
X70170000Y-118050000D01*
G37*
G36*
X85399490Y-60799490D02*
X83000510Y-60799490D01*
X83000510Y-58400510D01*
X85399490Y-58400510D01*
X85399490Y-60799490D01*
X85399490Y-60799490D01*
G37*
G36*
X88359876Y-58446605D02*
X88578172Y-58537026D01*
X88774633Y-58668297D01*
X88941703Y-58835367D01*
X89072974Y-59031828D01*
X89163395Y-59250124D01*
X89209490Y-59481859D01*
X89209490Y-59718141D01*
X89163395Y-59949876D01*
X89072974Y-60168172D01*
X88941703Y-60364633D01*
X88774633Y-60531703D01*
X88578172Y-60662974D01*
X88359876Y-60753395D01*
X88128141Y-60799490D01*
X87891859Y-60799490D01*
X87660124Y-60753395D01*
X87441828Y-60662974D01*
X87245367Y-60531703D01*
X87078297Y-60364633D01*
X86947026Y-60168172D01*
X86856605Y-59949876D01*
X86810510Y-59718141D01*
X86810510Y-59481859D01*
X86856605Y-59250124D01*
X86947026Y-59031828D01*
X87078297Y-58835367D01*
X87245367Y-58668297D01*
X87441828Y-58537026D01*
X87660124Y-58446605D01*
X87891859Y-58400510D01*
X88128141Y-58400510D01*
X88359876Y-58446605D01*
X88359876Y-58446605D01*
G37*
G36*
X127359876Y-58246605D02*
X127578172Y-58337026D01*
X127774633Y-58468297D01*
X127941703Y-58635367D01*
X128072974Y-58831828D01*
X128163395Y-59050124D01*
X128209490Y-59281859D01*
X128209490Y-59518141D01*
X128163395Y-59749876D01*
X128072974Y-59968172D01*
X127941703Y-60164633D01*
X127774633Y-60331703D01*
X127578172Y-60462974D01*
X127359876Y-60553395D01*
X127128141Y-60599490D01*
X126891859Y-60599490D01*
X126660124Y-60553395D01*
X126441828Y-60462974D01*
X126245367Y-60331703D01*
X126078297Y-60164633D01*
X125947026Y-59968172D01*
X125856605Y-59749876D01*
X125810510Y-59518141D01*
X125810510Y-59281859D01*
X125856605Y-59050124D01*
X125947026Y-58831828D01*
X126078297Y-58635367D01*
X126245367Y-58468297D01*
X126441828Y-58337026D01*
X126660124Y-58246605D01*
X126891859Y-58200510D01*
X127128141Y-58200510D01*
X127359876Y-58246605D01*
X127359876Y-58246605D01*
G37*
G36*
X124399490Y-60599490D02*
X122000510Y-60599490D01*
X122000510Y-58200510D01*
X124399490Y-58200510D01*
X124399490Y-60599490D01*
X124399490Y-60599490D01*
G37*
G36*
X97009122Y-43646115D02*
X97125041Y-43669173D01*
X97452620Y-43804861D01*
X97743511Y-43999228D01*
X97747436Y-44001851D01*
X97998149Y-44252564D01*
X98195140Y-44547382D01*
X98330827Y-44874960D01*
X98400000Y-45222714D01*
X98400000Y-45577286D01*
X98330827Y-45925040D01*
X98195140Y-46252618D01*
X97998149Y-46547436D01*
X97747436Y-46798149D01*
X97747433Y-46798151D01*
X97452620Y-46995139D01*
X97125041Y-47130827D01*
X97009122Y-47153885D01*
X96777286Y-47200000D01*
X96422714Y-47200000D01*
X96190878Y-47153885D01*
X96074959Y-47130827D01*
X95747380Y-46995139D01*
X95452567Y-46798151D01*
X95452564Y-46798149D01*
X95201851Y-46547436D01*
X95004860Y-46252618D01*
X94869173Y-45925040D01*
X94800000Y-45577286D01*
X94800000Y-45222714D01*
X94869173Y-44874960D01*
X95004860Y-44547382D01*
X95201851Y-44252564D01*
X95452564Y-44001851D01*
X95456489Y-43999228D01*
X95747380Y-43804861D01*
X96074959Y-43669173D01*
X96190878Y-43646115D01*
X96422714Y-43600000D01*
X96777286Y-43600000D01*
X97009122Y-43646115D01*
X97009122Y-43646115D01*
G37*
G36*
X114209122Y-43646115D02*
X114325041Y-43669173D01*
X114652620Y-43804861D01*
X114943511Y-43999228D01*
X114947436Y-44001851D01*
X115198149Y-44252564D01*
X115395140Y-44547382D01*
X115530827Y-44874960D01*
X115600000Y-45222714D01*
X115600000Y-45577286D01*
X115530827Y-45925040D01*
X115395140Y-46252618D01*
X115198149Y-46547436D01*
X114947436Y-46798149D01*
X114947433Y-46798151D01*
X114652620Y-46995139D01*
X114325041Y-47130827D01*
X114209122Y-47153885D01*
X113977286Y-47200000D01*
X113622714Y-47200000D01*
X113390878Y-47153885D01*
X113274959Y-47130827D01*
X112947380Y-46995139D01*
X112652567Y-46798151D01*
X112652564Y-46798149D01*
X112401851Y-46547436D01*
X112204860Y-46252618D01*
X112069173Y-45925040D01*
X112000000Y-45577286D01*
X112000000Y-45222714D01*
X112069173Y-44874960D01*
X112204860Y-44547382D01*
X112401851Y-44252564D01*
X112652564Y-44001851D01*
X112656489Y-43999228D01*
X112947380Y-43804861D01*
X113274959Y-43669173D01*
X113390878Y-43646115D01*
X113622714Y-43600000D01*
X113977286Y-43600000D01*
X114209122Y-43646115D01*
X114209122Y-43646115D01*
G37*
M02*
