G04 #@! TF.GenerationSoftware,KiCad,Pcbnew,(5.0.2-5)-5*
G04 #@! TF.CreationDate,2019-02-16T21:29:27-08:00*
G04 #@! TF.ProjectId,DC27-badge,44433237-2d62-4616-9467-652e6b696361,rev?*
G04 #@! TF.SameCoordinates,Original*
G04 #@! TF.FileFunction,Profile,NP*
%FSLAX46Y46*%
G04 Gerber Fmt 4.6, Leading zero omitted, Abs format (unit mm)*
G04 Created by KiCad (PCBNEW (5.0.2-5)-5) date Saturday, February 16, 2019 at 09:29:27 PM*
%MOMM*%
%LPD*%
G01*
G04 APERTURE LIST*
%ADD10C,0.200000*%
G04 APERTURE END LIST*
D10*
X126179637Y-217537346D02*
X120902861Y-220391723D01*
X130957818Y-213886004D02*
X126179637Y-217537346D01*
X135247076Y-209475090D02*
X130957818Y-213886004D01*
X139255080Y-203885409D02*
X135247076Y-209475090D01*
X142173430Y-197849934D02*
X139255080Y-203885409D01*
X143970062Y-191384528D02*
X142173430Y-197849934D01*
X144612911Y-184505051D02*
X143970062Y-191384528D01*
X144690583Y-171709898D02*
X144612911Y-184505051D01*
X67091447Y-119764393D02*
X71237192Y-105851855D01*
X65628109Y-134788560D02*
X67091447Y-119764393D01*
X65591478Y-147043075D02*
X65628109Y-134788560D01*
X65627600Y-159298126D02*
X65591478Y-147043075D01*
X65694601Y-171553408D02*
X65627600Y-159298126D01*
X65750608Y-183808619D02*
X65694601Y-171553408D01*
X65861550Y-186828761D02*
X65750608Y-183808619D01*
X66182358Y-189820199D02*
X65861550Y-186828761D01*
X66722114Y-192770060D02*
X66182358Y-189820199D01*
X67489904Y-195665471D02*
X66722114Y-192770060D01*
X69917882Y-201755104D02*
X67489904Y-195665471D01*
X108034572Y-44728402D02*
X108034572Y-44728402D01*
X82323323Y-216292651D02*
X82323323Y-216292651D01*
X83647977Y-217121152D02*
X82323323Y-216292651D01*
X84972631Y-217949653D02*
X83647977Y-217121152D01*
X86297285Y-218778155D02*
X84972631Y-217949653D01*
X87621940Y-219606656D02*
X86297285Y-218778155D01*
X88935288Y-220152297D02*
X87621940Y-219606656D01*
X91666180Y-221107326D02*
X88935288Y-220152297D01*
X94419247Y-222027638D02*
X91666180Y-221107326D01*
X88126805Y-80593324D02*
X88347777Y-80060902D01*
X87437029Y-81359102D02*
X88126805Y-80593324D01*
X78030625Y-93050305D02*
X87437029Y-81359102D01*
X71237192Y-105851855D02*
X78030625Y-93050305D01*
X77308435Y-40460410D02*
X78865345Y-39446522D01*
X76319457Y-42046393D02*
X77308435Y-40460410D01*
X75970369Y-44128652D02*
X76319457Y-42046393D01*
X75962704Y-47653415D02*
X75970369Y-44128652D01*
X75958314Y-51178199D02*
X75962704Y-47653415D01*
X73221088Y-207216357D02*
X69917882Y-201755104D01*
X77367057Y-212058962D02*
X73221088Y-207216357D01*
X82323323Y-216292651D02*
X77367057Y-212058962D01*
X77028707Y-64976954D02*
X76254300Y-61680440D01*
X78277007Y-68123307D02*
X77028707Y-64976954D01*
X79976656Y-71125634D02*
X78277007Y-68123307D01*
X81600521Y-73259639D02*
X79976656Y-71125634D01*
X83434657Y-75182305D02*
X81600521Y-73259639D01*
X85381429Y-76991841D02*
X83434657Y-75182305D01*
X87343200Y-78786459D02*
X85381429Y-76991841D01*
X88089918Y-79534419D02*
X87343200Y-78786459D01*
X88347777Y-80060902D02*
X88089918Y-79534419D01*
X101700065Y-44140068D02*
X102418909Y-44977294D01*
X101028359Y-43383883D02*
X101700065Y-44140068D01*
X98846193Y-41475377D02*
X101028359Y-43383883D01*
X96434520Y-40124516D02*
X98846193Y-41475377D01*
X93794543Y-39325012D02*
X96434520Y-40124516D01*
X90927466Y-39070575D02*
X93794543Y-39325012D01*
X88425165Y-39076240D02*
X90927466Y-39070575D01*
X85922815Y-39073079D02*
X88425165Y-39076240D01*
X83420482Y-39071159D02*
X85922815Y-39073079D01*
X80918228Y-39080548D02*
X83420482Y-39071159D01*
X78865345Y-39446522D02*
X80918228Y-39080548D01*
X111170587Y-223224046D02*
X107200000Y-223600000D01*
X115117815Y-222411740D02*
X111170587Y-223224046D01*
X120902861Y-220391723D02*
X115117815Y-222411740D01*
X127035471Y-86021283D02*
X128701596Y-88065683D01*
X125310217Y-84008157D02*
X127035471Y-86021283D01*
X123546303Y-81992677D02*
X125310217Y-84008157D01*
X121764195Y-79941214D02*
X123546303Y-81992677D01*
X123005608Y-78790973D02*
X121764195Y-79941214D01*
X124248559Y-77639833D02*
X123005608Y-78790973D01*
X125491596Y-76487048D02*
X124248559Y-77639833D01*
X126733267Y-75331877D02*
X125491596Y-76487048D01*
X129682382Y-72109507D02*
X126733267Y-75331877D01*
X131952640Y-68529089D02*
X129682382Y-72109507D01*
X133475871Y-64585786D02*
X131952640Y-68529089D01*
X134183904Y-60274758D02*
X133475871Y-64585786D01*
X134362634Y-56108712D02*
X134183904Y-60274758D01*
X134417891Y-51934506D02*
X134362634Y-56108712D01*
X134399120Y-47756925D02*
X134417891Y-51934506D01*
X134355765Y-43580758D02*
X134399120Y-47756925D01*
X133986666Y-41821296D02*
X134355765Y-43580758D01*
X133009537Y-40415009D02*
X133986666Y-41821296D01*
X131566185Y-39474535D02*
X133009537Y-40415009D01*
X129798415Y-39112509D02*
X131566185Y-39474535D01*
X127122441Y-39073482D02*
X129798415Y-39112509D01*
X124446017Y-39056607D02*
X127122441Y-39073482D01*
X121769564Y-39061886D02*
X124446017Y-39056607D01*
X119093501Y-39089319D02*
X121769564Y-39061886D01*
X118227269Y-39133481D02*
X119093501Y-39089319D01*
X117360417Y-39234347D02*
X118227269Y-39133481D01*
X116498380Y-39381792D02*
X117360417Y-39234347D01*
X115646594Y-39565694D02*
X116498380Y-39381792D01*
X113529299Y-40303356D02*
X115646594Y-39565694D01*
X111637949Y-41406483D02*
X113529299Y-40303356D01*
X144719408Y-158914296D02*
X144690583Y-171709898D01*
X144692679Y-146118822D02*
X144719408Y-158914296D01*
X144603694Y-133324056D02*
X144692679Y-146118822D01*
X144479309Y-129846141D02*
X144603694Y-133324056D01*
X144182560Y-126365202D02*
X144479309Y-129846141D01*
X143728498Y-122899879D02*
X144182560Y-126365202D01*
X143132177Y-119468812D02*
X143728498Y-122899879D01*
X140948836Y-110955562D02*
X143132177Y-119468812D01*
X137804362Y-102879563D02*
X140948836Y-110955562D01*
X133716150Y-95247405D02*
X137804362Y-102879563D01*
X128701596Y-88065683D02*
X133716150Y-95247405D01*
X106172428Y-39564498D02*
X106419917Y-40021153D01*
X105759429Y-39275064D02*
X106172428Y-39564498D01*
X105180663Y-39169805D02*
X105759429Y-39275064D01*
X104599137Y-39266610D02*
X105180663Y-39169805D01*
X104174631Y-39554191D02*
X104599137Y-39266610D01*
X103904561Y-40005765D02*
X104174631Y-39554191D01*
X103786347Y-40594548D02*
X103904561Y-40005765D01*
X75961441Y-54702954D02*
X75958314Y-51178199D01*
X75976330Y-58227627D02*
X75961441Y-54702954D01*
X76254300Y-61680440D02*
X75976330Y-58227627D01*
X109925283Y-42795431D02*
X111637949Y-41406483D01*
X108344041Y-44390558D02*
X109925283Y-42795431D01*
X108003060Y-44845544D02*
X108344041Y-44390558D01*
X107535183Y-45482379D02*
X108003060Y-44845544D01*
X107076709Y-45969028D02*
X107535183Y-45482379D01*
X106763935Y-45973456D02*
X107076709Y-45969028D01*
X106613523Y-45185640D02*
X106763935Y-45973456D01*
X106535513Y-43774529D02*
X106613523Y-45185640D01*
X106506269Y-42126536D02*
X106535513Y-43774529D01*
X106502155Y-40628076D02*
X106506269Y-42126536D01*
X106419917Y-40021153D02*
X106502155Y-40628076D01*
X103766494Y-41067218D02*
X103786347Y-40594548D01*
X103763591Y-41541064D02*
X103766494Y-41067218D01*
X103768417Y-42015421D02*
X103763591Y-41541064D01*
X103771753Y-42489623D02*
X103768417Y-42015421D01*
X103756068Y-43495566D02*
X103771753Y-42489623D01*
X103701532Y-44626989D02*
X103756068Y-43495566D01*
X103594367Y-45550741D02*
X103701532Y-44626989D01*
X103420794Y-45933672D02*
X103594367Y-45550741D01*
X103040586Y-45655262D02*
X103420794Y-45933672D01*
X102418909Y-44977294D02*
X103040586Y-45655262D01*
X95799120Y-222469125D02*
X94419247Y-222027638D01*
X96644490Y-222654417D02*
X95799120Y-222469125D01*
X97495220Y-222816668D02*
X96644490Y-222654417D01*
X98349170Y-222963665D02*
X97495220Y-222816668D01*
X99204200Y-223103195D02*
X98349170Y-222963665D01*
X103209917Y-223554687D02*
X99204200Y-223103195D01*
X107200000Y-223600000D02*
X103209917Y-223554687D01*
X-391787898Y125936229D02*
X-391787898Y125936229D01*
X-185090489Y162136044D02*
X-185090489Y162136044D01*
M02*
