G04 #@! TF.GenerationSoftware,KiCad,Pcbnew,(5.0.2-5)-5*
G04 #@! TF.CreationDate,2019-02-19T21:12:35-08:00*
G04 #@! TF.ProjectId,DC27-badge,44433237-2d62-4616-9467-652e6b696361,rev?*
G04 #@! TF.SameCoordinates,Original*
G04 #@! TF.FileFunction,Soldermask,Top*
G04 #@! TF.FilePolarity,Negative*
%FSLAX46Y46*%
G04 Gerber Fmt 4.6, Leading zero omitted, Abs format (unit mm)*
G04 Created by KiCad (PCBNEW (5.0.2-5)-5) date Tuesday, February 19, 2019 at 09:12:35 PM*
%MOMM*%
%LPD*%
G01*
G04 APERTURE LIST*
%ADD10C,0.150000*%
G04 APERTURE END LIST*
D10*
G04 #@! TO.C,J104*
G36*
X80626800Y-122613010D02*
X81761000Y-122613010D01*
X81761000Y-124934180D01*
X80626800Y-124934180D01*
X80626800Y-122613010D01*
G37*
G36*
X80602500Y-128265020D02*
X81761000Y-128265020D01*
X81761000Y-130592910D01*
X80602500Y-130592910D01*
X80602500Y-128265020D01*
G37*
G36*
X83145300Y-122613010D02*
X84301000Y-122613010D01*
X84301000Y-124932470D01*
X83145300Y-124932470D01*
X83145300Y-122613010D01*
G37*
G36*
X83150900Y-128265020D02*
X84301000Y-128265020D01*
X84301000Y-130592070D01*
X83150900Y-130592070D01*
X83150900Y-128265020D01*
G37*
G36*
X85684900Y-122613010D02*
X86841000Y-122613010D01*
X86841000Y-124932110D01*
X85684900Y-124932110D01*
X85684900Y-122613010D01*
G37*
G36*
X85685400Y-128265020D02*
X86841000Y-128265020D01*
X86841000Y-130593840D01*
X85685400Y-130593840D01*
X85685400Y-128265020D01*
G37*
G36*
X88232300Y-122613010D02*
X89381000Y-122613010D01*
X89381000Y-124932400D01*
X88232300Y-124932400D01*
X88232300Y-122613010D01*
G37*
G36*
X88241000Y-128265020D02*
X89381000Y-128265020D01*
X89381000Y-130591230D01*
X88241000Y-130591230D01*
X88241000Y-128265020D01*
G37*
G36*
X90780800Y-122613010D02*
X91921000Y-122613010D01*
X91921000Y-124932920D01*
X90780800Y-124932920D01*
X90780800Y-122613010D01*
G37*
G36*
X90773300Y-128265020D02*
X91921000Y-128265020D01*
X91921000Y-130594050D01*
X90773300Y-130594050D01*
X90773300Y-128265020D01*
G37*
G36*
X93324300Y-122613010D02*
X94461000Y-122613010D01*
X94461000Y-124932970D01*
X93324300Y-124932970D01*
X93324300Y-122613010D01*
G37*
G36*
X93321600Y-128265020D02*
X94461000Y-128265020D01*
X94461000Y-130592790D01*
X93321600Y-130592790D01*
X93321600Y-128265020D01*
G37*
G36*
X95872800Y-122613010D02*
X97000980Y-122613010D01*
X97000980Y-124933910D01*
X95872800Y-124933910D01*
X95872800Y-122613010D01*
G37*
G36*
X95873890Y-128265020D02*
X97000980Y-128265020D01*
X97000980Y-130589170D01*
X95873890Y-130589170D01*
X95873890Y-128265020D01*
G37*
G36*
X98413170Y-122613010D02*
X99540980Y-122613010D01*
X99540980Y-124933600D01*
X98413170Y-124933600D01*
X98413170Y-122613010D01*
G37*
G36*
X98414130Y-128265020D02*
X99540980Y-128265020D01*
X99540980Y-130589820D01*
X98414130Y-130589820D01*
X98414130Y-128265020D01*
G37*
G36*
X100958700Y-122613010D02*
X102080980Y-122613010D01*
X102080980Y-124934900D01*
X100958700Y-124934900D01*
X100958700Y-122613010D01*
G37*
G36*
X100953870Y-128265020D02*
X102080980Y-128265020D01*
X102080980Y-130591680D01*
X100953870Y-130591680D01*
X100953870Y-128265020D01*
G37*
G36*
X103497890Y-122613010D02*
X104620984Y-122613010D01*
X104620984Y-124934000D01*
X103497890Y-124934000D01*
X103497890Y-122613010D01*
G37*
G36*
X103497060Y-128265020D02*
X104620984Y-128265020D01*
X104620984Y-130591220D01*
X103497060Y-130591220D01*
X103497060Y-128265020D01*
G37*
G36*
X106039273Y-122613010D02*
X107160980Y-122613010D01*
X107160980Y-124934340D01*
X106039273Y-124934340D01*
X106039273Y-122613010D01*
G37*
G36*
X106039669Y-128265020D02*
X107160980Y-128265020D01*
X107160980Y-130590830D01*
X106039669Y-130590830D01*
X106039669Y-128265020D01*
G37*
G36*
X108580560Y-122613010D02*
X109700980Y-122613010D01*
X109700980Y-124934200D01*
X108580560Y-124934200D01*
X108580560Y-122613010D01*
G37*
G36*
X108579510Y-128265020D02*
X109700980Y-128265020D01*
X109700980Y-130587650D01*
X108579510Y-130587650D01*
X108579510Y-128265020D01*
G37*
G36*
X111128290Y-122613010D02*
X112240980Y-122613010D01*
X112240980Y-124932330D01*
X111128290Y-124932330D01*
X111128290Y-122613010D01*
G37*
G36*
X111123910Y-128265020D02*
X112240980Y-128265020D01*
X112240980Y-130590400D01*
X111123910Y-130590400D01*
X111123910Y-128265020D01*
G37*
G36*
X113667720Y-122613010D02*
X114780980Y-122613010D01*
X114780980Y-124933260D01*
X113667720Y-124933260D01*
X113667720Y-122613010D01*
G37*
G36*
X113664470Y-128265020D02*
X114780980Y-128265020D01*
X114780980Y-130589640D01*
X113664470Y-130589640D01*
X113664470Y-128265020D01*
G37*
G36*
X116205600Y-122613010D02*
X117321000Y-122613010D01*
X117321000Y-124933990D01*
X116205600Y-124933990D01*
X116205600Y-122613010D01*
G37*
G36*
X116202100Y-128265020D02*
X117321000Y-128265020D01*
X117321000Y-130588150D01*
X116202100Y-130588150D01*
X116202100Y-128265020D01*
G37*
G36*
X118742000Y-122613010D02*
X119861000Y-122613010D01*
X119861000Y-124934630D01*
X118742000Y-124934630D01*
X118742000Y-122613010D01*
G37*
G36*
X118743200Y-128265020D02*
X119861000Y-128265020D01*
X119861000Y-130588270D01*
X118743200Y-130588270D01*
X118743200Y-128265020D01*
G37*
G36*
X121301300Y-122613010D02*
X122401000Y-122613010D01*
X122401000Y-124932670D01*
X121301300Y-124932670D01*
X121301300Y-122613010D01*
G37*
G36*
X121294600Y-128265020D02*
X122401000Y-128265020D01*
X122401000Y-130590920D01*
X121294600Y-130590920D01*
X121294600Y-128265020D01*
G37*
G36*
X123821200Y-122613010D02*
X124941000Y-122613010D01*
X124941000Y-124934810D01*
X123821200Y-124934810D01*
X123821200Y-122613010D01*
G37*
G36*
X123846800Y-128265020D02*
X124941000Y-128265020D01*
X124941000Y-130593010D01*
X123846800Y-130593010D01*
X123846800Y-128265020D01*
G37*
G36*
X126380400Y-122613010D02*
X127481000Y-122613010D01*
X127481000Y-124933310D01*
X126380400Y-124933310D01*
X126380400Y-122613010D01*
G37*
G36*
X126372100Y-128265020D02*
X127481000Y-128265020D01*
X127481000Y-130589510D01*
X126372100Y-130589510D01*
X126372100Y-128265020D01*
G37*
G36*
X128925100Y-122613010D02*
X130021000Y-122613010D01*
X130021000Y-124933160D01*
X128925100Y-124933160D01*
X128925100Y-122613010D01*
G37*
G36*
X128915000Y-128265020D02*
X130021000Y-128265020D01*
X130021000Y-130589720D01*
X128915000Y-130589720D01*
X128915000Y-128265020D01*
G37*
G36*
X109300000Y-222850000D02*
X106700000Y-222850000D01*
X106700000Y-221450000D01*
X109300000Y-221450000D01*
X109300000Y-222850000D01*
X109300000Y-222850000D01*
G37*
G36*
X104000000Y-222850000D02*
X101400000Y-222850000D01*
X101400000Y-221450000D01*
X104000000Y-221450000D01*
X104000000Y-222850000D01*
X104000000Y-222850000D01*
G37*
G36*
X114500000Y-221750000D02*
X111900000Y-221750000D01*
X111900000Y-220350000D01*
X114500000Y-220350000D01*
X114500000Y-221750000D01*
X114500000Y-221750000D01*
G37*
G36*
X98000000Y-221750000D02*
X95400000Y-221750000D01*
X95400000Y-220350000D01*
X98000000Y-220350000D01*
X98000000Y-221750000D01*
X98000000Y-221750000D01*
G37*
G36*
X109300000Y-220350000D02*
X106700000Y-220350000D01*
X106700000Y-218950000D01*
X109300000Y-218950000D01*
X109300000Y-220350000D01*
X109300000Y-220350000D01*
G37*
G36*
X104000000Y-220350000D02*
X101400000Y-220350000D01*
X101400000Y-218950000D01*
X104000000Y-218950000D01*
X104000000Y-220350000D01*
X104000000Y-220350000D01*
G37*
G36*
X118700000Y-219950000D02*
X116100000Y-219950000D01*
X116100000Y-218550000D01*
X118700000Y-218550000D01*
X118700000Y-219950000D01*
X118700000Y-219950000D01*
G37*
G36*
X93700000Y-219950000D02*
X91100000Y-219950000D01*
X91100000Y-218550000D01*
X93700000Y-218550000D01*
X93700000Y-219950000D01*
X93700000Y-219950000D01*
G37*
G36*
X114500000Y-219250000D02*
X111900000Y-219250000D01*
X111900000Y-217850000D01*
X114500000Y-217850000D01*
X114500000Y-219250000D01*
X114500000Y-219250000D01*
G37*
G36*
X98000000Y-219250000D02*
X95400000Y-219250000D01*
X95400000Y-217850000D01*
X98000000Y-217850000D01*
X98000000Y-219250000D01*
X98000000Y-219250000D01*
G37*
G36*
X122600000Y-218250000D02*
X120000000Y-218250000D01*
X120000000Y-216850000D01*
X122600000Y-216850000D01*
X122600000Y-218250000D01*
X122600000Y-218250000D01*
G37*
G36*
X89400000Y-218250000D02*
X86800000Y-218250000D01*
X86800000Y-216850000D01*
X89400000Y-216850000D01*
X89400000Y-218250000D01*
X89400000Y-218250000D01*
G37*
G36*
X93700000Y-217450000D02*
X91100000Y-217450000D01*
X91100000Y-216050000D01*
X93700000Y-216050000D01*
X93700000Y-217450000D01*
X93700000Y-217450000D01*
G37*
G36*
X118700000Y-217450000D02*
X116100000Y-217450000D01*
X116100000Y-216050000D01*
X118700000Y-216050000D01*
X118700000Y-217450000D01*
X118700000Y-217450000D01*
G37*
G36*
X107834150Y-216365270D02*
X106531130Y-216365270D01*
X106531130Y-215463570D01*
X107834150Y-215463570D01*
X107834150Y-216365270D01*
X107834150Y-216365270D01*
G37*
G36*
X103688870Y-216365270D02*
X102385850Y-216365270D01*
X102385850Y-215463570D01*
X103688870Y-215463570D01*
X103688870Y-216365270D01*
X103688870Y-216365270D01*
G37*
G36*
X122600000Y-215750000D02*
X120000000Y-215750000D01*
X120000000Y-214350000D01*
X122600000Y-214350000D01*
X122600000Y-215750000D01*
X122600000Y-215750000D01*
G37*
G36*
X89400000Y-215750000D02*
X86800000Y-215750000D01*
X86800000Y-214350000D01*
X89400000Y-214350000D01*
X89400000Y-215750000D01*
X89400000Y-215750000D01*
G37*
G36*
X126500000Y-215350000D02*
X123900000Y-215350000D01*
X123900000Y-213950000D01*
X126500000Y-213950000D01*
X126500000Y-215350000D01*
X126500000Y-215350000D01*
G37*
G36*
X85600000Y-215350000D02*
X83000000Y-215350000D01*
X83000000Y-213950000D01*
X85600000Y-213950000D01*
X85600000Y-215350000D01*
X85600000Y-215350000D01*
G37*
G36*
X103688870Y-214216430D02*
X102385850Y-214216430D01*
X102385850Y-213314730D01*
X103688870Y-213314730D01*
X103688870Y-214216430D01*
X103688870Y-214216430D01*
G37*
G36*
X107834150Y-214216430D02*
X106531130Y-214216430D01*
X106531130Y-213314730D01*
X107834150Y-213314730D01*
X107834150Y-214216430D01*
X107834150Y-214216430D01*
G37*
G36*
X130300000Y-213150000D02*
X127700000Y-213150000D01*
X127700000Y-211750000D01*
X130300000Y-211750000D01*
X130300000Y-213150000D01*
X130300000Y-213150000D01*
G37*
G36*
X81900000Y-213150000D02*
X79300000Y-213150000D01*
X79300000Y-211750000D01*
X81900000Y-211750000D01*
X81900000Y-213150000D01*
X81900000Y-213150000D01*
G37*
G36*
X85600000Y-212850000D02*
X83000000Y-212850000D01*
X83000000Y-211450000D01*
X85600000Y-211450000D01*
X85600000Y-212850000D01*
X85600000Y-212850000D01*
G37*
G36*
X126500000Y-212850000D02*
X123900000Y-212850000D01*
X123900000Y-211450000D01*
X126500000Y-211450000D01*
X126500000Y-212850000D01*
X126500000Y-212850000D01*
G37*
G36*
X130300000Y-210650000D02*
X127700000Y-210650000D01*
X127700000Y-209250000D01*
X130300000Y-209250000D01*
X130300000Y-210650000D01*
X130300000Y-210650000D01*
G37*
G36*
X81900000Y-210650000D02*
X79300000Y-210650000D01*
X79300000Y-209250000D01*
X81900000Y-209250000D01*
X81900000Y-210650000D01*
X81900000Y-210650000D01*
G37*
G36*
X97688870Y-210365270D02*
X96385850Y-210365270D01*
X96385850Y-209463570D01*
X97688870Y-209463570D01*
X97688870Y-210365270D01*
X97688870Y-210365270D01*
G37*
G36*
X101834150Y-210365270D02*
X100531130Y-210365270D01*
X100531130Y-209463570D01*
X101834150Y-209463570D01*
X101834150Y-210365270D01*
X101834150Y-210365270D01*
G37*
G36*
X109688870Y-210365270D02*
X108385850Y-210365270D01*
X108385850Y-209463570D01*
X109688870Y-209463570D01*
X109688870Y-210365270D01*
X109688870Y-210365270D01*
G37*
G36*
X113834150Y-210365270D02*
X112531130Y-210365270D01*
X112531130Y-209463570D01*
X113834150Y-209463570D01*
X113834150Y-210365270D01*
X113834150Y-210365270D01*
G37*
G36*
X134000000Y-209450000D02*
X131400000Y-209450000D01*
X131400000Y-208050000D01*
X134000000Y-208050000D01*
X134000000Y-209450000D01*
X134000000Y-209450000D01*
G37*
G36*
X78200000Y-209450000D02*
X75600000Y-209450000D01*
X75600000Y-208050000D01*
X78200000Y-208050000D01*
X78200000Y-209450000D01*
X78200000Y-209450000D01*
G37*
G36*
X113834150Y-208216430D02*
X112531130Y-208216430D01*
X112531130Y-207314730D01*
X113834150Y-207314730D01*
X113834150Y-208216430D01*
X113834150Y-208216430D01*
G37*
G36*
X109688870Y-208216430D02*
X108385850Y-208216430D01*
X108385850Y-207314730D01*
X109688870Y-207314730D01*
X109688870Y-208216430D01*
X109688870Y-208216430D01*
G37*
G36*
X101834150Y-208216430D02*
X100531130Y-208216430D01*
X100531130Y-207314730D01*
X101834150Y-207314730D01*
X101834150Y-208216430D01*
X101834150Y-208216430D01*
G37*
G36*
X97688870Y-208216430D02*
X96385850Y-208216430D01*
X96385850Y-207314730D01*
X97688870Y-207314730D01*
X97688870Y-208216430D01*
X97688870Y-208216430D01*
G37*
G36*
X134000000Y-206950000D02*
X131400000Y-206950000D01*
X131400000Y-205550000D01*
X134000000Y-205550000D01*
X134000000Y-206950000D01*
X134000000Y-206950000D01*
G37*
G36*
X78200000Y-206950000D02*
X75600000Y-206950000D01*
X75600000Y-205550000D01*
X78200000Y-205550000D01*
X78200000Y-206950000D01*
X78200000Y-206950000D01*
G37*
G36*
X119381122Y-204340517D02*
X119429085Y-204355066D01*
X119473275Y-204378686D01*
X119512018Y-204410482D01*
X119543814Y-204449225D01*
X119567434Y-204493415D01*
X119581983Y-204541378D01*
X119587500Y-204597391D01*
X119587500Y-205422609D01*
X119581983Y-205478622D01*
X119567434Y-205526585D01*
X119543814Y-205570775D01*
X119512018Y-205609518D01*
X119473275Y-205641314D01*
X119429085Y-205664934D01*
X119381122Y-205679483D01*
X119325109Y-205685000D01*
X118574891Y-205685000D01*
X118518878Y-205679483D01*
X118470915Y-205664934D01*
X118426725Y-205641314D01*
X118387982Y-205609518D01*
X118356186Y-205570775D01*
X118332566Y-205526585D01*
X118318017Y-205478622D01*
X118312500Y-205422609D01*
X118312500Y-204597391D01*
X118318017Y-204541378D01*
X118332566Y-204493415D01*
X118356186Y-204449225D01*
X118387982Y-204410482D01*
X118426725Y-204378686D01*
X118470915Y-204355066D01*
X118518878Y-204340517D01*
X118574891Y-204335000D01*
X119325109Y-204335000D01*
X119381122Y-204340517D01*
X119381122Y-204340517D01*
G37*
G36*
X117806122Y-204340517D02*
X117854085Y-204355066D01*
X117898275Y-204378686D01*
X117937018Y-204410482D01*
X117968814Y-204449225D01*
X117992434Y-204493415D01*
X118006983Y-204541378D01*
X118012500Y-204597391D01*
X118012500Y-205422609D01*
X118006983Y-205478622D01*
X117992434Y-205526585D01*
X117968814Y-205570775D01*
X117937018Y-205609518D01*
X117898275Y-205641314D01*
X117854085Y-205664934D01*
X117806122Y-205679483D01*
X117750109Y-205685000D01*
X116999891Y-205685000D01*
X116943878Y-205679483D01*
X116895915Y-205664934D01*
X116851725Y-205641314D01*
X116812982Y-205609518D01*
X116781186Y-205570775D01*
X116757566Y-205526585D01*
X116743017Y-205478622D01*
X116737500Y-205422609D01*
X116737500Y-204597391D01*
X116743017Y-204541378D01*
X116757566Y-204493415D01*
X116781186Y-204449225D01*
X116812982Y-204410482D01*
X116851725Y-204378686D01*
X116895915Y-204355066D01*
X116943878Y-204340517D01*
X116999891Y-204335000D01*
X117750109Y-204335000D01*
X117806122Y-204340517D01*
X117806122Y-204340517D01*
G37*
G36*
X115231122Y-204270517D02*
X115279085Y-204285066D01*
X115323275Y-204308686D01*
X115362018Y-204340482D01*
X115393814Y-204379225D01*
X115417434Y-204423415D01*
X115431983Y-204471378D01*
X115437500Y-204527391D01*
X115437500Y-205352609D01*
X115431983Y-205408622D01*
X115417434Y-205456585D01*
X115393814Y-205500775D01*
X115362018Y-205539518D01*
X115323275Y-205571314D01*
X115279085Y-205594934D01*
X115231122Y-205609483D01*
X115175109Y-205615000D01*
X114424891Y-205615000D01*
X114368878Y-205609483D01*
X114320915Y-205594934D01*
X114276725Y-205571314D01*
X114237982Y-205539518D01*
X114206186Y-205500775D01*
X114182566Y-205456585D01*
X114168017Y-205408622D01*
X114162500Y-205352609D01*
X114162500Y-204527391D01*
X114168017Y-204471378D01*
X114182566Y-204423415D01*
X114206186Y-204379225D01*
X114237982Y-204340482D01*
X114276725Y-204308686D01*
X114320915Y-204285066D01*
X114368878Y-204270517D01*
X114424891Y-204265000D01*
X115175109Y-204265000D01*
X115231122Y-204270517D01*
X115231122Y-204270517D01*
G37*
G36*
X113656122Y-204270517D02*
X113704085Y-204285066D01*
X113748275Y-204308686D01*
X113787018Y-204340482D01*
X113818814Y-204379225D01*
X113842434Y-204423415D01*
X113856983Y-204471378D01*
X113862500Y-204527391D01*
X113862500Y-205352609D01*
X113856983Y-205408622D01*
X113842434Y-205456585D01*
X113818814Y-205500775D01*
X113787018Y-205539518D01*
X113748275Y-205571314D01*
X113704085Y-205594934D01*
X113656122Y-205609483D01*
X113600109Y-205615000D01*
X112849891Y-205615000D01*
X112793878Y-205609483D01*
X112745915Y-205594934D01*
X112701725Y-205571314D01*
X112662982Y-205539518D01*
X112631186Y-205500775D01*
X112607566Y-205456585D01*
X112593017Y-205408622D01*
X112587500Y-205352609D01*
X112587500Y-204527391D01*
X112593017Y-204471378D01*
X112607566Y-204423415D01*
X112631186Y-204379225D01*
X112662982Y-204340482D01*
X112701725Y-204308686D01*
X112745915Y-204285066D01*
X112793878Y-204270517D01*
X112849891Y-204265000D01*
X113600109Y-204265000D01*
X113656122Y-204270517D01*
X113656122Y-204270517D01*
G37*
G36*
X110068622Y-202755517D02*
X110116585Y-202770066D01*
X110160775Y-202793686D01*
X110199518Y-202825482D01*
X110231314Y-202864225D01*
X110254934Y-202908415D01*
X110269483Y-202956378D01*
X110275000Y-203012391D01*
X110275000Y-203762609D01*
X110269483Y-203818622D01*
X110254934Y-203866585D01*
X110231314Y-203910775D01*
X110199518Y-203949518D01*
X110160775Y-203981314D01*
X110116585Y-204004934D01*
X110068622Y-204019483D01*
X110012609Y-204025000D01*
X109187391Y-204025000D01*
X109131378Y-204019483D01*
X109083415Y-204004934D01*
X109039225Y-203981314D01*
X109000482Y-203949518D01*
X108968686Y-203910775D01*
X108945066Y-203866585D01*
X108930517Y-203818622D01*
X108925000Y-203762609D01*
X108925000Y-203012391D01*
X108930517Y-202956378D01*
X108945066Y-202908415D01*
X108968686Y-202864225D01*
X109000482Y-202825482D01*
X109039225Y-202793686D01*
X109083415Y-202770066D01*
X109131378Y-202755517D01*
X109187391Y-202750000D01*
X110012609Y-202750000D01*
X110068622Y-202755517D01*
X110068622Y-202755517D01*
G37*
G36*
X77975325Y-200045360D02*
X78095041Y-200069173D01*
X78229481Y-200124860D01*
X78401687Y-200196190D01*
X78422620Y-200204861D01*
X78649189Y-200356250D01*
X78717436Y-200401851D01*
X78968149Y-200652564D01*
X78968151Y-200652567D01*
X79165139Y-200947380D01*
X79300827Y-201274959D01*
X79370000Y-201622716D01*
X79370000Y-201977284D01*
X79300827Y-202325041D01*
X79165139Y-202652620D01*
X79064178Y-202803719D01*
X78968149Y-202947436D01*
X78717436Y-203198149D01*
X78717433Y-203198151D01*
X78422620Y-203395139D01*
X78095041Y-203530827D01*
X77979122Y-203553885D01*
X77747286Y-203600000D01*
X77392714Y-203600000D01*
X77160878Y-203553885D01*
X77044959Y-203530827D01*
X76717380Y-203395139D01*
X76422567Y-203198151D01*
X76422564Y-203198149D01*
X76171851Y-202947436D01*
X76075822Y-202803719D01*
X75974861Y-202652620D01*
X75839173Y-202325041D01*
X75770000Y-201977284D01*
X75770000Y-201622716D01*
X75839173Y-201274959D01*
X75974861Y-200947380D01*
X76171849Y-200652567D01*
X76171851Y-200652564D01*
X76422564Y-200401851D01*
X76490811Y-200356250D01*
X76717380Y-200204861D01*
X76738314Y-200196190D01*
X76910519Y-200124860D01*
X77044959Y-200069173D01*
X77164675Y-200045360D01*
X77392714Y-200000000D01*
X77747286Y-200000000D01*
X77975325Y-200045360D01*
X77975325Y-200045360D01*
G37*
G36*
X133555947Y-199953549D02*
X133735041Y-199989173D01*
X134062620Y-200124861D01*
X134235337Y-200240267D01*
X134357436Y-200321851D01*
X134608149Y-200572564D01*
X134608151Y-200572567D01*
X134805139Y-200867380D01*
X134940827Y-201194959D01*
X135010000Y-201542716D01*
X135010000Y-201897284D01*
X134940827Y-202245041D01*
X134805139Y-202572620D01*
X134686617Y-202750000D01*
X134608149Y-202867436D01*
X134357436Y-203118149D01*
X134357433Y-203118151D01*
X134062620Y-203315139D01*
X133735041Y-203450827D01*
X133619122Y-203473885D01*
X133387286Y-203520000D01*
X133032714Y-203520000D01*
X132800878Y-203473885D01*
X132684959Y-203450827D01*
X132357380Y-203315139D01*
X132062567Y-203118151D01*
X132062564Y-203118149D01*
X131811851Y-202867436D01*
X131733383Y-202750000D01*
X131614861Y-202572620D01*
X131479173Y-202245041D01*
X131410000Y-201897284D01*
X131410000Y-201542716D01*
X131479173Y-201194959D01*
X131614861Y-200867380D01*
X131811849Y-200572567D01*
X131811851Y-200572564D01*
X132062564Y-200321851D01*
X132184663Y-200240267D01*
X132357380Y-200124861D01*
X132684959Y-199989173D01*
X132864053Y-199953549D01*
X133032714Y-199920000D01*
X133387286Y-199920000D01*
X133555947Y-199953549D01*
X133555947Y-199953549D01*
G37*
G36*
X110068622Y-201180517D02*
X110116585Y-201195066D01*
X110160775Y-201218686D01*
X110199518Y-201250482D01*
X110231314Y-201289225D01*
X110254934Y-201333415D01*
X110269483Y-201381378D01*
X110275000Y-201437391D01*
X110275000Y-202187609D01*
X110269483Y-202243622D01*
X110254934Y-202291585D01*
X110231314Y-202335775D01*
X110199518Y-202374518D01*
X110160775Y-202406314D01*
X110116585Y-202429934D01*
X110068622Y-202444483D01*
X110012609Y-202450000D01*
X109187391Y-202450000D01*
X109131378Y-202444483D01*
X109083415Y-202429934D01*
X109039225Y-202406314D01*
X109000482Y-202374518D01*
X108968686Y-202335775D01*
X108945066Y-202291585D01*
X108930517Y-202243622D01*
X108925000Y-202187609D01*
X108925000Y-201437391D01*
X108930517Y-201381378D01*
X108945066Y-201333415D01*
X108968686Y-201289225D01*
X109000482Y-201250482D01*
X109039225Y-201218686D01*
X109083415Y-201195066D01*
X109131378Y-201180517D01*
X109187391Y-201175000D01*
X110012609Y-201175000D01*
X110068622Y-201180517D01*
X110068622Y-201180517D01*
G37*
G36*
X116478810Y-195059341D02*
X116521222Y-195072207D01*
X116535361Y-195076496D01*
X116587478Y-195104353D01*
X116633158Y-195141842D01*
X116670647Y-195187522D01*
X116698504Y-195239639D01*
X116698504Y-195239640D01*
X116715659Y-195296190D01*
X116715659Y-195296193D01*
X116720000Y-195340267D01*
X116720000Y-195905000D01*
X116722402Y-195929386D01*
X116729515Y-195952835D01*
X116741066Y-195974446D01*
X116756612Y-195993388D01*
X116775554Y-196008934D01*
X116797165Y-196020485D01*
X116820614Y-196027598D01*
X116845000Y-196030000D01*
X117409733Y-196030000D01*
X117453810Y-196034341D01*
X117496223Y-196047207D01*
X117510361Y-196051496D01*
X117562478Y-196079353D01*
X117608158Y-196116842D01*
X117645647Y-196162522D01*
X117673504Y-196214639D01*
X117673504Y-196214640D01*
X117690659Y-196271190D01*
X117696451Y-196330000D01*
X117690659Y-196388810D01*
X117678661Y-196428360D01*
X117673503Y-196445364D01*
X117659759Y-196471077D01*
X117650382Y-196493716D01*
X117645602Y-196517750D01*
X117645602Y-196542254D01*
X117650383Y-196566287D01*
X117659759Y-196588923D01*
X117673503Y-196614636D01*
X117673504Y-196614640D01*
X117690659Y-196671190D01*
X117696451Y-196730000D01*
X117690659Y-196788810D01*
X117678164Y-196830000D01*
X117673503Y-196845364D01*
X117659759Y-196871077D01*
X117650382Y-196893716D01*
X117645602Y-196917750D01*
X117645602Y-196942254D01*
X117650383Y-196966287D01*
X117659759Y-196988923D01*
X117673503Y-197014636D01*
X117673504Y-197014640D01*
X117690659Y-197071190D01*
X117696451Y-197130000D01*
X117690659Y-197188810D01*
X117678164Y-197230000D01*
X117673503Y-197245364D01*
X117659759Y-197271077D01*
X117650382Y-197293716D01*
X117645602Y-197317750D01*
X117645602Y-197342254D01*
X117650383Y-197366287D01*
X117659759Y-197388923D01*
X117673503Y-197414636D01*
X117676762Y-197425380D01*
X117690659Y-197471190D01*
X117696451Y-197530000D01*
X117690659Y-197588810D01*
X117689800Y-197591640D01*
X117673503Y-197645364D01*
X117659759Y-197671077D01*
X117650382Y-197693716D01*
X117645602Y-197717750D01*
X117645602Y-197742254D01*
X117650383Y-197766287D01*
X117659759Y-197788923D01*
X117673503Y-197814636D01*
X117673504Y-197814640D01*
X117690659Y-197871190D01*
X117696451Y-197930000D01*
X117690659Y-197988810D01*
X117678164Y-198030000D01*
X117673503Y-198045364D01*
X117659759Y-198071077D01*
X117650382Y-198093716D01*
X117645602Y-198117750D01*
X117645602Y-198142254D01*
X117650383Y-198166287D01*
X117659759Y-198188923D01*
X117673503Y-198214636D01*
X117673504Y-198214640D01*
X117690659Y-198271190D01*
X117696451Y-198330000D01*
X117690659Y-198388810D01*
X117678164Y-198430000D01*
X117673503Y-198445364D01*
X117659759Y-198471077D01*
X117650382Y-198493716D01*
X117645602Y-198517750D01*
X117645602Y-198542254D01*
X117650383Y-198566287D01*
X117659759Y-198588923D01*
X117673503Y-198614636D01*
X117673504Y-198614640D01*
X117690659Y-198671190D01*
X117696451Y-198730000D01*
X117690659Y-198788810D01*
X117678164Y-198830000D01*
X117673503Y-198845364D01*
X117659759Y-198871077D01*
X117650382Y-198893716D01*
X117645602Y-198917750D01*
X117645602Y-198942254D01*
X117650383Y-198966287D01*
X117659759Y-198988923D01*
X117673503Y-199014636D01*
X117673504Y-199014640D01*
X117690659Y-199071190D01*
X117696451Y-199130000D01*
X117690659Y-199188810D01*
X117678164Y-199230000D01*
X117673503Y-199245364D01*
X117659759Y-199271077D01*
X117650382Y-199293716D01*
X117645602Y-199317750D01*
X117645602Y-199342254D01*
X117650383Y-199366287D01*
X117659759Y-199388923D01*
X117673503Y-199414636D01*
X117676762Y-199425380D01*
X117690659Y-199471190D01*
X117696451Y-199530000D01*
X117690659Y-199588810D01*
X117678164Y-199630000D01*
X117673503Y-199645364D01*
X117659759Y-199671077D01*
X117650382Y-199693716D01*
X117645602Y-199717750D01*
X117645602Y-199742254D01*
X117650383Y-199766287D01*
X117659759Y-199788923D01*
X117673503Y-199814636D01*
X117673504Y-199814640D01*
X117690659Y-199871190D01*
X117696451Y-199930000D01*
X117690659Y-199988810D01*
X117677793Y-200031222D01*
X117673504Y-200045361D01*
X117645647Y-200097478D01*
X117608158Y-200143158D01*
X117562478Y-200180647D01*
X117510361Y-200208504D01*
X117496223Y-200212793D01*
X117453810Y-200225659D01*
X117409733Y-200230000D01*
X116845000Y-200230000D01*
X116820614Y-200232402D01*
X116797165Y-200239515D01*
X116775554Y-200251066D01*
X116756612Y-200266612D01*
X116741066Y-200285554D01*
X116729515Y-200307165D01*
X116722402Y-200330614D01*
X116720000Y-200355000D01*
X116720000Y-200919733D01*
X116715659Y-200963810D01*
X116702793Y-201006222D01*
X116698504Y-201020361D01*
X116670647Y-201072478D01*
X116670645Y-201072480D01*
X116633160Y-201118156D01*
X116633156Y-201118160D01*
X116587480Y-201155645D01*
X116535360Y-201183504D01*
X116521222Y-201187793D01*
X116478809Y-201200659D01*
X116420000Y-201206451D01*
X116361190Y-201200659D01*
X116304640Y-201183504D01*
X116278924Y-201169759D01*
X116256286Y-201160382D01*
X116232253Y-201155601D01*
X116207749Y-201155601D01*
X116183715Y-201160381D01*
X116161076Y-201169759D01*
X116135364Y-201183502D01*
X116135361Y-201183503D01*
X116135359Y-201183504D01*
X116078809Y-201200659D01*
X116020000Y-201206451D01*
X115961190Y-201200659D01*
X115904640Y-201183504D01*
X115878924Y-201169759D01*
X115856286Y-201160382D01*
X115832253Y-201155601D01*
X115807749Y-201155601D01*
X115783715Y-201160381D01*
X115761076Y-201169759D01*
X115735364Y-201183502D01*
X115735361Y-201183503D01*
X115735359Y-201183504D01*
X115678809Y-201200659D01*
X115620000Y-201206451D01*
X115561190Y-201200659D01*
X115504640Y-201183504D01*
X115478924Y-201169759D01*
X115456286Y-201160382D01*
X115432253Y-201155601D01*
X115407749Y-201155601D01*
X115383715Y-201160381D01*
X115361076Y-201169759D01*
X115335364Y-201183502D01*
X115335361Y-201183503D01*
X115335359Y-201183504D01*
X115278809Y-201200659D01*
X115220000Y-201206451D01*
X115161190Y-201200659D01*
X115104640Y-201183504D01*
X115078924Y-201169759D01*
X115056286Y-201160382D01*
X115032253Y-201155601D01*
X115007749Y-201155601D01*
X114983715Y-201160381D01*
X114961076Y-201169759D01*
X114935364Y-201183502D01*
X114935361Y-201183503D01*
X114935359Y-201183504D01*
X114878809Y-201200659D01*
X114820000Y-201206451D01*
X114761190Y-201200659D01*
X114704640Y-201183504D01*
X114678924Y-201169759D01*
X114656286Y-201160382D01*
X114632253Y-201155601D01*
X114607749Y-201155601D01*
X114583715Y-201160381D01*
X114561076Y-201169759D01*
X114535364Y-201183502D01*
X114535361Y-201183503D01*
X114535359Y-201183504D01*
X114478809Y-201200659D01*
X114420000Y-201206451D01*
X114361190Y-201200659D01*
X114304640Y-201183504D01*
X114278924Y-201169759D01*
X114256286Y-201160382D01*
X114232253Y-201155601D01*
X114207749Y-201155601D01*
X114183715Y-201160381D01*
X114161076Y-201169759D01*
X114135364Y-201183502D01*
X114135361Y-201183503D01*
X114135359Y-201183504D01*
X114078809Y-201200659D01*
X114020000Y-201206451D01*
X113961190Y-201200659D01*
X113904640Y-201183504D01*
X113878924Y-201169759D01*
X113856286Y-201160382D01*
X113832253Y-201155601D01*
X113807749Y-201155601D01*
X113783715Y-201160381D01*
X113761076Y-201169759D01*
X113735364Y-201183502D01*
X113735361Y-201183503D01*
X113735359Y-201183504D01*
X113678809Y-201200659D01*
X113620000Y-201206451D01*
X113561190Y-201200659D01*
X113504640Y-201183504D01*
X113478924Y-201169759D01*
X113456286Y-201160382D01*
X113432253Y-201155601D01*
X113407749Y-201155601D01*
X113383715Y-201160381D01*
X113361076Y-201169759D01*
X113335364Y-201183502D01*
X113335361Y-201183503D01*
X113335359Y-201183504D01*
X113278809Y-201200659D01*
X113220000Y-201206451D01*
X113161190Y-201200659D01*
X113104640Y-201183504D01*
X113078924Y-201169759D01*
X113056286Y-201160382D01*
X113032253Y-201155601D01*
X113007749Y-201155601D01*
X112983715Y-201160381D01*
X112961076Y-201169759D01*
X112935364Y-201183502D01*
X112935361Y-201183503D01*
X112935359Y-201183504D01*
X112878809Y-201200659D01*
X112820000Y-201206451D01*
X112761190Y-201200659D01*
X112718777Y-201187793D01*
X112704639Y-201183504D01*
X112652522Y-201155647D01*
X112620733Y-201129558D01*
X112606842Y-201118158D01*
X112606840Y-201118156D01*
X112569355Y-201072480D01*
X112541496Y-201020360D01*
X112537207Y-201006221D01*
X112524341Y-200963809D01*
X112520000Y-200919732D01*
X112520001Y-200354998D01*
X112517599Y-200330614D01*
X112510486Y-200307165D01*
X112498935Y-200285554D01*
X112483390Y-200266612D01*
X112464447Y-200251066D01*
X112442837Y-200239515D01*
X112419388Y-200232402D01*
X112395001Y-200230000D01*
X111830267Y-200230000D01*
X111786190Y-200225659D01*
X111743777Y-200212793D01*
X111729639Y-200208504D01*
X111677522Y-200180647D01*
X111631842Y-200143158D01*
X111594353Y-200097478D01*
X111566496Y-200045361D01*
X111562207Y-200031223D01*
X111549341Y-199988810D01*
X111543549Y-199930000D01*
X111549341Y-199871190D01*
X111566496Y-199814640D01*
X111566497Y-199814636D01*
X111580241Y-199788923D01*
X111589618Y-199766284D01*
X111594398Y-199742250D01*
X111594398Y-199717746D01*
X111589617Y-199693713D01*
X111580241Y-199671077D01*
X111566497Y-199645364D01*
X111561836Y-199630000D01*
X111549341Y-199588810D01*
X111543549Y-199530000D01*
X111549341Y-199471190D01*
X111563238Y-199425380D01*
X111566497Y-199414636D01*
X111580241Y-199388923D01*
X111589618Y-199366284D01*
X111594398Y-199342250D01*
X111594398Y-199317746D01*
X111589617Y-199293713D01*
X111580241Y-199271077D01*
X111566497Y-199245364D01*
X111561836Y-199230000D01*
X111549341Y-199188810D01*
X111543549Y-199130000D01*
X111549341Y-199071190D01*
X111566496Y-199014640D01*
X111566497Y-199014636D01*
X111580241Y-198988923D01*
X111589618Y-198966284D01*
X111594398Y-198942250D01*
X111594398Y-198917746D01*
X111589617Y-198893713D01*
X111580241Y-198871077D01*
X111566497Y-198845364D01*
X111561836Y-198830000D01*
X111549341Y-198788810D01*
X111543549Y-198730000D01*
X111549341Y-198671190D01*
X111566496Y-198614640D01*
X111566497Y-198614636D01*
X111580241Y-198588923D01*
X111589618Y-198566284D01*
X111594398Y-198542250D01*
X111594398Y-198517746D01*
X111589617Y-198493713D01*
X111580241Y-198471077D01*
X111566497Y-198445364D01*
X111561836Y-198430000D01*
X111549341Y-198388810D01*
X111543549Y-198330000D01*
X111549341Y-198271190D01*
X111566496Y-198214640D01*
X111566497Y-198214636D01*
X111580241Y-198188923D01*
X111589618Y-198166284D01*
X111594398Y-198142250D01*
X111594398Y-198117746D01*
X111589617Y-198093713D01*
X111580241Y-198071077D01*
X111566497Y-198045364D01*
X111561836Y-198030000D01*
X111549341Y-197988810D01*
X111543549Y-197930000D01*
X111549341Y-197871190D01*
X111566496Y-197814640D01*
X111566497Y-197814636D01*
X111580241Y-197788923D01*
X111589618Y-197766284D01*
X111594398Y-197742250D01*
X111594398Y-197717746D01*
X111589617Y-197693713D01*
X111580241Y-197671077D01*
X111566497Y-197645364D01*
X111550200Y-197591640D01*
X111549341Y-197588810D01*
X111543549Y-197530000D01*
X111549341Y-197471190D01*
X111563238Y-197425380D01*
X111566497Y-197414636D01*
X111580241Y-197388923D01*
X111589618Y-197366284D01*
X111594398Y-197342250D01*
X111594398Y-197317746D01*
X111589617Y-197293713D01*
X111580241Y-197271077D01*
X111566497Y-197245364D01*
X111561836Y-197230000D01*
X111549341Y-197188810D01*
X111543549Y-197130000D01*
X111549341Y-197071190D01*
X111566496Y-197014640D01*
X111566497Y-197014636D01*
X111580241Y-196988923D01*
X111589618Y-196966284D01*
X111594398Y-196942250D01*
X111594398Y-196917746D01*
X111589617Y-196893713D01*
X111580241Y-196871077D01*
X111566497Y-196845364D01*
X111561836Y-196830000D01*
X111549341Y-196788810D01*
X111543549Y-196730000D01*
X111549341Y-196671190D01*
X111566496Y-196614640D01*
X111566497Y-196614636D01*
X111580241Y-196588923D01*
X111589618Y-196566284D01*
X111594398Y-196542250D01*
X111594398Y-196517746D01*
X111589617Y-196493713D01*
X111580241Y-196471077D01*
X111566497Y-196445364D01*
X111561339Y-196428360D01*
X111549341Y-196388810D01*
X111543549Y-196330000D01*
X111549341Y-196271190D01*
X111566496Y-196214640D01*
X111566496Y-196214639D01*
X111594353Y-196162522D01*
X111631842Y-196116842D01*
X111677522Y-196079353D01*
X111729639Y-196051496D01*
X111743777Y-196047207D01*
X111786190Y-196034341D01*
X111830267Y-196030000D01*
X112395000Y-196030000D01*
X112419386Y-196027598D01*
X112442835Y-196020485D01*
X112464446Y-196008934D01*
X112483388Y-195993388D01*
X112498934Y-195974446D01*
X112510485Y-195952835D01*
X112517598Y-195929386D01*
X112520000Y-195905000D01*
X112520001Y-195340267D01*
X112524342Y-195296193D01*
X112524342Y-195296190D01*
X112541497Y-195239640D01*
X112541497Y-195239639D01*
X112569354Y-195187522D01*
X112606843Y-195141842D01*
X112652523Y-195104353D01*
X112704640Y-195076496D01*
X112718779Y-195072207D01*
X112761191Y-195059341D01*
X112820000Y-195053549D01*
X112878810Y-195059341D01*
X112935360Y-195076496D01*
X112935362Y-195076497D01*
X112935365Y-195076498D01*
X112961077Y-195090241D01*
X112983716Y-195099619D01*
X113007749Y-195104399D01*
X113032254Y-195104399D01*
X113056287Y-195099618D01*
X113078926Y-195090241D01*
X113104639Y-195076497D01*
X113104641Y-195076496D01*
X113161191Y-195059341D01*
X113220000Y-195053549D01*
X113278810Y-195059341D01*
X113335360Y-195076496D01*
X113335362Y-195076497D01*
X113335365Y-195076498D01*
X113361077Y-195090241D01*
X113383716Y-195099619D01*
X113407749Y-195104399D01*
X113432254Y-195104399D01*
X113456287Y-195099618D01*
X113478926Y-195090241D01*
X113504639Y-195076497D01*
X113504641Y-195076496D01*
X113561191Y-195059341D01*
X113620000Y-195053549D01*
X113678810Y-195059341D01*
X113735360Y-195076496D01*
X113735362Y-195076497D01*
X113735365Y-195076498D01*
X113761077Y-195090241D01*
X113783716Y-195099619D01*
X113807749Y-195104399D01*
X113832254Y-195104399D01*
X113856287Y-195099618D01*
X113878926Y-195090241D01*
X113904639Y-195076497D01*
X113904641Y-195076496D01*
X113961191Y-195059341D01*
X114020000Y-195053549D01*
X114078810Y-195059341D01*
X114135360Y-195076496D01*
X114135362Y-195076497D01*
X114135365Y-195076498D01*
X114161077Y-195090241D01*
X114183716Y-195099619D01*
X114207749Y-195104399D01*
X114232254Y-195104399D01*
X114256287Y-195099618D01*
X114278926Y-195090241D01*
X114304639Y-195076497D01*
X114304641Y-195076496D01*
X114361191Y-195059341D01*
X114420000Y-195053549D01*
X114478810Y-195059341D01*
X114535360Y-195076496D01*
X114535362Y-195076497D01*
X114535365Y-195076498D01*
X114561077Y-195090241D01*
X114583716Y-195099619D01*
X114607749Y-195104399D01*
X114632254Y-195104399D01*
X114656287Y-195099618D01*
X114678926Y-195090241D01*
X114704639Y-195076497D01*
X114704641Y-195076496D01*
X114761191Y-195059341D01*
X114820000Y-195053549D01*
X114878810Y-195059341D01*
X114935360Y-195076496D01*
X114935362Y-195076497D01*
X114935365Y-195076498D01*
X114961077Y-195090241D01*
X114983716Y-195099619D01*
X115007749Y-195104399D01*
X115032254Y-195104399D01*
X115056287Y-195099618D01*
X115078926Y-195090241D01*
X115104639Y-195076497D01*
X115104641Y-195076496D01*
X115161191Y-195059341D01*
X115220000Y-195053549D01*
X115278810Y-195059341D01*
X115335360Y-195076496D01*
X115335362Y-195076497D01*
X115335365Y-195076498D01*
X115361077Y-195090241D01*
X115383716Y-195099619D01*
X115407749Y-195104399D01*
X115432254Y-195104399D01*
X115456287Y-195099618D01*
X115478926Y-195090241D01*
X115504639Y-195076497D01*
X115504641Y-195076496D01*
X115561191Y-195059341D01*
X115620000Y-195053549D01*
X115678810Y-195059341D01*
X115735360Y-195076496D01*
X115735362Y-195076497D01*
X115735365Y-195076498D01*
X115761077Y-195090241D01*
X115783716Y-195099619D01*
X115807749Y-195104399D01*
X115832254Y-195104399D01*
X115856287Y-195099618D01*
X115878926Y-195090241D01*
X115904639Y-195076497D01*
X115904641Y-195076496D01*
X115961191Y-195059341D01*
X116020000Y-195053549D01*
X116078810Y-195059341D01*
X116135360Y-195076496D01*
X116135362Y-195076497D01*
X116135365Y-195076498D01*
X116161077Y-195090241D01*
X116183716Y-195099619D01*
X116207749Y-195104399D01*
X116232254Y-195104399D01*
X116256287Y-195099618D01*
X116278926Y-195090241D01*
X116304639Y-195076497D01*
X116304641Y-195076496D01*
X116361191Y-195059341D01*
X116420000Y-195053549D01*
X116478810Y-195059341D01*
X116478810Y-195059341D01*
G37*
G36*
X102213622Y-199390517D02*
X102261585Y-199405066D01*
X102305775Y-199428686D01*
X102344518Y-199460482D01*
X102376314Y-199499225D01*
X102399934Y-199543415D01*
X102414483Y-199591378D01*
X102420000Y-199647391D01*
X102420000Y-200472609D01*
X102414483Y-200528622D01*
X102399934Y-200576585D01*
X102376314Y-200620775D01*
X102344518Y-200659518D01*
X102305775Y-200691314D01*
X102261585Y-200714934D01*
X102213622Y-200729483D01*
X102157609Y-200735000D01*
X101407391Y-200735000D01*
X101351378Y-200729483D01*
X101303415Y-200714934D01*
X101259225Y-200691314D01*
X101220482Y-200659518D01*
X101188686Y-200620775D01*
X101165066Y-200576585D01*
X101150517Y-200528622D01*
X101145000Y-200472609D01*
X101145000Y-199647391D01*
X101150517Y-199591378D01*
X101165066Y-199543415D01*
X101188686Y-199499225D01*
X101220482Y-199460482D01*
X101259225Y-199428686D01*
X101303415Y-199405066D01*
X101351378Y-199390517D01*
X101407391Y-199385000D01*
X102157609Y-199385000D01*
X102213622Y-199390517D01*
X102213622Y-199390517D01*
G37*
G36*
X103788622Y-199390517D02*
X103836585Y-199405066D01*
X103880775Y-199428686D01*
X103919518Y-199460482D01*
X103951314Y-199499225D01*
X103974934Y-199543415D01*
X103989483Y-199591378D01*
X103995000Y-199647391D01*
X103995000Y-200472609D01*
X103989483Y-200528622D01*
X103974934Y-200576585D01*
X103951314Y-200620775D01*
X103919518Y-200659518D01*
X103880775Y-200691314D01*
X103836585Y-200714934D01*
X103788622Y-200729483D01*
X103732609Y-200735000D01*
X102982391Y-200735000D01*
X102926378Y-200729483D01*
X102878415Y-200714934D01*
X102834225Y-200691314D01*
X102795482Y-200659518D01*
X102763686Y-200620775D01*
X102740066Y-200576585D01*
X102725517Y-200528622D01*
X102720000Y-200472609D01*
X102720000Y-199647391D01*
X102725517Y-199591378D01*
X102740066Y-199543415D01*
X102763686Y-199499225D01*
X102795482Y-199460482D01*
X102834225Y-199428686D01*
X102878415Y-199405066D01*
X102926378Y-199390517D01*
X102982391Y-199385000D01*
X103732609Y-199385000D01*
X103788622Y-199390517D01*
X103788622Y-199390517D01*
G37*
G36*
X108156122Y-199330517D02*
X108204085Y-199345066D01*
X108248275Y-199368686D01*
X108287018Y-199400482D01*
X108318814Y-199439225D01*
X108342434Y-199483415D01*
X108356983Y-199531378D01*
X108362500Y-199587391D01*
X108362500Y-200412609D01*
X108356983Y-200468622D01*
X108342434Y-200516585D01*
X108318814Y-200560775D01*
X108287018Y-200599518D01*
X108248275Y-200631314D01*
X108204085Y-200654934D01*
X108156122Y-200669483D01*
X108100109Y-200675000D01*
X107349891Y-200675000D01*
X107293878Y-200669483D01*
X107245915Y-200654934D01*
X107201725Y-200631314D01*
X107162982Y-200599518D01*
X107131186Y-200560775D01*
X107107566Y-200516585D01*
X107093017Y-200468622D01*
X107087500Y-200412609D01*
X107087500Y-199587391D01*
X107093017Y-199531378D01*
X107107566Y-199483415D01*
X107131186Y-199439225D01*
X107162982Y-199400482D01*
X107201725Y-199368686D01*
X107245915Y-199345066D01*
X107293878Y-199330517D01*
X107349891Y-199325000D01*
X108100109Y-199325000D01*
X108156122Y-199330517D01*
X108156122Y-199330517D01*
G37*
G36*
X109731122Y-199330517D02*
X109779085Y-199345066D01*
X109823275Y-199368686D01*
X109862018Y-199400482D01*
X109893814Y-199439225D01*
X109917434Y-199483415D01*
X109931983Y-199531378D01*
X109937500Y-199587391D01*
X109937500Y-200412609D01*
X109931983Y-200468622D01*
X109917434Y-200516585D01*
X109893814Y-200560775D01*
X109862018Y-200599518D01*
X109823275Y-200631314D01*
X109779085Y-200654934D01*
X109731122Y-200669483D01*
X109675109Y-200675000D01*
X108924891Y-200675000D01*
X108868878Y-200669483D01*
X108820915Y-200654934D01*
X108776725Y-200631314D01*
X108737982Y-200599518D01*
X108706186Y-200560775D01*
X108682566Y-200516585D01*
X108668017Y-200468622D01*
X108662500Y-200412609D01*
X108662500Y-199587391D01*
X108668017Y-199531378D01*
X108682566Y-199483415D01*
X108706186Y-199439225D01*
X108737982Y-199400482D01*
X108776725Y-199368686D01*
X108820915Y-199345066D01*
X108868878Y-199330517D01*
X108924891Y-199325000D01*
X109675109Y-199325000D01*
X109731122Y-199330517D01*
X109731122Y-199330517D01*
G37*
G36*
X103788622Y-196340517D02*
X103836585Y-196355066D01*
X103880775Y-196378686D01*
X103919518Y-196410482D01*
X103951314Y-196449225D01*
X103974934Y-196493415D01*
X103989483Y-196541378D01*
X103995000Y-196597391D01*
X103995000Y-197422609D01*
X103989483Y-197478622D01*
X103974934Y-197526585D01*
X103951314Y-197570775D01*
X103919518Y-197609518D01*
X103880775Y-197641314D01*
X103836585Y-197664934D01*
X103788622Y-197679483D01*
X103732609Y-197685000D01*
X102982391Y-197685000D01*
X102926378Y-197679483D01*
X102878415Y-197664934D01*
X102834225Y-197641314D01*
X102795482Y-197609518D01*
X102763686Y-197570775D01*
X102740066Y-197526585D01*
X102725517Y-197478622D01*
X102720000Y-197422609D01*
X102720000Y-196597391D01*
X102725517Y-196541378D01*
X102740066Y-196493415D01*
X102763686Y-196449225D01*
X102795482Y-196410482D01*
X102834225Y-196378686D01*
X102878415Y-196355066D01*
X102926378Y-196340517D01*
X102982391Y-196335000D01*
X103732609Y-196335000D01*
X103788622Y-196340517D01*
X103788622Y-196340517D01*
G37*
G36*
X102213622Y-196340517D02*
X102261585Y-196355066D01*
X102305775Y-196378686D01*
X102344518Y-196410482D01*
X102376314Y-196449225D01*
X102399934Y-196493415D01*
X102414483Y-196541378D01*
X102420000Y-196597391D01*
X102420000Y-197422609D01*
X102414483Y-197478622D01*
X102399934Y-197526585D01*
X102376314Y-197570775D01*
X102344518Y-197609518D01*
X102305775Y-197641314D01*
X102261585Y-197664934D01*
X102213622Y-197679483D01*
X102157609Y-197685000D01*
X101407391Y-197685000D01*
X101351378Y-197679483D01*
X101303415Y-197664934D01*
X101259225Y-197641314D01*
X101220482Y-197609518D01*
X101188686Y-197570775D01*
X101165066Y-197526585D01*
X101150517Y-197478622D01*
X101145000Y-197422609D01*
X101145000Y-196597391D01*
X101150517Y-196541378D01*
X101165066Y-196493415D01*
X101188686Y-196449225D01*
X101220482Y-196410482D01*
X101259225Y-196378686D01*
X101303415Y-196355066D01*
X101351378Y-196340517D01*
X101407391Y-196335000D01*
X102157609Y-196335000D01*
X102213622Y-196340517D01*
X102213622Y-196340517D01*
G37*
G36*
X139961057Y-195079377D02*
X140081798Y-195111730D01*
X140154242Y-195131141D01*
X140770224Y-195296193D01*
X141313353Y-195441724D01*
X140951007Y-196794021D01*
X140951006Y-196794021D01*
X139791895Y-196483438D01*
X139671154Y-196451085D01*
X139598710Y-196431674D01*
X138439599Y-196121091D01*
X138497500Y-195905000D01*
X138801945Y-194768794D01*
X138801946Y-194768794D01*
X139961057Y-195079377D01*
X139961057Y-195079377D01*
G37*
G36*
X71602800Y-195905000D02*
X71660701Y-196121091D01*
X70501590Y-196431674D01*
X70429146Y-196451085D01*
X70308405Y-196483438D01*
X69149294Y-196794021D01*
X69149293Y-196794021D01*
X68786947Y-195441724D01*
X69330076Y-195296193D01*
X69946058Y-195131141D01*
X70018502Y-195111730D01*
X70139243Y-195079377D01*
X71298354Y-194768794D01*
X71298355Y-194768794D01*
X71602800Y-195905000D01*
X71602800Y-195905000D01*
G37*
G36*
X107843622Y-193530517D02*
X107891585Y-193545066D01*
X107935775Y-193568686D01*
X107974518Y-193600482D01*
X108006314Y-193639225D01*
X108029934Y-193683415D01*
X108044483Y-193731378D01*
X108050000Y-193787391D01*
X108050000Y-194612609D01*
X108044483Y-194668622D01*
X108029934Y-194716585D01*
X108006314Y-194760775D01*
X107974518Y-194799518D01*
X107935775Y-194831314D01*
X107891585Y-194854934D01*
X107843622Y-194869483D01*
X107787609Y-194875000D01*
X107037391Y-194875000D01*
X106981378Y-194869483D01*
X106933415Y-194854934D01*
X106889225Y-194831314D01*
X106850482Y-194799518D01*
X106818686Y-194760775D01*
X106795066Y-194716585D01*
X106780517Y-194668622D01*
X106775000Y-194612609D01*
X106775000Y-193787391D01*
X106780517Y-193731378D01*
X106795066Y-193683415D01*
X106818686Y-193639225D01*
X106850482Y-193600482D01*
X106889225Y-193568686D01*
X106933415Y-193545066D01*
X106981378Y-193530517D01*
X107037391Y-193525000D01*
X107787609Y-193525000D01*
X107843622Y-193530517D01*
X107843622Y-193530517D01*
G37*
G36*
X109418622Y-193530517D02*
X109466585Y-193545066D01*
X109510775Y-193568686D01*
X109549518Y-193600482D01*
X109581314Y-193639225D01*
X109604934Y-193683415D01*
X109619483Y-193731378D01*
X109625000Y-193787391D01*
X109625000Y-194612609D01*
X109619483Y-194668622D01*
X109604934Y-194716585D01*
X109581314Y-194760775D01*
X109549518Y-194799518D01*
X109510775Y-194831314D01*
X109466585Y-194854934D01*
X109418622Y-194869483D01*
X109362609Y-194875000D01*
X108612391Y-194875000D01*
X108556378Y-194869483D01*
X108508415Y-194854934D01*
X108464225Y-194831314D01*
X108425482Y-194799518D01*
X108393686Y-194760775D01*
X108370066Y-194716585D01*
X108355517Y-194668622D01*
X108350000Y-194612609D01*
X108350000Y-193787391D01*
X108355517Y-193731378D01*
X108370066Y-193683415D01*
X108393686Y-193639225D01*
X108425482Y-193600482D01*
X108464225Y-193568686D01*
X108508415Y-193545066D01*
X108556378Y-193530517D01*
X108612391Y-193525000D01*
X109362609Y-193525000D01*
X109418622Y-193530517D01*
X109418622Y-193530517D01*
G37*
G36*
X70976786Y-193568686D02*
X71013653Y-193706276D01*
X69854542Y-194016859D01*
X69782098Y-194036270D01*
X69661357Y-194068623D01*
X68502246Y-194379206D01*
X68502245Y-194379206D01*
X68139899Y-193026909D01*
X69299010Y-192716326D01*
X69371454Y-192696915D01*
X69492195Y-192664562D01*
X70651306Y-192353979D01*
X70651307Y-192353979D01*
X70976786Y-193568686D01*
X70976786Y-193568686D01*
G37*
G36*
X140608105Y-192664562D02*
X140728846Y-192696915D01*
X140801290Y-192716326D01*
X141960401Y-193026909D01*
X141598055Y-194379206D01*
X141598054Y-194379206D01*
X140438943Y-194068623D01*
X140318202Y-194036270D01*
X140245758Y-194016859D01*
X139086647Y-193706276D01*
X139123514Y-193568686D01*
X139448993Y-192353979D01*
X139448994Y-192353979D01*
X140608105Y-192664562D01*
X140608105Y-192664562D01*
G37*
G36*
X107856122Y-190930517D02*
X107904085Y-190945066D01*
X107948275Y-190968686D01*
X107987018Y-191000482D01*
X108018814Y-191039225D01*
X108042434Y-191083415D01*
X108056983Y-191131378D01*
X108062500Y-191187391D01*
X108062500Y-192012609D01*
X108056983Y-192068622D01*
X108042434Y-192116585D01*
X108018814Y-192160775D01*
X107987018Y-192199518D01*
X107948275Y-192231314D01*
X107904085Y-192254934D01*
X107856122Y-192269483D01*
X107800109Y-192275000D01*
X107049891Y-192275000D01*
X106993878Y-192269483D01*
X106945915Y-192254934D01*
X106901725Y-192231314D01*
X106862982Y-192199518D01*
X106831186Y-192160775D01*
X106807566Y-192116585D01*
X106793017Y-192068622D01*
X106787500Y-192012609D01*
X106787500Y-191187391D01*
X106793017Y-191131378D01*
X106807566Y-191083415D01*
X106831186Y-191039225D01*
X106862982Y-191000482D01*
X106901725Y-190968686D01*
X106945915Y-190945066D01*
X106993878Y-190930517D01*
X107049891Y-190925000D01*
X107800109Y-190925000D01*
X107856122Y-190930517D01*
X107856122Y-190930517D01*
G37*
G36*
X109431122Y-190930517D02*
X109479085Y-190945066D01*
X109523275Y-190968686D01*
X109562018Y-191000482D01*
X109593814Y-191039225D01*
X109617434Y-191083415D01*
X109631983Y-191131378D01*
X109637500Y-191187391D01*
X109637500Y-192012609D01*
X109631983Y-192068622D01*
X109617434Y-192116585D01*
X109593814Y-192160775D01*
X109562018Y-192199518D01*
X109523275Y-192231314D01*
X109479085Y-192254934D01*
X109431122Y-192269483D01*
X109375109Y-192275000D01*
X108624891Y-192275000D01*
X108568878Y-192269483D01*
X108520915Y-192254934D01*
X108476725Y-192231314D01*
X108437982Y-192199518D01*
X108406186Y-192160775D01*
X108382566Y-192116585D01*
X108368017Y-192068622D01*
X108362500Y-192012609D01*
X108362500Y-191187391D01*
X108368017Y-191131378D01*
X108382566Y-191083415D01*
X108406186Y-191039225D01*
X108437982Y-191000482D01*
X108476725Y-190968686D01*
X108520915Y-190945066D01*
X108568878Y-190930517D01*
X108624891Y-190925000D01*
X109375109Y-190925000D01*
X109431122Y-190930517D01*
X109431122Y-190930517D01*
G37*
G36*
X111468622Y-190955517D02*
X111516585Y-190970066D01*
X111560775Y-190993686D01*
X111599518Y-191025482D01*
X111631314Y-191064225D01*
X111654934Y-191108415D01*
X111669483Y-191156378D01*
X111675000Y-191212391D01*
X111675000Y-191962609D01*
X111669483Y-192018622D01*
X111654934Y-192066585D01*
X111631314Y-192110775D01*
X111599518Y-192149518D01*
X111560775Y-192181314D01*
X111516585Y-192204934D01*
X111468622Y-192219483D01*
X111412609Y-192225000D01*
X110587391Y-192225000D01*
X110531378Y-192219483D01*
X110483415Y-192204934D01*
X110439225Y-192181314D01*
X110400482Y-192149518D01*
X110368686Y-192110775D01*
X110345066Y-192066585D01*
X110330517Y-192018622D01*
X110325000Y-191962609D01*
X110325000Y-191212391D01*
X110330517Y-191156378D01*
X110345066Y-191108415D01*
X110368686Y-191064225D01*
X110400482Y-191025482D01*
X110439225Y-190993686D01*
X110483415Y-190970066D01*
X110531378Y-190955517D01*
X110587391Y-190950000D01*
X111412609Y-190950000D01*
X111468622Y-190955517D01*
X111468622Y-190955517D01*
G37*
G36*
X111468622Y-189380517D02*
X111516585Y-189395066D01*
X111560775Y-189418686D01*
X111599518Y-189450482D01*
X111631314Y-189489225D01*
X111654934Y-189533415D01*
X111669483Y-189581378D01*
X111675000Y-189637391D01*
X111675000Y-190387609D01*
X111669483Y-190443622D01*
X111654934Y-190491585D01*
X111631314Y-190535775D01*
X111599518Y-190574518D01*
X111560775Y-190606314D01*
X111516585Y-190629934D01*
X111468622Y-190644483D01*
X111412609Y-190650000D01*
X110587391Y-190650000D01*
X110531378Y-190644483D01*
X110483415Y-190629934D01*
X110439225Y-190606314D01*
X110400482Y-190574518D01*
X110368686Y-190535775D01*
X110345066Y-190491585D01*
X110330517Y-190443622D01*
X110325000Y-190387609D01*
X110325000Y-189637391D01*
X110330517Y-189581378D01*
X110345066Y-189533415D01*
X110368686Y-189489225D01*
X110400482Y-189450482D01*
X110439225Y-189418686D01*
X110483415Y-189395066D01*
X110531378Y-189380517D01*
X110587391Y-189375000D01*
X111412609Y-189375000D01*
X111468622Y-189380517D01*
X111468622Y-189380517D01*
G37*
G36*
X111468622Y-187755517D02*
X111516585Y-187770066D01*
X111560775Y-187793686D01*
X111599518Y-187825482D01*
X111631314Y-187864225D01*
X111654934Y-187908415D01*
X111669483Y-187956378D01*
X111675000Y-188012391D01*
X111675000Y-188762609D01*
X111669483Y-188818622D01*
X111654934Y-188866585D01*
X111631314Y-188910775D01*
X111599518Y-188949518D01*
X111560775Y-188981314D01*
X111516585Y-189004934D01*
X111468622Y-189019483D01*
X111412609Y-189025000D01*
X110587391Y-189025000D01*
X110531378Y-189019483D01*
X110483415Y-189004934D01*
X110439225Y-188981314D01*
X110400482Y-188949518D01*
X110368686Y-188910775D01*
X110345066Y-188866585D01*
X110330517Y-188818622D01*
X110325000Y-188762609D01*
X110325000Y-188012391D01*
X110330517Y-187956378D01*
X110345066Y-187908415D01*
X110368686Y-187864225D01*
X110400482Y-187825482D01*
X110439225Y-187793686D01*
X110483415Y-187770066D01*
X110531378Y-187755517D01*
X110587391Y-187750000D01*
X111412609Y-187750000D01*
X111468622Y-187755517D01*
X111468622Y-187755517D01*
G37*
G36*
X111468622Y-186180517D02*
X111516585Y-186195066D01*
X111560775Y-186218686D01*
X111599518Y-186250482D01*
X111631314Y-186289225D01*
X111654934Y-186333415D01*
X111669483Y-186381378D01*
X111675000Y-186437391D01*
X111675000Y-187187609D01*
X111669483Y-187243622D01*
X111654934Y-187291585D01*
X111631314Y-187335775D01*
X111599518Y-187374518D01*
X111560775Y-187406314D01*
X111516585Y-187429934D01*
X111468622Y-187444483D01*
X111412609Y-187450000D01*
X110587391Y-187450000D01*
X110531378Y-187444483D01*
X110483415Y-187429934D01*
X110439225Y-187406314D01*
X110400482Y-187374518D01*
X110368686Y-187335775D01*
X110345066Y-187291585D01*
X110330517Y-187243622D01*
X110325000Y-187187609D01*
X110325000Y-186437391D01*
X110330517Y-186381378D01*
X110345066Y-186333415D01*
X110368686Y-186289225D01*
X110400482Y-186250482D01*
X110439225Y-186218686D01*
X110483415Y-186195066D01*
X110531378Y-186180517D01*
X110587391Y-186175000D01*
X111412609Y-186175000D01*
X111468622Y-186180517D01*
X111468622Y-186180517D01*
G37*
G36*
X138180000Y-186270000D02*
X134780000Y-186270000D01*
X134780000Y-184870000D01*
X138180000Y-184870000D01*
X138180000Y-186270000D01*
X138180000Y-186270000D01*
G37*
G36*
X143220000Y-186270000D02*
X139820000Y-186270000D01*
X139820000Y-184870000D01*
X143220000Y-184870000D01*
X143220000Y-186270000D01*
X143220000Y-186270000D01*
G37*
G36*
X75520000Y-185770000D02*
X72120000Y-185770000D01*
X72120000Y-184370000D01*
X75520000Y-184370000D01*
X75520000Y-185770000D01*
X75520000Y-185770000D01*
G37*
G36*
X70480000Y-185770000D02*
X67080000Y-185770000D01*
X67080000Y-184370000D01*
X70480000Y-184370000D01*
X70480000Y-185770000D01*
X70480000Y-185770000D01*
G37*
G36*
X138180000Y-183730000D02*
X134780000Y-183730000D01*
X134780000Y-182330000D01*
X138180000Y-182330000D01*
X138180000Y-183730000D01*
X138180000Y-183730000D01*
G37*
G36*
X143220000Y-183730000D02*
X139820000Y-183730000D01*
X139820000Y-182330000D01*
X143220000Y-182330000D01*
X143220000Y-183730000D01*
X143220000Y-183730000D01*
G37*
G36*
X70480000Y-183230000D02*
X67080000Y-183230000D01*
X67080000Y-181830000D01*
X70480000Y-181830000D01*
X70480000Y-183230000D01*
X70480000Y-183230000D01*
G37*
G36*
X75520000Y-183230000D02*
X72120000Y-183230000D01*
X72120000Y-181830000D01*
X75520000Y-181830000D01*
X75520000Y-183230000D01*
X75520000Y-183230000D01*
G37*
G36*
X143040000Y-177860000D02*
X140440000Y-177860000D01*
X140440000Y-176460000D01*
X143040000Y-176460000D01*
X143040000Y-177860000D01*
X143040000Y-177860000D01*
G37*
G36*
X70310000Y-177860000D02*
X67710000Y-177860000D01*
X67710000Y-176460000D01*
X70310000Y-176460000D01*
X70310000Y-177860000D01*
X70310000Y-177860000D01*
G37*
G36*
X143040000Y-175360000D02*
X140440000Y-175360000D01*
X140440000Y-173960000D01*
X143040000Y-173960000D01*
X143040000Y-175360000D01*
X143040000Y-175360000D01*
G37*
G36*
X70310000Y-175360000D02*
X67710000Y-175360000D01*
X67710000Y-173960000D01*
X70310000Y-173960000D01*
X70310000Y-175360000D01*
X70310000Y-175360000D01*
G37*
G36*
X70310000Y-172860000D02*
X67710000Y-172860000D01*
X67710000Y-171460000D01*
X70310000Y-171460000D01*
X70310000Y-172860000D01*
X70310000Y-172860000D01*
G37*
G36*
X143040000Y-172860000D02*
X140440000Y-172860000D01*
X140440000Y-171460000D01*
X143040000Y-171460000D01*
X143040000Y-172860000D01*
X143040000Y-172860000D01*
G37*
G36*
X70310000Y-170360000D02*
X67710000Y-170360000D01*
X67710000Y-168960000D01*
X70310000Y-168960000D01*
X70310000Y-170360000D01*
X70310000Y-170360000D01*
G37*
G36*
X143040000Y-170360000D02*
X140440000Y-170360000D01*
X140440000Y-168960000D01*
X143040000Y-168960000D01*
X143040000Y-170360000D01*
X143040000Y-170360000D01*
G37*
G36*
X70310000Y-167860000D02*
X67710000Y-167860000D01*
X67710000Y-166460000D01*
X70310000Y-166460000D01*
X70310000Y-167860000D01*
X70310000Y-167860000D01*
G37*
G36*
X143040000Y-167860000D02*
X140440000Y-167860000D01*
X140440000Y-166460000D01*
X143040000Y-166460000D01*
X143040000Y-167860000D01*
X143040000Y-167860000D01*
G37*
G36*
X70310000Y-165360000D02*
X67710000Y-165360000D01*
X67710000Y-163960000D01*
X70310000Y-163960000D01*
X70310000Y-165360000D01*
X70310000Y-165360000D01*
G37*
G36*
X143040000Y-165360000D02*
X140440000Y-165360000D01*
X140440000Y-163960000D01*
X143040000Y-163960000D01*
X143040000Y-165360000D01*
X143040000Y-165360000D01*
G37*
G36*
X70310000Y-162860000D02*
X67710000Y-162860000D01*
X67710000Y-161460000D01*
X70310000Y-161460000D01*
X70310000Y-162860000D01*
X70310000Y-162860000D01*
G37*
G36*
X143040000Y-162860000D02*
X140440000Y-162860000D01*
X140440000Y-161460000D01*
X143040000Y-161460000D01*
X143040000Y-162860000D01*
X143040000Y-162860000D01*
G37*
G36*
X70310000Y-160360000D02*
X67710000Y-160360000D01*
X67710000Y-158960000D01*
X70310000Y-158960000D01*
X70310000Y-160360000D01*
X70310000Y-160360000D01*
G37*
G36*
X143040000Y-160360000D02*
X140440000Y-160360000D01*
X140440000Y-158960000D01*
X143040000Y-158960000D01*
X143040000Y-160360000D01*
X143040000Y-160360000D01*
G37*
G36*
X143040000Y-157860000D02*
X140440000Y-157860000D01*
X140440000Y-156460000D01*
X143040000Y-156460000D01*
X143040000Y-157860000D01*
X143040000Y-157860000D01*
G37*
G36*
X70310000Y-157860000D02*
X67710000Y-157860000D01*
X67710000Y-156460000D01*
X70310000Y-156460000D01*
X70310000Y-157860000D01*
X70310000Y-157860000D01*
G37*
G36*
X86088622Y-155645517D02*
X86136585Y-155660066D01*
X86180775Y-155683686D01*
X86219518Y-155715482D01*
X86251314Y-155754225D01*
X86274934Y-155798415D01*
X86289483Y-155846378D01*
X86295000Y-155902391D01*
X86295000Y-156652609D01*
X86289483Y-156708622D01*
X86274934Y-156756585D01*
X86251314Y-156800775D01*
X86219518Y-156839518D01*
X86180775Y-156871314D01*
X86136585Y-156894934D01*
X86088622Y-156909483D01*
X86032609Y-156915000D01*
X85207391Y-156915000D01*
X85151378Y-156909483D01*
X85103415Y-156894934D01*
X85059225Y-156871314D01*
X85020482Y-156839518D01*
X84988686Y-156800775D01*
X84965066Y-156756585D01*
X84950517Y-156708622D01*
X84945000Y-156652609D01*
X84945000Y-155902391D01*
X84950517Y-155846378D01*
X84965066Y-155798415D01*
X84988686Y-155754225D01*
X85020482Y-155715482D01*
X85059225Y-155683686D01*
X85103415Y-155660066D01*
X85151378Y-155645517D01*
X85207391Y-155640000D01*
X86032609Y-155640000D01*
X86088622Y-155645517D01*
X86088622Y-155645517D01*
G37*
G36*
X92866122Y-154640517D02*
X92914085Y-154655066D01*
X92958275Y-154678686D01*
X92997018Y-154710482D01*
X93028814Y-154749225D01*
X93052434Y-154793415D01*
X93066983Y-154841378D01*
X93072500Y-154897391D01*
X93072500Y-155722609D01*
X93066983Y-155778622D01*
X93052434Y-155826585D01*
X93028814Y-155870775D01*
X92997018Y-155909518D01*
X92958275Y-155941314D01*
X92914085Y-155964934D01*
X92866122Y-155979483D01*
X92810109Y-155985000D01*
X92059891Y-155985000D01*
X92003878Y-155979483D01*
X91955915Y-155964934D01*
X91911725Y-155941314D01*
X91872982Y-155909518D01*
X91841186Y-155870775D01*
X91817566Y-155826585D01*
X91803017Y-155778622D01*
X91797500Y-155722609D01*
X91797500Y-154897391D01*
X91803017Y-154841378D01*
X91817566Y-154793415D01*
X91841186Y-154749225D01*
X91872982Y-154710482D01*
X91911725Y-154678686D01*
X91955915Y-154655066D01*
X92003878Y-154640517D01*
X92059891Y-154635000D01*
X92810109Y-154635000D01*
X92866122Y-154640517D01*
X92866122Y-154640517D01*
G37*
G36*
X94441122Y-154640517D02*
X94489085Y-154655066D01*
X94533275Y-154678686D01*
X94572018Y-154710482D01*
X94603814Y-154749225D01*
X94627434Y-154793415D01*
X94641983Y-154841378D01*
X94647500Y-154897391D01*
X94647500Y-155722609D01*
X94641983Y-155778622D01*
X94627434Y-155826585D01*
X94603814Y-155870775D01*
X94572018Y-155909518D01*
X94533275Y-155941314D01*
X94489085Y-155964934D01*
X94441122Y-155979483D01*
X94385109Y-155985000D01*
X93634891Y-155985000D01*
X93578878Y-155979483D01*
X93530915Y-155964934D01*
X93486725Y-155941314D01*
X93447982Y-155909518D01*
X93416186Y-155870775D01*
X93392566Y-155826585D01*
X93378017Y-155778622D01*
X93372500Y-155722609D01*
X93372500Y-154897391D01*
X93378017Y-154841378D01*
X93392566Y-154793415D01*
X93416186Y-154749225D01*
X93447982Y-154710482D01*
X93486725Y-154678686D01*
X93530915Y-154655066D01*
X93578878Y-154640517D01*
X93634891Y-154635000D01*
X94385109Y-154635000D01*
X94441122Y-154640517D01*
X94441122Y-154640517D01*
G37*
G36*
X143040000Y-155360000D02*
X140440000Y-155360000D01*
X140440000Y-153960000D01*
X143040000Y-153960000D01*
X143040000Y-155360000D01*
X143040000Y-155360000D01*
G37*
G36*
X70310000Y-155360000D02*
X67710000Y-155360000D01*
X67710000Y-153960000D01*
X70310000Y-153960000D01*
X70310000Y-155360000D01*
X70310000Y-155360000D01*
G37*
G36*
X86088622Y-154070517D02*
X86136585Y-154085066D01*
X86180775Y-154108686D01*
X86219518Y-154140482D01*
X86251314Y-154179225D01*
X86274934Y-154223415D01*
X86289483Y-154271378D01*
X86295000Y-154327391D01*
X86295000Y-155077609D01*
X86289483Y-155133622D01*
X86274934Y-155181585D01*
X86251314Y-155225775D01*
X86219518Y-155264518D01*
X86180775Y-155296314D01*
X86136585Y-155319934D01*
X86088622Y-155334483D01*
X86032609Y-155340000D01*
X85207391Y-155340000D01*
X85151378Y-155334483D01*
X85103415Y-155319934D01*
X85059225Y-155296314D01*
X85020482Y-155264518D01*
X84988686Y-155225775D01*
X84965066Y-155181585D01*
X84950517Y-155133622D01*
X84945000Y-155077609D01*
X84945000Y-154327391D01*
X84950517Y-154271378D01*
X84965066Y-154223415D01*
X84988686Y-154179225D01*
X85020482Y-154140482D01*
X85059225Y-154108686D01*
X85103415Y-154085066D01*
X85151378Y-154070517D01*
X85207391Y-154065000D01*
X86032609Y-154065000D01*
X86088622Y-154070517D01*
X86088622Y-154070517D01*
G37*
G36*
X90666612Y-151198388D02*
X90685554Y-151213934D01*
X90707165Y-151225485D01*
X90730614Y-151232598D01*
X90755000Y-151235000D01*
X91660000Y-151235000D01*
X91660000Y-153905000D01*
X90755000Y-153905000D01*
X90730614Y-153907402D01*
X90707165Y-153914515D01*
X90685554Y-153926066D01*
X90666612Y-153941612D01*
X90651521Y-153960000D01*
X88568479Y-153960000D01*
X88553388Y-153941612D01*
X88534446Y-153926066D01*
X88512835Y-153914515D01*
X88489386Y-153907402D01*
X88465000Y-153905000D01*
X87560000Y-153905000D01*
X87560000Y-151235000D01*
X88465000Y-151235000D01*
X88489386Y-151232598D01*
X88512835Y-151225485D01*
X88534446Y-151213934D01*
X88553388Y-151198388D01*
X88568479Y-151180000D01*
X90651521Y-151180000D01*
X90666612Y-151198388D01*
X90666612Y-151198388D01*
G37*
G36*
X80668622Y-152033017D02*
X80716585Y-152047566D01*
X80760775Y-152071186D01*
X80799518Y-152102982D01*
X80831314Y-152141725D01*
X80854934Y-152185915D01*
X80869483Y-152233878D01*
X80875000Y-152289891D01*
X80875000Y-153040109D01*
X80869483Y-153096122D01*
X80854934Y-153144085D01*
X80831314Y-153188275D01*
X80799518Y-153227018D01*
X80760775Y-153258814D01*
X80716585Y-153282434D01*
X80668622Y-153296983D01*
X80612609Y-153302500D01*
X79787391Y-153302500D01*
X79731378Y-153296983D01*
X79683415Y-153282434D01*
X79639225Y-153258814D01*
X79600482Y-153227018D01*
X79568686Y-153188275D01*
X79545066Y-153144085D01*
X79530517Y-153096122D01*
X79525000Y-153040109D01*
X79525000Y-152289891D01*
X79530517Y-152233878D01*
X79545066Y-152185915D01*
X79568686Y-152141725D01*
X79600482Y-152102982D01*
X79639225Y-152071186D01*
X79683415Y-152047566D01*
X79731378Y-152033017D01*
X79787391Y-152027500D01*
X80612609Y-152027500D01*
X80668622Y-152033017D01*
X80668622Y-152033017D01*
G37*
G36*
X94320026Y-150586115D02*
X94538412Y-150676573D01*
X94734958Y-150807901D01*
X94902099Y-150975042D01*
X95033427Y-151171588D01*
X95123885Y-151389974D01*
X95170000Y-151621809D01*
X95170000Y-151858191D01*
X95123885Y-152090026D01*
X95033427Y-152308412D01*
X94902099Y-152504958D01*
X94734958Y-152672099D01*
X94538412Y-152803427D01*
X94320026Y-152893885D01*
X94088191Y-152940000D01*
X93851809Y-152940000D01*
X93619974Y-152893885D01*
X93401588Y-152803427D01*
X93205042Y-152672099D01*
X93037901Y-152504958D01*
X92906573Y-152308412D01*
X92816115Y-152090026D01*
X92770000Y-151858191D01*
X92770000Y-151621809D01*
X92816115Y-151389974D01*
X92906573Y-151171588D01*
X93037901Y-150975042D01*
X93205042Y-150807901D01*
X93401588Y-150676573D01*
X93619974Y-150586115D01*
X93851809Y-150540000D01*
X94088191Y-150540000D01*
X94320026Y-150586115D01*
X94320026Y-150586115D01*
G37*
G36*
X70310000Y-152860000D02*
X67710000Y-152860000D01*
X67710000Y-151460000D01*
X70310000Y-151460000D01*
X70310000Y-152860000D01*
X70310000Y-152860000D01*
G37*
G36*
X143040000Y-152860000D02*
X140440000Y-152860000D01*
X140440000Y-151460000D01*
X143040000Y-151460000D01*
X143040000Y-152860000D01*
X143040000Y-152860000D01*
G37*
G36*
X80668622Y-150458017D02*
X80716585Y-150472566D01*
X80760775Y-150496186D01*
X80799518Y-150527982D01*
X80831314Y-150566725D01*
X80854934Y-150610915D01*
X80869483Y-150658878D01*
X80875000Y-150714891D01*
X80875000Y-151465109D01*
X80869483Y-151521122D01*
X80854934Y-151569085D01*
X80831314Y-151613275D01*
X80799518Y-151652018D01*
X80760775Y-151683814D01*
X80716585Y-151707434D01*
X80668622Y-151721983D01*
X80612609Y-151727500D01*
X79787391Y-151727500D01*
X79731378Y-151721983D01*
X79683415Y-151707434D01*
X79639225Y-151683814D01*
X79600482Y-151652018D01*
X79568686Y-151613275D01*
X79545066Y-151569085D01*
X79530517Y-151521122D01*
X79525000Y-151465109D01*
X79525000Y-150714891D01*
X79530517Y-150658878D01*
X79545066Y-150610915D01*
X79568686Y-150566725D01*
X79600482Y-150527982D01*
X79639225Y-150496186D01*
X79683415Y-150472566D01*
X79731378Y-150458017D01*
X79787391Y-150452500D01*
X80612609Y-150452500D01*
X80668622Y-150458017D01*
X80668622Y-150458017D01*
G37*
G36*
X126350026Y-149046115D02*
X126568412Y-149136573D01*
X126764958Y-149267901D01*
X126932099Y-149435042D01*
X127063427Y-149631588D01*
X127153885Y-149849974D01*
X127200000Y-150081809D01*
X127200000Y-150318191D01*
X127153885Y-150550026D01*
X127063427Y-150768412D01*
X126932099Y-150964958D01*
X126764958Y-151132099D01*
X126568412Y-151263427D01*
X126350026Y-151353885D01*
X126118191Y-151400000D01*
X125881809Y-151400000D01*
X125649974Y-151353885D01*
X125431588Y-151263427D01*
X125235042Y-151132099D01*
X125067901Y-150964958D01*
X124936573Y-150768412D01*
X124846115Y-150550026D01*
X124800000Y-150318191D01*
X124800000Y-150081809D01*
X124846115Y-149849974D01*
X124936573Y-149631588D01*
X125067901Y-149435042D01*
X125235042Y-149267901D01*
X125431588Y-149136573D01*
X125649974Y-149046115D01*
X125881809Y-149000000D01*
X126118191Y-149000000D01*
X126350026Y-149046115D01*
X126350026Y-149046115D01*
G37*
G36*
X70310000Y-150360000D02*
X67710000Y-150360000D01*
X67710000Y-148960000D01*
X70310000Y-148960000D01*
X70310000Y-150360000D01*
X70310000Y-150360000D01*
G37*
G36*
X143040000Y-150360000D02*
X140440000Y-150360000D01*
X140440000Y-148960000D01*
X143040000Y-148960000D01*
X143040000Y-150360000D01*
X143040000Y-150360000D01*
G37*
G36*
X93301122Y-147270517D02*
X93349085Y-147285066D01*
X93393275Y-147308686D01*
X93432018Y-147340482D01*
X93463814Y-147379225D01*
X93487434Y-147423415D01*
X93501983Y-147471378D01*
X93507500Y-147527391D01*
X93507500Y-148352609D01*
X93501983Y-148408622D01*
X93487434Y-148456585D01*
X93463814Y-148500775D01*
X93432018Y-148539518D01*
X93393275Y-148571314D01*
X93349085Y-148594934D01*
X93301122Y-148609483D01*
X93245109Y-148615000D01*
X92494891Y-148615000D01*
X92438878Y-148609483D01*
X92390915Y-148594934D01*
X92346725Y-148571314D01*
X92307982Y-148539518D01*
X92276186Y-148500775D01*
X92252566Y-148456585D01*
X92238017Y-148408622D01*
X92232500Y-148352609D01*
X92232500Y-147527391D01*
X92238017Y-147471378D01*
X92252566Y-147423415D01*
X92276186Y-147379225D01*
X92307982Y-147340482D01*
X92346725Y-147308686D01*
X92390915Y-147285066D01*
X92438878Y-147270517D01*
X92494891Y-147265000D01*
X93245109Y-147265000D01*
X93301122Y-147270517D01*
X93301122Y-147270517D01*
G37*
G36*
X94876122Y-147270517D02*
X94924085Y-147285066D01*
X94968275Y-147308686D01*
X95007018Y-147340482D01*
X95038814Y-147379225D01*
X95062434Y-147423415D01*
X95076983Y-147471378D01*
X95082500Y-147527391D01*
X95082500Y-148352609D01*
X95076983Y-148408622D01*
X95062434Y-148456585D01*
X95038814Y-148500775D01*
X95007018Y-148539518D01*
X94968275Y-148571314D01*
X94924085Y-148594934D01*
X94876122Y-148609483D01*
X94820109Y-148615000D01*
X94069891Y-148615000D01*
X94013878Y-148609483D01*
X93965915Y-148594934D01*
X93921725Y-148571314D01*
X93882982Y-148539518D01*
X93851186Y-148500775D01*
X93827566Y-148456585D01*
X93813017Y-148408622D01*
X93807500Y-148352609D01*
X93807500Y-147527391D01*
X93813017Y-147471378D01*
X93827566Y-147423415D01*
X93851186Y-147379225D01*
X93882982Y-147340482D01*
X93921725Y-147308686D01*
X93965915Y-147285066D01*
X94013878Y-147270517D01*
X94069891Y-147265000D01*
X94820109Y-147265000D01*
X94876122Y-147270517D01*
X94876122Y-147270517D01*
G37*
G36*
X126350026Y-145846115D02*
X126568412Y-145936573D01*
X126764958Y-146067901D01*
X126932099Y-146235042D01*
X127063427Y-146431588D01*
X127153885Y-146649974D01*
X127200000Y-146881809D01*
X127200000Y-147118191D01*
X127153885Y-147350026D01*
X127063427Y-147568412D01*
X126932099Y-147764958D01*
X126764958Y-147932099D01*
X126568412Y-148063427D01*
X126350026Y-148153885D01*
X126118191Y-148200000D01*
X125881809Y-148200000D01*
X125649974Y-148153885D01*
X125431588Y-148063427D01*
X125235042Y-147932099D01*
X125067901Y-147764958D01*
X124936573Y-147568412D01*
X124846115Y-147350026D01*
X124800000Y-147118191D01*
X124800000Y-146881809D01*
X124846115Y-146649974D01*
X124936573Y-146431588D01*
X125067901Y-146235042D01*
X125235042Y-146067901D01*
X125431588Y-145936573D01*
X125649974Y-145846115D01*
X125881809Y-145800000D01*
X126118191Y-145800000D01*
X126350026Y-145846115D01*
X126350026Y-145846115D01*
G37*
G36*
X70310000Y-147860000D02*
X67710000Y-147860000D01*
X67710000Y-146460000D01*
X70310000Y-146460000D01*
X70310000Y-147860000D01*
X70310000Y-147860000D01*
G37*
G36*
X143040000Y-147860000D02*
X140440000Y-147860000D01*
X140440000Y-146460000D01*
X143040000Y-146460000D01*
X143040000Y-147860000D01*
X143040000Y-147860000D01*
G37*
G36*
X92749628Y-143290493D02*
X92797354Y-143304970D01*
X92841336Y-143328479D01*
X92879885Y-143360115D01*
X92911521Y-143398664D01*
X92935030Y-143442646D01*
X92949507Y-143490372D01*
X92955000Y-143546141D01*
X92955000Y-145173859D01*
X92949507Y-145229628D01*
X92935030Y-145277354D01*
X92911521Y-145321336D01*
X92879885Y-145359885D01*
X92841336Y-145391521D01*
X92797354Y-145415030D01*
X92749628Y-145429507D01*
X92693859Y-145435000D01*
X91566141Y-145435000D01*
X91510372Y-145429507D01*
X91462646Y-145415030D01*
X91418664Y-145391521D01*
X91380115Y-145359885D01*
X91348479Y-145321336D01*
X91324970Y-145277354D01*
X91310493Y-145229628D01*
X91305000Y-145173859D01*
X91305000Y-143546141D01*
X91310493Y-143490372D01*
X91324970Y-143442646D01*
X91348479Y-143398664D01*
X91380115Y-143360115D01*
X91418664Y-143328479D01*
X91462646Y-143304970D01*
X91510372Y-143290493D01*
X91566141Y-143285000D01*
X92693859Y-143285000D01*
X92749628Y-143290493D01*
X92749628Y-143290493D01*
G37*
G36*
X95549628Y-143290493D02*
X95597354Y-143304970D01*
X95641336Y-143328479D01*
X95679885Y-143360115D01*
X95711521Y-143398664D01*
X95735030Y-143442646D01*
X95749507Y-143490372D01*
X95755000Y-143546141D01*
X95755000Y-145173859D01*
X95749507Y-145229628D01*
X95735030Y-145277354D01*
X95711521Y-145321336D01*
X95679885Y-145359885D01*
X95641336Y-145391521D01*
X95597354Y-145415030D01*
X95549628Y-145429507D01*
X95493859Y-145435000D01*
X94366141Y-145435000D01*
X94310372Y-145429507D01*
X94262646Y-145415030D01*
X94218664Y-145391521D01*
X94180115Y-145359885D01*
X94148479Y-145321336D01*
X94124970Y-145277354D01*
X94110493Y-145229628D01*
X94105000Y-145173859D01*
X94105000Y-143546141D01*
X94110493Y-143490372D01*
X94124970Y-143442646D01*
X94148479Y-143398664D01*
X94180115Y-143360115D01*
X94218664Y-143328479D01*
X94262646Y-143304970D01*
X94310372Y-143290493D01*
X94366141Y-143285000D01*
X95493859Y-143285000D01*
X95549628Y-143290493D01*
X95549628Y-143290493D01*
G37*
G36*
X143040000Y-145360000D02*
X140440000Y-145360000D01*
X140440000Y-143960000D01*
X143040000Y-143960000D01*
X143040000Y-145360000D01*
X143040000Y-145360000D01*
G37*
G36*
X70310000Y-145360000D02*
X67710000Y-145360000D01*
X67710000Y-143960000D01*
X70310000Y-143960000D01*
X70310000Y-145360000D01*
X70310000Y-145360000D01*
G37*
G36*
X126350026Y-142646115D02*
X126568412Y-142736573D01*
X126764958Y-142867901D01*
X126932099Y-143035042D01*
X127063427Y-143231588D01*
X127153885Y-143449974D01*
X127200000Y-143681809D01*
X127200000Y-143918191D01*
X127153885Y-144150026D01*
X127063427Y-144368412D01*
X126932099Y-144564958D01*
X126764958Y-144732099D01*
X126568412Y-144863427D01*
X126350026Y-144953885D01*
X126118191Y-145000000D01*
X125881809Y-145000000D01*
X125649974Y-144953885D01*
X125431588Y-144863427D01*
X125235042Y-144732099D01*
X125067901Y-144564958D01*
X124936573Y-144368412D01*
X124846115Y-144150026D01*
X124800000Y-143918191D01*
X124800000Y-143681809D01*
X124846115Y-143449974D01*
X124936573Y-143231588D01*
X125067901Y-143035042D01*
X125235042Y-142867901D01*
X125431588Y-142736573D01*
X125649974Y-142646115D01*
X125881809Y-142600000D01*
X126118191Y-142600000D01*
X126350026Y-142646115D01*
X126350026Y-142646115D01*
G37*
G36*
X89750000Y-144250000D02*
X87350000Y-144250000D01*
X87350000Y-142350000D01*
X89750000Y-142350000D01*
X89750000Y-144250000D01*
X89750000Y-144250000D01*
G37*
G36*
X83450000Y-143100000D02*
X81050000Y-143100000D01*
X81050000Y-138900000D01*
X83450000Y-138900000D01*
X83450000Y-143100000D01*
X83450000Y-143100000D01*
G37*
G36*
X70310000Y-142860000D02*
X67710000Y-142860000D01*
X67710000Y-141460000D01*
X70310000Y-141460000D01*
X70310000Y-142860000D01*
X70310000Y-142860000D01*
G37*
G36*
X143040000Y-142860000D02*
X140440000Y-142860000D01*
X140440000Y-141460000D01*
X143040000Y-141460000D01*
X143040000Y-142860000D01*
X143040000Y-142860000D01*
G37*
G36*
X95619628Y-139930493D02*
X95667354Y-139944970D01*
X95711336Y-139968479D01*
X95749885Y-140000115D01*
X95781521Y-140038664D01*
X95805030Y-140082646D01*
X95819507Y-140130372D01*
X95825000Y-140186141D01*
X95825000Y-141813859D01*
X95819507Y-141869628D01*
X95805030Y-141917354D01*
X95781521Y-141961336D01*
X95749885Y-141999885D01*
X95711336Y-142031521D01*
X95667354Y-142055030D01*
X95619628Y-142069507D01*
X95563859Y-142075000D01*
X94436141Y-142075000D01*
X94380372Y-142069507D01*
X94332646Y-142055030D01*
X94288664Y-142031521D01*
X94250115Y-141999885D01*
X94218479Y-141961336D01*
X94194970Y-141917354D01*
X94180493Y-141869628D01*
X94175000Y-141813859D01*
X94175000Y-140186141D01*
X94180493Y-140130372D01*
X94194970Y-140082646D01*
X94218479Y-140038664D01*
X94250115Y-140000115D01*
X94288664Y-139968479D01*
X94332646Y-139944970D01*
X94380372Y-139930493D01*
X94436141Y-139925000D01*
X95563859Y-139925000D01*
X95619628Y-139930493D01*
X95619628Y-139930493D01*
G37*
G36*
X92819628Y-139930493D02*
X92867354Y-139944970D01*
X92911336Y-139968479D01*
X92949885Y-140000115D01*
X92981521Y-140038664D01*
X93005030Y-140082646D01*
X93019507Y-140130372D01*
X93025000Y-140186141D01*
X93025000Y-141813859D01*
X93019507Y-141869628D01*
X93005030Y-141917354D01*
X92981521Y-141961336D01*
X92949885Y-141999885D01*
X92911336Y-142031521D01*
X92867354Y-142055030D01*
X92819628Y-142069507D01*
X92763859Y-142075000D01*
X91636141Y-142075000D01*
X91580372Y-142069507D01*
X91532646Y-142055030D01*
X91488664Y-142031521D01*
X91450115Y-141999885D01*
X91418479Y-141961336D01*
X91394970Y-141917354D01*
X91380493Y-141869628D01*
X91375000Y-141813859D01*
X91375000Y-140186141D01*
X91380493Y-140130372D01*
X91394970Y-140082646D01*
X91418479Y-140038664D01*
X91450115Y-140000115D01*
X91488664Y-139968479D01*
X91532646Y-139944970D01*
X91580372Y-139930493D01*
X91636141Y-139925000D01*
X92763859Y-139925000D01*
X92819628Y-139930493D01*
X92819628Y-139930493D01*
G37*
G36*
X89750000Y-141950000D02*
X87350000Y-141950000D01*
X87350000Y-140050000D01*
X89750000Y-140050000D01*
X89750000Y-141950000D01*
X89750000Y-141950000D01*
G37*
G36*
X126350026Y-138946115D02*
X126568412Y-139036573D01*
X126764958Y-139167901D01*
X126932099Y-139335042D01*
X127063427Y-139531588D01*
X127153885Y-139749974D01*
X127200000Y-139981809D01*
X127200000Y-140218191D01*
X127153885Y-140450026D01*
X127063427Y-140668412D01*
X126932099Y-140864958D01*
X126764958Y-141032099D01*
X126568412Y-141163427D01*
X126350026Y-141253885D01*
X126118191Y-141300000D01*
X125881809Y-141300000D01*
X125649974Y-141253885D01*
X125431588Y-141163427D01*
X125235042Y-141032099D01*
X125067901Y-140864958D01*
X124936573Y-140668412D01*
X124846115Y-140450026D01*
X124800000Y-140218191D01*
X124800000Y-139981809D01*
X124846115Y-139749974D01*
X124936573Y-139531588D01*
X125067901Y-139335042D01*
X125235042Y-139167901D01*
X125431588Y-139036573D01*
X125649974Y-138946115D01*
X125881809Y-138900000D01*
X126118191Y-138900000D01*
X126350026Y-138946115D01*
X126350026Y-138946115D01*
G37*
G36*
X143040000Y-140360000D02*
X140440000Y-140360000D01*
X140440000Y-138960000D01*
X143040000Y-138960000D01*
X143040000Y-140360000D01*
X143040000Y-140360000D01*
G37*
G36*
X70310000Y-140360000D02*
X67710000Y-140360000D01*
X67710000Y-138960000D01*
X70310000Y-138960000D01*
X70310000Y-140360000D01*
X70310000Y-140360000D01*
G37*
G36*
X77443622Y-138930517D02*
X77491585Y-138945066D01*
X77535775Y-138968686D01*
X77574518Y-139000482D01*
X77606314Y-139039225D01*
X77629934Y-139083415D01*
X77644483Y-139131378D01*
X77650000Y-139187391D01*
X77650000Y-140012609D01*
X77644483Y-140068622D01*
X77629934Y-140116585D01*
X77606314Y-140160775D01*
X77574518Y-140199518D01*
X77535775Y-140231314D01*
X77491585Y-140254934D01*
X77443622Y-140269483D01*
X77387609Y-140275000D01*
X76637391Y-140275000D01*
X76581378Y-140269483D01*
X76533415Y-140254934D01*
X76489225Y-140231314D01*
X76450482Y-140199518D01*
X76418686Y-140160775D01*
X76395066Y-140116585D01*
X76380517Y-140068622D01*
X76375000Y-140012609D01*
X76375000Y-139187391D01*
X76380517Y-139131378D01*
X76395066Y-139083415D01*
X76418686Y-139039225D01*
X76450482Y-139000482D01*
X76489225Y-138968686D01*
X76533415Y-138945066D01*
X76581378Y-138930517D01*
X76637391Y-138925000D01*
X77387609Y-138925000D01*
X77443622Y-138930517D01*
X77443622Y-138930517D01*
G37*
G36*
X79018622Y-138930517D02*
X79066585Y-138945066D01*
X79110775Y-138968686D01*
X79149518Y-139000482D01*
X79181314Y-139039225D01*
X79204934Y-139083415D01*
X79219483Y-139131378D01*
X79225000Y-139187391D01*
X79225000Y-140012609D01*
X79219483Y-140068622D01*
X79204934Y-140116585D01*
X79181314Y-140160775D01*
X79149518Y-140199518D01*
X79110775Y-140231314D01*
X79066585Y-140254934D01*
X79018622Y-140269483D01*
X78962609Y-140275000D01*
X78212391Y-140275000D01*
X78156378Y-140269483D01*
X78108415Y-140254934D01*
X78064225Y-140231314D01*
X78025482Y-140199518D01*
X77993686Y-140160775D01*
X77970066Y-140116585D01*
X77955517Y-140068622D01*
X77950000Y-140012609D01*
X77950000Y-139187391D01*
X77955517Y-139131378D01*
X77970066Y-139083415D01*
X77993686Y-139039225D01*
X78025482Y-139000482D01*
X78064225Y-138968686D01*
X78108415Y-138945066D01*
X78156378Y-138930517D01*
X78212391Y-138925000D01*
X78962609Y-138925000D01*
X79018622Y-138930517D01*
X79018622Y-138930517D01*
G37*
G36*
X89750000Y-139650000D02*
X87350000Y-139650000D01*
X87350000Y-137750000D01*
X89750000Y-137750000D01*
X89750000Y-139650000D01*
X89750000Y-139650000D01*
G37*
G36*
X92619628Y-136030493D02*
X92667354Y-136044970D01*
X92711336Y-136068479D01*
X92749885Y-136100115D01*
X92781521Y-136138664D01*
X92805030Y-136182646D01*
X92819507Y-136230372D01*
X92825000Y-136286141D01*
X92825000Y-137913859D01*
X92819507Y-137969628D01*
X92805030Y-138017354D01*
X92781521Y-138061336D01*
X92749885Y-138099885D01*
X92711336Y-138131521D01*
X92667354Y-138155030D01*
X92619628Y-138169507D01*
X92563859Y-138175000D01*
X91436141Y-138175000D01*
X91380372Y-138169507D01*
X91332646Y-138155030D01*
X91288664Y-138131521D01*
X91250115Y-138099885D01*
X91218479Y-138061336D01*
X91194970Y-138017354D01*
X91180493Y-137969628D01*
X91175000Y-137913859D01*
X91175000Y-136286141D01*
X91180493Y-136230372D01*
X91194970Y-136182646D01*
X91218479Y-136138664D01*
X91250115Y-136100115D01*
X91288664Y-136068479D01*
X91332646Y-136044970D01*
X91380372Y-136030493D01*
X91436141Y-136025000D01*
X92563859Y-136025000D01*
X92619628Y-136030493D01*
X92619628Y-136030493D01*
G37*
G36*
X95419628Y-136030493D02*
X95467354Y-136044970D01*
X95511336Y-136068479D01*
X95549885Y-136100115D01*
X95581521Y-136138664D01*
X95605030Y-136182646D01*
X95619507Y-136230372D01*
X95625000Y-136286141D01*
X95625000Y-137913859D01*
X95619507Y-137969628D01*
X95605030Y-138017354D01*
X95581521Y-138061336D01*
X95549885Y-138099885D01*
X95511336Y-138131521D01*
X95467354Y-138155030D01*
X95419628Y-138169507D01*
X95363859Y-138175000D01*
X94236141Y-138175000D01*
X94180372Y-138169507D01*
X94132646Y-138155030D01*
X94088664Y-138131521D01*
X94050115Y-138099885D01*
X94018479Y-138061336D01*
X93994970Y-138017354D01*
X93980493Y-137969628D01*
X93975000Y-137913859D01*
X93975000Y-136286141D01*
X93980493Y-136230372D01*
X93994970Y-136182646D01*
X94018479Y-136138664D01*
X94050115Y-136100115D01*
X94088664Y-136068479D01*
X94132646Y-136044970D01*
X94180372Y-136030493D01*
X94236141Y-136025000D01*
X95363859Y-136025000D01*
X95419628Y-136030493D01*
X95419628Y-136030493D01*
G37*
G36*
X126350026Y-135746115D02*
X126568412Y-135836573D01*
X126764958Y-135967901D01*
X126932099Y-136135042D01*
X127063427Y-136331588D01*
X127153885Y-136549974D01*
X127200000Y-136781809D01*
X127200000Y-137018191D01*
X127153885Y-137250026D01*
X127063427Y-137468412D01*
X126932099Y-137664958D01*
X126764958Y-137832099D01*
X126568412Y-137963427D01*
X126350026Y-138053885D01*
X126118191Y-138100000D01*
X125881809Y-138100000D01*
X125649974Y-138053885D01*
X125431588Y-137963427D01*
X125235042Y-137832099D01*
X125067901Y-137664958D01*
X124936573Y-137468412D01*
X124846115Y-137250026D01*
X124800000Y-137018191D01*
X124800000Y-136781809D01*
X124846115Y-136549974D01*
X124936573Y-136331588D01*
X125067901Y-136135042D01*
X125235042Y-135967901D01*
X125431588Y-135836573D01*
X125649974Y-135746115D01*
X125881809Y-135700000D01*
X126118191Y-135700000D01*
X126350026Y-135746115D01*
X126350026Y-135746115D01*
G37*
G36*
X77979122Y-133546115D02*
X78095041Y-133569173D01*
X78422620Y-133704861D01*
X78602420Y-133825000D01*
X78717436Y-133901851D01*
X78968149Y-134152564D01*
X78968151Y-134152567D01*
X79165139Y-134447380D01*
X79292098Y-134753885D01*
X79300827Y-134774960D01*
X79370000Y-135122714D01*
X79370000Y-135477286D01*
X79325699Y-135700000D01*
X79300827Y-135825041D01*
X79165139Y-136152620D01*
X79045557Y-136331587D01*
X78968149Y-136447436D01*
X78717436Y-136698149D01*
X78717433Y-136698151D01*
X78422620Y-136895139D01*
X78095041Y-137030827D01*
X77979122Y-137053885D01*
X77747286Y-137100000D01*
X77392714Y-137100000D01*
X77160878Y-137053885D01*
X77044959Y-137030827D01*
X76717380Y-136895139D01*
X76422567Y-136698151D01*
X76422564Y-136698149D01*
X76171851Y-136447436D01*
X76094443Y-136331587D01*
X75974861Y-136152620D01*
X75839173Y-135825041D01*
X75814301Y-135700000D01*
X75770000Y-135477286D01*
X75770000Y-135122714D01*
X75839173Y-134774960D01*
X75847903Y-134753885D01*
X75974861Y-134447380D01*
X76171849Y-134152567D01*
X76171851Y-134152564D01*
X76422564Y-133901851D01*
X76537580Y-133825000D01*
X76717380Y-133704861D01*
X77044959Y-133569173D01*
X77160878Y-133546115D01*
X77392714Y-133500000D01*
X77747286Y-133500000D01*
X77979122Y-133546115D01*
X77979122Y-133546115D01*
G37*
G36*
X133619122Y-133466115D02*
X133735041Y-133489173D01*
X133966674Y-133585119D01*
X134053990Y-133621286D01*
X134062620Y-133624861D01*
X134297078Y-133781521D01*
X134357436Y-133821851D01*
X134608149Y-134072564D01*
X134608151Y-134072567D01*
X134805139Y-134367380D01*
X134932560Y-134675000D01*
X134940827Y-134694960D01*
X135007774Y-135031521D01*
X135010000Y-135042716D01*
X135010000Y-135397284D01*
X134940827Y-135745041D01*
X134805139Y-136072620D01*
X134738961Y-136171662D01*
X134608149Y-136367436D01*
X134357436Y-136618149D01*
X134357433Y-136618151D01*
X134062620Y-136815139D01*
X133735041Y-136950827D01*
X133619122Y-136973885D01*
X133387286Y-137020000D01*
X133032714Y-137020000D01*
X132800878Y-136973885D01*
X132684959Y-136950827D01*
X132357380Y-136815139D01*
X132062567Y-136618151D01*
X132062564Y-136618149D01*
X131811851Y-136367436D01*
X131681039Y-136171662D01*
X131614861Y-136072620D01*
X131479173Y-135745041D01*
X131410000Y-135397284D01*
X131410000Y-135042716D01*
X131412227Y-135031521D01*
X131479173Y-134694960D01*
X131487441Y-134675000D01*
X131614861Y-134367380D01*
X131811849Y-134072567D01*
X131811851Y-134072564D01*
X132062564Y-133821851D01*
X132122922Y-133781521D01*
X132357380Y-133624861D01*
X132366011Y-133621286D01*
X132453326Y-133585119D01*
X132684959Y-133489173D01*
X132800878Y-133466115D01*
X133032714Y-133420000D01*
X133387286Y-133420000D01*
X133619122Y-133466115D01*
X133619122Y-133466115D01*
G37*
G36*
X143024150Y-136825270D02*
X141721130Y-136825270D01*
X141721130Y-135923570D01*
X143024150Y-135923570D01*
X143024150Y-136825270D01*
X143024150Y-136825270D01*
G37*
G36*
X138878870Y-136825270D02*
X137575850Y-136825270D01*
X137575850Y-135923570D01*
X138878870Y-135923570D01*
X138878870Y-136825270D01*
X138878870Y-136825270D01*
G37*
G36*
X88669628Y-134980493D02*
X88717354Y-134994970D01*
X88761336Y-135018479D01*
X88799885Y-135050115D01*
X88831521Y-135088664D01*
X88855030Y-135132646D01*
X88869507Y-135180372D01*
X88875000Y-135236141D01*
X88875000Y-136363859D01*
X88869507Y-136419628D01*
X88855030Y-136467354D01*
X88831521Y-136511336D01*
X88799885Y-136549885D01*
X88761336Y-136581521D01*
X88717354Y-136605030D01*
X88669628Y-136619507D01*
X88613859Y-136625000D01*
X86986141Y-136625000D01*
X86930372Y-136619507D01*
X86882646Y-136605030D01*
X86838664Y-136581521D01*
X86800115Y-136549885D01*
X86768479Y-136511336D01*
X86744970Y-136467354D01*
X86730493Y-136419628D01*
X86725000Y-136363859D01*
X86725000Y-135236141D01*
X86730493Y-135180372D01*
X86744970Y-135132646D01*
X86768479Y-135088664D01*
X86800115Y-135050115D01*
X86838664Y-135018479D01*
X86882646Y-134994970D01*
X86930372Y-134980493D01*
X86986141Y-134975000D01*
X88613859Y-134975000D01*
X88669628Y-134980493D01*
X88669628Y-134980493D01*
G37*
G36*
X69393417Y-134457936D02*
X69407051Y-134459279D01*
X69447865Y-134471660D01*
X69529496Y-134496423D01*
X69642343Y-134556741D01*
X69741255Y-134637915D01*
X69822429Y-134736827D01*
X69882747Y-134849674D01*
X69919891Y-134972120D01*
X69932433Y-135099460D01*
X69922911Y-135196135D01*
X69919891Y-135226801D01*
X69915699Y-135240620D01*
X69882747Y-135349246D01*
X69822429Y-135462093D01*
X69741255Y-135561005D01*
X69642343Y-135642179D01*
X69529496Y-135702497D01*
X69447865Y-135727260D01*
X69407051Y-135739641D01*
X69393417Y-135740984D01*
X69311621Y-135749040D01*
X68549299Y-135749040D01*
X68467503Y-135740984D01*
X68453869Y-135739641D01*
X68413055Y-135727260D01*
X68331424Y-135702497D01*
X68218577Y-135642179D01*
X68119665Y-135561005D01*
X68038491Y-135462093D01*
X67978173Y-135349246D01*
X67945221Y-135240620D01*
X67941029Y-135226801D01*
X67938009Y-135196135D01*
X67928487Y-135099460D01*
X67941029Y-134972120D01*
X67978173Y-134849674D01*
X68038491Y-134736827D01*
X68119665Y-134637915D01*
X68218577Y-134556741D01*
X68331424Y-134496423D01*
X68413055Y-134471660D01*
X68453869Y-134459279D01*
X68467503Y-134457936D01*
X68549299Y-134449880D01*
X69311621Y-134449880D01*
X69393417Y-134457936D01*
X69393417Y-134457936D01*
G37*
G36*
X83330000Y-135625000D02*
X81870000Y-135625000D01*
X81870000Y-134575000D01*
X83330000Y-134575000D01*
X83330000Y-135625000D01*
X83330000Y-135625000D01*
G37*
G36*
X85530000Y-135625000D02*
X84070000Y-135625000D01*
X84070000Y-132675000D01*
X85530000Y-132675000D01*
X85530000Y-135625000D01*
X85530000Y-135625000D01*
G37*
G36*
X92619628Y-132930493D02*
X92667354Y-132944970D01*
X92711336Y-132968479D01*
X92749885Y-133000115D01*
X92781521Y-133038664D01*
X92805030Y-133082646D01*
X92819507Y-133130372D01*
X92825000Y-133186141D01*
X92825000Y-134813859D01*
X92819507Y-134869628D01*
X92805030Y-134917354D01*
X92781521Y-134961336D01*
X92749885Y-134999885D01*
X92711336Y-135031521D01*
X92667354Y-135055030D01*
X92619628Y-135069507D01*
X92563859Y-135075000D01*
X91436141Y-135075000D01*
X91380372Y-135069507D01*
X91332646Y-135055030D01*
X91288664Y-135031521D01*
X91250115Y-134999885D01*
X91218479Y-134961336D01*
X91194970Y-134917354D01*
X91180493Y-134869628D01*
X91175000Y-134813859D01*
X91175000Y-133186141D01*
X91180493Y-133130372D01*
X91194970Y-133082646D01*
X91218479Y-133038664D01*
X91250115Y-133000115D01*
X91288664Y-132968479D01*
X91332646Y-132944970D01*
X91380372Y-132930493D01*
X91436141Y-132925000D01*
X92563859Y-132925000D01*
X92619628Y-132930493D01*
X92619628Y-132930493D01*
G37*
G36*
X95419628Y-132930493D02*
X95467354Y-132944970D01*
X95511336Y-132968479D01*
X95549885Y-133000115D01*
X95581521Y-133038664D01*
X95605030Y-133082646D01*
X95619507Y-133130372D01*
X95625000Y-133186141D01*
X95625000Y-134813859D01*
X95619507Y-134869628D01*
X95605030Y-134917354D01*
X95581521Y-134961336D01*
X95549885Y-134999885D01*
X95511336Y-135031521D01*
X95467354Y-135055030D01*
X95419628Y-135069507D01*
X95363859Y-135075000D01*
X94236141Y-135075000D01*
X94180372Y-135069507D01*
X94132646Y-135055030D01*
X94088664Y-135031521D01*
X94050115Y-134999885D01*
X94018479Y-134961336D01*
X93994970Y-134917354D01*
X93980493Y-134869628D01*
X93975000Y-134813859D01*
X93975000Y-133186141D01*
X93980493Y-133130372D01*
X93994970Y-133082646D01*
X94018479Y-133038664D01*
X94050115Y-133000115D01*
X94088664Y-132968479D01*
X94132646Y-132944970D01*
X94180372Y-132930493D01*
X94236141Y-132925000D01*
X95363859Y-132925000D01*
X95419628Y-132930493D01*
X95419628Y-132930493D01*
G37*
G36*
X126350026Y-132446115D02*
X126568412Y-132536573D01*
X126764958Y-132667901D01*
X126932099Y-132835042D01*
X127063427Y-133031588D01*
X127153885Y-133249974D01*
X127200000Y-133481809D01*
X127200000Y-133718191D01*
X127153885Y-133950026D01*
X127063427Y-134168412D01*
X126932099Y-134364958D01*
X126764958Y-134532099D01*
X126568412Y-134663427D01*
X126350026Y-134753885D01*
X126118191Y-134800000D01*
X125881809Y-134800000D01*
X125649974Y-134753885D01*
X125431588Y-134663427D01*
X125235042Y-134532099D01*
X125067901Y-134364958D01*
X124936573Y-134168412D01*
X124846115Y-133950026D01*
X124800000Y-133718191D01*
X124800000Y-133481809D01*
X124846115Y-133249974D01*
X124936573Y-133031588D01*
X125067901Y-132835042D01*
X125235042Y-132667901D01*
X125431588Y-132536573D01*
X125649974Y-132446115D01*
X125881809Y-132400000D01*
X126118191Y-132400000D01*
X126350026Y-132446115D01*
X126350026Y-132446115D01*
G37*
G36*
X138878870Y-134676430D02*
X137575850Y-134676430D01*
X137575850Y-133774730D01*
X138878870Y-133774730D01*
X138878870Y-134676430D01*
X138878870Y-134676430D01*
G37*
G36*
X143024150Y-134676430D02*
X141721130Y-134676430D01*
X141721130Y-133774730D01*
X143024150Y-133774730D01*
X143024150Y-134676430D01*
X143024150Y-134676430D01*
G37*
G36*
X88669628Y-132180493D02*
X88717354Y-132194970D01*
X88761336Y-132218479D01*
X88799885Y-132250115D01*
X88831521Y-132288664D01*
X88855030Y-132332646D01*
X88869507Y-132380372D01*
X88875000Y-132436141D01*
X88875000Y-133563859D01*
X88869507Y-133619628D01*
X88855030Y-133667354D01*
X88831521Y-133711336D01*
X88799885Y-133749885D01*
X88761336Y-133781521D01*
X88717354Y-133805030D01*
X88669628Y-133819507D01*
X88613859Y-133825000D01*
X86986141Y-133825000D01*
X86930372Y-133819507D01*
X86882646Y-133805030D01*
X86838664Y-133781521D01*
X86800115Y-133749885D01*
X86768479Y-133711336D01*
X86744970Y-133667354D01*
X86730493Y-133619628D01*
X86725000Y-133563859D01*
X86725000Y-132436141D01*
X86730493Y-132380372D01*
X86744970Y-132332646D01*
X86768479Y-132288664D01*
X86800115Y-132250115D01*
X86838664Y-132218479D01*
X86882646Y-132194970D01*
X86930372Y-132180493D01*
X86986141Y-132175000D01*
X88613859Y-132175000D01*
X88669628Y-132180493D01*
X88669628Y-132180493D01*
G37*
G36*
X83330000Y-133725000D02*
X81870000Y-133725000D01*
X81870000Y-132675000D01*
X83330000Y-132675000D01*
X83330000Y-133725000D01*
X83330000Y-133725000D01*
G37*
G36*
X109849995Y-130736005D02*
X108430005Y-130736005D01*
X108430005Y-128115995D01*
X109849995Y-128115995D01*
X109849995Y-130736005D01*
X109849995Y-130736005D01*
G37*
G36*
X130169995Y-130736005D02*
X128750005Y-130736005D01*
X128750005Y-128115995D01*
X130169995Y-128115995D01*
X130169995Y-130736005D01*
X130169995Y-130736005D01*
G37*
G36*
X112389995Y-130736005D02*
X110970005Y-130736005D01*
X110970005Y-128115995D01*
X112389995Y-128115995D01*
X112389995Y-130736005D01*
X112389995Y-130736005D01*
G37*
G36*
X122549995Y-130736005D02*
X121130005Y-130736005D01*
X121130005Y-128115995D01*
X122549995Y-128115995D01*
X122549995Y-130736005D01*
X122549995Y-130736005D01*
G37*
G36*
X114929995Y-130736005D02*
X113510005Y-130736005D01*
X113510005Y-128115995D01*
X114929995Y-128115995D01*
X114929995Y-130736005D01*
X114929995Y-130736005D01*
G37*
G36*
X120009995Y-130736005D02*
X118590005Y-130736005D01*
X118590005Y-128115995D01*
X120009995Y-128115995D01*
X120009995Y-130736005D01*
X120009995Y-130736005D01*
G37*
G36*
X117469995Y-130736005D02*
X116050005Y-130736005D01*
X116050005Y-128115995D01*
X117469995Y-128115995D01*
X117469995Y-130736005D01*
X117469995Y-130736005D01*
G37*
G36*
X125089995Y-130736005D02*
X123670005Y-130736005D01*
X123670005Y-128115995D01*
X125089995Y-128115995D01*
X125089995Y-130736005D01*
X125089995Y-130736005D01*
G37*
G36*
X127629995Y-130736005D02*
X126210005Y-130736005D01*
X126210005Y-128115995D01*
X127629995Y-128115995D01*
X127629995Y-130736005D01*
X127629995Y-130736005D01*
G37*
G36*
X107309995Y-130736005D02*
X105890005Y-130736005D01*
X105890005Y-128115995D01*
X107309995Y-128115995D01*
X107309995Y-130736005D01*
X107309995Y-130736005D01*
G37*
G36*
X104769995Y-130736005D02*
X103350005Y-130736005D01*
X103350005Y-128115995D01*
X104769995Y-128115995D01*
X104769995Y-130736005D01*
X104769995Y-130736005D01*
G37*
G36*
X102229995Y-130736005D02*
X100810005Y-130736005D01*
X100810005Y-128115995D01*
X102229995Y-128115995D01*
X102229995Y-130736005D01*
X102229995Y-130736005D01*
G37*
G36*
X99689995Y-130736005D02*
X98270005Y-130736005D01*
X98270005Y-128115995D01*
X99689995Y-128115995D01*
X99689995Y-130736005D01*
X99689995Y-130736005D01*
G37*
G36*
X97149995Y-130736005D02*
X95730005Y-130736005D01*
X95730005Y-128115995D01*
X97149995Y-128115995D01*
X97149995Y-130736005D01*
X97149995Y-130736005D01*
G37*
G36*
X94609995Y-130736005D02*
X93190005Y-130736005D01*
X93190005Y-128115995D01*
X94609995Y-128115995D01*
X94609995Y-130736005D01*
X94609995Y-130736005D01*
G37*
G36*
X92069995Y-130736005D02*
X90650005Y-130736005D01*
X90650005Y-128115995D01*
X92069995Y-128115995D01*
X92069995Y-130736005D01*
X92069995Y-130736005D01*
G37*
G36*
X89529995Y-130736005D02*
X88110005Y-130736005D01*
X88110005Y-128115995D01*
X89529995Y-128115995D01*
X89529995Y-130736005D01*
X89529995Y-130736005D01*
G37*
G36*
X86989995Y-130736005D02*
X85570005Y-130736005D01*
X85570005Y-128115995D01*
X86989995Y-128115995D01*
X86989995Y-130736005D01*
X86989995Y-130736005D01*
G37*
G36*
X84449995Y-130736005D02*
X83030005Y-130736005D01*
X83030005Y-128115995D01*
X84449995Y-128115995D01*
X84449995Y-130736005D01*
X84449995Y-130736005D01*
G37*
G36*
X81909995Y-130736005D02*
X80490005Y-130736005D01*
X80490005Y-128115995D01*
X81909995Y-128115995D01*
X81909995Y-130736005D01*
X81909995Y-130736005D01*
G37*
G36*
X69393417Y-127859016D02*
X69407051Y-127860359D01*
X69447865Y-127872740D01*
X69529496Y-127897503D01*
X69642343Y-127957821D01*
X69741255Y-128038995D01*
X69822429Y-128137907D01*
X69882747Y-128250754D01*
X69907510Y-128332385D01*
X69916019Y-128360434D01*
X69919891Y-128373200D01*
X69932433Y-128500540D01*
X69919891Y-128627880D01*
X69882747Y-128750326D01*
X69822429Y-128863173D01*
X69741255Y-128962085D01*
X69642343Y-129043259D01*
X69529496Y-129103577D01*
X69447865Y-129128340D01*
X69407051Y-129140721D01*
X69393417Y-129142064D01*
X69311621Y-129150120D01*
X68549299Y-129150120D01*
X68467503Y-129142064D01*
X68453869Y-129140721D01*
X68413055Y-129128340D01*
X68331424Y-129103577D01*
X68218577Y-129043259D01*
X68119665Y-128962085D01*
X68038491Y-128863173D01*
X67978173Y-128750326D01*
X67941029Y-128627880D01*
X67928487Y-128500540D01*
X67941029Y-128373200D01*
X67944902Y-128360434D01*
X67953410Y-128332385D01*
X67978173Y-128250754D01*
X68038491Y-128137907D01*
X68119665Y-128038995D01*
X68218577Y-127957821D01*
X68331424Y-127897503D01*
X68413055Y-127872740D01*
X68453869Y-127860359D01*
X68467503Y-127859016D01*
X68549299Y-127850960D01*
X69311621Y-127850960D01*
X69393417Y-127859016D01*
X69393417Y-127859016D01*
G37*
G36*
X84449995Y-125084005D02*
X83030005Y-125084005D01*
X83030005Y-122463995D01*
X84449995Y-122463995D01*
X84449995Y-125084005D01*
X84449995Y-125084005D01*
G37*
G36*
X81909995Y-125084005D02*
X80490005Y-125084005D01*
X80490005Y-122463995D01*
X81909995Y-122463995D01*
X81909995Y-125084005D01*
X81909995Y-125084005D01*
G37*
G36*
X86989995Y-125084005D02*
X85570005Y-125084005D01*
X85570005Y-122463995D01*
X86989995Y-122463995D01*
X86989995Y-125084005D01*
X86989995Y-125084005D01*
G37*
G36*
X89529995Y-125084005D02*
X88110005Y-125084005D01*
X88110005Y-122463995D01*
X89529995Y-122463995D01*
X89529995Y-125084005D01*
X89529995Y-125084005D01*
G37*
G36*
X92069995Y-125084005D02*
X90650005Y-125084005D01*
X90650005Y-122463995D01*
X92069995Y-122463995D01*
X92069995Y-125084005D01*
X92069995Y-125084005D01*
G37*
G36*
X94609995Y-125084005D02*
X93190005Y-125084005D01*
X93190005Y-122463995D01*
X94609995Y-122463995D01*
X94609995Y-125084005D01*
X94609995Y-125084005D01*
G37*
G36*
X97149995Y-125084005D02*
X95730005Y-125084005D01*
X95730005Y-122463995D01*
X97149995Y-122463995D01*
X97149995Y-125084005D01*
X97149995Y-125084005D01*
G37*
G36*
X99689995Y-125084005D02*
X98270005Y-125084005D01*
X98270005Y-122463995D01*
X99689995Y-122463995D01*
X99689995Y-125084005D01*
X99689995Y-125084005D01*
G37*
G36*
X102229995Y-125084005D02*
X100810005Y-125084005D01*
X100810005Y-122463995D01*
X102229995Y-122463995D01*
X102229995Y-125084005D01*
X102229995Y-125084005D01*
G37*
G36*
X104769995Y-125084005D02*
X103350005Y-125084005D01*
X103350005Y-122463995D01*
X104769995Y-122463995D01*
X104769995Y-125084005D01*
X104769995Y-125084005D01*
G37*
G36*
X107309995Y-125084005D02*
X105890005Y-125084005D01*
X105890005Y-122463995D01*
X107309995Y-122463995D01*
X107309995Y-125084005D01*
X107309995Y-125084005D01*
G37*
G36*
X109849995Y-125084005D02*
X108430005Y-125084005D01*
X108430005Y-122463995D01*
X109849995Y-122463995D01*
X109849995Y-125084005D01*
X109849995Y-125084005D01*
G37*
G36*
X112389995Y-125084005D02*
X110970005Y-125084005D01*
X110970005Y-122463995D01*
X112389995Y-122463995D01*
X112389995Y-125084005D01*
X112389995Y-125084005D01*
G37*
G36*
X114929995Y-125084005D02*
X113510005Y-125084005D01*
X113510005Y-122463995D01*
X114929995Y-122463995D01*
X114929995Y-125084005D01*
X114929995Y-125084005D01*
G37*
G36*
X117469995Y-125084005D02*
X116050005Y-125084005D01*
X116050005Y-122463995D01*
X117469995Y-122463995D01*
X117469995Y-125084005D01*
X117469995Y-125084005D01*
G37*
G36*
X120009995Y-125084005D02*
X118590005Y-125084005D01*
X118590005Y-122463995D01*
X120009995Y-122463995D01*
X120009995Y-125084005D01*
X120009995Y-125084005D01*
G37*
G36*
X122549995Y-125084005D02*
X121130005Y-125084005D01*
X121130005Y-122463995D01*
X122549995Y-122463995D01*
X122549995Y-125084005D01*
X122549995Y-125084005D01*
G37*
G36*
X125089995Y-125084005D02*
X123670005Y-125084005D01*
X123670005Y-122463995D01*
X125089995Y-122463995D01*
X125089995Y-125084005D01*
X125089995Y-125084005D01*
G37*
G36*
X127629995Y-125084005D02*
X126210005Y-125084005D01*
X126210005Y-122463995D01*
X127629995Y-122463995D01*
X127629995Y-125084005D01*
X127629995Y-125084005D01*
G37*
G36*
X130169995Y-125084005D02*
X128750005Y-125084005D01*
X128750005Y-122463995D01*
X130169995Y-122463995D01*
X130169995Y-125084005D01*
X130169995Y-125084005D01*
G37*
G36*
X70817738Y-121866653D02*
X70859598Y-121874979D01*
X70894245Y-121889330D01*
X70977890Y-121923977D01*
X71084354Y-121995114D01*
X71174886Y-122085646D01*
X71246023Y-122192110D01*
X71295021Y-122310403D01*
X71320000Y-122435979D01*
X71320000Y-122564021D01*
X71295021Y-122689597D01*
X71246023Y-122807890D01*
X71174886Y-122914354D01*
X71084354Y-123004886D01*
X70977890Y-123076023D01*
X70894245Y-123110670D01*
X70859598Y-123125021D01*
X70817738Y-123133347D01*
X70734021Y-123150000D01*
X70605979Y-123150000D01*
X70522262Y-123133347D01*
X70480402Y-123125021D01*
X70445755Y-123110670D01*
X70362110Y-123076023D01*
X70255646Y-123004886D01*
X70165114Y-122914354D01*
X70093977Y-122807890D01*
X70044979Y-122689597D01*
X70020000Y-122564021D01*
X70020000Y-122435979D01*
X70044979Y-122310403D01*
X70093977Y-122192110D01*
X70165114Y-122085646D01*
X70255646Y-121995114D01*
X70362110Y-121923977D01*
X70445755Y-121889330D01*
X70480402Y-121874979D01*
X70522262Y-121866653D01*
X70605979Y-121850000D01*
X70734021Y-121850000D01*
X70817738Y-121866653D01*
X70817738Y-121866653D01*
G37*
G36*
X70817738Y-118866653D02*
X70859598Y-118874979D01*
X70894245Y-118889330D01*
X70977890Y-118923977D01*
X71084354Y-118995114D01*
X71174886Y-119085646D01*
X71246023Y-119192110D01*
X71269802Y-119249518D01*
X71291018Y-119300737D01*
X71295021Y-119310403D01*
X71320000Y-119435979D01*
X71320000Y-119564021D01*
X71295021Y-119689597D01*
X71246023Y-119807890D01*
X71174886Y-119914354D01*
X71084354Y-120004886D01*
X70977890Y-120076023D01*
X70894245Y-120110670D01*
X70859598Y-120125021D01*
X70817738Y-120133347D01*
X70734021Y-120150000D01*
X70605979Y-120150000D01*
X70522262Y-120133347D01*
X70480402Y-120125021D01*
X70445755Y-120110670D01*
X70362110Y-120076023D01*
X70255646Y-120004886D01*
X70165114Y-119914354D01*
X70093977Y-119807890D01*
X70044979Y-119689597D01*
X70020000Y-119564021D01*
X70020000Y-119435979D01*
X70044979Y-119310403D01*
X70048983Y-119300737D01*
X70070198Y-119249518D01*
X70093977Y-119192110D01*
X70165114Y-119085646D01*
X70255646Y-118995114D01*
X70362110Y-118923977D01*
X70445755Y-118889330D01*
X70480402Y-118874979D01*
X70522262Y-118866653D01*
X70605979Y-118850000D01*
X70734021Y-118850000D01*
X70817738Y-118866653D01*
X70817738Y-118866653D01*
G37*
G36*
X78750026Y-117446115D02*
X78968412Y-117536573D01*
X79164958Y-117667901D01*
X79332099Y-117835042D01*
X79463427Y-118031588D01*
X79553885Y-118249974D01*
X79600000Y-118481809D01*
X79600000Y-118718191D01*
X79553885Y-118950026D01*
X79463427Y-119168412D01*
X79332099Y-119364958D01*
X79164958Y-119532099D01*
X78968412Y-119663427D01*
X78750026Y-119753885D01*
X78518191Y-119800000D01*
X78281809Y-119800000D01*
X78049974Y-119753885D01*
X77831588Y-119663427D01*
X77635042Y-119532099D01*
X77467901Y-119364958D01*
X77336573Y-119168412D01*
X77246115Y-118950026D01*
X77200000Y-118718191D01*
X77200000Y-118481809D01*
X77246115Y-118249974D01*
X77336573Y-118031588D01*
X77467901Y-117835042D01*
X77635042Y-117667901D01*
X77831588Y-117536573D01*
X78049974Y-117446115D01*
X78281809Y-117400000D01*
X78518191Y-117400000D01*
X78750026Y-117446115D01*
X78750026Y-117446115D01*
G37*
G36*
X85468622Y-118055517D02*
X85516585Y-118070066D01*
X85560775Y-118093686D01*
X85599518Y-118125482D01*
X85631314Y-118164225D01*
X85654934Y-118208415D01*
X85669483Y-118256378D01*
X85675000Y-118312391D01*
X85675000Y-119062609D01*
X85669483Y-119118622D01*
X85654934Y-119166585D01*
X85631314Y-119210775D01*
X85599518Y-119249518D01*
X85560775Y-119281314D01*
X85516585Y-119304934D01*
X85468622Y-119319483D01*
X85412609Y-119325000D01*
X84587391Y-119325000D01*
X84531378Y-119319483D01*
X84483415Y-119304934D01*
X84439225Y-119281314D01*
X84400482Y-119249518D01*
X84368686Y-119210775D01*
X84345066Y-119166585D01*
X84330517Y-119118622D01*
X84325000Y-119062609D01*
X84325000Y-118312391D01*
X84330517Y-118256378D01*
X84345066Y-118208415D01*
X84368686Y-118164225D01*
X84400482Y-118125482D01*
X84439225Y-118093686D01*
X84483415Y-118070066D01*
X84531378Y-118055517D01*
X84587391Y-118050000D01*
X85412609Y-118050000D01*
X85468622Y-118055517D01*
X85468622Y-118055517D01*
G37*
G36*
X81868622Y-118055517D02*
X81916585Y-118070066D01*
X81960775Y-118093686D01*
X81999518Y-118125482D01*
X82031314Y-118164225D01*
X82054934Y-118208415D01*
X82069483Y-118256378D01*
X82075000Y-118312391D01*
X82075000Y-119062609D01*
X82069483Y-119118622D01*
X82054934Y-119166585D01*
X82031314Y-119210775D01*
X81999518Y-119249518D01*
X81960775Y-119281314D01*
X81916585Y-119304934D01*
X81868622Y-119319483D01*
X81812609Y-119325000D01*
X80987391Y-119325000D01*
X80931378Y-119319483D01*
X80883415Y-119304934D01*
X80839225Y-119281314D01*
X80800482Y-119249518D01*
X80768686Y-119210775D01*
X80745066Y-119166585D01*
X80730517Y-119118622D01*
X80725000Y-119062609D01*
X80725000Y-118312391D01*
X80730517Y-118256378D01*
X80745066Y-118208415D01*
X80768686Y-118164225D01*
X80800482Y-118125482D01*
X80839225Y-118093686D01*
X80883415Y-118070066D01*
X80931378Y-118055517D01*
X80987391Y-118050000D01*
X81812609Y-118050000D01*
X81868622Y-118055517D01*
X81868622Y-118055517D01*
G37*
G36*
X81868622Y-116480517D02*
X81916585Y-116495066D01*
X81960775Y-116518686D01*
X81999518Y-116550482D01*
X82031314Y-116589225D01*
X82054934Y-116633415D01*
X82069483Y-116681378D01*
X82075000Y-116737391D01*
X82075000Y-117487609D01*
X82069483Y-117543622D01*
X82054934Y-117591585D01*
X82031314Y-117635775D01*
X81999518Y-117674518D01*
X81960775Y-117706314D01*
X81916585Y-117729934D01*
X81868622Y-117744483D01*
X81812609Y-117750000D01*
X80987391Y-117750000D01*
X80931378Y-117744483D01*
X80883415Y-117729934D01*
X80839225Y-117706314D01*
X80800482Y-117674518D01*
X80768686Y-117635775D01*
X80745066Y-117591585D01*
X80730517Y-117543622D01*
X80725000Y-117487609D01*
X80725000Y-116737391D01*
X80730517Y-116681378D01*
X80745066Y-116633415D01*
X80768686Y-116589225D01*
X80800482Y-116550482D01*
X80839225Y-116518686D01*
X80883415Y-116495066D01*
X80931378Y-116480517D01*
X80987391Y-116475000D01*
X81812609Y-116475000D01*
X81868622Y-116480517D01*
X81868622Y-116480517D01*
G37*
G36*
X85468622Y-116480517D02*
X85516585Y-116495066D01*
X85560775Y-116518686D01*
X85599518Y-116550482D01*
X85631314Y-116589225D01*
X85654934Y-116633415D01*
X85669483Y-116681378D01*
X85675000Y-116737391D01*
X85675000Y-117487609D01*
X85669483Y-117543622D01*
X85654934Y-117591585D01*
X85631314Y-117635775D01*
X85599518Y-117674518D01*
X85560775Y-117706314D01*
X85516585Y-117729934D01*
X85468622Y-117744483D01*
X85412609Y-117750000D01*
X84587391Y-117750000D01*
X84531378Y-117744483D01*
X84483415Y-117729934D01*
X84439225Y-117706314D01*
X84400482Y-117674518D01*
X84368686Y-117635775D01*
X84345066Y-117591585D01*
X84330517Y-117543622D01*
X84325000Y-117487609D01*
X84325000Y-116737391D01*
X84330517Y-116681378D01*
X84345066Y-116633415D01*
X84368686Y-116589225D01*
X84400482Y-116550482D01*
X84439225Y-116518686D01*
X84483415Y-116495066D01*
X84531378Y-116480517D01*
X84587391Y-116475000D01*
X85412609Y-116475000D01*
X85468622Y-116480517D01*
X85468622Y-116480517D01*
G37*
G36*
X78750026Y-114046115D02*
X78968412Y-114136573D01*
X79164958Y-114267901D01*
X79332099Y-114435042D01*
X79463427Y-114631588D01*
X79553885Y-114849974D01*
X79600000Y-115081809D01*
X79600000Y-115318191D01*
X79553885Y-115550026D01*
X79463427Y-115768412D01*
X79332099Y-115964958D01*
X79164958Y-116132099D01*
X78968412Y-116263427D01*
X78750026Y-116353885D01*
X78518191Y-116400000D01*
X78281809Y-116400000D01*
X78049974Y-116353885D01*
X77831588Y-116263427D01*
X77635042Y-116132099D01*
X77467901Y-115964958D01*
X77336573Y-115768412D01*
X77246115Y-115550026D01*
X77200000Y-115318191D01*
X77200000Y-115081809D01*
X77246115Y-114849974D01*
X77336573Y-114631588D01*
X77467901Y-114435042D01*
X77635042Y-114267901D01*
X77831588Y-114136573D01*
X78049974Y-114046115D01*
X78281809Y-114000000D01*
X78518191Y-114000000D01*
X78750026Y-114046115D01*
X78750026Y-114046115D01*
G37*
G36*
X81868622Y-112555517D02*
X81916585Y-112570066D01*
X81960775Y-112593686D01*
X81999518Y-112625482D01*
X82031314Y-112664225D01*
X82054934Y-112708415D01*
X82069483Y-112756378D01*
X82075000Y-112812391D01*
X82075000Y-113562609D01*
X82069483Y-113618622D01*
X82054934Y-113666585D01*
X82031314Y-113710775D01*
X81999518Y-113749518D01*
X81960775Y-113781314D01*
X81916585Y-113804934D01*
X81868622Y-113819483D01*
X81812609Y-113825000D01*
X80987391Y-113825000D01*
X80931378Y-113819483D01*
X80883415Y-113804934D01*
X80839225Y-113781314D01*
X80800482Y-113749518D01*
X80768686Y-113710775D01*
X80745066Y-113666585D01*
X80730517Y-113618622D01*
X80725000Y-113562609D01*
X80725000Y-112812391D01*
X80730517Y-112756378D01*
X80745066Y-112708415D01*
X80768686Y-112664225D01*
X80800482Y-112625482D01*
X80839225Y-112593686D01*
X80883415Y-112570066D01*
X80931378Y-112555517D01*
X80987391Y-112550000D01*
X81812609Y-112550000D01*
X81868622Y-112555517D01*
X81868622Y-112555517D01*
G37*
G36*
X85468622Y-112455517D02*
X85516585Y-112470066D01*
X85560775Y-112493686D01*
X85599518Y-112525482D01*
X85631314Y-112564225D01*
X85654934Y-112608415D01*
X85669483Y-112656378D01*
X85675000Y-112712391D01*
X85675000Y-113462609D01*
X85669483Y-113518622D01*
X85654934Y-113566585D01*
X85631314Y-113610775D01*
X85599518Y-113649518D01*
X85560775Y-113681314D01*
X85516585Y-113704934D01*
X85468622Y-113719483D01*
X85412609Y-113725000D01*
X84587391Y-113725000D01*
X84531378Y-113719483D01*
X84483415Y-113704934D01*
X84439225Y-113681314D01*
X84400482Y-113649518D01*
X84368686Y-113610775D01*
X84345066Y-113566585D01*
X84330517Y-113518622D01*
X84325000Y-113462609D01*
X84325000Y-112712391D01*
X84330517Y-112656378D01*
X84345066Y-112608415D01*
X84368686Y-112564225D01*
X84400482Y-112525482D01*
X84439225Y-112493686D01*
X84483415Y-112470066D01*
X84531378Y-112455517D01*
X84587391Y-112450000D01*
X85412609Y-112450000D01*
X85468622Y-112455517D01*
X85468622Y-112455517D01*
G37*
G36*
X81868622Y-110980517D02*
X81916585Y-110995066D01*
X81960775Y-111018686D01*
X81999518Y-111050482D01*
X82031314Y-111089225D01*
X82054934Y-111133415D01*
X82069483Y-111181378D01*
X82075000Y-111237391D01*
X82075000Y-111987609D01*
X82069483Y-112043622D01*
X82054934Y-112091585D01*
X82031314Y-112135775D01*
X81999518Y-112174518D01*
X81960775Y-112206314D01*
X81916585Y-112229934D01*
X81868622Y-112244483D01*
X81812609Y-112250000D01*
X80987391Y-112250000D01*
X80931378Y-112244483D01*
X80883415Y-112229934D01*
X80839225Y-112206314D01*
X80800482Y-112174518D01*
X80768686Y-112135775D01*
X80745066Y-112091585D01*
X80730517Y-112043622D01*
X80725000Y-111987609D01*
X80725000Y-111237391D01*
X80730517Y-111181378D01*
X80745066Y-111133415D01*
X80768686Y-111089225D01*
X80800482Y-111050482D01*
X80839225Y-111018686D01*
X80883415Y-110995066D01*
X80931378Y-110980517D01*
X80987391Y-110975000D01*
X81812609Y-110975000D01*
X81868622Y-110980517D01*
X81868622Y-110980517D01*
G37*
G36*
X85468622Y-110880517D02*
X85516585Y-110895066D01*
X85560775Y-110918686D01*
X85599518Y-110950482D01*
X85631314Y-110989225D01*
X85654934Y-111033415D01*
X85669483Y-111081378D01*
X85675000Y-111137391D01*
X85675000Y-111887609D01*
X85669483Y-111943622D01*
X85654934Y-111991585D01*
X85631314Y-112035775D01*
X85599518Y-112074518D01*
X85560775Y-112106314D01*
X85516585Y-112129934D01*
X85468622Y-112144483D01*
X85412609Y-112150000D01*
X84587391Y-112150000D01*
X84531378Y-112144483D01*
X84483415Y-112129934D01*
X84439225Y-112106314D01*
X84400482Y-112074518D01*
X84368686Y-112035775D01*
X84345066Y-111991585D01*
X84330517Y-111943622D01*
X84325000Y-111887609D01*
X84325000Y-111137391D01*
X84330517Y-111081378D01*
X84345066Y-111033415D01*
X84368686Y-110989225D01*
X84400482Y-110950482D01*
X84439225Y-110918686D01*
X84483415Y-110895066D01*
X84531378Y-110880517D01*
X84587391Y-110875000D01*
X85412609Y-110875000D01*
X85468622Y-110880517D01*
X85468622Y-110880517D01*
G37*
G36*
X132600000Y-102750000D02*
X132175000Y-102750000D01*
X132150614Y-102752402D01*
X132127165Y-102759515D01*
X132105554Y-102771066D01*
X132086612Y-102786612D01*
X132071066Y-102805554D01*
X132059515Y-102827165D01*
X132052402Y-102850614D01*
X132050000Y-102875000D01*
X132050000Y-103650000D01*
X131625000Y-103650000D01*
X131600614Y-103652402D01*
X131577165Y-103659515D01*
X131555554Y-103671066D01*
X131536612Y-103686612D01*
X131521066Y-103705554D01*
X131509515Y-103727165D01*
X131502402Y-103750614D01*
X131500000Y-103775000D01*
X131500000Y-104475000D01*
X131502402Y-104499386D01*
X131509515Y-104522835D01*
X131521066Y-104544446D01*
X131525624Y-104550000D01*
X126200000Y-104550000D01*
X126200000Y-103775000D01*
X126197598Y-103750614D01*
X126190485Y-103727165D01*
X126178934Y-103705554D01*
X126163388Y-103686612D01*
X126144446Y-103671066D01*
X126122835Y-103659515D01*
X126099386Y-103652402D01*
X126075000Y-103650000D01*
X124825000Y-103650000D01*
X124800614Y-103652402D01*
X124777165Y-103659515D01*
X124755554Y-103671066D01*
X124736612Y-103686612D01*
X124721066Y-103705554D01*
X124709515Y-103727165D01*
X124702402Y-103750614D01*
X124700000Y-103775000D01*
X124700000Y-105025000D01*
X124702402Y-105049386D01*
X124709515Y-105072835D01*
X124721066Y-105094446D01*
X124736612Y-105113388D01*
X124755554Y-105128934D01*
X124777165Y-105140485D01*
X124800614Y-105147598D01*
X124825000Y-105150000D01*
X125600000Y-105150000D01*
X125600000Y-108250000D01*
X124825000Y-108250000D01*
X124800614Y-108252402D01*
X124777165Y-108259515D01*
X124755554Y-108271066D01*
X124736612Y-108286612D01*
X124721066Y-108305554D01*
X124709515Y-108327165D01*
X124702402Y-108350614D01*
X124700000Y-108375000D01*
X124700000Y-109625000D01*
X124702402Y-109649386D01*
X124709515Y-109672835D01*
X124721066Y-109694446D01*
X124736612Y-109713388D01*
X124755554Y-109728934D01*
X124777165Y-109740485D01*
X124800614Y-109747598D01*
X124825000Y-109750000D01*
X126075000Y-109750000D01*
X126099386Y-109747598D01*
X126122835Y-109740485D01*
X126144446Y-109728934D01*
X126163388Y-109713388D01*
X126178934Y-109694446D01*
X126190485Y-109672835D01*
X126197598Y-109649386D01*
X126200000Y-109625000D01*
X126200000Y-108850000D01*
X131525624Y-108850000D01*
X131521066Y-108855554D01*
X131509515Y-108877165D01*
X131502402Y-108900614D01*
X131500000Y-108925000D01*
X131500000Y-109625000D01*
X131502402Y-109649386D01*
X131509515Y-109672835D01*
X131521066Y-109694446D01*
X131536612Y-109713388D01*
X131555554Y-109728934D01*
X131577165Y-109740485D01*
X131600614Y-109747598D01*
X131625000Y-109750000D01*
X132050000Y-109750000D01*
X132050000Y-110525000D01*
X132052402Y-110549386D01*
X132059515Y-110572835D01*
X132071066Y-110594446D01*
X132086612Y-110613388D01*
X132105554Y-110628934D01*
X132127165Y-110640485D01*
X132150614Y-110647598D01*
X132175000Y-110650000D01*
X132600000Y-110650000D01*
X132600000Y-111550000D01*
X122900000Y-111550000D01*
X122900000Y-111125000D01*
X122897598Y-111100614D01*
X122890485Y-111077165D01*
X122878934Y-111055554D01*
X122863388Y-111036612D01*
X122844446Y-111021066D01*
X122822835Y-111009515D01*
X122799386Y-111002402D01*
X122775000Y-111000000D01*
X122000000Y-111000000D01*
X122000000Y-110025000D01*
X123800000Y-110025000D01*
X123800000Y-110525000D01*
X123802402Y-110549386D01*
X123809515Y-110572835D01*
X123821066Y-110594446D01*
X123836612Y-110613388D01*
X123855554Y-110628934D01*
X123877165Y-110640485D01*
X123900614Y-110647598D01*
X123925000Y-110650000D01*
X124425000Y-110650000D01*
X124449386Y-110647598D01*
X124472835Y-110640485D01*
X124494446Y-110628934D01*
X124513388Y-110613388D01*
X124528934Y-110594446D01*
X124540485Y-110572835D01*
X124547598Y-110549386D01*
X124550000Y-110525000D01*
X124550000Y-110025000D01*
X124547598Y-110000614D01*
X124540485Y-109977165D01*
X124528934Y-109955554D01*
X124513388Y-109936612D01*
X124494446Y-109921066D01*
X124472835Y-109909515D01*
X124449386Y-109902402D01*
X124425000Y-109900000D01*
X123925000Y-109900000D01*
X123900614Y-109902402D01*
X123877165Y-109909515D01*
X123855554Y-109921066D01*
X123836612Y-109936612D01*
X123821066Y-109955554D01*
X123809515Y-109977165D01*
X123802402Y-110000614D01*
X123800000Y-110025000D01*
X122000000Y-110025000D01*
X122000000Y-102875000D01*
X123800000Y-102875000D01*
X123800000Y-103375000D01*
X123802402Y-103399386D01*
X123809515Y-103422835D01*
X123821066Y-103444446D01*
X123836612Y-103463388D01*
X123855554Y-103478934D01*
X123877165Y-103490485D01*
X123900614Y-103497598D01*
X123925000Y-103500000D01*
X124425000Y-103500000D01*
X124449386Y-103497598D01*
X124472835Y-103490485D01*
X124494446Y-103478934D01*
X124513388Y-103463388D01*
X124528934Y-103444446D01*
X124540485Y-103422835D01*
X124547598Y-103399386D01*
X124550000Y-103375000D01*
X124550000Y-102875000D01*
X124547598Y-102850614D01*
X124540485Y-102827165D01*
X124528934Y-102805554D01*
X124513388Y-102786612D01*
X124494446Y-102771066D01*
X124472835Y-102759515D01*
X124449386Y-102752402D01*
X124425000Y-102750000D01*
X123925000Y-102750000D01*
X123900614Y-102752402D01*
X123877165Y-102759515D01*
X123855554Y-102771066D01*
X123836612Y-102786612D01*
X123821066Y-102805554D01*
X123809515Y-102827165D01*
X123802402Y-102850614D01*
X123800000Y-102875000D01*
X122000000Y-102875000D01*
X122000000Y-102400000D01*
X122775000Y-102400000D01*
X122799386Y-102397598D01*
X122822835Y-102390485D01*
X122844446Y-102378934D01*
X122863388Y-102363388D01*
X122878934Y-102344446D01*
X122890485Y-102322835D01*
X122897598Y-102299386D01*
X122900000Y-102275000D01*
X122900000Y-101850000D01*
X132600000Y-101850000D01*
X132600000Y-102750000D01*
X132600000Y-102750000D01*
G37*
G36*
X98668622Y-108767517D02*
X98716585Y-108782066D01*
X98760775Y-108805686D01*
X98799518Y-108837482D01*
X98831314Y-108876225D01*
X98854934Y-108920415D01*
X98869483Y-108968378D01*
X98875000Y-109024391D01*
X98875000Y-109774609D01*
X98869483Y-109830622D01*
X98854934Y-109878585D01*
X98831314Y-109922775D01*
X98799518Y-109961518D01*
X98760775Y-109993314D01*
X98716585Y-110016934D01*
X98668622Y-110031483D01*
X98612609Y-110037000D01*
X97787391Y-110037000D01*
X97731378Y-110031483D01*
X97683415Y-110016934D01*
X97639225Y-109993314D01*
X97600482Y-109961518D01*
X97568686Y-109922775D01*
X97545066Y-109878585D01*
X97530517Y-109830622D01*
X97525000Y-109774609D01*
X97525000Y-109024391D01*
X97530517Y-108968378D01*
X97545066Y-108920415D01*
X97568686Y-108876225D01*
X97600482Y-108837482D01*
X97639225Y-108805686D01*
X97683415Y-108782066D01*
X97731378Y-108767517D01*
X97787391Y-108762000D01*
X98612609Y-108762000D01*
X98668622Y-108767517D01*
X98668622Y-108767517D01*
G37*
G36*
X101468622Y-108767517D02*
X101516585Y-108782066D01*
X101560775Y-108805686D01*
X101599518Y-108837482D01*
X101631314Y-108876225D01*
X101654934Y-108920415D01*
X101669483Y-108968378D01*
X101675000Y-109024391D01*
X101675000Y-109774609D01*
X101669483Y-109830622D01*
X101654934Y-109878585D01*
X101631314Y-109922775D01*
X101599518Y-109961518D01*
X101560775Y-109993314D01*
X101516585Y-110016934D01*
X101468622Y-110031483D01*
X101412609Y-110037000D01*
X100587391Y-110037000D01*
X100531378Y-110031483D01*
X100483415Y-110016934D01*
X100439225Y-109993314D01*
X100400482Y-109961518D01*
X100368686Y-109922775D01*
X100345066Y-109878585D01*
X100330517Y-109830622D01*
X100325000Y-109774609D01*
X100325000Y-109024391D01*
X100330517Y-108968378D01*
X100345066Y-108920415D01*
X100368686Y-108876225D01*
X100400482Y-108837482D01*
X100439225Y-108805686D01*
X100483415Y-108782066D01*
X100531378Y-108767517D01*
X100587391Y-108762000D01*
X101412609Y-108762000D01*
X101468622Y-108767517D01*
X101468622Y-108767517D01*
G37*
G36*
X107268622Y-108767517D02*
X107316585Y-108782066D01*
X107360775Y-108805686D01*
X107399518Y-108837482D01*
X107431314Y-108876225D01*
X107454934Y-108920415D01*
X107469483Y-108968378D01*
X107475000Y-109024391D01*
X107475000Y-109774609D01*
X107469483Y-109830622D01*
X107454934Y-109878585D01*
X107431314Y-109922775D01*
X107399518Y-109961518D01*
X107360775Y-109993314D01*
X107316585Y-110016934D01*
X107268622Y-110031483D01*
X107212609Y-110037000D01*
X106387391Y-110037000D01*
X106331378Y-110031483D01*
X106283415Y-110016934D01*
X106239225Y-109993314D01*
X106200482Y-109961518D01*
X106168686Y-109922775D01*
X106145066Y-109878585D01*
X106130517Y-109830622D01*
X106125000Y-109774609D01*
X106125000Y-109024391D01*
X106130517Y-108968378D01*
X106145066Y-108920415D01*
X106168686Y-108876225D01*
X106200482Y-108837482D01*
X106239225Y-108805686D01*
X106283415Y-108782066D01*
X106331378Y-108767517D01*
X106387391Y-108762000D01*
X107212609Y-108762000D01*
X107268622Y-108767517D01*
X107268622Y-108767517D01*
G37*
G36*
X104268622Y-108755517D02*
X104316585Y-108770066D01*
X104360775Y-108793686D01*
X104399518Y-108825482D01*
X104431314Y-108864225D01*
X104454934Y-108908415D01*
X104469483Y-108956378D01*
X104475000Y-109012391D01*
X104475000Y-109762609D01*
X104469483Y-109818622D01*
X104454934Y-109866585D01*
X104431314Y-109910775D01*
X104399518Y-109949518D01*
X104360775Y-109981314D01*
X104316585Y-110004934D01*
X104268622Y-110019483D01*
X104212609Y-110025000D01*
X103387391Y-110025000D01*
X103331378Y-110019483D01*
X103283415Y-110004934D01*
X103239225Y-109981314D01*
X103200482Y-109949518D01*
X103168686Y-109910775D01*
X103145066Y-109866585D01*
X103130517Y-109818622D01*
X103125000Y-109762609D01*
X103125000Y-109012391D01*
X103130517Y-108956378D01*
X103145066Y-108908415D01*
X103168686Y-108864225D01*
X103200482Y-108825482D01*
X103239225Y-108793686D01*
X103283415Y-108770066D01*
X103331378Y-108755517D01*
X103387391Y-108750000D01*
X104212609Y-108750000D01*
X104268622Y-108755517D01*
X104268622Y-108755517D01*
G37*
G36*
X132600000Y-108800000D02*
X131674376Y-108800000D01*
X131678934Y-108794446D01*
X131690485Y-108772835D01*
X131697598Y-108749386D01*
X131700000Y-108725000D01*
X131700000Y-107900000D01*
X132600000Y-107900000D01*
X132600000Y-108800000D01*
X132600000Y-108800000D01*
G37*
G36*
X101468622Y-107192517D02*
X101516585Y-107207066D01*
X101560775Y-107230686D01*
X101599518Y-107262482D01*
X101631314Y-107301225D01*
X101654934Y-107345415D01*
X101669483Y-107393378D01*
X101675000Y-107449391D01*
X101675000Y-108199609D01*
X101669483Y-108255622D01*
X101654934Y-108303585D01*
X101631314Y-108347775D01*
X101599518Y-108386518D01*
X101560775Y-108418314D01*
X101516585Y-108441934D01*
X101468622Y-108456483D01*
X101412609Y-108462000D01*
X100587391Y-108462000D01*
X100531378Y-108456483D01*
X100483415Y-108441934D01*
X100439225Y-108418314D01*
X100400482Y-108386518D01*
X100368686Y-108347775D01*
X100345066Y-108303585D01*
X100330517Y-108255622D01*
X100325000Y-108199609D01*
X100325000Y-107449391D01*
X100330517Y-107393378D01*
X100345066Y-107345415D01*
X100368686Y-107301225D01*
X100400482Y-107262482D01*
X100439225Y-107230686D01*
X100483415Y-107207066D01*
X100531378Y-107192517D01*
X100587391Y-107187000D01*
X101412609Y-107187000D01*
X101468622Y-107192517D01*
X101468622Y-107192517D01*
G37*
G36*
X107268622Y-107192517D02*
X107316585Y-107207066D01*
X107360775Y-107230686D01*
X107399518Y-107262482D01*
X107431314Y-107301225D01*
X107454934Y-107345415D01*
X107469483Y-107393378D01*
X107475000Y-107449391D01*
X107475000Y-108199609D01*
X107469483Y-108255622D01*
X107454934Y-108303585D01*
X107431314Y-108347775D01*
X107399518Y-108386518D01*
X107360775Y-108418314D01*
X107316585Y-108441934D01*
X107268622Y-108456483D01*
X107212609Y-108462000D01*
X106387391Y-108462000D01*
X106331378Y-108456483D01*
X106283415Y-108441934D01*
X106239225Y-108418314D01*
X106200482Y-108386518D01*
X106168686Y-108347775D01*
X106145066Y-108303585D01*
X106130517Y-108255622D01*
X106125000Y-108199609D01*
X106125000Y-107449391D01*
X106130517Y-107393378D01*
X106145066Y-107345415D01*
X106168686Y-107301225D01*
X106200482Y-107262482D01*
X106239225Y-107230686D01*
X106283415Y-107207066D01*
X106331378Y-107192517D01*
X106387391Y-107187000D01*
X107212609Y-107187000D01*
X107268622Y-107192517D01*
X107268622Y-107192517D01*
G37*
G36*
X98668622Y-107192517D02*
X98716585Y-107207066D01*
X98760775Y-107230686D01*
X98799518Y-107262482D01*
X98831314Y-107301225D01*
X98854934Y-107345415D01*
X98869483Y-107393378D01*
X98875000Y-107449391D01*
X98875000Y-108199609D01*
X98869483Y-108255622D01*
X98854934Y-108303585D01*
X98831314Y-108347775D01*
X98799518Y-108386518D01*
X98760775Y-108418314D01*
X98716585Y-108441934D01*
X98668622Y-108456483D01*
X98612609Y-108462000D01*
X97787391Y-108462000D01*
X97731378Y-108456483D01*
X97683415Y-108441934D01*
X97639225Y-108418314D01*
X97600482Y-108386518D01*
X97568686Y-108347775D01*
X97545066Y-108303585D01*
X97530517Y-108255622D01*
X97525000Y-108199609D01*
X97525000Y-107449391D01*
X97530517Y-107393378D01*
X97545066Y-107345415D01*
X97568686Y-107301225D01*
X97600482Y-107262482D01*
X97639225Y-107230686D01*
X97683415Y-107207066D01*
X97731378Y-107192517D01*
X97787391Y-107187000D01*
X98612609Y-107187000D01*
X98668622Y-107192517D01*
X98668622Y-107192517D01*
G37*
G36*
X104268622Y-107180517D02*
X104316585Y-107195066D01*
X104360775Y-107218686D01*
X104399518Y-107250482D01*
X104431314Y-107289225D01*
X104454934Y-107333415D01*
X104469483Y-107381378D01*
X104475000Y-107437391D01*
X104475000Y-108187609D01*
X104469483Y-108243622D01*
X104454934Y-108291585D01*
X104431314Y-108335775D01*
X104399518Y-108374518D01*
X104360775Y-108406314D01*
X104316585Y-108429934D01*
X104268622Y-108444483D01*
X104212609Y-108450000D01*
X103387391Y-108450000D01*
X103331378Y-108444483D01*
X103283415Y-108429934D01*
X103239225Y-108406314D01*
X103200482Y-108374518D01*
X103168686Y-108335775D01*
X103145066Y-108291585D01*
X103130517Y-108243622D01*
X103125000Y-108187609D01*
X103125000Y-107437391D01*
X103130517Y-107381378D01*
X103145066Y-107333415D01*
X103168686Y-107289225D01*
X103200482Y-107250482D01*
X103239225Y-107218686D01*
X103283415Y-107195066D01*
X103331378Y-107180517D01*
X103387391Y-107175000D01*
X104212609Y-107175000D01*
X104268622Y-107180517D01*
X104268622Y-107180517D01*
G37*
G36*
X80900000Y-105860000D02*
X78100000Y-105860000D01*
X78100000Y-99640000D01*
X80900000Y-99640000D01*
X80900000Y-105860000D01*
X80900000Y-105860000D01*
G37*
G36*
X84800000Y-105860000D02*
X82000000Y-105860000D01*
X82000000Y-99640000D01*
X84800000Y-99640000D01*
X84800000Y-105860000D01*
X84800000Y-105860000D01*
G37*
G36*
X132600000Y-105500000D02*
X131700000Y-105500000D01*
X131700000Y-104675000D01*
X131697598Y-104650614D01*
X131690485Y-104627165D01*
X131678934Y-104605554D01*
X131674376Y-104600000D01*
X132600000Y-104600000D01*
X132600000Y-105500000D01*
X132600000Y-105500000D01*
G37*
G36*
X100937749Y-99351860D02*
X100962251Y-99351860D01*
X100981138Y-99350000D01*
X101418862Y-99350000D01*
X101437749Y-99351860D01*
X101462251Y-99351860D01*
X101481138Y-99350000D01*
X101918862Y-99350000D01*
X101937749Y-99351860D01*
X101962251Y-99351860D01*
X101981138Y-99350000D01*
X102418862Y-99350000D01*
X102437749Y-99351860D01*
X102462251Y-99351860D01*
X102481138Y-99350000D01*
X102918862Y-99350000D01*
X102937749Y-99351860D01*
X102962251Y-99351860D01*
X102981138Y-99350000D01*
X103418862Y-99350000D01*
X103437749Y-99351860D01*
X103462251Y-99351860D01*
X103481138Y-99350000D01*
X103918862Y-99350000D01*
X103944387Y-99352514D01*
X103963039Y-99358172D01*
X103980222Y-99367356D01*
X103995283Y-99379717D01*
X104007644Y-99394778D01*
X104016828Y-99411961D01*
X104022486Y-99430613D01*
X104025000Y-99456138D01*
X104025000Y-100450000D01*
X104027402Y-100474386D01*
X104034515Y-100497835D01*
X104046066Y-100519446D01*
X104061612Y-100538388D01*
X104080554Y-100553934D01*
X104102165Y-100565485D01*
X104125614Y-100572598D01*
X104150000Y-100575000D01*
X105143862Y-100575000D01*
X105169387Y-100577514D01*
X105188039Y-100583172D01*
X105205222Y-100592356D01*
X105220283Y-100604717D01*
X105232644Y-100619778D01*
X105241828Y-100636961D01*
X105247486Y-100655613D01*
X105250000Y-100681138D01*
X105250000Y-101118862D01*
X105248140Y-101137749D01*
X105248140Y-101162251D01*
X105250000Y-101181138D01*
X105250000Y-101618862D01*
X105248140Y-101637749D01*
X105248140Y-101662251D01*
X105250000Y-101681138D01*
X105250000Y-102118862D01*
X105248140Y-102137749D01*
X105248140Y-102162251D01*
X105250000Y-102181138D01*
X105250000Y-102618862D01*
X105248140Y-102637749D01*
X105248140Y-102662251D01*
X105250000Y-102681138D01*
X105250000Y-103118862D01*
X105248140Y-103137749D01*
X105248140Y-103162251D01*
X105250000Y-103181138D01*
X105250000Y-103618862D01*
X105248140Y-103637749D01*
X105248140Y-103662251D01*
X105250000Y-103681138D01*
X105250000Y-104118862D01*
X105247486Y-104144387D01*
X105241828Y-104163039D01*
X105232644Y-104180222D01*
X105220283Y-104195283D01*
X105205222Y-104207644D01*
X105188039Y-104216828D01*
X105169387Y-104222486D01*
X105143862Y-104225000D01*
X104150000Y-104225000D01*
X104125614Y-104227402D01*
X104102165Y-104234515D01*
X104080554Y-104246066D01*
X104061612Y-104261612D01*
X104046066Y-104280554D01*
X104034515Y-104302165D01*
X104027402Y-104325614D01*
X104025000Y-104350000D01*
X104025000Y-105343862D01*
X104022486Y-105369387D01*
X104016828Y-105388039D01*
X104007644Y-105405222D01*
X103995283Y-105420283D01*
X103980222Y-105432644D01*
X103963039Y-105441828D01*
X103944387Y-105447486D01*
X103918862Y-105450000D01*
X103481138Y-105450000D01*
X103462251Y-105448140D01*
X103437749Y-105448140D01*
X103418862Y-105450000D01*
X102981138Y-105450000D01*
X102962251Y-105448140D01*
X102937749Y-105448140D01*
X102918862Y-105450000D01*
X102481138Y-105450000D01*
X102462251Y-105448140D01*
X102437749Y-105448140D01*
X102418862Y-105450000D01*
X101981138Y-105450000D01*
X101962251Y-105448140D01*
X101937749Y-105448140D01*
X101918862Y-105450000D01*
X101481138Y-105450000D01*
X101462251Y-105448140D01*
X101437749Y-105448140D01*
X101418862Y-105450000D01*
X100981138Y-105450000D01*
X100962251Y-105448140D01*
X100937749Y-105448140D01*
X100918862Y-105450000D01*
X100481138Y-105450000D01*
X100455613Y-105447486D01*
X100436961Y-105441828D01*
X100419778Y-105432644D01*
X100404717Y-105420283D01*
X100392356Y-105405222D01*
X100383172Y-105388039D01*
X100377514Y-105369387D01*
X100375000Y-105343862D01*
X100375000Y-104350000D01*
X100372598Y-104325614D01*
X100365485Y-104302165D01*
X100353934Y-104280554D01*
X100338388Y-104261612D01*
X100319446Y-104246066D01*
X100297835Y-104234515D01*
X100274386Y-104227402D01*
X100250000Y-104225000D01*
X99256138Y-104225000D01*
X99230613Y-104222486D01*
X99211961Y-104216828D01*
X99194778Y-104207644D01*
X99179717Y-104195283D01*
X99167356Y-104180222D01*
X99158172Y-104163039D01*
X99152514Y-104144387D01*
X99150000Y-104118862D01*
X99150000Y-103681138D01*
X99151860Y-103662251D01*
X99151860Y-103637749D01*
X99150000Y-103618862D01*
X99150000Y-103181138D01*
X99151860Y-103162251D01*
X99151860Y-103137749D01*
X99150000Y-103118862D01*
X99150000Y-102681138D01*
X99151860Y-102662251D01*
X99151860Y-102637749D01*
X99150000Y-102618862D01*
X99150000Y-102181138D01*
X99151860Y-102162251D01*
X99151860Y-102137749D01*
X99150000Y-102118862D01*
X99150000Y-101681138D01*
X99151860Y-101662251D01*
X99151860Y-101637749D01*
X99150000Y-101618862D01*
X99150000Y-101181138D01*
X99151860Y-101162251D01*
X99151860Y-101137749D01*
X99150000Y-101118862D01*
X99150000Y-100681138D01*
X99152514Y-100655613D01*
X99158172Y-100636961D01*
X99167356Y-100619778D01*
X99179717Y-100604717D01*
X99194778Y-100592356D01*
X99211961Y-100583172D01*
X99230613Y-100577514D01*
X99256138Y-100575000D01*
X100250000Y-100575000D01*
X100274386Y-100572598D01*
X100297835Y-100565485D01*
X100319446Y-100553934D01*
X100338388Y-100538388D01*
X100353934Y-100519446D01*
X100365485Y-100497835D01*
X100372598Y-100474386D01*
X100375000Y-100450000D01*
X100375000Y-99456138D01*
X100377514Y-99430613D01*
X100383172Y-99411961D01*
X100392356Y-99394778D01*
X100404717Y-99379717D01*
X100419778Y-99367356D01*
X100436961Y-99358172D01*
X100455613Y-99352514D01*
X100481138Y-99350000D01*
X100918862Y-99350000D01*
X100937749Y-99351860D01*
X100937749Y-99351860D01*
G37*
G36*
X114873497Y-100055997D02*
X114926153Y-100071970D01*
X114974665Y-100097900D01*
X115017196Y-100132804D01*
X115052100Y-100175335D01*
X115078030Y-100223847D01*
X115094003Y-100276503D01*
X115100000Y-100337390D01*
X115100000Y-101137610D01*
X115094003Y-101198497D01*
X115078030Y-101251153D01*
X115052100Y-101299665D01*
X115017196Y-101342196D01*
X114974665Y-101377100D01*
X114926153Y-101403030D01*
X114873497Y-101419003D01*
X114812610Y-101425000D01*
X113587390Y-101425000D01*
X113526503Y-101419003D01*
X113473847Y-101403030D01*
X113425335Y-101377100D01*
X113382804Y-101342196D01*
X113347900Y-101299665D01*
X113321970Y-101251153D01*
X113305997Y-101198497D01*
X113300000Y-101137610D01*
X113300000Y-100337390D01*
X113305997Y-100276503D01*
X113321970Y-100223847D01*
X113347900Y-100175335D01*
X113382804Y-100132804D01*
X113425335Y-100097900D01*
X113473847Y-100071970D01*
X113526503Y-100055997D01*
X113587390Y-100050000D01*
X114812610Y-100050000D01*
X114873497Y-100055997D01*
X114873497Y-100055997D01*
G37*
G36*
X119060497Y-98505997D02*
X119113153Y-98521970D01*
X119161665Y-98547900D01*
X119204196Y-98582804D01*
X119239100Y-98625335D01*
X119265030Y-98673847D01*
X119281003Y-98726503D01*
X119287000Y-98787390D01*
X119287000Y-100012610D01*
X119281003Y-100073497D01*
X119265030Y-100126153D01*
X119239100Y-100174665D01*
X119204196Y-100217196D01*
X119161665Y-100252100D01*
X119113153Y-100278030D01*
X119060497Y-100294003D01*
X118999610Y-100300000D01*
X118199390Y-100300000D01*
X118138503Y-100294003D01*
X118085847Y-100278030D01*
X118037335Y-100252100D01*
X117994804Y-100217196D01*
X117959900Y-100174665D01*
X117933970Y-100126153D01*
X117917997Y-100073497D01*
X117912000Y-100012610D01*
X117912000Y-98787390D01*
X117917997Y-98726503D01*
X117933970Y-98673847D01*
X117959900Y-98625335D01*
X117994804Y-98582804D01*
X118037335Y-98547900D01*
X118085847Y-98521970D01*
X118138503Y-98505997D01*
X118199390Y-98500000D01*
X118999610Y-98500000D01*
X119060497Y-98505997D01*
X119060497Y-98505997D01*
G37*
G36*
X117185497Y-98505997D02*
X117238153Y-98521970D01*
X117286665Y-98547900D01*
X117329196Y-98582804D01*
X117364100Y-98625335D01*
X117390030Y-98673847D01*
X117406003Y-98726503D01*
X117412000Y-98787390D01*
X117412000Y-100012610D01*
X117406003Y-100073497D01*
X117390030Y-100126153D01*
X117364100Y-100174665D01*
X117329196Y-100217196D01*
X117286665Y-100252100D01*
X117238153Y-100278030D01*
X117185497Y-100294003D01*
X117124610Y-100300000D01*
X116324390Y-100300000D01*
X116263503Y-100294003D01*
X116210847Y-100278030D01*
X116162335Y-100252100D01*
X116119804Y-100217196D01*
X116084900Y-100174665D01*
X116058970Y-100126153D01*
X116042997Y-100073497D01*
X116037000Y-100012610D01*
X116037000Y-98787390D01*
X116042997Y-98726503D01*
X116058970Y-98673847D01*
X116084900Y-98625335D01*
X116119804Y-98582804D01*
X116162335Y-98547900D01*
X116210847Y-98521970D01*
X116263503Y-98505997D01*
X116324390Y-98500000D01*
X117124610Y-98500000D01*
X117185497Y-98505997D01*
X117185497Y-98505997D01*
G37*
G36*
X114873497Y-98180997D02*
X114926153Y-98196970D01*
X114974665Y-98222900D01*
X115017196Y-98257804D01*
X115052100Y-98300335D01*
X115078030Y-98348847D01*
X115094003Y-98401503D01*
X115100000Y-98462390D01*
X115100000Y-99262610D01*
X115094003Y-99323497D01*
X115078030Y-99376153D01*
X115052100Y-99424665D01*
X115017196Y-99467196D01*
X114974665Y-99502100D01*
X114926153Y-99528030D01*
X114873497Y-99544003D01*
X114812610Y-99550000D01*
X113587390Y-99550000D01*
X113526503Y-99544003D01*
X113473847Y-99528030D01*
X113425335Y-99502100D01*
X113382804Y-99467196D01*
X113347900Y-99424665D01*
X113321970Y-99376153D01*
X113305997Y-99323497D01*
X113300000Y-99262610D01*
X113300000Y-98462390D01*
X113305997Y-98401503D01*
X113321970Y-98348847D01*
X113347900Y-98300335D01*
X113382804Y-98257804D01*
X113425335Y-98222900D01*
X113473847Y-98196970D01*
X113526503Y-98180997D01*
X113587390Y-98175000D01*
X114812610Y-98175000D01*
X114873497Y-98180997D01*
X114873497Y-98180997D01*
G37*
G36*
X105419628Y-96330493D02*
X105467354Y-96344970D01*
X105511336Y-96368479D01*
X105549885Y-96400115D01*
X105581521Y-96438664D01*
X105605030Y-96482646D01*
X105619507Y-96530372D01*
X105625000Y-96586141D01*
X105625000Y-98213859D01*
X105619507Y-98269628D01*
X105605030Y-98317354D01*
X105581521Y-98361336D01*
X105549885Y-98399885D01*
X105511336Y-98431521D01*
X105467354Y-98455030D01*
X105419628Y-98469507D01*
X105363859Y-98475000D01*
X104236141Y-98475000D01*
X104180372Y-98469507D01*
X104132646Y-98455030D01*
X104088664Y-98431521D01*
X104050115Y-98399885D01*
X104018479Y-98361336D01*
X103994970Y-98317354D01*
X103980493Y-98269628D01*
X103975000Y-98213859D01*
X103975000Y-96586141D01*
X103980493Y-96530372D01*
X103994970Y-96482646D01*
X104018479Y-96438664D01*
X104050115Y-96400115D01*
X104088664Y-96368479D01*
X104132646Y-96344970D01*
X104180372Y-96330493D01*
X104236141Y-96325000D01*
X105363859Y-96325000D01*
X105419628Y-96330493D01*
X105419628Y-96330493D01*
G37*
G36*
X108219628Y-96330493D02*
X108267354Y-96344970D01*
X108311336Y-96368479D01*
X108349885Y-96400115D01*
X108381521Y-96438664D01*
X108405030Y-96482646D01*
X108419507Y-96530372D01*
X108425000Y-96586141D01*
X108425000Y-98213859D01*
X108419507Y-98269628D01*
X108405030Y-98317354D01*
X108381521Y-98361336D01*
X108349885Y-98399885D01*
X108311336Y-98431521D01*
X108267354Y-98455030D01*
X108219628Y-98469507D01*
X108163859Y-98475000D01*
X107036141Y-98475000D01*
X106980372Y-98469507D01*
X106932646Y-98455030D01*
X106888664Y-98431521D01*
X106850115Y-98399885D01*
X106818479Y-98361336D01*
X106794970Y-98317354D01*
X106780493Y-98269628D01*
X106775000Y-98213859D01*
X106775000Y-96586141D01*
X106780493Y-96530372D01*
X106794970Y-96482646D01*
X106818479Y-96438664D01*
X106850115Y-96400115D01*
X106888664Y-96368479D01*
X106932646Y-96344970D01*
X106980372Y-96330493D01*
X107036141Y-96325000D01*
X108163859Y-96325000D01*
X108219628Y-96330493D01*
X108219628Y-96330493D01*
G37*
G36*
X101255622Y-96730517D02*
X101303585Y-96745066D01*
X101347775Y-96768686D01*
X101386518Y-96800482D01*
X101418314Y-96839225D01*
X101441934Y-96883415D01*
X101456483Y-96931378D01*
X101462000Y-96987391D01*
X101462000Y-97812609D01*
X101456483Y-97868622D01*
X101441934Y-97916585D01*
X101418314Y-97960775D01*
X101386518Y-97999518D01*
X101347775Y-98031314D01*
X101303585Y-98054934D01*
X101255622Y-98069483D01*
X101199609Y-98075000D01*
X100449391Y-98075000D01*
X100393378Y-98069483D01*
X100345415Y-98054934D01*
X100301225Y-98031314D01*
X100262482Y-97999518D01*
X100230686Y-97960775D01*
X100207066Y-97916585D01*
X100192517Y-97868622D01*
X100187000Y-97812609D01*
X100187000Y-96987391D01*
X100192517Y-96931378D01*
X100207066Y-96883415D01*
X100230686Y-96839225D01*
X100262482Y-96800482D01*
X100301225Y-96768686D01*
X100345415Y-96745066D01*
X100393378Y-96730517D01*
X100449391Y-96725000D01*
X101199609Y-96725000D01*
X101255622Y-96730517D01*
X101255622Y-96730517D01*
G37*
G36*
X99218622Y-96730517D02*
X99266585Y-96745066D01*
X99310775Y-96768686D01*
X99349518Y-96800482D01*
X99381314Y-96839225D01*
X99404934Y-96883415D01*
X99419483Y-96931378D01*
X99425000Y-96987391D01*
X99425000Y-97812609D01*
X99419483Y-97868622D01*
X99404934Y-97916585D01*
X99381314Y-97960775D01*
X99349518Y-97999518D01*
X99310775Y-98031314D01*
X99266585Y-98054934D01*
X99218622Y-98069483D01*
X99162609Y-98075000D01*
X98412391Y-98075000D01*
X98356378Y-98069483D01*
X98308415Y-98054934D01*
X98264225Y-98031314D01*
X98225482Y-97999518D01*
X98193686Y-97960775D01*
X98170066Y-97916585D01*
X98155517Y-97868622D01*
X98150000Y-97812609D01*
X98150000Y-96987391D01*
X98155517Y-96931378D01*
X98170066Y-96883415D01*
X98193686Y-96839225D01*
X98225482Y-96800482D01*
X98264225Y-96768686D01*
X98308415Y-96745066D01*
X98356378Y-96730517D01*
X98412391Y-96725000D01*
X99162609Y-96725000D01*
X99218622Y-96730517D01*
X99218622Y-96730517D01*
G37*
G36*
X97643622Y-96730517D02*
X97691585Y-96745066D01*
X97735775Y-96768686D01*
X97774518Y-96800482D01*
X97806314Y-96839225D01*
X97829934Y-96883415D01*
X97844483Y-96931378D01*
X97850000Y-96987391D01*
X97850000Y-97812609D01*
X97844483Y-97868622D01*
X97829934Y-97916585D01*
X97806314Y-97960775D01*
X97774518Y-97999518D01*
X97735775Y-98031314D01*
X97691585Y-98054934D01*
X97643622Y-98069483D01*
X97587609Y-98075000D01*
X96837391Y-98075000D01*
X96781378Y-98069483D01*
X96733415Y-98054934D01*
X96689225Y-98031314D01*
X96650482Y-97999518D01*
X96618686Y-97960775D01*
X96595066Y-97916585D01*
X96580517Y-97868622D01*
X96575000Y-97812609D01*
X96575000Y-96987391D01*
X96580517Y-96931378D01*
X96595066Y-96883415D01*
X96618686Y-96839225D01*
X96650482Y-96800482D01*
X96689225Y-96768686D01*
X96733415Y-96745066D01*
X96781378Y-96730517D01*
X96837391Y-96725000D01*
X97587609Y-96725000D01*
X97643622Y-96730517D01*
X97643622Y-96730517D01*
G37*
G36*
X102830622Y-96730517D02*
X102878585Y-96745066D01*
X102922775Y-96768686D01*
X102961518Y-96800482D01*
X102993314Y-96839225D01*
X103016934Y-96883415D01*
X103031483Y-96931378D01*
X103037000Y-96987391D01*
X103037000Y-97812609D01*
X103031483Y-97868622D01*
X103016934Y-97916585D01*
X102993314Y-97960775D01*
X102961518Y-97999518D01*
X102922775Y-98031314D01*
X102878585Y-98054934D01*
X102830622Y-98069483D01*
X102774609Y-98075000D01*
X102024391Y-98075000D01*
X101968378Y-98069483D01*
X101920415Y-98054934D01*
X101876225Y-98031314D01*
X101837482Y-97999518D01*
X101805686Y-97960775D01*
X101782066Y-97916585D01*
X101767517Y-97868622D01*
X101762000Y-97812609D01*
X101762000Y-96987391D01*
X101767517Y-96931378D01*
X101782066Y-96883415D01*
X101805686Y-96839225D01*
X101837482Y-96800482D01*
X101876225Y-96768686D01*
X101920415Y-96745066D01*
X101968378Y-96730517D01*
X102024391Y-96725000D01*
X102774609Y-96725000D01*
X102830622Y-96730517D01*
X102830622Y-96730517D01*
G37*
G36*
X115750000Y-97500000D02*
X114350000Y-97500000D01*
X114350000Y-95300000D01*
X115750000Y-95300000D01*
X115750000Y-97500000D01*
X115750000Y-97500000D01*
G37*
G36*
X118250000Y-97500000D02*
X116850000Y-97500000D01*
X116850000Y-95300000D01*
X118250000Y-95300000D01*
X118250000Y-97500000D01*
X118250000Y-97500000D01*
G37*
G36*
X85406122Y-94530517D02*
X85454085Y-94545066D01*
X85498275Y-94568686D01*
X85537018Y-94600482D01*
X85568814Y-94639225D01*
X85592434Y-94683415D01*
X85606983Y-94731378D01*
X85612500Y-94787391D01*
X85612500Y-95612609D01*
X85606983Y-95668622D01*
X85592434Y-95716585D01*
X85568814Y-95760775D01*
X85537018Y-95799518D01*
X85498275Y-95831314D01*
X85454085Y-95854934D01*
X85406122Y-95869483D01*
X85350109Y-95875000D01*
X84599891Y-95875000D01*
X84543878Y-95869483D01*
X84495915Y-95854934D01*
X84451725Y-95831314D01*
X84412982Y-95799518D01*
X84381186Y-95760775D01*
X84357566Y-95716585D01*
X84343017Y-95668622D01*
X84337500Y-95612609D01*
X84337500Y-94787391D01*
X84343017Y-94731378D01*
X84357566Y-94683415D01*
X84381186Y-94639225D01*
X84412982Y-94600482D01*
X84451725Y-94568686D01*
X84495915Y-94545066D01*
X84543878Y-94530517D01*
X84599891Y-94525000D01*
X85350109Y-94525000D01*
X85406122Y-94530517D01*
X85406122Y-94530517D01*
G37*
G36*
X83831122Y-94530517D02*
X83879085Y-94545066D01*
X83923275Y-94568686D01*
X83962018Y-94600482D01*
X83993814Y-94639225D01*
X84017434Y-94683415D01*
X84031983Y-94731378D01*
X84037500Y-94787391D01*
X84037500Y-95612609D01*
X84031983Y-95668622D01*
X84017434Y-95716585D01*
X83993814Y-95760775D01*
X83962018Y-95799518D01*
X83923275Y-95831314D01*
X83879085Y-95854934D01*
X83831122Y-95869483D01*
X83775109Y-95875000D01*
X83024891Y-95875000D01*
X82968878Y-95869483D01*
X82920915Y-95854934D01*
X82876725Y-95831314D01*
X82837982Y-95799518D01*
X82806186Y-95760775D01*
X82782566Y-95716585D01*
X82768017Y-95668622D01*
X82762500Y-95612609D01*
X82762500Y-94787391D01*
X82768017Y-94731378D01*
X82782566Y-94683415D01*
X82806186Y-94639225D01*
X82837982Y-94600482D01*
X82876725Y-94568686D01*
X82920915Y-94545066D01*
X82968878Y-94530517D01*
X83024891Y-94525000D01*
X83775109Y-94525000D01*
X83831122Y-94530517D01*
X83831122Y-94530517D01*
G37*
G36*
X89031122Y-94530517D02*
X89079085Y-94545066D01*
X89123275Y-94568686D01*
X89162018Y-94600482D01*
X89193814Y-94639225D01*
X89217434Y-94683415D01*
X89231983Y-94731378D01*
X89237500Y-94787391D01*
X89237500Y-95612609D01*
X89231983Y-95668622D01*
X89217434Y-95716585D01*
X89193814Y-95760775D01*
X89162018Y-95799518D01*
X89123275Y-95831314D01*
X89079085Y-95854934D01*
X89031122Y-95869483D01*
X88975109Y-95875000D01*
X88224891Y-95875000D01*
X88168878Y-95869483D01*
X88120915Y-95854934D01*
X88076725Y-95831314D01*
X88037982Y-95799518D01*
X88006186Y-95760775D01*
X87982566Y-95716585D01*
X87968017Y-95668622D01*
X87962500Y-95612609D01*
X87962500Y-94787391D01*
X87968017Y-94731378D01*
X87982566Y-94683415D01*
X88006186Y-94639225D01*
X88037982Y-94600482D01*
X88076725Y-94568686D01*
X88120915Y-94545066D01*
X88168878Y-94530517D01*
X88224891Y-94525000D01*
X88975109Y-94525000D01*
X89031122Y-94530517D01*
X89031122Y-94530517D01*
G37*
G36*
X87456122Y-94530517D02*
X87504085Y-94545066D01*
X87548275Y-94568686D01*
X87587018Y-94600482D01*
X87618814Y-94639225D01*
X87642434Y-94683415D01*
X87656983Y-94731378D01*
X87662500Y-94787391D01*
X87662500Y-95612609D01*
X87656983Y-95668622D01*
X87642434Y-95716585D01*
X87618814Y-95760775D01*
X87587018Y-95799518D01*
X87548275Y-95831314D01*
X87504085Y-95854934D01*
X87456122Y-95869483D01*
X87400109Y-95875000D01*
X86649891Y-95875000D01*
X86593878Y-95869483D01*
X86545915Y-95854934D01*
X86501725Y-95831314D01*
X86462982Y-95799518D01*
X86431186Y-95760775D01*
X86407566Y-95716585D01*
X86393017Y-95668622D01*
X86387500Y-95612609D01*
X86387500Y-94787391D01*
X86393017Y-94731378D01*
X86407566Y-94683415D01*
X86431186Y-94639225D01*
X86462982Y-94600482D01*
X86501725Y-94568686D01*
X86545915Y-94545066D01*
X86593878Y-94530517D01*
X86649891Y-94525000D01*
X87400109Y-94525000D01*
X87456122Y-94530517D01*
X87456122Y-94530517D01*
G37*
G36*
X82268622Y-94555517D02*
X82316585Y-94570066D01*
X82360775Y-94593686D01*
X82399518Y-94625482D01*
X82431314Y-94664225D01*
X82454934Y-94708415D01*
X82469483Y-94756378D01*
X82475000Y-94812391D01*
X82475000Y-95562609D01*
X82469483Y-95618622D01*
X82454934Y-95666585D01*
X82431314Y-95710775D01*
X82399518Y-95749518D01*
X82360775Y-95781314D01*
X82316585Y-95804934D01*
X82268622Y-95819483D01*
X82212609Y-95825000D01*
X81387391Y-95825000D01*
X81331378Y-95819483D01*
X81283415Y-95804934D01*
X81239225Y-95781314D01*
X81200482Y-95749518D01*
X81168686Y-95710775D01*
X81145066Y-95666585D01*
X81130517Y-95618622D01*
X81125000Y-95562609D01*
X81125000Y-94812391D01*
X81130517Y-94756378D01*
X81145066Y-94708415D01*
X81168686Y-94664225D01*
X81200482Y-94625482D01*
X81239225Y-94593686D01*
X81283415Y-94570066D01*
X81331378Y-94555517D01*
X81387391Y-94550000D01*
X82212609Y-94550000D01*
X82268622Y-94555517D01*
X82268622Y-94555517D01*
G37*
G36*
X82268622Y-92980517D02*
X82316585Y-92995066D01*
X82360775Y-93018686D01*
X82399518Y-93050482D01*
X82431314Y-93089225D01*
X82454934Y-93133415D01*
X82469483Y-93181378D01*
X82475000Y-93237391D01*
X82475000Y-93987609D01*
X82469483Y-94043622D01*
X82454934Y-94091585D01*
X82431314Y-94135775D01*
X82399518Y-94174518D01*
X82360775Y-94206314D01*
X82316585Y-94229934D01*
X82268622Y-94244483D01*
X82212609Y-94250000D01*
X81387391Y-94250000D01*
X81331378Y-94244483D01*
X81283415Y-94229934D01*
X81239225Y-94206314D01*
X81200482Y-94174518D01*
X81168686Y-94135775D01*
X81145066Y-94091585D01*
X81130517Y-94043622D01*
X81125000Y-93987609D01*
X81125000Y-93237391D01*
X81130517Y-93181378D01*
X81145066Y-93133415D01*
X81168686Y-93089225D01*
X81200482Y-93050482D01*
X81239225Y-93018686D01*
X81283415Y-92995066D01*
X81331378Y-92980517D01*
X81387391Y-92975000D01*
X82212609Y-92975000D01*
X82268622Y-92980517D01*
X82268622Y-92980517D01*
G37*
G36*
X92268622Y-89155517D02*
X92316585Y-89170066D01*
X92360775Y-89193686D01*
X92399518Y-89225482D01*
X92431314Y-89264225D01*
X92454934Y-89308415D01*
X92469483Y-89356378D01*
X92475000Y-89412391D01*
X92475000Y-90162609D01*
X92469483Y-90218622D01*
X92454934Y-90266585D01*
X92431314Y-90310775D01*
X92399518Y-90349518D01*
X92360775Y-90381314D01*
X92316585Y-90404934D01*
X92268622Y-90419483D01*
X92212609Y-90425000D01*
X91387391Y-90425000D01*
X91331378Y-90419483D01*
X91283415Y-90404934D01*
X91239225Y-90381314D01*
X91200482Y-90349518D01*
X91168686Y-90310775D01*
X91145066Y-90266585D01*
X91130517Y-90218622D01*
X91125000Y-90162609D01*
X91125000Y-89412391D01*
X91130517Y-89356378D01*
X91145066Y-89308415D01*
X91168686Y-89264225D01*
X91200482Y-89225482D01*
X91239225Y-89193686D01*
X91283415Y-89170066D01*
X91331378Y-89155517D01*
X91387391Y-89150000D01*
X92212609Y-89150000D01*
X92268622Y-89155517D01*
X92268622Y-89155517D01*
G37*
G36*
X92268622Y-87580517D02*
X92316585Y-87595066D01*
X92360775Y-87618686D01*
X92399518Y-87650482D01*
X92431314Y-87689225D01*
X92454934Y-87733415D01*
X92469483Y-87781378D01*
X92475000Y-87837391D01*
X92475000Y-88587609D01*
X92469483Y-88643622D01*
X92454934Y-88691585D01*
X92431314Y-88735775D01*
X92399518Y-88774518D01*
X92360775Y-88806314D01*
X92316585Y-88829934D01*
X92268622Y-88844483D01*
X92212609Y-88850000D01*
X91387391Y-88850000D01*
X91331378Y-88844483D01*
X91283415Y-88829934D01*
X91239225Y-88806314D01*
X91200482Y-88774518D01*
X91168686Y-88735775D01*
X91145066Y-88691585D01*
X91130517Y-88643622D01*
X91125000Y-88587609D01*
X91125000Y-87837391D01*
X91130517Y-87781378D01*
X91145066Y-87733415D01*
X91168686Y-87689225D01*
X91200482Y-87650482D01*
X91239225Y-87618686D01*
X91283415Y-87595066D01*
X91331378Y-87580517D01*
X91387391Y-87575000D01*
X92212609Y-87575000D01*
X92268622Y-87580517D01*
X92268622Y-87580517D01*
G37*
G36*
X92268622Y-85155517D02*
X92316585Y-85170066D01*
X92360775Y-85193686D01*
X92399518Y-85225482D01*
X92431314Y-85264225D01*
X92454934Y-85308415D01*
X92469483Y-85356378D01*
X92475000Y-85412391D01*
X92475000Y-86162609D01*
X92469483Y-86218622D01*
X92454934Y-86266585D01*
X92431314Y-86310775D01*
X92399518Y-86349518D01*
X92360775Y-86381314D01*
X92316585Y-86404934D01*
X92268622Y-86419483D01*
X92212609Y-86425000D01*
X91387391Y-86425000D01*
X91331378Y-86419483D01*
X91283415Y-86404934D01*
X91239225Y-86381314D01*
X91200482Y-86349518D01*
X91168686Y-86310775D01*
X91145066Y-86266585D01*
X91130517Y-86218622D01*
X91125000Y-86162609D01*
X91125000Y-85412391D01*
X91130517Y-85356378D01*
X91145066Y-85308415D01*
X91168686Y-85264225D01*
X91200482Y-85225482D01*
X91239225Y-85193686D01*
X91283415Y-85170066D01*
X91331378Y-85155517D01*
X91387391Y-85150000D01*
X92212609Y-85150000D01*
X92268622Y-85155517D01*
X92268622Y-85155517D01*
G37*
G36*
X92268622Y-83580517D02*
X92316585Y-83595066D01*
X92360775Y-83618686D01*
X92399518Y-83650482D01*
X92431314Y-83689225D01*
X92454934Y-83733415D01*
X92469483Y-83781378D01*
X92475000Y-83837391D01*
X92475000Y-84587609D01*
X92469483Y-84643622D01*
X92454934Y-84691585D01*
X92431314Y-84735775D01*
X92399518Y-84774518D01*
X92360775Y-84806314D01*
X92316585Y-84829934D01*
X92268622Y-84844483D01*
X92212609Y-84850000D01*
X91387391Y-84850000D01*
X91331378Y-84844483D01*
X91283415Y-84829934D01*
X91239225Y-84806314D01*
X91200482Y-84774518D01*
X91168686Y-84735775D01*
X91145066Y-84691585D01*
X91130517Y-84643622D01*
X91125000Y-84587609D01*
X91125000Y-83837391D01*
X91130517Y-83781378D01*
X91145066Y-83733415D01*
X91168686Y-83689225D01*
X91200482Y-83650482D01*
X91239225Y-83618686D01*
X91283415Y-83595066D01*
X91331378Y-83580517D01*
X91387391Y-83575000D01*
X92212609Y-83575000D01*
X92268622Y-83580517D01*
X92268622Y-83580517D01*
G37*
G36*
X93898622Y-79410517D02*
X93946585Y-79425066D01*
X93990775Y-79448686D01*
X94029518Y-79480482D01*
X94061314Y-79519225D01*
X94084934Y-79563415D01*
X94099483Y-79611378D01*
X94105000Y-79667391D01*
X94105000Y-80492609D01*
X94099483Y-80548622D01*
X94084934Y-80596585D01*
X94061314Y-80640775D01*
X94029518Y-80679518D01*
X93990775Y-80711314D01*
X93946585Y-80734934D01*
X93898622Y-80749483D01*
X93842609Y-80755000D01*
X93092391Y-80755000D01*
X93036378Y-80749483D01*
X92988415Y-80734934D01*
X92944225Y-80711314D01*
X92905482Y-80679518D01*
X92873686Y-80640775D01*
X92850066Y-80596585D01*
X92835517Y-80548622D01*
X92830000Y-80492609D01*
X92830000Y-79667391D01*
X92835517Y-79611378D01*
X92850066Y-79563415D01*
X92873686Y-79519225D01*
X92905482Y-79480482D01*
X92944225Y-79448686D01*
X92988415Y-79425066D01*
X93036378Y-79410517D01*
X93092391Y-79405000D01*
X93842609Y-79405000D01*
X93898622Y-79410517D01*
X93898622Y-79410517D01*
G37*
G36*
X92323622Y-79410517D02*
X92371585Y-79425066D01*
X92415775Y-79448686D01*
X92454518Y-79480482D01*
X92486314Y-79519225D01*
X92509934Y-79563415D01*
X92524483Y-79611378D01*
X92530000Y-79667391D01*
X92530000Y-80492609D01*
X92524483Y-80548622D01*
X92509934Y-80596585D01*
X92486314Y-80640775D01*
X92454518Y-80679518D01*
X92415775Y-80711314D01*
X92371585Y-80734934D01*
X92323622Y-80749483D01*
X92267609Y-80755000D01*
X91517391Y-80755000D01*
X91461378Y-80749483D01*
X91413415Y-80734934D01*
X91369225Y-80711314D01*
X91330482Y-80679518D01*
X91298686Y-80640775D01*
X91275066Y-80596585D01*
X91260517Y-80548622D01*
X91255000Y-80492609D01*
X91255000Y-79667391D01*
X91260517Y-79611378D01*
X91275066Y-79563415D01*
X91298686Y-79519225D01*
X91330482Y-79480482D01*
X91369225Y-79448686D01*
X91413415Y-79425066D01*
X91461378Y-79410517D01*
X91517391Y-79405000D01*
X92267609Y-79405000D01*
X92323622Y-79410517D01*
X92323622Y-79410517D01*
G37*
G36*
X106740270Y-80729150D02*
X105838570Y-80729150D01*
X105838570Y-79426130D01*
X106740270Y-79426130D01*
X106740270Y-80729150D01*
X106740270Y-80729150D01*
G37*
G36*
X104591430Y-80729150D02*
X103689730Y-80729150D01*
X103689730Y-79426130D01*
X104591430Y-79426130D01*
X104591430Y-80729150D01*
X104591430Y-80729150D01*
G37*
G36*
X119117516Y-76204946D02*
X119159910Y-76217806D01*
X119198974Y-76238686D01*
X119233214Y-76266786D01*
X119261314Y-76301026D01*
X119282194Y-76340090D01*
X119295054Y-76382484D01*
X119300000Y-76432702D01*
X119300000Y-79367298D01*
X119295054Y-79417516D01*
X119282194Y-79459910D01*
X119261314Y-79498974D01*
X119233214Y-79533214D01*
X119198974Y-79561314D01*
X119159910Y-79582194D01*
X119117516Y-79595054D01*
X119067298Y-79600000D01*
X117532702Y-79600000D01*
X117482484Y-79595054D01*
X117440090Y-79582194D01*
X117401026Y-79561314D01*
X117366786Y-79533214D01*
X117338686Y-79498974D01*
X117317806Y-79459910D01*
X117304946Y-79417516D01*
X117300000Y-79367298D01*
X117300000Y-76432702D01*
X117304946Y-76382484D01*
X117317806Y-76340090D01*
X117338686Y-76301026D01*
X117366786Y-76266786D01*
X117401026Y-76238686D01*
X117440090Y-76217806D01*
X117482484Y-76204946D01*
X117532702Y-76200000D01*
X119067298Y-76200000D01*
X119117516Y-76204946D01*
X119117516Y-76204946D01*
G37*
G36*
X106740270Y-76583870D02*
X105838570Y-76583870D01*
X105838570Y-75280850D01*
X106740270Y-75280850D01*
X106740270Y-76583870D01*
X106740270Y-76583870D01*
G37*
G36*
X104591430Y-76583870D02*
X103689730Y-76583870D01*
X103689730Y-75280850D01*
X104591430Y-75280850D01*
X104591430Y-76583870D01*
X104591430Y-76583870D01*
G37*
G36*
X119117516Y-71804946D02*
X119159910Y-71817806D01*
X119198974Y-71838686D01*
X119233214Y-71866786D01*
X119261314Y-71901026D01*
X119282194Y-71940090D01*
X119295054Y-71982484D01*
X119300000Y-72032702D01*
X119300000Y-74967298D01*
X119295054Y-75017516D01*
X119282194Y-75059910D01*
X119261314Y-75098974D01*
X119233214Y-75133214D01*
X119198974Y-75161314D01*
X119159910Y-75182194D01*
X119117516Y-75195054D01*
X119067298Y-75200000D01*
X117532702Y-75200000D01*
X117482484Y-75195054D01*
X117440090Y-75182194D01*
X117401026Y-75161314D01*
X117366786Y-75133214D01*
X117338686Y-75098974D01*
X117317806Y-75059910D01*
X117304946Y-75017516D01*
X117300000Y-74967298D01*
X117300000Y-72032702D01*
X117304946Y-71982484D01*
X117317806Y-71940090D01*
X117338686Y-71901026D01*
X117366786Y-71866786D01*
X117401026Y-71838686D01*
X117440090Y-71817806D01*
X117482484Y-71804946D01*
X117532702Y-71800000D01*
X119067298Y-71800000D01*
X119117516Y-71804946D01*
X119117516Y-71804946D01*
G37*
G36*
X110591430Y-74729150D02*
X109689730Y-74729150D01*
X109689730Y-73426130D01*
X110591430Y-73426130D01*
X110591430Y-74729150D01*
X110591430Y-74729150D01*
G37*
G36*
X100740270Y-74729150D02*
X99838570Y-74729150D01*
X99838570Y-73426130D01*
X100740270Y-73426130D01*
X100740270Y-74729150D01*
X100740270Y-74729150D01*
G37*
G36*
X98591430Y-74729150D02*
X97689730Y-74729150D01*
X97689730Y-73426130D01*
X98591430Y-73426130D01*
X98591430Y-74729150D01*
X98591430Y-74729150D01*
G37*
G36*
X112740270Y-74729150D02*
X111838570Y-74729150D01*
X111838570Y-73426130D01*
X112740270Y-73426130D01*
X112740270Y-74729150D01*
X112740270Y-74729150D01*
G37*
G36*
X119368830Y-70776410D02*
X117371170Y-70776410D01*
X117371170Y-67178550D01*
X119368830Y-67178550D01*
X119368830Y-70776410D01*
X119368830Y-70776410D01*
G37*
G36*
X126988830Y-70686410D02*
X124991170Y-70686410D01*
X124991170Y-67088550D01*
X126988830Y-67088550D01*
X126988830Y-70686410D01*
X126988830Y-70686410D01*
G37*
G36*
X100740270Y-70583870D02*
X99838570Y-70583870D01*
X99838570Y-69280850D01*
X100740270Y-69280850D01*
X100740270Y-70583870D01*
X100740270Y-70583870D01*
G37*
G36*
X98591430Y-70583870D02*
X97689730Y-70583870D01*
X97689730Y-69280850D01*
X98591430Y-69280850D01*
X98591430Y-70583870D01*
X98591430Y-70583870D01*
G37*
G36*
X110591430Y-70583870D02*
X109689730Y-70583870D01*
X109689730Y-69280850D01*
X110591430Y-69280850D01*
X110591430Y-70583870D01*
X110591430Y-70583870D01*
G37*
G36*
X112740270Y-70583870D02*
X111838570Y-70583870D01*
X111838570Y-69280850D01*
X112740270Y-69280850D01*
X112740270Y-70583870D01*
X112740270Y-70583870D01*
G37*
G36*
X104591430Y-68729150D02*
X103689730Y-68729150D01*
X103689730Y-67426130D01*
X104591430Y-67426130D01*
X104591430Y-68729150D01*
X104591430Y-68729150D01*
G37*
G36*
X106740270Y-68729150D02*
X105838570Y-68729150D01*
X105838570Y-67426130D01*
X106740270Y-67426130D01*
X106740270Y-68729150D01*
X106740270Y-68729150D01*
G37*
G36*
X119368830Y-65381450D02*
X117371170Y-65381450D01*
X117371170Y-61783590D01*
X119368830Y-61783590D01*
X119368830Y-65381450D01*
X119368830Y-65381450D01*
G37*
G36*
X126988830Y-65291450D02*
X124991170Y-65291450D01*
X124991170Y-61693590D01*
X126988830Y-61693590D01*
X126988830Y-65291450D01*
X126988830Y-65291450D01*
G37*
G36*
X106740270Y-64583870D02*
X105838570Y-64583870D01*
X105838570Y-63280850D01*
X106740270Y-63280850D01*
X106740270Y-64583870D01*
X106740270Y-64583870D01*
G37*
G36*
X104591430Y-64583870D02*
X103689730Y-64583870D01*
X103689730Y-63280850D01*
X104591430Y-63280850D01*
X104591430Y-64583870D01*
X104591430Y-64583870D01*
G37*
G36*
X113571720Y-61935830D02*
X110818360Y-61935830D01*
X110818360Y-60084170D01*
X113571720Y-60084170D01*
X113571720Y-61935830D01*
X113571720Y-61935830D01*
G37*
G36*
X110076680Y-61935830D02*
X107323320Y-61935830D01*
X107323320Y-60084170D01*
X110076680Y-60084170D01*
X110076680Y-61935830D01*
X110076680Y-61935830D01*
G37*
G36*
X127359876Y-58246605D02*
X127578172Y-58337026D01*
X127774633Y-58468297D01*
X127941703Y-58635367D01*
X128072974Y-58831828D01*
X128163395Y-59050124D01*
X128209490Y-59281859D01*
X128209490Y-59518141D01*
X128163395Y-59749876D01*
X128072974Y-59968172D01*
X127941703Y-60164633D01*
X127774633Y-60331703D01*
X127578172Y-60462974D01*
X127359876Y-60553395D01*
X127128141Y-60599490D01*
X126891859Y-60599490D01*
X126660124Y-60553395D01*
X126441828Y-60462974D01*
X126245367Y-60331703D01*
X126078297Y-60164633D01*
X125947026Y-59968172D01*
X125856605Y-59749876D01*
X125810510Y-59518141D01*
X125810510Y-59281859D01*
X125856605Y-59050124D01*
X125947026Y-58831828D01*
X126078297Y-58635367D01*
X126245367Y-58468297D01*
X126441828Y-58337026D01*
X126660124Y-58246605D01*
X126891859Y-58200510D01*
X127128141Y-58200510D01*
X127359876Y-58246605D01*
X127359876Y-58246605D01*
G37*
G36*
X124399490Y-60599490D02*
X122000510Y-60599490D01*
X122000510Y-58200510D01*
X124399490Y-58200510D01*
X124399490Y-60599490D01*
X124399490Y-60599490D01*
G37*
G36*
X88359876Y-58246605D02*
X88578172Y-58337026D01*
X88774633Y-58468297D01*
X88941703Y-58635367D01*
X89072974Y-58831828D01*
X89163395Y-59050124D01*
X89209490Y-59281859D01*
X89209490Y-59518141D01*
X89163395Y-59749876D01*
X89072974Y-59968172D01*
X88941703Y-60164633D01*
X88774633Y-60331703D01*
X88578172Y-60462974D01*
X88359876Y-60553395D01*
X88128141Y-60599490D01*
X87891859Y-60599490D01*
X87660124Y-60553395D01*
X87441828Y-60462974D01*
X87245367Y-60331703D01*
X87078297Y-60164633D01*
X86947026Y-59968172D01*
X86856605Y-59749876D01*
X86810510Y-59518141D01*
X86810510Y-59281859D01*
X86856605Y-59050124D01*
X86947026Y-58831828D01*
X87078297Y-58635367D01*
X87245367Y-58468297D01*
X87441828Y-58337026D01*
X87660124Y-58246605D01*
X87891859Y-58200510D01*
X88128141Y-58200510D01*
X88359876Y-58246605D01*
X88359876Y-58246605D01*
G37*
G36*
X85399490Y-60599490D02*
X83000510Y-60599490D01*
X83000510Y-58200510D01*
X85399490Y-58200510D01*
X85399490Y-60599490D01*
X85399490Y-60599490D01*
G37*
G36*
X114867516Y-55724946D02*
X114909910Y-55737806D01*
X114948974Y-55758686D01*
X114983214Y-55786786D01*
X115011314Y-55821026D01*
X115032194Y-55860090D01*
X115045054Y-55902484D01*
X115050000Y-55952702D01*
X115050000Y-58887298D01*
X115045054Y-58937516D01*
X115032194Y-58979910D01*
X115011314Y-59018974D01*
X114983214Y-59053214D01*
X114948974Y-59081314D01*
X114909910Y-59102194D01*
X114867516Y-59115054D01*
X114817298Y-59120000D01*
X113282702Y-59120000D01*
X113232484Y-59115054D01*
X113190090Y-59102194D01*
X113151026Y-59081314D01*
X113116786Y-59053214D01*
X113088686Y-59018974D01*
X113067806Y-58979910D01*
X113054946Y-58937516D01*
X113050000Y-58887298D01*
X113050000Y-55952702D01*
X113054946Y-55902484D01*
X113067806Y-55860090D01*
X113088686Y-55821026D01*
X113116786Y-55786786D01*
X113151026Y-55758686D01*
X113190090Y-55737806D01*
X113232484Y-55724946D01*
X113282702Y-55720000D01*
X114817298Y-55720000D01*
X114867516Y-55724946D01*
X114867516Y-55724946D01*
G37*
G36*
X97597516Y-55644946D02*
X97639910Y-55657806D01*
X97678974Y-55678686D01*
X97713214Y-55706786D01*
X97741314Y-55741026D01*
X97762194Y-55780090D01*
X97775054Y-55822484D01*
X97780000Y-55872702D01*
X97780000Y-58807298D01*
X97775054Y-58857516D01*
X97762194Y-58899910D01*
X97741314Y-58938974D01*
X97713214Y-58973214D01*
X97678974Y-59001314D01*
X97639910Y-59022194D01*
X97597516Y-59035054D01*
X97547298Y-59040000D01*
X96012702Y-59040000D01*
X95962484Y-59035054D01*
X95920090Y-59022194D01*
X95881026Y-59001314D01*
X95846786Y-58973214D01*
X95818686Y-58938974D01*
X95797806Y-58899910D01*
X95784946Y-58857516D01*
X95780000Y-58807298D01*
X95780000Y-55872702D01*
X95784946Y-55822484D01*
X95797806Y-55780090D01*
X95818686Y-55741026D01*
X95846786Y-55706786D01*
X95881026Y-55678686D01*
X95920090Y-55657806D01*
X95962484Y-55644946D01*
X96012702Y-55640000D01*
X97547298Y-55640000D01*
X97597516Y-55644946D01*
X97597516Y-55644946D01*
G37*
G36*
X114867516Y-51324946D02*
X114909910Y-51337806D01*
X114948974Y-51358686D01*
X114983214Y-51386786D01*
X115011314Y-51421026D01*
X115032194Y-51460090D01*
X115045054Y-51502484D01*
X115050000Y-51552702D01*
X115050000Y-54487298D01*
X115045054Y-54537516D01*
X115032194Y-54579910D01*
X115011314Y-54618974D01*
X114983214Y-54653214D01*
X114948974Y-54681314D01*
X114909910Y-54702194D01*
X114867516Y-54715054D01*
X114817298Y-54720000D01*
X113282702Y-54720000D01*
X113232484Y-54715054D01*
X113190090Y-54702194D01*
X113151026Y-54681314D01*
X113116786Y-54653214D01*
X113088686Y-54618974D01*
X113067806Y-54579910D01*
X113054946Y-54537516D01*
X113050000Y-54487298D01*
X113050000Y-51552702D01*
X113054946Y-51502484D01*
X113067806Y-51460090D01*
X113088686Y-51421026D01*
X113116786Y-51386786D01*
X113151026Y-51358686D01*
X113190090Y-51337806D01*
X113232484Y-51324946D01*
X113282702Y-51320000D01*
X114817298Y-51320000D01*
X114867516Y-51324946D01*
X114867516Y-51324946D01*
G37*
G36*
X97597516Y-51244946D02*
X97639910Y-51257806D01*
X97678974Y-51278686D01*
X97713214Y-51306786D01*
X97741314Y-51341026D01*
X97762194Y-51380090D01*
X97775054Y-51422484D01*
X97780000Y-51472702D01*
X97780000Y-54407298D01*
X97775054Y-54457516D01*
X97762194Y-54499910D01*
X97741314Y-54538974D01*
X97713214Y-54573214D01*
X97678974Y-54601314D01*
X97639910Y-54622194D01*
X97597516Y-54635054D01*
X97547298Y-54640000D01*
X96012702Y-54640000D01*
X95962484Y-54635054D01*
X95920090Y-54622194D01*
X95881026Y-54601314D01*
X95846786Y-54573214D01*
X95818686Y-54538974D01*
X95797806Y-54499910D01*
X95784946Y-54457516D01*
X95780000Y-54407298D01*
X95780000Y-51472702D01*
X95784946Y-51422484D01*
X95797806Y-51380090D01*
X95818686Y-51341026D01*
X95846786Y-51306786D01*
X95881026Y-51278686D01*
X95920090Y-51257806D01*
X95962484Y-51244946D01*
X96012702Y-51240000D01*
X97547298Y-51240000D01*
X97597516Y-51244946D01*
X97597516Y-51244946D01*
G37*
G36*
X97009122Y-43646115D02*
X97125041Y-43669173D01*
X97452620Y-43804861D01*
X97743511Y-43999228D01*
X97747436Y-44001851D01*
X97998149Y-44252564D01*
X98195140Y-44547382D01*
X98330827Y-44874960D01*
X98400000Y-45222714D01*
X98400000Y-45577286D01*
X98330827Y-45925040D01*
X98195140Y-46252618D01*
X97998149Y-46547436D01*
X97747436Y-46798149D01*
X97747433Y-46798151D01*
X97452620Y-46995139D01*
X97125041Y-47130827D01*
X97009122Y-47153885D01*
X96777286Y-47200000D01*
X96422714Y-47200000D01*
X96190878Y-47153885D01*
X96074959Y-47130827D01*
X95747380Y-46995139D01*
X95452567Y-46798151D01*
X95452564Y-46798149D01*
X95201851Y-46547436D01*
X95004860Y-46252618D01*
X94869173Y-45925040D01*
X94800000Y-45577286D01*
X94800000Y-45222714D01*
X94869173Y-44874960D01*
X95004860Y-44547382D01*
X95201851Y-44252564D01*
X95452564Y-44001851D01*
X95456489Y-43999228D01*
X95747380Y-43804861D01*
X96074959Y-43669173D01*
X96190878Y-43646115D01*
X96422714Y-43600000D01*
X96777286Y-43600000D01*
X97009122Y-43646115D01*
X97009122Y-43646115D01*
G37*
G36*
X114209122Y-43646115D02*
X114325041Y-43669173D01*
X114652620Y-43804861D01*
X114943511Y-43999228D01*
X114947436Y-44001851D01*
X115198149Y-44252564D01*
X115395140Y-44547382D01*
X115530827Y-44874960D01*
X115600000Y-45222714D01*
X115600000Y-45577286D01*
X115530827Y-45925040D01*
X115395140Y-46252618D01*
X115198149Y-46547436D01*
X114947436Y-46798149D01*
X114947433Y-46798151D01*
X114652620Y-46995139D01*
X114325041Y-47130827D01*
X114209122Y-47153885D01*
X113977286Y-47200000D01*
X113622714Y-47200000D01*
X113390878Y-47153885D01*
X113274959Y-47130827D01*
X112947380Y-46995139D01*
X112652567Y-46798151D01*
X112652564Y-46798149D01*
X112401851Y-46547436D01*
X112204860Y-46252618D01*
X112069173Y-45925040D01*
X112000000Y-45577286D01*
X112000000Y-45222714D01*
X112069173Y-44874960D01*
X112204860Y-44547382D01*
X112401851Y-44252564D01*
X112652564Y-44001851D01*
X112656489Y-43999228D01*
X112947380Y-43804861D01*
X113274959Y-43669173D01*
X113390878Y-43646115D01*
X113622714Y-43600000D01*
X113977286Y-43600000D01*
X114209122Y-43646115D01*
X114209122Y-43646115D01*
G37*
M02*
