G04 #@! TF.GenerationSoftware,KiCad,Pcbnew,(5.0.2-5)-5*
G04 #@! TF.CreationDate,2019-02-16T21:29:27-08:00*
G04 #@! TF.ProjectId,DC27-badge,44433237-2d62-4616-9467-652e6b696361,rev?*
G04 #@! TF.SameCoordinates,Original*
G04 #@! TF.FileFunction,Paste,Bot*
G04 #@! TF.FilePolarity,Positive*
%FSLAX46Y46*%
G04 Gerber Fmt 4.6, Leading zero omitted, Abs format (unit mm)*
G04 Created by KiCad (PCBNEW (5.0.2-5)-5) date Saturday, February 16, 2019 at 09:29:27 PM*
%MOMM*%
%LPD*%
G01*
G04 APERTURE LIST*
%ADD10R,0.450000X0.300000*%
%ADD11R,1.348740X0.398780*%
%ADD12O,1.597660X0.899160*%
%ADD13R,1.399540X1.597660*%
%ADD14R,1.899920X1.899920*%
%ADD15R,1.000000X3.500000*%
%ADD16R,1.500000X3.400000*%
%ADD17R,1.500000X0.700000*%
%ADD18R,0.800000X1.000000*%
%ADD19C,0.150000*%
%ADD20C,1.250000*%
G04 APERTURE END LIST*
D10*
G04 #@! TO.C,U602*
X77210000Y-129310000D03*
X75810000Y-129810000D03*
X77210000Y-130310000D03*
X75810000Y-129310000D03*
X75810000Y-130310000D03*
G04 #@! TD*
D11*
G04 #@! TO.C,J601*
X71600000Y-133097939D03*
X71600000Y-132447700D03*
X71600000Y-131800000D03*
X71600000Y-131152300D03*
X71600000Y-130502060D03*
D12*
X68930460Y-135099460D03*
X68930460Y-128500540D03*
D13*
X71600000Y-134997860D03*
X71600000Y-128602140D03*
D14*
X68925381Y-132998880D03*
X68925379Y-130601120D03*
G04 #@! TD*
D15*
G04 #@! TO.C,BT401*
X86750000Y-150050000D03*
X84750000Y-150050000D03*
D16*
X89100000Y-155800000D03*
X82400000Y-155800000D03*
G04 #@! TD*
D17*
G04 #@! TO.C,SW401*
X72430000Y-123250000D03*
X72430000Y-120250000D03*
X72430000Y-118750000D03*
D18*
X69570000Y-124650000D03*
X69570000Y-117350000D03*
X71780000Y-117350000D03*
X71780000Y-124650000D03*
G04 #@! TD*
D19*
G04 #@! TO.C,C601*
G36*
X77769504Y-126936204D02*
X77793773Y-126939804D01*
X77817571Y-126945765D01*
X77840671Y-126954030D01*
X77862849Y-126964520D01*
X77883893Y-126977133D01*
X77903598Y-126991747D01*
X77921777Y-127008223D01*
X77938253Y-127026402D01*
X77952867Y-127046107D01*
X77965480Y-127067151D01*
X77975970Y-127089329D01*
X77984235Y-127112429D01*
X77990196Y-127136227D01*
X77993796Y-127160496D01*
X77995000Y-127185000D01*
X77995000Y-127935000D01*
X77993796Y-127959504D01*
X77990196Y-127983773D01*
X77984235Y-128007571D01*
X77975970Y-128030671D01*
X77965480Y-128052849D01*
X77952867Y-128073893D01*
X77938253Y-128093598D01*
X77921777Y-128111777D01*
X77903598Y-128128253D01*
X77883893Y-128142867D01*
X77862849Y-128155480D01*
X77840671Y-128165970D01*
X77817571Y-128174235D01*
X77793773Y-128180196D01*
X77769504Y-128183796D01*
X77745000Y-128185000D01*
X76495000Y-128185000D01*
X76470496Y-128183796D01*
X76446227Y-128180196D01*
X76422429Y-128174235D01*
X76399329Y-128165970D01*
X76377151Y-128155480D01*
X76356107Y-128142867D01*
X76336402Y-128128253D01*
X76318223Y-128111777D01*
X76301747Y-128093598D01*
X76287133Y-128073893D01*
X76274520Y-128052849D01*
X76264030Y-128030671D01*
X76255765Y-128007571D01*
X76249804Y-127983773D01*
X76246204Y-127959504D01*
X76245000Y-127935000D01*
X76245000Y-127185000D01*
X76246204Y-127160496D01*
X76249804Y-127136227D01*
X76255765Y-127112429D01*
X76264030Y-127089329D01*
X76274520Y-127067151D01*
X76287133Y-127046107D01*
X76301747Y-127026402D01*
X76318223Y-127008223D01*
X76336402Y-126991747D01*
X76356107Y-126977133D01*
X76377151Y-126964520D01*
X76399329Y-126954030D01*
X76422429Y-126945765D01*
X76446227Y-126939804D01*
X76470496Y-126936204D01*
X76495000Y-126935000D01*
X77745000Y-126935000D01*
X77769504Y-126936204D01*
X77769504Y-126936204D01*
G37*
D20*
X77120000Y-127560000D03*
D19*
G36*
X77769504Y-124136204D02*
X77793773Y-124139804D01*
X77817571Y-124145765D01*
X77840671Y-124154030D01*
X77862849Y-124164520D01*
X77883893Y-124177133D01*
X77903598Y-124191747D01*
X77921777Y-124208223D01*
X77938253Y-124226402D01*
X77952867Y-124246107D01*
X77965480Y-124267151D01*
X77975970Y-124289329D01*
X77984235Y-124312429D01*
X77990196Y-124336227D01*
X77993796Y-124360496D01*
X77995000Y-124385000D01*
X77995000Y-125135000D01*
X77993796Y-125159504D01*
X77990196Y-125183773D01*
X77984235Y-125207571D01*
X77975970Y-125230671D01*
X77965480Y-125252849D01*
X77952867Y-125273893D01*
X77938253Y-125293598D01*
X77921777Y-125311777D01*
X77903598Y-125328253D01*
X77883893Y-125342867D01*
X77862849Y-125355480D01*
X77840671Y-125365970D01*
X77817571Y-125374235D01*
X77793773Y-125380196D01*
X77769504Y-125383796D01*
X77745000Y-125385000D01*
X76495000Y-125385000D01*
X76470496Y-125383796D01*
X76446227Y-125380196D01*
X76422429Y-125374235D01*
X76399329Y-125365970D01*
X76377151Y-125355480D01*
X76356107Y-125342867D01*
X76336402Y-125328253D01*
X76318223Y-125311777D01*
X76301747Y-125293598D01*
X76287133Y-125273893D01*
X76274520Y-125252849D01*
X76264030Y-125230671D01*
X76255765Y-125207571D01*
X76249804Y-125183773D01*
X76246204Y-125159504D01*
X76245000Y-125135000D01*
X76245000Y-124385000D01*
X76246204Y-124360496D01*
X76249804Y-124336227D01*
X76255765Y-124312429D01*
X76264030Y-124289329D01*
X76274520Y-124267151D01*
X76287133Y-124246107D01*
X76301747Y-124226402D01*
X76318223Y-124208223D01*
X76336402Y-124191747D01*
X76356107Y-124177133D01*
X76377151Y-124164520D01*
X76399329Y-124154030D01*
X76422429Y-124145765D01*
X76446227Y-124139804D01*
X76470496Y-124136204D01*
X76495000Y-124135000D01*
X77745000Y-124135000D01*
X77769504Y-124136204D01*
X77769504Y-124136204D01*
G37*
D20*
X77120000Y-124760000D03*
G04 #@! TD*
M02*
