G04 #@! TF.GenerationSoftware,KiCad,Pcbnew,(5.0.2-5)-5*
G04 #@! TF.CreationDate,2019-02-17T18:08:13-08:00*
G04 #@! TF.ProjectId,DC27-badge,44433237-2d62-4616-9467-652e6b696361,rev?*
G04 #@! TF.SameCoordinates,Original*
G04 #@! TF.FileFunction,Copper,L3,Inr*
G04 #@! TF.FilePolarity,Positive*
%FSLAX46Y46*%
G04 Gerber Fmt 4.6, Leading zero omitted, Abs format (unit mm)*
G04 Created by KiCad (PCBNEW (5.0.2-5)-5) date Sunday, February 17, 2019 at 06:08:13 PM*
%MOMM*%
%LPD*%
G01*
G04 APERTURE LIST*
G04 #@! TA.AperFunction,ViaPad*
%ADD10R,1.998980X1.998980*%
G04 #@! TD*
G04 #@! TA.AperFunction,ViaPad*
%ADD11C,1.998980*%
G04 #@! TD*
G04 #@! TA.AperFunction,ViaPad*
%ADD12O,1.200000X0.500000*%
G04 #@! TD*
G04 #@! TA.AperFunction,ViaPad*
%ADD13C,0.500000*%
G04 #@! TD*
G04 #@! TA.AperFunction,ViaPad*
%ADD14C,0.600000*%
G04 #@! TD*
G04 #@! TA.AperFunction,ViaPad*
%ADD15C,0.482600*%
G04 #@! TD*
G04 #@! TA.AperFunction,Conductor*
%ADD16C,0.152400*%
G04 #@! TD*
G04 #@! TA.AperFunction,Conductor*
%ADD17C,0.381000*%
G04 #@! TD*
G04 #@! TA.AperFunction,Conductor*
%ADD18C,0.250000*%
G04 #@! TD*
G04 #@! TA.AperFunction,Conductor*
%ADD19C,0.254000*%
G04 #@! TD*
G04 APERTURE END LIST*
D10*
G04 #@! TO.N,Net-(C505-Pad2)*
G04 #@! TO.C,J501*
X84200000Y-59400000D03*
D11*
G04 #@! TO.N,BATT_CSN*
X88010000Y-59400000D03*
G04 #@! TD*
D12*
G04 #@! TO.N,N/C*
G04 #@! TO.C,J601*
X68930000Y-135100000D03*
X68930000Y-128500000D03*
G04 #@! TD*
D11*
G04 #@! TO.N,BATT_CSN*
G04 #@! TO.C,J502*
X127010000Y-59400000D03*
D10*
G04 #@! TO.N,Net-(C510-Pad2)*
X123200000Y-59400000D03*
G04 #@! TD*
D13*
G04 #@! TO.N,BATT_CSN*
G04 #@! TO.C,U601*
X103200000Y-101400000D03*
X103200000Y-102400000D03*
X103200000Y-103400000D03*
X102200000Y-101400000D03*
X102200000Y-102400000D03*
X102200000Y-103400000D03*
X101200000Y-101400000D03*
X101200000Y-102400000D03*
X101200000Y-103400000D03*
G04 #@! TD*
D14*
G04 #@! TO.N,VBATT*
X90300000Y-132100000D03*
X86420000Y-145120000D03*
X79073265Y-149153265D03*
G04 #@! TO.N,BATT_CSN*
X71600000Y-136324900D03*
X71600000Y-127286600D03*
X71300000Y-182400000D03*
X93467500Y-81073600D03*
X77012500Y-138596700D03*
X90792600Y-89991500D03*
X103240200Y-98240400D03*
X98354000Y-207766000D03*
X81208500Y-105106800D03*
D15*
X126113000Y-107780000D03*
D14*
X132200000Y-106000000D03*
X132200000Y-107400000D03*
D15*
X125163599Y-103923519D03*
D14*
X104230914Y-215870062D03*
X106000000Y-194300000D03*
X104700000Y-197000000D03*
X133331479Y-185341006D03*
D15*
X119792068Y-109966106D03*
X81630000Y-98620000D03*
X109480000Y-55780000D03*
D14*
X119970000Y-195360000D03*
X112430000Y-188130000D03*
X106920000Y-207560000D03*
X106890000Y-62390000D03*
G04 #@! TO.N,AVCC*
X120807000Y-103393000D03*
X120681000Y-107896000D03*
X98800000Y-95081032D03*
X81273334Y-131010066D03*
X110600000Y-199064910D03*
X110592793Y-197207677D03*
X113929468Y-193776210D03*
X115370201Y-110173602D03*
D15*
X86950000Y-94010000D03*
X107240000Y-106380000D03*
X103300000Y-58525000D03*
D14*
X109330000Y-184810000D03*
X90412500Y-141000000D03*
X109095618Y-183240361D03*
X77137718Y-175747398D03*
G04 #@! TO.N,USBDATA+*
X102010000Y-98770000D03*
X73380000Y-131490000D03*
G04 #@! TO.N,USBDATA-*
X73800000Y-132400000D03*
X99800000Y-97913790D03*
G04 #@! TO.N,DEBUG_SWDIO*
X131076210Y-120211923D03*
X86100000Y-98620000D03*
G04 #@! TO.N,~UP*
X118600000Y-108800000D03*
X107613539Y-76786807D03*
G04 #@! TO.N,~DOWN*
X125907000Y-108493000D03*
X99376210Y-72200000D03*
G04 #@! TO.N,~LEFT*
X130500000Y-121230000D03*
X103521497Y-68163406D03*
D15*
G04 #@! TO.N,~A*
X92495800Y-118518000D03*
X126866000Y-105041000D03*
G04 #@! TO.N,~B*
X125968223Y-105612812D03*
X106402490Y-210270935D03*
D14*
G04 #@! TO.N,~RESET_TGTMCU*
X137000000Y-130600000D03*
X129400000Y-121000000D03*
X86192358Y-107807242D03*
G04 #@! TO.N,CS5*
X133591100Y-179787400D03*
X142728300Y-158289400D03*
X89887400Y-215085000D03*
X123913900Y-215697400D03*
X68630900Y-160739100D03*
X121900000Y-191271379D03*
X73810000Y-167900000D03*
X78130000Y-167900000D03*
G04 #@! TO.N,SW9*
X123183002Y-207922308D03*
X121871881Y-196400923D03*
G04 #@! TO.N,SW7*
X99400000Y-218200000D03*
X99400000Y-222150000D03*
X122776210Y-206784803D03*
X120319963Y-197311698D03*
G04 #@! TO.N,SW8*
X123575365Y-206747788D03*
X121214258Y-196856501D03*
G04 #@! TO.N,CS6*
X70533800Y-163874000D03*
X141377400Y-153390100D03*
X128291400Y-213526400D03*
X95540300Y-216201700D03*
X111169003Y-195436156D03*
G04 #@! TO.N,CS7*
X131095800Y-208662300D03*
X70791900Y-169776200D03*
X131423900Y-160369400D03*
X141377400Y-148410000D03*
X129220000Y-206930000D03*
X111557822Y-184909670D03*
G04 #@! TO.N,CS8*
X102752000Y-218277100D03*
X143996000Y-155319900D03*
X135799500Y-204783500D03*
X71140000Y-174640000D03*
X107200236Y-196385352D03*
X101000000Y-217800000D03*
X101292558Y-215223790D03*
X74400000Y-174590000D03*
G04 #@! TO.N,CS1*
X139400000Y-179100000D03*
X69504700Y-140910000D03*
X71110600Y-192466500D03*
X107559800Y-220725300D03*
X132320000Y-193010000D03*
X98400000Y-190000000D03*
X114628626Y-191000000D03*
X94307442Y-210707442D03*
G04 #@! TO.N,SW6*
X122200000Y-211400000D03*
X119659184Y-197762687D03*
G04 #@! TO.N,SW4*
X122600000Y-213800000D03*
X119492414Y-199332586D03*
G04 #@! TO.N,CS2*
X68605500Y-145820700D03*
X139000000Y-172600000D03*
X121000000Y-192200000D03*
X114271387Y-189800000D03*
X114352048Y-192602423D03*
X110600000Y-221000000D03*
X101400000Y-212400000D03*
X79510700Y-205086436D03*
X74765179Y-158450144D03*
X88904810Y-186225391D03*
X90076210Y-210600000D03*
G04 #@! TO.N,CS3*
X142728300Y-163188700D03*
X68791900Y-148615500D03*
X81027700Y-208383600D03*
X115730700Y-218769500D03*
X120200000Y-211000000D03*
X125400000Y-207800000D03*
X113136824Y-194352420D03*
G04 #@! TO.N,CS4*
X68605300Y-155774000D03*
X71856900Y-160197600D03*
X121775900Y-216543100D03*
X140824500Y-163188700D03*
X86479100Y-211676700D03*
X109800000Y-216623790D03*
X120423790Y-205200000D03*
X112412366Y-193814750D03*
G04 #@! TO.N,SW3*
X139498585Y-174660000D03*
X119570537Y-200487991D03*
G04 #@! TO.N,SW1*
X142728300Y-145910000D03*
X142728300Y-150910000D03*
X142753300Y-153255300D03*
X137800000Y-171600000D03*
X119731173Y-193071380D03*
X118607442Y-201192558D03*
G04 #@! TO.N,SW2*
X140600000Y-176000000D03*
X119087500Y-201849503D03*
G04 #@! TO.N,SW12*
X115272117Y-190466185D03*
X110492499Y-184659231D03*
X96888391Y-183930871D03*
X74400000Y-173600000D03*
G04 #@! TO.N,SW10*
X103500000Y-185080000D03*
X71330000Y-153290000D03*
X116233745Y-193200000D03*
X105766888Y-189413677D03*
G04 #@! TO.N,DEBUG_SWDCLK*
X92041500Y-108921000D03*
X131076210Y-118804662D03*
D15*
G04 #@! TO.N,DISP_CS*
X107200000Y-113118000D03*
X107400000Y-120000000D03*
D14*
G04 #@! TO.N,DISP_SCLK*
X105400000Y-132800000D03*
X93589510Y-118575790D03*
G04 #@! TO.N,DISP_DC*
X105200000Y-119176210D03*
X125771790Y-104898000D03*
G04 #@! TO.N,TOUCH_CS*
X116800000Y-132400000D03*
X116200000Y-120423790D03*
G04 #@! TO.N,VBUS*
X90427400Y-85795300D03*
X80594400Y-113993100D03*
X81410225Y-131961841D03*
G04 #@! TO.N,SW11*
X77800142Y-189399858D03*
X115856871Y-192136018D03*
G04 #@! TO.N,SW5*
X125400000Y-216200000D03*
X119446452Y-198533896D03*
G04 #@! TO.N,I2C_SCK*
X114000000Y-202280000D03*
X81000000Y-189200000D03*
X78000000Y-186900000D03*
X74420000Y-141040000D03*
X96970000Y-155550000D03*
X82000000Y-149790510D03*
G04 #@! TO.N,I2C_SDA*
X112000000Y-202000000D03*
X113610000Y-203230000D03*
X120441942Y-203027058D03*
X71350000Y-184230000D03*
X75693800Y-172353800D03*
X75070000Y-177230000D03*
D15*
G04 #@! TO.N,~ENTER*
X108200000Y-212050000D03*
X126100000Y-106682510D03*
G04 #@! TO.N,SDT_SPI_MOSI*
X100000000Y-119800000D03*
X127750000Y-105040000D03*
G04 #@! TO.N,SDT_SPI_MISO*
X98600000Y-127400000D03*
X128750774Y-105044972D03*
G04 #@! TO.N,SDT_SPI_SCK*
X101800000Y-120482000D03*
X129432490Y-105010000D03*
D14*
G04 #@! TO.N,DISP_MISO*
X112600000Y-132200000D03*
X113200000Y-120000000D03*
D15*
G04 #@! TO.N,DISP_MOSI*
X114824000Y-122406000D03*
X123800000Y-142200000D03*
G04 #@! TO.N,AMP_SHUTDOWN*
X122960000Y-100820000D03*
X105060000Y-53630000D03*
D14*
G04 #@! TO.N,UART_RTS*
X106000000Y-104600000D03*
X108000000Y-103400000D03*
X114400000Y-105600000D03*
X117600210Y-105600000D03*
G04 #@! TO.N,UART_TX*
X113956000Y-106266000D03*
X126600280Y-106000171D03*
G04 #@! TO.N,UART_CTS*
X114400000Y-108800000D03*
X116200210Y-108800000D03*
G04 #@! TO.N,UART_RX*
X107200000Y-101800000D03*
X126800000Y-107200000D03*
X113200000Y-107200210D03*
X111162000Y-105337000D03*
G04 #@! TO.N,I2S_SDOUT*
X127800000Y-113200000D03*
D15*
X127750000Y-108450000D03*
X108140000Y-78170000D03*
X116170000Y-58510000D03*
G04 #@! TO.N,I2S_SCLK*
X128850000Y-108480000D03*
X110360000Y-54690000D03*
G04 #@! TO.N,I2S_LRCK*
X129950000Y-108500000D03*
X114154065Y-55274065D03*
G04 #@! TO.N,I2S_MCK*
X131070000Y-108430000D03*
X110515011Y-55900000D03*
D14*
G04 #@! TO.N,Net-(BT401-Pad1)*
X86127000Y-133300200D03*
X74491700Y-119152300D03*
X89400440Y-146257970D03*
G04 #@! TO.N,Net-(C504-Pad1)*
X94830000Y-51040000D03*
G04 #@! TO.N,Net-(R604-Pad2)*
X93307100Y-89991500D03*
X97577400Y-94504822D03*
G04 #@! TO.N,Net-(C505-Pad1)*
X118510000Y-66710000D03*
G04 #@! TO.N,Net-(R401-Pad1)*
X85362400Y-131570200D03*
X84800000Y-136500000D03*
G04 #@! TO.N,Net-(C510-Pad1)*
X124250000Y-68730000D03*
G04 #@! TO.N,Net-(C507-Pad1)*
X112440000Y-51930000D03*
D15*
X115740000Y-55550000D03*
D14*
G04 #@! TO.N,Net-(C509-Pad1)*
X111840000Y-59420000D03*
G04 #@! TO.N,Net-(C504-Pad2)*
X107138421Y-53875937D03*
G04 #@! TO.N,Net-(C505-Pad2)*
X116530000Y-63760000D03*
G04 #@! TO.N,DEBUG_SWO*
X84187500Y-96074000D03*
X81695500Y-103657300D03*
D15*
X126801000Y-108450000D03*
X109200000Y-118117490D03*
D14*
G04 #@! TO.N,BATT_CSN*
X79120000Y-121610000D03*
G04 #@! TO.N,BATT_CSP*
X82150000Y-151090000D03*
X92014934Y-153697010D03*
G04 #@! TD*
D16*
G04 #@! TO.N,AVCC*
X120681000Y-107896000D02*
X120800000Y-107776000D01*
X120800000Y-107776000D02*
X120800000Y-103400000D01*
X120800000Y-103400000D02*
X120807000Y-103393000D01*
X110592793Y-195200000D02*
X110592793Y-197207677D01*
X110592793Y-195007207D02*
X110592793Y-195200000D01*
X113929468Y-193776210D02*
X113054098Y-192900840D01*
X113054098Y-192900840D02*
X112365731Y-192900840D01*
X110592793Y-194673778D02*
X110592793Y-195200000D01*
X112365731Y-192900840D02*
X110592793Y-194673778D01*
X98800000Y-95081032D02*
X98800000Y-64005115D01*
X98800000Y-64005115D02*
X103146969Y-59658146D01*
X86950000Y-94010000D02*
X94790000Y-94010000D01*
X95861032Y-95081032D02*
X98800000Y-95081032D01*
X94790000Y-94010000D02*
X95861032Y-95081032D01*
X99099999Y-95381031D02*
X104581031Y-95381031D01*
X98800000Y-95081032D02*
X99099999Y-95381031D01*
X104581031Y-95381031D02*
X106360000Y-97160000D01*
X106360000Y-97160000D02*
X106360000Y-103270000D01*
X107240000Y-104150000D02*
X107240000Y-106380000D01*
X106360000Y-103270000D02*
X107240000Y-104150000D01*
X103146969Y-58678031D02*
X103300000Y-58525000D01*
X103146969Y-59658146D02*
X103146969Y-58678031D01*
D17*
X77137718Y-175747398D02*
X77437717Y-176047397D01*
X84630681Y-183240361D02*
X77137718Y-175747398D01*
X109095618Y-183240361D02*
X84630681Y-183240361D01*
D16*
G04 #@! TO.N,USBDATA+*
X100055736Y-97240000D02*
X80180000Y-97240000D01*
X73380000Y-104040000D02*
X73380000Y-131490000D01*
X80180000Y-97240000D02*
X73380000Y-104040000D01*
X101585736Y-98770000D02*
X100055736Y-97240000D01*
X102010000Y-98770000D02*
X101585736Y-98770000D01*
G04 #@! TO.N,USBDATA-*
X74099999Y-132100001D02*
X74099999Y-131357219D01*
X73800000Y-104118384D02*
X80004594Y-97913790D01*
X73800000Y-132400000D02*
X74099999Y-132100001D01*
X73800000Y-131057220D02*
X73800000Y-104118384D01*
X80004594Y-97913790D02*
X99800000Y-97913790D01*
X74099999Y-131357219D02*
X73800000Y-131057220D01*
G04 #@! TO.N,DEBUG_SWDIO*
X97800000Y-118600000D02*
X108917000Y-118600000D01*
X129499287Y-118635000D02*
X131076210Y-120211923D01*
X108952000Y-118635000D02*
X129499287Y-118635000D01*
X108917000Y-118600000D02*
X108952000Y-118635000D01*
X97800000Y-118600000D02*
X97800000Y-117820000D01*
X97800000Y-117820000D02*
X86410000Y-106430000D01*
X86410000Y-98930000D02*
X86100000Y-98620000D01*
X86410000Y-101270000D02*
X86410000Y-98930000D01*
X86410000Y-106430000D02*
X86410000Y-101270000D01*
X86410000Y-101270000D02*
X86410000Y-101150000D01*
G04 #@! TO.N,~UP*
X118600000Y-108800000D02*
X109492411Y-99692411D01*
X109492411Y-78665679D02*
X107613539Y-76786807D01*
X109492411Y-99692411D02*
X109492411Y-78665679D01*
G04 #@! TO.N,~DOWN*
X109844820Y-78203204D02*
X103841616Y-72200000D01*
X121736000Y-104322000D02*
X121736000Y-103483200D01*
X109844820Y-80923204D02*
X109844820Y-78203204D01*
X114000000Y-95747200D02*
X114000000Y-85078384D01*
X125907000Y-108493000D02*
X121736000Y-104322000D01*
X103841616Y-72200000D02*
X99376210Y-72200000D01*
X121736000Y-103483200D02*
X114000000Y-95747200D01*
X114000000Y-85078384D02*
X109844820Y-80923204D01*
G04 #@! TO.N,~LEFT*
X133053790Y-119100474D02*
X133053790Y-97695699D01*
X130500000Y-121230000D02*
X130924264Y-121230000D01*
X133053790Y-97695699D02*
X103521497Y-68163406D01*
X130924264Y-121230000D02*
X133053790Y-119100474D01*
G04 #@! TO.N,~RESET_TGTMCU*
X99385116Y-121000000D02*
X86192358Y-107807242D01*
X129400000Y-121000000D02*
X99385116Y-121000000D01*
D18*
G04 #@! TO.N,CS5*
X122107121Y-191271379D02*
X121900000Y-191271379D01*
X123913900Y-215697400D02*
X122333900Y-217277400D01*
X122333900Y-217277400D02*
X101402402Y-217277400D01*
X101402402Y-217277400D02*
X101300001Y-217174999D01*
X101300001Y-217174999D02*
X100699999Y-217174999D01*
X100699999Y-217174999D02*
X100597598Y-217277400D01*
X92079800Y-217277400D02*
X89887400Y-215085000D01*
X100597598Y-217277400D02*
X92079800Y-217277400D01*
D16*
X133591100Y-181108900D02*
X133591100Y-179787400D01*
X121900000Y-191271379D02*
X123428621Y-191271379D01*
X121703700Y-167900000D02*
X133490000Y-179686300D01*
X133490000Y-181210000D02*
X132990000Y-181710000D01*
X133490000Y-179686300D02*
X133490000Y-181210000D01*
X132990000Y-181710000D02*
X133591100Y-181108900D01*
X123428621Y-191271379D02*
X132990000Y-181710000D01*
X78130000Y-167900000D02*
X121703700Y-167900000D01*
X73810000Y-167900000D02*
X78130000Y-167900000D01*
D18*
G04 #@! TO.N,CS6*
X96747100Y-213526400D02*
X96747100Y-214994900D01*
X96747100Y-214994900D02*
X95540300Y-216201700D01*
X128291400Y-213526400D02*
X128291400Y-203530100D01*
X70514999Y-174339999D02*
X70514999Y-174940001D01*
X70514999Y-174940001D02*
X70533800Y-174958802D01*
X70533800Y-185053800D02*
X96747100Y-211267100D01*
X70533800Y-163874000D02*
X70166600Y-164241200D01*
X70166600Y-164241200D02*
X70166600Y-170035200D01*
X96747100Y-211267100D02*
X96747100Y-213526400D01*
X70166600Y-170035200D02*
X70533800Y-170402400D01*
X70533800Y-170402400D02*
X70533800Y-174321198D01*
X70533800Y-174321198D02*
X70514999Y-174339999D01*
X70533800Y-174958802D02*
X70533800Y-185053800D01*
X128291400Y-203530100D02*
X128600000Y-203221500D01*
X127939999Y-213174999D02*
X122326400Y-213174999D01*
X128291400Y-213526400D02*
X127939999Y-213174999D01*
X122326400Y-213174999D02*
X121974999Y-213526400D01*
X121974999Y-213526400D02*
X96747100Y-213526400D01*
X141449800Y-153886764D02*
X141377400Y-153814364D01*
X141334100Y-175313922D02*
X141334100Y-163563500D01*
X141577413Y-175557235D02*
X141334100Y-175313922D01*
X141334100Y-176686078D02*
X141577413Y-176442765D01*
X141334100Y-190487400D02*
X141334100Y-176686078D01*
X141449800Y-163447800D02*
X141449800Y-153886764D01*
X141577413Y-176442765D02*
X141577413Y-175557235D01*
X128600000Y-203221500D02*
X141334100Y-190487400D01*
X141334100Y-163563500D02*
X141449800Y-163447800D01*
X141377400Y-153814364D02*
X141377400Y-153390100D01*
D16*
X120035836Y-205776202D02*
X111169003Y-196909369D01*
X128600000Y-203221500D02*
X123631280Y-203221500D01*
X123631280Y-203221500D02*
X121076578Y-205776202D01*
X121076578Y-205776202D02*
X120035836Y-205776202D01*
X111169003Y-196909369D02*
X111169003Y-195436156D01*
D18*
G04 #@! TO.N,CS7*
X80198700Y-160369400D02*
X70791900Y-169776200D01*
X131423900Y-160369400D02*
X80198700Y-160369400D01*
G04 #@! TO.N,CS8*
X135799500Y-204783500D02*
X135799500Y-206922300D01*
X135799500Y-206922300D02*
X124937100Y-217784700D01*
X124937100Y-217784700D02*
X103244400Y-217784700D01*
X103244400Y-217784700D02*
X102752000Y-218277100D01*
X143996000Y-155319900D02*
X143590500Y-155725400D01*
X143590500Y-155725400D02*
X143590500Y-188867900D01*
X143590500Y-188867900D02*
X135799500Y-196658900D01*
X135799500Y-196658900D02*
X135799500Y-204783500D01*
D16*
X71140000Y-174640000D02*
X74350000Y-174640000D01*
X74350000Y-174640000D02*
X74400000Y-174590000D01*
D18*
G04 #@! TO.N,CS1*
X71110600Y-192466500D02*
X67954700Y-189310600D01*
X67954700Y-189310600D02*
X67954700Y-142460000D01*
X67954700Y-142460000D02*
X69504700Y-140910000D01*
X107559800Y-220725300D02*
X92398800Y-220725300D01*
X92398800Y-220725300D02*
X71110600Y-199437100D01*
X71110600Y-199437100D02*
X71110600Y-192466500D01*
D16*
X99400000Y-191000000D02*
X114628626Y-191000000D01*
X98400000Y-190000000D02*
X99400000Y-191000000D01*
D18*
G04 #@! TO.N,CS2*
X68605500Y-145820700D02*
X74765179Y-151980379D01*
X74765179Y-151980379D02*
X74765179Y-158450144D01*
D16*
X114271387Y-189800000D02*
X113247222Y-189800000D01*
X109672613Y-186225391D02*
X88904810Y-186225391D01*
X113247222Y-189800000D02*
X109672613Y-186225391D01*
D18*
G04 #@! TO.N,CS3*
X81027700Y-208383600D02*
X81027700Y-199105000D01*
X81027700Y-199105000D02*
X69387700Y-187465000D01*
X69387700Y-187465000D02*
X69387700Y-170530100D01*
X69387700Y-170530100D02*
X69266000Y-170408400D01*
X69266000Y-170408400D02*
X69266000Y-158018800D01*
X69266000Y-158018800D02*
X69387600Y-157897200D01*
X115730700Y-218769500D02*
X115597800Y-218902400D01*
X115597800Y-218902400D02*
X91546500Y-218902400D01*
X91546500Y-218902400D02*
X81027700Y-208383600D01*
X69387600Y-157897200D02*
X69387600Y-149211200D01*
X69387600Y-149211200D02*
X68791900Y-148615500D01*
X75470508Y-159258776D02*
X76832084Y-157897200D01*
X98575400Y-157897200D02*
X103753100Y-152719500D01*
X142103000Y-162563400D02*
X142728300Y-163188700D01*
X141598200Y-152719500D02*
X142103000Y-153224300D01*
X73287231Y-157897200D02*
X74648807Y-159258776D01*
X142103000Y-153224300D02*
X142103000Y-162563400D01*
X103753100Y-152719500D02*
X141598200Y-152719500D01*
X69387600Y-157897200D02*
X73287231Y-157897200D01*
X74648807Y-159258776D02*
X75470508Y-159258776D01*
X76832084Y-157897200D02*
X98575400Y-157897200D01*
G04 #@! TO.N,CS4*
X72576100Y-160916800D02*
X69716300Y-163776600D01*
X69716300Y-163776600D02*
X69716300Y-170221800D01*
X69716300Y-170221800D02*
X69890200Y-170395700D01*
X69890200Y-170395700D02*
X69890200Y-185362400D01*
X69890200Y-185362400D02*
X86479100Y-201951300D01*
X86479100Y-201951300D02*
X86479100Y-211676700D01*
X72576100Y-160916800D02*
X71856900Y-160197600D01*
X87363500Y-211676700D02*
X86479100Y-211676700D01*
X92513900Y-216827100D02*
X87363500Y-211676700D01*
X100695487Y-216543100D02*
X100411487Y-216827100D01*
X121775900Y-216543100D02*
X100695487Y-216543100D01*
X100411487Y-216827100D02*
X92513900Y-216827100D01*
D16*
X120423790Y-205200000D02*
X112412366Y-197188576D01*
X112412366Y-197188576D02*
X112412366Y-193814750D01*
D18*
X137281200Y-159645400D02*
X140824500Y-163188700D01*
X74448895Y-160916800D02*
X75720295Y-159645400D01*
X72576100Y-160916800D02*
X74448895Y-160916800D01*
X75720295Y-159645400D02*
X137281200Y-159645400D01*
D16*
G04 #@! TO.N,SW3*
X140876578Y-176576202D02*
X140876578Y-179181950D01*
X139498585Y-174660000D02*
X140112780Y-174660000D01*
X140112780Y-174660000D02*
X141176202Y-175723422D01*
X141176202Y-176276578D02*
X140876578Y-176576202D01*
X140876578Y-179181950D02*
X119570537Y-200487991D01*
X141176202Y-175723422D02*
X141176202Y-176276578D01*
D18*
G04 #@! TO.N,SW1*
X142728300Y-150910000D02*
X142728300Y-145910000D01*
X142753300Y-153255300D02*
X142753300Y-150935000D01*
X142753300Y-150935000D02*
X142728300Y-150910000D01*
X118307443Y-194495110D02*
X118307443Y-200892559D01*
X119731173Y-193071380D02*
X118307443Y-194495110D01*
X118307443Y-200892559D02*
X118607442Y-201192558D01*
D16*
G04 #@! TO.N,SW2*
X119387499Y-201119835D02*
X119387499Y-201549504D01*
X118801211Y-200533547D02*
X119387499Y-201119835D01*
X140600000Y-176000000D02*
X118801211Y-197798789D01*
X119387499Y-201549504D02*
X119087500Y-201849503D01*
X118801211Y-197798789D02*
X118801211Y-200533547D01*
G04 #@! TO.N,DEBUG_SWDCLK*
X92041500Y-108921000D02*
X108472616Y-108921000D01*
X125823959Y-113552411D02*
X131076210Y-118804662D01*
X113104027Y-113552411D02*
X125823959Y-113552411D01*
X108472616Y-108921000D02*
X113104027Y-113552411D01*
G04 #@! TO.N,SW11*
X115432607Y-192136018D02*
X115856871Y-192136018D01*
X115322802Y-192026213D02*
X115432607Y-192136018D01*
X80426497Y-192026213D02*
X115322802Y-192026213D01*
X77800142Y-189399858D02*
X80426497Y-192026213D01*
G04 #@! TO.N,I2C_SCK*
X91210510Y-149790510D02*
X82000000Y-149790510D01*
X82000000Y-148620000D02*
X82000000Y-149790510D01*
X74420000Y-141040000D02*
X82000000Y-148620000D01*
X96970000Y-155550000D02*
X91210510Y-149790510D01*
G04 #@! TO.N,I2C_SDA*
X112000000Y-202000000D02*
X103400000Y-193400000D01*
X80520000Y-193400000D02*
X71350000Y-184230000D01*
X103400000Y-193400000D02*
X80520000Y-193400000D01*
X75693800Y-176606200D02*
X75693800Y-172353800D01*
X75070000Y-177230000D02*
X75693800Y-176606200D01*
G04 #@! TO.N,AMP_SHUTDOWN*
X122960000Y-100820000D02*
X122960000Y-90820000D01*
X122960000Y-90820000D02*
X100740000Y-68600000D01*
X100740000Y-68600000D02*
X100740000Y-62880000D01*
X100740000Y-62880000D02*
X105590000Y-58030000D01*
X105590000Y-54160000D02*
X105060000Y-53630000D01*
X105590000Y-58030000D02*
X105590000Y-54160000D01*
G04 #@! TO.N,I2S_SDOUT*
X127800000Y-113200000D02*
X113250000Y-113200000D01*
X113250000Y-113200000D02*
X109140000Y-109090000D01*
X109140000Y-109090000D02*
X109140000Y-79170000D01*
X109140000Y-79170000D02*
X108140000Y-78170000D01*
G04 #@! TO.N,I2S_SCLK*
X128850000Y-108480000D02*
X130400000Y-106930000D01*
X108762499Y-55631599D02*
X109704098Y-54690000D01*
X109704098Y-54690000D02*
X110360000Y-54690000D01*
X108762499Y-55785885D02*
X108762499Y-55631599D01*
X104462410Y-60085974D02*
X108762499Y-55785885D01*
X104462410Y-60115974D02*
X104462410Y-60085974D01*
X130400000Y-97140000D02*
X101230000Y-67970000D01*
X130400000Y-106930000D02*
X130400000Y-97140000D01*
X101230000Y-63348384D02*
X104462410Y-60115974D01*
X101230000Y-67970000D02*
X101230000Y-63348384D01*
G04 #@! TO.N,I2S_LRCK*
X130752411Y-96707589D02*
X102230000Y-68185178D01*
X102230000Y-68185178D02*
X102230000Y-63240000D01*
X110285035Y-55274065D02*
X114154065Y-55274065D01*
X129950000Y-108500000D02*
X130752411Y-107697589D01*
X130752411Y-107697589D02*
X130752411Y-96707589D01*
X109997501Y-55561599D02*
X110285035Y-55274065D01*
X109142499Y-56327501D02*
X109698401Y-56327501D01*
X102230000Y-63240000D02*
X109142499Y-56327501D01*
X109997501Y-56028401D02*
X109997501Y-55561599D01*
X109698401Y-56327501D02*
X109997501Y-56028401D01*
G04 #@! TO.N,I2S_MCK*
X131311299Y-96561299D02*
X103677589Y-68927589D01*
X102890000Y-68346794D02*
X102890000Y-63440000D01*
X131070000Y-108430000D02*
X131311299Y-108188701D01*
X103677589Y-68927589D02*
X103470795Y-68927589D01*
X103470795Y-68927589D02*
X102890000Y-68346794D01*
X109976348Y-56779912D02*
X110515011Y-56241249D01*
X102890000Y-63440000D02*
X109550088Y-56779912D01*
X109550088Y-56779912D02*
X109976348Y-56779912D01*
X110515011Y-56241249D02*
X110515011Y-55900000D01*
X131311299Y-108188701D02*
X131311299Y-96561299D01*
D17*
G04 #@! TO.N,Net-(BT401-Pad1)*
X86127000Y-130787600D02*
X82849400Y-127510000D01*
X86127000Y-133300200D02*
X86127000Y-130787600D01*
X82849400Y-127510000D02*
X83050000Y-127710600D01*
X74491700Y-119152300D02*
X82849400Y-127510000D01*
X86127000Y-133300200D02*
X86127000Y-142984530D01*
X86127000Y-142984530D02*
X89400440Y-146257970D01*
D18*
G04 #@! TO.N,Net-(R604-Pad2)*
X93307100Y-89991500D02*
X97577400Y-94261800D01*
X97577400Y-94261800D02*
X97577400Y-94504822D01*
D17*
G04 #@! TO.N,Net-(R401-Pad1)*
X85362400Y-135937600D02*
X84800000Y-136500000D01*
X85362400Y-131570200D02*
X85362400Y-135937600D01*
G04 #@! TD*
D19*
G04 #@! TO.N,AVCC*
G36*
X127114699Y-39808447D02*
X129718626Y-39846423D01*
X131281926Y-40166575D01*
X132487916Y-40952387D01*
X133297950Y-42118193D01*
X133621557Y-43660797D01*
X133664138Y-47762372D01*
X133682870Y-51931299D01*
X133627843Y-56088093D01*
X133451471Y-60199179D01*
X132762893Y-64391750D01*
X131293116Y-68196672D01*
X129096386Y-71661131D01*
X126211012Y-74813855D01*
X124991767Y-75948164D01*
X123749227Y-77100489D01*
X122559232Y-78202585D01*
X122559158Y-78202630D01*
X122504825Y-78252973D01*
X122453073Y-78300902D01*
X122453025Y-78300969D01*
X121326481Y-79344777D01*
X121272734Y-79375472D01*
X121220259Y-79443198D01*
X121211548Y-79451269D01*
X121175972Y-79500356D01*
X121093644Y-79606611D01*
X121090430Y-79618385D01*
X121083268Y-79628267D01*
X121052040Y-79759012D01*
X121016640Y-79888690D01*
X121018176Y-79900797D01*
X121015341Y-79912667D01*
X121036523Y-80045400D01*
X121053443Y-80178764D01*
X121059496Y-80189363D01*
X121061419Y-80201413D01*
X121131792Y-80315951D01*
X121161851Y-80368584D01*
X121169636Y-80377545D01*
X121214489Y-80450548D01*
X121264608Y-80486872D01*
X122944856Y-82421081D01*
X122945536Y-82422262D01*
X122992209Y-82475592D01*
X123038903Y-82529343D01*
X123039985Y-82530182D01*
X124754652Y-84489392D01*
X126471477Y-86492684D01*
X128114599Y-88508858D01*
X133088713Y-95632665D01*
X137135534Y-103187553D01*
X140247873Y-111181024D01*
X142413007Y-119623287D01*
X143001723Y-123010601D01*
X143451628Y-126444192D01*
X143745427Y-129890512D01*
X143868786Y-133339768D01*
X143957685Y-146122106D01*
X143974945Y-154384900D01*
X143810017Y-154384900D01*
X143466365Y-154527245D01*
X143203345Y-154790265D01*
X143061000Y-155133917D01*
X143061000Y-155165157D01*
X143042571Y-155177471D01*
X142874596Y-155428864D01*
X142863000Y-155487161D01*
X142863000Y-154190300D01*
X142939283Y-154190300D01*
X143282935Y-154047955D01*
X143545955Y-153784935D01*
X143688300Y-153441283D01*
X143688300Y-153069317D01*
X143545955Y-152725665D01*
X143513300Y-152693010D01*
X143513300Y-151447290D01*
X143520955Y-151439635D01*
X143663300Y-151095983D01*
X143663300Y-150724017D01*
X143520955Y-150380365D01*
X143488300Y-150347710D01*
X143488300Y-146472290D01*
X143520955Y-146439635D01*
X143663300Y-146095983D01*
X143663300Y-145724017D01*
X143520955Y-145380365D01*
X143257935Y-145117345D01*
X142914283Y-144975000D01*
X142542317Y-144975000D01*
X142198665Y-145117345D01*
X141935645Y-145380365D01*
X141793300Y-145724017D01*
X141793300Y-146095983D01*
X141935645Y-146439635D01*
X141968301Y-146472291D01*
X141968301Y-147678611D01*
X141907035Y-147617345D01*
X141563383Y-147475000D01*
X141191417Y-147475000D01*
X140847765Y-147617345D01*
X140584745Y-147880365D01*
X140442400Y-148224017D01*
X140442400Y-148595983D01*
X140584745Y-148939635D01*
X140847765Y-149202655D01*
X141191417Y-149345000D01*
X141563383Y-149345000D01*
X141907035Y-149202655D01*
X141968300Y-149141390D01*
X141968300Y-150347710D01*
X141935645Y-150380365D01*
X141793300Y-150724017D01*
X141793300Y-151095983D01*
X141935645Y-151439635D01*
X141993301Y-151497291D01*
X141993301Y-152069454D01*
X141894737Y-152003596D01*
X141673052Y-151959500D01*
X141673047Y-151959500D01*
X141598200Y-151944612D01*
X141523353Y-151959500D01*
X103827948Y-151959500D01*
X103753100Y-151944612D01*
X103678252Y-151959500D01*
X103678248Y-151959500D01*
X103456563Y-152003596D01*
X103205171Y-152171571D01*
X103162771Y-152235027D01*
X98260599Y-157137200D01*
X76906930Y-157137200D01*
X76832083Y-157122312D01*
X76757236Y-157137200D01*
X76757232Y-157137200D01*
X76535547Y-157181296D01*
X76284155Y-157349271D01*
X76241755Y-157412727D01*
X75609424Y-158045059D01*
X75557834Y-157920509D01*
X75525179Y-157887854D01*
X75525179Y-153511027D01*
X91079934Y-153511027D01*
X91079934Y-153882993D01*
X91222279Y-154226645D01*
X91485299Y-154489665D01*
X91828951Y-154632010D01*
X92200917Y-154632010D01*
X92544569Y-154489665D01*
X92807589Y-154226645D01*
X92949934Y-153882993D01*
X92949934Y-153511027D01*
X92807589Y-153167375D01*
X92544569Y-152904355D01*
X92200917Y-152762010D01*
X91828951Y-152762010D01*
X91485299Y-152904355D01*
X91222279Y-153167375D01*
X91079934Y-153511027D01*
X75525179Y-153511027D01*
X75525179Y-152055227D01*
X75540067Y-151980379D01*
X75525179Y-151905531D01*
X75525179Y-151905527D01*
X75481083Y-151683842D01*
X75313108Y-151432450D01*
X75249652Y-151390050D01*
X72826884Y-148967282D01*
X78138265Y-148967282D01*
X78138265Y-149339248D01*
X78280610Y-149682900D01*
X78543630Y-149945920D01*
X78887282Y-150088265D01*
X79259248Y-150088265D01*
X79602900Y-149945920D01*
X79865920Y-149682900D01*
X80008265Y-149339248D01*
X80008265Y-148967282D01*
X79865920Y-148623630D01*
X79602900Y-148360610D01*
X79259248Y-148218265D01*
X78887282Y-148218265D01*
X78543630Y-148360610D01*
X78280610Y-148623630D01*
X78138265Y-148967282D01*
X72826884Y-148967282D01*
X69540500Y-145680899D01*
X69540500Y-145634717D01*
X69398155Y-145291065D01*
X69135135Y-145028045D01*
X68791483Y-144885700D01*
X68714700Y-144885700D01*
X68714700Y-142774801D01*
X69644502Y-141845000D01*
X69690683Y-141845000D01*
X70034335Y-141702655D01*
X70297355Y-141439635D01*
X70439700Y-141095983D01*
X70439700Y-140854017D01*
X73485000Y-140854017D01*
X73485000Y-141225983D01*
X73627345Y-141569635D01*
X73890365Y-141832655D01*
X74234017Y-141975000D01*
X74349212Y-141975000D01*
X81288800Y-148914589D01*
X81288800Y-149179420D01*
X81207345Y-149260875D01*
X81065000Y-149604527D01*
X81065000Y-149976493D01*
X81207345Y-150320145D01*
X81402455Y-150515255D01*
X81357345Y-150560365D01*
X81215000Y-150904017D01*
X81215000Y-151275983D01*
X81357345Y-151619635D01*
X81620365Y-151882655D01*
X81964017Y-152025000D01*
X82335983Y-152025000D01*
X82679635Y-151882655D01*
X82942655Y-151619635D01*
X83085000Y-151275983D01*
X83085000Y-150904017D01*
X82942655Y-150560365D01*
X82884000Y-150501710D01*
X90915922Y-150501710D01*
X96035000Y-155620789D01*
X96035000Y-155735983D01*
X96177345Y-156079635D01*
X96440365Y-156342655D01*
X96784017Y-156485000D01*
X97155983Y-156485000D01*
X97499635Y-156342655D01*
X97762655Y-156079635D01*
X97905000Y-155735983D01*
X97905000Y-155364017D01*
X97762655Y-155020365D01*
X97499635Y-154757345D01*
X97155983Y-154615000D01*
X97040789Y-154615000D01*
X91762934Y-149337146D01*
X91723256Y-149277764D01*
X91488006Y-149120574D01*
X91280556Y-149079310D01*
X91280551Y-149079310D01*
X91210510Y-149065378D01*
X91140469Y-149079310D01*
X82711200Y-149079310D01*
X82711200Y-148690042D01*
X82725132Y-148620000D01*
X82711200Y-148549958D01*
X82711200Y-148549954D01*
X82669936Y-148342504D01*
X82590765Y-148224017D01*
X82552424Y-148166635D01*
X82552420Y-148166631D01*
X82512745Y-148107254D01*
X82453369Y-148067580D01*
X75355000Y-140969212D01*
X75355000Y-140854017D01*
X75212655Y-140510365D01*
X74949635Y-140247345D01*
X74605983Y-140105000D01*
X74234017Y-140105000D01*
X73890365Y-140247345D01*
X73627345Y-140510365D01*
X73485000Y-140854017D01*
X70439700Y-140854017D01*
X70439700Y-140724017D01*
X70297355Y-140380365D01*
X70034335Y-140117345D01*
X69690683Y-139975000D01*
X69318717Y-139975000D01*
X68975065Y-140117345D01*
X68712045Y-140380365D01*
X68569700Y-140724017D01*
X68569700Y-140770198D01*
X67470228Y-141869671D01*
X67406772Y-141912071D01*
X67364372Y-141975527D01*
X67364371Y-141975528D01*
X67238797Y-142163463D01*
X67179812Y-142460000D01*
X67194701Y-142534852D01*
X67194700Y-189235753D01*
X67179812Y-189310600D01*
X67194700Y-189385447D01*
X67194700Y-189385451D01*
X67238796Y-189607136D01*
X67406771Y-189858529D01*
X67470230Y-189900931D01*
X70175600Y-192606302D01*
X70175600Y-192652483D01*
X70317945Y-192996135D01*
X70350601Y-193028791D01*
X70350600Y-199362253D01*
X70335712Y-199437100D01*
X70350600Y-199511947D01*
X70350600Y-199511951D01*
X70394696Y-199733636D01*
X70562671Y-199985029D01*
X70626130Y-200027431D01*
X90530059Y-219931361D01*
X89197815Y-219465458D01*
X87960114Y-218951245D01*
X86748410Y-218193390D01*
X86748407Y-218193387D01*
X85423758Y-217364889D01*
X85423753Y-217364884D01*
X84099105Y-216536389D01*
X84099099Y-216536383D01*
X82759279Y-215698398D01*
X77888068Y-211537365D01*
X73818722Y-206784257D01*
X70578166Y-201426585D01*
X68189016Y-195434338D01*
X67439933Y-192609475D01*
X66910261Y-189714726D01*
X66595107Y-186776018D01*
X66485546Y-183793451D01*
X66429922Y-171622102D01*
X66429985Y-171621776D01*
X66429593Y-171549995D01*
X66429262Y-171477662D01*
X66429195Y-171477335D01*
X66362594Y-159295073D01*
X66326481Y-147043108D01*
X66352284Y-138410717D01*
X76077500Y-138410717D01*
X76077500Y-138782683D01*
X76219845Y-139126335D01*
X76482865Y-139389355D01*
X76826517Y-139531700D01*
X77198483Y-139531700D01*
X77542135Y-139389355D01*
X77805155Y-139126335D01*
X77947500Y-138782683D01*
X77947500Y-138410717D01*
X77805155Y-138067065D01*
X77542135Y-137804045D01*
X77198483Y-137661700D01*
X76826517Y-137661700D01*
X76482865Y-137804045D01*
X76219845Y-138067065D01*
X76077500Y-138410717D01*
X66352284Y-138410717D01*
X66359075Y-136138917D01*
X70665000Y-136138917D01*
X70665000Y-136510883D01*
X70807345Y-136854535D01*
X71070365Y-137117555D01*
X71414017Y-137259900D01*
X71785983Y-137259900D01*
X72129635Y-137117555D01*
X72392655Y-136854535D01*
X72535000Y-136510883D01*
X72535000Y-136138917D01*
X72392655Y-135795265D01*
X72129635Y-135532245D01*
X71785983Y-135389900D01*
X71414017Y-135389900D01*
X71070365Y-135532245D01*
X70807345Y-135795265D01*
X70665000Y-136138917D01*
X66359075Y-136138917D01*
X66362181Y-135100000D01*
X67677662Y-135100000D01*
X67746348Y-135445310D01*
X67941951Y-135738049D01*
X68234690Y-135933652D01*
X68492835Y-135985000D01*
X69367165Y-135985000D01*
X69625310Y-135933652D01*
X69918049Y-135738049D01*
X70113652Y-135445310D01*
X70182338Y-135100000D01*
X70133691Y-134855431D01*
X75335000Y-134855431D01*
X75335000Y-135744569D01*
X75675259Y-136566026D01*
X76303974Y-137194741D01*
X77125431Y-137535000D01*
X78014569Y-137535000D01*
X78836026Y-137194741D01*
X79464741Y-136566026D01*
X79805000Y-135744569D01*
X79805000Y-134855431D01*
X79464741Y-134033974D01*
X78836026Y-133405259D01*
X78014569Y-133065000D01*
X77125431Y-133065000D01*
X76303974Y-133405259D01*
X75675259Y-134033974D01*
X75335000Y-134855431D01*
X70133691Y-134855431D01*
X70113652Y-134754690D01*
X69918049Y-134461951D01*
X69625310Y-134266348D01*
X69367165Y-134215000D01*
X68492835Y-134215000D01*
X68234690Y-134266348D01*
X67941951Y-134461951D01*
X67746348Y-134754690D01*
X67677662Y-135100000D01*
X66362181Y-135100000D01*
X66363002Y-134825356D01*
X66979085Y-128500000D01*
X67677662Y-128500000D01*
X67746348Y-128845310D01*
X67941951Y-129138049D01*
X68234690Y-129333652D01*
X68492835Y-129385000D01*
X69367165Y-129385000D01*
X69625310Y-129333652D01*
X69918049Y-129138049D01*
X70113652Y-128845310D01*
X70182338Y-128500000D01*
X70113652Y-128154690D01*
X69918049Y-127861951D01*
X69625310Y-127666348D01*
X69367165Y-127615000D01*
X68492835Y-127615000D01*
X68234690Y-127666348D01*
X67941951Y-127861951D01*
X67746348Y-128154690D01*
X67677662Y-128500000D01*
X66979085Y-128500000D01*
X67115383Y-127100617D01*
X70665000Y-127100617D01*
X70665000Y-127472583D01*
X70807345Y-127816235D01*
X71070365Y-128079255D01*
X71414017Y-128221600D01*
X71785983Y-128221600D01*
X72129635Y-128079255D01*
X72392655Y-127816235D01*
X72535000Y-127472583D01*
X72535000Y-127100617D01*
X72392655Y-126756965D01*
X72129635Y-126493945D01*
X71785983Y-126351600D01*
X71414017Y-126351600D01*
X71070365Y-126493945D01*
X70807345Y-126756965D01*
X70665000Y-127100617D01*
X67115383Y-127100617D01*
X67584499Y-122284180D01*
X69585000Y-122284180D01*
X69585000Y-122715820D01*
X69750182Y-123114603D01*
X70055397Y-123419818D01*
X70454180Y-123585000D01*
X70885820Y-123585000D01*
X71284603Y-123419818D01*
X71589818Y-123114603D01*
X71755000Y-122715820D01*
X71755000Y-122284180D01*
X71589818Y-121885397D01*
X71284603Y-121580182D01*
X70885820Y-121415000D01*
X70454180Y-121415000D01*
X70055397Y-121580182D01*
X69750182Y-121885397D01*
X69585000Y-122284180D01*
X67584499Y-122284180D01*
X67816105Y-119906280D01*
X68001482Y-119284180D01*
X69585000Y-119284180D01*
X69585000Y-119715820D01*
X69750182Y-120114603D01*
X70055397Y-120419818D01*
X70454180Y-120585000D01*
X70885820Y-120585000D01*
X71284603Y-120419818D01*
X71589818Y-120114603D01*
X71755000Y-119715820D01*
X71755000Y-119284180D01*
X71589818Y-118885397D01*
X71284603Y-118580182D01*
X70885820Y-118415000D01*
X70454180Y-118415000D01*
X70055397Y-118580182D01*
X69750182Y-118885397D01*
X69585000Y-119284180D01*
X68001482Y-119284180D01*
X71920706Y-106131815D01*
X72668800Y-104722105D01*
X72668801Y-130878909D01*
X72587345Y-130960365D01*
X72445000Y-131304017D01*
X72445000Y-131675983D01*
X72587345Y-132019635D01*
X72850365Y-132282655D01*
X72865000Y-132288717D01*
X72865000Y-132585983D01*
X73007345Y-132929635D01*
X73270365Y-133192655D01*
X73614017Y-133335000D01*
X73985983Y-133335000D01*
X74329635Y-133192655D01*
X74592655Y-132929635D01*
X74735000Y-132585983D01*
X74735000Y-132429780D01*
X74754899Y-132400000D01*
X74769935Y-132377497D01*
X74811199Y-132170047D01*
X74811199Y-132170043D01*
X74825131Y-132100001D01*
X74811199Y-132029959D01*
X74811199Y-131775858D01*
X80475225Y-131775858D01*
X80475225Y-132147824D01*
X80617570Y-132491476D01*
X80880590Y-132754496D01*
X81224242Y-132896841D01*
X81596208Y-132896841D01*
X81939860Y-132754496D01*
X82202880Y-132491476D01*
X82345225Y-132147824D01*
X82345225Y-131775858D01*
X82202880Y-131432206D01*
X81939860Y-131169186D01*
X81596208Y-131026841D01*
X81224242Y-131026841D01*
X80880590Y-131169186D01*
X80617570Y-131432206D01*
X80475225Y-131775858D01*
X74811199Y-131775858D01*
X74811199Y-131427261D01*
X74825131Y-131357219D01*
X74811199Y-131287177D01*
X74811199Y-131287173D01*
X74769935Y-131079723D01*
X74612745Y-130844473D01*
X74553363Y-130804795D01*
X74511200Y-130762632D01*
X74511200Y-120339232D01*
X82323173Y-128151206D01*
X82323176Y-128151208D01*
X84915317Y-130743351D01*
X84832765Y-130777545D01*
X84569745Y-131040565D01*
X84427400Y-131384217D01*
X84427400Y-131756183D01*
X84536900Y-132020540D01*
X84536901Y-135595667D01*
X84534723Y-135597845D01*
X84270365Y-135707345D01*
X84007345Y-135970365D01*
X83865000Y-136314017D01*
X83865000Y-136685983D01*
X84007345Y-137029635D01*
X84270365Y-137292655D01*
X84614017Y-137435000D01*
X84985983Y-137435000D01*
X85301500Y-137304309D01*
X85301501Y-142903224D01*
X85285328Y-142984530D01*
X85323395Y-143175903D01*
X85349397Y-143306624D01*
X85531849Y-143579682D01*
X85600775Y-143625737D01*
X86181706Y-144206668D01*
X85890365Y-144327345D01*
X85627345Y-144590365D01*
X85485000Y-144934017D01*
X85485000Y-145305983D01*
X85627345Y-145649635D01*
X85890365Y-145912655D01*
X86234017Y-146055000D01*
X86605983Y-146055000D01*
X86949635Y-145912655D01*
X87212655Y-145649635D01*
X87333332Y-145358294D01*
X88498285Y-146523248D01*
X88607785Y-146787605D01*
X88870805Y-147050625D01*
X89214457Y-147192970D01*
X89586423Y-147192970D01*
X89930075Y-147050625D01*
X90193095Y-146787605D01*
X90335440Y-146443953D01*
X90335440Y-146071987D01*
X90193095Y-145728335D01*
X89930075Y-145465315D01*
X89665718Y-145355815D01*
X86952500Y-142642598D01*
X86952500Y-142025693D01*
X122923700Y-142025693D01*
X122923700Y-142374307D01*
X123057109Y-142696384D01*
X123303616Y-142942891D01*
X123625693Y-143076300D01*
X123974307Y-143076300D01*
X124296384Y-142942891D01*
X124542891Y-142696384D01*
X124676300Y-142374307D01*
X124676300Y-142025693D01*
X124542891Y-141703616D01*
X124296384Y-141457109D01*
X123974307Y-141323700D01*
X123625693Y-141323700D01*
X123303616Y-141457109D01*
X123057109Y-141703616D01*
X122923700Y-142025693D01*
X86952500Y-142025693D01*
X86952500Y-134775431D01*
X130975000Y-134775431D01*
X130975000Y-135664569D01*
X131315259Y-136486026D01*
X131943974Y-137114741D01*
X132765431Y-137455000D01*
X133654569Y-137455000D01*
X134476026Y-137114741D01*
X135104741Y-136486026D01*
X135445000Y-135664569D01*
X135445000Y-134775431D01*
X135104741Y-133953974D01*
X134476026Y-133325259D01*
X133654569Y-132985000D01*
X132765431Y-132985000D01*
X131943974Y-133325259D01*
X131315259Y-133953974D01*
X130975000Y-134775431D01*
X86952500Y-134775431D01*
X86952500Y-133750540D01*
X87062000Y-133486183D01*
X87062000Y-133114217D01*
X86952500Y-132849860D01*
X86952500Y-131914017D01*
X89365000Y-131914017D01*
X89365000Y-132285983D01*
X89507345Y-132629635D01*
X89770365Y-132892655D01*
X90114017Y-133035000D01*
X90485983Y-133035000D01*
X90829635Y-132892655D01*
X91092655Y-132629635D01*
X91099124Y-132614017D01*
X104465000Y-132614017D01*
X104465000Y-132985983D01*
X104607345Y-133329635D01*
X104870365Y-133592655D01*
X105214017Y-133735000D01*
X105585983Y-133735000D01*
X105929635Y-133592655D01*
X106192655Y-133329635D01*
X106335000Y-132985983D01*
X106335000Y-132614017D01*
X106192655Y-132270365D01*
X105936307Y-132014017D01*
X111665000Y-132014017D01*
X111665000Y-132385983D01*
X111807345Y-132729635D01*
X112070365Y-132992655D01*
X112414017Y-133135000D01*
X112785983Y-133135000D01*
X113129635Y-132992655D01*
X113392655Y-132729635D01*
X113535000Y-132385983D01*
X113535000Y-132214017D01*
X115865000Y-132214017D01*
X115865000Y-132585983D01*
X116007345Y-132929635D01*
X116270365Y-133192655D01*
X116614017Y-133335000D01*
X116985983Y-133335000D01*
X117329635Y-133192655D01*
X117592655Y-132929635D01*
X117735000Y-132585983D01*
X117735000Y-132214017D01*
X117592655Y-131870365D01*
X117329635Y-131607345D01*
X116985983Y-131465000D01*
X116614017Y-131465000D01*
X116270365Y-131607345D01*
X116007345Y-131870365D01*
X115865000Y-132214017D01*
X113535000Y-132214017D01*
X113535000Y-132014017D01*
X113392655Y-131670365D01*
X113129635Y-131407345D01*
X112785983Y-131265000D01*
X112414017Y-131265000D01*
X112070365Y-131407345D01*
X111807345Y-131670365D01*
X111665000Y-132014017D01*
X105936307Y-132014017D01*
X105929635Y-132007345D01*
X105585983Y-131865000D01*
X105214017Y-131865000D01*
X104870365Y-132007345D01*
X104607345Y-132270365D01*
X104465000Y-132614017D01*
X91099124Y-132614017D01*
X91235000Y-132285983D01*
X91235000Y-131914017D01*
X91092655Y-131570365D01*
X90829635Y-131307345D01*
X90485983Y-131165000D01*
X90114017Y-131165000D01*
X89770365Y-131307345D01*
X89507345Y-131570365D01*
X89365000Y-131914017D01*
X86952500Y-131914017D01*
X86952500Y-130868897D01*
X86968671Y-130787599D01*
X86952500Y-130706301D01*
X86952500Y-130706297D01*
X86904604Y-130465506D01*
X86870201Y-130414017D01*
X136065000Y-130414017D01*
X136065000Y-130785983D01*
X136207345Y-131129635D01*
X136470365Y-131392655D01*
X136814017Y-131535000D01*
X137185983Y-131535000D01*
X137529635Y-131392655D01*
X137792655Y-131129635D01*
X137935000Y-130785983D01*
X137935000Y-130414017D01*
X137792655Y-130070365D01*
X137529635Y-129807345D01*
X137185983Y-129665000D01*
X136814017Y-129665000D01*
X136470365Y-129807345D01*
X136207345Y-130070365D01*
X136065000Y-130414017D01*
X86870201Y-130414017D01*
X86722152Y-130192448D01*
X86653229Y-130146395D01*
X83732526Y-127225693D01*
X97723700Y-127225693D01*
X97723700Y-127574307D01*
X97857109Y-127896384D01*
X98103616Y-128142891D01*
X98425693Y-128276300D01*
X98774307Y-128276300D01*
X99096384Y-128142891D01*
X99342891Y-127896384D01*
X99476300Y-127574307D01*
X99476300Y-127225693D01*
X99342891Y-126903616D01*
X99096384Y-126657109D01*
X98774307Y-126523700D01*
X98425693Y-126523700D01*
X98103616Y-126657109D01*
X97857109Y-126903616D01*
X97723700Y-127225693D01*
X83732526Y-127225693D01*
X83490608Y-126983776D01*
X83490606Y-126983773D01*
X79051832Y-122545000D01*
X79305983Y-122545000D01*
X79649635Y-122402655D01*
X79912655Y-122139635D01*
X80055000Y-121795983D01*
X80055000Y-121424017D01*
X79912655Y-121080365D01*
X79649635Y-120817345D01*
X79305983Y-120675000D01*
X78934017Y-120675000D01*
X78590365Y-120817345D01*
X78327345Y-121080365D01*
X78185000Y-121424017D01*
X78185000Y-121678168D01*
X75393856Y-118887024D01*
X75284355Y-118622665D01*
X75021335Y-118359645D01*
X74982824Y-118343693D01*
X91619500Y-118343693D01*
X91619500Y-118692307D01*
X91752909Y-119014384D01*
X91999416Y-119260891D01*
X92321493Y-119394300D01*
X92670107Y-119394300D01*
X92963997Y-119272567D01*
X93059875Y-119368445D01*
X93403527Y-119510790D01*
X93775493Y-119510790D01*
X94119145Y-119368445D01*
X94382165Y-119105425D01*
X94524510Y-118761773D01*
X94524510Y-118389807D01*
X94382165Y-118046155D01*
X94119145Y-117783135D01*
X93775493Y-117640790D01*
X93403527Y-117640790D01*
X93059875Y-117783135D01*
X93030043Y-117812968D01*
X92992184Y-117775109D01*
X92670107Y-117641700D01*
X92321493Y-117641700D01*
X91999416Y-117775109D01*
X91752909Y-118021616D01*
X91619500Y-118343693D01*
X74982824Y-118343693D01*
X74677683Y-118217300D01*
X74511200Y-118217300D01*
X74511200Y-113807117D01*
X79659400Y-113807117D01*
X79659400Y-114179083D01*
X79801745Y-114522735D01*
X80064765Y-114785755D01*
X80408417Y-114928100D01*
X80780383Y-114928100D01*
X81124035Y-114785755D01*
X81387055Y-114522735D01*
X81529400Y-114179083D01*
X81529400Y-113807117D01*
X81387055Y-113463465D01*
X81124035Y-113200445D01*
X80780383Y-113058100D01*
X80408417Y-113058100D01*
X80064765Y-113200445D01*
X79801745Y-113463465D01*
X79659400Y-113807117D01*
X74511200Y-113807117D01*
X74511200Y-104920817D01*
X80273500Y-104920817D01*
X80273500Y-105292783D01*
X80415845Y-105636435D01*
X80678865Y-105899455D01*
X81022517Y-106041800D01*
X81394483Y-106041800D01*
X81738135Y-105899455D01*
X82001155Y-105636435D01*
X82143500Y-105292783D01*
X82143500Y-104920817D01*
X82001155Y-104577165D01*
X81976806Y-104552816D01*
X82225135Y-104449955D01*
X82488155Y-104186935D01*
X82630500Y-103843283D01*
X82630500Y-103471317D01*
X82488155Y-103127665D01*
X82225135Y-102864645D01*
X81881483Y-102722300D01*
X81509517Y-102722300D01*
X81165865Y-102864645D01*
X80902845Y-103127665D01*
X80760500Y-103471317D01*
X80760500Y-103843283D01*
X80902845Y-104186935D01*
X80927194Y-104211284D01*
X80678865Y-104314145D01*
X80415845Y-104577165D01*
X80273500Y-104920817D01*
X74511200Y-104920817D01*
X74511200Y-104412972D01*
X80299183Y-98624990D01*
X80753700Y-98624990D01*
X80753700Y-98794307D01*
X80887109Y-99116384D01*
X81133616Y-99362891D01*
X81455693Y-99496300D01*
X81804307Y-99496300D01*
X82126384Y-99362891D01*
X82372891Y-99116384D01*
X82506300Y-98794307D01*
X82506300Y-98624990D01*
X85165000Y-98624990D01*
X85165000Y-98805983D01*
X85307345Y-99149635D01*
X85570365Y-99412655D01*
X85698801Y-99465855D01*
X85698800Y-101079953D01*
X85698800Y-101340045D01*
X85698801Y-101340050D01*
X85698800Y-106359958D01*
X85684868Y-106430000D01*
X85698800Y-106500041D01*
X85698800Y-106500045D01*
X85740064Y-106707495D01*
X85740065Y-106707496D01*
X85857576Y-106883364D01*
X85857578Y-106883366D01*
X85884012Y-106922926D01*
X85662723Y-107014587D01*
X85399703Y-107277607D01*
X85257358Y-107621259D01*
X85257358Y-107993225D01*
X85399703Y-108336877D01*
X85662723Y-108599897D01*
X86006375Y-108742242D01*
X86121570Y-108742242D01*
X98832694Y-121453367D01*
X98872370Y-121512746D01*
X98931749Y-121552422D01*
X98931751Y-121552424D01*
X99107618Y-121669935D01*
X99107619Y-121669935D01*
X99107620Y-121669936D01*
X99315070Y-121711200D01*
X99315073Y-121711200D01*
X99385115Y-121725132D01*
X99455157Y-121711200D01*
X114279525Y-121711200D01*
X114081109Y-121909616D01*
X113947700Y-122231693D01*
X113947700Y-122580307D01*
X114081109Y-122902384D01*
X114327616Y-123148891D01*
X114649693Y-123282300D01*
X114998307Y-123282300D01*
X115320384Y-123148891D01*
X115566891Y-122902384D01*
X115700300Y-122580307D01*
X115700300Y-122231693D01*
X115566891Y-121909616D01*
X115368475Y-121711200D01*
X128788910Y-121711200D01*
X128870365Y-121792655D01*
X129214017Y-121935000D01*
X129585983Y-121935000D01*
X129795801Y-121848091D01*
X129970365Y-122022655D01*
X130314017Y-122165000D01*
X130685983Y-122165000D01*
X131029635Y-122022655D01*
X131140086Y-121912204D01*
X131201760Y-121899936D01*
X131437010Y-121742746D01*
X131476688Y-121683364D01*
X133507159Y-119652894D01*
X133566535Y-119613220D01*
X133606210Y-119553843D01*
X133606214Y-119553839D01*
X133701092Y-119411844D01*
X133723726Y-119377970D01*
X133764990Y-119170520D01*
X133764990Y-119170516D01*
X133778922Y-119100474D01*
X133764990Y-119030432D01*
X133764990Y-97765740D01*
X133778922Y-97695698D01*
X133764990Y-97625656D01*
X133764990Y-97625653D01*
X133723726Y-97418203D01*
X133723725Y-97418201D01*
X133606214Y-97242334D01*
X133606212Y-97242332D01*
X133566536Y-97182953D01*
X133507157Y-97143277D01*
X104907897Y-68544017D01*
X123315000Y-68544017D01*
X123315000Y-68915983D01*
X123457345Y-69259635D01*
X123720365Y-69522655D01*
X124064017Y-69665000D01*
X124435983Y-69665000D01*
X124779635Y-69522655D01*
X125042655Y-69259635D01*
X125185000Y-68915983D01*
X125185000Y-68544017D01*
X125042655Y-68200365D01*
X124779635Y-67937345D01*
X124435983Y-67795000D01*
X124064017Y-67795000D01*
X123720365Y-67937345D01*
X123457345Y-68200365D01*
X123315000Y-68544017D01*
X104907897Y-68544017D01*
X104456497Y-68092618D01*
X104456497Y-67977423D01*
X104314152Y-67633771D01*
X104051132Y-67370751D01*
X103707480Y-67228406D01*
X103601200Y-67228406D01*
X103601200Y-66524017D01*
X117575000Y-66524017D01*
X117575000Y-66895983D01*
X117717345Y-67239635D01*
X117980365Y-67502655D01*
X118324017Y-67645000D01*
X118695983Y-67645000D01*
X119039635Y-67502655D01*
X119302655Y-67239635D01*
X119445000Y-66895983D01*
X119445000Y-66524017D01*
X119302655Y-66180365D01*
X119039635Y-65917345D01*
X118695983Y-65775000D01*
X118324017Y-65775000D01*
X117980365Y-65917345D01*
X117717345Y-66180365D01*
X117575000Y-66524017D01*
X103601200Y-66524017D01*
X103601200Y-63734588D01*
X103761771Y-63574017D01*
X115595000Y-63574017D01*
X115595000Y-63945983D01*
X115737345Y-64289635D01*
X116000365Y-64552655D01*
X116344017Y-64695000D01*
X116715983Y-64695000D01*
X117059635Y-64552655D01*
X117322655Y-64289635D01*
X117465000Y-63945983D01*
X117465000Y-63574017D01*
X117322655Y-63230365D01*
X117059635Y-62967345D01*
X116715983Y-62825000D01*
X116344017Y-62825000D01*
X116000365Y-62967345D01*
X115737345Y-63230365D01*
X115595000Y-63574017D01*
X103761771Y-63574017D01*
X105131771Y-62204017D01*
X105955000Y-62204017D01*
X105955000Y-62575983D01*
X106097345Y-62919635D01*
X106360365Y-63182655D01*
X106704017Y-63325000D01*
X107075983Y-63325000D01*
X107419635Y-63182655D01*
X107682655Y-62919635D01*
X107825000Y-62575983D01*
X107825000Y-62204017D01*
X107682655Y-61860365D01*
X107419635Y-61597345D01*
X107075983Y-61455000D01*
X106704017Y-61455000D01*
X106360365Y-61597345D01*
X106097345Y-61860365D01*
X105955000Y-62204017D01*
X105131771Y-62204017D01*
X108101771Y-59234017D01*
X110905000Y-59234017D01*
X110905000Y-59605983D01*
X111047345Y-59949635D01*
X111310365Y-60212655D01*
X111654017Y-60355000D01*
X112025983Y-60355000D01*
X112369635Y-60212655D01*
X112632655Y-59949635D01*
X112775000Y-59605983D01*
X112775000Y-59234017D01*
X112632655Y-58890365D01*
X112369635Y-58627345D01*
X112025983Y-58485000D01*
X111654017Y-58485000D01*
X111310365Y-58627345D01*
X111047345Y-58890365D01*
X110905000Y-59234017D01*
X108101771Y-59234017D01*
X109000095Y-58335693D01*
X115293700Y-58335693D01*
X115293700Y-58684307D01*
X115427109Y-59006384D01*
X115673616Y-59252891D01*
X115995693Y-59386300D01*
X116344307Y-59386300D01*
X116666384Y-59252891D01*
X116912891Y-59006384D01*
X117046300Y-58684307D01*
X117046300Y-58400510D01*
X121553070Y-58400510D01*
X121553070Y-60399490D01*
X121602353Y-60647255D01*
X121742701Y-60857299D01*
X121952745Y-60997647D01*
X122200510Y-61046930D01*
X124199490Y-61046930D01*
X124447255Y-60997647D01*
X124657299Y-60857299D01*
X124797647Y-60647255D01*
X124846930Y-60399490D01*
X124846930Y-59074880D01*
X125375510Y-59074880D01*
X125375510Y-59725120D01*
X125624346Y-60325864D01*
X126084136Y-60785654D01*
X126684880Y-61034490D01*
X127335120Y-61034490D01*
X127935864Y-60785654D01*
X128395654Y-60325864D01*
X128644490Y-59725120D01*
X128644490Y-59074880D01*
X128395654Y-58474136D01*
X127935864Y-58014346D01*
X127335120Y-57765510D01*
X126684880Y-57765510D01*
X126084136Y-58014346D01*
X125624346Y-58474136D01*
X125375510Y-59074880D01*
X124846930Y-59074880D01*
X124846930Y-58400510D01*
X124797647Y-58152745D01*
X124657299Y-57942701D01*
X124447255Y-57802353D01*
X124199490Y-57753070D01*
X122200510Y-57753070D01*
X121952745Y-57802353D01*
X121742701Y-57942701D01*
X121602353Y-58152745D01*
X121553070Y-58400510D01*
X117046300Y-58400510D01*
X117046300Y-58335693D01*
X116912891Y-58013616D01*
X116666384Y-57767109D01*
X116344307Y-57633700D01*
X115995693Y-57633700D01*
X115673616Y-57767109D01*
X115427109Y-58013616D01*
X115293700Y-58335693D01*
X109000095Y-58335693D01*
X109844677Y-57491112D01*
X109906307Y-57491112D01*
X109976348Y-57505044D01*
X110046389Y-57491112D01*
X110046394Y-57491112D01*
X110253844Y-57449848D01*
X110489094Y-57292658D01*
X110528772Y-57233276D01*
X110968379Y-56793669D01*
X111027756Y-56753995D01*
X111067431Y-56694618D01*
X111067435Y-56694614D01*
X111169979Y-56541146D01*
X111184947Y-56518745D01*
X111197215Y-56457071D01*
X111257902Y-56396384D01*
X111391311Y-56074307D01*
X111391311Y-55985265D01*
X113625990Y-55985265D01*
X113657681Y-56016956D01*
X113979758Y-56150365D01*
X114328372Y-56150365D01*
X114650449Y-56016956D01*
X114886955Y-55780450D01*
X114997109Y-56046384D01*
X115243616Y-56292891D01*
X115565693Y-56426300D01*
X115914307Y-56426300D01*
X116236384Y-56292891D01*
X116482891Y-56046384D01*
X116616300Y-55724307D01*
X116616300Y-55375693D01*
X116482891Y-55053616D01*
X116236384Y-54807109D01*
X115914307Y-54673700D01*
X115565693Y-54673700D01*
X115243616Y-54807109D01*
X115007110Y-55043615D01*
X114896956Y-54777681D01*
X114650449Y-54531174D01*
X114328372Y-54397765D01*
X113979758Y-54397765D01*
X113657681Y-54531174D01*
X113625990Y-54562865D01*
X111236300Y-54562865D01*
X111236300Y-54515693D01*
X111102891Y-54193616D01*
X110856384Y-53947109D01*
X110534307Y-53813700D01*
X110185693Y-53813700D01*
X109863616Y-53947109D01*
X109831925Y-53978800D01*
X109774139Y-53978800D01*
X109704097Y-53964868D01*
X109634055Y-53978800D01*
X109634052Y-53978800D01*
X109426602Y-54020064D01*
X109426601Y-54020065D01*
X109426600Y-54020065D01*
X109250733Y-54137576D01*
X109250731Y-54137578D01*
X109191352Y-54177254D01*
X109151676Y-54236633D01*
X108309133Y-55079177D01*
X108249754Y-55118853D01*
X108210077Y-55178233D01*
X108210075Y-55178235D01*
X108175444Y-55230064D01*
X108092563Y-55354103D01*
X108068744Y-55473851D01*
X106301200Y-57241395D01*
X106301200Y-54297980D01*
X106345766Y-54405572D01*
X106608786Y-54668592D01*
X106952438Y-54810937D01*
X107324404Y-54810937D01*
X107668056Y-54668592D01*
X107931076Y-54405572D01*
X108073421Y-54061920D01*
X108073421Y-53689954D01*
X107931076Y-53346302D01*
X107668056Y-53083282D01*
X107324404Y-52940937D01*
X106952438Y-52940937D01*
X106608786Y-53083282D01*
X106345766Y-53346302D01*
X106203421Y-53689954D01*
X106203421Y-53797923D01*
X106142424Y-53706635D01*
X106142422Y-53706633D01*
X106102746Y-53647254D01*
X106043366Y-53607578D01*
X105936300Y-53500511D01*
X105936300Y-53455693D01*
X105802891Y-53133616D01*
X105556384Y-52887109D01*
X105234307Y-52753700D01*
X104885693Y-52753700D01*
X104563616Y-52887109D01*
X104317109Y-53133616D01*
X104183700Y-53455693D01*
X104183700Y-53804307D01*
X104317109Y-54126384D01*
X104563616Y-54372891D01*
X104878801Y-54503445D01*
X104878800Y-57735411D01*
X100286634Y-62327578D01*
X100227255Y-62367254D01*
X100187579Y-62426633D01*
X100187576Y-62426636D01*
X100070065Y-62602504D01*
X100014868Y-62880000D01*
X100028801Y-62950046D01*
X100028800Y-68529958D01*
X100014868Y-68600000D01*
X100028800Y-68670041D01*
X100028800Y-68670045D01*
X100070064Y-68877495D01*
X100070065Y-68877496D01*
X100187576Y-69053364D01*
X100187578Y-69053366D01*
X100227254Y-69112745D01*
X100286634Y-69152422D01*
X102623012Y-71488800D01*
X99987300Y-71488800D01*
X99905845Y-71407345D01*
X99562193Y-71265000D01*
X99190227Y-71265000D01*
X98846575Y-71407345D01*
X98583555Y-71670365D01*
X98441210Y-72014017D01*
X98441210Y-72385983D01*
X98583555Y-72729635D01*
X98846575Y-72992655D01*
X99190227Y-73135000D01*
X99562193Y-73135000D01*
X99905845Y-72992655D01*
X99987300Y-72911200D01*
X103547028Y-72911200D01*
X106856942Y-76221114D01*
X106820884Y-76257172D01*
X106678539Y-76600824D01*
X106678539Y-76972790D01*
X106820884Y-77316442D01*
X107083904Y-77579462D01*
X107384530Y-77703985D01*
X107263700Y-77995693D01*
X107263700Y-78344307D01*
X107397109Y-78666384D01*
X107643616Y-78912891D01*
X107965693Y-79046300D01*
X108010512Y-79046300D01*
X108428801Y-79464590D01*
X108428800Y-102565578D01*
X108185983Y-102465000D01*
X107857290Y-102465000D01*
X107992655Y-102329635D01*
X108135000Y-101985983D01*
X108135000Y-101614017D01*
X107992655Y-101270365D01*
X107729635Y-101007345D01*
X107385983Y-100865000D01*
X107014017Y-100865000D01*
X106670365Y-101007345D01*
X106407345Y-101270365D01*
X106265000Y-101614017D01*
X106265000Y-101985983D01*
X106407345Y-102329635D01*
X106670365Y-102592655D01*
X107014017Y-102735000D01*
X107342710Y-102735000D01*
X107207345Y-102870365D01*
X107065000Y-103214017D01*
X107065000Y-103585983D01*
X107207345Y-103929635D01*
X107470365Y-104192655D01*
X107814017Y-104335000D01*
X108185983Y-104335000D01*
X108428800Y-104234422D01*
X108428800Y-108204583D01*
X108402575Y-108209800D01*
X92652590Y-108209800D01*
X92571135Y-108128345D01*
X92227483Y-107986000D01*
X91855517Y-107986000D01*
X91511865Y-108128345D01*
X91248845Y-108391365D01*
X91106500Y-108735017D01*
X91106500Y-109106983D01*
X91248845Y-109450635D01*
X91511865Y-109713655D01*
X91855517Y-109856000D01*
X92227483Y-109856000D01*
X92571135Y-109713655D01*
X92652590Y-109632200D01*
X108178028Y-109632200D01*
X112551605Y-114005778D01*
X112591281Y-114065157D01*
X112650660Y-114104833D01*
X112650662Y-114104835D01*
X112826529Y-114222346D01*
X112826530Y-114222346D01*
X112826531Y-114222347D01*
X113033981Y-114263611D01*
X113033984Y-114263611D01*
X113104026Y-114277543D01*
X113174068Y-114263611D01*
X125529371Y-114263611D01*
X129189559Y-117923800D01*
X110068271Y-117923800D01*
X109942891Y-117621106D01*
X109696384Y-117374599D01*
X109374307Y-117241190D01*
X109025693Y-117241190D01*
X108703616Y-117374599D01*
X108457109Y-117621106D01*
X108346226Y-117888800D01*
X98511447Y-117888800D01*
X98525132Y-117819999D01*
X98511200Y-117749957D01*
X98511200Y-117749954D01*
X98469936Y-117542504D01*
X98357745Y-117374599D01*
X98352424Y-117366635D01*
X98352422Y-117366633D01*
X98312746Y-117307254D01*
X98253367Y-117267578D01*
X93929482Y-112943693D01*
X106323700Y-112943693D01*
X106323700Y-113292307D01*
X106457109Y-113614384D01*
X106703616Y-113860891D01*
X107025693Y-113994300D01*
X107374307Y-113994300D01*
X107696384Y-113860891D01*
X107942891Y-113614384D01*
X108076300Y-113292307D01*
X108076300Y-112943693D01*
X107942891Y-112621616D01*
X107696384Y-112375109D01*
X107374307Y-112241700D01*
X107025693Y-112241700D01*
X106703616Y-112375109D01*
X106457109Y-112621616D01*
X106323700Y-112943693D01*
X93929482Y-112943693D01*
X87121200Y-106135412D01*
X87121200Y-104414017D01*
X105065000Y-104414017D01*
X105065000Y-104785983D01*
X105207345Y-105129635D01*
X105470365Y-105392655D01*
X105814017Y-105535000D01*
X106185983Y-105535000D01*
X106529635Y-105392655D01*
X106792655Y-105129635D01*
X106935000Y-104785983D01*
X106935000Y-104414017D01*
X106792655Y-104070365D01*
X106529635Y-103807345D01*
X106185983Y-103665000D01*
X105814017Y-103665000D01*
X105470365Y-103807345D01*
X105207345Y-104070365D01*
X105065000Y-104414017D01*
X87121200Y-104414017D01*
X87121200Y-101223963D01*
X100315000Y-101223963D01*
X100315000Y-101576037D01*
X100449190Y-101900000D01*
X100315000Y-102223963D01*
X100315000Y-102576037D01*
X100449190Y-102900000D01*
X100315000Y-103223963D01*
X100315000Y-103576037D01*
X100449733Y-103901312D01*
X100698688Y-104150267D01*
X101023963Y-104285000D01*
X101376037Y-104285000D01*
X101700000Y-104150810D01*
X102023963Y-104285000D01*
X102376037Y-104285000D01*
X102700000Y-104150810D01*
X103023963Y-104285000D01*
X103376037Y-104285000D01*
X103701312Y-104150267D01*
X103950267Y-103901312D01*
X104085000Y-103576037D01*
X104085000Y-103223963D01*
X103950810Y-102900000D01*
X104085000Y-102576037D01*
X104085000Y-102223963D01*
X103950810Y-101900000D01*
X104085000Y-101576037D01*
X104085000Y-101223963D01*
X103950267Y-100898688D01*
X103701312Y-100649733D01*
X103376037Y-100515000D01*
X103023963Y-100515000D01*
X102700000Y-100649190D01*
X102376037Y-100515000D01*
X102023963Y-100515000D01*
X101700000Y-100649190D01*
X101376037Y-100515000D01*
X101023963Y-100515000D01*
X100698688Y-100649733D01*
X100449733Y-100898688D01*
X100315000Y-101223963D01*
X87121200Y-101223963D01*
X87121200Y-99000041D01*
X87135132Y-98929999D01*
X87121200Y-98859957D01*
X87121200Y-98859954D01*
X87079936Y-98652504D01*
X87061552Y-98624990D01*
X99188910Y-98624990D01*
X99270365Y-98706445D01*
X99614017Y-98848790D01*
X99985983Y-98848790D01*
X100329635Y-98706445D01*
X100423014Y-98613066D01*
X101033314Y-99223367D01*
X101072990Y-99282746D01*
X101132369Y-99322422D01*
X101132371Y-99322424D01*
X101248072Y-99399733D01*
X101308240Y-99439936D01*
X101369914Y-99452204D01*
X101480365Y-99562655D01*
X101824017Y-99705000D01*
X102195983Y-99705000D01*
X102539635Y-99562655D01*
X102802655Y-99299635D01*
X102883419Y-99104653D01*
X103054217Y-99175400D01*
X103426183Y-99175400D01*
X103769835Y-99033055D01*
X104032855Y-98770035D01*
X104175200Y-98426383D01*
X104175200Y-98054417D01*
X104032855Y-97710765D01*
X103769835Y-97447745D01*
X103426183Y-97305400D01*
X103054217Y-97305400D01*
X102710565Y-97447745D01*
X102447545Y-97710765D01*
X102366781Y-97905747D01*
X102195983Y-97835000D01*
X101824017Y-97835000D01*
X101705582Y-97884057D01*
X100608160Y-96786636D01*
X100568482Y-96727254D01*
X100333232Y-96570064D01*
X100125782Y-96528800D01*
X100125777Y-96528800D01*
X100055736Y-96514868D01*
X99985695Y-96528800D01*
X85011153Y-96528800D01*
X85122500Y-96259983D01*
X85122500Y-95888017D01*
X84980155Y-95544365D01*
X84717135Y-95281345D01*
X84373483Y-95139000D01*
X84001517Y-95139000D01*
X83657865Y-95281345D01*
X83394845Y-95544365D01*
X83252500Y-95888017D01*
X83252500Y-96259983D01*
X83363847Y-96528800D01*
X80250041Y-96528800D01*
X80179999Y-96514868D01*
X80109957Y-96528800D01*
X80109954Y-96528800D01*
X79902504Y-96570064D01*
X79902503Y-96570065D01*
X79902502Y-96570065D01*
X79726635Y-96687576D01*
X79726633Y-96687578D01*
X79667254Y-96727254D01*
X79627578Y-96786633D01*
X73773156Y-102641055D01*
X78647105Y-93456584D01*
X81584648Y-89805517D01*
X89857600Y-89805517D01*
X89857600Y-90177483D01*
X89999945Y-90521135D01*
X90262965Y-90784155D01*
X90606617Y-90926500D01*
X90978583Y-90926500D01*
X91322235Y-90784155D01*
X91585255Y-90521135D01*
X91727600Y-90177483D01*
X91727600Y-89805517D01*
X92372100Y-89805517D01*
X92372100Y-90177483D01*
X92514445Y-90521135D01*
X92777465Y-90784155D01*
X93121117Y-90926500D01*
X93167299Y-90926500D01*
X96642400Y-94401602D01*
X96642400Y-94690805D01*
X96784745Y-95034457D01*
X97047765Y-95297477D01*
X97391417Y-95439822D01*
X97763383Y-95439822D01*
X98107035Y-95297477D01*
X98370055Y-95034457D01*
X98512400Y-94690805D01*
X98512400Y-94318839D01*
X98370055Y-93975187D01*
X98158736Y-93763868D01*
X98125329Y-93713871D01*
X98061873Y-93671471D01*
X94242100Y-89851699D01*
X94242100Y-89805517D01*
X94099755Y-89461865D01*
X93836735Y-89198845D01*
X93493083Y-89056500D01*
X93121117Y-89056500D01*
X92777465Y-89198845D01*
X92514445Y-89461865D01*
X92372100Y-89805517D01*
X91727600Y-89805517D01*
X91585255Y-89461865D01*
X91322235Y-89198845D01*
X90978583Y-89056500D01*
X90606617Y-89056500D01*
X90262965Y-89198845D01*
X89999945Y-89461865D01*
X89857600Y-89805517D01*
X81584648Y-89805517D01*
X84960790Y-85609317D01*
X89492400Y-85609317D01*
X89492400Y-85981283D01*
X89634745Y-86324935D01*
X89897765Y-86587955D01*
X90241417Y-86730300D01*
X90613383Y-86730300D01*
X90957035Y-86587955D01*
X91220055Y-86324935D01*
X91362400Y-85981283D01*
X91362400Y-85609317D01*
X91220055Y-85265665D01*
X90957035Y-85002645D01*
X90613383Y-84860300D01*
X90241417Y-84860300D01*
X89897765Y-85002645D01*
X89634745Y-85265665D01*
X89492400Y-85609317D01*
X84960790Y-85609317D01*
X87996862Y-81835790D01*
X88611309Y-81153642D01*
X88656339Y-81123599D01*
X88708267Y-81046001D01*
X88721369Y-81031455D01*
X88748464Y-80985932D01*
X88777911Y-80941928D01*
X88785412Y-80923855D01*
X88806980Y-80887617D01*
X92532500Y-80887617D01*
X92532500Y-81259583D01*
X92674845Y-81603235D01*
X92937865Y-81866255D01*
X93281517Y-82008600D01*
X93653483Y-82008600D01*
X93997135Y-81866255D01*
X94260155Y-81603235D01*
X94402500Y-81259583D01*
X94402500Y-80887617D01*
X94260155Y-80543965D01*
X93997135Y-80280945D01*
X93653483Y-80138600D01*
X93281517Y-80138600D01*
X92937865Y-80280945D01*
X92674845Y-80543965D01*
X92532500Y-80887617D01*
X88806980Y-80887617D01*
X88833171Y-80843614D01*
X88840949Y-80790041D01*
X89007882Y-80387825D01*
X89056749Y-80303713D01*
X89073119Y-80181927D01*
X89097175Y-80061425D01*
X89092492Y-80037795D01*
X89095701Y-80013919D01*
X89064218Y-79895132D01*
X89040331Y-79774604D01*
X88986345Y-79693686D01*
X88792250Y-79297394D01*
X88782510Y-79248212D01*
X88728505Y-79167242D01*
X88718159Y-79146118D01*
X88688424Y-79107149D01*
X88661216Y-79066355D01*
X88644592Y-79049703D01*
X88585557Y-78972334D01*
X88542208Y-78947149D01*
X87902647Y-78306525D01*
X87892716Y-78293005D01*
X87851587Y-78255380D01*
X87812211Y-78215939D01*
X87798274Y-78206610D01*
X85879812Y-76451612D01*
X83951247Y-74659001D01*
X82160629Y-72781955D01*
X80591736Y-70720194D01*
X78941544Y-67805229D01*
X77731855Y-64756195D01*
X76982485Y-61566261D01*
X76727626Y-58400510D01*
X82553070Y-58400510D01*
X82553070Y-60399490D01*
X82602353Y-60647255D01*
X82742701Y-60857299D01*
X82952745Y-60997647D01*
X83200510Y-61046930D01*
X85199490Y-61046930D01*
X85447255Y-60997647D01*
X85657299Y-60857299D01*
X85797647Y-60647255D01*
X85846930Y-60399490D01*
X85846930Y-59074880D01*
X86375510Y-59074880D01*
X86375510Y-59725120D01*
X86624346Y-60325864D01*
X87084136Y-60785654D01*
X87684880Y-61034490D01*
X88335120Y-61034490D01*
X88935864Y-60785654D01*
X89395654Y-60325864D01*
X89644490Y-59725120D01*
X89644490Y-59074880D01*
X89395654Y-58474136D01*
X88935864Y-58014346D01*
X88335120Y-57765510D01*
X87684880Y-57765510D01*
X87084136Y-58014346D01*
X86624346Y-58474136D01*
X86375510Y-59074880D01*
X85846930Y-59074880D01*
X85846930Y-58400510D01*
X85797647Y-58152745D01*
X85657299Y-57942701D01*
X85447255Y-57802353D01*
X85199490Y-57753070D01*
X83200510Y-57753070D01*
X82952745Y-57802353D01*
X82742701Y-57942701D01*
X82602353Y-58152745D01*
X82553070Y-58400510D01*
X76727626Y-58400510D01*
X76711205Y-58196548D01*
X76696439Y-54700996D01*
X76693314Y-51178434D01*
X76693718Y-50854017D01*
X93895000Y-50854017D01*
X93895000Y-51225983D01*
X94037345Y-51569635D01*
X94300365Y-51832655D01*
X94644017Y-51975000D01*
X95015983Y-51975000D01*
X95359635Y-51832655D01*
X95448273Y-51744017D01*
X111505000Y-51744017D01*
X111505000Y-52115983D01*
X111647345Y-52459635D01*
X111910365Y-52722655D01*
X112254017Y-52865000D01*
X112625983Y-52865000D01*
X112969635Y-52722655D01*
X113232655Y-52459635D01*
X113375000Y-52115983D01*
X113375000Y-51744017D01*
X113232655Y-51400365D01*
X112969635Y-51137345D01*
X112625983Y-50995000D01*
X112254017Y-50995000D01*
X111910365Y-51137345D01*
X111647345Y-51400365D01*
X111505000Y-51744017D01*
X95448273Y-51744017D01*
X95622655Y-51569635D01*
X95765000Y-51225983D01*
X95765000Y-50854017D01*
X95622655Y-50510365D01*
X95359635Y-50247345D01*
X95015983Y-50105000D01*
X94644017Y-50105000D01*
X94300365Y-50247345D01*
X94037345Y-50510365D01*
X93895000Y-50854017D01*
X76693718Y-50854017D01*
X76697703Y-47654388D01*
X76703571Y-44955431D01*
X94365000Y-44955431D01*
X94365000Y-45844569D01*
X94705259Y-46666026D01*
X95333974Y-47294741D01*
X96155431Y-47635000D01*
X97044569Y-47635000D01*
X97866026Y-47294741D01*
X98494741Y-46666026D01*
X98835000Y-45844569D01*
X98835000Y-44955431D01*
X98494741Y-44133974D01*
X97866026Y-43505259D01*
X97044569Y-43165000D01*
X96155431Y-43165000D01*
X95333974Y-43505259D01*
X94705259Y-44133974D01*
X94365000Y-44955431D01*
X76703571Y-44955431D01*
X76705235Y-44190633D01*
X77020245Y-42311643D01*
X77845963Y-40987474D01*
X79141328Y-40143910D01*
X80984595Y-39815304D01*
X83421584Y-39806160D01*
X85923371Y-39808079D01*
X88353159Y-39811149D01*
X88354442Y-39811401D01*
X88425500Y-39811240D01*
X88496624Y-39811330D01*
X88497908Y-39811076D01*
X90895753Y-39805648D01*
X93654062Y-40050433D01*
X96145029Y-40804810D01*
X98420072Y-42079141D01*
X100509617Y-43906642D01*
X101146484Y-44623608D01*
X101821982Y-45410350D01*
X101828260Y-45420688D01*
X101869076Y-45465200D01*
X101908413Y-45511015D01*
X101917930Y-45518478D01*
X102400127Y-46044336D01*
X102400163Y-46044435D01*
X102496542Y-46149482D01*
X102547782Y-46205361D01*
X102547871Y-46205426D01*
X102547945Y-46205507D01*
X102608775Y-46250050D01*
X102724112Y-46334557D01*
X102724215Y-46334582D01*
X102871720Y-46442594D01*
X102873758Y-46445872D01*
X102989457Y-46528807D01*
X103044960Y-46569450D01*
X103048370Y-46571037D01*
X103111410Y-46616226D01*
X103179627Y-46632142D01*
X103243133Y-46661707D01*
X103320629Y-46665041D01*
X103396163Y-46682665D01*
X103465278Y-46671265D01*
X103535263Y-46674276D01*
X103608131Y-46647702D01*
X103684664Y-46635078D01*
X103744159Y-46598094D01*
X103809966Y-46574095D01*
X103867118Y-46521659D01*
X103932994Y-46480708D01*
X103973806Y-46423773D01*
X104025423Y-46376415D01*
X104058158Y-46306098D01*
X104060348Y-46303043D01*
X104088732Y-46240422D01*
X104148829Y-46111331D01*
X104148995Y-46107473D01*
X104221206Y-45948164D01*
X104249060Y-45915398D01*
X104281076Y-45816080D01*
X104293691Y-45788250D01*
X104303238Y-45747331D01*
X104316128Y-45707346D01*
X104319649Y-45676997D01*
X104343360Y-45575373D01*
X104336361Y-45532941D01*
X104426165Y-44758843D01*
X104432194Y-44734679D01*
X104434487Y-44687107D01*
X104439977Y-44639784D01*
X104437965Y-44614954D01*
X104487311Y-43591205D01*
X104489850Y-43579404D01*
X104490792Y-43518975D01*
X104493700Y-43458649D01*
X104491919Y-43446717D01*
X104505666Y-42565075D01*
X104507244Y-42556838D01*
X104506793Y-42492763D01*
X104507792Y-42428704D01*
X104506284Y-42420455D01*
X104503899Y-42081473D01*
X104504115Y-42080328D01*
X104503390Y-42009060D01*
X104502889Y-41937865D01*
X104502654Y-41936725D01*
X104498613Y-41539564D01*
X104501399Y-41084896D01*
X104518286Y-40682849D01*
X104600280Y-40274463D01*
X104721783Y-40071303D01*
X104878336Y-39965246D01*
X105175087Y-39915847D01*
X105469479Y-39969387D01*
X105608761Y-40066998D01*
X105709633Y-40253122D01*
X105767292Y-40678653D01*
X105771089Y-42061729D01*
X105770101Y-42067201D01*
X105771287Y-42134057D01*
X105771471Y-42200942D01*
X105772571Y-42206394D01*
X105799592Y-43729072D01*
X105797638Y-43742823D01*
X105800875Y-43801367D01*
X105801914Y-43859945D01*
X105804863Y-43873506D01*
X105878368Y-45203124D01*
X105877989Y-45252374D01*
X105882355Y-45275241D01*
X105883640Y-45298488D01*
X105895901Y-45346192D01*
X106016121Y-45975874D01*
X106014612Y-45984064D01*
X106043471Y-46119124D01*
X106055551Y-46182398D01*
X106058596Y-46189913D01*
X106075711Y-46270011D01*
X106112975Y-46324107D01*
X106137647Y-46384991D01*
X106195119Y-46443355D01*
X106241585Y-46510809D01*
X106296716Y-46546528D01*
X106342808Y-46593335D01*
X106418239Y-46625262D01*
X106486982Y-46669800D01*
X106551586Y-46681703D01*
X106612082Y-46707308D01*
X106693989Y-46707939D01*
X106701959Y-46709407D01*
X106766335Y-46708496D01*
X106904473Y-46709559D01*
X106912194Y-46706430D01*
X107020532Y-46704896D01*
X107099039Y-46718094D01*
X107235958Y-46686590D01*
X107373263Y-46657252D01*
X107378176Y-46653868D01*
X107383994Y-46652529D01*
X107498430Y-46571030D01*
X107614061Y-46491378D01*
X107657345Y-46424571D01*
X108051421Y-46006278D01*
X108084647Y-45975890D01*
X108100931Y-45953725D01*
X108119800Y-45933697D01*
X108143699Y-45895514D01*
X108593353Y-45283483D01*
X108839206Y-44955431D01*
X111565000Y-44955431D01*
X111565000Y-45844569D01*
X111905259Y-46666026D01*
X112533974Y-47294741D01*
X113355431Y-47635000D01*
X114244569Y-47635000D01*
X115066026Y-47294741D01*
X115694741Y-46666026D01*
X116035000Y-45844569D01*
X116035000Y-44955431D01*
X115694741Y-44133974D01*
X115066026Y-43505259D01*
X114244569Y-43165000D01*
X113355431Y-43165000D01*
X112533974Y-43505259D01*
X111905259Y-44133974D01*
X111565000Y-44955431D01*
X108839206Y-44955431D01*
X108901766Y-44871955D01*
X110419217Y-43341181D01*
X112057045Y-42012926D01*
X113838225Y-40974056D01*
X115845812Y-40274617D01*
X116637956Y-40103592D01*
X117464928Y-39962144D01*
X118288515Y-39866313D01*
X119115976Y-39824127D01*
X121774056Y-39796878D01*
X124444450Y-39791611D01*
X127114699Y-39808447D01*
X127114699Y-39808447D01*
G37*
X127114699Y-39808447D02*
X129718626Y-39846423D01*
X131281926Y-40166575D01*
X132487916Y-40952387D01*
X133297950Y-42118193D01*
X133621557Y-43660797D01*
X133664138Y-47762372D01*
X133682870Y-51931299D01*
X133627843Y-56088093D01*
X133451471Y-60199179D01*
X132762893Y-64391750D01*
X131293116Y-68196672D01*
X129096386Y-71661131D01*
X126211012Y-74813855D01*
X124991767Y-75948164D01*
X123749227Y-77100489D01*
X122559232Y-78202585D01*
X122559158Y-78202630D01*
X122504825Y-78252973D01*
X122453073Y-78300902D01*
X122453025Y-78300969D01*
X121326481Y-79344777D01*
X121272734Y-79375472D01*
X121220259Y-79443198D01*
X121211548Y-79451269D01*
X121175972Y-79500356D01*
X121093644Y-79606611D01*
X121090430Y-79618385D01*
X121083268Y-79628267D01*
X121052040Y-79759012D01*
X121016640Y-79888690D01*
X121018176Y-79900797D01*
X121015341Y-79912667D01*
X121036523Y-80045400D01*
X121053443Y-80178764D01*
X121059496Y-80189363D01*
X121061419Y-80201413D01*
X121131792Y-80315951D01*
X121161851Y-80368584D01*
X121169636Y-80377545D01*
X121214489Y-80450548D01*
X121264608Y-80486872D01*
X122944856Y-82421081D01*
X122945536Y-82422262D01*
X122992209Y-82475592D01*
X123038903Y-82529343D01*
X123039985Y-82530182D01*
X124754652Y-84489392D01*
X126471477Y-86492684D01*
X128114599Y-88508858D01*
X133088713Y-95632665D01*
X137135534Y-103187553D01*
X140247873Y-111181024D01*
X142413007Y-119623287D01*
X143001723Y-123010601D01*
X143451628Y-126444192D01*
X143745427Y-129890512D01*
X143868786Y-133339768D01*
X143957685Y-146122106D01*
X143974945Y-154384900D01*
X143810017Y-154384900D01*
X143466365Y-154527245D01*
X143203345Y-154790265D01*
X143061000Y-155133917D01*
X143061000Y-155165157D01*
X143042571Y-155177471D01*
X142874596Y-155428864D01*
X142863000Y-155487161D01*
X142863000Y-154190300D01*
X142939283Y-154190300D01*
X143282935Y-154047955D01*
X143545955Y-153784935D01*
X143688300Y-153441283D01*
X143688300Y-153069317D01*
X143545955Y-152725665D01*
X143513300Y-152693010D01*
X143513300Y-151447290D01*
X143520955Y-151439635D01*
X143663300Y-151095983D01*
X143663300Y-150724017D01*
X143520955Y-150380365D01*
X143488300Y-150347710D01*
X143488300Y-146472290D01*
X143520955Y-146439635D01*
X143663300Y-146095983D01*
X143663300Y-145724017D01*
X143520955Y-145380365D01*
X143257935Y-145117345D01*
X142914283Y-144975000D01*
X142542317Y-144975000D01*
X142198665Y-145117345D01*
X141935645Y-145380365D01*
X141793300Y-145724017D01*
X141793300Y-146095983D01*
X141935645Y-146439635D01*
X141968301Y-146472291D01*
X141968301Y-147678611D01*
X141907035Y-147617345D01*
X141563383Y-147475000D01*
X141191417Y-147475000D01*
X140847765Y-147617345D01*
X140584745Y-147880365D01*
X140442400Y-148224017D01*
X140442400Y-148595983D01*
X140584745Y-148939635D01*
X140847765Y-149202655D01*
X141191417Y-149345000D01*
X141563383Y-149345000D01*
X141907035Y-149202655D01*
X141968300Y-149141390D01*
X141968300Y-150347710D01*
X141935645Y-150380365D01*
X141793300Y-150724017D01*
X141793300Y-151095983D01*
X141935645Y-151439635D01*
X141993301Y-151497291D01*
X141993301Y-152069454D01*
X141894737Y-152003596D01*
X141673052Y-151959500D01*
X141673047Y-151959500D01*
X141598200Y-151944612D01*
X141523353Y-151959500D01*
X103827948Y-151959500D01*
X103753100Y-151944612D01*
X103678252Y-151959500D01*
X103678248Y-151959500D01*
X103456563Y-152003596D01*
X103205171Y-152171571D01*
X103162771Y-152235027D01*
X98260599Y-157137200D01*
X76906930Y-157137200D01*
X76832083Y-157122312D01*
X76757236Y-157137200D01*
X76757232Y-157137200D01*
X76535547Y-157181296D01*
X76284155Y-157349271D01*
X76241755Y-157412727D01*
X75609424Y-158045059D01*
X75557834Y-157920509D01*
X75525179Y-157887854D01*
X75525179Y-153511027D01*
X91079934Y-153511027D01*
X91079934Y-153882993D01*
X91222279Y-154226645D01*
X91485299Y-154489665D01*
X91828951Y-154632010D01*
X92200917Y-154632010D01*
X92544569Y-154489665D01*
X92807589Y-154226645D01*
X92949934Y-153882993D01*
X92949934Y-153511027D01*
X92807589Y-153167375D01*
X92544569Y-152904355D01*
X92200917Y-152762010D01*
X91828951Y-152762010D01*
X91485299Y-152904355D01*
X91222279Y-153167375D01*
X91079934Y-153511027D01*
X75525179Y-153511027D01*
X75525179Y-152055227D01*
X75540067Y-151980379D01*
X75525179Y-151905531D01*
X75525179Y-151905527D01*
X75481083Y-151683842D01*
X75313108Y-151432450D01*
X75249652Y-151390050D01*
X72826884Y-148967282D01*
X78138265Y-148967282D01*
X78138265Y-149339248D01*
X78280610Y-149682900D01*
X78543630Y-149945920D01*
X78887282Y-150088265D01*
X79259248Y-150088265D01*
X79602900Y-149945920D01*
X79865920Y-149682900D01*
X80008265Y-149339248D01*
X80008265Y-148967282D01*
X79865920Y-148623630D01*
X79602900Y-148360610D01*
X79259248Y-148218265D01*
X78887282Y-148218265D01*
X78543630Y-148360610D01*
X78280610Y-148623630D01*
X78138265Y-148967282D01*
X72826884Y-148967282D01*
X69540500Y-145680899D01*
X69540500Y-145634717D01*
X69398155Y-145291065D01*
X69135135Y-145028045D01*
X68791483Y-144885700D01*
X68714700Y-144885700D01*
X68714700Y-142774801D01*
X69644502Y-141845000D01*
X69690683Y-141845000D01*
X70034335Y-141702655D01*
X70297355Y-141439635D01*
X70439700Y-141095983D01*
X70439700Y-140854017D01*
X73485000Y-140854017D01*
X73485000Y-141225983D01*
X73627345Y-141569635D01*
X73890365Y-141832655D01*
X74234017Y-141975000D01*
X74349212Y-141975000D01*
X81288800Y-148914589D01*
X81288800Y-149179420D01*
X81207345Y-149260875D01*
X81065000Y-149604527D01*
X81065000Y-149976493D01*
X81207345Y-150320145D01*
X81402455Y-150515255D01*
X81357345Y-150560365D01*
X81215000Y-150904017D01*
X81215000Y-151275983D01*
X81357345Y-151619635D01*
X81620365Y-151882655D01*
X81964017Y-152025000D01*
X82335983Y-152025000D01*
X82679635Y-151882655D01*
X82942655Y-151619635D01*
X83085000Y-151275983D01*
X83085000Y-150904017D01*
X82942655Y-150560365D01*
X82884000Y-150501710D01*
X90915922Y-150501710D01*
X96035000Y-155620789D01*
X96035000Y-155735983D01*
X96177345Y-156079635D01*
X96440365Y-156342655D01*
X96784017Y-156485000D01*
X97155983Y-156485000D01*
X97499635Y-156342655D01*
X97762655Y-156079635D01*
X97905000Y-155735983D01*
X97905000Y-155364017D01*
X97762655Y-155020365D01*
X97499635Y-154757345D01*
X97155983Y-154615000D01*
X97040789Y-154615000D01*
X91762934Y-149337146D01*
X91723256Y-149277764D01*
X91488006Y-149120574D01*
X91280556Y-149079310D01*
X91280551Y-149079310D01*
X91210510Y-149065378D01*
X91140469Y-149079310D01*
X82711200Y-149079310D01*
X82711200Y-148690042D01*
X82725132Y-148620000D01*
X82711200Y-148549958D01*
X82711200Y-148549954D01*
X82669936Y-148342504D01*
X82590765Y-148224017D01*
X82552424Y-148166635D01*
X82552420Y-148166631D01*
X82512745Y-148107254D01*
X82453369Y-148067580D01*
X75355000Y-140969212D01*
X75355000Y-140854017D01*
X75212655Y-140510365D01*
X74949635Y-140247345D01*
X74605983Y-140105000D01*
X74234017Y-140105000D01*
X73890365Y-140247345D01*
X73627345Y-140510365D01*
X73485000Y-140854017D01*
X70439700Y-140854017D01*
X70439700Y-140724017D01*
X70297355Y-140380365D01*
X70034335Y-140117345D01*
X69690683Y-139975000D01*
X69318717Y-139975000D01*
X68975065Y-140117345D01*
X68712045Y-140380365D01*
X68569700Y-140724017D01*
X68569700Y-140770198D01*
X67470228Y-141869671D01*
X67406772Y-141912071D01*
X67364372Y-141975527D01*
X67364371Y-141975528D01*
X67238797Y-142163463D01*
X67179812Y-142460000D01*
X67194701Y-142534852D01*
X67194700Y-189235753D01*
X67179812Y-189310600D01*
X67194700Y-189385447D01*
X67194700Y-189385451D01*
X67238796Y-189607136D01*
X67406771Y-189858529D01*
X67470230Y-189900931D01*
X70175600Y-192606302D01*
X70175600Y-192652483D01*
X70317945Y-192996135D01*
X70350601Y-193028791D01*
X70350600Y-199362253D01*
X70335712Y-199437100D01*
X70350600Y-199511947D01*
X70350600Y-199511951D01*
X70394696Y-199733636D01*
X70562671Y-199985029D01*
X70626130Y-200027431D01*
X90530059Y-219931361D01*
X89197815Y-219465458D01*
X87960114Y-218951245D01*
X86748410Y-218193390D01*
X86748407Y-218193387D01*
X85423758Y-217364889D01*
X85423753Y-217364884D01*
X84099105Y-216536389D01*
X84099099Y-216536383D01*
X82759279Y-215698398D01*
X77888068Y-211537365D01*
X73818722Y-206784257D01*
X70578166Y-201426585D01*
X68189016Y-195434338D01*
X67439933Y-192609475D01*
X66910261Y-189714726D01*
X66595107Y-186776018D01*
X66485546Y-183793451D01*
X66429922Y-171622102D01*
X66429985Y-171621776D01*
X66429593Y-171549995D01*
X66429262Y-171477662D01*
X66429195Y-171477335D01*
X66362594Y-159295073D01*
X66326481Y-147043108D01*
X66352284Y-138410717D01*
X76077500Y-138410717D01*
X76077500Y-138782683D01*
X76219845Y-139126335D01*
X76482865Y-139389355D01*
X76826517Y-139531700D01*
X77198483Y-139531700D01*
X77542135Y-139389355D01*
X77805155Y-139126335D01*
X77947500Y-138782683D01*
X77947500Y-138410717D01*
X77805155Y-138067065D01*
X77542135Y-137804045D01*
X77198483Y-137661700D01*
X76826517Y-137661700D01*
X76482865Y-137804045D01*
X76219845Y-138067065D01*
X76077500Y-138410717D01*
X66352284Y-138410717D01*
X66359075Y-136138917D01*
X70665000Y-136138917D01*
X70665000Y-136510883D01*
X70807345Y-136854535D01*
X71070365Y-137117555D01*
X71414017Y-137259900D01*
X71785983Y-137259900D01*
X72129635Y-137117555D01*
X72392655Y-136854535D01*
X72535000Y-136510883D01*
X72535000Y-136138917D01*
X72392655Y-135795265D01*
X72129635Y-135532245D01*
X71785983Y-135389900D01*
X71414017Y-135389900D01*
X71070365Y-135532245D01*
X70807345Y-135795265D01*
X70665000Y-136138917D01*
X66359075Y-136138917D01*
X66362181Y-135100000D01*
X67677662Y-135100000D01*
X67746348Y-135445310D01*
X67941951Y-135738049D01*
X68234690Y-135933652D01*
X68492835Y-135985000D01*
X69367165Y-135985000D01*
X69625310Y-135933652D01*
X69918049Y-135738049D01*
X70113652Y-135445310D01*
X70182338Y-135100000D01*
X70133691Y-134855431D01*
X75335000Y-134855431D01*
X75335000Y-135744569D01*
X75675259Y-136566026D01*
X76303974Y-137194741D01*
X77125431Y-137535000D01*
X78014569Y-137535000D01*
X78836026Y-137194741D01*
X79464741Y-136566026D01*
X79805000Y-135744569D01*
X79805000Y-134855431D01*
X79464741Y-134033974D01*
X78836026Y-133405259D01*
X78014569Y-133065000D01*
X77125431Y-133065000D01*
X76303974Y-133405259D01*
X75675259Y-134033974D01*
X75335000Y-134855431D01*
X70133691Y-134855431D01*
X70113652Y-134754690D01*
X69918049Y-134461951D01*
X69625310Y-134266348D01*
X69367165Y-134215000D01*
X68492835Y-134215000D01*
X68234690Y-134266348D01*
X67941951Y-134461951D01*
X67746348Y-134754690D01*
X67677662Y-135100000D01*
X66362181Y-135100000D01*
X66363002Y-134825356D01*
X66979085Y-128500000D01*
X67677662Y-128500000D01*
X67746348Y-128845310D01*
X67941951Y-129138049D01*
X68234690Y-129333652D01*
X68492835Y-129385000D01*
X69367165Y-129385000D01*
X69625310Y-129333652D01*
X69918049Y-129138049D01*
X70113652Y-128845310D01*
X70182338Y-128500000D01*
X70113652Y-128154690D01*
X69918049Y-127861951D01*
X69625310Y-127666348D01*
X69367165Y-127615000D01*
X68492835Y-127615000D01*
X68234690Y-127666348D01*
X67941951Y-127861951D01*
X67746348Y-128154690D01*
X67677662Y-128500000D01*
X66979085Y-128500000D01*
X67115383Y-127100617D01*
X70665000Y-127100617D01*
X70665000Y-127472583D01*
X70807345Y-127816235D01*
X71070365Y-128079255D01*
X71414017Y-128221600D01*
X71785983Y-128221600D01*
X72129635Y-128079255D01*
X72392655Y-127816235D01*
X72535000Y-127472583D01*
X72535000Y-127100617D01*
X72392655Y-126756965D01*
X72129635Y-126493945D01*
X71785983Y-126351600D01*
X71414017Y-126351600D01*
X71070365Y-126493945D01*
X70807345Y-126756965D01*
X70665000Y-127100617D01*
X67115383Y-127100617D01*
X67584499Y-122284180D01*
X69585000Y-122284180D01*
X69585000Y-122715820D01*
X69750182Y-123114603D01*
X70055397Y-123419818D01*
X70454180Y-123585000D01*
X70885820Y-123585000D01*
X71284603Y-123419818D01*
X71589818Y-123114603D01*
X71755000Y-122715820D01*
X71755000Y-122284180D01*
X71589818Y-121885397D01*
X71284603Y-121580182D01*
X70885820Y-121415000D01*
X70454180Y-121415000D01*
X70055397Y-121580182D01*
X69750182Y-121885397D01*
X69585000Y-122284180D01*
X67584499Y-122284180D01*
X67816105Y-119906280D01*
X68001482Y-119284180D01*
X69585000Y-119284180D01*
X69585000Y-119715820D01*
X69750182Y-120114603D01*
X70055397Y-120419818D01*
X70454180Y-120585000D01*
X70885820Y-120585000D01*
X71284603Y-120419818D01*
X71589818Y-120114603D01*
X71755000Y-119715820D01*
X71755000Y-119284180D01*
X71589818Y-118885397D01*
X71284603Y-118580182D01*
X70885820Y-118415000D01*
X70454180Y-118415000D01*
X70055397Y-118580182D01*
X69750182Y-118885397D01*
X69585000Y-119284180D01*
X68001482Y-119284180D01*
X71920706Y-106131815D01*
X72668800Y-104722105D01*
X72668801Y-130878909D01*
X72587345Y-130960365D01*
X72445000Y-131304017D01*
X72445000Y-131675983D01*
X72587345Y-132019635D01*
X72850365Y-132282655D01*
X72865000Y-132288717D01*
X72865000Y-132585983D01*
X73007345Y-132929635D01*
X73270365Y-133192655D01*
X73614017Y-133335000D01*
X73985983Y-133335000D01*
X74329635Y-133192655D01*
X74592655Y-132929635D01*
X74735000Y-132585983D01*
X74735000Y-132429780D01*
X74754899Y-132400000D01*
X74769935Y-132377497D01*
X74811199Y-132170047D01*
X74811199Y-132170043D01*
X74825131Y-132100001D01*
X74811199Y-132029959D01*
X74811199Y-131775858D01*
X80475225Y-131775858D01*
X80475225Y-132147824D01*
X80617570Y-132491476D01*
X80880590Y-132754496D01*
X81224242Y-132896841D01*
X81596208Y-132896841D01*
X81939860Y-132754496D01*
X82202880Y-132491476D01*
X82345225Y-132147824D01*
X82345225Y-131775858D01*
X82202880Y-131432206D01*
X81939860Y-131169186D01*
X81596208Y-131026841D01*
X81224242Y-131026841D01*
X80880590Y-131169186D01*
X80617570Y-131432206D01*
X80475225Y-131775858D01*
X74811199Y-131775858D01*
X74811199Y-131427261D01*
X74825131Y-131357219D01*
X74811199Y-131287177D01*
X74811199Y-131287173D01*
X74769935Y-131079723D01*
X74612745Y-130844473D01*
X74553363Y-130804795D01*
X74511200Y-130762632D01*
X74511200Y-120339232D01*
X82323173Y-128151206D01*
X82323176Y-128151208D01*
X84915317Y-130743351D01*
X84832765Y-130777545D01*
X84569745Y-131040565D01*
X84427400Y-131384217D01*
X84427400Y-131756183D01*
X84536900Y-132020540D01*
X84536901Y-135595667D01*
X84534723Y-135597845D01*
X84270365Y-135707345D01*
X84007345Y-135970365D01*
X83865000Y-136314017D01*
X83865000Y-136685983D01*
X84007345Y-137029635D01*
X84270365Y-137292655D01*
X84614017Y-137435000D01*
X84985983Y-137435000D01*
X85301500Y-137304309D01*
X85301501Y-142903224D01*
X85285328Y-142984530D01*
X85323395Y-143175903D01*
X85349397Y-143306624D01*
X85531849Y-143579682D01*
X85600775Y-143625737D01*
X86181706Y-144206668D01*
X85890365Y-144327345D01*
X85627345Y-144590365D01*
X85485000Y-144934017D01*
X85485000Y-145305983D01*
X85627345Y-145649635D01*
X85890365Y-145912655D01*
X86234017Y-146055000D01*
X86605983Y-146055000D01*
X86949635Y-145912655D01*
X87212655Y-145649635D01*
X87333332Y-145358294D01*
X88498285Y-146523248D01*
X88607785Y-146787605D01*
X88870805Y-147050625D01*
X89214457Y-147192970D01*
X89586423Y-147192970D01*
X89930075Y-147050625D01*
X90193095Y-146787605D01*
X90335440Y-146443953D01*
X90335440Y-146071987D01*
X90193095Y-145728335D01*
X89930075Y-145465315D01*
X89665718Y-145355815D01*
X86952500Y-142642598D01*
X86952500Y-142025693D01*
X122923700Y-142025693D01*
X122923700Y-142374307D01*
X123057109Y-142696384D01*
X123303616Y-142942891D01*
X123625693Y-143076300D01*
X123974307Y-143076300D01*
X124296384Y-142942891D01*
X124542891Y-142696384D01*
X124676300Y-142374307D01*
X124676300Y-142025693D01*
X124542891Y-141703616D01*
X124296384Y-141457109D01*
X123974307Y-141323700D01*
X123625693Y-141323700D01*
X123303616Y-141457109D01*
X123057109Y-141703616D01*
X122923700Y-142025693D01*
X86952500Y-142025693D01*
X86952500Y-134775431D01*
X130975000Y-134775431D01*
X130975000Y-135664569D01*
X131315259Y-136486026D01*
X131943974Y-137114741D01*
X132765431Y-137455000D01*
X133654569Y-137455000D01*
X134476026Y-137114741D01*
X135104741Y-136486026D01*
X135445000Y-135664569D01*
X135445000Y-134775431D01*
X135104741Y-133953974D01*
X134476026Y-133325259D01*
X133654569Y-132985000D01*
X132765431Y-132985000D01*
X131943974Y-133325259D01*
X131315259Y-133953974D01*
X130975000Y-134775431D01*
X86952500Y-134775431D01*
X86952500Y-133750540D01*
X87062000Y-133486183D01*
X87062000Y-133114217D01*
X86952500Y-132849860D01*
X86952500Y-131914017D01*
X89365000Y-131914017D01*
X89365000Y-132285983D01*
X89507345Y-132629635D01*
X89770365Y-132892655D01*
X90114017Y-133035000D01*
X90485983Y-133035000D01*
X90829635Y-132892655D01*
X91092655Y-132629635D01*
X91099124Y-132614017D01*
X104465000Y-132614017D01*
X104465000Y-132985983D01*
X104607345Y-133329635D01*
X104870365Y-133592655D01*
X105214017Y-133735000D01*
X105585983Y-133735000D01*
X105929635Y-133592655D01*
X106192655Y-133329635D01*
X106335000Y-132985983D01*
X106335000Y-132614017D01*
X106192655Y-132270365D01*
X105936307Y-132014017D01*
X111665000Y-132014017D01*
X111665000Y-132385983D01*
X111807345Y-132729635D01*
X112070365Y-132992655D01*
X112414017Y-133135000D01*
X112785983Y-133135000D01*
X113129635Y-132992655D01*
X113392655Y-132729635D01*
X113535000Y-132385983D01*
X113535000Y-132214017D01*
X115865000Y-132214017D01*
X115865000Y-132585983D01*
X116007345Y-132929635D01*
X116270365Y-133192655D01*
X116614017Y-133335000D01*
X116985983Y-133335000D01*
X117329635Y-133192655D01*
X117592655Y-132929635D01*
X117735000Y-132585983D01*
X117735000Y-132214017D01*
X117592655Y-131870365D01*
X117329635Y-131607345D01*
X116985983Y-131465000D01*
X116614017Y-131465000D01*
X116270365Y-131607345D01*
X116007345Y-131870365D01*
X115865000Y-132214017D01*
X113535000Y-132214017D01*
X113535000Y-132014017D01*
X113392655Y-131670365D01*
X113129635Y-131407345D01*
X112785983Y-131265000D01*
X112414017Y-131265000D01*
X112070365Y-131407345D01*
X111807345Y-131670365D01*
X111665000Y-132014017D01*
X105936307Y-132014017D01*
X105929635Y-132007345D01*
X105585983Y-131865000D01*
X105214017Y-131865000D01*
X104870365Y-132007345D01*
X104607345Y-132270365D01*
X104465000Y-132614017D01*
X91099124Y-132614017D01*
X91235000Y-132285983D01*
X91235000Y-131914017D01*
X91092655Y-131570365D01*
X90829635Y-131307345D01*
X90485983Y-131165000D01*
X90114017Y-131165000D01*
X89770365Y-131307345D01*
X89507345Y-131570365D01*
X89365000Y-131914017D01*
X86952500Y-131914017D01*
X86952500Y-130868897D01*
X86968671Y-130787599D01*
X86952500Y-130706301D01*
X86952500Y-130706297D01*
X86904604Y-130465506D01*
X86870201Y-130414017D01*
X136065000Y-130414017D01*
X136065000Y-130785983D01*
X136207345Y-131129635D01*
X136470365Y-131392655D01*
X136814017Y-131535000D01*
X137185983Y-131535000D01*
X137529635Y-131392655D01*
X137792655Y-131129635D01*
X137935000Y-130785983D01*
X137935000Y-130414017D01*
X137792655Y-130070365D01*
X137529635Y-129807345D01*
X137185983Y-129665000D01*
X136814017Y-129665000D01*
X136470365Y-129807345D01*
X136207345Y-130070365D01*
X136065000Y-130414017D01*
X86870201Y-130414017D01*
X86722152Y-130192448D01*
X86653229Y-130146395D01*
X83732526Y-127225693D01*
X97723700Y-127225693D01*
X97723700Y-127574307D01*
X97857109Y-127896384D01*
X98103616Y-128142891D01*
X98425693Y-128276300D01*
X98774307Y-128276300D01*
X99096384Y-128142891D01*
X99342891Y-127896384D01*
X99476300Y-127574307D01*
X99476300Y-127225693D01*
X99342891Y-126903616D01*
X99096384Y-126657109D01*
X98774307Y-126523700D01*
X98425693Y-126523700D01*
X98103616Y-126657109D01*
X97857109Y-126903616D01*
X97723700Y-127225693D01*
X83732526Y-127225693D01*
X83490608Y-126983776D01*
X83490606Y-126983773D01*
X79051832Y-122545000D01*
X79305983Y-122545000D01*
X79649635Y-122402655D01*
X79912655Y-122139635D01*
X80055000Y-121795983D01*
X80055000Y-121424017D01*
X79912655Y-121080365D01*
X79649635Y-120817345D01*
X79305983Y-120675000D01*
X78934017Y-120675000D01*
X78590365Y-120817345D01*
X78327345Y-121080365D01*
X78185000Y-121424017D01*
X78185000Y-121678168D01*
X75393856Y-118887024D01*
X75284355Y-118622665D01*
X75021335Y-118359645D01*
X74982824Y-118343693D01*
X91619500Y-118343693D01*
X91619500Y-118692307D01*
X91752909Y-119014384D01*
X91999416Y-119260891D01*
X92321493Y-119394300D01*
X92670107Y-119394300D01*
X92963997Y-119272567D01*
X93059875Y-119368445D01*
X93403527Y-119510790D01*
X93775493Y-119510790D01*
X94119145Y-119368445D01*
X94382165Y-119105425D01*
X94524510Y-118761773D01*
X94524510Y-118389807D01*
X94382165Y-118046155D01*
X94119145Y-117783135D01*
X93775493Y-117640790D01*
X93403527Y-117640790D01*
X93059875Y-117783135D01*
X93030043Y-117812968D01*
X92992184Y-117775109D01*
X92670107Y-117641700D01*
X92321493Y-117641700D01*
X91999416Y-117775109D01*
X91752909Y-118021616D01*
X91619500Y-118343693D01*
X74982824Y-118343693D01*
X74677683Y-118217300D01*
X74511200Y-118217300D01*
X74511200Y-113807117D01*
X79659400Y-113807117D01*
X79659400Y-114179083D01*
X79801745Y-114522735D01*
X80064765Y-114785755D01*
X80408417Y-114928100D01*
X80780383Y-114928100D01*
X81124035Y-114785755D01*
X81387055Y-114522735D01*
X81529400Y-114179083D01*
X81529400Y-113807117D01*
X81387055Y-113463465D01*
X81124035Y-113200445D01*
X80780383Y-113058100D01*
X80408417Y-113058100D01*
X80064765Y-113200445D01*
X79801745Y-113463465D01*
X79659400Y-113807117D01*
X74511200Y-113807117D01*
X74511200Y-104920817D01*
X80273500Y-104920817D01*
X80273500Y-105292783D01*
X80415845Y-105636435D01*
X80678865Y-105899455D01*
X81022517Y-106041800D01*
X81394483Y-106041800D01*
X81738135Y-105899455D01*
X82001155Y-105636435D01*
X82143500Y-105292783D01*
X82143500Y-104920817D01*
X82001155Y-104577165D01*
X81976806Y-104552816D01*
X82225135Y-104449955D01*
X82488155Y-104186935D01*
X82630500Y-103843283D01*
X82630500Y-103471317D01*
X82488155Y-103127665D01*
X82225135Y-102864645D01*
X81881483Y-102722300D01*
X81509517Y-102722300D01*
X81165865Y-102864645D01*
X80902845Y-103127665D01*
X80760500Y-103471317D01*
X80760500Y-103843283D01*
X80902845Y-104186935D01*
X80927194Y-104211284D01*
X80678865Y-104314145D01*
X80415845Y-104577165D01*
X80273500Y-104920817D01*
X74511200Y-104920817D01*
X74511200Y-104412972D01*
X80299183Y-98624990D01*
X80753700Y-98624990D01*
X80753700Y-98794307D01*
X80887109Y-99116384D01*
X81133616Y-99362891D01*
X81455693Y-99496300D01*
X81804307Y-99496300D01*
X82126384Y-99362891D01*
X82372891Y-99116384D01*
X82506300Y-98794307D01*
X82506300Y-98624990D01*
X85165000Y-98624990D01*
X85165000Y-98805983D01*
X85307345Y-99149635D01*
X85570365Y-99412655D01*
X85698801Y-99465855D01*
X85698800Y-101079953D01*
X85698800Y-101340045D01*
X85698801Y-101340050D01*
X85698800Y-106359958D01*
X85684868Y-106430000D01*
X85698800Y-106500041D01*
X85698800Y-106500045D01*
X85740064Y-106707495D01*
X85740065Y-106707496D01*
X85857576Y-106883364D01*
X85857578Y-106883366D01*
X85884012Y-106922926D01*
X85662723Y-107014587D01*
X85399703Y-107277607D01*
X85257358Y-107621259D01*
X85257358Y-107993225D01*
X85399703Y-108336877D01*
X85662723Y-108599897D01*
X86006375Y-108742242D01*
X86121570Y-108742242D01*
X98832694Y-121453367D01*
X98872370Y-121512746D01*
X98931749Y-121552422D01*
X98931751Y-121552424D01*
X99107618Y-121669935D01*
X99107619Y-121669935D01*
X99107620Y-121669936D01*
X99315070Y-121711200D01*
X99315073Y-121711200D01*
X99385115Y-121725132D01*
X99455157Y-121711200D01*
X114279525Y-121711200D01*
X114081109Y-121909616D01*
X113947700Y-122231693D01*
X113947700Y-122580307D01*
X114081109Y-122902384D01*
X114327616Y-123148891D01*
X114649693Y-123282300D01*
X114998307Y-123282300D01*
X115320384Y-123148891D01*
X115566891Y-122902384D01*
X115700300Y-122580307D01*
X115700300Y-122231693D01*
X115566891Y-121909616D01*
X115368475Y-121711200D01*
X128788910Y-121711200D01*
X128870365Y-121792655D01*
X129214017Y-121935000D01*
X129585983Y-121935000D01*
X129795801Y-121848091D01*
X129970365Y-122022655D01*
X130314017Y-122165000D01*
X130685983Y-122165000D01*
X131029635Y-122022655D01*
X131140086Y-121912204D01*
X131201760Y-121899936D01*
X131437010Y-121742746D01*
X131476688Y-121683364D01*
X133507159Y-119652894D01*
X133566535Y-119613220D01*
X133606210Y-119553843D01*
X133606214Y-119553839D01*
X133701092Y-119411844D01*
X133723726Y-119377970D01*
X133764990Y-119170520D01*
X133764990Y-119170516D01*
X133778922Y-119100474D01*
X133764990Y-119030432D01*
X133764990Y-97765740D01*
X133778922Y-97695698D01*
X133764990Y-97625656D01*
X133764990Y-97625653D01*
X133723726Y-97418203D01*
X133723725Y-97418201D01*
X133606214Y-97242334D01*
X133606212Y-97242332D01*
X133566536Y-97182953D01*
X133507157Y-97143277D01*
X104907897Y-68544017D01*
X123315000Y-68544017D01*
X123315000Y-68915983D01*
X123457345Y-69259635D01*
X123720365Y-69522655D01*
X124064017Y-69665000D01*
X124435983Y-69665000D01*
X124779635Y-69522655D01*
X125042655Y-69259635D01*
X125185000Y-68915983D01*
X125185000Y-68544017D01*
X125042655Y-68200365D01*
X124779635Y-67937345D01*
X124435983Y-67795000D01*
X124064017Y-67795000D01*
X123720365Y-67937345D01*
X123457345Y-68200365D01*
X123315000Y-68544017D01*
X104907897Y-68544017D01*
X104456497Y-68092618D01*
X104456497Y-67977423D01*
X104314152Y-67633771D01*
X104051132Y-67370751D01*
X103707480Y-67228406D01*
X103601200Y-67228406D01*
X103601200Y-66524017D01*
X117575000Y-66524017D01*
X117575000Y-66895983D01*
X117717345Y-67239635D01*
X117980365Y-67502655D01*
X118324017Y-67645000D01*
X118695983Y-67645000D01*
X119039635Y-67502655D01*
X119302655Y-67239635D01*
X119445000Y-66895983D01*
X119445000Y-66524017D01*
X119302655Y-66180365D01*
X119039635Y-65917345D01*
X118695983Y-65775000D01*
X118324017Y-65775000D01*
X117980365Y-65917345D01*
X117717345Y-66180365D01*
X117575000Y-66524017D01*
X103601200Y-66524017D01*
X103601200Y-63734588D01*
X103761771Y-63574017D01*
X115595000Y-63574017D01*
X115595000Y-63945983D01*
X115737345Y-64289635D01*
X116000365Y-64552655D01*
X116344017Y-64695000D01*
X116715983Y-64695000D01*
X117059635Y-64552655D01*
X117322655Y-64289635D01*
X117465000Y-63945983D01*
X117465000Y-63574017D01*
X117322655Y-63230365D01*
X117059635Y-62967345D01*
X116715983Y-62825000D01*
X116344017Y-62825000D01*
X116000365Y-62967345D01*
X115737345Y-63230365D01*
X115595000Y-63574017D01*
X103761771Y-63574017D01*
X105131771Y-62204017D01*
X105955000Y-62204017D01*
X105955000Y-62575983D01*
X106097345Y-62919635D01*
X106360365Y-63182655D01*
X106704017Y-63325000D01*
X107075983Y-63325000D01*
X107419635Y-63182655D01*
X107682655Y-62919635D01*
X107825000Y-62575983D01*
X107825000Y-62204017D01*
X107682655Y-61860365D01*
X107419635Y-61597345D01*
X107075983Y-61455000D01*
X106704017Y-61455000D01*
X106360365Y-61597345D01*
X106097345Y-61860365D01*
X105955000Y-62204017D01*
X105131771Y-62204017D01*
X108101771Y-59234017D01*
X110905000Y-59234017D01*
X110905000Y-59605983D01*
X111047345Y-59949635D01*
X111310365Y-60212655D01*
X111654017Y-60355000D01*
X112025983Y-60355000D01*
X112369635Y-60212655D01*
X112632655Y-59949635D01*
X112775000Y-59605983D01*
X112775000Y-59234017D01*
X112632655Y-58890365D01*
X112369635Y-58627345D01*
X112025983Y-58485000D01*
X111654017Y-58485000D01*
X111310365Y-58627345D01*
X111047345Y-58890365D01*
X110905000Y-59234017D01*
X108101771Y-59234017D01*
X109000095Y-58335693D01*
X115293700Y-58335693D01*
X115293700Y-58684307D01*
X115427109Y-59006384D01*
X115673616Y-59252891D01*
X115995693Y-59386300D01*
X116344307Y-59386300D01*
X116666384Y-59252891D01*
X116912891Y-59006384D01*
X117046300Y-58684307D01*
X117046300Y-58400510D01*
X121553070Y-58400510D01*
X121553070Y-60399490D01*
X121602353Y-60647255D01*
X121742701Y-60857299D01*
X121952745Y-60997647D01*
X122200510Y-61046930D01*
X124199490Y-61046930D01*
X124447255Y-60997647D01*
X124657299Y-60857299D01*
X124797647Y-60647255D01*
X124846930Y-60399490D01*
X124846930Y-59074880D01*
X125375510Y-59074880D01*
X125375510Y-59725120D01*
X125624346Y-60325864D01*
X126084136Y-60785654D01*
X126684880Y-61034490D01*
X127335120Y-61034490D01*
X127935864Y-60785654D01*
X128395654Y-60325864D01*
X128644490Y-59725120D01*
X128644490Y-59074880D01*
X128395654Y-58474136D01*
X127935864Y-58014346D01*
X127335120Y-57765510D01*
X126684880Y-57765510D01*
X126084136Y-58014346D01*
X125624346Y-58474136D01*
X125375510Y-59074880D01*
X124846930Y-59074880D01*
X124846930Y-58400510D01*
X124797647Y-58152745D01*
X124657299Y-57942701D01*
X124447255Y-57802353D01*
X124199490Y-57753070D01*
X122200510Y-57753070D01*
X121952745Y-57802353D01*
X121742701Y-57942701D01*
X121602353Y-58152745D01*
X121553070Y-58400510D01*
X117046300Y-58400510D01*
X117046300Y-58335693D01*
X116912891Y-58013616D01*
X116666384Y-57767109D01*
X116344307Y-57633700D01*
X115995693Y-57633700D01*
X115673616Y-57767109D01*
X115427109Y-58013616D01*
X115293700Y-58335693D01*
X109000095Y-58335693D01*
X109844677Y-57491112D01*
X109906307Y-57491112D01*
X109976348Y-57505044D01*
X110046389Y-57491112D01*
X110046394Y-57491112D01*
X110253844Y-57449848D01*
X110489094Y-57292658D01*
X110528772Y-57233276D01*
X110968379Y-56793669D01*
X111027756Y-56753995D01*
X111067431Y-56694618D01*
X111067435Y-56694614D01*
X111169979Y-56541146D01*
X111184947Y-56518745D01*
X111197215Y-56457071D01*
X111257902Y-56396384D01*
X111391311Y-56074307D01*
X111391311Y-55985265D01*
X113625990Y-55985265D01*
X113657681Y-56016956D01*
X113979758Y-56150365D01*
X114328372Y-56150365D01*
X114650449Y-56016956D01*
X114886955Y-55780450D01*
X114997109Y-56046384D01*
X115243616Y-56292891D01*
X115565693Y-56426300D01*
X115914307Y-56426300D01*
X116236384Y-56292891D01*
X116482891Y-56046384D01*
X116616300Y-55724307D01*
X116616300Y-55375693D01*
X116482891Y-55053616D01*
X116236384Y-54807109D01*
X115914307Y-54673700D01*
X115565693Y-54673700D01*
X115243616Y-54807109D01*
X115007110Y-55043615D01*
X114896956Y-54777681D01*
X114650449Y-54531174D01*
X114328372Y-54397765D01*
X113979758Y-54397765D01*
X113657681Y-54531174D01*
X113625990Y-54562865D01*
X111236300Y-54562865D01*
X111236300Y-54515693D01*
X111102891Y-54193616D01*
X110856384Y-53947109D01*
X110534307Y-53813700D01*
X110185693Y-53813700D01*
X109863616Y-53947109D01*
X109831925Y-53978800D01*
X109774139Y-53978800D01*
X109704097Y-53964868D01*
X109634055Y-53978800D01*
X109634052Y-53978800D01*
X109426602Y-54020064D01*
X109426601Y-54020065D01*
X109426600Y-54020065D01*
X109250733Y-54137576D01*
X109250731Y-54137578D01*
X109191352Y-54177254D01*
X109151676Y-54236633D01*
X108309133Y-55079177D01*
X108249754Y-55118853D01*
X108210077Y-55178233D01*
X108210075Y-55178235D01*
X108175444Y-55230064D01*
X108092563Y-55354103D01*
X108068744Y-55473851D01*
X106301200Y-57241395D01*
X106301200Y-54297980D01*
X106345766Y-54405572D01*
X106608786Y-54668592D01*
X106952438Y-54810937D01*
X107324404Y-54810937D01*
X107668056Y-54668592D01*
X107931076Y-54405572D01*
X108073421Y-54061920D01*
X108073421Y-53689954D01*
X107931076Y-53346302D01*
X107668056Y-53083282D01*
X107324404Y-52940937D01*
X106952438Y-52940937D01*
X106608786Y-53083282D01*
X106345766Y-53346302D01*
X106203421Y-53689954D01*
X106203421Y-53797923D01*
X106142424Y-53706635D01*
X106142422Y-53706633D01*
X106102746Y-53647254D01*
X106043366Y-53607578D01*
X105936300Y-53500511D01*
X105936300Y-53455693D01*
X105802891Y-53133616D01*
X105556384Y-52887109D01*
X105234307Y-52753700D01*
X104885693Y-52753700D01*
X104563616Y-52887109D01*
X104317109Y-53133616D01*
X104183700Y-53455693D01*
X104183700Y-53804307D01*
X104317109Y-54126384D01*
X104563616Y-54372891D01*
X104878801Y-54503445D01*
X104878800Y-57735411D01*
X100286634Y-62327578D01*
X100227255Y-62367254D01*
X100187579Y-62426633D01*
X100187576Y-62426636D01*
X100070065Y-62602504D01*
X100014868Y-62880000D01*
X100028801Y-62950046D01*
X100028800Y-68529958D01*
X100014868Y-68600000D01*
X100028800Y-68670041D01*
X100028800Y-68670045D01*
X100070064Y-68877495D01*
X100070065Y-68877496D01*
X100187576Y-69053364D01*
X100187578Y-69053366D01*
X100227254Y-69112745D01*
X100286634Y-69152422D01*
X102623012Y-71488800D01*
X99987300Y-71488800D01*
X99905845Y-71407345D01*
X99562193Y-71265000D01*
X99190227Y-71265000D01*
X98846575Y-71407345D01*
X98583555Y-71670365D01*
X98441210Y-72014017D01*
X98441210Y-72385983D01*
X98583555Y-72729635D01*
X98846575Y-72992655D01*
X99190227Y-73135000D01*
X99562193Y-73135000D01*
X99905845Y-72992655D01*
X99987300Y-72911200D01*
X103547028Y-72911200D01*
X106856942Y-76221114D01*
X106820884Y-76257172D01*
X106678539Y-76600824D01*
X106678539Y-76972790D01*
X106820884Y-77316442D01*
X107083904Y-77579462D01*
X107384530Y-77703985D01*
X107263700Y-77995693D01*
X107263700Y-78344307D01*
X107397109Y-78666384D01*
X107643616Y-78912891D01*
X107965693Y-79046300D01*
X108010512Y-79046300D01*
X108428801Y-79464590D01*
X108428800Y-102565578D01*
X108185983Y-102465000D01*
X107857290Y-102465000D01*
X107992655Y-102329635D01*
X108135000Y-101985983D01*
X108135000Y-101614017D01*
X107992655Y-101270365D01*
X107729635Y-101007345D01*
X107385983Y-100865000D01*
X107014017Y-100865000D01*
X106670365Y-101007345D01*
X106407345Y-101270365D01*
X106265000Y-101614017D01*
X106265000Y-101985983D01*
X106407345Y-102329635D01*
X106670365Y-102592655D01*
X107014017Y-102735000D01*
X107342710Y-102735000D01*
X107207345Y-102870365D01*
X107065000Y-103214017D01*
X107065000Y-103585983D01*
X107207345Y-103929635D01*
X107470365Y-104192655D01*
X107814017Y-104335000D01*
X108185983Y-104335000D01*
X108428800Y-104234422D01*
X108428800Y-108204583D01*
X108402575Y-108209800D01*
X92652590Y-108209800D01*
X92571135Y-108128345D01*
X92227483Y-107986000D01*
X91855517Y-107986000D01*
X91511865Y-108128345D01*
X91248845Y-108391365D01*
X91106500Y-108735017D01*
X91106500Y-109106983D01*
X91248845Y-109450635D01*
X91511865Y-109713655D01*
X91855517Y-109856000D01*
X92227483Y-109856000D01*
X92571135Y-109713655D01*
X92652590Y-109632200D01*
X108178028Y-109632200D01*
X112551605Y-114005778D01*
X112591281Y-114065157D01*
X112650660Y-114104833D01*
X112650662Y-114104835D01*
X112826529Y-114222346D01*
X112826530Y-114222346D01*
X112826531Y-114222347D01*
X113033981Y-114263611D01*
X113033984Y-114263611D01*
X113104026Y-114277543D01*
X113174068Y-114263611D01*
X125529371Y-114263611D01*
X129189559Y-117923800D01*
X110068271Y-117923800D01*
X109942891Y-117621106D01*
X109696384Y-117374599D01*
X109374307Y-117241190D01*
X109025693Y-117241190D01*
X108703616Y-117374599D01*
X108457109Y-117621106D01*
X108346226Y-117888800D01*
X98511447Y-117888800D01*
X98525132Y-117819999D01*
X98511200Y-117749957D01*
X98511200Y-117749954D01*
X98469936Y-117542504D01*
X98357745Y-117374599D01*
X98352424Y-117366635D01*
X98352422Y-117366633D01*
X98312746Y-117307254D01*
X98253367Y-117267578D01*
X93929482Y-112943693D01*
X106323700Y-112943693D01*
X106323700Y-113292307D01*
X106457109Y-113614384D01*
X106703616Y-113860891D01*
X107025693Y-113994300D01*
X107374307Y-113994300D01*
X107696384Y-113860891D01*
X107942891Y-113614384D01*
X108076300Y-113292307D01*
X108076300Y-112943693D01*
X107942891Y-112621616D01*
X107696384Y-112375109D01*
X107374307Y-112241700D01*
X107025693Y-112241700D01*
X106703616Y-112375109D01*
X106457109Y-112621616D01*
X106323700Y-112943693D01*
X93929482Y-112943693D01*
X87121200Y-106135412D01*
X87121200Y-104414017D01*
X105065000Y-104414017D01*
X105065000Y-104785983D01*
X105207345Y-105129635D01*
X105470365Y-105392655D01*
X105814017Y-105535000D01*
X106185983Y-105535000D01*
X106529635Y-105392655D01*
X106792655Y-105129635D01*
X106935000Y-104785983D01*
X106935000Y-104414017D01*
X106792655Y-104070365D01*
X106529635Y-103807345D01*
X106185983Y-103665000D01*
X105814017Y-103665000D01*
X105470365Y-103807345D01*
X105207345Y-104070365D01*
X105065000Y-104414017D01*
X87121200Y-104414017D01*
X87121200Y-101223963D01*
X100315000Y-101223963D01*
X100315000Y-101576037D01*
X100449190Y-101900000D01*
X100315000Y-102223963D01*
X100315000Y-102576037D01*
X100449190Y-102900000D01*
X100315000Y-103223963D01*
X100315000Y-103576037D01*
X100449733Y-103901312D01*
X100698688Y-104150267D01*
X101023963Y-104285000D01*
X101376037Y-104285000D01*
X101700000Y-104150810D01*
X102023963Y-104285000D01*
X102376037Y-104285000D01*
X102700000Y-104150810D01*
X103023963Y-104285000D01*
X103376037Y-104285000D01*
X103701312Y-104150267D01*
X103950267Y-103901312D01*
X104085000Y-103576037D01*
X104085000Y-103223963D01*
X103950810Y-102900000D01*
X104085000Y-102576037D01*
X104085000Y-102223963D01*
X103950810Y-101900000D01*
X104085000Y-101576037D01*
X104085000Y-101223963D01*
X103950267Y-100898688D01*
X103701312Y-100649733D01*
X103376037Y-100515000D01*
X103023963Y-100515000D01*
X102700000Y-100649190D01*
X102376037Y-100515000D01*
X102023963Y-100515000D01*
X101700000Y-100649190D01*
X101376037Y-100515000D01*
X101023963Y-100515000D01*
X100698688Y-100649733D01*
X100449733Y-100898688D01*
X100315000Y-101223963D01*
X87121200Y-101223963D01*
X87121200Y-99000041D01*
X87135132Y-98929999D01*
X87121200Y-98859957D01*
X87121200Y-98859954D01*
X87079936Y-98652504D01*
X87061552Y-98624990D01*
X99188910Y-98624990D01*
X99270365Y-98706445D01*
X99614017Y-98848790D01*
X99985983Y-98848790D01*
X100329635Y-98706445D01*
X100423014Y-98613066D01*
X101033314Y-99223367D01*
X101072990Y-99282746D01*
X101132369Y-99322422D01*
X101132371Y-99322424D01*
X101248072Y-99399733D01*
X101308240Y-99439936D01*
X101369914Y-99452204D01*
X101480365Y-99562655D01*
X101824017Y-99705000D01*
X102195983Y-99705000D01*
X102539635Y-99562655D01*
X102802655Y-99299635D01*
X102883419Y-99104653D01*
X103054217Y-99175400D01*
X103426183Y-99175400D01*
X103769835Y-99033055D01*
X104032855Y-98770035D01*
X104175200Y-98426383D01*
X104175200Y-98054417D01*
X104032855Y-97710765D01*
X103769835Y-97447745D01*
X103426183Y-97305400D01*
X103054217Y-97305400D01*
X102710565Y-97447745D01*
X102447545Y-97710765D01*
X102366781Y-97905747D01*
X102195983Y-97835000D01*
X101824017Y-97835000D01*
X101705582Y-97884057D01*
X100608160Y-96786636D01*
X100568482Y-96727254D01*
X100333232Y-96570064D01*
X100125782Y-96528800D01*
X100125777Y-96528800D01*
X100055736Y-96514868D01*
X99985695Y-96528800D01*
X85011153Y-96528800D01*
X85122500Y-96259983D01*
X85122500Y-95888017D01*
X84980155Y-95544365D01*
X84717135Y-95281345D01*
X84373483Y-95139000D01*
X84001517Y-95139000D01*
X83657865Y-95281345D01*
X83394845Y-95544365D01*
X83252500Y-95888017D01*
X83252500Y-96259983D01*
X83363847Y-96528800D01*
X80250041Y-96528800D01*
X80179999Y-96514868D01*
X80109957Y-96528800D01*
X80109954Y-96528800D01*
X79902504Y-96570064D01*
X79902503Y-96570065D01*
X79902502Y-96570065D01*
X79726635Y-96687576D01*
X79726633Y-96687578D01*
X79667254Y-96727254D01*
X79627578Y-96786633D01*
X73773156Y-102641055D01*
X78647105Y-93456584D01*
X81584648Y-89805517D01*
X89857600Y-89805517D01*
X89857600Y-90177483D01*
X89999945Y-90521135D01*
X90262965Y-90784155D01*
X90606617Y-90926500D01*
X90978583Y-90926500D01*
X91322235Y-90784155D01*
X91585255Y-90521135D01*
X91727600Y-90177483D01*
X91727600Y-89805517D01*
X92372100Y-89805517D01*
X92372100Y-90177483D01*
X92514445Y-90521135D01*
X92777465Y-90784155D01*
X93121117Y-90926500D01*
X93167299Y-90926500D01*
X96642400Y-94401602D01*
X96642400Y-94690805D01*
X96784745Y-95034457D01*
X97047765Y-95297477D01*
X97391417Y-95439822D01*
X97763383Y-95439822D01*
X98107035Y-95297477D01*
X98370055Y-95034457D01*
X98512400Y-94690805D01*
X98512400Y-94318839D01*
X98370055Y-93975187D01*
X98158736Y-93763868D01*
X98125329Y-93713871D01*
X98061873Y-93671471D01*
X94242100Y-89851699D01*
X94242100Y-89805517D01*
X94099755Y-89461865D01*
X93836735Y-89198845D01*
X93493083Y-89056500D01*
X93121117Y-89056500D01*
X92777465Y-89198845D01*
X92514445Y-89461865D01*
X92372100Y-89805517D01*
X91727600Y-89805517D01*
X91585255Y-89461865D01*
X91322235Y-89198845D01*
X90978583Y-89056500D01*
X90606617Y-89056500D01*
X90262965Y-89198845D01*
X89999945Y-89461865D01*
X89857600Y-89805517D01*
X81584648Y-89805517D01*
X84960790Y-85609317D01*
X89492400Y-85609317D01*
X89492400Y-85981283D01*
X89634745Y-86324935D01*
X89897765Y-86587955D01*
X90241417Y-86730300D01*
X90613383Y-86730300D01*
X90957035Y-86587955D01*
X91220055Y-86324935D01*
X91362400Y-85981283D01*
X91362400Y-85609317D01*
X91220055Y-85265665D01*
X90957035Y-85002645D01*
X90613383Y-84860300D01*
X90241417Y-84860300D01*
X89897765Y-85002645D01*
X89634745Y-85265665D01*
X89492400Y-85609317D01*
X84960790Y-85609317D01*
X87996862Y-81835790D01*
X88611309Y-81153642D01*
X88656339Y-81123599D01*
X88708267Y-81046001D01*
X88721369Y-81031455D01*
X88748464Y-80985932D01*
X88777911Y-80941928D01*
X88785412Y-80923855D01*
X88806980Y-80887617D01*
X92532500Y-80887617D01*
X92532500Y-81259583D01*
X92674845Y-81603235D01*
X92937865Y-81866255D01*
X93281517Y-82008600D01*
X93653483Y-82008600D01*
X93997135Y-81866255D01*
X94260155Y-81603235D01*
X94402500Y-81259583D01*
X94402500Y-80887617D01*
X94260155Y-80543965D01*
X93997135Y-80280945D01*
X93653483Y-80138600D01*
X93281517Y-80138600D01*
X92937865Y-80280945D01*
X92674845Y-80543965D01*
X92532500Y-80887617D01*
X88806980Y-80887617D01*
X88833171Y-80843614D01*
X88840949Y-80790041D01*
X89007882Y-80387825D01*
X89056749Y-80303713D01*
X89073119Y-80181927D01*
X89097175Y-80061425D01*
X89092492Y-80037795D01*
X89095701Y-80013919D01*
X89064218Y-79895132D01*
X89040331Y-79774604D01*
X88986345Y-79693686D01*
X88792250Y-79297394D01*
X88782510Y-79248212D01*
X88728505Y-79167242D01*
X88718159Y-79146118D01*
X88688424Y-79107149D01*
X88661216Y-79066355D01*
X88644592Y-79049703D01*
X88585557Y-78972334D01*
X88542208Y-78947149D01*
X87902647Y-78306525D01*
X87892716Y-78293005D01*
X87851587Y-78255380D01*
X87812211Y-78215939D01*
X87798274Y-78206610D01*
X85879812Y-76451612D01*
X83951247Y-74659001D01*
X82160629Y-72781955D01*
X80591736Y-70720194D01*
X78941544Y-67805229D01*
X77731855Y-64756195D01*
X76982485Y-61566261D01*
X76727626Y-58400510D01*
X82553070Y-58400510D01*
X82553070Y-60399490D01*
X82602353Y-60647255D01*
X82742701Y-60857299D01*
X82952745Y-60997647D01*
X83200510Y-61046930D01*
X85199490Y-61046930D01*
X85447255Y-60997647D01*
X85657299Y-60857299D01*
X85797647Y-60647255D01*
X85846930Y-60399490D01*
X85846930Y-59074880D01*
X86375510Y-59074880D01*
X86375510Y-59725120D01*
X86624346Y-60325864D01*
X87084136Y-60785654D01*
X87684880Y-61034490D01*
X88335120Y-61034490D01*
X88935864Y-60785654D01*
X89395654Y-60325864D01*
X89644490Y-59725120D01*
X89644490Y-59074880D01*
X89395654Y-58474136D01*
X88935864Y-58014346D01*
X88335120Y-57765510D01*
X87684880Y-57765510D01*
X87084136Y-58014346D01*
X86624346Y-58474136D01*
X86375510Y-59074880D01*
X85846930Y-59074880D01*
X85846930Y-58400510D01*
X85797647Y-58152745D01*
X85657299Y-57942701D01*
X85447255Y-57802353D01*
X85199490Y-57753070D01*
X83200510Y-57753070D01*
X82952745Y-57802353D01*
X82742701Y-57942701D01*
X82602353Y-58152745D01*
X82553070Y-58400510D01*
X76727626Y-58400510D01*
X76711205Y-58196548D01*
X76696439Y-54700996D01*
X76693314Y-51178434D01*
X76693718Y-50854017D01*
X93895000Y-50854017D01*
X93895000Y-51225983D01*
X94037345Y-51569635D01*
X94300365Y-51832655D01*
X94644017Y-51975000D01*
X95015983Y-51975000D01*
X95359635Y-51832655D01*
X95448273Y-51744017D01*
X111505000Y-51744017D01*
X111505000Y-52115983D01*
X111647345Y-52459635D01*
X111910365Y-52722655D01*
X112254017Y-52865000D01*
X112625983Y-52865000D01*
X112969635Y-52722655D01*
X113232655Y-52459635D01*
X113375000Y-52115983D01*
X113375000Y-51744017D01*
X113232655Y-51400365D01*
X112969635Y-51137345D01*
X112625983Y-50995000D01*
X112254017Y-50995000D01*
X111910365Y-51137345D01*
X111647345Y-51400365D01*
X111505000Y-51744017D01*
X95448273Y-51744017D01*
X95622655Y-51569635D01*
X95765000Y-51225983D01*
X95765000Y-50854017D01*
X95622655Y-50510365D01*
X95359635Y-50247345D01*
X95015983Y-50105000D01*
X94644017Y-50105000D01*
X94300365Y-50247345D01*
X94037345Y-50510365D01*
X93895000Y-50854017D01*
X76693718Y-50854017D01*
X76697703Y-47654388D01*
X76703571Y-44955431D01*
X94365000Y-44955431D01*
X94365000Y-45844569D01*
X94705259Y-46666026D01*
X95333974Y-47294741D01*
X96155431Y-47635000D01*
X97044569Y-47635000D01*
X97866026Y-47294741D01*
X98494741Y-46666026D01*
X98835000Y-45844569D01*
X98835000Y-44955431D01*
X98494741Y-44133974D01*
X97866026Y-43505259D01*
X97044569Y-43165000D01*
X96155431Y-43165000D01*
X95333974Y-43505259D01*
X94705259Y-44133974D01*
X94365000Y-44955431D01*
X76703571Y-44955431D01*
X76705235Y-44190633D01*
X77020245Y-42311643D01*
X77845963Y-40987474D01*
X79141328Y-40143910D01*
X80984595Y-39815304D01*
X83421584Y-39806160D01*
X85923371Y-39808079D01*
X88353159Y-39811149D01*
X88354442Y-39811401D01*
X88425500Y-39811240D01*
X88496624Y-39811330D01*
X88497908Y-39811076D01*
X90895753Y-39805648D01*
X93654062Y-40050433D01*
X96145029Y-40804810D01*
X98420072Y-42079141D01*
X100509617Y-43906642D01*
X101146484Y-44623608D01*
X101821982Y-45410350D01*
X101828260Y-45420688D01*
X101869076Y-45465200D01*
X101908413Y-45511015D01*
X101917930Y-45518478D01*
X102400127Y-46044336D01*
X102400163Y-46044435D01*
X102496542Y-46149482D01*
X102547782Y-46205361D01*
X102547871Y-46205426D01*
X102547945Y-46205507D01*
X102608775Y-46250050D01*
X102724112Y-46334557D01*
X102724215Y-46334582D01*
X102871720Y-46442594D01*
X102873758Y-46445872D01*
X102989457Y-46528807D01*
X103044960Y-46569450D01*
X103048370Y-46571037D01*
X103111410Y-46616226D01*
X103179627Y-46632142D01*
X103243133Y-46661707D01*
X103320629Y-46665041D01*
X103396163Y-46682665D01*
X103465278Y-46671265D01*
X103535263Y-46674276D01*
X103608131Y-46647702D01*
X103684664Y-46635078D01*
X103744159Y-46598094D01*
X103809966Y-46574095D01*
X103867118Y-46521659D01*
X103932994Y-46480708D01*
X103973806Y-46423773D01*
X104025423Y-46376415D01*
X104058158Y-46306098D01*
X104060348Y-46303043D01*
X104088732Y-46240422D01*
X104148829Y-46111331D01*
X104148995Y-46107473D01*
X104221206Y-45948164D01*
X104249060Y-45915398D01*
X104281076Y-45816080D01*
X104293691Y-45788250D01*
X104303238Y-45747331D01*
X104316128Y-45707346D01*
X104319649Y-45676997D01*
X104343360Y-45575373D01*
X104336361Y-45532941D01*
X104426165Y-44758843D01*
X104432194Y-44734679D01*
X104434487Y-44687107D01*
X104439977Y-44639784D01*
X104437965Y-44614954D01*
X104487311Y-43591205D01*
X104489850Y-43579404D01*
X104490792Y-43518975D01*
X104493700Y-43458649D01*
X104491919Y-43446717D01*
X104505666Y-42565075D01*
X104507244Y-42556838D01*
X104506793Y-42492763D01*
X104507792Y-42428704D01*
X104506284Y-42420455D01*
X104503899Y-42081473D01*
X104504115Y-42080328D01*
X104503390Y-42009060D01*
X104502889Y-41937865D01*
X104502654Y-41936725D01*
X104498613Y-41539564D01*
X104501399Y-41084896D01*
X104518286Y-40682849D01*
X104600280Y-40274463D01*
X104721783Y-40071303D01*
X104878336Y-39965246D01*
X105175087Y-39915847D01*
X105469479Y-39969387D01*
X105608761Y-40066998D01*
X105709633Y-40253122D01*
X105767292Y-40678653D01*
X105771089Y-42061729D01*
X105770101Y-42067201D01*
X105771287Y-42134057D01*
X105771471Y-42200942D01*
X105772571Y-42206394D01*
X105799592Y-43729072D01*
X105797638Y-43742823D01*
X105800875Y-43801367D01*
X105801914Y-43859945D01*
X105804863Y-43873506D01*
X105878368Y-45203124D01*
X105877989Y-45252374D01*
X105882355Y-45275241D01*
X105883640Y-45298488D01*
X105895901Y-45346192D01*
X106016121Y-45975874D01*
X106014612Y-45984064D01*
X106043471Y-46119124D01*
X106055551Y-46182398D01*
X106058596Y-46189913D01*
X106075711Y-46270011D01*
X106112975Y-46324107D01*
X106137647Y-46384991D01*
X106195119Y-46443355D01*
X106241585Y-46510809D01*
X106296716Y-46546528D01*
X106342808Y-46593335D01*
X106418239Y-46625262D01*
X106486982Y-46669800D01*
X106551586Y-46681703D01*
X106612082Y-46707308D01*
X106693989Y-46707939D01*
X106701959Y-46709407D01*
X106766335Y-46708496D01*
X106904473Y-46709559D01*
X106912194Y-46706430D01*
X107020532Y-46704896D01*
X107099039Y-46718094D01*
X107235958Y-46686590D01*
X107373263Y-46657252D01*
X107378176Y-46653868D01*
X107383994Y-46652529D01*
X107498430Y-46571030D01*
X107614061Y-46491378D01*
X107657345Y-46424571D01*
X108051421Y-46006278D01*
X108084647Y-45975890D01*
X108100931Y-45953725D01*
X108119800Y-45933697D01*
X108143699Y-45895514D01*
X108593353Y-45283483D01*
X108839206Y-44955431D01*
X111565000Y-44955431D01*
X111565000Y-45844569D01*
X111905259Y-46666026D01*
X112533974Y-47294741D01*
X113355431Y-47635000D01*
X114244569Y-47635000D01*
X115066026Y-47294741D01*
X115694741Y-46666026D01*
X116035000Y-45844569D01*
X116035000Y-44955431D01*
X115694741Y-44133974D01*
X115066026Y-43505259D01*
X114244569Y-43165000D01*
X113355431Y-43165000D01*
X112533974Y-43505259D01*
X111905259Y-44133974D01*
X111565000Y-44955431D01*
X108839206Y-44955431D01*
X108901766Y-44871955D01*
X110419217Y-43341181D01*
X112057045Y-42012926D01*
X113838225Y-40974056D01*
X115845812Y-40274617D01*
X116637956Y-40103592D01*
X117464928Y-39962144D01*
X118288515Y-39866313D01*
X119115976Y-39824127D01*
X121774056Y-39796878D01*
X124444450Y-39791611D01*
X127114699Y-39808447D01*
G36*
X73280365Y-168692655D02*
X73624017Y-168835000D01*
X73995983Y-168835000D01*
X74339635Y-168692655D01*
X74421090Y-168611200D01*
X77518910Y-168611200D01*
X77600365Y-168692655D01*
X77944017Y-168835000D01*
X78315983Y-168835000D01*
X78659635Y-168692655D01*
X78741090Y-168611200D01*
X121409112Y-168611200D01*
X132656100Y-179858189D01*
X132656100Y-179973383D01*
X132778800Y-180269609D01*
X132778801Y-180915411D01*
X132536638Y-181157574D01*
X132536635Y-181157576D01*
X123134033Y-190560179D01*
X122511090Y-190560179D01*
X122429635Y-190478724D01*
X122085983Y-190336379D01*
X121714017Y-190336379D01*
X121370365Y-190478724D01*
X121107345Y-190741744D01*
X120965000Y-191085396D01*
X120965000Y-191265000D01*
X120814017Y-191265000D01*
X120470365Y-191407345D01*
X120207345Y-191670365D01*
X120065000Y-192014017D01*
X120065000Y-192197619D01*
X119917156Y-192136380D01*
X119545190Y-192136380D01*
X119201538Y-192278725D01*
X118938518Y-192541745D01*
X118796173Y-192885397D01*
X118796173Y-192931578D01*
X117822973Y-193904779D01*
X117759514Y-193947181D01*
X117591539Y-194198574D01*
X117547443Y-194420259D01*
X117547443Y-194420263D01*
X117532555Y-194495110D01*
X117547443Y-194569957D01*
X117547444Y-200817707D01*
X117532555Y-200892559D01*
X117591540Y-201189096D01*
X117672442Y-201310175D01*
X117672442Y-201378541D01*
X117717925Y-201488346D01*
X113123566Y-196893988D01*
X113123566Y-195287420D01*
X113322807Y-195287420D01*
X113666459Y-195145075D01*
X113929479Y-194882055D01*
X114071824Y-194538403D01*
X114071824Y-194166437D01*
X113929479Y-193822785D01*
X113666459Y-193559765D01*
X113322807Y-193417420D01*
X113259823Y-193417420D01*
X113205021Y-193285115D01*
X112942001Y-193022095D01*
X112598349Y-192879750D01*
X112226383Y-192879750D01*
X111882731Y-193022095D01*
X111619711Y-193285115D01*
X111477366Y-193628767D01*
X111477366Y-194000733D01*
X111619711Y-194344385D01*
X111701167Y-194425841D01*
X111701167Y-194646030D01*
X111698638Y-194643501D01*
X111354986Y-194501156D01*
X110983020Y-194501156D01*
X110639368Y-194643501D01*
X110376348Y-194906521D01*
X110234003Y-195250173D01*
X110234003Y-195622139D01*
X110376348Y-195965791D01*
X110457804Y-196047247D01*
X110457803Y-196839327D01*
X110443871Y-196909369D01*
X110457803Y-196979410D01*
X110457803Y-196979414D01*
X110499067Y-197186864D01*
X110499068Y-197186865D01*
X110616579Y-197362733D01*
X110616581Y-197362735D01*
X110656257Y-197422114D01*
X110715637Y-197461791D01*
X119483414Y-206229569D01*
X119523090Y-206288948D01*
X119582469Y-206328624D01*
X119582471Y-206328626D01*
X119758338Y-206446137D01*
X119758339Y-206446137D01*
X119758340Y-206446138D01*
X119965790Y-206487402D01*
X119965793Y-206487402D01*
X120035835Y-206501334D01*
X120105877Y-206487402D01*
X121006537Y-206487402D01*
X121076578Y-206501334D01*
X121146619Y-206487402D01*
X121146624Y-206487402D01*
X121354074Y-206446138D01*
X121589324Y-206288948D01*
X121629002Y-206229566D01*
X123925869Y-203932700D01*
X127531401Y-203932700D01*
X127531400Y-212414999D01*
X122401246Y-212414999D01*
X122326399Y-212400111D01*
X122251552Y-212414999D01*
X122251548Y-212414999D01*
X122029863Y-212459095D01*
X121778471Y-212627070D01*
X121736069Y-212690529D01*
X121660198Y-212766400D01*
X108722875Y-212766400D01*
X108942891Y-212546384D01*
X109076300Y-212224307D01*
X109076300Y-211875693D01*
X108942891Y-211553616D01*
X108696384Y-211307109D01*
X108374307Y-211173700D01*
X108025693Y-211173700D01*
X107703616Y-211307109D01*
X107457109Y-211553616D01*
X107323700Y-211875693D01*
X107323700Y-212224307D01*
X107457109Y-212546384D01*
X107677125Y-212766400D01*
X102260269Y-212766400D01*
X102335000Y-212585983D01*
X102335000Y-212214017D01*
X102192655Y-211870365D01*
X101929635Y-211607345D01*
X101585983Y-211465000D01*
X101214017Y-211465000D01*
X100870365Y-211607345D01*
X100607345Y-211870365D01*
X100465000Y-212214017D01*
X100465000Y-212585983D01*
X100539731Y-212766400D01*
X97507100Y-212766400D01*
X97507100Y-211341946D01*
X97521988Y-211267099D01*
X97507100Y-211192252D01*
X97507100Y-211192248D01*
X97463004Y-210970563D01*
X97411462Y-210893425D01*
X97337429Y-210782626D01*
X97337427Y-210782624D01*
X97295029Y-210719171D01*
X97231576Y-210676773D01*
X96651431Y-210096628D01*
X105526190Y-210096628D01*
X105526190Y-210445242D01*
X105659599Y-210767319D01*
X105906106Y-211013826D01*
X106228183Y-211147235D01*
X106576797Y-211147235D01*
X106898874Y-211013826D01*
X107098683Y-210814017D01*
X119265000Y-210814017D01*
X119265000Y-211185983D01*
X119407345Y-211529635D01*
X119670365Y-211792655D01*
X120014017Y-211935000D01*
X120385983Y-211935000D01*
X120729635Y-211792655D01*
X120992655Y-211529635D01*
X121123387Y-211214017D01*
X121265000Y-211214017D01*
X121265000Y-211585983D01*
X121407345Y-211929635D01*
X121670365Y-212192655D01*
X122014017Y-212335000D01*
X122385983Y-212335000D01*
X122729635Y-212192655D01*
X122992655Y-211929635D01*
X123135000Y-211585983D01*
X123135000Y-211214017D01*
X122992655Y-210870365D01*
X122729635Y-210607345D01*
X122385983Y-210465000D01*
X122014017Y-210465000D01*
X121670365Y-210607345D01*
X121407345Y-210870365D01*
X121265000Y-211214017D01*
X121123387Y-211214017D01*
X121135000Y-211185983D01*
X121135000Y-210814017D01*
X120992655Y-210470365D01*
X120729635Y-210207345D01*
X120385983Y-210065000D01*
X120014017Y-210065000D01*
X119670365Y-210207345D01*
X119407345Y-210470365D01*
X119265000Y-210814017D01*
X107098683Y-210814017D01*
X107145381Y-210767319D01*
X107278790Y-210445242D01*
X107278790Y-210096628D01*
X107145381Y-209774551D01*
X106898874Y-209528044D01*
X106576797Y-209394635D01*
X106228183Y-209394635D01*
X105906106Y-209528044D01*
X105659599Y-209774551D01*
X105526190Y-210096628D01*
X96651431Y-210096628D01*
X94134820Y-207580017D01*
X97419000Y-207580017D01*
X97419000Y-207951983D01*
X97561345Y-208295635D01*
X97824365Y-208558655D01*
X98168017Y-208701000D01*
X98539983Y-208701000D01*
X98883635Y-208558655D01*
X99146655Y-208295635D01*
X99289000Y-207951983D01*
X99289000Y-207580017D01*
X99203673Y-207374017D01*
X105985000Y-207374017D01*
X105985000Y-207745983D01*
X106127345Y-208089635D01*
X106390365Y-208352655D01*
X106734017Y-208495000D01*
X107105983Y-208495000D01*
X107449635Y-208352655D01*
X107712655Y-208089635D01*
X107855000Y-207745983D01*
X107855000Y-207374017D01*
X107712655Y-207030365D01*
X107449635Y-206767345D01*
X107105983Y-206625000D01*
X106734017Y-206625000D01*
X106390365Y-206767345D01*
X106127345Y-207030365D01*
X105985000Y-207374017D01*
X99203673Y-207374017D01*
X99146655Y-207236365D01*
X98883635Y-206973345D01*
X98539983Y-206831000D01*
X98168017Y-206831000D01*
X97824365Y-206973345D01*
X97561345Y-207236365D01*
X97419000Y-207580017D01*
X94134820Y-207580017D01*
X93153623Y-206598820D01*
X121841210Y-206598820D01*
X121841210Y-206970786D01*
X121983555Y-207314438D01*
X122246575Y-207577458D01*
X122303961Y-207601228D01*
X122248002Y-207736325D01*
X122248002Y-208108291D01*
X122390347Y-208451943D01*
X122653367Y-208714963D01*
X122997019Y-208857308D01*
X123368985Y-208857308D01*
X123712637Y-208714963D01*
X123975657Y-208451943D01*
X124118002Y-208108291D01*
X124118002Y-207736325D01*
X124067341Y-207614017D01*
X124465000Y-207614017D01*
X124465000Y-207985983D01*
X124607345Y-208329635D01*
X124870365Y-208592655D01*
X125214017Y-208735000D01*
X125585983Y-208735000D01*
X125929635Y-208592655D01*
X126192655Y-208329635D01*
X126335000Y-207985983D01*
X126335000Y-207614017D01*
X126192655Y-207270365D01*
X125929635Y-207007345D01*
X125585983Y-206865000D01*
X125214017Y-206865000D01*
X124870365Y-207007345D01*
X124607345Y-207270365D01*
X124465000Y-207614017D01*
X124067341Y-207614017D01*
X124046843Y-207564532D01*
X124105000Y-207540443D01*
X124368020Y-207277423D01*
X124510365Y-206933771D01*
X124510365Y-206561805D01*
X124368020Y-206218153D01*
X124105000Y-205955133D01*
X123761348Y-205812788D01*
X123389382Y-205812788D01*
X123131106Y-205919769D01*
X122962193Y-205849803D01*
X122590227Y-205849803D01*
X122246575Y-205992148D01*
X121983555Y-206255168D01*
X121841210Y-206598820D01*
X93153623Y-206598820D01*
X89598820Y-203044017D01*
X112675000Y-203044017D01*
X112675000Y-203415983D01*
X112817345Y-203759635D01*
X113080365Y-204022655D01*
X113424017Y-204165000D01*
X113795983Y-204165000D01*
X114139635Y-204022655D01*
X114402655Y-203759635D01*
X114545000Y-203415983D01*
X114545000Y-203057290D01*
X114792655Y-202809635D01*
X114935000Y-202465983D01*
X114935000Y-202094017D01*
X114792655Y-201750365D01*
X114529635Y-201487345D01*
X114185983Y-201345000D01*
X113814017Y-201345000D01*
X113470365Y-201487345D01*
X113207345Y-201750365D01*
X113065000Y-202094017D01*
X113065000Y-202452710D01*
X112817345Y-202700365D01*
X112675000Y-203044017D01*
X89598820Y-203044017D01*
X80666002Y-194111200D01*
X103105412Y-194111200D01*
X105181702Y-196187491D01*
X104885983Y-196065000D01*
X104514017Y-196065000D01*
X104170365Y-196207345D01*
X103907345Y-196470365D01*
X103765000Y-196814017D01*
X103765000Y-197185983D01*
X103907345Y-197529635D01*
X104170365Y-197792655D01*
X104514017Y-197935000D01*
X104885983Y-197935000D01*
X105229635Y-197792655D01*
X105492655Y-197529635D01*
X105635000Y-197185983D01*
X105635000Y-196814017D01*
X105512509Y-196518298D01*
X111065000Y-202070789D01*
X111065000Y-202185983D01*
X111207345Y-202529635D01*
X111470365Y-202792655D01*
X111814017Y-202935000D01*
X112185983Y-202935000D01*
X112529635Y-202792655D01*
X112792655Y-202529635D01*
X112935000Y-202185983D01*
X112935000Y-201814017D01*
X112792655Y-201470365D01*
X112529635Y-201207345D01*
X112185983Y-201065000D01*
X112070789Y-201065000D01*
X107956833Y-196951045D01*
X107992891Y-196914987D01*
X108135236Y-196571335D01*
X108135236Y-196199369D01*
X107992891Y-195855717D01*
X107729871Y-195592697D01*
X107386219Y-195450352D01*
X107014253Y-195450352D01*
X106670601Y-195592697D01*
X106634543Y-195628755D01*
X106224736Y-195218948D01*
X106529635Y-195092655D01*
X106792655Y-194829635D01*
X106935000Y-194485983D01*
X106935000Y-194114017D01*
X106792655Y-193770365D01*
X106529635Y-193507345D01*
X106185983Y-193365000D01*
X105814017Y-193365000D01*
X105470365Y-193507345D01*
X105207345Y-193770365D01*
X105081052Y-194075264D01*
X103952423Y-192946635D01*
X103912746Y-192887254D01*
X103688494Y-192737413D01*
X113417048Y-192737413D01*
X113417048Y-192788406D01*
X113559393Y-193132058D01*
X113822413Y-193395078D01*
X114166065Y-193537423D01*
X114538031Y-193537423D01*
X114881683Y-193395078D01*
X115144703Y-193132058D01*
X115257736Y-192859173D01*
X115327236Y-192928673D01*
X115333091Y-192931098D01*
X115298745Y-193014017D01*
X115298745Y-193385983D01*
X115441090Y-193729635D01*
X115704110Y-193992655D01*
X116047762Y-194135000D01*
X116419728Y-194135000D01*
X116763380Y-193992655D01*
X117026400Y-193729635D01*
X117168745Y-193385983D01*
X117168745Y-193014017D01*
X117026400Y-192670365D01*
X116763380Y-192407345D01*
X116757525Y-192404920D01*
X116791871Y-192322001D01*
X116791871Y-191950035D01*
X116649526Y-191606383D01*
X116386506Y-191343363D01*
X116042854Y-191201018D01*
X115859574Y-191201018D01*
X116064772Y-190995820D01*
X116207117Y-190652168D01*
X116207117Y-190280202D01*
X116064772Y-189936550D01*
X115801752Y-189673530D01*
X115458100Y-189531185D01*
X115172077Y-189531185D01*
X115064042Y-189270365D01*
X114801022Y-189007345D01*
X114457370Y-188865000D01*
X114085404Y-188865000D01*
X113741752Y-189007345D01*
X113660297Y-189088800D01*
X113541811Y-189088800D01*
X113167650Y-188714640D01*
X113222655Y-188659635D01*
X113365000Y-188315983D01*
X113365000Y-187944017D01*
X113222655Y-187600365D01*
X112959635Y-187337345D01*
X112615983Y-187195000D01*
X112244017Y-187195000D01*
X111900365Y-187337345D01*
X111845360Y-187392350D01*
X110225037Y-185772027D01*
X110185359Y-185712645D01*
X109950109Y-185555455D01*
X109742659Y-185514191D01*
X109742654Y-185514191D01*
X109672613Y-185500259D01*
X109602572Y-185514191D01*
X104332189Y-185514191D01*
X104435000Y-185265983D01*
X104435000Y-184894017D01*
X104292655Y-184550365D01*
X104215538Y-184473248D01*
X109557499Y-184473248D01*
X109557499Y-184845214D01*
X109699844Y-185188866D01*
X109962864Y-185451886D01*
X110306516Y-185594231D01*
X110678482Y-185594231D01*
X110849327Y-185523465D01*
X111028187Y-185702325D01*
X111371839Y-185844670D01*
X111743805Y-185844670D01*
X112087457Y-185702325D01*
X112350477Y-185439305D01*
X112492822Y-185095653D01*
X112492822Y-184723687D01*
X112350477Y-184380035D01*
X112087457Y-184117015D01*
X111743805Y-183974670D01*
X111371839Y-183974670D01*
X111200994Y-184045436D01*
X111022134Y-183866576D01*
X110678482Y-183724231D01*
X110306516Y-183724231D01*
X109962864Y-183866576D01*
X109699844Y-184129596D01*
X109557499Y-184473248D01*
X104215538Y-184473248D01*
X104029635Y-184287345D01*
X103685983Y-184145000D01*
X103314017Y-184145000D01*
X102970365Y-184287345D01*
X102707345Y-184550365D01*
X102565000Y-184894017D01*
X102565000Y-185265983D01*
X102667811Y-185514191D01*
X89515900Y-185514191D01*
X89434445Y-185432736D01*
X89090793Y-185290391D01*
X88718827Y-185290391D01*
X88375175Y-185432736D01*
X88112155Y-185695756D01*
X87969810Y-186039408D01*
X87969810Y-186411374D01*
X88112155Y-186755026D01*
X88375175Y-187018046D01*
X88718827Y-187160391D01*
X89090793Y-187160391D01*
X89434445Y-187018046D01*
X89515900Y-186936591D01*
X109378025Y-186936591D01*
X112694800Y-190253367D01*
X112718476Y-190288800D01*
X106097427Y-190288800D01*
X106296523Y-190206332D01*
X106559543Y-189943312D01*
X106701888Y-189599660D01*
X106701888Y-189227694D01*
X106559543Y-188884042D01*
X106296523Y-188621022D01*
X105952871Y-188478677D01*
X105580905Y-188478677D01*
X105237253Y-188621022D01*
X104974233Y-188884042D01*
X104831888Y-189227694D01*
X104831888Y-189599660D01*
X104974233Y-189943312D01*
X105237253Y-190206332D01*
X105436349Y-190288800D01*
X99694589Y-190288800D01*
X99335000Y-189929212D01*
X99335000Y-189814017D01*
X99192655Y-189470365D01*
X98929635Y-189207345D01*
X98585983Y-189065000D01*
X98214017Y-189065000D01*
X97870365Y-189207345D01*
X97607345Y-189470365D01*
X97465000Y-189814017D01*
X97465000Y-190185983D01*
X97607345Y-190529635D01*
X97870365Y-190792655D01*
X98214017Y-190935000D01*
X98329212Y-190935000D01*
X98709224Y-191315013D01*
X80721086Y-191315013D01*
X78735142Y-189329070D01*
X78735142Y-189213875D01*
X78652359Y-189014017D01*
X80065000Y-189014017D01*
X80065000Y-189385983D01*
X80207345Y-189729635D01*
X80470365Y-189992655D01*
X80814017Y-190135000D01*
X81185983Y-190135000D01*
X81529635Y-189992655D01*
X81792655Y-189729635D01*
X81935000Y-189385983D01*
X81935000Y-189014017D01*
X81792655Y-188670365D01*
X81529635Y-188407345D01*
X81185983Y-188265000D01*
X80814017Y-188265000D01*
X80470365Y-188407345D01*
X80207345Y-188670365D01*
X80065000Y-189014017D01*
X78652359Y-189014017D01*
X78592797Y-188870223D01*
X78329777Y-188607203D01*
X77986125Y-188464858D01*
X77614159Y-188464858D01*
X77270507Y-188607203D01*
X77007487Y-188870223D01*
X77004126Y-188878337D01*
X74839806Y-186714017D01*
X77065000Y-186714017D01*
X77065000Y-187085983D01*
X77207345Y-187429635D01*
X77470365Y-187692655D01*
X77814017Y-187835000D01*
X78185983Y-187835000D01*
X78529635Y-187692655D01*
X78792655Y-187429635D01*
X78935000Y-187085983D01*
X78935000Y-186714017D01*
X78792655Y-186370365D01*
X78529635Y-186107345D01*
X78185983Y-185965000D01*
X77814017Y-185965000D01*
X77470365Y-186107345D01*
X77207345Y-186370365D01*
X77065000Y-186714017D01*
X74839806Y-186714017D01*
X72285000Y-184159212D01*
X72285000Y-184044017D01*
X72161097Y-183744888D01*
X95953391Y-183744888D01*
X95953391Y-184116854D01*
X96095736Y-184460506D01*
X96358756Y-184723526D01*
X96702408Y-184865871D01*
X97074374Y-184865871D01*
X97418026Y-184723526D01*
X97681046Y-184460506D01*
X97823391Y-184116854D01*
X97823391Y-183744888D01*
X97681046Y-183401236D01*
X97418026Y-183138216D01*
X97074374Y-182995871D01*
X96702408Y-182995871D01*
X96358756Y-183138216D01*
X96095736Y-183401236D01*
X95953391Y-183744888D01*
X72161097Y-183744888D01*
X72142655Y-183700365D01*
X71879635Y-183437345D01*
X71559267Y-183304645D01*
X71829635Y-183192655D01*
X72092655Y-182929635D01*
X72235000Y-182585983D01*
X72235000Y-182214017D01*
X72092655Y-181870365D01*
X71829635Y-181607345D01*
X71485983Y-181465000D01*
X71293800Y-181465000D01*
X71293800Y-175575000D01*
X71325983Y-175575000D01*
X71669635Y-175432655D01*
X71751090Y-175351200D01*
X73838910Y-175351200D01*
X73870365Y-175382655D01*
X74214017Y-175525000D01*
X74585983Y-175525000D01*
X74929635Y-175382655D01*
X74982600Y-175329690D01*
X74982600Y-176295000D01*
X74884017Y-176295000D01*
X74540365Y-176437345D01*
X74277345Y-176700365D01*
X74135000Y-177044017D01*
X74135000Y-177415983D01*
X74277345Y-177759635D01*
X74540365Y-178022655D01*
X74884017Y-178165000D01*
X75255983Y-178165000D01*
X75599635Y-178022655D01*
X75862655Y-177759635D01*
X76005000Y-177415983D01*
X76005000Y-177300789D01*
X76147169Y-177158620D01*
X76206545Y-177118946D01*
X76246220Y-177059569D01*
X76246224Y-177059565D01*
X76363735Y-176883698D01*
X76363735Y-176883697D01*
X76363736Y-176883696D01*
X76405000Y-176676246D01*
X76405000Y-176676243D01*
X76418932Y-176606201D01*
X76405000Y-176536159D01*
X76405000Y-172964890D01*
X76486455Y-172883435D01*
X76628800Y-172539783D01*
X76628800Y-172167817D01*
X76486455Y-171824165D01*
X76223435Y-171561145D01*
X75879783Y-171418800D01*
X75507817Y-171418800D01*
X75164165Y-171561145D01*
X74901145Y-171824165D01*
X74758800Y-172167817D01*
X74758800Y-172539783D01*
X74857200Y-172777341D01*
X74585983Y-172665000D01*
X74214017Y-172665000D01*
X73870365Y-172807345D01*
X73607345Y-173070365D01*
X73465000Y-173414017D01*
X73465000Y-173785983D01*
X73524157Y-173928800D01*
X71751090Y-173928800D01*
X71669635Y-173847345D01*
X71325983Y-173705000D01*
X71293800Y-173705000D01*
X71293800Y-170580343D01*
X71321535Y-170568855D01*
X71584555Y-170305835D01*
X71726900Y-169962183D01*
X71726900Y-169916001D01*
X73115306Y-168527596D01*
X73280365Y-168692655D01*
X73280365Y-168692655D01*
G37*
X73280365Y-168692655D02*
X73624017Y-168835000D01*
X73995983Y-168835000D01*
X74339635Y-168692655D01*
X74421090Y-168611200D01*
X77518910Y-168611200D01*
X77600365Y-168692655D01*
X77944017Y-168835000D01*
X78315983Y-168835000D01*
X78659635Y-168692655D01*
X78741090Y-168611200D01*
X121409112Y-168611200D01*
X132656100Y-179858189D01*
X132656100Y-179973383D01*
X132778800Y-180269609D01*
X132778801Y-180915411D01*
X132536638Y-181157574D01*
X132536635Y-181157576D01*
X123134033Y-190560179D01*
X122511090Y-190560179D01*
X122429635Y-190478724D01*
X122085983Y-190336379D01*
X121714017Y-190336379D01*
X121370365Y-190478724D01*
X121107345Y-190741744D01*
X120965000Y-191085396D01*
X120965000Y-191265000D01*
X120814017Y-191265000D01*
X120470365Y-191407345D01*
X120207345Y-191670365D01*
X120065000Y-192014017D01*
X120065000Y-192197619D01*
X119917156Y-192136380D01*
X119545190Y-192136380D01*
X119201538Y-192278725D01*
X118938518Y-192541745D01*
X118796173Y-192885397D01*
X118796173Y-192931578D01*
X117822973Y-193904779D01*
X117759514Y-193947181D01*
X117591539Y-194198574D01*
X117547443Y-194420259D01*
X117547443Y-194420263D01*
X117532555Y-194495110D01*
X117547443Y-194569957D01*
X117547444Y-200817707D01*
X117532555Y-200892559D01*
X117591540Y-201189096D01*
X117672442Y-201310175D01*
X117672442Y-201378541D01*
X117717925Y-201488346D01*
X113123566Y-196893988D01*
X113123566Y-195287420D01*
X113322807Y-195287420D01*
X113666459Y-195145075D01*
X113929479Y-194882055D01*
X114071824Y-194538403D01*
X114071824Y-194166437D01*
X113929479Y-193822785D01*
X113666459Y-193559765D01*
X113322807Y-193417420D01*
X113259823Y-193417420D01*
X113205021Y-193285115D01*
X112942001Y-193022095D01*
X112598349Y-192879750D01*
X112226383Y-192879750D01*
X111882731Y-193022095D01*
X111619711Y-193285115D01*
X111477366Y-193628767D01*
X111477366Y-194000733D01*
X111619711Y-194344385D01*
X111701167Y-194425841D01*
X111701167Y-194646030D01*
X111698638Y-194643501D01*
X111354986Y-194501156D01*
X110983020Y-194501156D01*
X110639368Y-194643501D01*
X110376348Y-194906521D01*
X110234003Y-195250173D01*
X110234003Y-195622139D01*
X110376348Y-195965791D01*
X110457804Y-196047247D01*
X110457803Y-196839327D01*
X110443871Y-196909369D01*
X110457803Y-196979410D01*
X110457803Y-196979414D01*
X110499067Y-197186864D01*
X110499068Y-197186865D01*
X110616579Y-197362733D01*
X110616581Y-197362735D01*
X110656257Y-197422114D01*
X110715637Y-197461791D01*
X119483414Y-206229569D01*
X119523090Y-206288948D01*
X119582469Y-206328624D01*
X119582471Y-206328626D01*
X119758338Y-206446137D01*
X119758339Y-206446137D01*
X119758340Y-206446138D01*
X119965790Y-206487402D01*
X119965793Y-206487402D01*
X120035835Y-206501334D01*
X120105877Y-206487402D01*
X121006537Y-206487402D01*
X121076578Y-206501334D01*
X121146619Y-206487402D01*
X121146624Y-206487402D01*
X121354074Y-206446138D01*
X121589324Y-206288948D01*
X121629002Y-206229566D01*
X123925869Y-203932700D01*
X127531401Y-203932700D01*
X127531400Y-212414999D01*
X122401246Y-212414999D01*
X122326399Y-212400111D01*
X122251552Y-212414999D01*
X122251548Y-212414999D01*
X122029863Y-212459095D01*
X121778471Y-212627070D01*
X121736069Y-212690529D01*
X121660198Y-212766400D01*
X108722875Y-212766400D01*
X108942891Y-212546384D01*
X109076300Y-212224307D01*
X109076300Y-211875693D01*
X108942891Y-211553616D01*
X108696384Y-211307109D01*
X108374307Y-211173700D01*
X108025693Y-211173700D01*
X107703616Y-211307109D01*
X107457109Y-211553616D01*
X107323700Y-211875693D01*
X107323700Y-212224307D01*
X107457109Y-212546384D01*
X107677125Y-212766400D01*
X102260269Y-212766400D01*
X102335000Y-212585983D01*
X102335000Y-212214017D01*
X102192655Y-211870365D01*
X101929635Y-211607345D01*
X101585983Y-211465000D01*
X101214017Y-211465000D01*
X100870365Y-211607345D01*
X100607345Y-211870365D01*
X100465000Y-212214017D01*
X100465000Y-212585983D01*
X100539731Y-212766400D01*
X97507100Y-212766400D01*
X97507100Y-211341946D01*
X97521988Y-211267099D01*
X97507100Y-211192252D01*
X97507100Y-211192248D01*
X97463004Y-210970563D01*
X97411462Y-210893425D01*
X97337429Y-210782626D01*
X97337427Y-210782624D01*
X97295029Y-210719171D01*
X97231576Y-210676773D01*
X96651431Y-210096628D01*
X105526190Y-210096628D01*
X105526190Y-210445242D01*
X105659599Y-210767319D01*
X105906106Y-211013826D01*
X106228183Y-211147235D01*
X106576797Y-211147235D01*
X106898874Y-211013826D01*
X107098683Y-210814017D01*
X119265000Y-210814017D01*
X119265000Y-211185983D01*
X119407345Y-211529635D01*
X119670365Y-211792655D01*
X120014017Y-211935000D01*
X120385983Y-211935000D01*
X120729635Y-211792655D01*
X120992655Y-211529635D01*
X121123387Y-211214017D01*
X121265000Y-211214017D01*
X121265000Y-211585983D01*
X121407345Y-211929635D01*
X121670365Y-212192655D01*
X122014017Y-212335000D01*
X122385983Y-212335000D01*
X122729635Y-212192655D01*
X122992655Y-211929635D01*
X123135000Y-211585983D01*
X123135000Y-211214017D01*
X122992655Y-210870365D01*
X122729635Y-210607345D01*
X122385983Y-210465000D01*
X122014017Y-210465000D01*
X121670365Y-210607345D01*
X121407345Y-210870365D01*
X121265000Y-211214017D01*
X121123387Y-211214017D01*
X121135000Y-211185983D01*
X121135000Y-210814017D01*
X120992655Y-210470365D01*
X120729635Y-210207345D01*
X120385983Y-210065000D01*
X120014017Y-210065000D01*
X119670365Y-210207345D01*
X119407345Y-210470365D01*
X119265000Y-210814017D01*
X107098683Y-210814017D01*
X107145381Y-210767319D01*
X107278790Y-210445242D01*
X107278790Y-210096628D01*
X107145381Y-209774551D01*
X106898874Y-209528044D01*
X106576797Y-209394635D01*
X106228183Y-209394635D01*
X105906106Y-209528044D01*
X105659599Y-209774551D01*
X105526190Y-210096628D01*
X96651431Y-210096628D01*
X94134820Y-207580017D01*
X97419000Y-207580017D01*
X97419000Y-207951983D01*
X97561345Y-208295635D01*
X97824365Y-208558655D01*
X98168017Y-208701000D01*
X98539983Y-208701000D01*
X98883635Y-208558655D01*
X99146655Y-208295635D01*
X99289000Y-207951983D01*
X99289000Y-207580017D01*
X99203673Y-207374017D01*
X105985000Y-207374017D01*
X105985000Y-207745983D01*
X106127345Y-208089635D01*
X106390365Y-208352655D01*
X106734017Y-208495000D01*
X107105983Y-208495000D01*
X107449635Y-208352655D01*
X107712655Y-208089635D01*
X107855000Y-207745983D01*
X107855000Y-207374017D01*
X107712655Y-207030365D01*
X107449635Y-206767345D01*
X107105983Y-206625000D01*
X106734017Y-206625000D01*
X106390365Y-206767345D01*
X106127345Y-207030365D01*
X105985000Y-207374017D01*
X99203673Y-207374017D01*
X99146655Y-207236365D01*
X98883635Y-206973345D01*
X98539983Y-206831000D01*
X98168017Y-206831000D01*
X97824365Y-206973345D01*
X97561345Y-207236365D01*
X97419000Y-207580017D01*
X94134820Y-207580017D01*
X93153623Y-206598820D01*
X121841210Y-206598820D01*
X121841210Y-206970786D01*
X121983555Y-207314438D01*
X122246575Y-207577458D01*
X122303961Y-207601228D01*
X122248002Y-207736325D01*
X122248002Y-208108291D01*
X122390347Y-208451943D01*
X122653367Y-208714963D01*
X122997019Y-208857308D01*
X123368985Y-208857308D01*
X123712637Y-208714963D01*
X123975657Y-208451943D01*
X124118002Y-208108291D01*
X124118002Y-207736325D01*
X124067341Y-207614017D01*
X124465000Y-207614017D01*
X124465000Y-207985983D01*
X124607345Y-208329635D01*
X124870365Y-208592655D01*
X125214017Y-208735000D01*
X125585983Y-208735000D01*
X125929635Y-208592655D01*
X126192655Y-208329635D01*
X126335000Y-207985983D01*
X126335000Y-207614017D01*
X126192655Y-207270365D01*
X125929635Y-207007345D01*
X125585983Y-206865000D01*
X125214017Y-206865000D01*
X124870365Y-207007345D01*
X124607345Y-207270365D01*
X124465000Y-207614017D01*
X124067341Y-207614017D01*
X124046843Y-207564532D01*
X124105000Y-207540443D01*
X124368020Y-207277423D01*
X124510365Y-206933771D01*
X124510365Y-206561805D01*
X124368020Y-206218153D01*
X124105000Y-205955133D01*
X123761348Y-205812788D01*
X123389382Y-205812788D01*
X123131106Y-205919769D01*
X122962193Y-205849803D01*
X122590227Y-205849803D01*
X122246575Y-205992148D01*
X121983555Y-206255168D01*
X121841210Y-206598820D01*
X93153623Y-206598820D01*
X89598820Y-203044017D01*
X112675000Y-203044017D01*
X112675000Y-203415983D01*
X112817345Y-203759635D01*
X113080365Y-204022655D01*
X113424017Y-204165000D01*
X113795983Y-204165000D01*
X114139635Y-204022655D01*
X114402655Y-203759635D01*
X114545000Y-203415983D01*
X114545000Y-203057290D01*
X114792655Y-202809635D01*
X114935000Y-202465983D01*
X114935000Y-202094017D01*
X114792655Y-201750365D01*
X114529635Y-201487345D01*
X114185983Y-201345000D01*
X113814017Y-201345000D01*
X113470365Y-201487345D01*
X113207345Y-201750365D01*
X113065000Y-202094017D01*
X113065000Y-202452710D01*
X112817345Y-202700365D01*
X112675000Y-203044017D01*
X89598820Y-203044017D01*
X80666002Y-194111200D01*
X103105412Y-194111200D01*
X105181702Y-196187491D01*
X104885983Y-196065000D01*
X104514017Y-196065000D01*
X104170365Y-196207345D01*
X103907345Y-196470365D01*
X103765000Y-196814017D01*
X103765000Y-197185983D01*
X103907345Y-197529635D01*
X104170365Y-197792655D01*
X104514017Y-197935000D01*
X104885983Y-197935000D01*
X105229635Y-197792655D01*
X105492655Y-197529635D01*
X105635000Y-197185983D01*
X105635000Y-196814017D01*
X105512509Y-196518298D01*
X111065000Y-202070789D01*
X111065000Y-202185983D01*
X111207345Y-202529635D01*
X111470365Y-202792655D01*
X111814017Y-202935000D01*
X112185983Y-202935000D01*
X112529635Y-202792655D01*
X112792655Y-202529635D01*
X112935000Y-202185983D01*
X112935000Y-201814017D01*
X112792655Y-201470365D01*
X112529635Y-201207345D01*
X112185983Y-201065000D01*
X112070789Y-201065000D01*
X107956833Y-196951045D01*
X107992891Y-196914987D01*
X108135236Y-196571335D01*
X108135236Y-196199369D01*
X107992891Y-195855717D01*
X107729871Y-195592697D01*
X107386219Y-195450352D01*
X107014253Y-195450352D01*
X106670601Y-195592697D01*
X106634543Y-195628755D01*
X106224736Y-195218948D01*
X106529635Y-195092655D01*
X106792655Y-194829635D01*
X106935000Y-194485983D01*
X106935000Y-194114017D01*
X106792655Y-193770365D01*
X106529635Y-193507345D01*
X106185983Y-193365000D01*
X105814017Y-193365000D01*
X105470365Y-193507345D01*
X105207345Y-193770365D01*
X105081052Y-194075264D01*
X103952423Y-192946635D01*
X103912746Y-192887254D01*
X103688494Y-192737413D01*
X113417048Y-192737413D01*
X113417048Y-192788406D01*
X113559393Y-193132058D01*
X113822413Y-193395078D01*
X114166065Y-193537423D01*
X114538031Y-193537423D01*
X114881683Y-193395078D01*
X115144703Y-193132058D01*
X115257736Y-192859173D01*
X115327236Y-192928673D01*
X115333091Y-192931098D01*
X115298745Y-193014017D01*
X115298745Y-193385983D01*
X115441090Y-193729635D01*
X115704110Y-193992655D01*
X116047762Y-194135000D01*
X116419728Y-194135000D01*
X116763380Y-193992655D01*
X117026400Y-193729635D01*
X117168745Y-193385983D01*
X117168745Y-193014017D01*
X117026400Y-192670365D01*
X116763380Y-192407345D01*
X116757525Y-192404920D01*
X116791871Y-192322001D01*
X116791871Y-191950035D01*
X116649526Y-191606383D01*
X116386506Y-191343363D01*
X116042854Y-191201018D01*
X115859574Y-191201018D01*
X116064772Y-190995820D01*
X116207117Y-190652168D01*
X116207117Y-190280202D01*
X116064772Y-189936550D01*
X115801752Y-189673530D01*
X115458100Y-189531185D01*
X115172077Y-189531185D01*
X115064042Y-189270365D01*
X114801022Y-189007345D01*
X114457370Y-188865000D01*
X114085404Y-188865000D01*
X113741752Y-189007345D01*
X113660297Y-189088800D01*
X113541811Y-189088800D01*
X113167650Y-188714640D01*
X113222655Y-188659635D01*
X113365000Y-188315983D01*
X113365000Y-187944017D01*
X113222655Y-187600365D01*
X112959635Y-187337345D01*
X112615983Y-187195000D01*
X112244017Y-187195000D01*
X111900365Y-187337345D01*
X111845360Y-187392350D01*
X110225037Y-185772027D01*
X110185359Y-185712645D01*
X109950109Y-185555455D01*
X109742659Y-185514191D01*
X109742654Y-185514191D01*
X109672613Y-185500259D01*
X109602572Y-185514191D01*
X104332189Y-185514191D01*
X104435000Y-185265983D01*
X104435000Y-184894017D01*
X104292655Y-184550365D01*
X104215538Y-184473248D01*
X109557499Y-184473248D01*
X109557499Y-184845214D01*
X109699844Y-185188866D01*
X109962864Y-185451886D01*
X110306516Y-185594231D01*
X110678482Y-185594231D01*
X110849327Y-185523465D01*
X111028187Y-185702325D01*
X111371839Y-185844670D01*
X111743805Y-185844670D01*
X112087457Y-185702325D01*
X112350477Y-185439305D01*
X112492822Y-185095653D01*
X112492822Y-184723687D01*
X112350477Y-184380035D01*
X112087457Y-184117015D01*
X111743805Y-183974670D01*
X111371839Y-183974670D01*
X111200994Y-184045436D01*
X111022134Y-183866576D01*
X110678482Y-183724231D01*
X110306516Y-183724231D01*
X109962864Y-183866576D01*
X109699844Y-184129596D01*
X109557499Y-184473248D01*
X104215538Y-184473248D01*
X104029635Y-184287345D01*
X103685983Y-184145000D01*
X103314017Y-184145000D01*
X102970365Y-184287345D01*
X102707345Y-184550365D01*
X102565000Y-184894017D01*
X102565000Y-185265983D01*
X102667811Y-185514191D01*
X89515900Y-185514191D01*
X89434445Y-185432736D01*
X89090793Y-185290391D01*
X88718827Y-185290391D01*
X88375175Y-185432736D01*
X88112155Y-185695756D01*
X87969810Y-186039408D01*
X87969810Y-186411374D01*
X88112155Y-186755026D01*
X88375175Y-187018046D01*
X88718827Y-187160391D01*
X89090793Y-187160391D01*
X89434445Y-187018046D01*
X89515900Y-186936591D01*
X109378025Y-186936591D01*
X112694800Y-190253367D01*
X112718476Y-190288800D01*
X106097427Y-190288800D01*
X106296523Y-190206332D01*
X106559543Y-189943312D01*
X106701888Y-189599660D01*
X106701888Y-189227694D01*
X106559543Y-188884042D01*
X106296523Y-188621022D01*
X105952871Y-188478677D01*
X105580905Y-188478677D01*
X105237253Y-188621022D01*
X104974233Y-188884042D01*
X104831888Y-189227694D01*
X104831888Y-189599660D01*
X104974233Y-189943312D01*
X105237253Y-190206332D01*
X105436349Y-190288800D01*
X99694589Y-190288800D01*
X99335000Y-189929212D01*
X99335000Y-189814017D01*
X99192655Y-189470365D01*
X98929635Y-189207345D01*
X98585983Y-189065000D01*
X98214017Y-189065000D01*
X97870365Y-189207345D01*
X97607345Y-189470365D01*
X97465000Y-189814017D01*
X97465000Y-190185983D01*
X97607345Y-190529635D01*
X97870365Y-190792655D01*
X98214017Y-190935000D01*
X98329212Y-190935000D01*
X98709224Y-191315013D01*
X80721086Y-191315013D01*
X78735142Y-189329070D01*
X78735142Y-189213875D01*
X78652359Y-189014017D01*
X80065000Y-189014017D01*
X80065000Y-189385983D01*
X80207345Y-189729635D01*
X80470365Y-189992655D01*
X80814017Y-190135000D01*
X81185983Y-190135000D01*
X81529635Y-189992655D01*
X81792655Y-189729635D01*
X81935000Y-189385983D01*
X81935000Y-189014017D01*
X81792655Y-188670365D01*
X81529635Y-188407345D01*
X81185983Y-188265000D01*
X80814017Y-188265000D01*
X80470365Y-188407345D01*
X80207345Y-188670365D01*
X80065000Y-189014017D01*
X78652359Y-189014017D01*
X78592797Y-188870223D01*
X78329777Y-188607203D01*
X77986125Y-188464858D01*
X77614159Y-188464858D01*
X77270507Y-188607203D01*
X77007487Y-188870223D01*
X77004126Y-188878337D01*
X74839806Y-186714017D01*
X77065000Y-186714017D01*
X77065000Y-187085983D01*
X77207345Y-187429635D01*
X77470365Y-187692655D01*
X77814017Y-187835000D01*
X78185983Y-187835000D01*
X78529635Y-187692655D01*
X78792655Y-187429635D01*
X78935000Y-187085983D01*
X78935000Y-186714017D01*
X78792655Y-186370365D01*
X78529635Y-186107345D01*
X78185983Y-185965000D01*
X77814017Y-185965000D01*
X77470365Y-186107345D01*
X77207345Y-186370365D01*
X77065000Y-186714017D01*
X74839806Y-186714017D01*
X72285000Y-184159212D01*
X72285000Y-184044017D01*
X72161097Y-183744888D01*
X95953391Y-183744888D01*
X95953391Y-184116854D01*
X96095736Y-184460506D01*
X96358756Y-184723526D01*
X96702408Y-184865871D01*
X97074374Y-184865871D01*
X97418026Y-184723526D01*
X97681046Y-184460506D01*
X97823391Y-184116854D01*
X97823391Y-183744888D01*
X97681046Y-183401236D01*
X97418026Y-183138216D01*
X97074374Y-182995871D01*
X96702408Y-182995871D01*
X96358756Y-183138216D01*
X96095736Y-183401236D01*
X95953391Y-183744888D01*
X72161097Y-183744888D01*
X72142655Y-183700365D01*
X71879635Y-183437345D01*
X71559267Y-183304645D01*
X71829635Y-183192655D01*
X72092655Y-182929635D01*
X72235000Y-182585983D01*
X72235000Y-182214017D01*
X72092655Y-181870365D01*
X71829635Y-181607345D01*
X71485983Y-181465000D01*
X71293800Y-181465000D01*
X71293800Y-175575000D01*
X71325983Y-175575000D01*
X71669635Y-175432655D01*
X71751090Y-175351200D01*
X73838910Y-175351200D01*
X73870365Y-175382655D01*
X74214017Y-175525000D01*
X74585983Y-175525000D01*
X74929635Y-175382655D01*
X74982600Y-175329690D01*
X74982600Y-176295000D01*
X74884017Y-176295000D01*
X74540365Y-176437345D01*
X74277345Y-176700365D01*
X74135000Y-177044017D01*
X74135000Y-177415983D01*
X74277345Y-177759635D01*
X74540365Y-178022655D01*
X74884017Y-178165000D01*
X75255983Y-178165000D01*
X75599635Y-178022655D01*
X75862655Y-177759635D01*
X76005000Y-177415983D01*
X76005000Y-177300789D01*
X76147169Y-177158620D01*
X76206545Y-177118946D01*
X76246220Y-177059569D01*
X76246224Y-177059565D01*
X76363735Y-176883698D01*
X76363735Y-176883697D01*
X76363736Y-176883696D01*
X76405000Y-176676246D01*
X76405000Y-176676243D01*
X76418932Y-176606201D01*
X76405000Y-176536159D01*
X76405000Y-172964890D01*
X76486455Y-172883435D01*
X76628800Y-172539783D01*
X76628800Y-172167817D01*
X76486455Y-171824165D01*
X76223435Y-171561145D01*
X75879783Y-171418800D01*
X75507817Y-171418800D01*
X75164165Y-171561145D01*
X74901145Y-171824165D01*
X74758800Y-172167817D01*
X74758800Y-172539783D01*
X74857200Y-172777341D01*
X74585983Y-172665000D01*
X74214017Y-172665000D01*
X73870365Y-172807345D01*
X73607345Y-173070365D01*
X73465000Y-173414017D01*
X73465000Y-173785983D01*
X73524157Y-173928800D01*
X71751090Y-173928800D01*
X71669635Y-173847345D01*
X71325983Y-173705000D01*
X71293800Y-173705000D01*
X71293800Y-170580343D01*
X71321535Y-170568855D01*
X71584555Y-170305835D01*
X71726900Y-169962183D01*
X71726900Y-169916001D01*
X73115306Y-168527596D01*
X73280365Y-168692655D01*
G36*
X113288801Y-85372974D02*
X113288800Y-95677159D01*
X113274868Y-95747200D01*
X113288800Y-95817241D01*
X113288800Y-95817245D01*
X113330064Y-96024695D01*
X113346006Y-96048553D01*
X113447576Y-96200564D01*
X113447578Y-96200566D01*
X113487254Y-96259945D01*
X113546634Y-96299622D01*
X121024800Y-103777789D01*
X121024800Y-104251959D01*
X121010868Y-104322000D01*
X121024800Y-104392041D01*
X121024800Y-104392045D01*
X121066064Y-104599495D01*
X121066065Y-104599496D01*
X121183576Y-104775364D01*
X121183578Y-104775366D01*
X121223254Y-104834745D01*
X121282634Y-104874422D01*
X124972000Y-108563789D01*
X124972000Y-108678983D01*
X125114345Y-109022635D01*
X125377365Y-109285655D01*
X125721017Y-109428000D01*
X126092983Y-109428000D01*
X126436635Y-109285655D01*
X126463561Y-109258729D01*
X126626693Y-109326300D01*
X126975307Y-109326300D01*
X127275500Y-109201956D01*
X127575693Y-109326300D01*
X127924307Y-109326300D01*
X128246384Y-109192891D01*
X128285000Y-109154275D01*
X128353616Y-109222891D01*
X128675693Y-109356300D01*
X129024307Y-109356300D01*
X129346384Y-109222891D01*
X129390000Y-109179275D01*
X129453616Y-109242891D01*
X129775693Y-109376300D01*
X130124307Y-109376300D01*
X130446384Y-109242891D01*
X130545000Y-109144275D01*
X130573616Y-109172891D01*
X130895693Y-109306300D01*
X131244307Y-109306300D01*
X131566384Y-109172891D01*
X131812891Y-108926384D01*
X131946300Y-108604307D01*
X131946300Y-108518480D01*
X131958648Y-108500000D01*
X131981235Y-108466197D01*
X132007840Y-108332442D01*
X132014017Y-108335000D01*
X132342591Y-108335000D01*
X132342590Y-118805885D01*
X131907534Y-119240941D01*
X132011210Y-118990645D01*
X132011210Y-118618679D01*
X131868865Y-118275027D01*
X131605845Y-118012007D01*
X131262193Y-117869662D01*
X131146999Y-117869662D01*
X127188536Y-113911200D01*
X127188910Y-113911200D01*
X127270365Y-113992655D01*
X127614017Y-114135000D01*
X127985983Y-114135000D01*
X128329635Y-113992655D01*
X128592655Y-113729635D01*
X128735000Y-113385983D01*
X128735000Y-113014017D01*
X128592655Y-112670365D01*
X128329635Y-112407345D01*
X127985983Y-112265000D01*
X127614017Y-112265000D01*
X127270365Y-112407345D01*
X127188910Y-112488800D01*
X113544589Y-112488800D01*
X109851200Y-108795412D01*
X109851200Y-108614017D01*
X113465000Y-108614017D01*
X113465000Y-108985983D01*
X113607345Y-109329635D01*
X113870365Y-109592655D01*
X114214017Y-109735000D01*
X114585983Y-109735000D01*
X114929635Y-109592655D01*
X115192655Y-109329635D01*
X115300105Y-109070227D01*
X115407555Y-109329635D01*
X115670575Y-109592655D01*
X116014227Y-109735000D01*
X116386193Y-109735000D01*
X116729845Y-109592655D01*
X116992865Y-109329635D01*
X117135210Y-108985983D01*
X117135210Y-108614017D01*
X116992865Y-108270365D01*
X116729845Y-108007345D01*
X116386193Y-107865000D01*
X116014227Y-107865000D01*
X115670575Y-108007345D01*
X115407555Y-108270365D01*
X115300105Y-108529773D01*
X115192655Y-108270365D01*
X114929635Y-108007345D01*
X114585983Y-107865000D01*
X114214017Y-107865000D01*
X113870365Y-108007345D01*
X113607345Y-108270365D01*
X113465000Y-108614017D01*
X109851200Y-108614017D01*
X109851200Y-105151017D01*
X110227000Y-105151017D01*
X110227000Y-105522983D01*
X110369345Y-105866635D01*
X110632365Y-106129655D01*
X110976017Y-106272000D01*
X111347983Y-106272000D01*
X111691635Y-106129655D01*
X111954655Y-105866635D01*
X112097000Y-105522983D01*
X112097000Y-105151017D01*
X111954655Y-104807365D01*
X111691635Y-104544345D01*
X111347983Y-104402000D01*
X110976017Y-104402000D01*
X110632365Y-104544345D01*
X110369345Y-104807365D01*
X110227000Y-105151017D01*
X109851200Y-105151017D01*
X109851200Y-101056988D01*
X113735961Y-104941749D01*
X113607345Y-105070365D01*
X113465000Y-105414017D01*
X113465000Y-105457342D01*
X113426365Y-105473345D01*
X113163345Y-105736365D01*
X113021000Y-106080017D01*
X113021000Y-106265210D01*
X113014017Y-106265210D01*
X112670365Y-106407555D01*
X112407345Y-106670575D01*
X112265000Y-107014227D01*
X112265000Y-107386193D01*
X112407345Y-107729845D01*
X112670365Y-107992865D01*
X113014017Y-108135210D01*
X113385983Y-108135210D01*
X113729635Y-107992865D01*
X113992655Y-107729845D01*
X114135000Y-107386193D01*
X114135000Y-107201000D01*
X114141983Y-107201000D01*
X114485635Y-107058655D01*
X114748655Y-106795635D01*
X114891000Y-106451983D01*
X114891000Y-106408658D01*
X114929635Y-106392655D01*
X115058251Y-106264039D01*
X117665000Y-108870789D01*
X117665000Y-108985983D01*
X117807345Y-109329635D01*
X118070365Y-109592655D01*
X118414017Y-109735000D01*
X118785983Y-109735000D01*
X118971047Y-109658344D01*
X118915768Y-109791799D01*
X118915768Y-110140413D01*
X119049177Y-110462490D01*
X119295684Y-110708997D01*
X119617761Y-110842406D01*
X119966375Y-110842406D01*
X120288452Y-110708997D01*
X120534959Y-110462490D01*
X120668368Y-110140413D01*
X120668368Y-109791799D01*
X120534959Y-109469722D01*
X120288452Y-109223215D01*
X119966375Y-109089806D01*
X119617761Y-109089806D01*
X119465948Y-109152689D01*
X119535000Y-108985983D01*
X119535000Y-108614017D01*
X119392655Y-108270365D01*
X119129635Y-108007345D01*
X118785983Y-107865000D01*
X118670789Y-107865000D01*
X117288860Y-106483072D01*
X117414227Y-106535000D01*
X117786193Y-106535000D01*
X118129845Y-106392655D01*
X118392865Y-106129635D01*
X118535210Y-105785983D01*
X118535210Y-105414017D01*
X118392865Y-105070365D01*
X118129845Y-104807345D01*
X117786193Y-104665000D01*
X117414227Y-104665000D01*
X117070575Y-104807345D01*
X116807555Y-105070365D01*
X116665210Y-105414017D01*
X116665210Y-105785983D01*
X116717138Y-105911350D01*
X110203611Y-99397823D01*
X110203611Y-82287783D01*
X113288801Y-85372974D01*
X113288801Y-85372974D01*
G37*
X113288801Y-85372974D02*
X113288800Y-95677159D01*
X113274868Y-95747200D01*
X113288800Y-95817241D01*
X113288800Y-95817245D01*
X113330064Y-96024695D01*
X113346006Y-96048553D01*
X113447576Y-96200564D01*
X113447578Y-96200566D01*
X113487254Y-96259945D01*
X113546634Y-96299622D01*
X121024800Y-103777789D01*
X121024800Y-104251959D01*
X121010868Y-104322000D01*
X121024800Y-104392041D01*
X121024800Y-104392045D01*
X121066064Y-104599495D01*
X121066065Y-104599496D01*
X121183576Y-104775364D01*
X121183578Y-104775366D01*
X121223254Y-104834745D01*
X121282634Y-104874422D01*
X124972000Y-108563789D01*
X124972000Y-108678983D01*
X125114345Y-109022635D01*
X125377365Y-109285655D01*
X125721017Y-109428000D01*
X126092983Y-109428000D01*
X126436635Y-109285655D01*
X126463561Y-109258729D01*
X126626693Y-109326300D01*
X126975307Y-109326300D01*
X127275500Y-109201956D01*
X127575693Y-109326300D01*
X127924307Y-109326300D01*
X128246384Y-109192891D01*
X128285000Y-109154275D01*
X128353616Y-109222891D01*
X128675693Y-109356300D01*
X129024307Y-109356300D01*
X129346384Y-109222891D01*
X129390000Y-109179275D01*
X129453616Y-109242891D01*
X129775693Y-109376300D01*
X130124307Y-109376300D01*
X130446384Y-109242891D01*
X130545000Y-109144275D01*
X130573616Y-109172891D01*
X130895693Y-109306300D01*
X131244307Y-109306300D01*
X131566384Y-109172891D01*
X131812891Y-108926384D01*
X131946300Y-108604307D01*
X131946300Y-108518480D01*
X131958648Y-108500000D01*
X131981235Y-108466197D01*
X132007840Y-108332442D01*
X132014017Y-108335000D01*
X132342591Y-108335000D01*
X132342590Y-118805885D01*
X131907534Y-119240941D01*
X132011210Y-118990645D01*
X132011210Y-118618679D01*
X131868865Y-118275027D01*
X131605845Y-118012007D01*
X131262193Y-117869662D01*
X131146999Y-117869662D01*
X127188536Y-113911200D01*
X127188910Y-113911200D01*
X127270365Y-113992655D01*
X127614017Y-114135000D01*
X127985983Y-114135000D01*
X128329635Y-113992655D01*
X128592655Y-113729635D01*
X128735000Y-113385983D01*
X128735000Y-113014017D01*
X128592655Y-112670365D01*
X128329635Y-112407345D01*
X127985983Y-112265000D01*
X127614017Y-112265000D01*
X127270365Y-112407345D01*
X127188910Y-112488800D01*
X113544589Y-112488800D01*
X109851200Y-108795412D01*
X109851200Y-108614017D01*
X113465000Y-108614017D01*
X113465000Y-108985983D01*
X113607345Y-109329635D01*
X113870365Y-109592655D01*
X114214017Y-109735000D01*
X114585983Y-109735000D01*
X114929635Y-109592655D01*
X115192655Y-109329635D01*
X115300105Y-109070227D01*
X115407555Y-109329635D01*
X115670575Y-109592655D01*
X116014227Y-109735000D01*
X116386193Y-109735000D01*
X116729845Y-109592655D01*
X116992865Y-109329635D01*
X117135210Y-108985983D01*
X117135210Y-108614017D01*
X116992865Y-108270365D01*
X116729845Y-108007345D01*
X116386193Y-107865000D01*
X116014227Y-107865000D01*
X115670575Y-108007345D01*
X115407555Y-108270365D01*
X115300105Y-108529773D01*
X115192655Y-108270365D01*
X114929635Y-108007345D01*
X114585983Y-107865000D01*
X114214017Y-107865000D01*
X113870365Y-108007345D01*
X113607345Y-108270365D01*
X113465000Y-108614017D01*
X109851200Y-108614017D01*
X109851200Y-105151017D01*
X110227000Y-105151017D01*
X110227000Y-105522983D01*
X110369345Y-105866635D01*
X110632365Y-106129655D01*
X110976017Y-106272000D01*
X111347983Y-106272000D01*
X111691635Y-106129655D01*
X111954655Y-105866635D01*
X112097000Y-105522983D01*
X112097000Y-105151017D01*
X111954655Y-104807365D01*
X111691635Y-104544345D01*
X111347983Y-104402000D01*
X110976017Y-104402000D01*
X110632365Y-104544345D01*
X110369345Y-104807365D01*
X110227000Y-105151017D01*
X109851200Y-105151017D01*
X109851200Y-101056988D01*
X113735961Y-104941749D01*
X113607345Y-105070365D01*
X113465000Y-105414017D01*
X113465000Y-105457342D01*
X113426365Y-105473345D01*
X113163345Y-105736365D01*
X113021000Y-106080017D01*
X113021000Y-106265210D01*
X113014017Y-106265210D01*
X112670365Y-106407555D01*
X112407345Y-106670575D01*
X112265000Y-107014227D01*
X112265000Y-107386193D01*
X112407345Y-107729845D01*
X112670365Y-107992865D01*
X113014017Y-108135210D01*
X113385983Y-108135210D01*
X113729635Y-107992865D01*
X113992655Y-107729845D01*
X114135000Y-107386193D01*
X114135000Y-107201000D01*
X114141983Y-107201000D01*
X114485635Y-107058655D01*
X114748655Y-106795635D01*
X114891000Y-106451983D01*
X114891000Y-106408658D01*
X114929635Y-106392655D01*
X115058251Y-106264039D01*
X117665000Y-108870789D01*
X117665000Y-108985983D01*
X117807345Y-109329635D01*
X118070365Y-109592655D01*
X118414017Y-109735000D01*
X118785983Y-109735000D01*
X118971047Y-109658344D01*
X118915768Y-109791799D01*
X118915768Y-110140413D01*
X119049177Y-110462490D01*
X119295684Y-110708997D01*
X119617761Y-110842406D01*
X119966375Y-110842406D01*
X120288452Y-110708997D01*
X120534959Y-110462490D01*
X120668368Y-110140413D01*
X120668368Y-109791799D01*
X120534959Y-109469722D01*
X120288452Y-109223215D01*
X119966375Y-109089806D01*
X119617761Y-109089806D01*
X119465948Y-109152689D01*
X119535000Y-108985983D01*
X119535000Y-108614017D01*
X119392655Y-108270365D01*
X119129635Y-108007345D01*
X118785983Y-107865000D01*
X118670789Y-107865000D01*
X117288860Y-106483072D01*
X117414227Y-106535000D01*
X117786193Y-106535000D01*
X118129845Y-106392655D01*
X118392865Y-106129635D01*
X118535210Y-105785983D01*
X118535210Y-105414017D01*
X118392865Y-105070365D01*
X118129845Y-104807345D01*
X117786193Y-104665000D01*
X117414227Y-104665000D01*
X117070575Y-104807345D01*
X116807555Y-105070365D01*
X116665210Y-105414017D01*
X116665210Y-105785983D01*
X116717138Y-105911350D01*
X110203611Y-99397823D01*
X110203611Y-82287783D01*
X113288801Y-85372974D01*
G04 #@! TD*
M02*
