G04 #@! TF.GenerationSoftware,KiCad,Pcbnew,(5.0.2-5)-5*
G04 #@! TF.CreationDate,2019-02-16T21:29:27-08:00*
G04 #@! TF.ProjectId,DC27-badge,44433237-2d62-4616-9467-652e6b696361,rev?*
G04 #@! TF.SameCoordinates,Original*
G04 #@! TF.FileFunction,Copper,L4,Bot*
G04 #@! TF.FilePolarity,Positive*
%FSLAX46Y46*%
G04 Gerber Fmt 4.6, Leading zero omitted, Abs format (unit mm)*
G04 Created by KiCad (PCBNEW (5.0.2-5)-5) date Saturday, February 16, 2019 at 09:29:27 PM*
%MOMM*%
%LPD*%
G01*
G04 APERTURE LIST*
G04 #@! TA.AperFunction,SMDPad,CuDef*
%ADD10R,0.450000X0.300000*%
G04 #@! TD*
G04 #@! TA.AperFunction,SMDPad,CuDef*
%ADD11R,1.348740X0.398780*%
G04 #@! TD*
G04 #@! TA.AperFunction,SMDPad,CuDef*
%ADD12O,1.597660X0.899160*%
G04 #@! TD*
G04 #@! TA.AperFunction,SMDPad,CuDef*
%ADD13R,1.399540X1.597660*%
G04 #@! TD*
G04 #@! TA.AperFunction,SMDPad,CuDef*
%ADD14R,1.899920X1.899920*%
G04 #@! TD*
G04 #@! TA.AperFunction,ComponentPad*
%ADD15O,1.200000X0.500000*%
G04 #@! TD*
G04 #@! TA.AperFunction,ComponentPad*
%ADD16C,1.998980*%
G04 #@! TD*
G04 #@! TA.AperFunction,ComponentPad*
%ADD17R,1.998980X1.998980*%
G04 #@! TD*
G04 #@! TA.AperFunction,SMDPad,CuDef*
%ADD18R,1.000000X3.500000*%
G04 #@! TD*
G04 #@! TA.AperFunction,SMDPad,CuDef*
%ADD19R,1.500000X3.400000*%
G04 #@! TD*
G04 #@! TA.AperFunction,ViaPad*
%ADD20C,0.500000*%
G04 #@! TD*
G04 #@! TA.AperFunction,Conductor*
%ADD21C,0.150000*%
G04 #@! TD*
G04 #@! TA.AperFunction,Conductor*
%ADD22C,2.500000*%
G04 #@! TD*
G04 #@! TA.AperFunction,SMDPad,CuDef*
%ADD23R,1.500000X0.700000*%
G04 #@! TD*
G04 #@! TA.AperFunction,SMDPad,CuDef*
%ADD24R,0.800000X1.000000*%
G04 #@! TD*
G04 #@! TA.AperFunction,SMDPad,CuDef*
%ADD25C,1.250000*%
G04 #@! TD*
G04 #@! TA.AperFunction,ViaPad*
%ADD26C,0.600000*%
G04 #@! TD*
G04 #@! TA.AperFunction,ViaPad*
%ADD27C,0.482600*%
G04 #@! TD*
G04 #@! TA.AperFunction,Conductor*
%ADD28C,0.254000*%
G04 #@! TD*
G04 #@! TA.AperFunction,Conductor*
%ADD29C,0.250000*%
G04 #@! TD*
G04 #@! TA.AperFunction,Conductor*
%ADD30C,0.152400*%
G04 #@! TD*
G04 APERTURE END LIST*
D10*
G04 #@! TO.P,U602,4*
G04 #@! TO.N,Net-(U602-Pad4)*
X77210000Y-129310000D03*
G04 #@! TO.P,U602,2*
G04 #@! TO.N,USBDATA+*
X75810000Y-129810000D03*
G04 #@! TO.P,U602,5*
G04 #@! TO.N,VBUS*
X77210000Y-130310000D03*
G04 #@! TO.P,U602,3*
G04 #@! TO.N,GND*
X75810000Y-129310000D03*
G04 #@! TO.P,U602,1*
G04 #@! TO.N,USBDATA-*
X75810000Y-130310000D03*
G04 #@! TD*
D11*
G04 #@! TO.P,J601,1*
G04 #@! TO.N,VBUS*
X71600000Y-133097939D03*
G04 #@! TO.P,J601,2*
G04 #@! TO.N,USBDATA-*
X71600000Y-132447700D03*
G04 #@! TO.P,J601,3*
G04 #@! TO.N,USBDATA+*
X71600000Y-131800000D03*
G04 #@! TO.P,J601,4*
G04 #@! TO.N,Net-(J601-Pad4)*
X71600000Y-131152300D03*
G04 #@! TO.P,J601,5*
G04 #@! TO.N,GND*
X71600000Y-130502060D03*
D12*
G04 #@! TO.P,J601,S1*
X68930460Y-135099460D03*
G04 #@! TO.P,J601,S2*
X68930460Y-128500540D03*
D13*
G04 #@! TO.P,J601,S3*
X71600000Y-134997860D03*
G04 #@! TO.P,J601,S4*
X71600000Y-128602140D03*
D14*
G04 #@! TO.P,J601,S5*
X68925381Y-132998880D03*
G04 #@! TO.P,J601,S6*
X68925379Y-130601120D03*
D15*
G04 #@! TO.P,J601,SLOT*
G04 #@! TO.N,N/C*
X68930000Y-135100000D03*
X68930000Y-128500000D03*
G04 #@! TD*
D16*
G04 #@! TO.P,J502,2*
G04 #@! TO.N,GND*
X127010000Y-59400000D03*
D17*
G04 #@! TO.P,J502,1*
G04 #@! TO.N,Net-(C510-Pad2)*
X123200000Y-59400000D03*
G04 #@! TD*
G04 #@! TO.P,J501,1*
G04 #@! TO.N,Net-(C505-Pad2)*
X84200000Y-59600000D03*
D16*
G04 #@! TO.P,J501,2*
G04 #@! TO.N,GND*
X88010000Y-59600000D03*
G04 #@! TD*
D18*
G04 #@! TO.P,BT401,1*
G04 #@! TO.N,Net-(BT401-Pad1)*
X86750000Y-150050000D03*
G04 #@! TO.P,BT401,2*
G04 #@! TO.N,GND*
X84750000Y-150050000D03*
D19*
G04 #@! TO.P,BT401,MP*
G04 #@! TO.N,N/C*
X89100000Y-155800000D03*
X82400000Y-155800000D03*
G04 #@! TD*
D20*
G04 #@! TO.N,GND*
G04 #@! TO.C,U601*
X103200000Y-101400000D03*
X103200000Y-102400000D03*
X103200000Y-103400000D03*
X102200000Y-101400000D03*
X102200000Y-102400000D03*
X102200000Y-103400000D03*
X101200000Y-101400000D03*
X101200000Y-102400000D03*
X101200000Y-103400000D03*
D21*
G36*
X103224504Y-101151204D02*
X103248773Y-101154804D01*
X103272571Y-101160765D01*
X103295671Y-101169030D01*
X103317849Y-101179520D01*
X103338893Y-101192133D01*
X103358598Y-101206747D01*
X103376777Y-101223223D01*
X103393253Y-101241402D01*
X103407867Y-101261107D01*
X103420480Y-101282151D01*
X103430970Y-101304329D01*
X103439235Y-101327429D01*
X103445196Y-101351227D01*
X103448796Y-101375496D01*
X103450000Y-101400000D01*
X103450000Y-103400000D01*
X103448796Y-103424504D01*
X103445196Y-103448773D01*
X103439235Y-103472571D01*
X103430970Y-103495671D01*
X103420480Y-103517849D01*
X103407867Y-103538893D01*
X103393253Y-103558598D01*
X103376777Y-103576777D01*
X103358598Y-103593253D01*
X103338893Y-103607867D01*
X103317849Y-103620480D01*
X103295671Y-103630970D01*
X103272571Y-103639235D01*
X103248773Y-103645196D01*
X103224504Y-103648796D01*
X103200000Y-103650000D01*
X101200000Y-103650000D01*
X101175496Y-103648796D01*
X101151227Y-103645196D01*
X101127429Y-103639235D01*
X101104329Y-103630970D01*
X101082151Y-103620480D01*
X101061107Y-103607867D01*
X101041402Y-103593253D01*
X101023223Y-103576777D01*
X101006747Y-103558598D01*
X100992133Y-103538893D01*
X100979520Y-103517849D01*
X100969030Y-103495671D01*
X100960765Y-103472571D01*
X100954804Y-103448773D01*
X100951204Y-103424504D01*
X100950000Y-103400000D01*
X100950000Y-101400000D01*
X100951204Y-101375496D01*
X100954804Y-101351227D01*
X100960765Y-101327429D01*
X100969030Y-101304329D01*
X100979520Y-101282151D01*
X100992133Y-101261107D01*
X101006747Y-101241402D01*
X101023223Y-101223223D01*
X101041402Y-101206747D01*
X101061107Y-101192133D01*
X101082151Y-101179520D01*
X101104329Y-101169030D01*
X101127429Y-101160765D01*
X101151227Y-101154804D01*
X101175496Y-101151204D01*
X101200000Y-101150000D01*
X103200000Y-101150000D01*
X103224504Y-101151204D01*
X103224504Y-101151204D01*
G37*
D22*
X102200000Y-102400000D03*
G04 #@! TD*
D23*
G04 #@! TO.P,SW401,1*
G04 #@! TO.N,Net-(SW401-Pad1)*
X72430000Y-123250000D03*
G04 #@! TO.P,SW401,2*
G04 #@! TO.N,VBATT*
X72430000Y-120250000D03*
G04 #@! TO.P,SW401,3*
G04 #@! TO.N,Net-(BT401-Pad1)*
X72430000Y-118750000D03*
D24*
G04 #@! TO.P,SW401,*
G04 #@! TO.N,*
X69570000Y-124650000D03*
X69570000Y-117350000D03*
X71780000Y-117350000D03*
X71780000Y-124650000D03*
G04 #@! TD*
D21*
G04 #@! TO.N,VBUS*
G04 #@! TO.C,C601*
G36*
X77769504Y-126936204D02*
X77793773Y-126939804D01*
X77817571Y-126945765D01*
X77840671Y-126954030D01*
X77862849Y-126964520D01*
X77883893Y-126977133D01*
X77903598Y-126991747D01*
X77921777Y-127008223D01*
X77938253Y-127026402D01*
X77952867Y-127046107D01*
X77965480Y-127067151D01*
X77975970Y-127089329D01*
X77984235Y-127112429D01*
X77990196Y-127136227D01*
X77993796Y-127160496D01*
X77995000Y-127185000D01*
X77995000Y-127935000D01*
X77993796Y-127959504D01*
X77990196Y-127983773D01*
X77984235Y-128007571D01*
X77975970Y-128030671D01*
X77965480Y-128052849D01*
X77952867Y-128073893D01*
X77938253Y-128093598D01*
X77921777Y-128111777D01*
X77903598Y-128128253D01*
X77883893Y-128142867D01*
X77862849Y-128155480D01*
X77840671Y-128165970D01*
X77817571Y-128174235D01*
X77793773Y-128180196D01*
X77769504Y-128183796D01*
X77745000Y-128185000D01*
X76495000Y-128185000D01*
X76470496Y-128183796D01*
X76446227Y-128180196D01*
X76422429Y-128174235D01*
X76399329Y-128165970D01*
X76377151Y-128155480D01*
X76356107Y-128142867D01*
X76336402Y-128128253D01*
X76318223Y-128111777D01*
X76301747Y-128093598D01*
X76287133Y-128073893D01*
X76274520Y-128052849D01*
X76264030Y-128030671D01*
X76255765Y-128007571D01*
X76249804Y-127983773D01*
X76246204Y-127959504D01*
X76245000Y-127935000D01*
X76245000Y-127185000D01*
X76246204Y-127160496D01*
X76249804Y-127136227D01*
X76255765Y-127112429D01*
X76264030Y-127089329D01*
X76274520Y-127067151D01*
X76287133Y-127046107D01*
X76301747Y-127026402D01*
X76318223Y-127008223D01*
X76336402Y-126991747D01*
X76356107Y-126977133D01*
X76377151Y-126964520D01*
X76399329Y-126954030D01*
X76422429Y-126945765D01*
X76446227Y-126939804D01*
X76470496Y-126936204D01*
X76495000Y-126935000D01*
X77745000Y-126935000D01*
X77769504Y-126936204D01*
X77769504Y-126936204D01*
G37*
D25*
G04 #@! TD*
G04 #@! TO.P,C601,1*
G04 #@! TO.N,VBUS*
X77120000Y-127560000D03*
D21*
G04 #@! TO.N,GND*
G04 #@! TO.C,C601*
G36*
X77769504Y-124136204D02*
X77793773Y-124139804D01*
X77817571Y-124145765D01*
X77840671Y-124154030D01*
X77862849Y-124164520D01*
X77883893Y-124177133D01*
X77903598Y-124191747D01*
X77921777Y-124208223D01*
X77938253Y-124226402D01*
X77952867Y-124246107D01*
X77965480Y-124267151D01*
X77975970Y-124289329D01*
X77984235Y-124312429D01*
X77990196Y-124336227D01*
X77993796Y-124360496D01*
X77995000Y-124385000D01*
X77995000Y-125135000D01*
X77993796Y-125159504D01*
X77990196Y-125183773D01*
X77984235Y-125207571D01*
X77975970Y-125230671D01*
X77965480Y-125252849D01*
X77952867Y-125273893D01*
X77938253Y-125293598D01*
X77921777Y-125311777D01*
X77903598Y-125328253D01*
X77883893Y-125342867D01*
X77862849Y-125355480D01*
X77840671Y-125365970D01*
X77817571Y-125374235D01*
X77793773Y-125380196D01*
X77769504Y-125383796D01*
X77745000Y-125385000D01*
X76495000Y-125385000D01*
X76470496Y-125383796D01*
X76446227Y-125380196D01*
X76422429Y-125374235D01*
X76399329Y-125365970D01*
X76377151Y-125355480D01*
X76356107Y-125342867D01*
X76336402Y-125328253D01*
X76318223Y-125311777D01*
X76301747Y-125293598D01*
X76287133Y-125273893D01*
X76274520Y-125252849D01*
X76264030Y-125230671D01*
X76255765Y-125207571D01*
X76249804Y-125183773D01*
X76246204Y-125159504D01*
X76245000Y-125135000D01*
X76245000Y-124385000D01*
X76246204Y-124360496D01*
X76249804Y-124336227D01*
X76255765Y-124312429D01*
X76264030Y-124289329D01*
X76274520Y-124267151D01*
X76287133Y-124246107D01*
X76301747Y-124226402D01*
X76318223Y-124208223D01*
X76336402Y-124191747D01*
X76356107Y-124177133D01*
X76377151Y-124164520D01*
X76399329Y-124154030D01*
X76422429Y-124145765D01*
X76446227Y-124139804D01*
X76470496Y-124136204D01*
X76495000Y-124135000D01*
X77745000Y-124135000D01*
X77769504Y-124136204D01*
X77769504Y-124136204D01*
G37*
D25*
G04 #@! TD*
G04 #@! TO.P,C601,2*
G04 #@! TO.N,GND*
X77120000Y-124760000D03*
D26*
G04 #@! TO.N,VBATT*
X90300000Y-132100000D03*
G04 #@! TO.N,GND*
X82380000Y-125540000D03*
X71600000Y-136324900D03*
X71600000Y-127286600D03*
X139230000Y-179330400D03*
X68747500Y-179353900D03*
X93467500Y-81073600D03*
X95100000Y-168800000D03*
X77012500Y-138596700D03*
X90792600Y-89991500D03*
X103240200Y-98240400D03*
X84750000Y-147775900D03*
X81400000Y-116171500D03*
X110411900Y-207766000D03*
X98354000Y-207766000D03*
X81208500Y-105106800D03*
X108400000Y-62800000D03*
X111600000Y-52200000D03*
X108000000Y-48800000D03*
D27*
X119800000Y-110000000D03*
X126113000Y-107780000D03*
X128900000Y-107550000D03*
X129000000Y-106000000D03*
X129800000Y-106700000D03*
X128250000Y-106700000D03*
D26*
X132200000Y-106000000D03*
X132200000Y-107400000D03*
D27*
X125163599Y-103923519D03*
D26*
X104230914Y-215870062D03*
X87260000Y-168570000D03*
X106000000Y-194300000D03*
X104700000Y-197000000D03*
G04 #@! TO.N,AVCC*
X141959400Y-178996600D03*
X71370000Y-179362500D03*
X104412500Y-48612200D03*
X98200000Y-106856100D03*
X106800000Y-106871700D03*
X102037500Y-54058100D03*
X86000000Y-94448800D03*
X90412500Y-141000000D03*
X120807000Y-103393000D03*
X120681000Y-107896000D03*
X98800000Y-95081032D03*
X81273334Y-131010066D03*
X115380000Y-110210000D03*
X110600000Y-199064910D03*
X110592793Y-197207677D03*
X113929468Y-193776210D03*
X73400000Y-176800000D03*
X95600000Y-180600000D03*
X93800000Y-171200000D03*
X110097813Y-187354590D03*
X77600000Y-175300000D03*
X105900000Y-56000000D03*
G04 #@! TO.N,USBDATA+*
X102010000Y-98770000D03*
X73380000Y-131490000D03*
G04 #@! TO.N,USBDATA-*
X73800000Y-132400000D03*
X99800000Y-97913790D03*
G04 #@! TO.N,DEBUG_SWDIO*
X81400000Y-102200000D03*
X131076210Y-120211923D03*
G04 #@! TO.N,~UP*
X110624000Y-75800000D03*
X118600000Y-108800000D03*
G04 #@! TO.N,~DOWN*
X99360800Y-72200000D03*
X125907000Y-108493000D03*
G04 #@! TO.N,~LEFT*
X130500000Y-121230000D03*
X102870000Y-69330000D03*
D27*
G04 #@! TO.N,~A*
X92495800Y-118518000D03*
X126866000Y-105041000D03*
G04 #@! TO.N,~B*
X106250000Y-209950000D03*
X125968223Y-105612812D03*
D26*
G04 #@! TO.N,~RESET_TGTMCU*
X137000000Y-130600000D03*
X129400000Y-121000000D03*
X86192358Y-107807242D03*
G04 #@! TO.N,CS5*
X133591100Y-179787400D03*
X142728300Y-158289400D03*
X89887400Y-215085000D03*
X123913900Y-215697400D03*
X88328600Y-191309400D03*
X72362400Y-183586100D03*
X68630900Y-160739100D03*
X121900000Y-191271379D03*
G04 #@! TO.N,SW9*
X123183002Y-207922308D03*
X121871881Y-196400923D03*
G04 #@! TO.N,SW7*
X99400000Y-218200000D03*
X99400000Y-222150000D03*
X122776210Y-206784803D03*
X120319963Y-197311698D03*
G04 #@! TO.N,SW8*
X123575365Y-206747788D03*
X121214258Y-196856501D03*
G04 #@! TO.N,CS6*
X70533800Y-163874000D03*
X141377400Y-153390100D03*
X128291400Y-213526400D03*
X95540300Y-216201700D03*
X111169003Y-195436156D03*
G04 #@! TO.N,CS7*
X131095800Y-208662300D03*
X70791900Y-169776200D03*
X131423900Y-160369400D03*
X141377400Y-148410000D03*
X129220000Y-206930000D03*
X111400000Y-185100000D03*
G04 #@! TO.N,CS8*
X102752000Y-218277100D03*
X143996000Y-155319900D03*
X135799500Y-204783500D03*
X71140000Y-174640000D03*
X74400000Y-174590000D03*
X107200236Y-196385352D03*
X101400000Y-215400000D03*
X101000000Y-217800000D03*
G04 #@! TO.N,CS1*
X139279600Y-183718800D03*
X69504700Y-140910000D03*
X71110600Y-192466500D03*
X107559800Y-220725300D03*
X132320000Y-193010000D03*
X98400000Y-190000000D03*
X114628626Y-191000000D03*
X94307442Y-210707442D03*
G04 #@! TO.N,SW6*
X122200000Y-211400000D03*
X119659184Y-197762687D03*
G04 #@! TO.N,SW4*
X122600000Y-213800000D03*
X119492414Y-199332586D03*
G04 #@! TO.N,CS2*
X76678300Y-157025900D03*
X68605500Y-145820700D03*
X139000000Y-172600000D03*
X121000000Y-192200000D03*
X87000000Y-188000000D03*
X114271387Y-189800000D03*
X114352048Y-192602423D03*
X110600000Y-221000000D03*
X101400000Y-212400000D03*
X89600000Y-210600000D03*
X79510700Y-205086436D03*
G04 #@! TO.N,CS3*
X142728300Y-163188700D03*
X68791900Y-148615500D03*
X81027700Y-208383600D03*
X115730700Y-218769500D03*
X120200000Y-211000000D03*
X125400000Y-207800000D03*
X113136824Y-194352420D03*
G04 #@! TO.N,CS4*
X68605300Y-155774000D03*
X71856900Y-160197600D03*
X121775900Y-216543100D03*
X140824500Y-163188700D03*
X86479100Y-211676700D03*
X109800000Y-216623790D03*
X120423790Y-205200000D03*
X112412366Y-193814750D03*
G04 #@! TO.N,SW3*
X139498585Y-174660000D03*
X119570537Y-200487991D03*
G04 #@! TO.N,SW1*
X142728300Y-145910000D03*
X142728300Y-150910000D03*
X142753300Y-153255300D03*
X137800000Y-171600000D03*
X119731173Y-193071380D03*
X118607442Y-201192558D03*
G04 #@! TO.N,SW2*
X140600000Y-176000000D03*
X119087500Y-201849503D03*
G04 #@! TO.N,SW12*
X97400000Y-183400000D03*
X74400000Y-173600000D03*
X115272117Y-190466185D03*
X110119958Y-185031773D03*
G04 #@! TO.N,SW10*
X103500000Y-185080000D03*
X71330000Y-153290000D03*
X116233745Y-193200000D03*
X105766888Y-189413677D03*
G04 #@! TO.N,DEBUG_SWDCLK*
X92041500Y-108921000D03*
X131076210Y-118804662D03*
D27*
G04 #@! TO.N,DISP_CS*
X107200000Y-113118000D03*
X107400000Y-120000000D03*
D26*
G04 #@! TO.N,DISP_SCLK*
X105400000Y-132800000D03*
X93589510Y-118575790D03*
G04 #@! TO.N,DISP_DC*
X105200000Y-119176210D03*
X125771790Y-104898000D03*
G04 #@! TO.N,TOUCH_CS*
X116800000Y-132400000D03*
X116200000Y-120423790D03*
G04 #@! TO.N,VBUS*
X90427400Y-85795300D03*
X80594400Y-113993100D03*
X81410225Y-131961841D03*
G04 #@! TO.N,SW11*
X77800142Y-189399858D03*
X115856871Y-192136018D03*
G04 #@! TO.N,SW5*
X125400000Y-216200000D03*
X119446452Y-198533896D03*
G04 #@! TO.N,I2C_SCK*
X114000000Y-202280000D03*
X86496210Y-163151300D03*
X89140000Y-165190000D03*
X138877408Y-176907708D03*
X69200000Y-189200000D03*
X97800000Y-181600000D03*
X85200000Y-181400000D03*
X81000000Y-189200000D03*
G04 #@! TO.N,I2C_SDA*
X88328600Y-161062500D03*
X71501300Y-183915900D03*
X113610000Y-203230000D03*
X112000000Y-202000000D03*
X120441942Y-203027058D03*
D27*
G04 #@! TO.N,~ENTER*
X108200000Y-212050000D03*
X126100000Y-106682510D03*
G04 #@! TO.N,SDT_SPI_MOSI*
X100000000Y-119800000D03*
X127750000Y-105040000D03*
G04 #@! TO.N,SDT_SPI_MISO*
X98600000Y-127400000D03*
X128850000Y-105040000D03*
G04 #@! TO.N,SDT_SPI_SCK*
X101800000Y-120482000D03*
X129940000Y-105010000D03*
D26*
G04 #@! TO.N,DISP_MISO*
X112600000Y-132200000D03*
X113200000Y-120000000D03*
D27*
G04 #@! TO.N,DISP_MOSI*
X114824000Y-122406000D03*
X123800000Y-142200000D03*
D26*
G04 #@! TO.N,AMP_SHUTDOWN*
X106000000Y-58400000D03*
X120000000Y-98600000D03*
G04 #@! TO.N,UART_RTS*
X106000000Y-104600000D03*
X108000000Y-103400000D03*
X114400000Y-105600000D03*
X117600210Y-105600000D03*
G04 #@! TO.N,UART_TX*
X113956000Y-106266000D03*
X126600280Y-106000171D03*
G04 #@! TO.N,UART_CTS*
X114400000Y-108800000D03*
X116200210Y-108800000D03*
G04 #@! TO.N,UART_RX*
X107200000Y-101800000D03*
X126800000Y-107200000D03*
X113200000Y-107200210D03*
X111162000Y-105337000D03*
G04 #@! TO.N,I2S_SDOUT*
X127800000Y-113200000D03*
D27*
X127750000Y-108450000D03*
D26*
X112075790Y-76724210D03*
G04 #@! TO.N,I2S_SCLK*
X109000000Y-73800000D03*
X128000000Y-114800000D03*
D27*
X128850000Y-108450000D03*
G04 #@! TO.N,I2S_LRCK*
X113355000Y-55911500D03*
X129950000Y-108500000D03*
G04 #@! TO.N,I2S_MCK*
X114060000Y-55020000D03*
X131070000Y-108430000D03*
D26*
G04 #@! TO.N,Net-(BT401-Pad1)*
X86127000Y-133300200D03*
X74491700Y-119152300D03*
X89785490Y-146066596D03*
G04 #@! TO.N,Net-(R501-Pad2)*
X90732500Y-63635500D03*
X97944200Y-52304100D03*
G04 #@! TO.N,Net-(R604-Pad2)*
X97577400Y-95805700D03*
X93307100Y-89991500D03*
G04 #@! TO.N,Net-(R401-Pad1)*
X85362400Y-131570200D03*
X84581637Y-135133253D03*
G04 #@! TO.N,Net-(C510-Pad1)*
X95151400Y-60984500D03*
X100348100Y-54400000D03*
G04 #@! TO.N,Net-(C506-Pad2)*
X91093100Y-68945100D03*
X105774990Y-54569199D03*
G04 #@! TO.N,Net-(C504-Pad2)*
X104400000Y-51600000D03*
X106800000Y-56476210D03*
G04 #@! TO.N,DEBUG_SWO*
X84187500Y-96074000D03*
X81695500Y-103657300D03*
D27*
X126801000Y-108450000D03*
X109200000Y-118117490D03*
G04 #@! TD*
D28*
G04 #@! TO.N,VBATT*
X78450000Y-120250000D02*
X90300000Y-132100000D01*
X72430000Y-120250000D02*
X78450000Y-120250000D01*
D29*
G04 #@! TO.N,GND*
X71600000Y-128602100D02*
X71600000Y-129726200D01*
X71600000Y-130502100D02*
X70600300Y-130502100D01*
X71600000Y-129726200D02*
X70988200Y-129726200D01*
X70988200Y-129726200D02*
X70600300Y-130114100D01*
X70600300Y-130114100D02*
X70600300Y-130502100D01*
X71600000Y-127286600D02*
X71600000Y-128602100D01*
X71600000Y-136324900D02*
X71600000Y-134997900D01*
X68925400Y-132998900D02*
X68925400Y-130601100D01*
X84750000Y-150050000D02*
X84750000Y-147775900D01*
D30*
X70501280Y-130601120D02*
X68925379Y-130601120D01*
X70600300Y-130502100D02*
X70501280Y-130601120D01*
X72307860Y-129310000D02*
X71600000Y-128602140D01*
X75810000Y-129310000D02*
X72307860Y-129310000D01*
X77900000Y-125540000D02*
X77120000Y-124760000D01*
X82380000Y-125540000D02*
X77900000Y-125540000D01*
G04 #@! TO.N,AVCC*
X90112501Y-139849233D02*
X81273334Y-131010066D01*
X90112501Y-140700001D02*
X90112501Y-139849233D01*
X90412500Y-141000000D02*
X90112501Y-140700001D01*
X118666999Y-109910001D02*
X120681000Y-107896000D01*
X115679999Y-109910001D02*
X118666999Y-109910001D01*
X115380000Y-110210000D02*
X115679999Y-109910001D01*
X110592793Y-199057703D02*
X110600000Y-199064910D01*
X110592793Y-197207677D02*
X110592793Y-199057703D01*
X114200000Y-193800000D02*
X114176210Y-193776210D01*
X114176210Y-193776210D02*
X113929468Y-193776210D01*
D28*
X90412500Y-141000000D02*
X90412500Y-167812500D01*
X90412500Y-167812500D02*
X93800000Y-171200000D01*
X85087500Y-167812500D02*
X77600000Y-175300000D01*
X90412500Y-167812500D02*
X85087500Y-167812500D01*
D30*
G04 #@! TO.N,USBDATA+*
X73070000Y-131800000D02*
X73380000Y-131490000D01*
X71600000Y-131800000D02*
X73070000Y-131800000D01*
X75060000Y-129810000D02*
X73380000Y-131490000D01*
X75810000Y-129810000D02*
X75060000Y-129810000D01*
G04 #@! TO.N,USBDATA-*
X73800000Y-132400000D02*
X71647700Y-132400000D01*
X71647700Y-132400000D02*
X71600100Y-132447800D01*
X71600100Y-132447800D02*
X71600000Y-132448000D01*
D29*
X71600000Y-132447700D02*
X71600100Y-132447800D01*
D30*
X73800000Y-132245000D02*
X73800000Y-132400000D01*
X75735000Y-130310000D02*
X73800000Y-132245000D01*
X75810000Y-130310000D02*
X75735000Y-130310000D01*
G04 #@! TO.N,~A*
X126866000Y-105041000D02*
X126866000Y-96565600D01*
X126866000Y-96565600D02*
X122650000Y-92350000D01*
X122650000Y-92350000D02*
X99800000Y-92350000D01*
X99800000Y-92350000D02*
X92617700Y-99532300D01*
X92617700Y-99532300D02*
X92617700Y-109197000D01*
X92617700Y-109197000D02*
X92495800Y-109319000D01*
X92495800Y-109319000D02*
X92495800Y-118518000D01*
G04 #@! TO.N,~B*
X113805000Y-104545000D02*
X125272000Y-104545000D01*
X126348000Y-105233035D02*
X125968223Y-105612812D01*
X107776437Y-208423563D02*
X107776437Y-195250236D01*
X106250000Y-209950000D02*
X107776437Y-208423563D01*
X106250000Y-191260931D02*
X104838277Y-189849208D01*
X107776437Y-195250236D02*
X106250000Y-193723799D01*
X106250000Y-193723799D02*
X106250000Y-191260931D01*
X104838277Y-189849208D02*
X104838277Y-188991126D01*
X104623798Y-119452788D02*
X104623798Y-113726202D01*
X104838277Y-188991126D02*
X106250000Y-187579403D01*
X125495000Y-104321000D02*
X126048000Y-104321000D01*
X104623798Y-113726202D02*
X113805000Y-104545000D01*
X125272000Y-104545000D02*
X125495000Y-104321000D01*
X126048000Y-104321000D02*
X126348000Y-104621000D01*
X106250000Y-187579403D02*
X106250000Y-121078990D01*
X126348000Y-104621000D02*
X126348000Y-105233035D01*
X106250000Y-121078990D02*
X104623798Y-119452788D01*
G04 #@! TO.N,~RESET_TGTMCU*
X129400000Y-121000000D02*
X137000000Y-128600000D01*
X137000000Y-128600000D02*
X137000000Y-130600000D01*
D29*
G04 #@! TO.N,CS5*
X142728300Y-158289400D02*
X133591100Y-167426600D01*
X133591100Y-167426600D02*
X133591100Y-179787400D01*
X72362400Y-183586100D02*
X72362400Y-164470600D01*
X72362400Y-164470600D02*
X68630900Y-160739100D01*
D30*
G04 #@! TO.N,SW9*
X123183002Y-207922308D02*
X123607266Y-207922308D01*
X124151567Y-207378007D02*
X124151567Y-198680609D01*
X124151567Y-198680609D02*
X121871881Y-196400923D01*
X123607266Y-207922308D02*
X124151567Y-207378007D01*
G04 #@! TO.N,SW7*
X99400000Y-218200000D02*
X99400000Y-222150000D01*
X120319963Y-197519963D02*
X120319963Y-197311698D01*
X122776210Y-199767945D02*
X120319963Y-197311698D01*
X122776210Y-206784803D02*
X122776210Y-199767945D01*
G04 #@! TO.N,SW8*
X123575365Y-206747788D02*
X123575365Y-199217608D01*
X123575365Y-199217608D02*
X121214258Y-196856501D01*
D29*
G04 #@! TO.N,CS7*
X141377400Y-148410000D02*
X131424000Y-158363400D01*
X131424000Y-158363400D02*
X131424000Y-160369400D01*
X131424000Y-160369400D02*
X131423900Y-160369400D01*
D30*
X130952300Y-208662300D02*
X131095800Y-208662300D01*
X129220000Y-206930000D02*
X130952300Y-208662300D01*
X131423900Y-160369400D02*
X131423900Y-165076100D01*
X131423900Y-165076100D02*
X111400000Y-185100000D01*
G04 #@! TO.N,CS8*
X99391085Y-188576201D02*
X107200236Y-196385352D01*
X74400000Y-174590000D02*
X74824264Y-174590000D01*
X74824264Y-174590000D02*
X88810465Y-188576201D01*
X88810465Y-188576201D02*
X99391085Y-188576201D01*
X101477100Y-218277100D02*
X102752000Y-218277100D01*
X101000000Y-217800000D02*
X101477100Y-218277100D01*
X99528613Y-213528613D02*
X101400000Y-215400000D01*
X99377449Y-213528613D02*
X99528613Y-213528613D01*
X98871388Y-213022552D02*
X99377449Y-213528613D01*
X107200236Y-196385352D02*
X107200236Y-203848600D01*
X98871387Y-212177449D02*
X98871388Y-213022552D01*
X107200236Y-203848600D02*
X98871387Y-212177449D01*
G04 #@! TO.N,CS1*
X139279600Y-186050400D02*
X132320000Y-193010000D01*
X139279600Y-183718800D02*
X139279600Y-186050400D01*
X103434500Y-216600000D02*
X100200000Y-216600000D01*
X100200000Y-216600000D02*
X94307442Y-210707442D01*
X107559800Y-220725300D02*
X103434500Y-216600000D01*
G04 #@! TO.N,SW6*
X122200000Y-200303503D02*
X119659184Y-197762687D01*
X122200000Y-211400000D02*
X122200000Y-200303503D01*
G04 #@! TO.N,SW4*
X121018144Y-212218144D02*
X121018144Y-200858316D01*
X121018144Y-200858316D02*
X119492414Y-199332586D01*
X122600000Y-213800000D02*
X121018144Y-212218144D01*
G04 #@! TO.N,CS2*
X139000000Y-172600000D02*
X138201211Y-173398789D01*
X138201211Y-173398789D02*
X138201211Y-178998789D01*
X138201211Y-178998789D02*
X125000000Y-192200000D01*
X125000000Y-192200000D02*
X121000000Y-192200000D01*
X110175736Y-221000000D02*
X101575736Y-212400000D01*
X110600000Y-221000000D02*
X110175736Y-221000000D01*
X101575736Y-212400000D02*
X101400000Y-212400000D01*
X85024264Y-210600000D02*
X79510700Y-205086436D01*
X89600000Y-210600000D02*
X85024264Y-210600000D01*
G04 #@! TO.N,CS3*
X115730700Y-218769500D02*
X115730700Y-215469300D01*
X115730700Y-215469300D02*
X120200000Y-211000000D01*
X121252419Y-194652419D02*
X113436823Y-194652419D01*
X113436823Y-194652419D02*
X113136824Y-194352420D01*
X125400000Y-207800000D02*
X125400000Y-198800000D01*
X125400000Y-198800000D02*
X121252419Y-194652419D01*
D29*
G04 #@! TO.N,CS4*
X71856900Y-160197600D02*
X71856900Y-159025600D01*
X71856900Y-159025600D02*
X68605300Y-155774000D01*
G04 #@! TO.N,SW1*
X134041110Y-167901592D02*
X143353301Y-158589401D01*
X137375736Y-171600000D02*
X134041110Y-168265374D01*
X119731173Y-180361525D02*
X119731173Y-193071380D01*
X143353301Y-157989399D02*
X143028301Y-157664399D01*
X134041110Y-168265374D02*
X134041110Y-167901592D01*
X142428299Y-157664399D02*
X119731173Y-180361525D01*
X143028301Y-157664399D02*
X142428299Y-157664399D01*
X143353301Y-158589401D02*
X143353301Y-157989399D01*
X137800000Y-171600000D02*
X137375736Y-171600000D01*
D30*
G04 #@! TO.N,SW12*
X84200000Y-183400000D02*
X74400000Y-173600000D01*
X97400000Y-183400000D02*
X84200000Y-183400000D01*
X110764387Y-185676202D02*
X110119958Y-185031773D01*
X115272117Y-189759668D02*
X111188651Y-185676202D01*
X111188651Y-185676202D02*
X110764387Y-185676202D01*
X115272117Y-190466185D02*
X115272117Y-189759668D01*
G04 #@! TO.N,SW10*
X113418601Y-193200000D02*
X113218601Y-193000000D01*
X116233745Y-193200000D02*
X113418601Y-193200000D01*
X113218601Y-193000000D02*
X113242400Y-193023799D01*
X113218601Y-193000000D02*
X109353211Y-193000000D01*
X109353211Y-193000000D02*
X105766888Y-189413677D01*
X103500000Y-185080000D02*
X94296202Y-175876202D01*
X94296202Y-175876202D02*
X77323422Y-175876202D01*
X77023798Y-175576578D02*
X77023798Y-158983798D01*
X77323422Y-175876202D02*
X77023798Y-175576578D01*
X77023798Y-158983798D02*
X71330000Y-153290000D01*
G04 #@! TO.N,DISP_CS*
X107400000Y-120000000D02*
X107400000Y-113318000D01*
X107400000Y-113318000D02*
X107200000Y-113118000D01*
G04 #@! TO.N,DISP_SCLK*
X105400000Y-132800000D02*
X105400000Y-121600000D01*
X102375790Y-118575790D02*
X93589510Y-118575790D01*
X105400000Y-121600000D02*
X102375790Y-118575790D01*
G04 #@! TO.N,DISP_DC*
X105200000Y-113649000D02*
X113951000Y-104898000D01*
X105200000Y-119176210D02*
X105200000Y-113649000D01*
X113951000Y-104898000D02*
X125771790Y-104898000D01*
G04 #@! TO.N,TOUCH_CS*
X116200000Y-131800000D02*
X116200000Y-120423790D01*
X116800000Y-132400000D02*
X116200000Y-131800000D01*
D29*
G04 #@! TO.N,VBUS*
X90427400Y-85795300D02*
X89646000Y-86576700D01*
X89646000Y-86576700D02*
X89646000Y-102487000D01*
X89646000Y-102487000D02*
X80594400Y-111538600D01*
X80594400Y-111538600D02*
X80594400Y-113993100D01*
X71600100Y-133098000D02*
X71600000Y-133097900D01*
D30*
X71600000Y-133098000D02*
X71600100Y-133098000D01*
X80274066Y-133098000D02*
X81410225Y-131961841D01*
X74347000Y-133098000D02*
X73960000Y-133098000D01*
X77135000Y-130310000D02*
X74347000Y-133098000D01*
X77210000Y-130310000D02*
X77135000Y-130310000D01*
X73960000Y-133098000D02*
X80274066Y-133098000D01*
X71600100Y-133098000D02*
X73960000Y-133098000D01*
X77285000Y-130310000D02*
X77210000Y-130310000D01*
X77815710Y-129779290D02*
X77285000Y-130310000D01*
X77815710Y-128255710D02*
X77815710Y-129779290D01*
X77120000Y-127560000D02*
X77815710Y-128255710D01*
G04 #@! TO.N,SW5*
X125400000Y-215775736D02*
X121552410Y-211928146D01*
X121552410Y-200215590D02*
X119870716Y-198533896D01*
X121552410Y-211928146D02*
X121552410Y-200215590D01*
X119870716Y-198533896D02*
X119446452Y-198533896D01*
X125400000Y-216200000D02*
X125400000Y-215775736D01*
G04 #@! TO.N,I2C_SCK*
X87101300Y-163151300D02*
X89140000Y-165190000D01*
X86496210Y-163151300D02*
X87101300Y-163151300D01*
X85400000Y-181600000D02*
X85200000Y-181400000D01*
X97800000Y-181600000D02*
X85400000Y-181600000D01*
X69576343Y-188823657D02*
X69200000Y-189200000D01*
X80623657Y-188823657D02*
X69576343Y-188823657D01*
X81000000Y-189200000D02*
X80623657Y-188823657D01*
X113575736Y-202280000D02*
X109000000Y-206855736D01*
X102047589Y-215605191D02*
X101676578Y-215976202D01*
X102047589Y-214900369D02*
X102047589Y-215605191D01*
X114000000Y-202280000D02*
X113575736Y-202280000D01*
X109000000Y-212600000D02*
X108952411Y-212647589D01*
X101123422Y-211823798D02*
X100323422Y-212623798D01*
X108952411Y-212647589D02*
X102700369Y-212647589D01*
X101676578Y-215976202D02*
X101123422Y-215976202D01*
X101123422Y-215976202D02*
X74347220Y-189200000D01*
X100323422Y-213176202D02*
X102047589Y-214900369D01*
X100323422Y-212623798D02*
X100323422Y-213176202D01*
X101876578Y-211823798D02*
X101123422Y-211823798D01*
X102700369Y-212647589D02*
X101876578Y-211823798D01*
X109000000Y-206855736D02*
X109000000Y-212600000D01*
X74347220Y-189200000D02*
X69200000Y-189200000D01*
G04 #@! TO.N,I2C_SDA*
X113610000Y-203230000D02*
X120239000Y-203230000D01*
X120239000Y-203230000D02*
X120441942Y-203027058D01*
G04 #@! TO.N,~ENTER*
X125593261Y-106848000D02*
X125758751Y-106682510D01*
X105190687Y-189137100D02*
X105490311Y-188837476D01*
X108200000Y-111347000D02*
X112923000Y-106624000D01*
X105190687Y-189703234D02*
X105190687Y-189137100D01*
X113477000Y-106624000D02*
X113700000Y-106848000D01*
X108200000Y-186733565D02*
X108200000Y-111347000D01*
X108200000Y-212050000D02*
X108200000Y-192712547D01*
X112923000Y-106624000D02*
X113477000Y-106624000D01*
X113700000Y-106848000D02*
X125593261Y-106848000D01*
X105490311Y-188837476D02*
X106096089Y-188837476D01*
X125758751Y-106682510D02*
X126100000Y-106682510D01*
X108200000Y-192712547D02*
X105190687Y-189703234D01*
X106096089Y-188837476D02*
X108200000Y-186733565D01*
G04 #@! TO.N,SDT_SPI_MOSI*
X127740000Y-105040000D02*
X127740000Y-104719000D01*
X127740000Y-105060000D02*
X127740000Y-105040000D01*
D29*
X127750000Y-105040000D02*
X127740000Y-105040000D01*
D30*
X127745000Y-104714000D02*
X127740000Y-104709000D01*
X127750000Y-104719000D02*
X127745000Y-104714000D01*
D29*
X127745000Y-104714000D02*
X127740000Y-104719000D01*
D30*
X127740000Y-104709000D02*
X127740000Y-96340000D01*
X127740000Y-96340000D02*
X123000000Y-91600000D01*
X123000000Y-91600000D02*
X96498400Y-91600000D01*
X96498400Y-91600000D02*
X90952400Y-97146000D01*
X90952400Y-97146000D02*
X90952400Y-118352000D01*
X90952400Y-118352000D02*
X92400000Y-119800000D01*
X92400000Y-119800000D02*
X100000000Y-119800000D01*
G04 #@! TO.N,SDT_SPI_MISO*
X128850000Y-105040000D02*
X128850000Y-96250000D01*
X128850000Y-96250000D02*
X123400000Y-90800000D01*
X123400000Y-90800000D02*
X96800000Y-90800000D01*
X96800000Y-90800000D02*
X90600000Y-97000000D01*
X90600000Y-97000000D02*
X90600000Y-119400000D01*
X90600000Y-119400000D02*
X98600000Y-127400000D01*
X128850000Y-105070000D02*
X128850000Y-105040000D01*
G04 #@! TO.N,SDT_SPI_SCK*
X129940000Y-105010000D02*
X129940000Y-96340000D01*
X129940000Y-96340000D02*
X124000000Y-90400000D01*
X124000000Y-90400000D02*
X95901600Y-90400000D01*
X95901600Y-90400000D02*
X90047600Y-96254000D01*
X90047600Y-96254000D02*
X90047600Y-119613000D01*
X90047600Y-119613000D02*
X98351600Y-127918000D01*
X98351600Y-127918000D02*
X98848400Y-127918000D01*
X98848400Y-127918000D02*
X101800000Y-124966000D01*
X101800000Y-124966000D02*
X101800000Y-120482000D01*
G04 #@! TO.N,DISP_MISO*
X113200000Y-120000000D02*
X112600000Y-120600000D01*
X112600000Y-120600000D02*
X112600000Y-132200000D01*
G04 #@! TO.N,DISP_MOSI*
X114824000Y-133692130D02*
X114944040Y-133812170D01*
X114824000Y-122406000D02*
X114824000Y-133692130D01*
X115412170Y-133812170D02*
X123800000Y-142200000D01*
X114944040Y-133812170D02*
X115412170Y-133812170D01*
G04 #@! TO.N,UART_RTS*
X108000000Y-103400000D02*
X106800000Y-104600000D01*
X106800000Y-104600000D02*
X106000000Y-104600000D01*
X114400000Y-105600000D02*
X117600210Y-105600000D01*
G04 #@! TO.N,UART_TX*
X113956000Y-106266000D02*
X117787000Y-106266000D01*
X126435451Y-106165000D02*
X126600280Y-106000171D01*
X117787000Y-106266000D02*
X117888000Y-106165000D01*
X117888000Y-106165000D02*
X126435451Y-106165000D01*
G04 #@! TO.N,UART_CTS*
X114400000Y-108800000D02*
X116200210Y-108800000D01*
G04 #@! TO.N,UART_RX*
X107200000Y-101800000D02*
X107624000Y-101800000D01*
X107624000Y-101800000D02*
X111162000Y-105337000D01*
X126375736Y-107200000D02*
X126375325Y-107200411D01*
X126375325Y-107200411D02*
X113624465Y-107200411D01*
X113624465Y-107200411D02*
X113624264Y-107200210D01*
X113624264Y-107200210D02*
X113200000Y-107200210D01*
X126800000Y-107200000D02*
X126375736Y-107200000D01*
G04 #@! TO.N,I2S_SDOUT*
X127750000Y-108450000D02*
X127750000Y-113150000D01*
X127750000Y-113150000D02*
X127800000Y-113200000D01*
G04 #@! TO.N,I2S_SCLK*
X128850000Y-108450000D02*
X128850000Y-113950000D01*
X128850000Y-113950000D02*
X128000000Y-114800000D01*
D29*
G04 #@! TO.N,Net-(BT401-Pad1)*
X72430000Y-118750000D02*
X74089400Y-118750000D01*
X74089400Y-118750000D02*
X74491700Y-119152300D01*
X89483404Y-146066596D02*
X89785490Y-146066596D01*
X86750000Y-150050000D02*
X86750000Y-148800000D01*
X86750000Y-148800000D02*
X89483404Y-146066596D01*
G04 #@! TO.N,Net-(C504-Pad2)*
X104400000Y-51600000D02*
X106800000Y-54000000D01*
X106800000Y-54000000D02*
X106800000Y-56051946D01*
X106800000Y-56051946D02*
X106800000Y-56476210D01*
G04 #@! TO.N,DEBUG_SWO*
X84187500Y-96074000D02*
X84187500Y-101165300D01*
X84187500Y-101165300D02*
X81695500Y-103657300D01*
D30*
X126801000Y-108450000D02*
X117133510Y-118117490D01*
X117133510Y-118117490D02*
X109200000Y-118117490D01*
G04 #@! TD*
M02*
