G04 #@! TF.GenerationSoftware,KiCad,Pcbnew,(5.0.2-5)-5*
G04 #@! TF.CreationDate,2019-02-16T21:29:27-08:00*
G04 #@! TF.ProjectId,DC27-badge,44433237-2d62-4616-9467-652e6b696361,rev?*
G04 #@! TF.SameCoordinates,Original*
G04 #@! TF.FileFunction,Legend,Bot*
G04 #@! TF.FilePolarity,Positive*
%FSLAX46Y46*%
G04 Gerber Fmt 4.6, Leading zero omitted, Abs format (unit mm)*
G04 Created by KiCad (PCBNEW (5.0.2-5)-5) date Saturday, February 16, 2019 at 09:29:27 PM*
%MOMM*%
%LPD*%
G01*
G04 APERTURE LIST*
%ADD10C,0.120000*%
%ADD11C,0.127000*%
%ADD12C,0.007620*%
%ADD13C,0.150000*%
%ADD14C,0.152400*%
G04 APERTURE END LIST*
D10*
G04 #@! TO.C,U602*
X75610000Y-130710000D02*
X77160000Y-130710000D01*
X77160000Y-128910000D02*
X75860000Y-128910000D01*
D11*
G04 #@! TO.C,J601*
X67475040Y-136880000D02*
X67475040Y-126720000D01*
X67475040Y-136880000D02*
X71627940Y-136880000D01*
X71627940Y-136880000D02*
X72628700Y-135879239D01*
X72628700Y-135879239D02*
X72628699Y-127720759D01*
X72628699Y-127720759D02*
X71627940Y-126720000D01*
X71627940Y-126720000D02*
X67475040Y-126720000D01*
D12*
X69280980Y-135348380D02*
X68582480Y-135348380D01*
D10*
G04 #@! TO.C,BT401*
X89810000Y-153840000D02*
X89810000Y-149590000D01*
X89810000Y-149590000D02*
X88790000Y-149590000D01*
X88790000Y-149590000D02*
X88790000Y-151190000D01*
X88790000Y-151190000D02*
X87510000Y-151190000D01*
X87510000Y-151190000D02*
X87510000Y-148300000D01*
X81690000Y-153840000D02*
X81690000Y-149590000D01*
X81690000Y-149590000D02*
X82710000Y-149590000D01*
X82710000Y-149590000D02*
X82710000Y-151190000D01*
X82710000Y-151190000D02*
X83990000Y-151190000D01*
X88090000Y-157410000D02*
X83410000Y-157410000D01*
G04 #@! TO.C,SW401*
X72120000Y-119600000D02*
X72120000Y-119400000D01*
X67980000Y-122400000D02*
X67770000Y-122200000D01*
X67980000Y-121100000D02*
X67770000Y-121300000D01*
X69270000Y-122400000D02*
X67980000Y-122400000D01*
X67770000Y-122200000D02*
X67770000Y-121300000D01*
X67980000Y-121100000D02*
X69270000Y-121100000D01*
X69270000Y-123850000D02*
X69270000Y-118150000D01*
X72120000Y-122600000D02*
X72120000Y-120900000D01*
X71070000Y-124450000D02*
X70280000Y-124450000D01*
X70280000Y-117550000D02*
X71070000Y-117550000D01*
G04 #@! TO.C,C601*
X78030000Y-126762064D02*
X78030000Y-125557936D01*
X76210000Y-126762064D02*
X76210000Y-125557936D01*
G04 #@! TO.C,U602*
D13*
X78224285Y-130962380D02*
X78224285Y-131771904D01*
X78176666Y-131867142D01*
X78129047Y-131914761D01*
X78033809Y-131962380D01*
X77843333Y-131962380D01*
X77748095Y-131914761D01*
X77700476Y-131867142D01*
X77652857Y-131771904D01*
X77652857Y-130962380D01*
X76748095Y-130962380D02*
X76938571Y-130962380D01*
X77033809Y-131010000D01*
X77081428Y-131057619D01*
X77176666Y-131200476D01*
X77224285Y-131390952D01*
X77224285Y-131771904D01*
X77176666Y-131867142D01*
X77129047Y-131914761D01*
X77033809Y-131962380D01*
X76843333Y-131962380D01*
X76748095Y-131914761D01*
X76700476Y-131867142D01*
X76652857Y-131771904D01*
X76652857Y-131533809D01*
X76700476Y-131438571D01*
X76748095Y-131390952D01*
X76843333Y-131343333D01*
X77033809Y-131343333D01*
X77129047Y-131390952D01*
X77176666Y-131438571D01*
X77224285Y-131533809D01*
X76033809Y-130962380D02*
X75938571Y-130962380D01*
X75843333Y-131010000D01*
X75795714Y-131057619D01*
X75748095Y-131152857D01*
X75700476Y-131343333D01*
X75700476Y-131581428D01*
X75748095Y-131771904D01*
X75795714Y-131867142D01*
X75843333Y-131914761D01*
X75938571Y-131962380D01*
X76033809Y-131962380D01*
X76129047Y-131914761D01*
X76176666Y-131867142D01*
X76224285Y-131771904D01*
X76271904Y-131581428D01*
X76271904Y-131343333D01*
X76224285Y-131152857D01*
X76176666Y-131057619D01*
X76129047Y-131010000D01*
X76033809Y-130962380D01*
X75319523Y-131057619D02*
X75271904Y-131010000D01*
X75176666Y-130962380D01*
X74938571Y-130962380D01*
X74843333Y-131010000D01*
X74795714Y-131057619D01*
X74748095Y-131152857D01*
X74748095Y-131248095D01*
X74795714Y-131390952D01*
X75367142Y-131962380D01*
X74748095Y-131962380D01*
G04 #@! TO.C,J601*
D14*
X72979099Y-133033714D02*
X73704813Y-133033714D01*
X73849956Y-132985333D01*
X73946718Y-132888571D01*
X73995099Y-132743428D01*
X73995099Y-132646666D01*
X72979099Y-133952952D02*
X72979099Y-133759428D01*
X73027480Y-133662666D01*
X73075860Y-133614285D01*
X73221003Y-133517523D01*
X73414527Y-133469142D01*
X73801575Y-133469142D01*
X73898337Y-133517523D01*
X73946718Y-133565904D01*
X73995099Y-133662666D01*
X73995099Y-133856190D01*
X73946718Y-133952952D01*
X73898337Y-134001333D01*
X73801575Y-134049714D01*
X73559670Y-134049714D01*
X73462908Y-134001333D01*
X73414527Y-133952952D01*
X73366146Y-133856190D01*
X73366146Y-133662666D01*
X73414527Y-133565904D01*
X73462908Y-133517523D01*
X73559670Y-133469142D01*
X72979099Y-134678666D02*
X72979099Y-134775428D01*
X73027480Y-134872190D01*
X73075860Y-134920571D01*
X73172622Y-134968952D01*
X73366146Y-135017333D01*
X73608051Y-135017333D01*
X73801575Y-134968952D01*
X73898337Y-134920571D01*
X73946718Y-134872190D01*
X73995099Y-134775428D01*
X73995099Y-134678666D01*
X73946718Y-134581904D01*
X73898337Y-134533523D01*
X73801575Y-134485142D01*
X73608051Y-134436761D01*
X73366146Y-134436761D01*
X73172622Y-134485142D01*
X73075860Y-134533523D01*
X73027480Y-134581904D01*
X72979099Y-134678666D01*
X73995099Y-135984952D02*
X73995099Y-135404380D01*
X73995099Y-135694666D02*
X72979099Y-135694666D01*
X73124241Y-135597904D01*
X73221003Y-135501142D01*
X73269384Y-135404380D01*
X74503099Y-127736000D02*
X75325575Y-127736000D01*
X75422337Y-127784380D01*
X75470718Y-127832761D01*
X75519099Y-127929523D01*
X75519099Y-128123047D01*
X75470718Y-128219809D01*
X75422337Y-128268190D01*
X75325575Y-128316571D01*
X74503099Y-128316571D01*
X75470718Y-128752000D02*
X75519099Y-128897142D01*
X75519099Y-129139047D01*
X75470718Y-129235809D01*
X75422337Y-129284190D01*
X75325575Y-129332571D01*
X75228813Y-129332571D01*
X75132051Y-129284190D01*
X75083670Y-129235809D01*
X75035289Y-129139047D01*
X74986908Y-128945523D01*
X74938527Y-128848761D01*
X74890146Y-128800380D01*
X74793384Y-128752000D01*
X74696622Y-128752000D01*
X74599860Y-128800380D01*
X74551480Y-128848761D01*
X74503099Y-128945523D01*
X74503099Y-129187428D01*
X74551480Y-129332571D01*
X74986908Y-130106666D02*
X75035289Y-130251809D01*
X75083670Y-130300190D01*
X75180432Y-130348571D01*
X75325575Y-130348571D01*
X75422337Y-130300190D01*
X75470718Y-130251809D01*
X75519099Y-130155047D01*
X75519099Y-129768000D01*
X74503099Y-129768000D01*
X74503099Y-130106666D01*
X74551480Y-130203428D01*
X74599860Y-130251809D01*
X74696622Y-130300190D01*
X74793384Y-130300190D01*
X74890146Y-130251809D01*
X74938527Y-130203428D01*
X74986908Y-130106666D01*
X74986908Y-129768000D01*
X75615860Y-130542095D02*
X75615860Y-131316190D01*
X75519099Y-131558095D02*
X74503099Y-131558095D01*
X75228813Y-131896761D01*
X74503099Y-132235428D01*
X75519099Y-132235428D01*
X75519099Y-132719238D02*
X74503099Y-132719238D01*
X75422337Y-133783619D02*
X75470718Y-133735238D01*
X75519099Y-133590095D01*
X75519099Y-133493333D01*
X75470718Y-133348190D01*
X75373956Y-133251428D01*
X75277194Y-133203047D01*
X75083670Y-133154666D01*
X74938527Y-133154666D01*
X74745003Y-133203047D01*
X74648241Y-133251428D01*
X74551480Y-133348190D01*
X74503099Y-133493333D01*
X74503099Y-133590095D01*
X74551480Y-133735238D01*
X74599860Y-133783619D01*
X75519099Y-134799619D02*
X75035289Y-134460952D01*
X75519099Y-134219047D02*
X74503099Y-134219047D01*
X74503099Y-134606095D01*
X74551480Y-134702857D01*
X74599860Y-134751238D01*
X74696622Y-134799619D01*
X74841765Y-134799619D01*
X74938527Y-134751238D01*
X74986908Y-134702857D01*
X75035289Y-134606095D01*
X75035289Y-134219047D01*
X74503099Y-135428571D02*
X74503099Y-135622095D01*
X74551480Y-135718857D01*
X74648241Y-135815619D01*
X74841765Y-135864000D01*
X75180432Y-135864000D01*
X75373956Y-135815619D01*
X75470718Y-135718857D01*
X75519099Y-135622095D01*
X75519099Y-135428571D01*
X75470718Y-135331809D01*
X75373956Y-135235047D01*
X75180432Y-135186666D01*
X74841765Y-135186666D01*
X74648241Y-135235047D01*
X74551480Y-135331809D01*
X74503099Y-135428571D01*
X75615860Y-136057523D02*
X75615860Y-136831619D01*
X75519099Y-137654095D02*
X75035289Y-137315428D01*
X75519099Y-137073523D02*
X74503099Y-137073523D01*
X74503099Y-137460571D01*
X74551480Y-137557333D01*
X74599860Y-137605714D01*
X74696622Y-137654095D01*
X74841765Y-137654095D01*
X74938527Y-137605714D01*
X74986908Y-137557333D01*
X75035289Y-137460571D01*
X75035289Y-137073523D01*
X75519099Y-138089523D02*
X74503099Y-138089523D01*
X74551480Y-139105523D02*
X74503099Y-139008761D01*
X74503099Y-138863619D01*
X74551480Y-138718476D01*
X74648241Y-138621714D01*
X74745003Y-138573333D01*
X74938527Y-138524952D01*
X75083670Y-138524952D01*
X75277194Y-138573333D01*
X75373956Y-138621714D01*
X75470718Y-138718476D01*
X75519099Y-138863619D01*
X75519099Y-138960380D01*
X75470718Y-139105523D01*
X75422337Y-139153904D01*
X75083670Y-139153904D01*
X75083670Y-138960380D01*
X75519099Y-139589333D02*
X74503099Y-139589333D01*
X74986908Y-139589333D02*
X74986908Y-140169904D01*
X75519099Y-140169904D02*
X74503099Y-140169904D01*
X74503099Y-140508571D02*
X74503099Y-141089142D01*
X75519099Y-140798857D02*
X74503099Y-140798857D01*
G04 #@! TO.C,BT401*
D13*
X87488095Y-147028571D02*
X87345238Y-147076190D01*
X87297619Y-147123809D01*
X87250000Y-147219047D01*
X87250000Y-147361904D01*
X87297619Y-147457142D01*
X87345238Y-147504761D01*
X87440476Y-147552380D01*
X87821428Y-147552380D01*
X87821428Y-146552380D01*
X87488095Y-146552380D01*
X87392857Y-146600000D01*
X87345238Y-146647619D01*
X87297619Y-146742857D01*
X87297619Y-146838095D01*
X87345238Y-146933333D01*
X87392857Y-146980952D01*
X87488095Y-147028571D01*
X87821428Y-147028571D01*
X86964285Y-146552380D02*
X86392857Y-146552380D01*
X86678571Y-147552380D02*
X86678571Y-146552380D01*
X85630952Y-146885714D02*
X85630952Y-147552380D01*
X85869047Y-146504761D02*
X86107142Y-147219047D01*
X85488095Y-147219047D01*
X84916666Y-146552380D02*
X84821428Y-146552380D01*
X84726190Y-146600000D01*
X84678571Y-146647619D01*
X84630952Y-146742857D01*
X84583333Y-146933333D01*
X84583333Y-147171428D01*
X84630952Y-147361904D01*
X84678571Y-147457142D01*
X84726190Y-147504761D01*
X84821428Y-147552380D01*
X84916666Y-147552380D01*
X85011904Y-147504761D01*
X85059523Y-147457142D01*
X85107142Y-147361904D01*
X85154761Y-147171428D01*
X85154761Y-146933333D01*
X85107142Y-146742857D01*
X85059523Y-146647619D01*
X85011904Y-146600000D01*
X84916666Y-146552380D01*
X83630952Y-147552380D02*
X84202380Y-147552380D01*
X83916666Y-147552380D02*
X83916666Y-146552380D01*
X84011904Y-146695238D01*
X84107142Y-146790476D01*
X84202380Y-146838095D01*
G04 #@! TO.C,SW401*
X74604761Y-118714285D02*
X74652380Y-118857142D01*
X74652380Y-119095238D01*
X74604761Y-119190476D01*
X74557142Y-119238095D01*
X74461904Y-119285714D01*
X74366666Y-119285714D01*
X74271428Y-119238095D01*
X74223809Y-119190476D01*
X74176190Y-119095238D01*
X74128571Y-118904761D01*
X74080952Y-118809523D01*
X74033333Y-118761904D01*
X73938095Y-118714285D01*
X73842857Y-118714285D01*
X73747619Y-118761904D01*
X73700000Y-118809523D01*
X73652380Y-118904761D01*
X73652380Y-119142857D01*
X73700000Y-119285714D01*
X73652380Y-119619047D02*
X74652380Y-119857142D01*
X73938095Y-120047619D01*
X74652380Y-120238095D01*
X73652380Y-120476190D01*
X73985714Y-121285714D02*
X74652380Y-121285714D01*
X73604761Y-121047619D02*
X74319047Y-120809523D01*
X74319047Y-121428571D01*
X73652380Y-122000000D02*
X73652380Y-122095238D01*
X73700000Y-122190476D01*
X73747619Y-122238095D01*
X73842857Y-122285714D01*
X74033333Y-122333333D01*
X74271428Y-122333333D01*
X74461904Y-122285714D01*
X74557142Y-122238095D01*
X74604761Y-122190476D01*
X74652380Y-122095238D01*
X74652380Y-122000000D01*
X74604761Y-121904761D01*
X74557142Y-121857142D01*
X74461904Y-121809523D01*
X74271428Y-121761904D01*
X74033333Y-121761904D01*
X73842857Y-121809523D01*
X73747619Y-121857142D01*
X73700000Y-121904761D01*
X73652380Y-122000000D01*
X74652380Y-123285714D02*
X74652380Y-122714285D01*
X74652380Y-123000000D02*
X73652380Y-123000000D01*
X73795238Y-122904761D01*
X73890476Y-122809523D01*
X73938095Y-122714285D01*
G04 #@! TO.C,C601*
X79297142Y-125040952D02*
X79344761Y-124993333D01*
X79392380Y-124850476D01*
X79392380Y-124755238D01*
X79344761Y-124612380D01*
X79249523Y-124517142D01*
X79154285Y-124469523D01*
X78963809Y-124421904D01*
X78820952Y-124421904D01*
X78630476Y-124469523D01*
X78535238Y-124517142D01*
X78440000Y-124612380D01*
X78392380Y-124755238D01*
X78392380Y-124850476D01*
X78440000Y-124993333D01*
X78487619Y-125040952D01*
X78392380Y-125898095D02*
X78392380Y-125707619D01*
X78440000Y-125612380D01*
X78487619Y-125564761D01*
X78630476Y-125469523D01*
X78820952Y-125421904D01*
X79201904Y-125421904D01*
X79297142Y-125469523D01*
X79344761Y-125517142D01*
X79392380Y-125612380D01*
X79392380Y-125802857D01*
X79344761Y-125898095D01*
X79297142Y-125945714D01*
X79201904Y-125993333D01*
X78963809Y-125993333D01*
X78868571Y-125945714D01*
X78820952Y-125898095D01*
X78773333Y-125802857D01*
X78773333Y-125612380D01*
X78820952Y-125517142D01*
X78868571Y-125469523D01*
X78963809Y-125421904D01*
X78392380Y-126612380D02*
X78392380Y-126707619D01*
X78440000Y-126802857D01*
X78487619Y-126850476D01*
X78582857Y-126898095D01*
X78773333Y-126945714D01*
X79011428Y-126945714D01*
X79201904Y-126898095D01*
X79297142Y-126850476D01*
X79344761Y-126802857D01*
X79392380Y-126707619D01*
X79392380Y-126612380D01*
X79344761Y-126517142D01*
X79297142Y-126469523D01*
X79201904Y-126421904D01*
X79011428Y-126374285D01*
X78773333Y-126374285D01*
X78582857Y-126421904D01*
X78487619Y-126469523D01*
X78440000Y-126517142D01*
X78392380Y-126612380D01*
X79392380Y-127898095D02*
X79392380Y-127326666D01*
X79392380Y-127612380D02*
X78392380Y-127612380D01*
X78535238Y-127517142D01*
X78630476Y-127421904D01*
X78678095Y-127326666D01*
G04 #@! TD*
M02*
