  0
SECTION
  2
HEADER
  9
$ACADVER
  1
AC1012
  9
$DWGCODEPAGE
  3
undefined
  9
$INSBASE
 10
0.0
 20
0.0
 30
0.0
  9
$EXTMIN
 10
1.000000000000000E+20
 20
1.000000000000000E+20
 30
1.000000000000000E+20
  9
$EXTMAX
 10
-1.000000000000000E+20
 20
-1.000000000000000E+20
 30
-1.000000000000000E+20
  9
$LIMMIN
 10
0.0
 20
0.0
  9
$LIMMAX
 10
12.0
 20
9.0
  9
$ORTHOMODE
 70
     0
  9
$REGENMODE
 70
     1
  9
$FILLMODE
 70
     1
  9
$QTEXTMODE
 70
     0
  9
$MIRRTEXT
 70
     1
  9
$DRAGMODE
 70
     2
  9
$LTSCALE
 40
1.0
  9
$OSMODE
 70
    37
  9
$ATTMODE
 70
     1
  9
$TEXTSIZE
 40
0.2
  9
$TRACEWID
 40
0.05
  9
$TEXTSTYLE
  7
STANDARD
  9
$CLAYER
  8
0
  9
$CELTYPE
  6
BYLAYER
  9
$CECOLOR
 62
   256
  9
$CELTSCALE
 40
1.0
  9
$DELOBJ
 70
     1
  9
$DISPSILH
 70
     0
  9
$DIMSCALE
 40
1.0
  9
$DIMASZ
 40
0.18
  9
$DIMEXO
 40
0.0625
  9
$DIMDLI
 40
0.38
  9
$DIMRND
 40
0.0
  9
$DIMDLE
 40
0.0
  9
$DIMEXE
 40
0.18
  9
$DIMTP
 40
0.0
  9
$DIMTM
 40
0.0
  9
$DIMTXT
 40
0.18
  9
$DIMCEN
 40
0.09
  9
$DIMTSZ
 40
0.0
  9
$DIMTOL
 70
     0
  9
$DIMLIM
 70
     0
  9
$DIMTIH
 70
     1
  9
$DIMTOH
 70
     1
  9
$DIMSE1
 70
     0
  9
$DIMSE2
 70
     0
  9
$DIMTAD
 70
     0
  9
$DIMZIN
 70
     0
  9
$DIMBLK
  1

  9
$DIMASO
 70
     1
  9
$DIMSHO
 70
     1
  9
$DIMPOST
  1

  9
$DIMAPOST
  1

  9
$DIMALT
 70
     0
  9
$DIMALTD
 70
     2
  9
$DIMALTF
 40
25.4
  9
$DIMLFAC
 40
1.0
  9
$DIMTOFL
 70
     0
  9
$DIMTVP
 40
0.0
  9
$DIMTIX
 70
     0
  9
$DIMSOXD
 70
     0
  9
$DIMSAH
 70
     0
  9
$DIMBLK1
  1

  9
$DIMBLK2
  1

  9
$DIMSTYLE
  2
STANDARD
  9
$DIMCLRD
 70
     0
  9
$DIMCLRE
 70
     0
  9
$DIMCLRT
 70
     0
  9
$DIMTFAC
 40
1.0
  9
$DIMGAP
 40
0.09
  9
$DIMJUST
 70
     0
  9
$DIMSD1
 70
     0
  9
$DIMSD2
 70
     0
  9
$DIMTOLJ
 70
     1
  9
$DIMTZIN
 70
     0
  9
$DIMALTZ
 70
     0
  9
$DIMALTTZ
 70
     0
  9
$DIMFIT
 70
     3
  9
$DIMUPT
 70
     0
  9
$DIMUNIT
 70
     2
  9
$DIMDEC
 70
     4
  9
$DIMTDEC
 70
     4
  9
$DIMALTU
 70
     2
  9
$DIMALTTD
 70
     2
  9
$DIMTXSTY
  7
STANDARD
  9
$DIMAUNIT
 70
     0
  9
$LUNITS
 70
     2
  9
$LUPREC
 70
     4
  9
$SKETCHINC
 40
0.1
  9
$FILLETRAD
 40
0.5
  9
$AUNITS
 70
     0
  9
$AUPREC
 70
     0
  9
$MENU
  1
.
  9
$ELEVATION
 40
0.0
  9
$PELEVATION
 40
0.0
  9
$THICKNESS
 40
0.0
  9
$LIMCHECK
 70
     0
  9
$CHAMFERA
 40
0.5
  9
$CHAMFERB
 40
0.5
  9
$CHAMFERC
 40
1.0
  9
$CHAMFERD
 40
0.0
  9
$SKPOLY
 70
     0
  9
$TDCREATE
 40
2458514.01974537
  9
$TDUPDATE
 40
2458514.01974537
  9
$TDINDWG
 40
0.0000000116
  9
$TDUSRTIMER
 40
0.0000000116
  9
$USRTIMER
 70
     1
  9
$ANGBASE
 50
0.0
  9
$ANGDIR
 70
     0
  9
$PDMODE
 70
     0
  9
$PDSIZE
 40
0.0
  9
$PLINEWID
 40
0.0
  9
$COORDS
 70
     1
  9
$SPLFRAME
 70
     0
  9
$SPLINETYPE
 70
     6
  9
$SPLINESEGS
 70
     8
  9
$ATTDIA
 70
     0
  9
$ATTREQ
 70
     1
  9
$HANDLING
 70
     1
  9
$HANDSEED
  5
66
  9
$SURFTAB1
 70
     6
  9
$SURFTAB2
 70
     6
  9
$SURFTYPE
 70
     6
  9
$SURFU
 70
     6
  9
$SURFV
 70
     6
  9
$UCSNAME
  2

  9
$UCSORG
 10
0.0
 20
0.0
 30
0.0
  9
$UCSXDIR
 10
1.0
 20
0.0
 30
0.0
  9
$UCSYDIR
 10
0.0
 20
1.0
 30
0.0
  9
$PUCSNAME
  2

  9
$PUCSORG
 10
0.0
 20
0.0
 30
0.0
  9
$PUCSXDIR
 10
1.0
 20
0.0
 30
0.0
  9
$PUCSYDIR
 10
0.0
 20
1.0
 30
0.0
  9
$USERI1
 70
     0
  9
$USERI2
 70
     0
  9
$USERI3
 70
     0
  9
$USERI4
 70
     0
  9
$USERI5
 70
     0
  9
$USERR1
 40
0.0
  9
$USERR2
 40
0.0
  9
$USERR3
 40
0.0
  9
$USERR4
 40
0.0
  9
$USERR5
 40
0.0
  9
$WORLDVIEW
 70
     1
  9
$SHADEDGE
 70
     3
  9
$SHADEDIF
 70
    70
  9
$TILEMODE
 70
     1
  9
$MAXACTVP
 70
    64
  9
$PINSBASE
 10
0.0
 20
0.0
 30
0.0
  9
$PLIMCHECK
 70
     0
  9
$PEXTMIN
 10
1.000000000000000E+20
 20
1.000000000000000E+20
 30
1.000000000000000E+20
  9
$PEXTMAX
 10
-1.000000000000000E+20
 20
-1.000000000000000E+20
 30
-1.000000000000000E+20
  9
$PLIMMIN
 10
0.0
 20
0.0
  9
$PLIMMAX
 10
12.0
 20
9.0
  9
$UNITMODE
 70
     0
  9
$VISRETAIN
 70
     1
  9
$PLINEGEN
 70
     0
  9
$PSLTSCALE
 70
     1
  9
$TREEDEPTH
 70
  3020
  9
$PICKSTYLE
 70
     1
  9
$CMLSTYLE
  2
STANDARD
  9
$CMLJUST
 70
     0
  9
$CMLSCALE
 40
1.0
  9
$SAVEIMAGES
 70
     1
  0
ENDSEC
  0
SECTION
  2
CLASSES
  0
CLASS
  1
ACDBDICTIONARYWDFLT
  2
AcDbDictionaryWithDefault
  3
ObjectDBX Classes
 90
    32768
280
     0
281
     0
  0
CLASS
  1
VISUALSTYLE
  2
AcDbVisualStyle
  3
ObjectDBX Classes
 90
     4095
280
     0
281
     0
  0
CLASS
  1
MATERIAL
  2
AcDbMaterial
  3
ObjectDBX Classes
 90
     1153
280
     0
281
     0
  0
CLASS
  1
SUN
  2
AcDbSun
  3
SCENEOE
 90
     1024
280
     0
281
     0
  0
CLASS
  1
DICTIONARYVAR
  2
AcDbDictionaryVar
  3
ObjectDBX Classes
 90
        0
280
     0
281
     0
  0
CLASS
  1
XRECORD
  2
AcDbXrecord
  3
AutoCAD 2000
 90
    32768
280
     0
281
     0
  0
CLASS
  1
LWPOLYLINE
  2
AcDbPolyline
  3
AutoCAD 2000
 90
    32768
280
     0
281
     1
  0
CLASS
  1
HATCH
  2
AcDbHatch
  3
AutoCAD 2000
 90
    32768
280
     0
281
     1
  0
CLASS
  1
ACDBPLACEHOLDER
  2
AcDbPlaceHolder
  3
ObjectDBX Classes
 90
        0
280
     0
281
     0
  0
CLASS
  1
LAYOUT
  2
AcDbLayout
  3
ObjectDBX Classes
 90
        0
280
     0
281
     0
  0
ENDSEC
  0
SECTION
  2
TABLES
  0
TABLE
  2
VPORT
  5
8
330
0
100
AcDbSymbolTable
 70
     1
  0
VPORT
  5
29
330
8
100
AcDbSymbolTableRecord
100
AcDbViewportTableRecord
  2
*ACTIVE
 70
     0
 10
0.0
 20
0.0
 11
1.0
 21
1.0
 12
0.0
 22
0.0
 13
0.0
 23
0.0
 14
0.5
 24
0.5
 15
0.5
 25
0.5
 16
0.0
 26
0.0
 36
1.0
 17
396.0
 27
-306.0
 37
0.0
 40
612.0
 41
1.294117647058824
 42
50.0
 43
0.0
 44
0.0
 50
0.0
 51
0.0
 71
     0
 72
   100
 73
     1
 74
     3
 75
     0
 76
     0
 77
     0
 78
     0
  0
ENDTAB
  0
TABLE
  2
LTYPE
  5
5
330
0
100
AcDbSymbolTable
 70
     1
  0
LTYPE
  5
14
330
5
100
AcDbSymbolTableRecord
100
AcDbLinetypeTableRecord
  2
BYBLOCK
 70
     0
  3

 72
    65
 73
     0
 40
0.0
  0
LTYPE
  5
15
330
5
100
AcDbSymbolTableRecord
100
AcDbLinetypeTableRecord
  2
BYLAYER
 70
     0
  3

 72
    65
 73
     0
 40
0.0
  0
LTYPE
  5
16
330
5
100
AcDbSymbolTableRecord
100
AcDbLinetypeTableRecord
  2
CONTINUOUS
 70
     0
  3
Solid line
 72
    65
 73
     0
 40
0.0
  0
ENDTAB
  0
TABLE
  2
LAYER
  5
2
330
0
100
AcDbSymbolTable
 70
     2
  0
LAYER
  5
10
330
2
100
AcDbSymbolTableRecord
100
AcDbLayerTableRecord
  2
0
 70
     0
 62
     7
  6
CONTINUOUS
  0
LAYER
  5
40
330
2
100
AcDbSymbolTableRecord
100
AcDbLayerTableRecord
  2
LAYER_1
 70
     0
 62
     7
  6
CONTINUOUS
  0
ENDTAB
  0
TABLE
  2
STYLE
  5
3
330
0
100
AcDbSymbolTable
 70
     1
  0
STYLE
  5
11
330
3
100
AcDbSymbolTableRecord
100
AcDbTextStyleTableRecord
  2
STANDARD
 70
     0
 40
0.0
 41
1.0
 50
0.0
 71
     0
 42
0.2
  3
txt
  4

  0
ENDTAB
  0
TABLE
  2
VIEW
  5
6
330
0
100
AcDbSymbolTable
 70
     0
  0
ENDTAB
  0
TABLE
  2
UCS
  5
7
330
0
100
AcDbSymbolTable
 70
     0
  0
ENDTAB
  0
TABLE
  2
APPID
  5
9
330
0
100
AcDbSymbolTable
 70
     1
  0
APPID
  5
12
330
9
100
AcDbSymbolTableRecord
100
AcDbRegAppTableRecord
  2
ACAD
 70
     0
  0
ENDTAB
  0
TABLE
  2
DIMSTYLE
  5
A
330
0
100
AcDbSymbolTable
 70
     1
  0
DIMSTYLE
105
27
330
A
100
AcDbSymbolTableRecord
100
AcDbDimStyleTableRecord
  2
STANDARD
 70
     0
  3

  4

  5

  6

  7

 40
1.0
 41
0.18
 42
0.0625
 43
0.38
 44
0.18
 45
0.0
 46
0.0
 47
0.0
 48
0.0
140
0.18
141
0.09
142
0.0
143
25.4
144
1.0
145
0.0
146
1.0
147
0.09
 71
     0
 72
     0
 73
     1
 74
     1
 75
     0
 76
     0
 77
     0
 78
     0
170
     0
171
     2
172
     0
173
     0
174
     0
175
     0
176
     0
177
     0
178
     0
270
     2
271
     4
272
     4
273
     2
274
     2
340
11
275
     0
280
     0
281
     0
282
     0
283
     1
284
     0
285
     0
286
     0
287
     3
288
     0
  0
ENDTAB
  0
TABLE
  2
BLOCK_RECORD
  5
1
330
0
100
AcDbSymbolTable
 70
     1
  0
BLOCK_RECORD
  5
1F
330
1
100
AcDbSymbolTableRecord
100
AcDbBlockTableRecord
  2
*MODEL_SPACE
  0
BLOCK_RECORD
  5
1B
330
1
100
AcDbSymbolTableRecord
100
AcDbBlockTableRecord
  2
*PAPER_SPACE
  0
ENDTAB
  0
ENDSEC
  0
SECTION
  2
BLOCKS
  0
BLOCK
  5
20
330
1F
100
AcDbEntity
  8
0
100
AcDbBlockBegin
  2
*MODEL_SPACE
 70
     0
 10
0.0
 20
0.0
 30
0.0
  3
*MODEL_SPACE
  1

  0
ENDBLK
  5
21
330
1F
100
AcDbEntity
  8
0
100
AcDbBlockEnd
  0
BLOCK
  5
1C
330
1B
100
AcDbEntity
 67
     1
  8
0
100
AcDbBlockBegin
  2
*PAPER_SPACE
 70
     0
 10
0.0
 20
0.0
 30
0.0
  3
*PAPER_SPACE
  1

  0
ENDBLK
  5
1D
330
1B
100
AcDbEntity
 67
     1
  8
0
100
AcDbBlockEnd
  0
ENDSEC
  0
SECTION
  2
ENTITIES
  0
SPLINE
  5
41
330
1F
100
AcDbEntity
  8
LAYER_1
 62
     7
100
AcDbSpline
210
0.0
220
0.0
230
1.0
 70
    11
 71
     3
 72
   470
 73
   466
 74
     0
 42
0.0000000001
 43
0.0000000001
 12
1.0
 22
0.0
 32
0.0
 13
1.0
 23
0.0
 33
0.0
 40
0.0
 40
0.0
 40
0.0
 40
0.0
 40
1.0
 40
1.0
 40
1.0
 40
2.0
 40
2.0
 40
2.0
 40
3.0
 40
3.0
 40
3.0
 40
4.0
 40
4.0
 40
4.0
 40
5.0
 40
5.0
 40
5.0
 40
6.0
 40
6.0
 40
6.0
 40
7.0
 40
7.0
 40
7.0
 40
8.0
 40
8.0
 40
8.0
 40
9.0
 40
9.0
 40
9.0
 40
10.0
 40
10.0
 40
10.0
 40
11.0
 40
11.0
 40
11.0
 40
12.0
 40
12.0
 40
12.0
 40
13.0
 40
13.0
 40
13.0
 40
14.0
 40
14.0
 40
14.0
 40
15.0
 40
15.0
 40
15.0
 40
16.0
 40
16.0
 40
16.0
 40
17.0
 40
17.0
 40
17.0
 40
18.0
 40
18.0
 40
18.0
 40
19.0
 40
19.0
 40
19.0
 40
20.0
 40
20.0
 40
20.0
 40
21.0
 40
21.0
 40
21.0
 40
22.0
 40
22.0
 40
22.0
 40
23.0
 40
23.0
 40
23.0
 40
24.0
 40
24.0
 40
24.0
 40
25.0
 40
25.0
 40
25.0
 40
26.0
 40
26.0
 40
26.0
 40
27.0
 40
27.0
 40
27.0
 40
28.0
 40
28.0
 40
28.0
 40
29.0
 40
29.0
 40
29.0
 40
30.0
 40
30.0
 40
30.0
 40
31.0
 40
31.0
 40
31.0
 40
32.0
 40
32.0
 40
32.0
 40
33.0
 40
33.0
 40
33.0
 40
34.0
 40
34.0
 40
34.0
 40
35.0
 40
35.0
 40
35.0
 40
36.0
 40
36.0
 40
36.0
 40
37.0
 40
37.0
 40
37.0
 40
38.0
 40
38.0
 40
38.0
 40
39.0
 40
39.0
 40
39.0
 40
40.0
 40
40.0
 40
40.0
 40
41.0
 40
41.0
 40
41.0
 40
42.0
 40
42.0
 40
42.0
 40
43.0
 40
43.0
 40
43.0
 40
44.0
 40
44.0
 40
44.0
 40
45.0
 40
45.0
 40
45.0
 40
46.0
 40
46.0
 40
46.0
 40
47.0
 40
47.0
 40
47.0
 40
48.0
 40
48.0
 40
48.0
 40
49.0
 40
49.0
 40
49.0
 40
50.0
 40
50.0
 40
50.0
 40
51.0
 40
51.0
 40
51.0
 40
52.0
 40
52.0
 40
52.0
 40
53.0
 40
53.0
 40
53.0
 40
54.0
 40
54.0
 40
54.0
 40
55.0
 40
55.0
 40
55.0
 40
56.0
 40
56.0
 40
56.0
 40
57.0
 40
57.0
 40
57.0
 40
58.0
 40
58.0
 40
58.0
 40
59.0
 40
59.0
 40
59.0
 40
60.0
 40
60.0
 40
60.0
 40
61.0
 40
61.0
 40
61.0
 40
62.0
 40
62.0
 40
62.0
 40
63.0
 40
63.0
 40
63.0
 40
64.0
 40
64.0
 40
64.0
 40
65.0
 40
65.0
 40
65.0
 40
66.0
 40
66.0
 40
66.0
 40
67.0
 40
67.0
 40
67.0
 40
68.0
 40
68.0
 40
68.0
 40
69.0
 40
69.0
 40
69.0
 40
70.0
 40
70.0
 40
70.0
 40
71.0
 40
71.0
 40
71.0
 40
72.0
 40
72.0
 40
72.0
 40
73.0
 40
73.0
 40
73.0
 40
74.0
 40
74.0
 40
74.0
 40
75.0
 40
75.0
 40
75.0
 40
76.0
 40
76.0
 40
76.0
 40
77.0
 40
77.0
 40
77.0
 40
78.0
 40
78.0
 40
78.0
 40
79.0
 40
79.0
 40
79.0
 40
80.0
 40
80.0
 40
80.0
 40
81.0
 40
81.0
 40
81.0
 40
82.0
 40
82.0
 40
82.0
 40
83.0
 40
83.0
 40
83.0
 40
84.0
 40
84.0
 40
84.0
 40
85.0
 40
85.0
 40
85.0
 40
86.0
 40
86.0
 40
86.0
 40
87.0
 40
87.0
 40
87.0
 40
88.0
 40
88.0
 40
88.0
 40
89.0
 40
89.0
 40
89.0
 40
90.0
 40
90.0
 40
90.0
 40
91.0
 40
91.0
 40
91.0
 40
92.0
 40
92.0
 40
92.0
 40
93.0
 40
93.0
 40
93.0
 40
94.0
 40
94.0
 40
94.0
 40
95.0
 40
95.0
 40
95.0
 40
96.0
 40
96.0
 40
96.0
 40
97.0
 40
97.0
 40
97.0
 40
98.0
 40
98.0
 40
98.0
 40
99.0
 40
99.0
 40
99.0
 40
100.0
 40
100.0
 40
100.0
 40
101.0
 40
101.0
 40
101.0
 40
102.0
 40
102.0
 40
102.0
 40
103.0
 40
103.0
 40
103.0
 40
104.0
 40
104.0
 40
104.0
 40
105.0
 40
105.0
 40
105.0
 40
106.0
 40
106.0
 40
106.0
 40
107.0
 40
107.0
 40
107.0
 40
108.0
 40
108.0
 40
108.0
 40
109.0
 40
109.0
 40
109.0
 40
110.0
 40
110.0
 40
110.0
 40
111.0
 40
111.0
 40
111.0
 40
112.0
 40
112.0
 40
112.0
 40
113.0
 40
113.0
 40
113.0
 40
114.0
 40
114.0
 40
114.0
 40
115.0
 40
115.0
 40
115.0
 40
116.0
 40
116.0
 40
116.0
 40
117.0
 40
117.0
 40
117.0
 40
118.0
 40
118.0
 40
118.0
 40
119.0
 40
119.0
 40
119.0
 40
120.0
 40
120.0
 40
120.0
 40
121.0
 40
121.0
 40
121.0
 40
122.0
 40
122.0
 40
122.0
 40
123.0
 40
123.0
 40
123.0
 40
124.0
 40
124.0
 40
124.0
 40
125.0
 40
125.0
 40
125.0
 40
126.0
 40
126.0
 40
126.0
 40
127.0
 40
127.0
 40
127.0
 40
128.0
 40
128.0
 40
128.0
 40
129.0
 40
129.0
 40
129.0
 40
130.0
 40
130.0
 40
130.0
 40
131.0
 40
131.0
 40
131.0
 40
132.0
 40
132.0
 40
132.0
 40
133.0
 40
133.0
 40
133.0
 40
134.0
 40
134.0
 40
134.0
 40
135.0
 40
135.0
 40
135.0
 40
136.0
 40
136.0
 40
136.0
 40
137.0
 40
137.0
 40
137.0
 40
138.0
 40
138.0
 40
138.0
 40
139.0
 40
139.0
 40
139.0
 40
140.0
 40
140.0
 40
140.0
 40
141.0
 40
141.0
 40
141.0
 40
142.0
 40
142.0
 40
142.0
 40
143.0
 40
143.0
 40
143.0
 40
144.0
 40
144.0
 40
144.0
 40
145.0
 40
145.0
 40
145.0
 40
146.0
 40
146.0
 40
146.0
 40
147.0
 40
147.0
 40
147.0
 40
148.0
 40
148.0
 40
148.0
 40
149.0
 40
149.0
 40
149.0
 40
150.0
 40
150.0
 40
150.0
 40
151.0
 40
151.0
 40
151.0
 40
152.0
 40
152.0
 40
152.0
 40
153.0
 40
153.0
 40
153.0
 40
154.0
 40
154.0
 40
154.0
 40
155.0
 40
155.0
 40
155.0
 40
155.0
 10
610.1575112968603
 20
-255.7082412524114
 30
0.0
 10
606.9587414845082
 20
-261.4485622259281
 30
0.0
 10
604.2005264465879
 20
-267.3424825968259
 30
0.0
 10
600.7500531637015
 20
-272.9637113049394
 30
0.0
 10
598.2362078369079
 20
-277.0590623945445
 30
0.0
 10
593.7785105455732
 20
-287.6289625416366
 30
0.0
 10
589.2743662342891
 20
-289.8427797433042
 30
0.0
 10
585.0694826416184
 20
-291.9095082904214
 30
0.0
 10
582.3839656825239
 20
-285.0409109274951
 30
0.0
 10
581.1270092857085
 20
-280.996561893644
 30
0.0
 10
578.886323919909
 20
-273.7869930356501
 30
0.0
 10
580.3849984701792
 20
-261.7998882036154
 30
0.0
 10
569.7232313531476
 20
-266.2675536190563
 30
0.0
 10
559.6079440162666
 20
-270.5062242733848
 30
0.0
 10
555.2000374865365
 20
-276.4533493170384
 30
0.0
 10
550.5947831542344
 20
-285.8334103109646
 30
0.0
 10
546.1616892379443
 20
-294.8628120173862
 30
0.0
 10
540.8406874808388
 20
-304.7192884617398
 30
0.0
 10
543.1983400645222
 20
-314.8261874744476
 30
0.0
 10
547.3121874898752
 20
-332.4616273901847
 30
0.0
 10
555.5873035250406
 20
-348.1408314261862
 30
0.0
 10
560.3559919323197
 20
-365.4971011896632
 30
0.0
 10
563.5540824678847
 20
-377.1369730627284
 30
0.0
 10
565.9048570174909
 20
-390.2120225506678
 30
0.0
 10
564.8499416502946
 20
-402.1972486620871
 30
0.0
 10
564.2317836861366
 20
-409.2203362039145
 30
0.0
 10
564.7974792253335
 20
-416.3789180886033
 30
0.0
 10
562.3400274364576
 20
-423.0832400241707
 30
0.0
 10
559.8832013340489
 20
-429.7858549868706
 30
0.0
 10
556.1663754314868
 20
-436.0255228534697
 30
0.0
 10
552.6726389198539
 20
-442.2187786691138
 30
0.0
 10
543.6311323678874
 20
-458.2464220957791
 30
0.0
 10
529.9929110894518
 20
-471.8746009645201
 30
0.0
 10
513.8567330681963
 20
-480.7802088156823
 30
0.0
 10
504.8349784418642
 20
-485.7593438206186
 30
0.0
 10
492.840891262791
 20
-485.1082548757131
 30
0.0
 10
482.8052169438251
 20
-485.7384721242506
 30
0.0
 10
470.7443357262473
 20
-486.4958677046889
 30
0.0
 10
458.804432127954
 20
-486.0194700801221
 30
0.0
 10
446.7600068866977
 20
-485.1871523209666
 30
0.0
 10
440.0586228549437
 20
-484.724059991624
 30
0.0
 10
433.4270222683026
 20
-483.9261730104699
 30
0.0
 10
426.760865141212
 20
-483.1378158283715
 30
0.0
 10
425.1024463186222
 20
-482.9416868795961
 30
0.0
 10
420.0323792095587
 20
-481.627386204389
 30
0.0
 10
418.6948783574335
 20
-482.5510198542361
 30
0.0
 10
417.0625252425307
 20
-483.6782686802526
 30
0.0
 10
417.5770023650457
 20
-485.1899604369955
 30
0.0
 10
416.8413325104848
 20
-487.1726909224162
 30
0.0
 10
413.2022338278548
 20
-496.9805576615181
 30
0.0
 10
394.84516680651
 20
-499.0337351973831
 30
0.0
 10
385.9833201596948
 20
-500.8311619128217
 30
0.0
 10
372.8009992699208
 20
-503.5048998686998
 30
0.0
 10
359.522568733626
 20
-506.2467721801568
 30
0.0
 10
346.2922663605041
 20
-508.6244327861423
 30
0.0
 10
341.165964485007
 20
-509.54569714428
 30
0.0
 10
337.5926650378442
 20
-511.0698241672162
 30
0.0
 10
332.8265596982446
 20
-512.6759440391106
 30
0.0
 10
331.8207066506857
 20
-513.0149043542478
 30
0.0
 10
327.367567472038
 20
-513.8726147268317
 30
0.0
 10
326.5642577691106
 20
-512.7437920150951
 30
0.0
 10
325.9339352976867
 20
-511.8580535273486
 30
0.0
 10
328.0981260789858
 20
-509.5012058797493
 30
0.0
 10
327.4131795181383
 20
-508.7376223010615
 30
0.0
 10
326.2355198634068
 20
-507.4246067558925
 30
0.0
 10
324.0306284150647
 20
-511.5290182259705
 30
0.0
 10
323.4729661701922
 20
-512.076812137173
 30
0.0
 10
323.388380425682
 20
-512.1598996842949
 30
0.0
 10
322.5209481266666
 20
-508.5010195687646
 30
0.0
 10
322.2939237785076
 20
-508.2422104552916
 30
0.0
 10
323.2056781443962
 20
-509.2816884869062
 30
0.0
 10
319.2329410478669
 20
-515.9369081090881
 30
0.0
 10
317.1037623279872
 20
-513.455742130629
 30
0.0
 10
315.8702535621778
 20
-512.0183146590498
 30
0.0
 10
317.7213992365942
 20
-505.8998692379555
 30
0.0
 10
317.8002136878704
 20
-503.9728541439872
 30
0.0
 10
318.0392279284424
 20
-498.1289506237208
 30
0.0
 10
317.8465250626823
 20
-493.2919687912636
 30
0.0
 10
323.6115646616181
 20
-490.1800020504252
 30
0.0
 10
328.397416718728
 20
-487.5966004670172
 30
0.0
 10
334.7276976709236
 20
-485.9107481757546
 30
0.0
 10
339.7948476912852
 20
-483.7208565281362
 30
0.0
 10
343.0626642057587
 20
-482.308590449129
 30
0.0
 10
351.428193208907
 20
-481.700023474732
 30
0.0
 10
351.286511424797
 20
-477.4440430055583
 30
0.0
 10
351.1064241079275
 20
-472.034398370186
 30
0.0
 10
340.5152526134789
 20
-472.0111126676147
 30
0.0
 10
336.6963930688707
 20
-470.9955892385278
 30
0.0
 10
332.7927189603197
 20
-469.9575116474462
 30
0.0
 10
328.9661235655312
 20
-468.6269054967852
 30
0.0
 10
325.1350847336553
 20
-467.3533765353586
 30
0.0
 10
323.304254169554
 20
-466.74476465509
 30
0.0
 10
317.4756701075867
 20
-463.6188925541574
 30
0.0
 10
315.3964518877883
 20
-464.3150863007213
 30
0.0
 10
313.9417946825679
 20
-464.8021555462783
 30
0.0
 10
312.3860591306402
 20
-468.0262948505315
 30
0.0
 10
311.1650833186459
 20
-469.40225088027
 30
0.0
 10
308.1079765292734
 20
-472.8474006359593
 30
0.0
 10
304.5846415936239
 20
-475.8405023490868
 30
0.0
 10
301.5494849051975
 20
-479.3032060612095
 30
0.0
 10
293.5267146532697
 20
-488.4561029903143
 30
0.0
 10
290.1228773788916
 20
-500.6729082994916
 30
0.0
 10
276.4975783057316
 20
-500.7597835487577
 30
0.0
 10
263.9619358073023
 20
-500.839711120323
 30
0.0
 10
252.1793972616742
 20
-500.6994853354845
 30
0.0
 10
239.7675234157541
 20
-502.1724978642142
 30
0.0
 10
235.2248671796306
 20
-502.7116098172191
 30
0.0
 10
230.5970690191552
 20
-502.7980877934897
 30
0.0
 10
226.2094588639957
 20
-502.8386842833497
 30
0.0
 10
223.4328315955754
 20
-502.8643751074578
 30
0.0
 10
212.8223264025783
 20
-505.3788011337565
 30
0.0
 10
211.6563676993865
 20
-504.4343019275511
 30
0.0
 10
212.2483244915438
 20
-501.2667314598912
 30
0.0
 10
214.2207296956312
 20
-498.9264387685798
 30
0.0
 10
217.0483163359804
 20
-497.0983254677594
 30
0.0
 10
214.1333617255168
 20
-497.6717077944468
 30
0.0
 10
211.9340264090324
 20
-499.3408916510816
 30
0.0
 10
209.6087440180663
 20
-501.0435790425709
 30
0.0
 10
208.926572777953
 20
-497.9059935055848
 30
0.0
 10
210.7905108606774
 20
-495.1699112024344
 30
0.0
 10
212.0892049293952
 20
-492.4699065045334
 30
0.0
 10
211.1353742909041
 20
-492.9649094349061
 30
0.0
 10
210.3812621028464
 20
-493.3562637535961
 30
0.0
 10
209.4028923213555
 20
-493.8639838707895
 30
0.0
 10
209.4882343496756
 20
-491.9305467815429
 30
0.0
 10
210.8930371682736
 20
-490.9976856823469
 30
0.0
 10
212.0019847483472
 20
-489.720870688061
 30
0.0
 10
211.1334407172781
 20
-489.6495459092985
 30
0.0
 10
210.3847536195544
 20
-489.5880834386753
 30
0.0
 10
209.6360726797084
 20
-489.5265973740152
 30
0.0
 10
209.5762119496912
 20
-489.4039319672011
 30
0.0
 10
209.5163573775517
 20
-489.2812665603833
 30
0.0
 10
209.4564966475355
 20
-489.1586011535655
 30
0.0
 10
212.9493735388269
 20
-486.216088231371
 30
0.0
 10
216.9116925697545
 20
-483.6226972195764
 30
0.0
 10
221.3629379809263
 20
-482.2803805018393
 30
0.0
 10
223.4667188776793
 20
-481.6459647356169
 30
0.0
 10
225.4771956362738
 20
-482.0290597682597
 30
0.0
 10
227.4465210915341
 20
-481.5939512714122
 30
0.0
 10
230.0082160535931
 20
-481.0279629319284
 30
0.0
 10
229.9508018436281
 20
-480.3968550395821
 30
0.0
 10
232.5077547434239
 20
-479.2503554146897
 30
0.0
 10
240.3734176340904
 20
-475.7235092399333
 30
0.0
 10
250.4573796048753
 20
-476.8360048149952
 30
0.0
 10
258.759631400555
 20
-476.4751774034212
 30
0.0
 10
258.7625132873609
 20
-476.3681784382516
 30
0.0
 10
258.7653828584134
 20
-476.2611794730819
 30
0.0
 10
258.7682647452193
 20
-476.1542041019529
 30
0.0
 10
249.5845142642602
 20
-474.6052044922435
 30
0.0
 10
239.0480908178124
 20
-473.2148937645034
 30
0.0
 10
229.8069790724894
 20
-474.5878382961509
 30
0.0
 10
225.5573798462483
 20
-475.219197831686
 30
0.0
 10
221.4509778698357
 20
-477.244855484927
 30
0.0
 10
217.2275956354179
 20
-477.2344925515026
 30
0.0
 10
215.5121568390468
 20
-477.2302833710273
 30
0.0
 10
214.0471577562976
 20
-476.6173464340445
 30
0.0
 10
212.2817284698003
 20
-476.7793657310394
 30
0.0
 10
210.4155542266344
 20
-476.9506307266201
 30
0.0
 10
209.56183938094
 20
-479.0694232270107
 30
0.0
 10
207.3844631386473
 20
-478.2042901181667
 30
0.0
 10
208.7651393920551
 20
-475.2706781375236
 30
0.0
 10
210.1259749632172
 20
-472.3792287039032
 30
0.0
 10
211.4713542611216
 20
-469.5206221720564
 30
0.0
 10
209.7581649226931
 20
-469.0307863361395
 30
0.0
 10
208.8075117491444
 20
-471.0266296575537
 30
0.0
 10
206.7968353345777
 20
-470.4002079320344
 30
0.0
 10
208.5898945210611
 20
-468.0941663591766
 30
0.0
 10
212.7801023896336
 20
-465.8310560519622
 30
0.0
 10
208.9258292130417
 20
-464.0953145542389
 30
0.0
 10
212.3482740372119
 20
-459.4167858160599
 30
0.0
 10
219.9140039737731
 20
-453.2909697407285
 30
0.0
 10
225.5292516489699
 20
-452.1804428339656
 30
0.0
 10
235.2311475660172
 20
-450.2616999599722
 30
0.0
 10
249.5697331204874
 20
-456.2951724057657
 30
0.0
 10
257.5288155411263
 20
-448.8164405540228
 30
0.0
 10
260.4826903576004
 20
-446.0408394848928
 30
0.0
 10
262.5585325894099
 20
-441.0517608875343
 30
0.0
 10
262.6261874977472
 20
-437.049600793709
 30
0.0
 10
262.7264882872933
 20
-431.116257195079
 30
0.0
 10
260.3792800417705
 20
-429.0443530167795
 30
0.0
 10
256.3667159067581
 20
-425.726864348193
 30
0.0
 10
251.8754343206956
 20
-422.0135839449758
 30
0.0
 10
250.8499789358784
 20
-417.4266172989719
 30
0.0
 10
247.7418213585679
 20
-412.9476735646513
 30
0.0
 10
245.4170540042987
 20
-409.5976174892548
 30
0.0
 10
242.334620177171
 20
-408.2040361666459
 30
0.0
 10
240.3364958657003
 20
-404.0364821285002
 30
0.0
 10
235.4144556404153
 20
-393.7704198524734
 30
0.0
 10
233.3446511810298
 20
-383.3504484875848
 30
0.0
 10
231.7138739542715
 20
-372.6744195612791
 30
0.0
 10
229.718242449454
 20
-359.6098394812379
 30
0.0
 10
234.9528947528997
 20
-348.7323979630037
 30
0.0
 10
240.3015220340621
 20
-337.3855827946118
 30
0.0
 10
242.5831364446194
 20
-332.5452647763232
 30
0.0
 10
241.806106514121
 20
-327.210063201308
 30
0.0
 10
243.5027566293966
 20
-321.9929170751038
 30
0.0
 10
244.3258103535027
 20
-319.4620525735118
 30
0.0
 10
246.0262156484196
 20
-317.292560806005
 30
0.0
 10
246.8765903813674
 20
-314.8368366659797
 30
0.0
 10
248.2992195588786
 20
-310.7285480749015
 30
0.0
 10
247.2241399266268
 20
-311.2968831919188
 30
0.0
 10
245.8625352054396
 20
-307.5121441495394
 30
0.0
 10
244.2867960852927
 20
-303.1321935839878
 30
0.0
 10
246.0334154201528
 20
-300.3034781684819
 30
0.0
 10
240.6005547375262
 20
-301.5558526924433
 30
0.0
 10
235.0343789057251
 20
-302.8389588155096
 30
0.0
 10
230.8412905269925
 20
-305.6798226776482
 30
0.0
 10
224.7807902037912
 20
-305.8681866864754
 30
0.0
 10
212.3982275105172
 20
-306.2530442104526
 30
0.0
 10
200.4388165022256
 20
-313.410033026501
 30
0.0
 10
189.8426705563024
 20
-319.7148326215247
 30
0.0
 10
184.5802313046006
 20
-322.8460300429524
 30
0.0
 10
178.7002676341563
 20
-325.5263655405051
 30
0.0
 10
174.3778670005613
 20
-329.9423972411423
 30
0.0
 10
173.4330799027757
 20
-330.9076501475356
 30
0.0
 10
170.2721687802295
 20
-333.5728064849081
 30
0.0
 10
169.7961551497974
 20
-334.7666445071245
 30
0.0
 10
169.0728915456257
 20
-336.5805833011891
 30
0.0
 10
171.2111564744182
 20
-338.6950966047534
 30
0.0
 10
170.5849477358461
 20
-339.9773068331706
 30
0.0
 10
170.4289299553993
 20
-340.2967651568597
 30
0.0
 10
161.5606012149547
 20
-337.0936326503852
 30
0.0
 10
160.5888993539356
 20
-337.0149499403451
 30
0.0
 10
158.183492424937
 20
-336.8201742138444
 30
0.0
 10
155.9594656474837
 20
-337.6557549737172
 30
0.0
 10
153.4812202074854
 20
-337.0993769606393
 30
0.0
 10
152.4654999505201
 20
-336.871342880846
 30
0.0
 10
147.8446370119373
 20
-334.1973062913403
 30
0.0
 10
147.426223126462
 20
-334.4669648255167
 30
0.0
 10
145.8036382015835
 20
-335.5126306566435
 30
0.0
 10
148.5380585516796
 20
-339.1333178573113
 30
0.0
 10
149.062882359689
 20
-340.0286813776511
 30
0.0
 10
148.9630215950046
 20
-340.1295105017198
 30
0.0
 10
148.8631608303176
 20
-340.2303278287691
 30
0.0
 10
148.7633000656324
 20
-340.3311569528378
 30
0.0
 10
144.5121715840432
 20
-338.0855010409086
 30
0.0
 10
143.2210798654905
 20
-333.8571456167683
 30
0.0
 10
140.662061056375
 20
-330.3922103450495
 30
0.0
 10
138.6137433794502
 20
-327.6187691568957
 30
0.0
 10
135.8246675253704
 20
-325.8604070296024
 30
0.0
 10
133.9152777361642
 20
-322.4006204354482
 30
0.0
 10
130.9033544078502
 20
-316.9430590654101
 30
0.0
 10
127.5866838463126
 20
-303.3535451844764
 30
0.0
 10
132.9583935528954
 20
-298.7211823127782
 30
0.0
 10
135.8322397140264
 20
-296.2428841576329
 30
0.0
 10
141.1133956273843
 20
-296.0404583693035
 30
0.0
 10
144.4361608805684
 20
-294.112464371804
 30
0.0
 10
148.2805740419217
 20
-291.8817905401538
 30
0.0
 10
151.6561068132069
 20
-288.5567336725671
 30
0.0
 10
154.3769555743147
 20
-285.0823225428258
 30
0.0
 10
159.7066960596403
 20
-278.2764647805197
 30
0.0
 10
164.9997622587689
 20
-267.2109538495606
 30
0.0
 10
165.0775494103573
 20
-258.4121829625574
 30
0.0
 10
165.1100192271633
 20
-254.7394108789267
 30
0.0
 10
163.4919564280663
 20
-251.7071475861358
 30
0.0
 10
165.2048168364699
 20
-248.2907532876761
 30
0.0
 10
166.9391843191761
 20
-244.8314619465482
 30
0.0
 10
171.5690511649755
 20
-241.6631804733715
 30
0.0
 10
174.108770499005
 20
-238.7147288473598
 30
0.0
 10
177.409389299838
 20
-234.8829216315926
 30
0.0
 10
180.3951862250588
 20
-231.0080776025734
 30
0.0
 10
184.2955902877102
 20
-227.7320307119753
 30
0.0
 10
185.7719999097862
 20
-226.4919573570214
 30
0.0
 10
187.8634980863671
 20
-225.4687702256006
 30
0.0
 10
189.0334917229566
 20
-223.9121620846281
 30
0.0
 10
190.2855903996924
 20
-222.2463179872311
 30
0.0
 10
189.7738070062642
 20
-220.3068824181091
 30
0.0
 10
190.9320569306692
 20
-218.6866133129133
 30
0.0
 10
193.0627427649588
 20
-215.7060092503234
 30
0.0
 10
194.8635761105888
 20
-214.1925880719473
 30
0.0
 10
196.653959597922
 20
-210.5177050685379
 30
0.0
 10
198.9516319149061
 20
-205.8015774875867
 30
0.0
 10
201.7814916093466
 20
-201.3181934481727
 30
0.0
 10
205.2627802576098
 20
-197.3820694949782
 30
0.0
 10
207.0403115092558
 20
-195.3723012614118
 30
0.0
 10
227.7849459362642
 20
-178.5913024939073
 30
0.0
 10
229.1520377142333
 20
-182.3245862618351
 30
0.0
 10
229.1796327312422
 20
-182.3999515983332
 30
0.0
 10
213.5573129603736
 20
-195.036557012214
 30
0.0
 10
212.1015211026051
 20
-197.105159702699
 30
0.0
 10
209.350472554599
 20
-201.0142531611409
 30
0.0
 10
207.2220161277119
 20
-205.6659119492924
 30
0.0
 10
206.3111758288678
 20
-210.3789996887572
 30
0.0
 10
206.0518841896555
 20
-211.7206885087044
 30
0.0
 10
205.6703851815291
 20
-220.7777179867417
 30
0.0
 10
208.5343328955896
 20
-217.5719210684774
 30
0.0
 10
209.4356314592605
 20
-216.563040863135
 30
0.0
 10
208.7222610922954
 20
-213.9733236073589
 30
0.0
 10
209.0552500148078
 20
-212.50625743605
 30
0.0
 10
209.5814579148891
 20
-210.1879166232047
 30
0.0
 10
211.1073344563574
 20
-207.8480315216129
 30
0.0
 10
212.5398885759796
 20
-206.0082665103027
 30
0.0
 10
215.5029073385949
 20
-202.2029943934294
 30
0.0
 10
219.662392557203
 20
-199.2097540106961
 30
0.0
 10
223.7388991937187
 20
-196.7056732909596
 30
0.0
 10
232.1413142002202
 20
-191.5443115434937
 30
0.0
 10
242.6027756189642
 20
-187.7183677933599
 30
0.0
 10
252.4830666718544
 20
-186.9889654430999
 30
0.0
 10
252.4966509502638
 20
-187.0789354108892
 30
0.0
 10
252.5102352286731
 20
-187.1689053786804
 30
0.0
 10
252.5238195070824
 20
-187.2588753464715
 30
0.0
 10
243.5508835770552
 20
-192.6706920947481
 30
0.0
 10
230.5387210874705
 20
-198.1620259168367
 30
0.0
 10
225.3523500119854
 20
-207.8368924388014
 30
0.0
 10
244.4287660971349
 20
-205.9669223551173
 30
0.0
 10
262.9910026656016
 20
-197.1783287557109
 30
0.0
 10
281.7510903452057
 20
-193.3912712332449
 30
0.0
 10
281.7962152736663
 20
-193.4983240223164
 30
0.0
 10
281.841340202127
 20
-193.6053760740724
 30
0.0
 10
281.8864651305885
 20
-193.7124288631412
 30
0.0
 10
276.7380989837056
 20
-196.6406847987473
 30
0.0
 10
251.5727839201618
 20
-212.2274726145761
 30
0.0
 10
268.073924967669
 20
-217.1021751877961
 30
0.0
 10
282.3516984440221
 20
-221.3200592059166
 30
0.0
 10
299.050568723078
 20
-218.3573213141808
 30
0.0
 10
313.7075695680687
 20
-221.1314519266916
 30
0.0
 10
313.7081976716036
 20
-221.2183871112647
 30
0.0
 10
313.7088257751393
 20
-221.3053252450909
 30
0.0
 10
313.7094415629172
 20
-221.3922633789189
 30
0.0
 10
305.9157068954491
 20
-224.0068012608317
 30
0.0
 10
288.4890284947114
 20
-227.2148165793742
 30
0.0
 10
292.6864942475422
 20
-239.6157008522332
 30
0.0
 10
296.029179842878
 20
-249.4912447325714
 30
0.0
 10
318.9611678928686
 20
-248.2646424739951
 30
0.0
 10
327.3916918080395
 20
-248.7313070754108
 30
0.0
 10
327.431459382823
 20
-248.6407590536728
 30
0.0
 10
327.4712269576039
 20
-248.5502169304455
 30
0.0
 10
327.5109945323848
 20
-248.4596689087084
 30
0.0
 10
326.0555048473734
 20
-247.2741173659088
 30
0.0
 10
320.0468012195324
 20
-244.2190696239168
 30
0.0
 10
319.6182208826067
 20
-242.5768846789497
 30
0.0
 10
319.0608451908511
 20
-240.4411964757546
 30
0.0
 10
319.6104441126827
 20
-241.2764156596049
 30
0.0
 10
321.2755675062754
 20
-239.6922000985951
 30
0.0
 10
325.6645290033575
 20
-235.5164968881872
 30
0.0
 10
333.8992031033113
 20
-233.1782683271322
 30
0.0
 10
339.463799952664
 20
-231.0751337745278
 30
0.0
 10
344.9113672536914
 20
-229.0162304382047
 30
0.0
 10
351.3215276043156
 20
-228.8269598823645
 30
0.0
 10
345.5339570705919
 20
-223.2648108136145
 30
0.0
 10
344.1163865458684
 20
-221.9024535813287
 30
0.0
 10
332.3598560630799
 20
-216.1810414740994
 30
0.0
 10
332.5048671591085
 20
-214.9438909656683
 30
0.0
 10
332.9760520232112
 20
-210.9240151757522
 30
0.0
 10
368.0477875197776
 20
-207.7014632928585
 30
0.0
 10
372.463488271097
 20
-206.9689647778659
 30
0.0
 10
388.1687741268843
 20
-204.363693448402
 30
0.0
 10
403.8445891329648
 20
-201.3110343719018
 30
0.0
 10
419.6441153986198
 20
-199.328416321463
 30
0.0
 10
448.3290368125436
 20
-195.7288626377358
 30
0.0
 10
477.5597064424455
 20
-195.8356115086408
 30
0.0
 10
504.3071636068598
 20
-208.3334329285253
 30
0.0
 10
517.4142025659712
 20
-214.4577321935931
 30
0.0
 10
530.024137039145
 20
-223.3112881117486
 30
0.0
 10
540.9581595485142
 20
-232.7558554366269
 30
0.0
 10
546.4815467629196
 20
-237.5268354088303
 30
0.0
 10
549.7839004359321
 20
-239.7455810457504
 30
0.0
 10
541.1023307905198
 20
-240.4383859014943
 30
0.0
 10
534.14245230085
 20
-240.9937967096739
 30
0.0
 10
527.1636180751011
 20
-241.6545112679778
 30
0.0
 10
520.4796684763114
 20
-243.8064560674466
 30
0.0
 10
509.9553643729978
 20
-247.1948301340726
 30
0.0
 10
497.358312362383
 20
-257.1271293520676
 30
0.0
 10
492.7096262488885
 20
-267.4251062367612
 30
0.0
 10
490.3303590056003
 20
-272.6957651876364
 30
0.0
 10
490.0013996175694
 20
-279.4966034414483
 30
0.0
 10
490.7342731783865
 20
-285.1856808301327
 30
0.0
 10
491.0657806374584
 20
-287.7590736913535
 30
0.0
 10
491.7243273527674
 20
-290.2864141027949
 30
0.0
 10
492.7079869315057
 20
-292.6877718561846
 30
0.0
 10
493.3459744561515
 20
-294.2452581268326
 30
0.0
 10
498.1040162427198
 20
-301.1032715981637
 30
0.0
 10
497.3067649875229
 20
-302.788912542097
 30
0.0
 10
496.0438926243787
 20
-305.4590235621781
 30
0.0
 10
482.502466819562
 20
-302.9403691507141
 30
0.0
 10
478.9337093596387
 20
-303.6056106155775
 30
0.0
 10
473.5427508828325
 20
-304.6105231528982
 30
0.0
 10
469.2310252517964
 20
-307.6905553040033
 30
0.0
 10
468.020761243115
 20
-313.3061033286485
 30
0.0
 10
467.0399441579339
 20
-317.8570322216237
 30
0.0
 10
468.6986100656613
 20
-323.1924576262027
 30
0.0
 10
469.9598073469751
 20
-327.5364927900209
 30
0.0
 10
470.2996779745954
 20
-328.7071343537191
 30
0.0
 10
474.5998833980157
 20
-337.634680940213
 30
0.0
 10
473.9688422857107
 20
-338.6889071659189
 30
0.0
 10
473.615100680312
 20
-339.2798729053375
 30
0.0
 10
457.7233017124199
 20
-340.0270475585203
 30
0.0
 10
455.959132754082
 20
-340.5227911932216
 30
0.0
 10
452.7438232986024
 20
-341.4263153078555
 30
0.0
 10
434.2512928256074
 20
-350.260657368608
 30
0.0
 10
435.2795426948942
 20
-353.9572053102856
 30
0.0
 10
436.0661166791288
 20
-356.784930875092
 30
0.0
 10
451.543185600749
 20
-357.3813296482549
 30
0.0
 10
454.2050688541349
 20
-357.585996468888
 30
0.0
 10
458.780492089536
 20
-357.9377915092773
 30
0.0
 10
465.8602798555112
 20
-355.5860250922306
 30
0.0
 10
469.7929975395928
 20
-357.0939074022826
 30
0.0
 10
467.8004078809099
 20
-360.6903236612761
 30
0.0
 10
463.8297997992795
 20
-363.3340842367925
 30
0.0
 10
461.5174784868759
 20
-366.842469561594
 30
0.0
 10
457.6946130803863
 20
-372.6427382434922
 30
0.0
 10
457.2172375935806
 20
-380.4789053096047
 30
0.0
 10
460.3586745569719
 20
-386.6945187411075
 30
0.0
 10
464.3494669090869
 20
-394.5906576212456
 30
0.0
 10
469.2115108810358
 20
-395.0538695714404
 30
0.0
 10
477.350191555106
 20
-393.9656156764486
 30
0.0
 10
479.2341968290148
 20
-393.7136981778222
 30
0.0
 10
489.8013075935251
 20
-390.7893268192583
 30
0.0
 10
491.1225807414557
 20
-392.1906651004992
 30
0.0
 10
490.2650281306087
 20
-391.2811485632883
 30
0.0
 10
478.3698794619468
 20
-402.5725734704156
 30
0.0
 10
477.2242105630321
 20
-404.7070156880854
 30
0.0
 10
475.7038067162903
 20
-407.5396090852464
 30
0.0
 10
473.3409543900289
 20
-412.5768378211487
 30
0.0
 10
475.423933019194
 20
-415.6877061799369
 30
0.0
 10
478.5067762656345
 20
-420.2918434361563
 30
0.0
 10
482.6255370048075
 20
-416.5629592529149
 30
0.0
 10
486.2915316403742
 20
-415.8573438729272
 30
0.0
 10
490.6033559609623
 20
-415.0274218848026
 30
0.0
 10
489.2806939432739
 20
-415.2121852816308
 30
0.0
 10
488.9812002918115
 20
-420.269027997334
 30
0.0
 10
488.8053027120495
 20
-423.2389954427035
 30
0.0
 10
488.4185971491424
 20
-426.1976981465086
 30
0.0
 10
491.3508039511707
 20
-427.94815517182
 30
0.0
 10
496.6437071253204
 20
-431.1078912242265
 30
0.0
 10
507.4664525476819
 20
-425.6137579977549
 30
0.0
 10
511.5263531882538
 20
-422.1961492573682
 30
0.0
 10
526.2296899566372
 20
-409.8189369309639
 30
0.0
 10
527.1460539550026
 20
-385.5765844114412
 30
0.0
 10
521.4229697182745
 20
-368.8497484111267
 30
0.0
 10
514.9470056106184
 20
-349.9224733454321
 30
0.0
 10
507.3756392991236
 20
-332.3880355519432
 30
0.0
 10
510.0090802098439
 20
-311.7656900492912
 30
0.0
 10
511.0678315280675
 20
-303.4746608498626
 30
0.0
 10
516.6210663382717
 20
-295.5767800139911
 30
0.0
 10
521.0360220627099
 20
-288.6044864295263
 30
0.0
 10
525.5152536748301
 20
-281.5306855169511
 30
0.0
 10
529.4897176012673
 20
-275.5268175660531
 30
0.0
 10
536.5221443088358
 20
-270.9012850056424
 30
0.0
 10
542.1567620197911
 20
-267.195152148337
 30
0.0
 10
548.2964763434866
 20
-263.8476588803296
 30
0.0
 10
553.598678635648
 20
-259.6911083419964
 30
0.0
 10
558.0080145676056
 20
-256.2345017035095
 30
0.0
 10
563.8657502782589
 20
-252.2021617990767
 30
0.0
 10
560.2601408008522
 20
-247.1581753934443
 30
0.0
 10
558.4686644694957
 20
-244.6520298116784
 30
0.0
 10
549.3118848978829
 20
-241.3216480218844
 30
0.0
 10
549.562035617113
 20
-237.9393104914234
 30
0.0
 10
549.7880560185804
 20
-234.8832437773863
 30
0.0
 10
562.5162085201791
 20
-232.5859924703855
 30
0.0
 10
564.5647520122711
 20
-232.0713507795381
 30
0.0
 10
573.3035470092254
 20
-229.8759625680796
 30
0.0
 10
581.1608351175892
 20
-230.4464931400562
 30
0.0
 10
590.1076083236039
 20
-231.0877846789999
 30
0.0
 10
596.4218925407149
 20
-231.5403832807169
 30
0.0
 10
602.7349868054189
 20
-232.0715321312591
 30
0.0
 10
609.0268060727831
 20
-232.7741276405741
 30
0.0
 10
612.1618849799488
 20
-233.1242159485691
 30
0.0
 10
621.0845421868107
 20
-232.8236267945713
 30
0.0
 10
623.5557549378482
 20
-235.1226795498051
 30
0.0
 10
625.7762008674381
 20
-237.1884354545236
 30
0.0
 10
622.9019591427586
 20
-238.8503333828057
 30
0.0
 10
620.96456155339
 20
-241.3480973185997
 30
0.0
 10
617.3556816893015
 20
-246.0007974265163
 30
0.0
 10
613.0335549229821
 20
-250.547486518718
 30
0.0
 10
610.1575112968603
 20
-255.7082412524114
 30
0.0
  0
SPLINE
  5
42
330
1F
100
AcDbEntity
  8
LAYER_1
 62
     7
100
AcDbSpline
210
0.0
220
0.0
230
1.0
 70
    11
 71
     3
 72
    20
 73
    16
 74
     0
 42
0.0000000001
 43
0.0000000001
 12
1.0
 22
0.0
 32
0.0
 13
1.0
 23
0.0
 33
0.0
 40
0.0
 40
0.0
 40
0.0
 40
0.0
 40
1.0
 40
1.0
 40
1.0
 40
2.0
 40
2.0
 40
2.0
 40
3.0
 40
3.0
 40
3.0
 40
4.0
 40
4.0
 40
4.0
 40
5.0
 40
5.0
 40
5.0
 40
5.0
 10
199.8272173028417
 20
-261.8180561245717
 30
0.0
 10
199.3299264804964
 20
-254.6799656646908
 30
0.0
 10
197.0452917429066
 20
-248.3410008181008
 30
0.0
 10
193.3425746905696
 20
-242.2689467111049
 30
0.0
 10
191.4339736604134
 20
-239.1390481636408
 30
0.0
 10
191.0393657166769
 20
-237.749190157976
 30
0.0
 10
187.5253600487476
 20
-238.5744317363506
 30
0.0
 10
184.4544626374482
 20
-239.2956121971174
 30
0.0
 10
181.7060933193161
 20
-242.5860782319278
 30
0.0
 10
180.185995645882
 20
-245.0316231588522
 30
0.0
 10
176.7627182544084
 20
-250.5390183772488
 30
0.0
 10
176.036683546562
 20
-256.9202849664498
 30
0.0
 10
182.86099965004
 20
-259.7037599231853
 30
0.0
 10
185.5031819975538
 20
-260.7814427684571
 30
0.0
 10
199.9487885211129
 20
-263.9515856978733
 30
0.0
 10
199.8272173028417
 20
-261.8180561245717
 30
0.0
  0
POLYLINE
  5
43
330
1F
100
AcDbEntity
  8
LAYER_1
 62
     7
100
AcDb2dPolyline
 66
     1
 10
0.0
 20
0.0
 30
0.0
  0
VERTEX
  5
44
330
43
100
AcDbEntity
  8
LAYER_1
 62
     7
100
AcDbVertex
100
AcDb2dVertex
 10
125.6288171358756
 20
-303.1401560215891
 30
0.0
  0
VERTEX
  5
55
330
43
100
AcDbEntity
  8
0
100
AcDbVertex
100
AcDb2dVertex
 10
125.6288171358756
 20
-303.1401560215891
 30
0.0
  0
SEQEND
  5
45
330
43
100
AcDbEntity
  8
LAYER_1
 62
     7
  0
POLYLINE
  5
46
330
1F
100
AcDbEntity
  8
LAYER_1
 62
     7
100
AcDb2dPolyline
 66
     1
 10
0.0
 20
0.0
 30
0.0
  0
VERTEX
  5
47
330
46
100
AcDbEntity
  8
LAYER_1
 62
     7
100
AcDbVertex
100
AcDb2dVertex
 10
567.7309231190702
 20
-371.1168722200819
 30
0.0
  0
VERTEX
  5
56
330
46
100
AcDbEntity
  8
0
100
AcDbVertex
100
AcDb2dVertex
 10
567.7309231190702
 20
-371.1168722200819
 30
0.0
  0
SEQEND
  5
48
330
46
100
AcDbEntity
  8
LAYER_1
 62
     7
  0
POLYLINE
  5
49
330
1F
100
AcDbEntity
  8
LAYER_1
 62
     7
100
AcDb2dPolyline
 66
     1
 10
0.0
 20
0.0
 30
0.0
  0
VERTEX
  5
4A
330
49
100
AcDbEntity
  8
LAYER_1
 62
     7
100
AcDbVertex
100
AcDb2dVertex
 10
548.4167147925309
 20
-474.076384615013
 30
0.0
  0
VERTEX
  5
57
330
49
100
AcDbEntity
  8
0
100
AcDbVertex
100
AcDb2dVertex
 10
548.4167147925309
 20
-474.076384615013
 30
0.0
  0
SEQEND
  5
4B
330
49
100
AcDbEntity
  8
LAYER_1
 62
     7
  0
POLYLINE
  5
4C
330
1F
100
AcDbEntity
  8
LAYER_1
 62
     7
100
AcDb2dPolyline
 66
     1
 10
0.0
 20
0.0
 30
0.0
  0
VERTEX
  5
4D
330
4C
100
AcDbEntity
  8
LAYER_1
 62
     7
100
AcDbVertex
100
AcDb2dVertex
 10
341.9876677732063
 20
-494.9797354820766
 30
0.0
  0
VERTEX
  5
58
330
4C
100
AcDbEntity
  8
0
100
AcDbVertex
100
AcDb2dVertex
 10
341.9876677732063
 20
-494.9797354820766
 30
0.0
  0
SEQEND
  5
4E
330
4C
100
AcDbEntity
  8
LAYER_1
 62
     7
  0
POLYLINE
  5
4F
330
1F
100
AcDbEntity
  8
LAYER_1
 62
     7
100
AcDb2dPolyline
 66
     1
 10
0.0
 20
0.0
 30
0.0
  0
VERTEX
  5
50
330
4F
100
AcDbEntity
  8
LAYER_1
 62
     7
100
AcDbVertex
100
AcDb2dVertex
 10
538.4877949903585
 20
-463.9006079698902
 30
0.0
  0
VERTEX
  5
59
330
4F
100
AcDbEntity
  8
0
100
AcDbVertex
100
AcDb2dVertex
 10
538.4877949903585
 20
-463.9006079698902
 30
0.0
  0
SEQEND
  5
51
330
4F
100
AcDbEntity
  8
LAYER_1
 62
     7
  0
POLYLINE
  5
52
330
1F
100
AcDbEntity
  8
LAYER_1
 62
     7
100
AcDb2dPolyline
 66
     1
 10
0.0
 20
0.0
 30
0.0
  0
VERTEX
  5
53
330
52
100
AcDbEntity
  8
LAYER_1
 62
     7
100
AcDbVertex
100
AcDb2dVertex
 10
332.3262258918803
 20
-266.9403410193318
 30
0.0
  0
VERTEX
  5
5A
330
52
100
AcDbEntity
  8
0
100
AcDbVertex
100
AcDb2dVertex
 10
332.3262258918803
 20
-266.9403410193318
 30
0.0
  0
SEQEND
  5
54
330
52
100
AcDbEntity
  8
LAYER_1
 62
     7
  0
ENDSEC
  0
SECTION
  2
OBJECTS
  0
DICTIONARY
  5
C
330
0
100
AcDbDictionary
  3
ACAD_GROUP
350
D
  3
ACAD_LAYOUT
350
1A
  3
ACAD_MATERIAL
350
3B
  3
ACAD_MLEADERSTYLE
350
5D
  3
ACAD_MLINESTYLE
350
17
  3
ACAD_PLOTSETTINGS
350
19
  3
ACAD_VISUALSTYLE
350
2A
  3
ACDBVARIABLEDICTIONARY
350
5B
1001
ACAD
1000
TREAT_AS_HARD
1070
     0
  0
DICTIONARY
  5
D
102
{ACAD_REACTORS
330
C
102
}
330
C
100
AcDbDictionary
1001
ACAD
1000
TREAT_AS_HARD
1070
     0
  0
DICTIONARY
  5
1A
102
{ACAD_REACTORS
330
C
102
}
330
C
100
AcDbDictionary
1001
ACAD
1000
TREAT_AS_HARD
1070
     0
  0
DICTIONARY
  5
3B
102
{ACAD_REACTORS
330
C
102
}
330
C
100
AcDbDictionary
  3
BYBLOCK
350
3D
  3
BYLAYER
350
3C
  3
GLOBAL
350
3E
1001
ACAD
1000
TREAT_AS_HARD
1070
     0
  0
DICTIONARY
  5
5D
102
{ACAD_REACTORS
330
C
102
}
330
C
100
AcDbDictionary
1001
ACAD
1000
TREAT_AS_HARD
1070
     0
  0
DICTIONARY
  5
17
102
{ACAD_REACTORS
330
C
102
}
330
C
100
AcDbDictionary
  3
STANDARD
350
18
1001
ACAD
1000
TREAT_AS_HARD
1070
     0
  0
DICTIONARY
  5
19
102
{ACAD_REACTORS
330
C
102
}
330
C
100
AcDbDictionary
1001
ACAD
1000
TREAT_AS_HARD
1070
     0
  0
DICTIONARY
  5
2A
102
{ACAD_REACTORS
330
C
102
}
330
C
100
AcDbDictionary
  3
2DWIREFRAME
350
2F
  3
3DWIREFRAME
350
30
  3
3D_HIDDEN
350
31
  3
BASIC
350
32
  3
BRIGHTEN
350
36
  3
COLORCHANGE
350
3A
  3
CONCEPTUAL
350
34
  3
DIM
350
35
  3
FACEPATTERN
350
39
  3
FLAT
350
2B
  3
FLATWITHEDGES
350
2C
  3
GOURAUD
350
2D
  3
GOURAUDWITHEDGES
350
2E
  3
LINEPATTERN
350
38
  3
REALISTIC
350
33
  3
THICKEN
350
37
1001
ACAD
1000
TREAT_AS_HARD
1070
     0
  0
DICTIONARY
  5
5B
102
{ACAD_REACTORS
330
C
102
}
330
C
100
AcDbDictionary
  3
DIMASSOC
350
5E
  3
HIDETEXT
350
5F
1001
ACAD
1000
TREAT_AS_HARD
1070
     0
  0
MATERIAL
  5
3D
102
{ACAD_REACTORS
330
3B
102
}
102
{ACAD_XDICTIONARY
360
62
102
}
330
3B
100
AcDbMaterial
  1
ByBlock
  0
MATERIAL
  5
3C
102
{ACAD_REACTORS
330
3B
102
}
102
{ACAD_XDICTIONARY
360
60
102
}
330
3B
100
AcDbMaterial
  1
ByLayer
  0
MATERIAL
  5
3E
102
{ACAD_REACTORS
330
3B
102
}
102
{ACAD_XDICTIONARY
360
64
102
}
330
3B
100
AcDbMaterial
  1
Global
  0
MLINESTYLE
  5
18
102
{ACAD_REACTORS
330
17
102
}
330
17
100
AcDbMlineStyle
  2
Standard
 70
     0
  3

 62
   256
 51
90.0
 52
90.0
 71
     2
 49
0.5
 62
   256
  6
BYLAYER
 49
-0.5
 62
   256
  6
BYLAYER
  0
ACAD_PROXY_OBJECT
  5
2F
102
{ACAD_REACTORS
330
2A
102
}
330
2A
100
AcDbZombieObject
 90
      499
 91
      501
 93
      436
310
42CC9915DA5C99599C985B595049028333333333333E3BF0000000000000FB0107901411070040501600405405064090741402480A0340
1001
ACAD
1000
AcDbSavedByObjectVersion
1070
     0
  0
ACAD_PROXY_OBJECT
  5
30
102
{ACAD_REACTORS
330
2A
102
}
330
2A
100
AcDbZombieObject
 90
      499
 91
      501
 93
      436
310
42CCD915DA5C99599C985B595059028333333333333E3BF0000000000000FB0107901411070040501600405405064090741402480A0340
1001
ACAD
1000
AcDbSavedByObjectVersion
1070
     0
  0
ACAD_PROXY_OBJECT
  5
31
102
{ACAD_REACTORS
330
2A
102
}
330
2A
100
AcDbZombieObject
 90
      499
 91
      501
 93
      500
310
424CD108121A5919195B90640502408333333333333E3BF0000000000000FB01079024090700405020000000000001110200405405064090740C02480A0340
1001
ACAD
1000
AcDbSavedByObjectVersion
1070
     0
  0
ACAD_PROXY_OBJECT
  5
32
102
{ACAD_REACTORS
330
2A
102
}
330
2A
100
AcDbZombieObject
 90
      499
 91
      501
 93
      388
310
4150985CDA58D07406404333333333333E3BF0000000000000FB0107A41107004050150841D405064090741402480A0350
1001
ACAD
1000
AcDbSavedByObjectVersion
1070
     0
  0
ACAD_PROXY_OBJECT
  5
36
102
{ACAD_REACTORS
330
2A
102
}
330
2A
100
AcDbZombieObject
 90
      499
 91
      501
 93
      428
310
42109C9A59DA1D195B90C409028333333333333E3BF0000000000000FB010790141107004050150841D405064090741402480A029950
1001
ACAD
1000
AcDbSavedByObjectVersion
1070
     0
  0
ACAD_PROXY_OBJECT
  5
3A
102
{ACAD_REACTORS
330
2A
102
}
330
2A
100
AcDbZombieObject
 90
      499
 91
      501
 93
      452
310
42D0DBDB1BDC90DA185B99D95104090240C333333333333E3BF0000000000000FB0108901411070040501508421405064090741402480A0350
1001
ACAD
1000
AcDbSavedByObjectVersion
1070
     0
  0
ACAD_PROXY_OBJECT
  5
34
102
{ACAD_REACTORS
330
2A
102
}
330
2A
100
AcDbZombieObject
 90
      499
 91
      501
 93
      500
310
4290DBDB98D95C1D1D585B10940D028333333333333E3BF0000000000000FB0107902409070040501000000000000111010841D405064090740C02480A0340
1001
ACAD
1000
AcDbSavedByObjectVersion
1070
     0
  0
ACAD_PROXY_OBJECT
  5
35
102
{ACAD_REACTORS
330
2A
102
}
330
2A
100
AcDbZombieObject
 90
      499
 91
      501
 93
      412
310
40D11A5B50B409028333333333333E3BF0000000000000FB010790141107004050150841D405064090741402480A02677FFFFFD0
1001
ACAD
1000
AcDbSavedByObjectVersion
1070
     0
  0
ACAD_PROXY_OBJECT
  5
39
102
{ACAD_REACTORS
330
2A
102
}
330
2A
100
AcDbZombieObject
 90
      499
 91
      501
 93
      444
310
42D19858D95C185D1D195C9B90F409028333333333333E3BF0000000000000FB010790141107004050150841D405064090741402480A0350
1001
ACAD
1000
AcDbSavedByObjectVersion
1070
     0
  0
ACAD_PROXY_OBJECT
  5
2B
102
{ACAD_REACTORS
330
2A
102
}
330
2A
100
AcDbZombieObject
 90
      499
 91
      501
 93
      388
310
41119B185D240901404333333333333E3BF0000000000000F9010740A41107004050150841D405064090741402480A1B50
1001
ACAD
1000
AcDbSavedByObjectVersion
1070
     0
  0
ACAD_PROXY_OBJECT
  5
2C
102
{ACAD_REACTORS
330
2A
102
}
330
2A
100
AcDbZombieObject
 90
      499
 91
      501
 93
      476
310
43519B185D15DA5D1A115919D95CD0140901404333333333333E3BF0000000000000F9010740901411070040501600405405064090741402480A1B50
1001
ACAD
1000
AcDbSavedByObjectVersion
1070
     0
  0
ACAD_PROXY_OBJECT
  5
2D
102
{ACAD_REACTORS
330
2A
102
}
330
2A
100
AcDbZombieObject
 90
      499
 91
      501
 93
      412
310
41D1DBDD5C985D5910240902404333333333333E3BF0000000000000F9010740A411070040501641D405064090741402480A1B50
1001
ACAD
1000
AcDbSavedByObjectVersion
1070
     0
  0
ACAD_PROXY_OBJECT
  5
2E
102
{ACAD_REACTORS
330
2A
102
}
330
2A
100
AcDbZombieObject
 90
      499
 91
      501
 93
      500
310
4411DBDD5C985D5915DA5D1A115919D95CD0340902404333333333333E3BF0000000000000F9010740901411070040501600405405064090741402480A1B50
1001
ACAD
1000
AcDbSavedByObjectVersion
1070
     0
  0
ACAD_PROXY_OBJECT
  5
38
102
{ACAD_REACTORS
330
2A
102
}
330
2A
100
AcDbZombieObject
 90
      499
 91
      501
 93
      444
310
42D31A5B995C185D1D195C9B90E409028333333333333E3BF0000000000000FB010790141107004050750841D405064090741402483A0350
1001
ACAD
1000
AcDbSavedByObjectVersion
1070
     0
  0
ACAD_PROXY_OBJECT
  5
33
102
{ACAD_REACTORS
330
2A
102
}
330
2A
100
AcDbZombieObject
 90
      499
 91
      501
 93
      420
310
425499585B1A5CDD1A58D08409028333333333333E3BF0000000000000FB01079019070040501508421405064090741402480A1B40
1001
ACAD
1000
AcDbSavedByObjectVersion
1070
     0
  0
ACAD_PROXY_OBJECT
  5
37
102
{ACAD_REACTORS
330
2A
102
}
330
2A
100
AcDbZombieObject
 90
      499
 91
      501
 93
      412
310
41D51A1A58DAD95B90D409028333333333333E3BF0000000000000FB010790141107004050150C41D405064090741402480A0350
1001
ACAD
1000
AcDbSavedByObjectVersion
1070
     0
  0
DICTIONARYVAR
  5
5E
102
{ACAD_REACTORS
330
5B
102
}
330
5B
100
DictionaryVariables
280
     0
  1
2
  0
DICTIONARYVAR
  5
5F
102
{ACAD_REACTORS
330
5B
102
}
330
5B
100
DictionaryVariables
280
     0
  1
1
  0
DICTIONARY
  5
62
330
3D
100
AcDbDictionary
  3
ACAD_XREC_ROUNDTRIP
360
63
1001
ACAD
1000
TREAT_AS_HARD
1070
     1
  0
DICTIONARY
  5
60
330
3C
100
AcDbDictionary
  3
ACAD_XREC_ROUNDTRIP
360
61
1001
ACAD
1000
TREAT_AS_HARD
1070
     1
  0
DICTIONARY
  5
64
330
3E
100
AcDbDictionary
  3
ACAD_XREC_ROUNDTRIP
360
65
1001
ACAD
1000
TREAT_AS_HARD
1070
     1
  0
XRECORD
  5
63
102
{ACAD_REACTORS
330
62
102
}
330
62
100
AcDbXrecord
102
MATERIAL
148
0.0
149
0.0
149
0.0
 93
        0
 94
      127
282
     0
 72
     1
 77
     1
171
     1
175
     1
179
     1
273
     0
  0
XRECORD
  5
61
102
{ACAD_REACTORS
330
60
102
}
330
60
100
AcDbXrecord
102
MATERIAL
148
0.0
149
0.0
149
0.0
 93
        0
 94
      127
282
     0
 72
     1
 77
     1
171
     1
175
     1
179
     1
273
     0
  0
XRECORD
  5
65
102
{ACAD_REACTORS
330
64
102
}
330
64
100
AcDbXrecord
102
MATERIAL
148
0.0
149
0.0
149
0.0
 93
        0
 94
      127
282
     0
 72
     1
 77
     1
171
     1
175
     1
179
     1
273
     0
  0
ENDSEC
  0
EOF
