  0
SECTION
  2
HEADER
  9
$ACADVER
  1
AC1012
  9
$DWGCODEPAGE
  3
undefined
  9
$INSBASE
 10
0.0
 20
0.0
 30
0.0
  9
$EXTMIN
 10
1.000000000000000E+20
 20
1.000000000000000E+20
 30
1.000000000000000E+20
  9
$EXTMAX
 10
-1.000000000000000E+20
 20
-1.000000000000000E+20
 30
-1.000000000000000E+20
  9
$LIMMIN
 10
0.0
 20
0.0
  9
$LIMMAX
 10
12.0
 20
9.0
  9
$ORTHOMODE
 70
     0
  9
$REGENMODE
 70
     1
  9
$FILLMODE
 70
     1
  9
$QTEXTMODE
 70
     0
  9
$MIRRTEXT
 70
     1
  9
$DRAGMODE
 70
     2
  9
$LTSCALE
 40
1.0
  9
$OSMODE
 70
    37
  9
$ATTMODE
 70
     1
  9
$TEXTSIZE
 40
0.2
  9
$TRACEWID
 40
0.05
  9
$TEXTSTYLE
  7
STANDARD
  9
$CLAYER
  8
0
  9
$CELTYPE
  6
BYLAYER
  9
$CECOLOR
 62
   256
  9
$CELTSCALE
 40
1.0
  9
$DELOBJ
 70
     1
  9
$DISPSILH
 70
     0
  9
$DIMSCALE
 40
1.0
  9
$DIMASZ
 40
0.18
  9
$DIMEXO
 40
0.0625
  9
$DIMDLI
 40
0.38
  9
$DIMRND
 40
0.0
  9
$DIMDLE
 40
0.0
  9
$DIMEXE
 40
0.18
  9
$DIMTP
 40
0.0
  9
$DIMTM
 40
0.0
  9
$DIMTXT
 40
0.18
  9
$DIMCEN
 40
0.09
  9
$DIMTSZ
 40
0.0
  9
$DIMTOL
 70
     0
  9
$DIMLIM
 70
     0
  9
$DIMTIH
 70
     1
  9
$DIMTOH
 70
     1
  9
$DIMSE1
 70
     0
  9
$DIMSE2
 70
     0
  9
$DIMTAD
 70
     0
  9
$DIMZIN
 70
     0
  9
$DIMBLK
  1

  9
$DIMASO
 70
     1
  9
$DIMSHO
 70
     1
  9
$DIMPOST
  1

  9
$DIMAPOST
  1

  9
$DIMALT
 70
     0
  9
$DIMALTD
 70
     2
  9
$DIMALTF
 40
25.4
  9
$DIMLFAC
 40
1.0
  9
$DIMTOFL
 70
     0
  9
$DIMTVP
 40
0.0
  9
$DIMTIX
 70
     0
  9
$DIMSOXD
 70
     0
  9
$DIMSAH
 70
     0
  9
$DIMBLK1
  1

  9
$DIMBLK2
  1

  9
$DIMSTYLE
  2
STANDARD
  9
$DIMCLRD
 70
     0
  9
$DIMCLRE
 70
     0
  9
$DIMCLRT
 70
     0
  9
$DIMTFAC
 40
1.0
  9
$DIMGAP
 40
0.09
  9
$DIMJUST
 70
     0
  9
$DIMSD1
 70
     0
  9
$DIMSD2
 70
     0
  9
$DIMTOLJ
 70
     1
  9
$DIMTZIN
 70
     0
  9
$DIMALTZ
 70
     0
  9
$DIMALTTZ
 70
     0
  9
$DIMFIT
 70
     3
  9
$DIMUPT
 70
     0
  9
$DIMUNIT
 70
     2
  9
$DIMDEC
 70
     4
  9
$DIMTDEC
 70
     4
  9
$DIMALTU
 70
     2
  9
$DIMALTTD
 70
     2
  9
$DIMTXSTY
  7
STANDARD
  9
$DIMAUNIT
 70
     0
  9
$LUNITS
 70
     2
  9
$LUPREC
 70
     4
  9
$SKETCHINC
 40
0.1
  9
$FILLETRAD
 40
0.5
  9
$AUNITS
 70
     0
  9
$AUPREC
 70
     0
  9
$MENU
  1
.
  9
$ELEVATION
 40
0.0
  9
$PELEVATION
 40
0.0
  9
$THICKNESS
 40
0.0
  9
$LIMCHECK
 70
     0
  9
$CHAMFERA
 40
0.5
  9
$CHAMFERB
 40
0.5
  9
$CHAMFERC
 40
1.0
  9
$CHAMFERD
 40
0.0
  9
$SKPOLY
 70
     0
  9
$TDCREATE
 40
2458514.025219896
  9
$TDUPDATE
 40
2458514.025219896
  9
$TDINDWG
 40
0.0000000116
  9
$TDUSRTIMER
 40
0.0000000116
  9
$USRTIMER
 70
     1
  9
$ANGBASE
 50
0.0
  9
$ANGDIR
 70
     0
  9
$PDMODE
 70
     0
  9
$PDSIZE
 40
0.0
  9
$PLINEWID
 40
0.0
  9
$COORDS
 70
     1
  9
$SPLFRAME
 70
     0
  9
$SPLINETYPE
 70
     6
  9
$SPLINESEGS
 70
     8
  9
$ATTDIA
 70
     0
  9
$ATTREQ
 70
     1
  9
$HANDLING
 70
     1
  9
$HANDSEED
  5
10C
  9
$SURFTAB1
 70
     6
  9
$SURFTAB2
 70
     6
  9
$SURFTYPE
 70
     6
  9
$SURFU
 70
     6
  9
$SURFV
 70
     6
  9
$UCSNAME
  2

  9
$UCSORG
 10
0.0
 20
0.0
 30
0.0
  9
$UCSXDIR
 10
1.0
 20
0.0
 30
0.0
  9
$UCSYDIR
 10
0.0
 20
1.0
 30
0.0
  9
$PUCSNAME
  2

  9
$PUCSORG
 10
0.0
 20
0.0
 30
0.0
  9
$PUCSXDIR
 10
1.0
 20
0.0
 30
0.0
  9
$PUCSYDIR
 10
0.0
 20
1.0
 30
0.0
  9
$USERI1
 70
     0
  9
$USERI2
 70
     0
  9
$USERI3
 70
     0
  9
$USERI4
 70
     0
  9
$USERI5
 70
     0
  9
$USERR1
 40
0.0
  9
$USERR2
 40
0.0
  9
$USERR3
 40
0.0
  9
$USERR4
 40
0.0
  9
$USERR5
 40
0.0
  9
$WORLDVIEW
 70
     1
  9
$SHADEDGE
 70
     3
  9
$SHADEDIF
 70
    70
  9
$TILEMODE
 70
     1
  9
$MAXACTVP
 70
    64
  9
$PINSBASE
 10
0.0
 20
0.0
 30
0.0
  9
$PLIMCHECK
 70
     0
  9
$PEXTMIN
 10
1.000000000000000E+20
 20
1.000000000000000E+20
 30
1.000000000000000E+20
  9
$PEXTMAX
 10
-1.000000000000000E+20
 20
-1.000000000000000E+20
 30
-1.000000000000000E+20
  9
$PLIMMIN
 10
0.0
 20
0.0
  9
$PLIMMAX
 10
12.0
 20
9.0
  9
$UNITMODE
 70
     0
  9
$VISRETAIN
 70
     1
  9
$PLINEGEN
 70
     0
  9
$PSLTSCALE
 70
     1
  9
$TREEDEPTH
 70
  3020
  9
$PICKSTYLE
 70
     1
  9
$CMLSTYLE
  2
STANDARD
  9
$CMLJUST
 70
     0
  9
$CMLSCALE
 40
1.0
  9
$SAVEIMAGES
 70
     1
  0
ENDSEC
  0
SECTION
  2
CLASSES
  0
CLASS
  1
ACDBDICTIONARYWDFLT
  2
AcDbDictionaryWithDefault
  3
ObjectDBX Classes
 90
    32768
280
     0
281
     0
  0
CLASS
  1
VISUALSTYLE
  2
AcDbVisualStyle
  3
ObjectDBX Classes
 90
     4095
280
     0
281
     0
  0
CLASS
  1
MATERIAL
  2
AcDbMaterial
  3
ObjectDBX Classes
 90
     1153
280
     0
281
     0
  0
CLASS
  1
SUN
  2
AcDbSun
  3
SCENEOE
 90
     1024
280
     0
281
     0
  0
CLASS
  1
DICTIONARYVAR
  2
AcDbDictionaryVar
  3
ObjectDBX Classes
 90
        0
280
     0
281
     0
  0
CLASS
  1
XRECORD
  2
AcDbXrecord
  3
AutoCAD 2000
 90
    32768
280
     0
281
     0
  0
CLASS
  1
LWPOLYLINE
  2
AcDbPolyline
  3
AutoCAD 2000
 90
    32768
280
     0
281
     1
  0
CLASS
  1
HATCH
  2
AcDbHatch
  3
AutoCAD 2000
 90
    32768
280
     0
281
     1
  0
CLASS
  1
ACDBPLACEHOLDER
  2
AcDbPlaceHolder
  3
ObjectDBX Classes
 90
        0
280
     0
281
     0
  0
CLASS
  1
LAYOUT
  2
AcDbLayout
  3
ObjectDBX Classes
 90
        0
280
     0
281
     0
  0
ENDSEC
  0
SECTION
  2
TABLES
  0
TABLE
  2
VPORT
  5
8
330
0
100
AcDbSymbolTable
 70
     1
  0
VPORT
  5
29
330
8
100
AcDbSymbolTableRecord
100
AcDbViewportTableRecord
  2
*ACTIVE
 70
     0
 10
0.0
 20
0.0
 11
1.0
 21
1.0
 12
0.0
 22
0.0
 13
0.0
 23
0.0
 14
0.5
 24
0.5
 15
0.5
 25
0.5
 16
0.0
 26
0.0
 36
1.0
 17
139.699999965075
 27
-107.9499999730125
 37
0.0
 40
215.899999946025
 41
1.294117647058823
 42
50.0
 43
0.0
 44
0.0
 50
0.0
 51
0.0
 71
     0
 72
   100
 73
     1
 74
     3
 75
     0
 76
     0
 77
     0
 78
     0
  0
ENDTAB
  0
TABLE
  2
LTYPE
  5
5
330
0
100
AcDbSymbolTable
 70
     1
  0
LTYPE
  5
14
330
5
100
AcDbSymbolTableRecord
100
AcDbLinetypeTableRecord
  2
BYBLOCK
 70
     0
  3

 72
    65
 73
     0
 40
0.0
  0
LTYPE
  5
15
330
5
100
AcDbSymbolTableRecord
100
AcDbLinetypeTableRecord
  2
BYLAYER
 70
     0
  3

 72
    65
 73
     0
 40
0.0
  0
LTYPE
  5
16
330
5
100
AcDbSymbolTableRecord
100
AcDbLinetypeTableRecord
  2
CONTINUOUS
 70
     0
  3
Solid line
 72
    65
 73
     0
 40
0.0
  0
ENDTAB
  0
TABLE
  2
LAYER
  5
2
330
0
100
AcDbSymbolTable
 70
     2
  0
LAYER
  5
10
330
2
100
AcDbSymbolTableRecord
100
AcDbLayerTableRecord
  2
0
 70
     0
 62
     7
  6
CONTINUOUS
  0
LAYER
  5
40
330
2
100
AcDbSymbolTableRecord
100
AcDbLayerTableRecord
  2
LAYER_1
 70
     0
 62
     7
  6
CONTINUOUS
  0
ENDTAB
  0
TABLE
  2
STYLE
  5
3
330
0
100
AcDbSymbolTable
 70
     1
  0
STYLE
  5
11
330
3
100
AcDbSymbolTableRecord
100
AcDbTextStyleTableRecord
  2
STANDARD
 70
     0
 40
0.0
 41
1.0
 50
0.0
 71
     0
 42
0.2
  3
txt
  4

  0
ENDTAB
  0
TABLE
  2
VIEW
  5
6
330
0
100
AcDbSymbolTable
 70
     0
  0
ENDTAB
  0
TABLE
  2
UCS
  5
7
330
0
100
AcDbSymbolTable
 70
     0
  0
ENDTAB
  0
TABLE
  2
APPID
  5
9
330
0
100
AcDbSymbolTable
 70
     1
  0
APPID
  5
12
330
9
100
AcDbSymbolTableRecord
100
AcDbRegAppTableRecord
  2
ACAD
 70
     0
  0
ENDTAB
  0
TABLE
  2
DIMSTYLE
  5
A
330
0
100
AcDbSymbolTable
 70
     1
  0
DIMSTYLE
105
27
330
A
100
AcDbSymbolTableRecord
100
AcDbDimStyleTableRecord
  2
STANDARD
 70
     0
  3

  4

  5

  6

  7

 40
1.0
 41
0.18
 42
0.0625
 43
0.38
 44
0.18
 45
0.0
 46
0.0
 47
0.0
 48
0.0
140
0.18
141
0.09
142
0.0
143
25.4
144
1.0
145
0.0
146
1.0
147
0.09
 71
     0
 72
     0
 73
     1
 74
     1
 75
     0
 76
     0
 77
     0
 78
     0
170
     0
171
     2
172
     0
173
     0
174
     0
175
     0
176
     0
177
     0
178
     0
270
     2
271
     4
272
     4
273
     2
274
     2
340
11
275
     0
280
     0
281
     0
282
     0
283
     1
284
     0
285
     0
286
     0
287
     3
288
     0
  0
ENDTAB
  0
TABLE
  2
BLOCK_RECORD
  5
1
330
0
100
AcDbSymbolTable
 70
     1
  0
BLOCK_RECORD
  5
1F
330
1
100
AcDbSymbolTableRecord
100
AcDbBlockTableRecord
  2
*MODEL_SPACE
  0
BLOCK_RECORD
  5
1B
330
1
100
AcDbSymbolTableRecord
100
AcDbBlockTableRecord
  2
*PAPER_SPACE
  0
ENDTAB
  0
ENDSEC
  0
SECTION
  2
BLOCKS
  0
BLOCK
  5
20
330
1F
100
AcDbEntity
  8
0
100
AcDbBlockBegin
  2
*MODEL_SPACE
 70
     0
 10
0.0
 20
0.0
 30
0.0
  3
*MODEL_SPACE
  1

  0
ENDBLK
  5
21
330
1F
100
AcDbEntity
  8
0
100
AcDbBlockEnd
  0
BLOCK
  5
1C
330
1B
100
AcDbEntity
 67
     1
  8
0
100
AcDbBlockBegin
  2
*PAPER_SPACE
 70
     0
 10
0.0
 20
0.0
 30
0.0
  3
*PAPER_SPACE
  1

  0
ENDBLK
  5
1D
330
1B
100
AcDbEntity
 67
     1
  8
0
100
AcDbBlockEnd
  0
ENDSEC
  0
SECTION
  2
ENTITIES
  0
POLYLINE
  5
41
330
1F
100
AcDbEntity
  8
LAYER_1
 62
     7
100
AcDb2dPolyline
 66
     1
 10
0.0
 20
0.0
 30
0.0
  0
VERTEX
  5
42
330
41
100
AcDbEntity
  8
LAYER_1
 62
     7
100
AcDbVertex
100
AcDb2dVertex
 10
139.9592531654103
 20
-34.1299500615177
 30
0.0
  0
VERTEX
  5
43
330
41
100
AcDbEntity
  8
LAYER_1
 62
     7
100
AcDbVertex
100
AcDb2dVertex
 10
137.6022218003974
 20
-38.45329474784639
 30
0.0
  0
VERTEX
  5
44
330
41
100
AcDbEntity
  8
LAYER_1
 62
     7
100
AcDbVertex
100
AcDb2dVertex
 10
134.7269973088475
 20
-42.68233230063615
 30
0.0
  0
VERTEX
  5
45
330
41
100
AcDbEntity
  8
LAYER_1
 62
     7
100
AcDbVertex
100
AcDb2dVertex
 10
132.6856833218015
 20
-40.46591925491757
 30
0.0
  0
VERTEX
  5
46
330
41
100
AcDbEntity
  8
LAYER_1
 62
     7
100
AcDbVertex
100
AcDb2dVertex
 10
129.8284755738399
 20
-36.77557761455743
 30
0.0
  0
VERTEX
  5
47
330
41
100
AcDbEntity
  8
LAYER_1
 62
     7
100
AcDbVertex
100
AcDb2dVertex
 10
125.0358576604053
 20
-41.6777878878751
 30
0.0
  0
VERTEX
  5
48
330
41
100
AcDbEntity
  8
LAYER_1
 62
     7
100
AcDbVertex
100
AcDb2dVertex
 10
123.1826845603795
 20
-48.94190580005506
 30
0.0
  0
VERTEX
  5
49
330
41
100
AcDbEntity
  8
LAYER_1
 62
     7
100
AcDbVertex
100
AcDb2dVertex
 10
127.4815209761193
 20
-61.63746407202451
 30
0.0
  0
VERTEX
  5
4A
330
41
100
AcDbEntity
  8
LAYER_1
 62
     7
100
AcDbVertex
100
AcDb2dVertex
 10
128.6074766049548
 20
-70.83265765871779
 30
0.0
  0
VERTEX
  5
4B
330
41
100
AcDbEntity
  8
LAYER_1
 62
     7
100
AcDbVertex
100
AcDb2dVertex
 10
127.9786195383832
 20
-76.06562665342429
 30
0.0
  0
VERTEX
  5
4C
330
41
100
AcDbEntity
  8
LAYER_1
 62
     7
100
AcDbVertex
100
AcDb2dVertex
 10
125.5564628166777
 20
-80.86002107263202
 30
0.0
  0
VERTEX
  5
4D
330
41
100
AcDbEntity
  8
LAYER_1
 62
     7
100
AcDbVertex
100
AcDb2dVertex
 10
115.8311676031628
 20
-90.52155759489996
 30
0.0
  0
VERTEX
  5
4E
330
41
100
AcDbEntity
  8
LAYER_1
 62
     7
100
AcDbVertex
100
AcDb2dVertex
 10
108.051234235362
 20
-91.76384663502802
 30
0.0
  0
VERTEX
  5
4F
330
41
100
AcDbEntity
  8
LAYER_1
 62
     7
100
AcDbVertex
100
AcDb2dVertex
 10
99.02013471192461
 20
-91.62571388438532
 30
0.0
  0
VERTEX
  5
50
330
41
100
AcDbEntity
  8
LAYER_1
 62
     7
100
AcDbVertex
100
AcDb2dVertex
 10
94.00936520328318
 20
-91.11225420992875
 30
0.0
  0
VERTEX
  5
51
330
41
100
AcDbEntity
  8
LAYER_1
 62
     7
100
AcDbVertex
100
AcDb2dVertex
 10
91.98843844814446
 20
-90.96523293209535
 30
0.0
  0
VERTEX
  5
52
330
41
100
AcDbEntity
  8
LAYER_1
 62
     7
100
AcDbVertex
100
AcDb2dVertex
 10
91.52403396864477
 20
-92.12318904651889
 30
0.0
  0
VERTEX
  5
53
330
41
100
AcDbEntity
  8
LAYER_1
 62
     7
100
AcDbVertex
100
AcDb2dVertex
 10
83.79258282177179
 20
-95.54530839765721
 30
0.0
  0
VERTEX
  5
54
330
41
100
AcDbEntity
  8
LAYER_1
 62
     7
100
AcDbVertex
100
AcDb2dVertex
 10
73.84801996633253
 20
-97.49790639219026
 30
0.0
  0
VERTEX
  5
55
330
41
100
AcDbEntity
  8
LAYER_1
 62
     7
100
AcDbVertex
100
AcDb2dVertex
 10
70.47419756863967
 20
-98.51300940554182
 30
0.0
  0
VERTEX
  5
56
330
41
100
AcDbEntity
  8
LAYER_1
 62
     7
100
AcDbVertex
100
AcDb2dVertex
 10
68.90518265991284
 20
-98.53000866349086
 30
0.0
  0
VERTEX
  5
57
330
41
100
AcDbEntity
  8
LAYER_1
 62
     7
100
AcDbVertex
100
AcDb2dVertex
 10
69.11787934806982
 20
-97.52626593767835
 30
0.0
  0
VERTEX
  5
58
330
41
100
AcDbEntity
  8
LAYER_1
 62
     7
100
AcDbVertex
100
AcDb2dVertex
 10
68.13066193880844
 20
-98.36289737053119
 30
0.0
  0
VERTEX
  5
59
330
41
100
AcDbEntity
  8
LAYER_1
 62
     7
100
AcDbVertex
100
AcDb2dVertex
 10
67.83525377875648
 20
-97.40214088258377
 30
0.0
  0
VERTEX
  5
5A
330
41
100
AcDbEntity
  8
LAYER_1
 62
     7
100
AcDbVertex
100
AcDb2dVertex
 10
66.53486283837735
 20
-98.70838721473014
 30
0.0
  0
VERTEX
  5
5B
330
41
100
AcDbEntity
  8
LAYER_1
 62
     7
100
AcDbVertex
100
AcDb2dVertex
 10
66.70935818836595
 20
-96.33245695822043
 30
0.0
  0
VERTEX
  5
5C
330
41
100
AcDbEntity
  8
LAYER_1
 62
     7
100
AcDbVertex
100
AcDb2dVertex
 10
68.16538768372378
 20
-92.87666852553862
 30
0.0
  0
VERTEX
  5
5D
330
41
100
AcDbEntity
  8
LAYER_1
 62
     7
100
AcDbVertex
100
AcDb2dVertex
 10
72.2200967400799
 20
-91.25833460667094
 30
0.0
  0
VERTEX
  5
5E
330
41
100
AcDbEntity
  8
LAYER_1
 62
     7
100
AcDbVertex
100
AcDb2dVertex
 10
75.09932420755037
 20
-89.68568382942111
 30
0.0
  0
VERTEX
  5
5F
330
41
100
AcDbEntity
  8
LAYER_1
 62
     7
100
AcDbVertex
100
AcDb2dVertex
 10
71.44378132897428
 20
-88.07002872157096
 30
0.0
  0
VERTEX
  5
60
330
41
100
AcDbEntity
  8
LAYER_1
 62
     7
100
AcDbVertex
100
AcDb2dVertex
 10
68.54710446036947
 20
-87.15747514355803
 30
0.0
  0
VERTEX
  5
61
330
41
100
AcDbEntity
  8
LAYER_1
 62
     7
100
AcDbVertex
100
AcDb2dVertex
 10
66.10709752702513
 20
-86.39623387331449
 30
0.0
  0
VERTEX
  5
62
330
41
100
AcDbEntity
  8
LAYER_1
 62
     7
100
AcDbVertex
100
AcDb2dVertex
 10
65.04693140210318
 20
-87.67081902726929
 30
0.0
  0
VERTEX
  5
63
330
41
100
AcDbEntity
  8
LAYER_1
 62
     7
100
AcDbVertex
100
AcDb2dVertex
 10
62.63775065071798
 20
-90.15149569622055
 30
0.0
  0
VERTEX
  5
64
330
41
100
AcDbEntity
  8
LAYER_1
 62
     7
100
AcDbVertex
100
AcDb2dVertex
 10
56.36101481277817
 20
-95.52742460370348
 30
0.0
  0
VERTEX
  5
65
330
41
100
AcDbEntity
  8
LAYER_1
 62
     7
100
AcDbVertex
100
AcDb2dVertex
 10
47.15832794572973
 20
-95.8813790836705
 30
0.0
  0
VERTEX
  5
66
330
41
100
AcDbEntity
  8
LAYER_1
 62
     7
100
AcDbVertex
100
AcDb2dVertex
 10
43.76136535019901
 20
-96.04829157614405
 30
0.0
  0
VERTEX
  5
67
330
41
100
AcDbEntity
  8
LAYER_1
 62
     7
100
AcDbVertex
100
AcDb2dVertex
 10
40.11509960579212
 20
-96.44807234377733
 30
0.0
  0
VERTEX
  5
68
330
41
100
AcDbEntity
  8
LAYER_1
 62
     7
100
AcDbVertex
100
AcDb2dVertex
 10
41.46604816969745
 20
-94.6100491111489
 30
0.0
  0
VERTEX
  5
69
330
41
100
AcDbEntity
  8
LAYER_1
 62
     7
100
AcDbVertex
100
AcDb2dVertex
 10
39.60206907487711
 20
-95.59852934535611
 30
0.0
  0
VERTEX
  5
6A
330
41
100
AcDbEntity
  8
LAYER_1
 62
     7
100
AcDbVertex
100
AcDb2dVertex
 10
40.22354663926624
 20
-93.45040231683669
 30
0.0
  0
VERTEX
  5
6B
330
41
100
AcDbEntity
  8
LAYER_1
 62
     7
100
AcDbVertex
100
AcDb2dVertex
 10
39.55049309135214
 20
-93.79968732358448
 30
0.0
  0
VERTEX
  5
6C
330
41
100
AcDbEntity
  8
LAYER_1
 62
     7
100
AcDbVertex
100
AcDb2dVertex
 10
40.20169369031044
 20
-92.76163351752298
 30
0.0
  0
VERTEX
  5
6D
330
41
100
AcDbEntity
  8
LAYER_1
 62
     7
100
AcDbVertex
100
AcDb2dVertex
 10
39.6089162499311
 20
-92.71295848882666
 30
0.0
  0
VERTEX
  5
6E
330
41
100
AcDbEntity
  8
LAYER_1
 62
     7
100
AcDbVertex
100
AcDb2dVertex
 10
39.56392361384999
 20
-92.62075732018702
 30
0.0
  0
VERTEX
  5
6F
330
41
100
AcDbEntity
  8
LAYER_1
 62
     7
100
AcDbVertex
100
AcDb2dVertex
 10
42.54707328842277
 20
-90.89742445150729
 30
0.0
  0
VERTEX
  5
70
330
41
100
AcDbEntity
  8
LAYER_1
 62
     7
100
AcDbVertex
100
AcDb2dVertex
 10
44.07131033528504
 20
-90.72544013830871
 30
0.0
  0
VERTEX
  5
71
330
41
100
AcDbEntity
  8
LAYER_1
 62
     7
100
AcDbVertex
100
AcDb2dVertex
 10
45.33939851535524
 20
-90.13825400757901
 30
0.0
  0
VERTEX
  5
72
330
41
100
AcDbEntity
  8
LAYER_1
 62
     7
100
AcDbVertex
100
AcDb2dVertex
 10
51.9167859238847
 20
-89.4429353015622
 30
0.0
  0
VERTEX
  5
73
330
41
100
AcDbEntity
  8
LAYER_1
 62
     7
100
AcDbVertex
100
AcDb2dVertex
 10
51.91894900171857
 20
-89.36251568893302
 30
0.0
  0
VERTEX
  5
74
330
41
100
AcDbEntity
  8
LAYER_1
 62
     7
100
AcDbVertex
100
AcDb2dVertex
 10
44.66272125820981
 20
-88.97006394680491
 30
0.0
  0
VERTEX
  5
75
330
41
100
AcDbEntity
  8
LAYER_1
 62
     7
100
AcDbVertex
100
AcDb2dVertex
 10
41.51096645962131
 20
-89.63318112510225
 30
0.0
  0
VERTEX
  5
76
330
41
100
AcDbEntity
  8
LAYER_1
 62
     7
100
AcDbVertex
100
AcDb2dVertex
 10
40.27178326352923
 20
-89.51914945196515
 30
0.0
  0
VERTEX
  5
77
330
41
100
AcDbEntity
  8
LAYER_1
 62
     7
100
AcDbVertex
100
AcDb2dVertex
 10
39.04477721950241
 20
-89.87616315595284
 30
0.0
  0
VERTEX
  5
78
330
41
100
AcDbEntity
  8
LAYER_1
 62
     7
100
AcDbVertex
100
AcDb2dVertex
 10
40.0687446318165
 20
-87.70047686294733
 30
0.0
  0
VERTEX
  5
79
330
41
100
AcDbEntity
  8
LAYER_1
 62
     7
100
AcDbVertex
100
AcDb2dVertex
 10
38.89754752732168
 20
-87.92085639535016
 30
0.0
  0
VERTEX
  5
7A
330
41
100
AcDbEntity
  8
LAYER_1
 62
     7
100
AcDbVertex
100
AcDb2dVertex
 10
39.43096529824678
 20
-86.34117023207668
 30
0.0
  0
VERTEX
  5
7B
330
41
100
AcDbEntity
  8
LAYER_1
 62
     7
100
AcDbVertex
100
AcDb2dVertex
 10
43.59093995815044
 20
-83.3559083305855
 30
0.0
  0
VERTEX
  5
7C
330
41
100
AcDbEntity
  8
LAYER_1
 62
     7
100
AcDbVertex
100
AcDb2dVertex
 10
51.60840596150133
 20
-82.51306015910649
 30
0.0
  0
VERTEX
  5
7D
330
41
100
AcDbEntity
  8
LAYER_1
 62
     7
100
AcDbVertex
100
AcDb2dVertex
 10
52.88554856589362
 20
-79.56488755078159
 30
0.0
  0
VERTEX
  5
7E
330
41
100
AcDbEntity
  8
LAYER_1
 62
     7
100
AcDbVertex
100
AcDb2dVertex
 10
51.31724279620141
 20
-76.7279846847687
 30
0.0
  0
VERTEX
  5
7F
330
41
100
AcDbEntity
  8
LAYER_1
 62
     7
100
AcDbVertex
100
AcDb2dVertex
 10
49.15628213262362
 20
-73.52616830993665
 30
0.0
  0
VERTEX
  5
80
330
41
100
AcDbEntity
  8
LAYER_1
 62
     7
100
AcDbVertex
100
AcDb2dVertex
 10
47.30088355335209
 20
-71.29347618233524
 30
0.0
  0
VERTEX
  5
81
330
41
100
AcDbEntity
  8
LAYER_1
 62
     7
100
AcDbVertex
100
AcDb2dVertex
 10
45.14049229715798
 20
-63.43573564327421
 30
0.0
  0
VERTEX
  5
82
330
41
100
AcDbEntity
  8
LAYER_1
 62
     7
100
AcDbVertex
100
AcDb2dVertex
 10
47.29212088686354
 20
-54.59414486322278
 30
0.0
  0
VERTEX
  5
83
330
41
100
AcDbEntity
  8
LAYER_1
 62
     7
100
AcDbVertex
100
AcDb2dVertex
 10
48.09418774075377
 20
-50.73752436292411
 30
0.0
  0
VERTEX
  5
84
330
41
100
AcDbEntity
  8
LAYER_1
 62
     7
100
AcDbVertex
100
AcDb2dVertex
 10
48.93949917995168
 20
-48.94457394676353
 30
0.0
  0
VERTEX
  5
85
330
41
100
AcDbEntity
  8
LAYER_1
 62
     7
100
AcDbVertex
100
AcDb2dVertex
 10
48.68542843930292
 20
-47.10937789742133
 30
0.0
  0
VERTEX
  5
86
330
41
100
AcDbEntity
  8
LAYER_1
 62
     7
100
AcDbVertex
100
AcDb2dVertex
 10
47.36704329961848
 20
-45.61703367597338
 30
0.0
  0
VERTEX
  5
87
330
41
100
AcDbEntity
  8
LAYER_1
 62
     7
100
AcDbVertex
100
AcDb2dVertex
 10
43.40341352148511
 20
-46.6974856255299
 30
0.0
  0
VERTEX
  5
88
330
41
100
AcDbEntity
  8
LAYER_1
 62
     7
100
AcDbVertex
100
AcDb2dVertex
 10
34.64969464460304
 20
-50.16675206362367
 30
0.0
  0
VERTEX
  5
89
330
41
100
AcDbEntity
  8
LAYER_1
 62
     7
100
AcDbVertex
100
AcDb2dVertex
 10
30.77500006518576
 20
-52.7292604750262
 30
0.0
  0
VERTEX
  5
8A
330
41
100
AcDbEntity
  8
LAYER_1
 62
     7
100
AcDbVertex
100
AcDb2dVertex
 10
29.62705570180501
 20
-53.93797189925466
 30
0.0
  0
VERTEX
  5
8B
330
41
100
AcDbEntity
  8
LAYER_1
 62
     7
100
AcDbVertex
100
AcDb2dVertex
 10
29.82468707464639
 20
-55.24349931815361
 30
0.0
  0
VERTEX
  5
8C
330
41
100
AcDbEntity
  8
LAYER_1
 62
     7
100
AcDbVertex
100
AcDb2dVertex
 10
27.32018487768169
 20
-54.50128308801789
 30
0.0
  0
VERTEX
  5
8D
330
41
100
AcDbEntity
  8
LAYER_1
 62
     7
100
AcDbVertex
100
AcDb2dVertex
 10
25.53936136047867
 20
-54.52243621270598
 30
0.0
  0
VERTEX
  5
8E
330
41
100
AcDbEntity
  8
LAYER_1
 62
     7
100
AcDbVertex
100
AcDb2dVertex
 10
24.02228652123707
 20
-53.8628873866256
 30
0.0
  0
VERTEX
  5
8F
330
41
100
AcDbEntity
  8
LAYER_1
 62
     7
100
AcDbVertex
100
AcDb2dVertex
 10
24.43235022728281
 20
-55.25637117056979
 30
0.0
  0
VERTEX
  5
90
330
41
100
AcDbEntity
  8
LAYER_1
 62
     7
100
AcDbVertex
100
AcDb2dVertex
 10
24.35729011502935
 20
-55.33215619217453
 30
0.0
  0
VERTEX
  5
91
330
41
100
AcDbEntity
  8
LAYER_1
 62
     7
100
AcDbVertex
100
AcDb2dVertex
 10
22.32753094204066
 20
-52.84196080058681
 30
0.0
  0
VERTEX
  5
92
330
41
100
AcDbEntity
  8
LAYER_1
 62
     7
100
AcDbVertex
100
AcDb2dVertex
 10
20.63712959519549
 20
-50.83967412477811
 30
0.0
  0
VERTEX
  5
93
330
41
100
AcDbEntity
  8
LAYER_1
 62
     7
100
AcDbVertex
100
AcDb2dVertex
 10
20.39738300257436
 20
-44.90680920303149
 30
0.0
  0
VERTEX
  5
94
330
41
100
AcDbEntity
  8
LAYER_1
 62
     7
100
AcDbVertex
100
AcDb2dVertex
 10
23.27312873630149
 20
-43.75209848461914
 30
0.0
  0
VERTEX
  5
95
330
41
100
AcDbEntity
  8
LAYER_1
 62
     7
100
AcDbVertex
100
AcDb2dVertex
 10
25.76378716439771
 20
-41.48960342802184
 30
0.0
  0
VERTEX
  5
96
330
41
100
AcDbEntity
  8
LAYER_1
 62
     7
100
AcDbVertex
100
AcDb2dVertex
 10
28.44481268041019
 20
-34.80742056734084
 30
0.0
  0
VERTEX
  5
97
330
41
100
AcDbEntity
  8
LAYER_1
 62
     7
100
AcDbVertex
100
AcDb2dVertex
 10
28.47669943566796
 20
-32.27150418431925
 30
0.0
  0
VERTEX
  5
98
330
41
100
AcDbEntity
  8
LAYER_1
 62
     7
100
AcDbVertex
100
AcDb2dVertex
 10
30.70757814468331
 20
-29.87223866131905
 30
0.0
  0
VERTEX
  5
99
330
41
100
AcDbEntity
  8
LAYER_1
 62
     7
100
AcDbVertex
100
AcDb2dVertex
 10
33.25987797018922
 20
-27.12053213112183
 30
0.0
  0
VERTEX
  5
9A
330
41
100
AcDbEntity
  8
LAYER_1
 62
     7
100
AcDbVertex
100
AcDb2dVertex
 10
34.44695551325625
 20
-26.16346699860192
 30
0.0
  0
VERTEX
  5
9B
330
41
100
AcDbEntity
  8
LAYER_1
 62
     7
100
AcDbVertex
100
AcDb2dVertex
 10
34.92263955880387
 20
-24.85420979224492
 30
0.0
  0
VERTEX
  5
9C
330
41
100
AcDbEntity
  8
LAYER_1
 62
     7
100
AcDbVertex
100
AcDb2dVertex
 10
36.35625785009623
 20
-22.80749614469353
 30
0.0
  0
VERTEX
  5
9D
330
41
100
AcDbEntity
  8
LAYER_1
 62
     7
100
AcDbVertex
100
AcDb2dVertex
 10
38.51319121333249
 20
-19.51637280318969
 30
0.0
  0
VERTEX
  5
9E
330
41
100
AcDbEntity
  8
LAYER_1
 62
     7
100
AcDbVertex
100
AcDb2dVertex
 10
44.49862620704896
 20
-15.74373201581481
 30
0.0
  0
VERTEX
  5
9F
330
41
100
AcDbEntity
  8
LAYER_1
 62
     7
100
AcDbVertex
100
AcDb2dVertex
 10
40.22663244694596
 20
-19.44699326873494
 30
0.0
  0
VERTEX
  5
A0
330
41
100
AcDbEntity
  8
LAYER_1
 62
     7
100
AcDbVertex
100
AcDb2dVertex
 10
38.77586591349237
 20
-22.77274361898343
 30
0.0
  0
VERTEX
  5
A1
330
41
100
AcDbEntity
  8
LAYER_1
 62
     7
100
AcDbVertex
100
AcDb2dVertex
 10
39.33287619846427
 20
-24.57492451185571
 30
0.0
  0
VERTEX
  5
A2
330
41
100
AcDbEntity
  8
LAYER_1
 62
     7
100
AcDbVertex
100
AcDb2dVertex
 10
39.46339158011054
 20
-23.30572640358523
 30
0.0
  0
VERTEX
  5
A3
330
41
100
AcDbEntity
  8
LAYER_1
 62
     7
100
AcDbVertex
100
AcDb2dVertex
 10
40.336465078622
 20
-21.67765979890185
 30
0.0
  0
VERTEX
  5
A4
330
41
100
AcDbEntity
  8
LAYER_1
 62
     7
100
AcDbVertex
100
AcDb2dVertex
 10
43.14236853410332
 20
-19.34690225700391
 30
0.0
  0
VERTEX
  5
A5
330
41
100
AcDbEntity
  8
LAYER_1
 62
     7
100
AcDbVertex
100
AcDb2dVertex
 10
50.34419748174928
 20
-16.91238861496585
 30
0.0
  0
VERTEX
  5
A6
330
41
100
AcDbEntity
  8
LAYER_1
 62
     7
100
AcDbVertex
100
AcDb2dVertex
 10
50.35440807312095
 20
-16.98001433266462
 30
0.0
  0
VERTEX
  5
A7
330
41
100
AcDbEntity
  8
LAYER_1
 62
     7
100
AcDbVertex
100
AcDb2dVertex
 10
43.54661738971657
 20
-22.13582061209248
 30
0.0
  0
VERTEX
  5
A8
330
41
100
AcDbEntity
  8
LAYER_1
 62
     7
100
AcDbVertex
100
AcDb2dVertex
 10
57.67727819426101
 20
-18.51648138287186
 30
0.0
  0
VERTEX
  5
A9
330
41
100
AcDbEntity
  8
LAYER_1
 62
     7
100
AcDbVertex
100
AcDb2dVertex
 10
57.71119624211889
 20
-18.59694717884626
 30
0.0
  0
VERTEX
  5
AA
330
41
100
AcDbEntity
  8
LAYER_1
 62
     7
100
AcDbVertex
100
AcDb2dVertex
 10
54.25047497887461
 20
-24.45723004447855
 30
0.0
  0
VERTEX
  5
AB
330
41
100
AcDbEntity
  8
LAYER_1
 62
     7
100
AcDbVertex
100
AcDb2dVertex
 10
65.68394936701768
 20
-25.4667622175129
 30
0.0
  0
VERTEX
  5
AC
330
41
100
AcDbEntity
  8
LAYER_1
 62
     7
100
AcDbVertex
100
AcDb2dVertex
 10
65.68441839388007
 20
-25.5321083253087
 30
0.0
  0
VERTEX
  5
AD
330
41
100
AcDbEntity
  8
LAYER_1
 62
     7
100
AcDbVertex
100
AcDb2dVertex
 10
60.41713519091802
 20
-30.0979765008528
 30
0.0
  0
VERTEX
  5
AE
330
41
100
AcDbEntity
  8
LAYER_1
 62
     7
100
AcDbVertex
100
AcDb2dVertex
 10
69.11249561891073
 20
-32.38188459536845
 30
0.0
  0
VERTEX
  5
AF
330
41
100
AcDbEntity
  8
LAYER_1
 62
     7
100
AcDbVertex
100
AcDb2dVertex
 10
69.14238682429603
 20
-32.31382586262787
 30
0.0
  0
VERTEX
  5
B0
330
41
100
AcDbEntity
  8
LAYER_1
 62
     7
100
AcDbVertex
100
AcDb2dVertex
 10
67.16485848601909
 20
-30.83989882018154
 30
0.0
  0
VERTEX
  5
B1
330
41
100
AcDbEntity
  8
LAYER_1
 62
     7
100
AcDbVertex
100
AcDb2dVertex
 10
67.58010540175249
 20
-30.11714332790878
 30
0.0
  0
VERTEX
  5
B2
330
41
100
AcDbEntity
  8
LAYER_1
 62
     7
100
AcDbVertex
100
AcDb2dVertex
 10
72.13715298500762
 20
-27.95814401983501
 30
0.0
  0
VERTEX
  5
B3
330
41
100
AcDbEntity
  8
LAYER_1
 62
     7
100
AcDbVertex
100
AcDb2dVertex
 10
73.65802615978002
 20
-26.00127363793363
 30
0.0
  0
VERTEX
  5
B4
330
41
100
AcDbEntity
  8
LAYER_1
 62
     7
100
AcDbVertex
100
AcDb2dVertex
 10
70.39359775156883
 20
-23.91647360058481
 30
0.0
  0
VERTEX
  5
B5
330
41
100
AcDbEntity
  8
LAYER_1
 62
     7
100
AcDbVertex
100
AcDb2dVertex
 10
80.40519939044879
 20
-21.91836200739511
 30
0.0
  0
VERTEX
  5
B6
330
41
100
AcDbEntity
  8
LAYER_1
 62
     7
100
AcDbVertex
100
AcDb2dVertex
 10
92.22626905522696
 20
-20.00402849639417
 30
0.0
  0
VERTEX
  5
B7
330
41
100
AcDbEntity
  8
LAYER_1
 62
     7
100
AcDbVertex
100
AcDb2dVertex
 10
113.4385303547007
 20
-22.26022844805756
 30
0.0
  0
VERTEX
  5
B8
330
41
100
AcDbEntity
  8
LAYER_1
 62
     7
100
AcDbVertex
100
AcDb2dVertex
 10
122.6214090633444
 20
-28.37924753338269
 30
0.0
  0
VERTEX
  5
B9
330
41
100
AcDbEntity
  8
LAYER_1
 62
     7
100
AcDbVertex
100
AcDb2dVertex
 10
122.657531056611
 20
-30.30409960415951
 30
0.0
  0
VERTEX
  5
BA
330
41
100
AcDbEntity
  8
LAYER_1
 62
     7
100
AcDbVertex
100
AcDb2dVertex
 10
117.4905389513446
 20
-31.1479669813347
 30
0.0
  0
VERTEX
  5
BB
330
41
100
AcDbEntity
  8
LAYER_1
 62
     7
100
AcDbVertex
100
AcDb2dVertex
 10
110.5327763324428
 20
-37.06560152834611
 30
0.0
  0
VERTEX
  5
BC
330
41
100
AcDbEntity
  8
LAYER_1
 62
     7
100
AcDbVertex
100
AcDb2dVertex
 10
110.0378531472166
 20
-41.51549976702966
 30
0.0
  0
VERTEX
  5
BD
330
41
100
AcDbEntity
  8
LAYER_1
 62
     7
100
AcDbVertex
100
AcDb2dVertex
 10
110.5323656027394
 20
-43.39514287585839
 30
0.0
  0
VERTEX
  5
BE
330
41
100
AcDbEntity
  8
LAYER_1
 62
     7
100
AcDbVertex
100
AcDb2dVertex
 10
111.6845858906578
 20
-45.92597586837357
 30
0.0
  0
VERTEX
  5
BF
330
41
100
AcDbEntity
  8
LAYER_1
 62
     7
100
AcDbVertex
100
AcDb2dVertex
 10
107.081231002114
 20
-46.13059893952544
 30
0.0
  0
VERTEX
  5
C0
330
41
100
AcDbEntity
  8
LAYER_1
 62
     7
100
AcDbVertex
100
AcDb2dVertex
 10
104.3470002852379
 20
-48.56104989207309
 30
0.0
  0
VERTEX
  5
C1
330
41
100
AcDbEntity
  8
LAYER_1
 62
     7
100
AcDbVertex
100
AcDb2dVertex
 10
104.832826788031
 20
-52.12646297412322
 30
0.0
  0
VERTEX
  5
C2
330
41
100
AcDbEntity
  8
LAYER_1
 62
     7
100
AcDbVertex
100
AcDb2dVertex
 10
105.837287393678
 20
-54.92069177722131
 30
0.0
  0
VERTEX
  5
C3
330
41
100
AcDbEntity
  8
LAYER_1
 62
     7
100
AcDbVertex
100
AcDb2dVertex
 10
101.3249685887503
 20
-55.38017000300417
 30
0.0
  0
VERTEX
  5
C4
330
41
100
AcDbEntity
  8
LAYER_1
 62
     7
100
AcDbVertex
100
AcDb2dVertex
 10
96.14371328097366
 20
-58.74615207768221
 30
0.0
  0
VERTEX
  5
C5
330
41
100
AcDbEntity
  8
LAYER_1
 62
     7
100
AcDbVertex
100
AcDb2dVertex
 10
100.8854892341904
 20
-59.65534289807607
 30
0.0
  0
VERTEX
  5
C6
330
41
100
AcDbEntity
  8
LAYER_1
 62
     7
100
AcDbVertex
100
AcDb2dVertex
 10
104.7910327197048
 20
-59.53205036273275
 30
0.0
  0
VERTEX
  5
C7
330
41
100
AcDbEntity
  8
LAYER_1
 62
     7
100
AcDbVertex
100
AcDb2dVertex
 10
102.7176078165142
 20
-61.97454507788738
 30
0.0
  0
VERTEX
  5
C8
330
41
100
AcDbEntity
  8
LAYER_1
 62
     7
100
AcDbVertex
100
AcDb2dVertex
 10
102.4272703874209
 20
-66.94846065779993
 30
0.0
  0
VERTEX
  5
C9
330
41
100
AcDbEntity
  8
LAYER_1
 62
     7
100
AcDbVertex
100
AcDb2dVertex
 10
106.6844818399586
 20
-68.7702283757173
 30
0.0
  0
VERTEX
  5
CA
330
41
100
AcDbEntity
  8
LAYER_1
 62
     7
100
AcDbVertex
100
AcDb2dVertex
 10
110.1351433070521
 20
-68.32551588062613
 30
0.0
  0
VERTEX
  5
CB
330
41
100
AcDbEntity
  8
LAYER_1
 62
     7
100
AcDbVertex
100
AcDb2dVertex
 10
106.6529173997546
 20
-71.46147784748916
 30
0.0
  0
VERTEX
  5
CC
330
41
100
AcDbEntity
  8
LAYER_1
 62
     7
100
AcDbVertex
100
AcDb2dVertex
 10
106.2018592524327
 20
-74.21268136415071
 30
0.0
  0
VERTEX
  5
CD
330
41
100
AcDbEntity
  8
LAYER_1
 62
     7
100
AcDbVertex
100
AcDb2dVertex
 10
108.9247276882967
 20
-74.25518395703047
 30
0.0
  0
VERTEX
  5
CE
330
41
100
AcDbEntity
  8
LAYER_1
 62
     7
100
AcDbVertex
100
AcDb2dVertex
 10
109.5986220902907
 20
-75.36052800497316
 30
0.0
  0
VERTEX
  5
CF
330
41
100
AcDbEntity
  8
LAYER_1
 62
     7
100
AcDbVertex
100
AcDb2dVertex
 10
110.192324455872
 20
-77.28452738397542
 30
0.0
  0
VERTEX
  5
D0
330
41
100
AcDbEntity
  8
LAYER_1
 62
     7
100
AcDbVertex
100
AcDb2dVertex
 10
115.2472927252021
 20
-75.84336674736127
 30
0.0
  0
VERTEX
  5
D1
330
41
100
AcDbEntity
  8
LAYER_1
 62
     7
100
AcDbVertex
100
AcDb2dVertex
 10
117.7268823485179
 20
-62.47746724237727
 30
0.0
  0
VERTEX
  5
D2
330
41
100
AcDbEntity
  8
LAYER_1
 62
     7
100
AcDbVertex
100
AcDb2dVertex
 10
114.8671411530367
 20
-48.17510053538862
 30
0.0
  0
VERTEX
  5
D3
330
41
100
AcDbEntity
  8
LAYER_1
 62
     7
100
AcDbVertex
100
AcDb2dVertex
 10
117.6299329124571
 20
-42.37207886784422
 30
0.0
  0
VERTEX
  5
D4
330
41
100
AcDbEntity
  8
LAYER_1
 62
     7
100
AcDbVertex
100
AcDb2dVertex
 10
121.5099688732746
 20
-37.9365554324372
 30
0.0
  0
VERTEX
  5
D5
330
41
100
AcDbEntity
  8
LAYER_1
 62
     7
100
AcDbVertex
100
AcDb2dVertex
 10
125.7884813518091
 20
-35.12785433278334
 30
0.0
  0
VERTEX
  5
D6
330
41
100
AcDbEntity
  8
LAYER_1
 62
     7
100
AcDbVertex
100
AcDb2dVertex
 10
127.4575055492059
 20
-31.98773766819546
 30
0.0
  0
VERTEX
  5
D7
330
41
100
AcDbEntity
  8
LAYER_1
 62
     7
100
AcDbVertex
100
AcDb2dVertex
 10
124.7771035631046
 20
-29.67795819149595
 30
0.0
  0
VERTEX
  5
D8
330
41
100
AcDbEntity
  8
LAYER_1
 62
     7
100
AcDbVertex
100
AcDb2dVertex
 10
128.5360225615474
 20
-28.20774542054608
 30
0.0
  0
VERTEX
  5
D9
330
41
100
AcDbEntity
  8
LAYER_1
 62
     7
100
AcDbVertex
100
AcDb2dVertex
 10
134.9357654703805
 20
-27.96131369417368
 30
0.0
  0
VERTEX
  5
DA
330
41
100
AcDbEntity
  8
LAYER_1
 62
     7
100
AcDbVertex
100
AcDb2dVertex
 10
139.6759558453469
 20
-28.38382561996048
 30
0.0
  0
VERTEX
  5
DB
330
41
100
AcDbEntity
  8
LAYER_1
 62
     7
100
AcDbVertex
100
AcDb2dVertex
 10
143.3161727552611
 20
-28.9722534858159
 30
0.0
  0
VERTEX
  5
DC
330
41
100
AcDbEntity
  8
LAYER_1
 62
     7
100
AcDbVertex
100
AcDb2dVertex
 10
142.6669512553047
 20
-30.53202709667467
 30
0.0
  0
VERTEX
  5
DD
330
41
100
AcDbEntity
  8
LAYER_1
 62
     7
100
AcDbVertex
100
AcDb2dVertex
 10
139.9592531654103
 20
-34.1299500615177
 30
0.0
  0
VERTEX
  5
DE
330
41
100
AcDbEntity
  8
LAYER_1
 62
     7
100
AcDbVertex
100
AcDb2dVertex
 10
139.9592531654103
 20
-34.1299500615177
 30
0.0
  0
SEQEND
  5
DF
330
41
100
AcDbEntity
  8
LAYER_1
 62
     7
  0
POLYLINE
  5
E0
330
1F
100
AcDbEntity
  8
LAYER_1
 62
     7
100
AcDb2dPolyline
 66
     1
 10
0.0
 20
0.0
 30
0.0
  0
VERTEX
  5
E1
330
E0
100
AcDbEntity
  8
LAYER_1
 62
     7
100
AcDbVertex
100
AcDb2dVertex
 10
37.15131511571445
 20
-35.66075945596457
 30
0.0
  0
VERTEX
  5
E2
330
E0
100
AcDbEntity
  8
LAYER_1
 62
     7
100
AcDbVertex
100
AcDb2dVertex
 10
35.52659292065604
 20
-30.76274520031781
 30
0.0
  0
VERTEX
  5
E3
330
E0
100
AcDbEntity
  8
LAYER_1
 62
     7
100
AcDbVertex
100
AcDb2dVertex
 10
34.06909428779368
 20
-29.83708732857973
 30
0.0
  0
VERTEX
  5
E4
330
E0
100
AcDbEntity
  8
LAYER_1
 62
     7
100
AcDbVertex
100
AcDb2dVertex
 10
32.2302222086464
 20
-31.4549316492558
 30
0.0
  0
VERTEX
  5
E5
330
E0
100
AcDbEntity
  8
LAYER_1
 62
     7
100
AcDbVertex
100
AcDb2dVertex
 10
32.90044239459773
 20
-35.1310241766727
 30
0.0
  0
VERTEX
  5
E6
330
E0
100
AcDbEntity
  8
LAYER_1
 62
     7
100
AcDbVertex
100
AcDb2dVertex
 10
37.15131511571445
 20
-35.66075945596457
 30
0.0
  0
VERTEX
  5
E7
330
E0
100
AcDbEntity
  8
LAYER_1
 62
     7
100
AcDbVertex
100
AcDb2dVertex
 10
37.15131511571445
 20
-35.66075945596457
 30
0.0
  0
SEQEND
  5
E8
330
E0
100
AcDbEntity
  8
LAYER_1
 62
     7
  0
POLYLINE
  5
E9
330
1F
100
AcDbEntity
  8
LAYER_1
 62
     7
100
AcDb2dPolyline
 66
     1
 10
0.0
 20
0.0
 30
0.0
  0
VERTEX
  5
EA
330
E9
100
AcDbEntity
  8
LAYER_1
 62
     7
100
AcDbVertex
100
AcDb2dVertex
 10
37.38699173534675
 20
-80.51377753113297
 30
0.0
  0
VERTEX
  5
FB
330
E9
100
AcDbEntity
  8
0
100
AcDbVertex
100
AcDb2dVertex
 10
37.38699173534675
 20
-80.51377753113297
 30
0.0
  0
SEQEND
  5
EB
330
E9
100
AcDbEntity
  8
LAYER_1
 62
     7
  0
POLYLINE
  5
EC
330
1F
100
AcDbEntity
  8
LAYER_1
 62
     7
100
AcDb2dPolyline
 66
     1
 10
0.0
 20
0.0
 30
0.0
  0
VERTEX
  5
ED
330
EC
100
AcDbEntity
  8
LAYER_1
 62
     7
100
AcDbVertex
100
AcDb2dVertex
 10
129.3293042854824
 20
-63.04549336063747
 30
0.0
  0
VERTEX
  5
FC
330
EC
100
AcDbEntity
  8
0
100
AcDbVertex
100
AcDb2dVertex
 10
129.3293042854824
 20
-63.04549336063747
 30
0.0
  0
SEQEND
  5
EE
330
EC
100
AcDbEntity
  8
LAYER_1
 62
     7
  0
POLYLINE
  5
EF
330
1F
100
AcDbEntity
  8
LAYER_1
 62
     7
100
AcDb2dPolyline
 66
     1
 10
0.0
 20
0.0
 30
0.0
  0
VERTEX
  5
F0
330
EF
100
AcDbEntity
  8
LAYER_1
 62
     7
100
AcDbVertex
100
AcDb2dVertex
 10
143.3161727552604
 20
-123.3417175026762
 30
0.0
  0
VERTEX
  5
FD
330
EF
100
AcDbEntity
  8
0
100
AcDbVertex
100
AcDb2dVertex
 10
143.3161727552604
 20
-123.3417175026762
 30
0.0
  0
SEQEND
  5
F1
330
EF
100
AcDbEntity
  8
LAYER_1
 62
     7
  0
POLYLINE
  5
F2
330
1F
100
AcDbEntity
  8
LAYER_1
 62
     7
100
AcDb2dPolyline
 66
     1
 10
0.0
 20
0.0
 30
0.0
  0
VERTEX
  5
F3
330
F2
100
AcDbEntity
  8
LAYER_1
 62
     7
100
AcDbVertex
100
AcDb2dVertex
 10
91.59553455658532
 20
-128.5790359079397
 30
0.0
  0
VERTEX
  5
FE
330
F2
100
AcDbEntity
  8
0
100
AcDbVertex
100
AcDb2dVertex
 10
91.59553455658532
 20
-128.5790359079397
 30
0.0
  0
SEQEND
  5
F4
330
F2
100
AcDbEntity
  8
LAYER_1
 62
     7
  0
POLYLINE
  5
F5
330
1F
100
AcDbEntity
  8
LAYER_1
 62
     7
100
AcDb2dPolyline
 66
     1
 10
0.0
 20
0.0
 30
0.0
  0
VERTEX
  5
F6
330
F5
100
AcDbEntity
  8
LAYER_1
 62
     7
100
AcDbVertex
100
AcDb2dVertex
 10
140.828489572071
 20
-120.7921845282603
 30
0.0
  0
VERTEX
  5
FF
330
F5
100
AcDbEntity
  8
0
100
AcDbVertex
100
AcDb2dVertex
 10
140.828489572071
 20
-120.7921845282603
 30
0.0
  0
SEQEND
  5
F7
330
F5
100
AcDbEntity
  8
LAYER_1
 62
     7
  0
POLYLINE
  5
F8
330
1F
100
AcDbEntity
  8
LAYER_1
 62
     7
100
AcDb2dPolyline
 66
     1
 10
0.0
 20
0.0
 30
0.0
  0
VERTEX
  5
F9
330
F8
100
AcDbEntity
  8
LAYER_1
 62
     7
100
AcDbVertex
100
AcDb2dVertex
 10
89.17486775975239
 20
-71.4439418581742
 30
0.0
  0
VERTEX
  5
100
330
F8
100
AcDbEntity
  8
0
100
AcDbVertex
100
AcDb2dVertex
 10
89.17486775975239
 20
-71.4439418581742
 30
0.0
  0
SEQEND
  5
FA
330
F8
100
AcDbEntity
  8
LAYER_1
 62
     7
  0
ENDSEC
  0
SECTION
  2
OBJECTS
  0
DICTIONARY
  5
C
330
0
100
AcDbDictionary
  3
ACAD_GROUP
350
D
  3
ACAD_LAYOUT
350
1A
  3
ACAD_MATERIAL
350
3B
  3
ACAD_MLEADERSTYLE
350
103
  3
ACAD_MLINESTYLE
350
17
  3
ACAD_PLOTSETTINGS
350
19
  3
ACAD_VISUALSTYLE
350
2A
  3
ACDBVARIABLEDICTIONARY
350
101
1001
ACAD
1000
TREAT_AS_HARD
1070
     0
  0
DICTIONARY
  5
D
102
{ACAD_REACTORS
330
C
102
}
330
C
100
AcDbDictionary
1001
ACAD
1000
TREAT_AS_HARD
1070
     0
  0
DICTIONARY
  5
1A
102
{ACAD_REACTORS
330
C
102
}
330
C
100
AcDbDictionary
1001
ACAD
1000
TREAT_AS_HARD
1070
     0
  0
DICTIONARY
  5
3B
102
{ACAD_REACTORS
330
C
102
}
330
C
100
AcDbDictionary
  3
BYBLOCK
350
3D
  3
BYLAYER
350
3C
  3
GLOBAL
350
3E
1001
ACAD
1000
TREAT_AS_HARD
1070
     0
  0
DICTIONARY
  5
103
102
{ACAD_REACTORS
330
C
102
}
330
C
100
AcDbDictionary
1001
ACAD
1000
TREAT_AS_HARD
1070
     0
  0
DICTIONARY
  5
17
102
{ACAD_REACTORS
330
C
102
}
330
C
100
AcDbDictionary
  3
STANDARD
350
18
1001
ACAD
1000
TREAT_AS_HARD
1070
     0
  0
DICTIONARY
  5
19
102
{ACAD_REACTORS
330
C
102
}
330
C
100
AcDbDictionary
1001
ACAD
1000
TREAT_AS_HARD
1070
     0
  0
DICTIONARY
  5
2A
102
{ACAD_REACTORS
330
C
102
}
330
C
100
AcDbDictionary
  3
2DWIREFRAME
350
2F
  3
3DWIREFRAME
350
30
  3
3D_HIDDEN
350
31
  3
BASIC
350
32
  3
BRIGHTEN
350
36
  3
COLORCHANGE
350
3A
  3
CONCEPTUAL
350
34
  3
DIM
350
35
  3
FACEPATTERN
350
39
  3
FLAT
350
2B
  3
FLATWITHEDGES
350
2C
  3
GOURAUD
350
2D
  3
GOURAUDWITHEDGES
350
2E
  3
LINEPATTERN
350
38
  3
REALISTIC
350
33
  3
THICKEN
350
37
1001
ACAD
1000
TREAT_AS_HARD
1070
     0
  0
DICTIONARY
  5
101
102
{ACAD_REACTORS
330
C
102
}
330
C
100
AcDbDictionary
  3
DIMASSOC
350
104
  3
HIDETEXT
350
105
1001
ACAD
1000
TREAT_AS_HARD
1070
     0
  0
MATERIAL
  5
3D
102
{ACAD_REACTORS
330
3B
102
}
102
{ACAD_XDICTIONARY
360
108
102
}
330
3B
100
AcDbMaterial
  1
ByBlock
  0
MATERIAL
  5
3C
102
{ACAD_REACTORS
330
3B
102
}
102
{ACAD_XDICTIONARY
360
106
102
}
330
3B
100
AcDbMaterial
  1
ByLayer
  0
MATERIAL
  5
3E
102
{ACAD_REACTORS
330
3B
102
}
102
{ACAD_XDICTIONARY
360
10A
102
}
330
3B
100
AcDbMaterial
  1
Global
  0
MLINESTYLE
  5
18
102
{ACAD_REACTORS
330
17
102
}
330
17
100
AcDbMlineStyle
  2
Standard
 70
     0
  3

 62
   256
 51
90.0
 52
90.0
 71
     2
 49
0.5
 62
   256
  6
BYLAYER
 49
-0.5
 62
   256
  6
BYLAYER
  0
ACAD_PROXY_OBJECT
  5
2F
102
{ACAD_REACTORS
330
2A
102
}
330
2A
100
AcDbZombieObject
 90
      499
 91
      501
 93
      436
310
42CC9915DA5C99599C985B595049028333333333333E3BF0000000000000FB0107901411070040501600405405064090741402480A0340
1001
ACAD
1000
AcDbSavedByObjectVersion
1070
     0
  0
ACAD_PROXY_OBJECT
  5
30
102
{ACAD_REACTORS
330
2A
102
}
330
2A
100
AcDbZombieObject
 90
      499
 91
      501
 93
      436
310
42CCD915DA5C99599C985B595059028333333333333E3BF0000000000000FB0107901411070040501600405405064090741402480A0340
1001
ACAD
1000
AcDbSavedByObjectVersion
1070
     0
  0
ACAD_PROXY_OBJECT
  5
31
102
{ACAD_REACTORS
330
2A
102
}
330
2A
100
AcDbZombieObject
 90
      499
 91
      501
 93
      500
310
424CD108121A5919195B90640502408333333333333E3BF0000000000000FB01079024090700405020000000000001110200405405064090740C02480A0340
1001
ACAD
1000
AcDbSavedByObjectVersion
1070
     0
  0
ACAD_PROXY_OBJECT
  5
32
102
{ACAD_REACTORS
330
2A
102
}
330
2A
100
AcDbZombieObject
 90
      499
 91
      501
 93
      388
310
4150985CDA58D07406404333333333333E3BF0000000000000FB0107A41107004050150841D405064090741402480A0350
1001
ACAD
1000
AcDbSavedByObjectVersion
1070
     0
  0
ACAD_PROXY_OBJECT
  5
36
102
{ACAD_REACTORS
330
2A
102
}
330
2A
100
AcDbZombieObject
 90
      499
 91
      501
 93
      428
310
42109C9A59DA1D195B90C409028333333333333E3BF0000000000000FB010790141107004050150841D405064090741402480A029950
1001
ACAD
1000
AcDbSavedByObjectVersion
1070
     0
  0
ACAD_PROXY_OBJECT
  5
3A
102
{ACAD_REACTORS
330
2A
102
}
330
2A
100
AcDbZombieObject
 90
      499
 91
      501
 93
      452
310
42D0DBDB1BDC90DA185B99D95104090240C333333333333E3BF0000000000000FB0108901411070040501508421405064090741402480A0350
1001
ACAD
1000
AcDbSavedByObjectVersion
1070
     0
  0
ACAD_PROXY_OBJECT
  5
34
102
{ACAD_REACTORS
330
2A
102
}
330
2A
100
AcDbZombieObject
 90
      499
 91
      501
 93
      500
310
4290DBDB98D95C1D1D585B10940D028333333333333E3BF0000000000000FB0107902409070040501000000000000111010841D405064090740C02480A0340
1001
ACAD
1000
AcDbSavedByObjectVersion
1070
     0
  0
ACAD_PROXY_OBJECT
  5
35
102
{ACAD_REACTORS
330
2A
102
}
330
2A
100
AcDbZombieObject
 90
      499
 91
      501
 93
      412
310
40D11A5B50B409028333333333333E3BF0000000000000FB010790141107004050150841D405064090741402480A02677FFFFFD0
1001
ACAD
1000
AcDbSavedByObjectVersion
1070
     0
  0
ACAD_PROXY_OBJECT
  5
39
102
{ACAD_REACTORS
330
2A
102
}
330
2A
100
AcDbZombieObject
 90
      499
 91
      501
 93
      444
310
42D19858D95C185D1D195C9B90F409028333333333333E3BF0000000000000FB010790141107004050150841D405064090741402480A0350
1001
ACAD
1000
AcDbSavedByObjectVersion
1070
     0
  0
ACAD_PROXY_OBJECT
  5
2B
102
{ACAD_REACTORS
330
2A
102
}
330
2A
100
AcDbZombieObject
 90
      499
 91
      501
 93
      388
310
41119B185D240901404333333333333E3BF0000000000000F9010740A41107004050150841D405064090741402480A1B50
1001
ACAD
1000
AcDbSavedByObjectVersion
1070
     0
  0
ACAD_PROXY_OBJECT
  5
2C
102
{ACAD_REACTORS
330
2A
102
}
330
2A
100
AcDbZombieObject
 90
      499
 91
      501
 93
      476
310
43519B185D15DA5D1A115919D95CD0140901404333333333333E3BF0000000000000F9010740901411070040501600405405064090741402480A1B50
1001
ACAD
1000
AcDbSavedByObjectVersion
1070
     0
  0
ACAD_PROXY_OBJECT
  5
2D
102
{ACAD_REACTORS
330
2A
102
}
330
2A
100
AcDbZombieObject
 90
      499
 91
      501
 93
      412
310
41D1DBDD5C985D5910240902404333333333333E3BF0000000000000F9010740A411070040501641D405064090741402480A1B50
1001
ACAD
1000
AcDbSavedByObjectVersion
1070
     0
  0
ACAD_PROXY_OBJECT
  5
2E
102
{ACAD_REACTORS
330
2A
102
}
330
2A
100
AcDbZombieObject
 90
      499
 91
      501
 93
      500
310
4411DBDD5C985D5915DA5D1A115919D95CD0340902404333333333333E3BF0000000000000F9010740901411070040501600405405064090741402480A1B50
1001
ACAD
1000
AcDbSavedByObjectVersion
1070
     0
  0
ACAD_PROXY_OBJECT
  5
38
102
{ACAD_REACTORS
330
2A
102
}
330
2A
100
AcDbZombieObject
 90
      499
 91
      501
 93
      444
310
42D31A5B995C185D1D195C9B90E409028333333333333E3BF0000000000000FB010790141107004050750841D405064090741402483A0350
1001
ACAD
1000
AcDbSavedByObjectVersion
1070
     0
  0
ACAD_PROXY_OBJECT
  5
33
102
{ACAD_REACTORS
330
2A
102
}
330
2A
100
AcDbZombieObject
 90
      499
 91
      501
 93
      420
310
425499585B1A5CDD1A58D08409028333333333333E3BF0000000000000FB01079019070040501508421405064090741402480A1B40
1001
ACAD
1000
AcDbSavedByObjectVersion
1070
     0
  0
ACAD_PROXY_OBJECT
  5
37
102
{ACAD_REACTORS
330
2A
102
}
330
2A
100
AcDbZombieObject
 90
      499
 91
      501
 93
      412
310
41D51A1A58DAD95B90D409028333333333333E3BF0000000000000FB010790141107004050150C41D405064090741402480A0350
1001
ACAD
1000
AcDbSavedByObjectVersion
1070
     0
  0
DICTIONARYVAR
  5
104
102
{ACAD_REACTORS
330
101
102
}
330
101
100
DictionaryVariables
280
     0
  1
2
  0
DICTIONARYVAR
  5
105
102
{ACAD_REACTORS
330
101
102
}
330
101
100
DictionaryVariables
280
     0
  1
1
  0
DICTIONARY
  5
108
330
3D
100
AcDbDictionary
  3
ACAD_XREC_ROUNDTRIP
360
109
1001
ACAD
1000
TREAT_AS_HARD
1070
     1
  0
DICTIONARY
  5
106
330
3C
100
AcDbDictionary
  3
ACAD_XREC_ROUNDTRIP
360
107
1001
ACAD
1000
TREAT_AS_HARD
1070
     1
  0
DICTIONARY
  5
10A
330
3E
100
AcDbDictionary
  3
ACAD_XREC_ROUNDTRIP
360
10B
1001
ACAD
1000
TREAT_AS_HARD
1070
     1
  0
XRECORD
  5
109
102
{ACAD_REACTORS
330
108
102
}
330
108
100
AcDbXrecord
102
MATERIAL
148
0.0
149
0.0
149
0.0
 93
        0
 94
      127
282
     0
 72
     1
 77
     1
171
     1
175
     1
179
     1
273
     0
  0
XRECORD
  5
107
102
{ACAD_REACTORS
330
106
102
}
330
106
100
AcDbXrecord
102
MATERIAL
148
0.0
149
0.0
149
0.0
 93
        0
 94
      127
282
     0
 72
     1
 77
     1
171
     1
175
     1
179
     1
273
     0
  0
XRECORD
  5
10B
102
{ACAD_REACTORS
330
10A
102
}
330
10A
100
AcDbXrecord
102
MATERIAL
148
0.0
149
0.0
149
0.0
 93
        0
 94
      127
282
     0
 72
     1
 77
     1
171
     1
175
     1
179
     1
273
     0
  0
ENDSEC
  0
EOF
