M48
;DRILL file {KiCad (5.0.2-5)-5} date Tuesday, February 19, 2019 at 09:12:37 PM
;FORMAT={2:4/ absolute / inch / suppress leading zeros}
FMAT,2
INCH,TZ
T1C0.0079
T2C0.0130
T3C0.0157
T4C0.0197
T5C0.0315
T6C0.0354
T7C0.1260
%
G90
G05
T1
X39843Y-39921
X39843Y-40315
X39843Y-40709
X40236Y-39921
X40236Y-40315
X40236Y-40709
X40630Y-39921
X40630Y-40315
X40630Y-40709
T2
X32138Y-38827
X34232Y-37012
X36416Y-46661
X38819Y-50157
X39370Y-47165
X40079Y-47434
X40669Y-23041
X41362Y-21114
X41891Y-82784
X42205Y-44535
X42220Y-41882
X42283Y-47244
X42598Y-83484
X42992Y-46503
X43102Y-21961
X43449Y-21531
X43510Y-22008
X44943Y-21761
X45206Y-48191
X45567Y-21870
X47162Y-43294
X48409Y-39693
X48740Y-55984
X49277Y-40915
X49594Y-41580
X49646Y-42001
X49651Y-42433
X49922Y-42697
X49947Y-41355
X50295Y-41354
X50295Y-42697
X50689Y-41356
X50728Y-42709
X50958Y-41343
X51161Y-42717
X51602Y-42689
T3
X27010Y-61328
X27010Y-57410
X27020Y-63283
X27083Y-58510
X27364Y-55476
X27769Y-64517
X27871Y-66841
X27996Y-75774
X28008Y-68756
X28071Y-71811
X28083Y-60350
X28091Y-72531
X28189Y-50113
X28189Y-53671
X28290Y-63070
X28890Y-51768
X29055Y-52126
X29059Y-66102
X29291Y-68346
X29291Y-68736
X29299Y-55528
X29327Y-46910
X29435Y-62382
X29555Y-69776
X29801Y-67856
X30320Y-54566
X30369Y-69192
X30630Y-74567
X30709Y-73583
X30760Y-66102
X31131Y-58722
X31150Y-47878
X31303Y-80743
X31730Y-44879
X31890Y-74488
X31901Y-82041
X31972Y-41381
X31997Y-51579
X32051Y-51953
X32164Y-40810
X32283Y-58973
X32343Y-59484
X33145Y-37824
X33386Y-53740
X33607Y-51799
X33898Y-38827
X33908Y-52480
X33934Y-42444
X34024Y-57134
X34047Y-83337
X35002Y-73317
X35197Y-57582
X35389Y-84679
X35463Y-82913
X35551Y-52008
X35595Y-55512
X35601Y-33778
X35745Y-35430
X36226Y-60511
X36237Y-42882
X36735Y-35430
X36798Y-31919
X36846Y-46683
X37129Y-82956
X37335Y-20094
X37614Y-85119
X38145Y-72414
X38177Y-61240
X38416Y-37207
X38722Y-81798
X38740Y-74803
X38898Y-37433
X39124Y-28425
X39134Y-85906
X39134Y-87461
X39291Y-38549
X39764Y-85748
X39879Y-84734
X39921Y-83622
X40079Y-23622
X40161Y-38886
X40454Y-85936
X40646Y-38677
X40748Y-72866
X40756Y-26836
X41036Y-84988
X41220Y-77559
X41417Y-46920
X41496Y-52283
X41641Y-74572
X41732Y-41181
X41732Y-76496
X42083Y-24563
X42094Y-81717
X42180Y-21211
X42205Y-40079
X42205Y-77317
X42346Y-86900
X42368Y-30231
X42520Y-40709
X42717Y-30906
X42951Y-72142
X43043Y-72760
X43228Y-85285
X43501Y-72700
X43540Y-77641
X43543Y-78372
X43543Y-87008
X43765Y-41471
X43767Y-76943
X43920Y-72799
X43927Y-23394
X44094Y-79528
X44257Y-76305
X44264Y-74067
X44268Y-20445
X44331Y-52047
X44542Y-76517
X44567Y-42205
X44567Y-47244
X44676Y-25039
X44728Y-80012
X44854Y-76290
X44865Y-41837
X44882Y-79638
X44961Y-26772
X44989Y-74724
X45020Y-75828
X45039Y-41575
X45039Y-42835
X45129Y-75197
X45383Y-74987
X45421Y-43375
X45563Y-86130
X45613Y-75644
X45748Y-47411
X45748Y-42835
X45761Y-76063
X45984Y-52126
X46299Y-41575
X46693Y-42835
X46696Y-79210
X46885Y-79468
X46960Y-26264
X47026Y-78163
X47044Y-78477
X47075Y-78932
X47110Y-77859
X47138Y-76012
X47232Y-76913
X47323Y-83071
X47370Y-77682
X47411Y-80787
X47418Y-79932
X47512Y-42479
X47562Y-40706
X47638Y-75669
X47722Y-77503
X47943Y-85253
X47981Y-77323
X47992Y-75304
X48110Y-83228
X48268Y-84173
X48337Y-81411
X48497Y-81859
X48652Y-81397
X48785Y-84920
X48917Y-27059
X49370Y-81811
X49370Y-85118
X49516Y-41298
X49570Y-42714
X49843Y-41732
X49921Y-42205
X50315Y-44567
X50508Y-84066
X50874Y-81469
X50945Y-47638
X51378Y-47728
X51605Y-46773
X51605Y-47328
X51613Y-82151
X51742Y-63138
X52047Y-41732
X52047Y-42283
X52094Y-75988
X52493Y-72969
X52595Y-70782
X53464Y-80623
X53937Y-51417
X54252Y-67559
X54724Y-67953
X54882Y-70512
X54921Y-68764
X55354Y-69291
X55443Y-64248
X55660Y-58429
X55660Y-60390
X56192Y-57445
X56192Y-59413
X56192Y-62319
X56192Y-64248
X56202Y-60337
X56691Y-61150
T5
X33150Y-23386
X34650Y-23386
X48504Y-23386
X50004Y-23386
T6
X27823Y-47047
X27823Y-48228
T7
X52445Y-79417
X30539Y-53268
X52445Y-53236
X30539Y-79449
X38031Y-17874
X44803Y-17874
T4
X27000Y-50591G85X27276Y-50591
G05
X27000Y-53189G85X27276Y-53189
G05
T0
M30
